/* XPM */
static char * controls__popup_xpm[] = {
"124 17 62 1",
" 	c None",
".	c #D1D1D1",
"+	c #D1D1D0",
"@	c #D1D0D1",
"#	c #D0D1D0",
"$	c #D0D0D0",
"%	c #D0D0CF",
"&	c #D0CFCF",
"*	c #CFCFCF",
"=	c #CFD0CF",
"-	c #CFCFD0",
";	c #CFCECF",
">	c #CFCFCE",
",	c #CECFCF",
"'	c #CECECE",
")	c #CECFCE",
"!	c #CDCDCE",
"~	c #CECDCE",
"{	c #CDCDCD",
"]	c #CDCECD",
"^	c #CBCBCB",
"/	c #CBCBCA",
"(	c #CACACB",
"_	c #CACACA",
":	c #D7D7D7",
"<	c #000000",
"[	c #DDDDDD",
"}	c #D5D5D5",
"|	c #E2E3E3",
"1	c #DCDCDC",
"2	c #E9E9E8",
"3	c #E2E2E1",
"4	c #EFEFEF",
"5	c #E7E8E8",
"6	c #F4F5F5",
"7	c #EEEDEE",
"8	c #D2D2D3",
"9	c #C8C8C8",
"0	c #D8D7D7",
"a	c #DCDCDB",
"b	c #E0E0E0",
"c	c #E0E1E0",
"d	c #CCCBCC",
"e	c #E4E5E4",
"f	c #D5D4D5",
"g	c #EDEEED",
"h	c #D9D9D9",
"i	c #DEDEDE",
"j	c #EFF0EF",
"k	c #EEF0EF",
"l	c #EEEFEE",
"m	c #EEEFED",
"n	c #EDEEEE",
"o	c #EDEDED",
"p	c #ECEDEC",
"q	c #E5E6E6",
"r	c #E6E6E5",
"s	c #E5E6E4",
"t	c #E4E4E4",
"u	c #E3E4E3",
"v	c #E3E3E3",
"w	c #E2E3E2",
".+@#$$$%&%*=-*;>*,')''!~{]{-*;>*,'-*;>*,')''!~{]{-*;>*,'-*;>*,')''!~{]{-*;>*,'>*,')''!~{]{-*;>*,',)''!~{]{-*;>*,'^//(//_____",
":<<<<<<<<<<<<<<<<<<<<<<<<<<<<<<<<<<<<<<<<<<<<<<<<<<<<<<<<<<<<<<<<<<<<<<<<<<<<<<<<<<<<<<<<<<<<<<<<<<<<<<<<<<<<<<<<<<<<<<<<<<-",
"[<<<<<<<<<<<<<<<<<<<<<<<<<<<<<<<<<<<<<<<<<<<<<<<<<<<<<<<<<<<<<<<<<<<<<<<<<<<<<<<<<<<<<<<<<<<<<<<<<<<<<<<<<<<<<<<<<<<<<<<<<<}",
"|<<<<<<<<<<<<<<<<<<<<<<<<<<<<<<<<<<<<<<<<<<<<<<<<<<<<<<<<<<<<<<<<<<<<<<<<<<<<<<<<<<<<<<<<<<<<<<<<<<<<<<<<<<<<<<<<<<<<<<<<<<1",
"|<<<<<<<<<<<<<<<<<<<<<<<<<<<<<<<<<<<<<<<<<<<<<<<<<<<<<<<<<<<<<<<<<<<<<<<<<<<<<<<<<<<<<<<<<<<<<<<<<<<<<<<<<<<<<<<<<<<<<<<<<<1",
"2<<<<<<<<<<<<<<<<<<<<<<<<<<<<<<<<<<<<<<<<<<<<<<<<<<<<<<<<<<<<<<<<<<<<<<<<<<<<<<<<<<<<<<<<<<<<<<<<<<<<<<<<<<<<<<<<<<<<<<<<<<3",
"4<<<<<<<<<<<<<<<<<<<<<<<<<<<<<<<<<<<<<<<<<<<<<<<<<<<<<<<<<<<<<<<<<<<<<<<<<<<<<<<<<<<<<<<<<<<<<<<<<<<<<<<<<<<<<<<<<<<<<<<<<<5",
"6<<<<<<<<<<<<<<<<<<<<<<<<<<<<<<<<<<<<<<<<<<<<<<<<<<<<<<<<<<<<<<<<<<<<<<<<<<<<<<<<<<<<<<<<<<<<<<<<<<<<<<<<<<<<<<<<<<<<<<<<<<7",
"8<<<<<<<<<<<<<<<<<<<<<<<<<<<<<<<<<<<<<<<<<<<<<<<<<<<<<<<<<<<<<<<<<<<<<<<<<<<<<<<<<<<<<<<<<<<<<<<<<<<<<<<<<<<<<<<<<<<<<<<<<<9",
"0<<<<<<<<<<<<<<<<<<<<<<<<<<<<<<<<<<<<<<<<<<<<<<<<<<<<<<<<<<<<<<<<<<<<<<<<<<<<<<<<<<<<<<<<<<<<<<<<<<<<<<<<<<<<<<<<<<<<<<<<<<9",
"a<<<<<<<<<<<<<<<<<<<<<<<<<<<<<<<<<<<<<<<<<<<<<<<<<<<<<<<<<<<<<<<<<<<<<<<<<<<<<<<<<<<<<<<<<<<<<<<<<<<<<<<<<<<<<<<<bbbbbbb<<<9",
"c<<<<<<<<<<<<<<<<<<<<<<<<<<<<<<<<<<<<<<<<<<<<<<<<<<<<<<<<<<<<<<<<<<<<<<<<<<<<<<<<<<<<<<<<<<<<<<<<<<<<<<<<<<<<<<<<<bbbbb<<<<d",
"e<<<<<<<<<<<<<<<<<<<<<<<<<<<<<<<<<<<<<<<<<<<<<<<<<<<<<<<<<<<<<<<<<<<<<<<<<<<<<<<<<<<<<<<<<<<<<<<<<<<<<<<<<<<<<<<<<<bbb<<<<<$",
"2<<<<<<<<<<<<<<<<<<<<<<<<<<<<<<<<<<<<<<<<<<<<<<<<<<<<<<<<<<<<<<<<<<<<<<<<<<<<<<<<<<<<<<<<<<<<<<<<<<<<<<<<<<<<<<<<<<<b<<<<<<f",
"g<<<<<<<<<<<<<<<<<<<<<<<<<<<<<<<<<<<<<<<<<<<<<<<<<<<<<<<<<<<<<<<<<<<<<<<<<<<<<<<<<<<<<<<<<<<<<<<<<<<<<<<<<<<<<<<<<<<<<<<<<<h",
"4<<<<<<<<<<<<<<<<<<<<<<<<<<<<<<<<<<<<<<<<<<<<<<<<<<<<<<<<<<<<<<<<<<<<<<<<<<<<<<<<<<<<<<<<<<<<<<<<<<<<<<<<<<<<<<<<<<<<<<<<<<i",
"444444444444444444jklmnoopp444444j444444jklmnoopp444444j444444jklmnoopp444444j444jklmnoopp444444j4klmnoopp444444jqrsettuuvvw"};
