/* XPM */
static char * envelope__button_cutoff_active_xpm[] = {
"49 20 383 2",
"  	c #594041",
". 	c #5B4444",
"+ 	c #5C4746",
"@ 	c #5D4847",
"# 	c #5F4A49",
"$ 	c #5F4B4A",
"% 	c #604C4C",
"& 	c #614E4E",
"* 	c #624F4F",
"= 	c #635050",
"- 	c #645252",
"; 	c #655353",
"> 	c #665454",
", 	c #675656",
"' 	c #685757",
") 	c #695859",
"! 	c #6A595A",
"~ 	c #6B5B5B",
"{ 	c #6B5D5D",
"] 	c #6C5E5E",
"^ 	c #6D5F5F",
"/ 	c #6E6161",
"( 	c #6F6262",
"_ 	c #706464",
": 	c #716565",
"< 	c #726666",
"[ 	c #736868",
"} 	c #746969",
"| 	c #756A6A",
"1 	c #766C6C",
"2 	c #776D6D",
"3 	c #786E6E",
"4 	c #797070",
"5 	c #7A7171",
"6 	c #7B7272",
"7 	c #7C7474",
"8 	c #7D7575",
"9 	c #7E7777",
"0 	c #7F7878",
"a 	c #807979",
"b 	c #807B7B",
"c 	c #817C7C",
"d 	c #827D7D",
"e 	c #837F7F",
"f 	c #848080",
"g 	c #868383",
"h 	c #888686",
"i 	c #CCCCCC",
"j 	c #5B4344",
"k 	c #929292",
"l 	c #CDCDCD",
"m 	c #5C4647",
"n 	c #9D9D9C",
"o 	c #9E9D9D",
"p 	c #9E9D9E",
"q 	c #9F9E9F",
"r 	c #A09F9F",
"s 	c #A0A09F",
"t 	c #A1A1A0",
"u 	c #A1A1A1",
"v 	c #A2A2A2",
"w 	c #A3A3A2",
"x 	c #A4A4A3",
"y 	c #A4A4A4",
"z 	c #A5A5A5",
"A 	c #A6A6A6",
"B 	c #A7A7A7",
"C 	c #A8A8A8",
"D 	c #A9A9A9",
"E 	c #AAAAAA",
"F 	c #ABABAB",
"G 	c #ACACAC",
"H 	c #ADADAD",
"I 	c #AEAEAE",
"J 	c #AFAFAF",
"K 	c #B0B0B0",
"L 	c #B1B1B1",
"M 	c #B2B1B2",
"N 	c #BABABA",
"O 	c #D4D4D4",
"P 	c #CECFCF",
"Q 	c #5E4949",
"R 	c #9D9D9D",
"S 	c #9D9E9E",
"T 	c #9E9F9F",
"U 	c #9F9F9F",
"V 	c #A09FA0",
"W 	c #A0A0A0",
"X 	c #A0A1A0",
"Y 	c #A1A2A1",
"Z 	c #A3A3A3",
"` 	c #A4A5A5",
" .	c #A5A6A6",
"..	c #A6A7A7",
"+.	c #AFAEAE",
"@.	c #B0AFAF",
"#.	c #B0B0AF",
"$.	c #B0B1B0",
"%.	c #B1B2B1",
"&.	c #B1B2B2",
"*.	c #B2B3B3",
"=.	c #BBBBBB",
"-.	c #CFCFCF",
";.	c #604C4B",
">.	c #9E9E9F",
",.	c #A2A2A1",
"'.	c #A5A5A4",
").	c #A6A6A5",
"!.	c #A7A6A6",
"~.	c #A7A8A7",
"{.	c #A8A9A8",
"].	c #A9AAA9",
"^.	c #AAAAA9",
"/.	c #ABABAA",
"(.	c #ABACAC",
"_.	c #ACADAC",
":.	c #ADADAC",
"<.	c #AEAEAD",
"[.	c #AFAFB0",
"}.	c #B0B0B1",
"|.	c #B0B1B1",
"1.	c #B2B3B2",
"2.	c #B3B3B3",
"3.	c #B4B3B4",
"4.	c #BBBCBC",
"5.	c #D6D6D6",
"6.	c #D1D1D0",
"7.	c #624F4E",
"8.	c #A1A0A1",
"9.	c #A2A1A2",
"0.	c #A3A2A2",
"a.	c #A5A4A4",
"b.	c #A6A5A5",
"c.	c #A7A7A6",
"d.	c #A8A7A8",
"e.	c #A9A8A9",
"f.	c #ABAAAB",
"g.	c #ACABAC",
"h.	c #ADAEAD",
"i.	c #868686",
"j.	c #727272",
"k.	c #797979",
"l.	c #878787",
"m.	c #737373",
"n.	c #7B7B7B",
"o.	c #B4B4B3",
"p.	c #B5B5B4",
"q.	c #B5B5B5",
"r.	c #BDBDBD",
"s.	c #D8D8D8",
"t.	c #D2D2D2",
"u.	c #635151",
"v.	c #A0A0A1",
"w.	c #A2A1A1",
"x.	c #A3A2A3",
"y.	c #A7A8A8",
"z.	c #A8A9A9",
"A.	c #3B3B3B",
"B.	c #2F2F2F",
"C.	c #AFAFAE",
"D.	c #505050",
"E.	c #000000",
"F.	c #080808",
"G.	c #242424",
"H.	c #B2B2B2",
"I.	c #515151",
"J.	c #252525",
"K.	c #B4B5B5",
"L.	c #B5B6B6",
"M.	c #B6B6B6",
"N.	c #BEBDBE",
"O.	c #DADBDB",
"P.	c #D2D2D3",
"Q.	c #919190",
"R.	c #A6A7A6",
"S.	c #A4A5A4",
"T.	c #A5A6A5",
"U.	c #0F0F0F",
"V.	c #989797",
"W.	c #A1A0A0",
"X.	c #AFB0B0",
"Y.	c #202020",
"Z.	c #989898",
"`.	c #9A9A9A",
" +	c #B4B4B4",
".+	c #B6B5B5",
"++	c #BFBFBF",
"@+	c #DDDDDD",
"#+	c #D4D4D3",
"$+	c #685657",
"%+	c #A3A4A3",
"&+	c #686868",
"*+	c #0E0E0E",
"=+	c #2C2C2C",
"-+	c #909090",
";+	c #222222",
">+	c #171717",
",+	c #AEADAD",
"'+	c #0B0B0B",
")+	c #282828",
"!+	c #9C9C9B",
"~+	c #242423",
"{+	c #303030",
"]+	c #B6B7B6",
"^+	c #BFC0C0",
"/+	c #DEDEDE",
"(+	c #D5D5D5",
"_+	c #695A59",
":+	c #A4A3A4",
"<+	c #A5A4A5",
"[+	c #858585",
"}+	c #010101",
"|+	c #090909",
"1+	c #676767",
"2+	c #7B7B7C",
"3+	c #636363",
"4+	c #A9AAAA",
"5+	c #777676",
"6+	c #0A0A0A",
"7+	c #6B6B6B",
"8+	c #6F6F6F",
"9+	c #8A8A8A",
"0+	c #131313",
"a+	c #7C7C7C",
"b+	c #525352",
"c+	c #7F7F7F",
"d+	c #141414",
"e+	c #818181",
"f+	c #6A6A6A",
"g+	c #868787",
"h+	c #B6B7B7",
"i+	c #B7B7B7",
"j+	c #B8B7B7",
"k+	c #C1C1C1",
"l+	c #E0E1E0",
"m+	c #6B5C5D",
"n+	c #A4A4A5",
"o+	c #A5A5A6",
"p+	c #555556",
"q+	c #4A4A4A",
"r+	c #919191",
"s+	c #101010",
"t+	c #AEAFAF",
"u+	c #5B5B5B",
"v+	c #535353",
"w+	c #B2B1B1",
"x+	c #050505",
"y+	c #1E1E1E",
"z+	c #1F1F1F",
"A+	c #B8B8B8",
"B+	c #B9B8B9",
"C+	c #C0C0C0",
"D+	c #E3E3E3",
"E+	c #D7D7D8",
"F+	c #6D5E5F",
"G+	c #565656",
"H+	c #A8A8A9",
"I+	c #939393",
"J+	c #9C9B9B",
"K+	c #B6B5B6",
"L+	c #E5E5E5",
"M+	c #A8A7A7",
"N+	c #878686",
"O+	c #696969",
"P+	c #7E7E7E",
"Q+	c #656565",
"R+	c #A9A9AA",
"S+	c #020202",
"T+	c #060606",
"U+	c #6D6D6D",
"V+	c #393939",
"W+	c #1A1A1A",
"X+	c #5C5C5C",
"Y+	c #787878",
"Z+	c #B1B1B0",
"`+	c #8C8C8C",
" @	c #545454",
".@	c #E7E7E7",
"+@	c #D9DAD9",
"@@	c #716465",
"#@	c #0D0D0D",
"$@	c #2E2D2D",
"%@	c #ACABAB",
"&@	c #4F4F4E",
"*@	c #484848",
"=@	c #6A6B6A",
"-@	c #0C0C0C",
";@	c #1B1B1B",
">@	c #272727",
",@	c #9E9E9E",
"'@	c #EAEAE9",
")@	c #736767",
"!@	c #AAA9AA",
"~@	c #959596",
"{@	c #979898",
"]@	c #AAABAA",
"^@	c #ACACAB",
"/@	c #ACADAD",
"(@	c #9D9E9D",
"_@	c #AEAFAE",
":@	c #AFB0AF",
"<@	c #B3B2B3",
"[@	c #B7B8B7",
"}@	c #ECECEC",
"|@	c #DCDBDB",
"1@	c #746A6A",
"2@	c #AAA9A9",
"3@	c #AEADAE",
"4@	c #B3B4B4",
"5@	c #B7B6B7",
"6@	c #B7B7B8",
"7@	c #B7B8B8",
"8@	c #B9B9B9",
"9@	c #EEEEEE",
"0@	c #DCDDDD",
"a@	c #776D6C",
"b@	c #AAAAAB",
"c@	c #ABABAC",
"d@	c #F1F1F0",
"e@	c #796F6F",
"f@	c #B4B3B3",
"g@	c #B5B4B4",
"h@	c #B6B6B5",
"i@	c #B7B7B6",
"j@	c #B9B9B8",
"k@	c #BABAB9",
"l@	c #BBBABA",
"m@	c #BBBABB",
"n@	c #BCBBBC",
"o@	c #BCBCBC",
"p@	c #BEBEBE",
"q@	c #F2F1F2",
"r@	c #DFDFDF",
"s@	c #7A7272",
"t@	c #D7D7D7",
"u@	c #D9D9DA",
"v@	c #DADADB",
"w@	c #DCDCDC",
"x@	c #DEDEDF",
"y@	c #DFDFE0",
"z@	c #E0E0E1",
"A@	c #E2E2E2",
"B@	c #E4E4E4",
"C@	c #E5E5E6",
"D@	c #E6E6E7",
"E@	c #E8E8E8",
"F@	c #E9E9E9",
"G@	c #EAEAEA",
"H@	c #EBEBEB",
"I@	c #ECECED",
"J@	c #EDEDEE",
"K@	c #EFEFEF",
"L@	c #F0F0F0",
"M@	c #F2F2F2",
"N@	c #C1C0C0",
"O@	c #C2C2C2",
"P@	c #C3C3C3",
"Q@	c #C4C3C4",
"R@	c #C5C4C5",
"S@	c #C5C5C5",
"T@	c #C6C6C6",
"U@	c #C7C7C7",
"V@	c #C8C7C7",
"W@	c #C9C8C8",
"X@	c #C9C9C8",
"Y@	c #CACAC9",
"Z@	c #CACACA",
"`@	c #CBCBCA",
" #	c #CCCCCB",
".#	c #CECECE",
"+#	c #CFCECE",
"@#	c #D0CFCF",
"##	c #D0CFD0",
"$#	c #D0D0D0",
"%#	c #D0D0D1",
"&#	c #D1D1D2",
"*#	c #D3D2D3",
"=#	c #D4D3D3",
"-#	c #D5D4D4",
";#	c #D9D9D9",
">#	c #DBDBDC",
",#	c #DFDEDF",
"'#	c #E0E0E0",
"  . + + @ # $ % & * = - ; > , ' ) ! ~ { ] ^ / ( _ : < [ } | 1 2 3 4 5 6 7 8 9 0 a b c d e f g h i ",
"j k k k k k k k k k k k k k k k k k k k k k k k k k k k k k k k k k k k k k k k k k k k k k k k l ",
"m k n n n o p q q r s t u v v w x x y y z A B B C C C D D E E F F G G G H H I J K K L L M M N O P ",
"Q k R R S T U V V W X Y v v Z Z y `  . ...B C C C D D D E F F G G H H I I +.@.#.$.$.%.&.*.*.=.O -.",
";.k >.>.U s s t t ,.v Z Z y y '.).).!.!.B ~.{.D ].].^./.F (.(._.:.<.I I J [.}.|.%.%.1.2.3.3.4.5.6.",
"7.k r r V 8.8.9.9.0.w x y a.b.).c.B d.d.e.D D D E E f.g.G _._.h.I J I i.j.k.%.$.l.m.n.o.p.q.r.s.t.",
"u.k v.v.8.w.9.x.x.Z Z y z A !.!.B y.z.z.D A.B...E F F G G H H I C.@.D.E.F.G.H.I.E.F.J.K.L.M.N.O.P.",
"> k u u w.0.w x w Q.k z A R.S.T.C C A B d.U.E.y D G H I F V.W.J X.I Y.E.Z.L L Y.E.`. +.+M.M.++@+#+",
"$+k 0.0.w %+x &+*+E.E.=+B -+E.;+D A E.U.>+E.E.E.E.H ,+&+'+E.E.)+!+~+E.E.E.B.G.E.E.E.{+M.]+]+^+/+(+",
"_+k Z Z :+<+[+}+|+1+2+3+C -+E.G.4+B E.U.5+6+E.7+8+<.9+E.0+a+b+E.=+c+d+E.&+[+e+d+E.f+g+h+i+j+k+l+5.",
"m+k y y n+o+p+E.q+B ~.{.D r+E.G.E B E.U.G s+E.z.I t+u+E.v+w+@.x+}+I y+E.y q.M.z+E.z i+i+A+B+C+D+E+",
"F+k z z z A G+E.q+C H+D D I+E.;+F J+E.s+,+s+E.E X.X.u+E.v+*.|.x+}+I y+E.<+K+M.z+E.A A+A+A+A+C+L+s.",
"( k A A !.M+N+}+|+O+P+Q+R+u S+T+U+V+E.s+C.W+E.X+Y+Z+`+E.0+P+ @E.=+q.z+E.z M.i+z+E.B A+A+A+A+C+.@+@",
"@@k ....B C C O+#@E.E.$@f.%@&@E.}+*@E.s+J =@-@E.;@&.H.O+'+E.E.>@,@M.z+E. .i+A+z+E.B A+A+A+A+C+'@O.",
")@k C C C D D !@e.~@{@]@^@G /@(@X _@:@:@$.$.%.&.H.<@2. +w+o b.M.M.]+]+[@A+A+B+B+A+A+A+A+A+A+C+}@|@",
"1@k D D D 2@^././.^@^@:.:.,+3@I J [.}.}.L L H.*.4@ + +q.q.M.M.5@5@6@7@A+8@8@A+A+A+A+A+A+A+A+C+9@0@",
"a@k D D D E b@c@c@G G H h.I J J K K L L H.H.2.o. +p.q.K+K+M.M.i+i+A+B+A+A+A+A+A+A+A+A+A+A+A+C+d@/+",
"e@k M M H.2.f@g@g@.+h@M.M.M.i@i+A+j@k@k@l@m@n@o@o@r.r.p@p@++++C+C+C+C+C+C+C+C+C+C+C+C+C+C+C+C+q@r@",
"s@k O O O O O O O O O O O O O O O O O O O O 5.t@s.u@v@w@@+/+x@y@z@A@D+B@C@D@E@F@G@H@I@J@K@L@M@M@r@",
"N@O@P@P@Q@R@S@T@T@U@V@W@X@Y@Z@`@ #i l l .#+#@###$#%#&#*#*#=#=#-#(+5.t@s.s.s.;#u@v@v@>#w@@+@+,#'#r@"};
