/* XPM */
static char * envelope__enabled_active_xpm[] = {
"49 20 374 2",
"  	c #594041",
". 	c #5B4444",
"+ 	c #5C4746",
"@ 	c #5D4847",
"# 	c #5F4A49",
"$ 	c #5F4B4A",
"% 	c #604C4C",
"& 	c #614E4E",
"* 	c #624F4F",
"= 	c #635050",
"- 	c #645252",
"; 	c #655353",
"> 	c #665454",
", 	c #675656",
"' 	c #685757",
") 	c #695859",
"! 	c #6A595A",
"~ 	c #6B5B5B",
"{ 	c #6B5D5D",
"] 	c #6C5E5E",
"^ 	c #6D5F5F",
"/ 	c #6E6161",
"( 	c #6F6262",
"_ 	c #706464",
": 	c #716565",
"< 	c #726666",
"[ 	c #736868",
"} 	c #746969",
"| 	c #756A6A",
"1 	c #766C6C",
"2 	c #776D6D",
"3 	c #786E6E",
"4 	c #797070",
"5 	c #7A7171",
"6 	c #7B7272",
"7 	c #7C7474",
"8 	c #7D7575",
"9 	c #7E7777",
"0 	c #7F7878",
"a 	c #807979",
"b 	c #807B7B",
"c 	c #817C7C",
"d 	c #827D7D",
"e 	c #837F7F",
"f 	c #848080",
"g 	c #868383",
"h 	c #888686",
"i 	c #CCCCCC",
"j 	c #5B4344",
"k 	c #929292",
"l 	c #CDCDCD",
"m 	c #5C4647",
"n 	c #9D9D9C",
"o 	c #9E9D9D",
"p 	c #9E9D9E",
"q 	c #9F9E9F",
"r 	c #A09F9F",
"s 	c #A0A09F",
"t 	c #A1A1A0",
"u 	c #A1A1A1",
"v 	c #A2A2A2",
"w 	c #A3A3A2",
"x 	c #A4A4A3",
"y 	c #A4A4A4",
"z 	c #A5A5A5",
"A 	c #A6A6A6",
"B 	c #A7A7A7",
"C 	c #A8A8A8",
"D 	c #A9A9A9",
"E 	c #AAAAAA",
"F 	c #ABABAB",
"G 	c #ACACAC",
"H 	c #ADADAD",
"I 	c #AEAEAE",
"J 	c #AFAFAF",
"K 	c #B0B0B0",
"L 	c #B1B1B1",
"M 	c #B2B1B2",
"N 	c #BABABA",
"O 	c #D4D4D4",
"P 	c #CECFCF",
"Q 	c #5E4949",
"R 	c #9D9D9D",
"S 	c #9D9E9E",
"T 	c #9E9F9F",
"U 	c #9F9F9F",
"V 	c #A09FA0",
"W 	c #A0A0A0",
"X 	c #A0A1A0",
"Y 	c #A1A2A1",
"Z 	c #A3A3A3",
"` 	c #A4A5A5",
" .	c #A5A6A6",
"..	c #A6A7A7",
"+.	c #AFAEAE",
"@.	c #B0AFAF",
"#.	c #B0B0AF",
"$.	c #B0B1B0",
"%.	c #B1B2B1",
"&.	c #B1B2B2",
"*.	c #B2B3B3",
"=.	c #BBBBBB",
"-.	c #CFCFCF",
";.	c #604C4B",
">.	c #9E9E9F",
",.	c #A2A2A1",
"'.	c #A5A5A4",
").	c #A6A6A5",
"!.	c #A7A6A6",
"~.	c #A7A8A7",
"{.	c #A8A9A8",
"].	c #A9AAA9",
"^.	c #AAAAA9",
"/.	c #ABABAA",
"(.	c #ABACAC",
"_.	c #ACADAC",
":.	c #ADADAC",
"<.	c #AEAEAD",
"[.	c #AFAFB0",
"}.	c #B0B0B1",
"|.	c #B0B1B1",
"1.	c #B2B3B2",
"2.	c #B3B3B3",
"3.	c #B4B3B4",
"4.	c #BBBCBC",
"5.	c #D6D6D6",
"6.	c #D1D1D0",
"7.	c #624F4E",
"8.	c #A1A0A1",
"9.	c #A2A1A2",
"0.	c #A3A2A2",
"a.	c #A5A4A4",
"b.	c #A6A5A5",
"c.	c #A7A7A6",
"d.	c #A8A7A8",
"e.	c #A9A8A9",
"f.	c #ABAAAB",
"g.	c #ACABAC",
"h.	c #ADAEAD",
"i.	c #B2B2B2",
"j.	c #B4B4B3",
"k.	c #B5B5B4",
"l.	c #B5B5B5",
"m.	c #BDBDBD",
"n.	c #D8D8D8",
"o.	c #D2D2D2",
"p.	c #635151",
"q.	c #A0A0A1",
"r.	c #A2A1A1",
"s.	c #A3A2A3",
"t.	c #A7A8A8",
"u.	c #A8A9A9",
"v.	c #A9AAAA",
"w.	c #000000",
"x.	c #050505",
"y.	c #AFAFAE",
"z.	c #B0AFB0",
"A.	c #B3B2B2",
"B.	c #B4B3B3",
"C.	c #B4B4B4",
"D.	c #B4B5B5",
"E.	c #BEBDBE",
"F.	c #DADBDB",
"G.	c #D2D2D3",
"H.	c #A6A7A6",
"I.	c #AAA9AA",
"J.	c #AFB0B0",
"K.	c #B1B0B0",
"L.	c #B2B1B1",
"M.	c #B6B5B5",
"N.	c #BFBFBF",
"O.	c #DDDDDD",
"P.	c #D4D4D3",
"Q.	c #685657",
"R.	c #989797",
"S.	c #3A3939",
"T.	c #0A0A0A",
"U.	c #060606",
"V.	c #323232",
"W.	c #969695",
"X.	c #484848",
"Y.	c #080808",
"Z.	c #0F0F0F",
"`.	c #767676",
" +	c #696969",
".+	c #141414",
"++	c #030303",
"@+	c #272727",
"#+	c #898A8A",
"$+	c #4F4F4F",
"%+	c #070707",
"&+	c #212121",
"*+	c #989798",
"=+	c #B1B1B0",
"-+	c #3F3F3F",
";+	c #373737",
">+	c #B4B5B4",
",+	c #9D9E9D",
"'+	c #222222",
")+	c #565656",
"!+	c #BFC0C0",
"~+	c #DEDEDE",
"{+	c #D5D5D5",
"]+	c #695A59",
"^+	c #383838",
"/+	c #525152",
"(+	c #4C4C4C",
"_+	c #303030",
":+	c #393939",
"<+	c #525252",
"[+	c #1B1B1B",
"}+	c #787979",
"|+	c #616161",
"1+	c #656565",
"2+	c #504F50",
"3+	c #010101",
"4+	c #464646",
"5+	c #333433",
"6+	c #3D3D3D",
"7+	c #59595A",
"8+	c #535353",
"9+	c #353535",
"0+	c #4A4A4A",
"a+	c #C1C1C1",
"b+	c #E0E1E0",
"c+	c #6B5C5D",
"d+	c #A6A6A7",
"e+	c #9FA09F",
"f+	c #6F6F6F",
"g+	c #111111",
"h+	c #020202",
"i+	c #ADADAE",
"j+	c #B6B6B6",
"k+	c #C0C0C0",
"l+	c #E3E3E3",
"m+	c #D7D7D8",
"n+	c #6D5E5F",
"o+	c #797979",
"p+	c #7A7A7A",
"q+	c #0C0C0C",
"r+	c #686767",
"s+	c #7D7C7C",
"t+	c #B3B4B3",
"u+	c #090909",
"v+	c #121212",
"w+	c #858485",
"x+	c #858585",
"y+	c #848484",
"z+	c #E5E5E5",
"A+	c #3C3C3C",
"B+	c #454444",
"C+	c #6A6969",
"D+	c #515151",
"E+	c #161616",
"F+	c #A9A9AA",
"G+	c #0D0D0D",
"H+	c #626261",
"I+	c #424241",
"J+	c #474747",
"K+	c #343435",
"L+	c #B3B3B4",
"M+	c #414141",
"N+	c #4B4B4B",
"O+	c #737373",
"P+	c #585858",
"Q+	c #181818",
"R+	c #B7B7B7",
"S+	c #E7E7E7",
"T+	c #D9DAD9",
"U+	c #716465",
"V+	c #9E9E9E",
"W+	c #424242",
"X+	c #404040",
"Y+	c #ABAAAA",
"Z+	c #ADACAC",
"`+	c #717171",
" @	c #0E0E0E",
".@	c #505050",
"+@	c #9B9B9B",
"@@	c #454545",
"#@	c #B8B8B8",
"$@	c #EAEAE9",
"%@	c #736767",
"&@	c #AAAAAB",
"*@	c #AAABAB",
"=@	c #ABACAB",
"-@	c #ACACAB",
";@	c #ACADAD",
">@	c #AEAFAE",
",@	c #AFB0AF",
"'@	c #B3B2B3",
")@	c #B5B4B4",
"!@	c #B6B7B6",
"~@	c #B7B8B7",
"{@	c #B9B8B9",
"]@	c #ECECEC",
"^@	c #DCDBDB",
"/@	c #746A6A",
"(@	c #AAA9A9",
"_@	c #AEADAD",
":@	c #AEADAE",
"<@	c #B3B4B4",
"[@	c #B7B6B7",
"}@	c #B7B7B8",
"|@	c #B7B8B8",
"1@	c #B9B9B9",
"2@	c #EEEEEE",
"3@	c #DCDDDD",
"4@	c #776D6C",
"5@	c #ABABAC",
"6@	c #B6B5B6",
"7@	c #F1F1F0",
"8@	c #796F6F",
"9@	c #B6B6B5",
"0@	c #B7B7B6",
"a@	c #B9B9B8",
"b@	c #BABAB9",
"c@	c #BBBABA",
"d@	c #BBBABB",
"e@	c #BCBBBC",
"f@	c #BCBCBC",
"g@	c #BEBEBE",
"h@	c #F2F1F2",
"i@	c #DFDFDF",
"j@	c #7A7272",
"k@	c #D7D7D7",
"l@	c #D9D9DA",
"m@	c #DADADB",
"n@	c #DCDCDC",
"o@	c #DEDEDF",
"p@	c #DFDFE0",
"q@	c #E0E0E1",
"r@	c #E2E2E2",
"s@	c #E4E4E4",
"t@	c #E5E5E6",
"u@	c #E6E6E7",
"v@	c #E8E8E8",
"w@	c #E9E9E9",
"x@	c #EAEAEA",
"y@	c #EBEBEB",
"z@	c #ECECED",
"A@	c #EDEDEE",
"B@	c #EFEFEF",
"C@	c #F0F0F0",
"D@	c #F2F2F2",
"E@	c #C1C0C0",
"F@	c #C2C2C2",
"G@	c #C3C3C3",
"H@	c #C4C3C4",
"I@	c #C5C4C5",
"J@	c #C5C5C5",
"K@	c #C6C6C6",
"L@	c #C7C7C7",
"M@	c #C8C7C7",
"N@	c #C9C8C8",
"O@	c #C9C9C8",
"P@	c #CACAC9",
"Q@	c #CACACA",
"R@	c #CBCBCA",
"S@	c #CCCCCB",
"T@	c #CECECE",
"U@	c #CFCECE",
"V@	c #D0CFCF",
"W@	c #D0CFD0",
"X@	c #D0D0D0",
"Y@	c #D0D0D1",
"Z@	c #D1D1D2",
"`@	c #D3D2D3",
" #	c #D4D3D3",
".#	c #D5D4D4",
"+#	c #D9D9D9",
"@#	c #DBDBDC",
"##	c #DFDEDF",
"$#	c #E0E0E0",
"  . + + @ # $ % & * = - ; > , ' ) ! ~ { ] ^ / ( _ : < [ } | 1 2 3 4 5 6 7 8 9 0 a b c d e f g h i ",
"j k k k k k k k k k k k k k k k k k k k k k k k k k k k k k k k k k k k k k k k k k k k k k k k l ",
"m k n n n o p q q r s t u v v w x x y y z A B B C C C D D E E F F G G G H H I J K K L L M M N O P ",
"Q k R R S T U V V W X Y v v Z Z y `  . ...B C C C D D D E F F G G H H I I +.@.#.$.$.%.&.*.*.=.O -.",
";.k >.>.U s s t t ,.v Z Z y y '.).).!.!.B ~.{.D ].].^./.F (.(._.:.<.I I J [.}.|.%.%.1.2.3.3.4.5.6.",
"7.k r r V 8.8.9.9.0.w x y a.b.).c.B d.d.e.D D D E E f.g.G _._.h.I J J K K $.%.%.i.i.2.j.k.l.m.n.o.",
"p.k q.q.8.r.9.s.s.Z Z y z A !.!.B t.u.u.D D v.w.x.F F G G H w.x.y.@.z.K L L i.A.B.B.C.D.x.w.E.F.G.",
"> k u u r.0.w x x '.z A A H.~.~.C C D D I.I.f.w.x.G H I I +.w.x.J.K K.L.i.i.2.2.C.C.l.M.x.w.N.O.P.",
"Q.k R.S.T.U.V.W.'.w.x.X.Y.Z.`.C  +.+++x.@+#+(.w.x.$+%+&+*+[.w.x.=+).-+T.U.;+y >+,+'+Y.)+x.w.!+~+{+",
"]+k ^+U./+(+w._+ .w.w.:+<+w.[+D }+|+1+2+3+&+:.w.w.4+4+w.5+$.w.x.L 6+%+7+8+w.9+l.9+w.0+0+w.w.a+b+5.",
"c+k Y.w.w.w.w.x.d+w.w.e+A w.U.D f+g+w.w.w.h+i+w.3+v.E 3+Y.L.w.x.2.Y.w.w.w.w.x.j+%+3+L L 3+w.k+l+m+",
"n+k Y.g+o+p+p+o+B w.x.D D w.x.E q+w.r+s+3+w.y.w.3+E E 3+Y.*.w.x.t+u+v+w+x+x+y+j+%+3+i.i.3+w.k+z+n.",
"( k A+w.B+C+D+E+C w.x.F+F+w.x.F G+w.H+I+w.w.#.w.w.J+J+w.K+L+w.x.C.M+w.N+O+P+Q+R+9+w.0+0+w.w.k+S+T+",
"U+k V+W+G+h+.+X+D w.x.Y+f.w.x.Z+`+ @Y.D+x.w.$.w.x..@U.'++@C.w.x.l.H X. @h+E+@@#@U '+x.J+x.w.k+$@F.",
"%@k C C C D D I.I.&@*@=@-@G ;@h.>@>@,@,@$.$.%.&.i.'@2.C.)@M.M.j+j+!@!@~@#@#@{@{@#@#@#@#@#@#@k+]@^@",
"/@k D D D (@^././.-@-@:.:._@:@I J [.}.}.L L i.*.<@C.C.l.l.j+j+[@[@}@|@#@1@1@#@#@#@#@#@#@#@#@k+2@3@",
"4@k D D D E &@5@5@G G H h.I J J K K L L i.i.2.j.C.k.l.6@6@j+j+R+R+#@{@#@#@#@#@#@#@#@#@#@#@#@k+7@~+",
"8@k M M i.2.B.)@)@M.9@j+j+j+0@R+#@a@b@b@c@d@e@f@f@m.m.g@g@N.N.k+k+k+k+k+k+k+k+k+k+k+k+k+k+k+k+h@i@",
"j@k O O O O O O O O O O O O O O O O O O O O 5.k@n.l@m@n@O.~+o@p@q@r@l+s@t@u@v@w@x@y@z@A@B@C@D@D@i@",
"E@F@G@G@H@I@J@K@K@L@M@N@O@P@Q@R@S@i l l T@U@V@W@X@Y@Z@`@`@ # #.#{+5.k@n.n.n.+#l@m@m@@#n@O.O.##$#i@"};
