/* XPM */
static char * envelope__spin_label_xpm[] = {
"39 17 40 1",
" 	c None",
".	c #D1D1D1",
"+	c #D1D1D0",
"@	c #D1D0D1",
"#	c #D0D1D0",
"$	c #D0D0D0",
"%	c #D0D0CF",
"&	c #D0CFCF",
"*	c #CFCFCF",
"=	c #CFD0CF",
"-	c #CFCFD0",
";	c #CFCECF",
">	c #CFCFCE",
",	c #CECFCF",
"'	c #CECECE",
")	c #CECFCE",
"!	c #CDCDCE",
"~	c #CECDCE",
"{	c #CDCDCD",
"]	c #CDCECD",
"^	c #D7D7D7",
"/	c #000000",
"(	c #DDDDDD",
"_	c #E2E3E3",
":	c #E9E9E8",
"<	c #EFEFEF",
"[	c #F4F5F5",
"}	c #D2D2D3",
"|	c #D8D7D7",
"1	c #DCDCDB",
"2	c #E0E1E0",
"3	c #E4E5E4",
"4	c #EDEEED",
"5	c #EFF0EF",
"6	c #EEF0EF",
"7	c #EEEFEE",
"8	c #EEEFED",
"9	c #EDEEEE",
"0	c #EDEDED",
"a	c #ECEDEC",
".+@#$$$%&%*=-*;>*,')''!~{]{-*;>*,'-*;>*",
"^//////////////////////////////////////",
"(//////////////////////////////////////",
"_//////////////////////////////////////",
"_//////////////////////////////////////",
"://////////////////////////////////////",
"<//////////////////////////////////////",
"[//////////////////////////////////////",
"}//////////////////////////////////////",
"|//////////////////////////////////////",
"1//////////////////////////////////////",
"2//////////////////////////////////////",
"3//////////////////////////////////////",
"://////////////////////////////////////",
"4//////////////////////////////////////",
"<//////////////////////////////////////",
"<<<<<<<<<<<<<<<<<<5678900aa<<<<<<5<<<<<"};
