/* XPM */
static char * envelope__button_volume_active_xpm[] = {
"49 20 362 2",
"  	c #594041",
". 	c #5B4444",
"+ 	c #5C4746",
"@ 	c #5D4847",
"# 	c #5F4A49",
"$ 	c #5F4B4A",
"% 	c #604C4C",
"& 	c #614E4E",
"* 	c #624F4F",
"= 	c #635050",
"- 	c #645252",
"; 	c #655353",
"> 	c #665454",
", 	c #675656",
"' 	c #685757",
") 	c #695859",
"! 	c #6A595A",
"~ 	c #6B5B5B",
"{ 	c #6B5D5D",
"] 	c #6C5E5E",
"^ 	c #6D5F5F",
"/ 	c #6E6161",
"( 	c #6F6262",
"_ 	c #706464",
": 	c #716565",
"< 	c #726666",
"[ 	c #736868",
"} 	c #746969",
"| 	c #756A6A",
"1 	c #766C6C",
"2 	c #776D6D",
"3 	c #786E6E",
"4 	c #797070",
"5 	c #7A7171",
"6 	c #7B7272",
"7 	c #7C7474",
"8 	c #7D7575",
"9 	c #7E7777",
"0 	c #7F7878",
"a 	c #807979",
"b 	c #807B7B",
"c 	c #817C7C",
"d 	c #827D7D",
"e 	c #837F7F",
"f 	c #848080",
"g 	c #868383",
"h 	c #888686",
"i 	c #CCCCCC",
"j 	c #5B4344",
"k 	c #929292",
"l 	c #CDCDCD",
"m 	c #5C4647",
"n 	c #9D9D9C",
"o 	c #9E9D9D",
"p 	c #9E9D9E",
"q 	c #9F9E9F",
"r 	c #A09F9F",
"s 	c #A0A09F",
"t 	c #A1A1A0",
"u 	c #A1A1A1",
"v 	c #A2A2A2",
"w 	c #A3A3A2",
"x 	c #A4A4A3",
"y 	c #A4A4A4",
"z 	c #A5A5A5",
"A 	c #A6A6A6",
"B 	c #A7A7A7",
"C 	c #A8A8A8",
"D 	c #A9A9A9",
"E 	c #AAAAAA",
"F 	c #ABABAB",
"G 	c #ACACAC",
"H 	c #ADADAD",
"I 	c #AEAEAE",
"J 	c #AFAFAF",
"K 	c #B0B0B0",
"L 	c #B1B1B1",
"M 	c #B2B1B2",
"N 	c #BABABA",
"O 	c #D4D4D4",
"P 	c #CECFCF",
"Q 	c #5E4949",
"R 	c #9D9D9D",
"S 	c #9D9E9E",
"T 	c #9E9F9F",
"U 	c #9F9F9F",
"V 	c #A09FA0",
"W 	c #A0A0A0",
"X 	c #A0A1A0",
"Y 	c #A1A2A1",
"Z 	c #A3A3A3",
"` 	c #A4A5A5",
" .	c #A5A6A6",
"..	c #A6A7A7",
"+.	c #AFAEAE",
"@.	c #B0AFAF",
"#.	c #B0B0AF",
"$.	c #B0B1B0",
"%.	c #B1B2B1",
"&.	c #B1B2B2",
"*.	c #B2B3B3",
"=.	c #BBBBBB",
"-.	c #CFCFCF",
";.	c #604C4B",
">.	c #9E9E9F",
",.	c #A2A2A1",
"'.	c #A5A5A4",
").	c #A6A6A5",
"!.	c #A7A6A6",
"~.	c #A7A8A7",
"{.	c #A8A9A8",
"].	c #A9AAA9",
"^.	c #AAAAA9",
"/.	c #ABABAA",
"(.	c #ABACAC",
"_.	c #ACADAC",
":.	c #ADADAC",
"<.	c #AEAEAD",
"[.	c #AFAFB0",
"}.	c #B0B0B1",
"|.	c #B0B1B1",
"1.	c #B2B3B2",
"2.	c #B3B3B3",
"3.	c #B4B3B4",
"4.	c #BBBCBC",
"5.	c #D6D6D6",
"6.	c #D1D1D0",
"7.	c #624F4E",
"8.	c #A1A0A1",
"9.	c #A2A1A2",
"0.	c #A3A2A2",
"a.	c #A5A4A4",
"b.	c #A6A5A5",
"c.	c #A7A7A6",
"d.	c #A8A7A8",
"e.	c #A9A8A9",
"f.	c #ABAAAB",
"g.	c #ACABAC",
"h.	c #ADAEAD",
"i.	c #B2B2B2",
"j.	c #B4B4B3",
"k.	c #B5B5B4",
"l.	c #B5B5B5",
"m.	c #BDBDBD",
"n.	c #D8D8D8",
"o.	c #D2D2D2",
"p.	c #635151",
"q.	c #A0A0A1",
"r.	c #A2A1A1",
"s.	c #A3A2A3",
"t.	c #000000",
"u.	c #050505",
"v.	c #A8A9A9",
"w.	c #A9AAAA",
"x.	c #AFAFAE",
"y.	c #B0AFB0",
"z.	c #B3B2B2",
"A.	c #B4B3B3",
"B.	c #B4B4B4",
"C.	c #B4B5B5",
"D.	c #B5B6B6",
"E.	c #B6B6B6",
"F.	c #BEBDBE",
"G.	c #DADBDB",
"H.	c #D2D2D3",
"I.	c #A6A7A6",
"J.	c #AAA9AA",
"K.	c #AFB0B0",
"L.	c #B1B0B0",
"M.	c #B2B1B1",
"N.	c #B6B5B5",
"O.	c #BFBFBF",
"P.	c #DDDDDD",
"Q.	c #D4D4D3",
"R.	c #685657",
"S.	c #393939",
"T.	c #7F7F7E",
"U.	c #A3A4A3",
"V.	c #848484",
"W.	c #343434",
"X.	c #9A9999",
"Y.	c #383838",
"Z.	c #080808",
"`.	c #070707",
" +	c #373737",
".+	c #9C9C9C",
"++	c #AEADAD",
"@+	c #555556",
"#+	c #0A0A0A",
"$+	c #161615",
"%+	c #7C7C7C",
"&+	c #464646",
"*+	c #151515",
"=+	c #838383",
"-+	c #404040",
";+	c #0B0B0B",
">+	c #060606",
",+	c #B6B7B6",
"'+	c #BFC0C0",
")+	c #DEDEDE",
"!+	c #D5D5D5",
"~+	c #695A59",
"{+	c #787878",
"]+	c #454545",
"^+	c #A5A4A5",
"/+	c #4A4A4A",
"(+	c #757676",
"_+	c #424243",
":+	c #434343",
"<+	c #3D3D3D",
"[+	c #585858",
"}+	c #3D3D3E",
"|+	c #1D1D1D",
"1+	c #3E3E3E",
"2+	c #5B5B5B",
"3+	c #545555",
"4+	c #353535",
"5+	c #B8B7B7",
"6+	c #C1C1C1",
"7+	c #E0E1E0",
"8+	c #6B5C5D",
"9+	c #0E0E0E",
"0+	c #A1A1A2",
"a+	c #111111",
"b+	c #121212",
"c+	c #A4A4A5",
"d+	c #010101",
"e+	c #ADADAE",
"f+	c #ADAEAE",
"g+	c #AAA9A9",
"h+	c #090909",
"i+	c #B9B8B9",
"j+	c #C0C0C0",
"k+	c #E3E3E3",
"l+	c #D7D7D8",
"m+	c #6D5E5F",
"n+	c #555555",
"o+	c #4B4B4B",
"p+	c #515151",
"q+	c #ADACAC",
"r+	c #030303",
"s+	c #B3B4B3",
"t+	c #B5B4B5",
"u+	c #131313",
"v+	c #868686",
"w+	c #878787",
"x+	c #858585",
"y+	c #B8B8B8",
"z+	c #E5E5E5",
"A+	c #949494",
"B+	c #444445",
"C+	c #686867",
"D+	c #B3B3B4",
"E+	c #B7B7B7",
"F+	c #424242",
"G+	c #4C4C4C",
"H+	c #747474",
"I+	c #595959",
"J+	c #191919",
"K+	c #E7E7E7",
"L+	c #D9DAD9",
"M+	c #716465",
"N+	c #303030",
"O+	c #2B2B2B",
"P+	c #393938",
"Q+	c #393838",
"R+	c #9F9F9E",
"S+	c #777777",
"T+	c #0F0F0F",
"U+	c #494A4A",
"V+	c #494949",
"W+	c #020202",
"X+	c #161616",
"Y+	c #EAEAE9",
"Z+	c #736767",
"`+	c #AAAAAB",
" @	c #AAABAB",
".@	c #ABACAB",
"+@	c #ACACAB",
"@@	c #ACADAD",
"#@	c #AEAFAE",
"$@	c #AFB0AF",
"%@	c #B3B2B3",
"&@	c #B5B4B4",
"*@	c #B7B8B7",
"=@	c #ECECEC",
"-@	c #DCDBDB",
";@	c #746A6A",
">@	c #AEADAE",
",@	c #B3B4B4",
"'@	c #B7B6B7",
")@	c #B7B7B8",
"!@	c #B7B8B8",
"~@	c #B9B9B9",
"{@	c #EEEEEE",
"]@	c #DCDDDD",
"^@	c #776D6C",
"/@	c #ABABAC",
"(@	c #B6B5B6",
"_@	c #F1F1F0",
":@	c #796F6F",
"<@	c #B6B6B5",
"[@	c #B7B7B6",
"}@	c #B9B9B8",
"|@	c #BABAB9",
"1@	c #BBBABA",
"2@	c #BBBABB",
"3@	c #BCBBBC",
"4@	c #BCBCBC",
"5@	c #BEBEBE",
"6@	c #F2F1F2",
"7@	c #DFDFDF",
"8@	c #7A7272",
"9@	c #D7D7D7",
"0@	c #D9D9DA",
"a@	c #DADADB",
"b@	c #DCDCDC",
"c@	c #DEDEDF",
"d@	c #DFDFE0",
"e@	c #E0E0E1",
"f@	c #E2E2E2",
"g@	c #E4E4E4",
"h@	c #E5E5E6",
"i@	c #E6E6E7",
"j@	c #E8E8E8",
"k@	c #E9E9E9",
"l@	c #EAEAEA",
"m@	c #EBEBEB",
"n@	c #ECECED",
"o@	c #EDEDEE",
"p@	c #EFEFEF",
"q@	c #F0F0F0",
"r@	c #F2F2F2",
"s@	c #C1C0C0",
"t@	c #C2C2C2",
"u@	c #C3C3C3",
"v@	c #C4C3C4",
"w@	c #C5C4C5",
"x@	c #C5C5C5",
"y@	c #C6C6C6",
"z@	c #C7C7C7",
"A@	c #C8C7C7",
"B@	c #C9C8C8",
"C@	c #C9C9C8",
"D@	c #CACAC9",
"E@	c #CACACA",
"F@	c #CBCBCA",
"G@	c #CCCCCB",
"H@	c #CECECE",
"I@	c #CFCECE",
"J@	c #D0CFCF",
"K@	c #D0CFD0",
"L@	c #D0D0D0",
"M@	c #D0D0D1",
"N@	c #D1D1D2",
"O@	c #D3D2D3",
"P@	c #D4D3D3",
"Q@	c #D5D4D4",
"R@	c #D9D9D9",
"S@	c #DBDBDC",
"T@	c #DFDEDF",
"U@	c #E0E0E0",
"  . + + @ # $ % & * = - ; > , ' ) ! ~ { ] ^ / ( _ : < [ } | 1 2 3 4 5 6 7 8 9 0 a b c d e f g h i ",
"j k k k k k k k k k k k k k k k k k k k k k k k k k k k k k k k k k k k k k k k k k k k k k k k l ",
"m k n n n o p q q r s t u v v w x x y y z A B B C C C D D E E F F G G G H H I J K K L L M M N O P ",
"Q k R R S T U V V W X Y v v Z Z y `  . ...B C C C D D D E F F G G H H I I +.@.#.$.$.%.&.*.*.=.O -.",
";.k >.>.U s s t t ,.v Z Z y y '.).).!.!.B ~.{.D ].].^./.F (.(._.:.<.I I J [.}.|.%.%.1.2.3.3.4.5.6.",
"7.k r r V 8.8.9.9.0.w x y a.b.).c.B d.d.e.D D D E E f.g.G _._.h.I J J K K $.%.%.i.i.2.j.k.l.m.n.o.",
"p.k q.q.8.r.9.s.s.Z Z y z A !.!.t.u.v.v.D D w.w.E F F G G H H I x.@.y.K L L i.z.A.A.B.C.D.E.F.G.H.",
"> k u u r.0.w x x '.z A A I.~.~.t.u.D D J.J.f.F G G H I I +.+.J K.K L.M.i.i.2.2.B.B.l.N.E.E.O.P.Q.",
"R.k S.t.T.U.V.t.W.X.Y.Z.`. +.+C t.u.^.^.t.u.(.(.t.u.+++.t.u.@+#+$+%+&+`.*+=+B.{.-+;+>+Y.A ,+'+)+!+",
"~+k {+t.]+^+/+t.(+ +t._+:+t.Y.D t.u.f.f.t.u.:.H t.u.I J t.t.<+[+t.t.}+[+t.|+l.1+`.2+3+t.4+5+6+7+5.",
"8+k Z *+9+0+a+b+c+`.d+U.y d+Z.D t.u.F F t.u.e+f+t.u.J K t.t.g+@.t.t.G i.t.>+E.h+t.t.t.t.u.i+j+k+l+",
"m+k z n+t.o+t.p+B `.d+y y d+Z.E t.u.q+q+d+r+x.Z t.u.K L t.u.*.s+t.u.B.t+t.u.E.h+u+v+w+w+x+y+j+z+n.",
"( k A A+d+d+d+k C Y.t.B+B+t.S.F t.u.<.<.*+t.C+:+t.u.L i.t.u.D+B.t.u.D.E.t.u.E+F+t.G+H+I+J+y+j+K+L+",
"M+k ....N+t.O+D D n P+`.`.Q+R+q+t.u.I I S+T+`.U+t.u.i.2.t.u.B.l.t.u.E.E.t.u.y+J V+9+W+X+]+y+j+Y+G.",
"Z+k C C C D D J.J.`+ @.@+@G @@h.#@#@$@$@$.$.%.&.i.%@2.B.&@N.N.E.E.,+,+*@y+y+i+i+y+y+y+y+y+y+j+=@-@",
";@k D D D g+^././.+@+@:.:.++>@I J [.}.}.L L i.*.,@B.B.l.l.E.E.'@'@)@!@y+~@~@y+y+y+y+y+y+y+y+j+{@]@",
"^@k D D D E `+/@/@G G H h.I J J K K L L i.i.2.j.B.k.l.(@(@E.E.E+E+y+i+y+y+y+y+y+y+y+y+y+y+y+j+_@)+",
":@k M M i.2.A.&@&@N.<@E.E.E.[@E+y+}@|@|@1@2@3@4@4@m.m.5@5@O.O.j+j+j+j+j+j+j+j+j+j+j+j+j+j+j+j+6@7@",
"8@k O O O O O O O O O O O O O O O O O O O O 5.9@n.0@a@b@P.)+c@d@e@f@k+g@h@i@j@k@l@m@n@o@p@q@r@r@7@",
"s@t@u@u@v@w@x@y@y@z@A@B@C@D@E@F@G@i l l H@I@J@K@L@M@N@O@O@P@P@Q@!+5.9@n.n.n.R@0@a@a@S@b@P.P.T@U@7@"};
