/* XPM */
static char * envelope__cubic_xpm[] = {
"49 20 370 2",
"  	c #DFDFDF",
". 	c #E0E0E0",
"+ 	c #DFDEDF",
"@ 	c #DEDEDE",
"# 	c #DDDDDD",
"$ 	c #DCDCDC",
"% 	c #DBDBDC",
"& 	c #DADADB",
"* 	c #D9D9DA",
"= 	c #D9D9D9",
"- 	c #D8D8D8",
"; 	c #D7D7D7",
"> 	c #D6D6D6",
", 	c #D5D5D5",
"' 	c #D5D4D4",
") 	c #D4D3D3",
"! 	c #D3D2D3",
"~ 	c #D2D1D2",
"{ 	c #D1D0D1",
"] 	c #D0D0D1",
"^ 	c #D0CFD0",
"/ 	c #CFCECF",
"( 	c #CFCECE",
"_ 	c #CECDCD",
": 	c #CDCDCD",
"< 	c #CCCCCC",
"[ 	c #CCCCCB",
"} 	c #CBCBCB",
"| 	c #CACACA",
"1 	c #CACAC9",
"2 	c #C9C9C8",
"3 	c #C9C8C8",
"4 	c #C8C7C7",
"5 	c #C7C6C6",
"6 	c #C6C6C6",
"7 	c #C5C5C5",
"8 	c #C5C4C5",
"9 	c #C4C3C4",
"0 	c #C3C3C3",
"a 	c #C2C2C2",
"b 	c #C1C0C0",
"c 	c #FFFFFF",
"d 	c #FEFEFE",
"e 	c #FCFCFC",
"f 	c #FBFBFB",
"g 	c #FAFAFA",
"h 	c #F8F8F9",
"i 	c #F7F7F7",
"j 	c #F6F6F6",
"k 	c #F5F5F5",
"l 	c #F4F4F4",
"m 	c #F2F2F3",
"n 	c #F1F1F2",
"o 	c #F0F0F0",
"p 	c #EFEFEF",
"q 	c #EEEEEE",
"r 	c #ECECED",
"s 	c #EBEBEC",
"t 	c #EAE9EA",
"u 	c #E9E8E9",
"v 	c #E8E7E8",
"w 	c #E6E6E6",
"x 	c #E5E5E5",
"y 	c #E4E4E4",
"z 	c #E3E3E3",
"A 	c #E2E2E2",
"B 	c #B3B3B3",
"C 	c #7A7272",
"D 	c #FFFEFF",
"E 	c #C7C7C7",
"F 	c #C4C4C4",
"G 	c #C2C1C2",
"H 	c #C1C1C1",
"I 	c #C1C1C0",
"J 	c #C0C0C0",
"K 	c #BFBFBF",
"L 	c #BFBFBE",
"M 	c #BEBEBD",
"N 	c #BDBDBD",
"O 	c #BCBCBD",
"P 	c #BCBCBC",
"Q 	c #BCBCBB",
"R 	c #BBBBBA",
"S 	c #BBBABA",
"T 	c #BAB9B9",
"U 	c #B9B9B9",
"V 	c #B8B8B8",
"W 	c #B8B7B8",
"X 	c #796F6F",
"Y 	c #FDFDFC",
"Z 	c #C8C7C8",
"` 	c #C7C6C7",
" .	c #C4C3C3",
"..	c #C3C3C2",
"+.	c #C2C2C1",
"@.	c #BEBEBE",
"#.	c #BCBDBC",
"$.	c #BBBCBB",
"%.	c #BBBBBB",
"&.	c #BABABA",
"*.	c #B9B9BA",
"=.	c #B8B8B9",
"-.	c #B7B7B7",
";.	c #776D6C",
">.	c #DCDDDD",
",.	c #C8C8C8",
"'.	c #C6C7C7",
").	c #C6C5C6",
"!.	c #C6C5C5",
"~.	c #C5C4C4",
"{.	c #C0C1C1",
"].	c #BFC0C0",
"^.	c #BEBEBF",
"/.	c #BDBCBD",
"(.	c #BCBBBC",
"_.	c #BCBBBB",
":.	c #BABAB9",
"<.	c #B9B9B8",
"[.	c #B8B8B7",
"}.	c #B8B7B7",
"|.	c #B7B6B6",
"1.	c #B6B6B6",
"2.	c #746A6A",
"3.	c #DCDBDB",
"4.	c #F8F8F8",
"5.	c #C5C6C5",
"6.	c #C4C6C4",
"7.	c #C4C5C4",
"8.	c #C1C0C1",
"9.	c #BEBFBF",
"0.	c #BEBFBE",
"a.	c #BDBEBD",
"b.	c #BCBEBC",
"c.	c #BBBCBC",
"d.	c #BABBBB",
"e.	c #BABBBA",
"f.	c #B9BAB9",
"g.	c #B8B9B9",
"h.	c #B7B6B7",
"i.	c #B6B6B7",
"j.	c #B5B5B6",
"k.	c #B5B5B5",
"l.	c #736767",
"m.	c #DADBDB",
"n.	c #F6F6F5",
"o.	c #C5C6C6",
"p.	c #C4C5C5",
"q.	c #C4C4C5",
"r.	c #606060",
"s.	c #626262",
"t.	c #BDBEBE",
"u.	c #5E5E5E",
"v.	c #616060",
"w.	c #B9B8B9",
"x.	c #B9B8B8",
"y.	c #B4B4B4",
"z.	c #B3B4B4",
"A.	c #716465",
"B.	c #D9DAD9",
"C.	c #F3F3F3",
"D.	c #C3C4C4",
"E.	c #C2C3C3",
"F.	c #C1C1C2",
"G.	c #C0C0BF",
"H.	c #60605F",
"I.	c #BDBDBC",
"J.	c #9B9B9A",
"K.	c #9B9B9B",
"L.	c #B7B7B8",
"M.	c #B7B7B6",
"N.	c #B6B6B5",
"O.	c #B5B4B4",
"P.	c #B4B3B3",
"Q.	c #6F6262",
"R.	c #F1F1F1",
"S.	c #8D8D8D",
"T.	c #6B6B6B",
"U.	c #636363",
"V.	c #6F6E6F",
"W.	c #616161",
"X.	c #636463",
"Y.	c #C1C2C1",
"Z.	c #5F5F5F",
"`.	c #8A8A8A",
" +	c #70706F",
".+	c #AFAFAE",
"++	c #5D5D5D",
"@+	c #838383",
"#+	c #646463",
"$+	c #5C5C5C",
"%+	c #666667",
"&+	c #A8A8A8",
"*+	c #B4B4B5",
"=+	c #B2B2B2",
"-+	c #6D5E5F",
";+	c #D7D7D8",
">+	c #878787",
",+	c #7B7B7B",
"'+	c #9E9E9E",
")+	c #929292",
"!+	c #C0BFBF",
"~+	c #BCBDBD",
"{+	c #5E5F5F",
"]+	c #838484",
"^+	c #5E5D5E",
"/+	c #787878",
"(+	c #7E7E7E",
"_+	c #727272",
":+	c #939493",
"<+	c #878887",
"[+	c #A5A6A5",
"}+	c #B3B3B4",
"|+	c #B2B2B3",
"1+	c #B1B1B2",
"2+	c #B1B1B1",
"3+	c #6B5C5D",
"4+	c #ECEDEC",
"5+	c #686868",
"6+	c #C0C0C1",
"7+	c #5B5B5B",
"8+	c #AFAFAF",
"9+	c #B2B3B3",
"0+	c #B2B1B2",
"a+	c #B1B0B1",
"b+	c #B0B0B0",
"c+	c #695A59",
"d+	c #EAEAEA",
"e+	c #C6C7C6",
"f+	c #C3C4C3",
"g+	c #666766",
"h+	c #616261",
"i+	c #B6B7B7",
"j+	c #B5B6B6",
"k+	c #5C5D5D",
"l+	c #5C5C5B",
"m+	c #AEAEAE",
"n+	c #B4B3B4",
"o+	c #B3B2B3",
"p+	c #B2B2B1",
"q+	c #B1B1B0",
"r+	c #B0B1B0",
"s+	c #B0B0AF",
"t+	c #B0AFAF",
"u+	c #685657",
"v+	c #D4D4D3",
"w+	c #E8E8E8",
"x+	c #848484",
"y+	c #797979",
"z+	c #9C9C9C",
"A+	c #909090",
"B+	c #BFBEBE",
"C+	c #969696",
"D+	c #828282",
"E+	c #5F5E5E",
"F+	c #818181",
"G+	c #767676",
"H+	c #7B7C7B",
"I+	c #5A5A5A",
"J+	c #707070",
"K+	c #919191",
"L+	c #858585",
"M+	c #A3A3A3",
"N+	c #AFAEAE",
"O+	c #665454",
"P+	c #D2D2D3",
"Q+	c #E5E6E6",
"R+	c #C2C1C1",
"S+	c #BDBCBC",
"T+	c #888888",
"U+	c #696969",
"V+	c #6C6C6C",
"W+	c #BEBDBE",
"X+	c #A09F9F",
"Y+	c #676766",
"Z+	c #6D6C6D",
"`+	c #AAAAAA",
" @	c #5A5B5B",
".@	c #B0AFB0",
"+@	c #AFAEAF",
"@@	c #AEADAE",
"#@	c #ADADAE",
"$@	c #635151",
"%@	c #D2D2D2",
"&@	c #BFC0BF",
"*@	c #BAB9BA",
"=@	c #B5B4B5",
"-@	c #B4B4B3",
";@	c #B3B2B2",
">@	c #ADACAD",
",@	c #ADACAC",
"'@	c #624F4E",
")@	c #D1D1D0",
"!@	c #E1E1E1",
"~@	c #C2C2C3",
"{@	c #C0C1C0",
"]@	c #BDBDBE",
"^@	c #B9BABA",
"/@	c #B8B9B8",
"(@	c #B7B8B7",
"_@	c #B6B7B6",
":@	c #B4B5B4",
"<@	c #B4B3B2",
"[@	c #B3B3B2",
"}@	c #AEAEAD",
"|@	c #ADADAC",
"1@	c #ACACAC",
"2@	c #ABABAC",
"3@	c #604C4B",
"4@	c #CFCFCF",
"5@	c #C1C2C2",
"6@	c #BEBDBD",
"7@	c #B5B6B5",
"8@	c #AEAFAE",
"9@	c #ADAEAD",
"0@	c #ADADAD",
"a@	c #ABACAC",
"b@	c #AAABAB",
"c@	c #5E4949",
"d@	c #CECFCF",
"e@	c #C0BFC0",
"f@	c #ACABAC",
"g@	c #ABAAAB",
"h@	c #ABAAAA",
"i@	c #AAAAA9",
"j@	c #5C4647",
"k@	c #5B4344",
"l@	c #888686",
"m@	c #868383",
"n@	c #858282",
"o@	c #848080",
"p@	c #837F7F",
"q@	c #827E7E",
"r@	c #817C7C",
"s@	c #807B7B",
"t@	c #807979",
"u@	c #7F7878",
"v@	c #7E7676",
"w@	c #7D7575",
"x@	c #7C7474",
"y@	c #7B7272",
"z@	c #7A7171",
"A@	c #797070",
"B@	c #786E6E",
"C@	c #776D6D",
"D@	c #756B6B",
"E@	c #736868",
"F@	c #726767",
"G@	c #716666",
"H@	c #716464",
"I@	c #706363",
"J@	c #6E6060",
"K@	c #6D5F5F",
"L@	c #6C5D5D",
"M@	c #6B5C5C",
"N@	c #6A5A5A",
"O@	c #695859",
"P@	c #685758",
"Q@	c #675656",
"R@	c #665555",
"S@	c #655454",
"T@	c #645252",
"U@	c #624F4F",
"V@	c #614E4E",
"W@	c #604C4C",
"X@	c #5F4B4A",
"Y@	c #5F4A49",
"Z@	c #5D4847",
"`@	c #5C4746",
" #	c #5B4444",
".#	c #594041",
"  . + + @ # # $ % & & * = - - ; ; > , ' ) ) ! ~ { ] ^ ^ / ( _ : < [ } | 1 2 3 4 4 5 6 7 8 9 0 a b ",
"  c c c d e f g h i j k l m n o p q r s t u v w x y z A .                                     B C ",
"  D E E E E E E E E E E E E E E E E E E 6 6 7 7 F F 0 0 a G H I J K L M N O P Q Q R S T U V W B X ",
"@ Y E E E E E E E E E E E E E Z Z ` 6 6 7 8 9  .....+.+.I J K K @.@.@.N #.$.%.&.&.*.*.=.V -.-.B ;.",
">.g E E E E E E E E E E E ,.,.E '.6 ).!.~.F 0 0 a a H {.].K ^.^.@.N /.(._.R R :.:.<.<.[.}.|.1.B 2.",
"3.4.E E E E E E E E E Z Z E E 6 5.6.7.F  .0 a G 8.8.J ].9.0.a.a.b.#.c.d.e.:.f.g.g.V W h.i.j.k.B l.",
"m.n.E E E E E E E E E E E 6 o.p.q.F 0 0 a a H {.].r.s.9.t.a.#.P u.v.R :.T w.x.[.[.-.-.1.k.y.z.B A.",
"B.C.E E E E E E E E E 6 6 7 8 F D.E.a a F.H J G.L H.s.@.N I.Q Q J.K.&.U =.L.-.M.M.N.k.O.O.P.B B Q.",
"- R.E E E E E E E 6 a S.T.U.V.y.a W.X.Y.{.r.s.9.t.Z.W.`.s. +.+S ++Z.U y.@+#+$+%+&+*+y.B B =+=+B -+",
";+p E E E Z E 6 6 7 >+s.,+'+)+=+a W.U.b !+r.s.t.~+{+u.]+@+^+/+U $+Z.V (+$+_+:+<+[+z.}+|+|+1+2+B 3+",
"> 4+,.,.4 5 6 o.o.7 5+s.P a a H 6+r.s.K 0.Z.W.I.Q u.u.V -.++r.w.$+{+-.r.7+8+*+}+}+9+9+=+0+a+b+B c+",
", d+'.'.e+5.5.7.7.f+g+h+%.H {.J J r.W.@.i.Z.W.P %.u.++i+j+k+r.[.l+u.1.Z.7+m+n+o+o+=+p+q+r+s+t+B u+",
"v+w+6 6 o.p.F  .0 a x+W.y+z+A+8+B+T.Z.C+D+E+W.%.&.++++D+F+$+G+-.7+++k.H+I+J+K+L+M+2+q+s+t+N+m+B O+",
"P+Q+8 8 8 F D.E.a R+S+T+U+W.V+b+W+X+Y+s.L+u.r.&.U ++Z.L+Z.Z+`+j+ @$+y.t+(+W.I+U.M+.@.@+@N+@@#@B $@",
"%@z F F F 0 ..+.H J J &@&@0.@.N N P P $.e.&.*@U V V -.M.1.1.k.=@y.-@P.;@=+2+q+s+s+8++@@@@@>@,@B '@",
")@!@E.E.~@G G H {@&@&@9.^.]@N P P Q R e.^@f.<./@(@(@_@1.k.:@-@P.<@[@=+2+2+b+b+8+8+m+}@|@|@1@2@B 3@",
"4@  a a 5@{.{.].&@0.0.M 6@S+P %.%.&.&.&.U V -.-._@_@7@k.y.y.B 9+=+2+2+b+b+8+8@9@9@0@>@1@a@b@`+B c@",
"d@  H H 8.e@e@K K @.@.N P %.%.&.&.&.U U V [.M.1.k.k.y.y.B B =+2+q+q+b+8+8+m+}@|@|@1@f@g@h@i@i@B j@",
": B B B B B B B B B B B B B B B B B B B B B B B B B B B B B B B B B B B B B B B B B B B B B B B k@",
"< l@m@m@n@o@p@q@r@s@t@u@v@w@x@y@z@A@B@C@D@2.E@F@G@H@I@Q.J@K@L@M@N@O@P@Q@R@S@T@$@U@V@W@X@Y@Z@`@ #.#"};
