/* XPM */
static char * frame__bottom_xpm[] = {
"345 12 67 1",
" 	c None",
".	c #575B6F",
"+	c #575B70",
"@	c #55586D",
"#	c #55596D",
"$	c #505467",
"%	c #494C5E",
"&	c #494D5E",
"*	c #3F4251",
"=	c #333541",
"-	c #B1B1B1",
";	c #B0B1B1",
">	c #B1B1B0",
",	c #B1B0B1",
"'	c #B0B0B0",
")	c #B0B1B0",
"!	c #B0B0B1",
"~	c #AFB0B0",
"{	c #B0B0AF",
"]	c #B0AFAF",
"^	c #B0AFB0",
"/	c #AFB0AF",
"(	c #AFAFAF",
"_	c #AFAFB0",
":	c #AFAEAF",
"<	c #AEAFAF",
"[	c #AFAFAE",
"}	c #AEAEAE",
"|	c #AEAEAF",
"1	c #AFAEAE",
"2	c #AEADAE",
"3	c #AEAEAD",
"4	c #ADAEAD",
"5	c #ADAEAE",
"6	c #AEADAD",
"7	c #ADADAE",
"8	c #ADADAD",
"9	c #ADADAC",
"0	c #ADACAD",
"a	c #ACACAD",
"b	c #ACADAD",
"c	c #ACADAC",
"d	c #ADACAC",
"e	c #ACACAC",
"f	c #ACABAC",
"g	c #ABACAC",
"h	c #ACACAB",
"i	c #ABACAB",
"j	c #ABABAB",
"k	c #ABABAC",
"l	c #ACABAB",
"m	c #AAABAB",
"n	c #ABABAA",
"o	c #AAABAA",
"p	c #ABAAAA",
"q	c #AAAAAB",
"r	c #ABAAAB",
"s	c #AAAAAA",
"t	c #AAA9A9",
"u	c #AAAAA9",
"v	c #A9AAAA",
"w	c #A9A9AA",
"x	c #AAA9AA",
"y	c #A9A9A9",
"z	c #A9AAA9",
"A	c #B1B0B0",
"B	c #AEAFAE",
"..+++++++++..................................................................................................................................................................................................................................................................................................................................+++++++++...",
"@@########@@@@@@@@@@@@@@@@@@@@@@@@@@@@@@@@@@@@@@@@@@@@@@@@@@@@@@@@@@@@@@@@@@@@@@@@@@@@@@@@@@@@@@@@@@@@@@@@@@@@@@@@@@@@@@@@@@@@@@@@@@@@@@@@@@@@@@@@@@@@@@@@@@@@@@@@@@@@@@@@@@@@@@@@@@@@@@@@@@@@@@@@@@@@@@@@@@@@@@@@@@@@@@@@@@@@@@@@@@@@@@@@@@@@@@@@@@@@@@@@@@@@@@@@@@@@@@@@@@@@@@@@@@@@@@@@@@@@@@@@@@@@@@@@@@@@@@@@@@@@@@@@@@@@@@@@@@@@@@@@@@@@########@@@",
"$$$$$$$$$$$$$$$$$$$$$$$$$$$$$$$$$$$$$$$$$$$$$$$$$$$$$$$$$$$$$$$$$$$$$$$$$$$$$$$$$$$$$$$$$$$$$$$$$$$$$$$$$$$$$$$$$$$$$$$$$$$$$$$$$$$$$$$$$$$$$$$$$$$$$$$$$$$$$$$$$$$$$$$$$$$$$$$$$$$$$$$$$$$$$$$$$$$$$$$$$$$$$$$$$$$$$$$$$$$$$$$$$$$$$$$$$$$$$$$$$$$$$$$$$$$$$$$$$$$$$$$$$$$$$$$$$$$$$$$$$$$$$$$$$$$$$$$$$$$$$$$$$$$$$$$$$$$$$$$$$$$$$$$$$$$$$$$$$$$$$$$$$",
"%%%&&&&%%%%%%%%%%%%%%%%%%%%%%%%%%%%%%%%%%%%%%%%%%%%%%%%%%%%%%%%%%%%%%%%%%%%%%%%%%%%%%%%%%%%%%%%%%%%%%%%%%%%%%%%%%%%%%%%%%%%%%%%%%%%%%%%%%%%%%%%%%%%%%%%%%%%%%%%%%%%%%%%%%%%%%%%%%%%%%%%%%%%%%%%%%%%%%%%%%%%%%%%%%%%%%%%%%%%%%%%%%%%%%%%%%%%%%%%%%%%%%%%%%%%%%%%%%%%%%%%%%%%%%%%%%%%%%%%%%%%%%%%%%%%%%%%%%%%%%%%%%%%%%%%%%%%%%%%%%%%%%%%%%%%%%%%%%&&&&%%%%",
"*********************************************************************************************************************************************************************************************************************************************************************************************************************************************************",
"=========================================================================================================================================================================================================================================================================================================================================================",
"-;>,-,-;>-,-->-,';,''')')''!!!''''~''''~'{']^]]^{/(_]]__(](_]_](/((((((:(((<<:[<<:[([[}|:}:1}|1:}:}}}}}}}2}33}2}45}3534}26}78}}74587288888888898808a08ab9aa8bbccccaddeaeeeeeeeeeeeeeeefeefegegehfhijhhfjfkkjiljkjjjjjmnjjjjjopjjpjqnnomrsopppqqqsrssssssssssssssstsuvtswwvuxsvuyzuuyzyyyyyyyyyyyyyyyyyyyyyyyyyyyyyyyyyyyyyyyyyyyyyyyyyyyyyyyyyyyyyyyyyyyy",
"-;-,>);--),';)'>',!'A''!>''''''''~'/''{'^''~^({(^_^]](^]/(~_~(](((([|((1(B}(((B|1B<|}B(B}}B[B1}}}B}}}}}52}5277}}}4}273676}665426448688888888888bb888898adabeeabebaeceeeeeeceeeegeeheehhieeehehhfkifihgilkjjjjjilljjjmjjjrjrsjmrmjjnnqooonssqnpssqsssssssssvsvxssxsztzsyxzzxzyyzyywxyxzyzyyyyyyyyyyyyyyyyyyyyyyyyyyyyyyyyyyyyyyyyyyyyyyyyyyyyyyyyyyyyyyyyy",
",-;>,!-,;,!!!A!AA''-''''A''''''^{'''~~{'{'(_^/((^^_(/(((/~(](((((((((((((<[([<:}BB<}|}}}B[}}1}}}}}}}}5}23}}62}54357568338}882488787488888a0b8899b88d0a888eeeebc99eaeeeeeeeeegeehhfhgefehekeefellhikjiljjjjjjljjjjnjjjjmnjnsmjmmnnsqpmsoojspnssqprsssssssssxxvxxzssyxxyuswyvwyutzwyyyyzyyyyyyyyyyyyyyyyyyyyyyyyyyyyyyyyyyyyyyyyyyyyyyyyyyyyyyyyyyyyyyyyyyy",
"A>-,A;'A',))!'!!)A''''''~'~''''{'''''~~~{~//]_/((_(((]((((((((:(|([[<(<|<[:(<1[(B:1}}|}:}}1}}}B}}}}}}3537}5}62887234883588848888888888a08d88b98a0baae8eb9adcddeeeeaedadeefgeekeefehheeeggikejhhljjjjjjjijjjjnjjnjjjjsjnmqmjonqjqojprpommsqossssssssvsusssvsvtssxyvuuxwtyywzzyyyyyyyyyyyyyyyyyyyyyyyyyyyyyyyyyyyyyyyyyyyyyyyyyyyyyyyyyyyyyyyyyyyyyyyyyyyyy",
",'>A)A)';);'''''''''''''^''{{^_]]'~/_~{^{_^~{(^(_((/(_](((((((<((((:(::<(<1<|B|B:}1(:B}}B}1}}}2}}552}442463}283346}756435867878888888b8808c88d80a8dbcb9eaededdeeeeeeeeeeefeeggefehiieffiilikihkjjljjlkjjjjjjjjmjjrrjmrrqqmspsrqposssssqoqssssxsxsutsusuuvsszvtsxvzxztwttzxyttxyyyyyyyyyyyyyyyyyyyyyyyyyyyyyyyyyyyyyyyyyyyyyyyyyyyyyyyyyyyyyyyyyyyyyyyyyyy",
";-))'A,;')))''''''_'~^_'_'^'{/]'~_/~^'{~(({/((/((((/((((((<[(<:<|B|(:([<1|B<|}}}B[}1}}B}}}}}}27}}}3258}64}}8774838768888868888888880889cc9e0a9cbabebbeacccaedeaceeeeeeefheefgekeiekihhffelilkjjjlhjkjjjrmmnrjjjrqorqropoqqsomnpspnrsssqsssssuusssvswvztvsuyuvxtsxtzusyyywyytyyyyyyyyyyyyyyyyyyyyyyyyyyyyyyyyyyyyyyyyyyyyyyyyyyyyyyyyyyyyyyyyyyyyyyyyyyyyy"};
