/* XPM */
static char * layer__4_xpm[] = {
"25 20 262 2",
"  	c None",
". 	c #DFDFDF",
"+ 	c #E0E0E0",
"@ 	c #DFDEDF",
"# 	c #DDDDDD",
"$ 	c #DCDCDC",
"% 	c #DADADB",
"& 	c #D9D9D9",
"* 	c #D8D8D8",
"= 	c #D7D7D7",
"- 	c #D5D5D5",
"; 	c #D4D3D3",
"> 	c #D3D2D3",
", 	c #D0D0D1",
"' 	c #D0CFD0",
") 	c #CFCECE",
"! 	c #CDCDCD",
"~ 	c #CCCCCB",
"{ 	c #CACACA",
"] 	c #C9C9C8",
"^ 	c #C8C7C7",
"/ 	c #C6C6C6",
"( 	c #C5C4C5",
"_ 	c #C3C3C3",
": 	c #C2C2C2",
"< 	c #C1C0C0",
"[ 	c #FFFFFF",
"} 	c #FCFCFC",
"| 	c #F9F9FA",
"1 	c #F7F6F6",
"2 	c #F4F4F4",
"3 	c #F1F1F2",
"4 	c #EFEFEF",
"5 	c #ECECED",
"6 	c #EAE9EA",
"7 	c #E7E7E7",
"8 	c #E4E4E5",
"9 	c #E2E2E2",
"0 	c #B3B3B3",
"a 	c #7A7272",
"b 	c #FFFEFF",
"c 	c #C7C7C7",
"d 	c #C5C5C5",
"e 	c #C4C4C4",
"f 	c #C2C1C2",
"g 	c #C1C1C0",
"h 	c #BFBFBF",
"i 	c #BEBEBD",
"j 	c #BCBCBD",
"k 	c #BCBCBB",
"l 	c #BBBABA",
"m 	c #B9B9B9",
"n 	c #B8B7B8",
"o 	c #796F6F",
"p 	c #DEDEDE",
"q 	c #FDFDFC",
"r 	c #C8C7C8",
"s 	c #C4C3C4",
"t 	c #C3C3C2",
"u 	c #C2C2C1",
"v 	c #C0C0C0",
"w 	c #BEBEBE",
"x 	c #BDBDBD",
"y 	c #BBBCBB",
"z 	c #BABABA",
"A 	c #B9B9BA",
"B 	c #B8B8B8",
"C 	c #B7B7B7",
"D 	c #776D6C",
"E 	c #DCDDDD",
"F 	c #FAFAFA",
"G 	c #C8C8C8",
"H 	c #C6C7C7",
"I 	c #C6C5C6",
"J 	c #C5C4C4",
"K 	c #C0C1C1",
"L 	c #BEBEBF",
"M 	c #BCBBBC",
"N 	c #BBBBBA",
"O 	c #BABAB9",
"P 	c #B9B9B8",
"Q 	c #B8B7B7",
"R 	c #B6B6B6",
"S 	c #746A6A",
"T 	c #DCDBDB",
"U 	c #F8F8F8",
"V 	c #C5C6C5",
"W 	c #C4C5C4",
"X 	c #C4C3C3",
"Y 	c #C1C0C1",
"Z 	c #BFC0C0",
"` 	c #BEBFBE",
" .	c #BDBEBD",
"..	c #BCBDBC",
"+.	c #BABBBB",
"@.	c #B8B9B9",
"#.	c #B6B6B7",
"$.	c #B5B5B5",
"%.	c #736767",
"&.	c #DADBDB",
"*.	c #F6F6F5",
"=.	c #C5C6C6",
"-.	c #C4C4C5",
";.	c #727373",
">.	c #5F5F5F",
",.	c #5E5F5E",
"'.	c #7C7C7C",
").	c #BCBBBB",
"!.	c #B9B8B9",
"~.	c #B8B8B7",
"{.	c #B3B4B4",
"].	c #716465",
"^.	c #D9DAD9",
"/.	c #F3F3F3",
"(.	c #C3C4C4",
"_.	c #C1C1C2",
":.	c #888888",
"<.	c #5E5E5E",
"[.	c #7C7C7B",
"}.	c #B7B7B8",
"|.	c #B7B7B6",
"1.	c #B5B4B4",
"2.	c #6F6262",
"3.	c #F1F1F1",
"4.	c #C1C2C1",
"5.	c #A0A1A1",
"6.	c #808080",
"7.	c #5E5E5D",
"8.	c #7B7B7B",
"9.	c #B5B5B6",
"0.	c #B4B4B4",
"a.	c #B2B2B2",
"b.	c #6D5E5F",
"c.	c #D7D7D8",
"d.	c #656565",
"e.	c #6E6E6E",
"f.	c #B7B8B8",
"g.	c #5D5E5E",
"h.	c #5D5D5D",
"i.	c #7A7A7A",
"j.	c #B4B5B4",
"k.	c #B3B3B4",
"l.	c #B2B2B3",
"m.	c #B1B1B1",
"n.	c #6B5C5D",
"o.	c #D6D6D6",
"p.	c #ECEDEC",
"q.	c #C7C6C6",
"r.	c #BDBDBE",
"s.	c #717171",
"t.	c #626262",
"u.	c #ACACAC",
"v.	c #5D5D5C",
"w.	c #7A797A",
"x.	c #B2B3B3",
"y.	c #B2B1B2",
"z.	c #B0B0B0",
"A.	c #695A59",
"B.	c #EAEAEA",
"C.	c #C3C4C3",
"D.	c #8A8A8A",
"E.	c #99999A",
"F.	c #BDBCBC",
"G.	c #BBBBBB",
"H.	c #5C5D5D",
"I.	c #5C5C5C",
"J.	c #797979",
"K.	c #B7B6B6",
"L.	c #B3B2B3",
"M.	c #B2B2B1",
"N.	c #B0B1B0",
"O.	c #B0AFAF",
"P.	c #685657",
"Q.	c #D4D4D3",
"R.	c #E8E8E8",
"S.	c #C4C5C5",
"T.	c #C1C1C1",
"U.	c #777676",
"V.	c #5E5F5F",
"W.	c #616161",
"X.	c #5C5B5C",
"Y.	c #A4A5A4",
"Z.	c #B1B1B0",
"`.	c #AEAEAE",
" +	c #665454",
".+	c #D2D2D3",
"++	c #E5E6E6",
"@+	c #C2C3C3",
"#+	c #C2C1C1",
"$+	c #767576",
"%+	c #5B5C5C",
"&+	c #5B5B5B",
"*+	c #5A5B5B",
"=+	c #5A5A5A",
"-+	c #A3A2A2",
";+	c #B0AFB0",
">+	c #AFAEAE",
",+	c #ADADAE",
"'+	c #635151",
")+	c #D2D2D2",
"!+	c #E3E3E3",
"~+	c #BFC0BF",
"{+	c #BCBCBC",
"]+	c #BABBBA",
"^+	c #BAB9BA",
"/+	c #777777",
"(+	c #B4B4B3",
"_+	c #B3B2B2",
":+	c #B0B0AF",
"<+	c #AFAEAF",
"[+	c #AEADAE",
"}+	c #ADACAC",
"|+	c #624F4E",
"1+	c #D1D1D0",
"2+	c #E1E1E1",
"3+	c #B9BABA",
"4+	c #B7B8B7",
"5+	c #B3B3B2",
"6+	c #AFAFAF",
"7+	c #AEAEAD",
"8+	c #ADADAC",
"9+	c #ABABAC",
"0+	c #604C4B",
"a+	c #CFCFCF",
"b+	c #BEBDBD",
"c+	c #B6B7B6",
"d+	c #ADAEAD",
"e+	c #ADACAD",
"f+	c #ABACAC",
"g+	c #AAAAAA",
"h+	c #5E4949",
"i+	c #CECFCF",
"j+	c #C0BFC0",
"k+	c #ACABAC",
"l+	c #ABAAAA",
"m+	c #AAAAA9",
"n+	c #5C4647",
"o+	c #5B4344",
"p+	c #CCCCCC",
"q+	c #888686",
"r+	c #868383",
"s+	c #848080",
"t+	c #827D7D",
"u+	c #807A7A",
"v+	c #7E7777",
"w+	c #7C7474",
"x+	c #7A7171",
"y+	c #786E6E",
"z+	c #756B6B",
"A+	c #736868",
"B+	c #716565",
"C+	c #6D5F5F",
"D+	c #6B5C5C",
"E+	c #695859",
"F+	c #675656",
"G+	c #655353",
"H+	c #635050",
"I+	c #604D4D",
"J+	c #5F4A49",
"K+	c #5C4746",
"L+	c #5B4444",
"M+	c #594041",
". + @ # $ % & * = - ; > , ' ) ! ~ { ] ^ / ( _ : < ",
". [ [ } | 1 2 3 4 5 6 7 8 9 . . . . . . . . . 0 a ",
". b c c c c c c c c / d e _ f g h i j k l m n 0 o ",
"p q c c c c c c r / d s t u v h w x y z A B C 0 D ",
"E F c c c c c G H I J _ : K h L x M N O P Q R 0 S ",
"T U c c c c r c V W X : Y Z `  ...+.O @.n #.$.0 %.",
"&.*.c c c c c =.-._ : w ;.>.,.'.).O !.~.C $.{.0 ].",
"^./.c c c c / ( (.: _.:.>.>.<.[.z m }.|.$.1.0 0 2.",
"* 3.c c c / d s : 4.5.>.6.<.7.8.m B |.9.0.0 a.0 b.",
"c.4 c r / d e _ : 0 d.e.f.g.h.i.B C R j.k.l.m.0 n.",
"o.p.G q.=.d _ : r.s.t.u.k h.v.w.f.R $.k.x.y.z.0 A.",
"- B.H V W C.: K D.>.E.F.G.H.I.J.K.$.0.L.M.N.O.0 P.",
"Q.R./ S.X : T.v U.V.t.t.W.I.X.I.<.Y.0 a.Z.O.`.0  +",
".+++( e @+#+v h $+<.h.h.I.%+&+*+=+-+a.z.;+>+,+0 '+",
")+!+e _ u v ~+w x {+]+^+B &+&+/+(+_+m.:+<+[+}+0 |+",
"1+2+@+f T.~+L x {+N 3+P 4+&+=+U.5+m.z.6+7+8+9+0 0+",
"a+. : K Z ` b+{+G.z m C c+$.0.x.m.z.6+d+e+f+g+0 h+",
"i+. T.j+h w {+G.z m B |.$.0.0 m.Z.6+`.8+k+l+m+0 n+",
"! 0 0 0 0 0 0 0 0 0 0 0 0 0 0 0 0 0 0 0 0 0 0 0 o+",
"p+q+r+s+t+u+v+w+x+y+z+A+B+2.C+D+E+F+G+H+I+J+K+L+M+"};
