/* XPM */
static char * lfo__sawdown_xpm[] = {
"25 20 283 2",
"  	c None",
". 	c #DFDFDF",
"+ 	c #E0E0E0",
"@ 	c #DFDEDF",
"# 	c #DDDDDD",
"$ 	c #DCDCDC",
"% 	c #DADADB",
"& 	c #D9D9D9",
"* 	c #D8D8D8",
"= 	c #D7D7D7",
"- 	c #D5D5D5",
"; 	c #D4D3D3",
"> 	c #D3D2D3",
", 	c #D0D0D1",
"' 	c #D0CFD0",
") 	c #CFCECE",
"! 	c #CDCDCD",
"~ 	c #CCCCCB",
"{ 	c #CACACA",
"] 	c #C9C9C8",
"^ 	c #C8C7C7",
"/ 	c #C6C6C6",
"( 	c #C5C4C5",
"_ 	c #C3C3C3",
": 	c #C2C2C2",
"< 	c #C1C0C0",
"[ 	c #FFFFFF",
"} 	c #FCFCFC",
"| 	c #F9F9FA",
"1 	c #F7F6F6",
"2 	c #F4F4F4",
"3 	c #F1F1F2",
"4 	c #EFEFEF",
"5 	c #ECECED",
"6 	c #EAE9EA",
"7 	c #E7E7E7",
"8 	c #E4E4E5",
"9 	c #E2E2E2",
"0 	c #B3B3B3",
"a 	c #7A7272",
"b 	c #FFFEFF",
"c 	c #C7C7C7",
"d 	c #BEBEBE",
"e 	c #C5C5C5",
"f 	c #C4C4C4",
"g 	c #C2C1C2",
"h 	c #C1C1C0",
"i 	c #BFBFBF",
"j 	c #BEBEBD",
"k 	c #BCBCBD",
"l 	c #BCBCBB",
"m 	c #BBBABA",
"n 	c #B9B9B9",
"o 	c #B8B7B8",
"p 	c #796F6F",
"q 	c #DEDEDE",
"r 	c #FDFDFC",
"s 	c #ABABAB",
"t 	c #959595",
"u 	c #A7A7A7",
"v 	c #BDBDBD",
"w 	c #C7C6C7",
"x 	c #C4C3C4",
"y 	c #C3C3C2",
"z 	c #C2C2C1",
"A 	c #C0C0C0",
"B 	c #BBBCBB",
"C 	c #BABABA",
"D 	c #B9B9BA",
"E 	c #B8B8B8",
"F 	c #B7B7B7",
"G 	c #776D6C",
"H 	c #DCDDDD",
"I 	c #FAFAFA",
"J 	c #8D8D8D",
"K 	c #696969",
"L 	c #7C7C7C",
"M 	c #9C9C9C",
"N 	c #B7B8B8",
"O 	c #C3C2C3",
"P 	c #C5C4C4",
"Q 	c #C0C1C1",
"R 	c #BEBEBF",
"S 	c #BCBBBC",
"T 	c #BBBBBA",
"U 	c #BABAB9",
"V 	c #B9B9B8",
"W 	c #B8B7B7",
"X 	c #B6B6B6",
"Y 	c #746A6A",
"Z 	c #DCDBDB",
"` 	c #F8F8F8",
" .	c #919191",
"..	c #707070",
"+.	c #7B7B7B",
"@.	c #737373",
"#.	c #8F908F",
"$.	c #A6A6A6",
"%.	c #C1C0C1",
"&.	c #BFC0C0",
"*.	c #BEBFBE",
"=.	c #BDBEBD",
"-.	c #BCBDBC",
";.	c #BABBBB",
">.	c #B8B9B9",
",.	c #B6B6B7",
"'.	c #B5B5B5",
").	c #736767",
"!.	c #DADBDB",
"~.	c #F6F6F5",
"{.	c #757575",
"].	c #848585",
"^.	c #6D6D6D",
"/.	c #797979",
"(.	c #9D9D9D",
"_.	c #BDBEBE",
":.	c #BEBFBF",
"<.	c #BCBCBC",
"[.	c #BCBBBB",
"}.	c #B9B8B9",
"|.	c #B8B8B7",
"1.	c #B3B4B4",
"2.	c #716465",
"3.	c #D9DAD9",
"4.	c #F3F3F3",
"5.	c #777777",
"6.	c #ADACAD",
"7.	c #929292",
"8.	c #787878",
"9.	c #A9A9A8",
"0.	c #BDBDBC",
"a.	c #B7B7B8",
"b.	c #B7B7B6",
"c.	c #B5B4B4",
"d.	c #6F6262",
"e.	c #F1F1F1",
"f.	c #767676",
"g.	c #939393",
"h.	c #9C9D9C",
"i.	c #767777",
"j.	c #6A6A6A",
"k.	c #808080",
"l.	c #B3B3B2",
"m.	c #B9B8B8",
"n.	c #B5B5B6",
"o.	c #B4B4B4",
"p.	c #B2B2B2",
"q.	c #6D5E5F",
"r.	c #D7D7D8",
"s.	c #C8C7C8",
"t.	c #AAAAAA",
"u.	c #A1A1A1",
"v.	c #898989",
"w.	c #747575",
"x.	c #908F90",
"y.	c #B4B5B4",
"z.	c #B3B3B4",
"A.	c #B2B2B3",
"B.	c #B1B1B1",
"C.	c #6B5C5D",
"D.	c #D6D6D6",
"E.	c #ECEDEC",
"F.	c #C8C8C8",
"G.	c #C7C6C6",
"H.	c #A9AAAA",
"I.	c #C0C0C1",
"J.	c #AEAEAE",
"K.	c #6B6B6A",
"L.	c #7E7E7E",
"M.	c #989999",
"N.	c #ADADAD",
"O.	c #B2B3B3",
"P.	c #B2B1B2",
"Q.	c #B0B0B0",
"R.	c #695A59",
"S.	c #EAEAEA",
"T.	c #C6C7C7",
"U.	c #C5C6C5",
"V.	c #A9A9A9",
"W.	c #BFBFBE",
"X.	c #BDBDBE",
"Y.	c #999A9A",
"Z.	c #7D7E7E",
"`.	c #6A6A69",
" +	c #727171",
".+	c #B0AFB0",
"++	c #B2B2B1",
"@+	c #B0B1B0",
"#+	c #B0AFAF",
"$+	c #685657",
"%+	c #D4D4D3",
"&+	c #E8E8E8",
"*+	c #C4C5C5",
"=+	c #A9A8A8",
"-+	c #747474",
";+	c #909090",
">+	c #BFBEBE",
",+	c #BDBCBC",
"'+	c #A5A4A5",
")+	c #8C8C8C",
"!+	c #686968",
"~+	c #838383",
"{+	c #ACACAB",
"]+	c #665454",
"^+	c #D2D2D3",
"/+	c #E5E6E6",
"(+	c #A7A8A8",
"_+	c #747373",
":+	c #8F8F8F",
"<+	c #BEBDBE",
"[+	c #BBBBBB",
"}+	c #B5B4B5",
"|+	c #ACADAD",
"1+	c #7A7979",
"2+	c #636363",
"3+	c #939293",
"4+	c #ABAAAA",
"5+	c #ADADAE",
"6+	c #635151",
"7+	c #D2D2D2",
"8+	c #E3E3E3",
"9+	c #A7A7A6",
"0+	c #BABBBA",
"a+	c #BAB9BA",
"b+	c #AFAFAE",
"c+	c #828282",
"d+	c #666665",
"e+	c #6E6D6E",
"f+	c #A2A1A2",
"g+	c #ACABAB",
"h+	c #624F4E",
"i+	c #D1D1D0",
"j+	c #E1E1E1",
"k+	c #C2C3C3",
"l+	c #7D7D7D",
"m+	c #9B9B9C",
"n+	c #B9BABA",
"o+	c #B7B8B7",
"p+	c #B4B3B3",
"q+	c #A2A2A2",
"r+	c #727271",
"s+	c #A2A2A1",
"t+	c #AAAAAB",
"u+	c #604C4B",
"v+	c #CFCFCF",
"w+	c #BEBDBD",
"x+	c #B6B7B6",
"y+	c #A5A6A5",
"z+	c #9D9C9D",
"A+	c #5E4949",
"B+	c #CECFCF",
"C+	c #C1C1C1",
"D+	c #C0BFC0",
"E+	c #B1B1B0",
"F+	c #AFAFAF",
"G+	c #AAA9AA",
"H+	c #AAAAA9",
"I+	c #5C4647",
"J+	c #5B4344",
"K+	c #CCCCCC",
"L+	c #888686",
"M+	c #868383",
"N+	c #848080",
"O+	c #827D7D",
"P+	c #807A7A",
"Q+	c #7E7777",
"R+	c #7C7474",
"S+	c #7A7171",
"T+	c #786E6E",
"U+	c #756B6B",
"V+	c #736868",
"W+	c #716565",
"X+	c #6D5F5F",
"Y+	c #6B5C5C",
"Z+	c #695859",
"`+	c #675656",
" @	c #655353",
".@	c #635050",
"+@	c #604D4D",
"@@	c #5F4A49",
"#@	c #5C4746",
"$@	c #5B4444",
"%@	c #594041",
". + @ # $ % & * = - ; > , ' ) ! ~ { ] ^ / ( _ : < ",
". [ [ } | 1 2 3 4 5 6 7 8 9 . . . . . . . . . 0 a ",
". b c c _ d : c c c / e f _ g h i j k l m n o 0 p ",
"q r c / s t u v w / e x y z A i d v B C D E F 0 G ",
"H I c _ J K L M N O P _ : Q i R v S T U V W X 0 Y ",
"Z ` c /  ...+.@.#.$.m : %.&.*.=.-.;.U >.o ,.'.0 ).",
"!.~.c c s {.{.].^./.(.X _.:.=.<.[.U }.|.F '.1.0 2.",
"3.4.c c s 5. .6.7.8./. .9.E 0.l C n a.b.'.c.0 0 d.",
"* e.c c s f.g.g F h.i.j.k.(.l.m.n E b.n.o.0 p.0 q.",
"r.4 c s.t.f.7._ : E u.v.^.w.x.$.p.F X y.z.A.B.0 C.",
"D.E.F.G.H.f.7.: I.d B J. .@.K.L.M.N.o.z.O.P.Q.0 R.",
"- S.T.U.V.{. .Q A W.X.[.p.Y.Z.`. +J $..+++@+#+0 $+",
"%+&+/ *+=+-+;+A >+_.,+<.n 0 '+)+..!+~+(.{+#+J.0 ]+",
"^+/+( f (+_+:+i <+0.[+C n N }+|+t 1+2+5.3+4+5+0 6+",
"7+8+f _ 9+@.:+d v <.0+a+E b.X }+b+(.c+d+e+f+g+0 h+",
"i+j+k+g o.l+m+v <.T n+V o+X y.p+l.J.q+v.r+s+t+0 u+",
"v+. : Q &.*.w+<.[+C n F x+'.o.O.B.Q.J.y+z+(+t.0 A+",
"B+. C+D+i d <.[+C n E b.'.o.0 B.E+F+J.{+G+4+H+0 I+",
"! 0 0 0 0 0 0 0 0 0 0 0 0 0 0 0 0 0 0 0 0 0 0 0 J+",
"K+L+M+N+O+P+Q+R+S+T+U+V+W+d.X+Y+Z+`+ @.@+@@@#@$@%@"};
