/* XPM */
static char * lfo__sawup_active_xpm[] = {
"25 20 255 2",
"  	c None",
". 	c #594041",
"+ 	c #5B4444",
"@ 	c #5C4746",
"# 	c #5F4A49",
"$ 	c #604D4D",
"% 	c #635050",
"& 	c #655353",
"* 	c #675656",
"= 	c #695859",
"- 	c #6B5C5C",
"; 	c #6D5F5F",
"> 	c #6F6262",
", 	c #716565",
"' 	c #736868",
") 	c #766C6C",
"! 	c #7D7373",
"~ 	c #857D7D",
"{ 	c #918A8A",
"] 	c #9C9797",
"^ 	c #A29E9E",
"/ 	c #9E9A9A",
"( 	c #959191",
"_ 	c #8C8989",
": 	c #898787",
"< 	c #CCCCCC",
"[ 	c #5B4344",
"} 	c #929292",
"| 	c #949494",
"1 	c #989898",
"2 	c #A2A2A2",
"3 	c #AFAFAF",
"4 	c #BEBEBE",
"5 	c #D1D1D1",
"6 	c #C8C8C8",
"7 	c #B5B5B5",
"8 	c #A1A1A1",
"9 	c #959595",
"0 	c #CDCDCD",
"a 	c #5C4647",
"b 	c #9D9D9C",
"c 	c #9E9D9D",
"d 	c #9F9E9F",
"e 	c #A0A09F",
"f 	c #A4A4A3",
"g 	c #A4A4A4",
"h 	c #A6A6A6",
"i 	c #A8A8A8",
"j 	c #ABABAB",
"k 	c #B1B1B1",
"l 	c #BBBBBB",
"m 	c #C9C9C9",
"n 	c #D9D9D9",
"o 	c #E6E6E6",
"p 	c #E1E1E1",
"q 	c #DADADA",
"r 	c #DFDFDF",
"s 	c #CACACA",
"t 	c #D6D6D6",
"u 	c #CECFCF",
"v 	c #5E4949",
"w 	c #9D9D9D",
"x 	c #9E9F9F",
"y 	c #A09FA0",
"z 	c #A0A1A0",
"A 	c #A3A3A3",
"B 	c #A5A6A6",
"C 	c #ADADAD",
"D 	c #C0C0C0",
"E 	c #CFCFCF",
"F 	c #DEDEDE",
"G 	c #EAEAEA",
"H 	c #DCDCDC",
"I 	c #747474",
"J 	c #AAAAAA",
"K 	c #DEDFDF",
"L 	c #604C4B",
"M 	c #9E9E9F",
"N 	c #A1A1A0",
"O 	c #A6A6A5",
"P 	c #A8A7A7",
"Q 	c #ACADAC",
"R 	c #B8B8B8",
"S 	c #C7C8C7",
"T 	c #D9D9D8",
"U 	c #EAEAE9",
"V 	c #D0D0D0",
"W 	c #858585",
"X 	c #313131",
"Y 	c #000000",
"Z 	c #5D5D5D",
"` 	c #DDDCDD",
" .	c #D1D1D0",
"..	c #63504F",
"+.	c #A09F9F",
"@.	c #A1A0A1",
"#.	c #A2A1A2",
"$.	c #A3A3A2",
"%.	c #A7A6A6",
"&.	c #AAAAA9",
"*.	c #B0AFB0",
"=.	c #B9B9B9",
"-.	c #EDEDED",
";.	c #DDDDDD",
">.	c #6A6A6A",
",.	c #1B1B1B",
"'.	c #303030",
").	c #131313",
"!.	c #E2E2E2",
"~.	c #D2D2D2",
"{.	c #DBDBDB",
"].	c #665555",
"^.	c #A0A0A1",
"/.	c #A2A1A1",
"(.	c #A3A2A3",
"_.	c #ACABAB",
":.	c #B4B4B4",
"<.	c #BFC0C0",
"[.	c #E9E9E9",
"}.	c #0E0E0E",
"|.	c #4E4E4E",
"1.	c #222222",
"2.	c #212121",
"3.	c #ACACAC",
"4.	c #DDDEDE",
"5.	c #D2D2D3",
"6.	c #6F5E5E",
"7.	c #A3A2A2",
"8.	c #A5A5A4",
"9.	c #AEAEAE",
"0.	c #B8B9B8",
"a.	c #C7C7C7",
"b.	c #D7D7D7",
"c.	c #E3E3E3",
"d.	c #BABABA",
"e.	c #797979",
"f.	c #343434",
"g.	c #333333",
"h.	c #767676",
"i.	c #BDBDBD",
"j.	c #6E6E6E",
"k.	c #252525",
"l.	c #D3D3D3",
"m.	c #E0E0E0",
"n.	c #D4D4D3",
"o.	c #756465",
"p.	c #939393",
"q.	c #A4A5A4",
"r.	c #B2B1B2",
"s.	c #CECECE",
"t.	c #969696",
"u.	c #F8F8F8",
"v.	c #757575",
"w.	c #D3D4D4",
"x.	c #D5D5D5",
"y.	c #776968",
"z.	c #AAA9AA",
"A.	c #C5C5C6",
"B.	c #C3C3C3",
"C.	c #808080",
"D.	c #1A1A1A",
"E.	c #696969",
"F.	c #A7A7A7",
"G.	c #FAFAFA",
"H.	c #E7E6E6",
"I.	c #D4D4D4",
"J.	c #796B6C",
"K.	c #B5B5B6",
"L.	c #C7C7C8",
"M.	c #525252",
"N.	c #191919",
"O.	c #838383",
"P.	c #ECECEC",
"Q.	c #EEEEEE",
"R.	c #F5F5F5",
"S.	c #E7E7E7",
"T.	c #E5E5E5",
"U.	c #D7D7D8",
"V.	c #7D6F70",
"W.	c #9A9A9A",
"X.	c #E8E8E8",
"Y.	c #505050",
"Z.	c #9F9F9F",
"`.	c #737373",
" +	c #D8D8D8",
".+	c #827676",
"++	c #C4C4C4",
"@+	c #D9DAD9",
"#+	c #877C7D",
"$+	c #0F0F0F",
"%+	c #E6E7E7",
"&+	c #ECECEB",
"*+	c #DADBDB",
"=+	c #887E7E",
"-+	c #363636",
";+	c #DBDCDB",
">+	c #CCCDCD",
",+	c #C2C1C2",
"'+	c #BAB9B9",
")+	c #CCCDCC",
"!+	c #E4E4E4",
"~+	c #727272",
"{+	c #DCDBDB",
"]+	c #857C7C",
"^+	c #B2B2B2",
"/+	c #454545",
"(+	c #888888",
"_+	c #E8E7E8",
":+	c #D1D1D2",
"<+	c #C5C5C5",
"[+	c #BDBEBE",
"}+	c #B6B6B6",
"|+	c #B7B7B7",
"1+	c #BDBCBD",
"2+	c #404040",
"3+	c #EFEFEF",
"4+	c #DCDDDD",
"5+	c #827978",
"6+	c #C2C2C2",
"7+	c #BFBFBF",
"8+	c #B6B6B5",
"9+	c #B5B5B4",
"0+	c #B6B5B6",
"a+	c #C8C7C8",
"b+	c #F1F1F0",
"c+	c #7E7474",
"d+	c #CBCACB",
"e+	c #E1E1E0",
"f+	c #D0D0CF",
"g+	c #BEBEBD",
"h+	c #BCBBBC",
"i+	c #BCBCBC",
"j+	c #C1C1C1",
"k+	c #C6C6C6",
"l+	c #F2F1F2",
"m+	c #7B7373",
"n+	c #979797",
"o+	c #D9D9DA",
"p+	c #E0E0E1",
"q+	c #E6E6E7",
"r+	c #ECEBEB",
"s+	c #EEEEEF",
"t+	c #F0F0F0",
"u+	c #F2F2F2",
"v+	c #C1C0C0",
"w+	c #CCCBCB",
"x+	c #CCCCCB",
"y+	c #CBCBCB",
"z+	c #CFCECE",
"A+	c #D0CFD0",
"B+	c #D0D0D1",
"C+	c #D3D2D3",
"D+	c #D4D3D3",
"E+	c #DADADB",
"F+	c #DFDEDF",
". + @ # $ % & * = - ; > , ' ) ! ~ { ] ^ / ( _ : < ",
"[ } } } } } } } } } } } } | 1 2 3 4 < 5 6 7 8 9 0 ",
"a } b c d e 8 2 f g h i j k l m n o p q r n s t u ",
"v } w x y z 2 A g B i C 7 D E F G H A I J K E t E ",
"L } M e N 2 A g O P Q R S T o U V W X Y Z ` 5 n  .",
"..} +.@.#.$.g %.&.*.=.s H -.;.i >.,.'.).>.!.~.{.~.",
"].} ^./.(.A h _.:.<.0 F [.q 9 X }.|.1.2.3.o ~.4.5.",
"6.} 8 7.8.i 9.0.a.b.o c.d.e.f.g.h.i.j.k.C o l.m.n.",
"o.p.7.q.&.r.4 s.;.[.H 8 |.}.'.t.r u.v.k.C o w.p x.",
"y.p.g z.:.A.b.o c.B.C.X D.E.F.p u.G.v.k.C H.I.c.t ",
"J.9 J K.L.{.G H 8 M.N.'.O.s.[.P.Q.R.I k.C S.I.T.U.",
"V.W.7 a.H X.E W X N.Y.Z.H P.!.{.r -.`.k.C S.I.S. +",
".+A ++H m.d.j.,.'.C.D p T.H E s l.S.`.k.C S.I.[.@+",
"#+9.I.r Z.|.$+|.Z.H [.!.l.6 D D E %+`.k.C T.I.&+*+",
"=+:.{.s.-+,.j.=.!.o ;+>+,+d.'+4 )+!+~+k.9.!+I.-.{+",
"]+^+{.V /+(+5 _+m.:+<+[+=.}+|+1+>+p p.2+s.p ~.3+4+",
"5+3.I.F 6+{.[.F s.7+=.8+9+0+}+l a+b.!.T.!.b.0 b+F ",
"c+8 d+n F e+H f+++g+h+i+i.4 7+j+k+< 5 ~.5 < k+l+r ",
"m+n+q ;.r r F q t I.I.b.o+H F p+c.q+[.r+s+t+u+u+r ",
"v+6+<+a+s w+x+y+x+0 z+A+B+C+D+x.b. +n E+H ;.F+m.r "};
