/* XPM */
static char * bottom__begin_xpm[] = {
"26 48 462 2",
"  	c None",
". 	c #C1EFEC",
"+ 	c #0D3557",
"@ 	c #154D7C",
"# 	c #99BCD5",
"$ 	c #000000",
"% 	c #000001",
"& 	c #42729B",
"* 	c #000102",
"= 	c #000202",
"- 	c #000205",
"; 	c #000101",
"> 	c #000204",
", 	c #000306",
"' 	c #000409",
") 	c #000508",
"! 	c #00060C",
"~ 	c #00080E",
"{ 	c #000810",
"] 	c #1F2E50",
"^ 	c #1D2C4D",
"/ 	c #202E44",
"( 	c #202D43",
"_ 	c #1F2D42",
": 	c #25324A",
"< 	c #2D3C55",
"[ 	c #24334A",
"} 	c #25334B",
"| 	c #25334A",
"1 	c #23324A",
"2 	c #223148",
"3 	c #000103",
"4 	c #000305",
"5 	c #000407",
"6 	c #00050A",
"7 	c #00060B",
"8 	c #233257",
"9 	c #213054",
"0 	c #27344A",
"a 	c #263349",
"b 	c #2C3952",
"c 	c #364460",
"d 	c #364560",
"e 	c #2C3A53",
"f 	c #2C3953",
"g 	c #2B3951",
"h 	c #2A3850",
"i 	c #293750",
"j 	c #000408",
"k 	c #00050C",
"l 	c #28365F",
"m 	c #26345B",
"n 	c #2E3A52",
"o 	c #2D3951",
"p 	c #2D3850",
"q 	c #35415D",
"r 	c #424F6D",
"s 	c #414F6D",
"t 	c #35415C",
"u 	c #34415C",
"v 	c #34405B",
"w 	c #333F59",
"x 	c #313E58",
"y 	c #000203",
"z 	c #000509",
"A 	c #2E3C66",
"B 	c #2D3965",
"C 	c #36415A",
"D 	c #354059",
"E 	c #353F58",
"F 	c #3F4966",
"G 	c #4D5A79",
"H 	c #4C5A79",
"I 	c #3E4A66",
"J 	c #3E4965",
"K 	c #3D4965",
"L 	c #3C4763",
"M 	c #3A4661",
"N 	c #000104",
"O 	c #333F6C",
"P 	c #323E6B",
"Q 	c #3D4660",
"R 	c #3D4561",
"S 	c #3C4660",
"T 	c #47516F",
"U 	c #586386",
"V 	c #576484",
"W 	c #475170",
"X 	c #46516F",
"Y 	c #46516E",
"Z 	c #46506D",
"` 	c #444E6C",
" .	c #414C69",
"..	c #374270",
"+.	c #37416F",
"@.	c #424B66",
"#.	c #424A64",
"$.	c #424A65",
"%.	c #4E5675",
"&.	c #616B8E",
"*.	c #606B8D",
"=.	c #4E5877",
"-.	c #4E5876",
";.	c #4E5775",
">.	c #4D5673",
",.	c #4A5472",
"'.	c #3A4474",
").	c #3A4373",
"!.	c #474E69",
"~.	c #545B7B",
"{.	c #687195",
"].	c #687196",
"^.	c #545D7C",
"/.	c #535C7B",
"(.	c #535B7B",
"_.	c #525A79",
":.	c #4F5977",
"<.	c #4C5673",
"[.	c #3C4574",
"}.	c #3A4674",
"|.	c #4A506C",
"1.	c #575E7F",
"2.	c #6C7598",
"3.	c #6D7599",
"4.	c #57607F",
"5.	c #575F7F",
"6.	c #565E7D",
"7.	c #555D7D",
"8.	c #525B7A",
"9.	c #4F5876",
"0.	c #4C526D",
"a.	c #4B526D",
"b.	c #596080",
"c.	c #6F789B",
"d.	c #6E769B",
"e.	c #586180",
"f.	c #595F7F",
"g.	c #585F7E",
"h.	c #575D7D",
"i.	c #505876",
"j.	c #3C4573",
"k.	c #3C4473",
"l.	c #4C536D",
"m.	c #59607F",
"n.	c #6F779C",
"o.	c #596180",
"p.	c #59617E",
"q.	c #585F7D",
"r.	c #575E7D",
"s.	c #555C7A",
"t.	c #515A76",
"u.	c #3B4471",
"v.	c #4C536C",
"w.	c #4D536D",
"x.	c #4C526C",
"y.	c #5A617F",
"z.	c #70769B",
"A.	c #6E789A",
"B.	c #5A607F",
"C.	c #59607E",
"D.	c #58607E",
"E.	c #575D7C",
"F.	c #545C7A",
"G.	c #525876",
"H.	c #3B446E",
"I.	c #3B4470",
"J.	c #4C526B",
"K.	c #4C516B",
"L.	c #6E7599",
"M.	c #6E7598",
"N.	c #58607D",
"O.	c #595F7E",
"P.	c #595F7D",
"Q.	c #585E7C",
"R.	c #575D7B",
"S.	c #555C79",
"T.	c #515975",
"U.	c #3A426C",
"V.	c #4B516A",
"W.	c #585F7C",
"X.	c #6D7597",
"Y.	c #595F7C",
"Z.	c #575E7B",
"`.	c #575D7A",
" +	c #545B78",
".+	c #515874",
"++	c #3A416B",
"@+	c #38416B",
"#+	c #4A5069",
"$+	c #4A5068",
"%+	c #575E7A",
"&+	c #6C7495",
"*+	c #6D7495",
"=+	c #585E7B",
"-+	c #585E7A",
";+	c #575D79",
">+	c #565C79",
",+	c #545A76",
"'+	c #505773",
")+	c #384068",
"!+	c #4A4F67",
"~+	c #6C7494",
"{+	c #6C7393",
"]+	c #575D78",
"^+	c #565D78",
"/+	c #555B77",
"(+	c #535975",
"_+	c #4F5671",
":+	c #373F64",
"<+	c #494F66",
"[+	c #494F65",
"}+	c #565C77",
"|+	c #6B7293",
"1+	c #565C78",
"2+	c #555C76",
"3+	c #545B75",
"4+	c #535974",
"5+	c #4F556F",
"6+	c #363C61",
"7+	c #363D61",
"8+	c #484E64",
"9+	c #555B75",
"0+	c #6A718F",
"a+	c #555A75",
"b+	c #545A75",
"c+	c #535973",
"d+	c #515771",
"e+	c #4D546E",
"f+	c #343B60",
"g+	c #353C60",
"h+	c #484D62",
"i+	c #484D63",
"j+	c #474C62",
"k+	c #545A73",
"l+	c #696E8D",
"m+	c #545973",
"n+	c #545974",
"o+	c #535A73",
"p+	c #525972",
"q+	c #525771",
"r+	c #4F566F",
"s+	c #343A5B",
"t+	c #464A60",
"u+	c #464B60",
"v+	c #474B60",
"w+	c #525871",
"x+	c #666D8B",
"y+	c #686D8B",
"z+	c #535871",
"A+	c #535872",
"B+	c #525770",
"C+	c #51566F",
"D+	c #4E556D",
"E+	c #4B526A",
"F+	c #323758",
"G+	c #45495F",
"H+	c #454A5F",
"I+	c #656B88",
"J+	c #51576F",
"K+	c #50556E",
"L+	c #4F556D",
"M+	c #4D546B",
"N+	c #4A5168",
"O+	c #2F3655",
"P+	c #303655",
"Q+	c #43485D",
"R+	c #44485D",
"S+	c #50556D",
"T+	c #636A86",
"U+	c #50556C",
"V+	c #4E546C",
"W+	c #4E536B",
"X+	c #4B5269",
"Y+	c #2E3553",
"Z+	c #43475B",
"`+	c #42485B",
" @	c #42475B",
".@	c #636984",
"+@	c #626884",
"@@	c #4F546B",
"#@	c #4E546B",
"$@	c #4D536A",
"%@	c #4C5169",
"&@	c #4A5067",
"*@	c #474D64",
"=@	c #2D3350",
"-@	c #424559",
";@	c #424659",
">@	c #4D5269",
",@	c #616681",
"'@	c #4C5168",
")@	c #4B5067",
"!@	c #464C63",
"~@	c #2B324C",
"{@	c #2C304D",
"]@	c #414458",
"^@	c #404558",
"/@	c #4C5067",
"(@	c #60657E",
"_@	c #5F647F",
":@	c #4C5166",
"<@	c #4C5066",
"[@	c #4B5066",
"}@	c #494E64",
"|@	c #454A61",
"1@	c #2A2F4A",
"2@	c #3F4355",
"3@	c #404356",
"4@	c #4B4F65",
"5@	c #5F627B",
"6@	c #5E637C",
"7@	c #4A4F65",
"8@	c #4B4E64",
"9@	c #4A4F64",
"0@	c #4B4F64",
"a@	c #4A4E64",
"b@	c #474C61",
"c@	c #43495F",
"d@	c #292D46",
"e@	c #3E4254",
"f@	c #494D63",
"g@	c #5C6279",
"h@	c #5C617A",
"i@	c #494E62",
"j@	c #484D61",
"k@	c #474B61",
"l@	c #464A5F",
"m@	c #42495C",
"n@	c #272C44",
"o@	c #272B44",
"p@	c #3C4153",
"q@	c #3C4152",
"r@	c #3D4152",
"s@	c #484C60",
"t@	c #5A5F76",
"u@	c #5B6076",
"v@	c #474C60",
"w@	c #484C61",
"x@	c #464A5E",
"y@	c #44495E",
"z@	c #262A41",
"A@	c #272A41",
"B@	c #3C3F50",
"C@	c #3C4050",
"D@	c #595F74",
"E@	c #595E74",
"F@	c #464B5E",
"G@	c #474A5F",
"H@	c #474A5E",
"I@	c #46495D",
"J@	c #45495D",
"K@	c #43475C",
"L@	c #414558",
"M@	c #25293F",
"N@	c #252940",
"O@	c #3B3E4F",
"P@	c #3B3E4E",
"Q@	c #45495C",
"R@	c #585C73",
"S@	c #585C72",
"T@	c #45485C",
"U@	c #44475B",
"V@	c #44485B",
"W@	c #424759",
"X@	c #3F4457",
"Y@	c #24283C",
"Z@	c #23273C",
"`@	c #3A3C4D",
" #	c #44475A",
".#	c #575A71",
"+#	c #575B70",
"@#	c #43475A",
"##	c #434758",
"$#	c #414457",
"%#	c #3E4355",
"&#	c #23263A",
"*#	c #22263A",
"=#	c #393C4B",
"-#	c #383C4B",
";#	c #434658",
">#	c #55596D",
",#	c #424658",
"'#	c #424557",
")#	c #414557",
"!#	c #404456",
"~#	c #3F4154",
"{#	c #212437",
"]#	c #373A49",
"^#	c #373B49",
"/#	c #414456",
"(#	c #54586B",
"_#	c #54576B",
":#	c #404455",
"<#	c #404355",
"[#	c #3F4254",
"}#	c #202235",
"|#	c #202335",
"1#	c #363948",
"2#	c #373948",
"3#	c #404354",
"4#	c #535669",
"5#	c #3F4354",
"6#	c #3F4253",
"7#	c #3E4153",
"8#	c #1E2133",
"9#	c #353746",
"0#	c #363746",
"a#	c #3E4252",
"b#	c #525465",
"c#	c #515566",
"d#	c #3E4151",
"e#	c #3E4152",
"f#	c #3F4150",
"g#	c #3E4150",
"h#	c #1D1F2F",
"i#	c #1D1F2E",
"j#	c #333642",
"k#	c #343642",
"l#	c #3C3E4E",
"m#	c #4F5262",
"n#	c #3C3F4E",
"o#	c #3D3E4E",
"p#	c #3B3E4D",
"q#	c #3A3D4E",
"r#	c #1A1D29",
"s#	c #191C2A",
"t#	c #31323E",
"u#	c #31333E",
"v#	c #393B49",
"w#	c #4C4E5C",
"x#	c #4B4E5C",
"y#	c #383B49",
"z#	c #383B48",
"A#	c #383A49",
"B#	c #171924",
"C#	c #171824",
"D#	c #2D303A",
"E#	c #2D2F3A",
"F#	c #353844",
"G#	c #474957",
"H#	c #474B56",
"I#	c #363743",
"J#	c #363744",
"K#	c #343743",
"L#	c #14151F",
"M#	c #14161F",
"N#	c #2B2C36",
"O#	c #2B2B36",
"P#	c #32343F",
"Q#	c #444652",
"R#	c #444552",
"S#	c #33343F",
"T#	c #32333E",
"U#	c #33343E",
"V#	c #12131A",
"W#	c #12131B",
"X#	c #282931",
"Y#	c #2F303A",
"Z#	c #41424C",
"`#	c #41424D",
" $	c #2F3039",
".$	c #2E3039",
". + @ @ @ @ @ @ @ @ @ @ @ @ @ @ @ @ @ @ @ @ @ @ @ @ ",
"# + @ @ @ @ @ @ @ @ @ @ @ @ @ @ @ @ @ @ @ @ @ @ @ @ ",
"$ . + @ @ @ @ @ @ @ @ @ @ @ @ @ @ @ @ @ @ @ @ @ @ @ ",
"$ . + @ @ @ @ @ @ @ @ @ @ @ @ @ @ @ @ @ @ @ @ @ @ @ ",
"$ $ . + @ @ @ @ @ @ @ @ @ @ @ @ @ @ @ @ @ @ @ @ @ @ ",
"$ % # & + @ @ @ @ @ @ @ @ @ @ @ @ @ @ @ @ @ @ @ @ @ ",
"$ % * # . + + @ @ @ @ @ @ @ @ @ @ @ @ @ @ @ @ @ @ @ ",
"$ % * = - . . + + + + + + + + + + + + + + + + + + + ",
"$ $ ; * > , ' # . . . . . . . . . . . . . . . . . . ",
"$ $ % * > , ) ! ~ { ] ^ / ( _ : < < [ } } } | [ 1 2 ",
"$ $ % * 3 4 5 6 7 ~ 8 9 0 a a b c d e e e e f g h i ",
"$ $ % * = > , j 6 k l m n o p q r s t t t t u v w x ",
"$ $ $ % * y - 4 5 z A B C D E F G H I I I I J K L M ",
"$ $ $ % * * y N - - O P Q R S T U V W T T X Y Z `  .",
"$ $ $ $ % % * * 3 3 ..+.@.#.$.%.&.*.=.-.=.%.;.>.,.T ",
"$ $ $ $ $ % % ; * * '.).!.!.!.~.{.].^.^.^./.(._.:.<.",
"$ $ $ $ $ $ $ % % % [.}.|.|.|.1.2.3.4.5.5.5.6.7.8.9.",
"$ $ $ $ $ $ $ $ $ $ [.[.0.0.a.b.c.d.e.b.b.f.g.h.~.i.",
"$ $ $ $ $ $ $ $ $ $ j.k.l.0.0.m.c.n.o.o.m.p.q.r.s.t.",
"$ $ $ $ $ $ $ $ $ $ u.u.v.w.x.y.z.A.m.B.y.C.D.E.F.G.",
"$ $ $ $ $ $ $ $ $ $ H.I.J.J.K.D.L.M.N.C.O.P.Q.R.S.T.",
"$ $ $ $ $ $ $ $ $ $ U.U.V.V.V.W.X.X.W.Y.W.W.Z.`. +.+",
"$ $ $ $ $ $ $ $ $ $ ++@+#+$+$+%+&+*+%+Z.=+-+;+>+,+'+",
"$ $ $ $ $ $ $ $ $ $ )+)+!+!+!+;+~+{+]+;+;+;+^+/+(+_+",
"$ $ $ $ $ $ $ $ $ $ :+:+<+[+<+}+|+|+1+}+}+1+2+3+4+5+",
"$ $ $ $ $ $ $ $ $ $ 6+7+8+8+8+9+0+0+a+9+a+9+b+c+d+e+",
"$ $ $ $ $ $ $ $ $ $ f+g+h+i+j+k+l+l+m+n+n+o+p+q+r+l.",
"$ $ $ $ $ $ $ $ $ $ s+s+t+u+v+w+x+y+w+z+w+A+B+C+D+E+",
"$ $ $ $ $ $ $ $ $ $ F+F+G+H+G+C+I+I+C+C+J+J+K+L+M+N+",
"$ $ $ $ $ $ $ $ $ $ O+P+Q+R+R+S+T+T+S+S+U+S+V+W+X+<+",
"$ $ $ $ $ $ $ $ $ $ Y+Y+Z+`+ @W+.@+@W+W+@@#@$@%@&@*@",
"$ $ $ $ $ $ $ $ $ $ =@=@-@;@;@>@,@,@>@>@>@>@'@)@<+!@",
"$ $ $ $ $ $ $ $ $ $ ~@{@]@^@^@/@(@_@:@<@[@/@[@}@8+|@",
"$ $ $ $ $ $ $ $ $ $ 1@1@2@3@3@4@5@6@7@8@9@0@a@h+b@c@",
"$ $ $ $ $ $ $ $ $ $ d@d@e@e@e@f@g@h@f@i@i@f@j@k@l@m@",
"$ $ $ $ $ $ $ $ $ $ n@o@p@q@r@s@t@u@v@b@w@v@v+x@y@ @",
"$ $ $ $ $ $ $ $ $ $ z@A@B@B@C@x@D@E@x@F@G@H@I@J@K@L@",
"$ $ $ $ $ $ $ $ $ $ M@N@O@P@P@Q@R@S@T@Q@Q@J@U@V@W@X@",
"$ $ $ $ $ $ $ $ $ $ Y@Z@`@`@`@ #.#+# #@# #U@W@##$#%#",
"$ $ $ $ $ $ $ $ $ $ &#*#=#-#-#;#>#>#;@,#,#,#'#)#!#~#",
"$ $ $ $ $ $ $ $ $ $ {#{#]#^#^#/#(#_#/#/#/#/#:#<#[#r@",
"$ $ $ $ $ $ $ $ $ $ }#|#1#2#1#3#4#4#3#3#3#3#5#6#7#r@",
"$ $ $ $ $ $ $ $ $ $ 8#8#9#9#0#a#b#c#d#e#e#e#a#f#g#C@",
"$ $ $ $ $ $ $ $ $ $ h#i#j#j#k#l#m#m#n#n#n#n#n#o#p#q#",
"$ $ $ $ $ $ $ $ $ $ r#s#t#u#t#v#w#x#v#v#v#y#v#v#z#A#",
"$ $ $ $ $ $ $ $ $ $ B#C#D#E#E#F#G#H#I#J#J#J#J#F#I#K#",
"$ $ $ $ $ $ $ $ $ $ L#M#N#O#N#P#Q#R#S#S#P#T#S#U#P#P#",
"$ $ $ $ $ $ $ $ $ $ V#W#X#X#X#Y#Z#`# $ $Y#Y#.$Y#Y#Y#"};
