/* XPM */
static char * bottom__separator_xpm[] = {
"15 48 175 2",
"  	c None",
". 	c #154D7C",
"+ 	c #0D3557",
"@ 	c #C1EFEC",
"# 	c #25334A",
"$ 	c #24334A",
"% 	c #25334B",
"& 	c #24334B",
"* 	c #2C3A53",
"= 	c #35415C",
"- 	c #35415D",
"; 	c #35425C",
"> 	c #3E4A66",
", 	c #475170",
"' 	c #47516F",
") 	c #47506F",
"! 	c #48516F",
"~ 	c #4E5876",
"{ 	c #4E5877",
"] 	c #4E5675",
"^ 	c #4F5775",
"/ 	c #4F5675",
"( 	c #4F5776",
"_ 	c #4E5775",
": 	c #4E5777",
"< 	c #545D7C",
"[ 	c #545C7B",
"} 	c #535C7B",
"| 	c #535C7C",
"1 	c #545D7D",
"2 	c #535D7D",
"3 	c #545C7C",
"4 	c #575F7E",
"5 	c #575F7F",
"6 	c #575E7F",
"7 	c #575E7E",
"8 	c #585E7F",
"9 	c #596080",
"0 	c #586080",
"a 	c #59607F",
"b 	c #58607F",
"c 	c #586180",
"d 	c #596180",
"e 	c #59617F",
"f 	c #5A617F",
"g 	c #5A607F",
"h 	c #59607D",
"i 	c #595F7E",
"j 	c #59607E",
"k 	c #58607E",
"l 	c #585F7D",
"m 	c #585F7C",
"n 	c #585E7C",
"o 	c #585E7A",
"p 	c #575E7A",
"q 	c #575E7B",
"r 	c #585E7B",
"s 	c #565D79",
"t 	c #575D79",
"u 	c #575E79",
"v 	c #575C78",
"w 	c #575C77",
"x 	c #565C78",
"y 	c #575D77",
"z 	c #565C77",
"A 	c #565D78",
"B 	c #555B75",
"C 	c #555A76",
"D 	c #555B76",
"E 	c #535973",
"F 	c #545973",
"G 	c #545A73",
"H 	c #535974",
"I 	c #525871",
"J 	c #525872",
"K 	c #535771",
"L 	c #525771",
"M 	c #535872",
"N 	c #535871",
"O 	c #51566F",
"P 	c #515670",
"Q 	c #51576F",
"R 	c #4F546D",
"S 	c #50556D",
"T 	c #4F556D",
"U 	c #50546D",
"V 	c #4E546B",
"W 	c #4F546B",
"X 	c #4E536B",
"Y 	c #4F536B",
"Z 	c #4F546A",
"` 	c #4E536A",
" .	c #4D5169",
"..	c #4D5269",
"+.	c #4D5168",
"@.	c #4D5268",
"#.	c #4B5166",
"$.	c #4B5067",
"%.	c #4C5066",
"&.	c #4C5067",
"*.	c #4C5167",
"=.	c #4C5166",
"-.	c #4A4E64",
";.	c #4B4F64",
">.	c #4A4E65",
",.	c #4A4F65",
"'.	c #4A4F64",
").	c #4B4F65",
"!.	c #494E62",
"~.	c #494D62",
"{.	c #494E63",
"].	c #494D63",
"^.	c #474C61",
"/.	c #484C61",
"(.	c #484C60",
"_.	c #484B61",
":.	c #484B60",
"<.	c #474C60",
"[.	c #474A5E",
"}.	c #464B5E",
"|.	c #474B5E",
"1.	c #464A5E",
"2.	c #464B5F",
"3.	c #464A5F",
"4.	c #474B5F",
"5.	c #45495C",
"6.	c #45495D",
"7.	c #43475B",
"8.	c #44475A",
"9.	c #43475A",
"0.	c #43485A",
"a.	c #44475B",
"b.	c #44485A",
"c.	c #424658",
"d.	c #434658",
"e.	c #424558",
"f.	c #434558",
"g.	c #434659",
"h.	c #414456",
"i.	c #414556",
"j.	c #414557",
"k.	c #404354",
"l.	c #404353",
"m.	c #404254",
"n.	c #3F4353",
"o.	c #3F4354",
"p.	c #3E4252",
"q.	c #3F4152",
"r.	c #3E4251",
"s.	c #3E4152",
"t.	c #3F4252",
"u.	c #3F4151",
"v.	c #3C3F4E",
"w.	c #3C3F4F",
"x.	c #3D3F4E",
"y.	c #3C3E4E",
"z.	c #393B49",
"A.	c #383B49",
"B.	c #393C49",
"C.	c #393C4A",
"D.	c #383B4A",
"E.	c #393B4A",
"F.	c #353744",
"G.	c #363744",
"H.	c #353844",
"I.	c #363844",
"J.	c #363843",
"K.	c #32343F",
"L.	c #33333F",
"M.	c #33343F",
"N.	c #32343E",
"O.	c #2F303A",
"P.	c #2E3039",
"Q.	c #2F3039",
"R.	c #2E303A",
". . . . . . . . . . . . . . . ",
". . . . . . . . . . . . . . . ",
". . . . . . . . . . . . . . . ",
". . . . . . . . . . . . . . . ",
". . . . . . . . . . . . . . . ",
". . . . . . . . . . . . . . . ",
". . . . . . . . . . . . . . . ",
"+ + + + + + + + + + + + + + + ",
"@ @ @ @ @ @ @ @ @ @ @ @ @ @ @ ",
"# # # $ % # $ $ # # & # $ # $ ",
"* * * * * * * * * * * * * * * ",
"= = = - = ; = = - ; = ; = = ; ",
"> > > > > > > > > > > > > > > ",
", ' ' ) ) ' ' ' ' ! , , ' ' ' ",
"~ { ] ^ / ( _ ~ : ~ : : ~ : { ",
"< < [ } [ } [ | 1 < < 2 < 3 < ",
"4 5 6 6 6 7 6 6 8 5 5 4 4 5 5 ",
"9 0 a b a c b a a b d 0 9 9 9 ",
"e e d d a e 9 9 9 9 9 e e d a ",
"e a a f e a g a a f a a g f a ",
"h i j h k h l h h k i j i h j ",
"m m m m m m m m m m n m m m m ",
"o o o o o p q q p p r o r r r ",
"s t u t t t t u t t t t u u u ",
"v w x v x w y z v A w x x x z ",
"B C D B B B D B D B D D B B C ",
"E E E F F G E G F G F H E F F ",
"I I J K I L M I I I N I I M I ",
"O P Q O O O P Q O O O O O Q Q ",
"R S T S R S S U T S S T T S S ",
"V W V X V V X Y X V Z X V ` V ",
" ...+.@...@.@...@.............",
"#.$.%.&.&.$.*.%.&.&.$.&.*.=.#.",
"-.;.>.-.,.,.'.'.).,.'.>.,.,.).",
"!.~.{.~.~.~.!.{.{.~.].!.!.!.~.",
"^././.^.(.^._.(.^.^.^.:.(.<./.",
"[.}.|.1.|.}.[.}.2.}.2.|.3.4.}.",
"5.5.5.5.5.6.5.5.5.5.5.5.6.6.5.",
"7.8.9.0.a.b.8.8.8.8.b.8.8.9.0.",
"c.c.c.c.d.e.f.d.g.d.g.c.d.c.d.",
"h.h.h.h.i.h.h.i.h.j.h.i.i.i.h.",
"k.l.k.k.k.m.n.k.k.k.k.k.k.o.o.",
"p.q.p.r.s.t.u.p.u.p.r.s.p.s.s.",
"v.v.w.v.w.v.x.v.v.w.v.v.w.y.v.",
"z.z.z.z.z.z.A.B.C.z.z.z.z.D.E.",
"F.G.H.F.H.I.H.G.G.J.H.H.I.G.I.",
"K.L.K.M.K.N.M.K.K.M.K.K.K.K.L.",
"O.O.P.Q.O.O.O.Q.Q.O.P.O.O.R.O."};
