/* XPM */
static char * bottom__margin_xpm[] = {
"10 10 4 1",
" 	c None",
".	c #154D7C",
"+	c #0D3557",
"@	c #C1EFEC",
"..........",
"..........",
"..........",
"..........",
"..........",
"..........",
"..........",
"..........",
"++++++++++",
"@@@@@@@@@@"};
