/* XPM */
static char * chorus__voice_4_active_xpm[] = {
"31 25 207 2",
"  	c None",
". 	c #8290A5",
"+ 	c #818FA4",
"@ 	c #818EA4",
"# 	c #808EA3",
"$ 	c #4D576C",
"% 	c #616C85",
"& 	c #76839B",
"* 	c #77839B",
"= 	c #77849C",
"- 	c #78849C",
"; 	c #4B546C",
"> 	c #5D6983",
", 	c #727F9A",
"' 	c #727E99",
") 	c #727F99",
"! 	c #717E99",
"~ 	c #73809A",
"{ 	c #75829B",
"] 	c #76829C",
"^ 	c #77849D",
"/ 	c #77839C",
"( 	c #74819B",
"_ 	c #738099",
": 	c #727E9A",
"< 	c #717F99",
"[ 	c #808DA3",
"} 	c #5A6580",
"| 	c #6E7B96",
"1 	c #8591A8",
"2 	c #8493A8",
"3 	c #8593A7",
"4 	c #8491A8",
"5 	c #8694A9",
"6 	c #8796AB",
"7 	c #8A98AC",
"8 	c #8D99AE",
"9 	c #8E99AF",
"0 	c #8C99AE",
"a 	c #8C97AD",
"b 	c #8995AB",
"c 	c #8793A9",
"d 	c #8591A7",
"e 	c #8491A7",
"f 	c #8593A8",
"g 	c #7F8DA2",
"h 	c #505B75",
"i 	c #63708B",
"j 	c #79889F",
"k 	c #7988A1",
"l 	c #7A89A0",
"m 	c #7D8BA2",
"n 	c #818DA5",
"o 	c #8997AA",
"p 	c #A4AEBD",
"q 	c #AEB7C5",
"r 	c #99A5B6",
"s 	c #8595A8",
"t 	c #8290A6",
"u 	c #7F8CA3",
"v 	c #7B8AA1",
"w 	c #48536B",
"x 	c #596880",
"y 	c #6C7C96",
"z 	c #6C7C97",
"A 	c #6C7E96",
"B 	c #6C7E97",
"C 	c #6D7F97",
"D 	c #6F7F98",
"E 	c #75849B",
"F 	c #7B87A0",
"G 	c #828EA5",
"H 	c #9EA8B9",
"I 	c #FCFCFC",
"J 	c #FFFFFF",
"K 	c #BFC6D0",
"L 	c #7C8AA3",
"M 	c #76869C",
"N 	c #70809B",
"O 	c #708096",
"P 	c #6E7E96",
"Q 	c #404C62",
"R 	c #4F5D77",
"S 	c #62728E",
"T 	c #61748D",
"U 	c #63738E",
"V 	c #667691",
"W 	c #6D7B96",
"X 	c #76849B",
"Y 	c #E8EAEE",
"Z 	c #E9ECEF",
"` 	c #C0C7D1",
" .	c #8592A7",
"..	c #7A889E",
"+.	c #717F98",
"@.	c #697893",
"#.	c #647490",
"$.	c #62728D",
"%.	c #61728E",
"&.	c #7E8CA1",
"*.	c #3C485D",
"=.	c #4B5972",
"-.	c #5C6C89",
";.	c #5D6E89",
">.	c #5C6E89",
",.	c #5E708A",
"'.	c #63718D",
").	c #697A93",
"!.	c #74839A",
"~.	c #B8C0CB",
"{.	c #C3C9D3",
"].	c #8795A9",
"^.	c #7A899E",
"/.	c #657690",
"(.	c #5F718B",
"_.	c #5D6F89",
":.	c #6A7A93",
"<.	c #8F9BAE",
"[.	c #F8F9FA",
"}.	c #A5AEBD",
"|.	c #B8BFCB",
"1.	c #C5CAD4",
"2.	c #8A97A9",
"3.	c #7D8B9F",
"4.	c #707F97",
"5.	c #677690",
"6.	c #60718C",
"7.	c #61738C",
"8.	c #697992",
"9.	c #BEC6D0",
"0.	c #F3F5F7",
"a.	c #DADFE4",
"b.	c #EBEEF1",
"c.	c #AFB8C5",
"d.	c #79889E",
"e.	c #66768F",
"f.	c #7E8BA1",
"g.	c #3C475D",
"h.	c #5E7089",
"i.	c #61728C",
"j.	c #667690",
"k.	c #A4ADBC",
"l.	c #D2D7DE",
"m.	c #D5DAE1",
"n.	c #E4E6EB",
"o.	c #E9EBEF",
"p.	c #A8B2C0",
"q.	c #6A7A92",
"r.	c #64728E",
"s.	c #60718A",
"t.	c #7D8BA1",
"u.	c #4B5872",
"v.	c #5E708B",
"w.	c #707E97",
"x.	c #A5AFBD",
"y.	c #B6BDC9",
"z.	c #75849A",
"A.	c #6D7D95",
"B.	c #667790",
"C.	c #60728C",
"D.	c #5D6F8A",
"E.	c #354054",
"F.	c #435068",
"G.	c #53637E",
"H.	c #54637E",
"I.	c #53627E",
"J.	c #556580",
"K.	c #576781",
"L.	c #5A6A83",
"M.	c #5F6E87",
"N.	c #64728B",
"O.	c #68768E",
"P.	c #69768E",
"Q.	c #67748D",
"R.	c #62718A",
"S.	c #5E6B85",
"T.	c #596982",
"U.	c #566680",
"V.	c #54637F",
"W.	c #7D8AA0",
"X.	c #303A4C",
"Y.	c #4D5B74",
"Z.	c #4F5C75",
"`.	c #525F77",
" +	c #556179",
".+	c #56647B",
"++	c #57647B",
"@+	c #56637B",
"#+	c #546178",
"$+	c #515D76",
"%+	c #4E5C75",
"&+	c #4C5A73",
"*+	c #4E5B74",
"=+	c #505D75",
"-+	c #4D5A73",
";+	c #7C8A9F",
">+	c #7D8BA0",
",+	c #7E8BA0",
"'+	c #7D8A9F",
")+	c #7C899F",
"!+	c #7C899E",
"~+	c #9DA7B6",
"{+	c #7B899D",
"]+	c #7B889D",
"^+	c #7A879C",
"/+	c #7A869B",
"(+	c #79869B",
". . . . . . . . . . . . . . . . . . . . . . . . . . . . . . . ",
". . . . . . . . . . . . . . . . . . . . . . . . . . . . . . . ",
"+ + + + + + + + + + + + + + + + + + + + + + + + + + + + + + + ",
"+ + + + + + + + + + + + + + + + + + + + + + + + + + + + + + + ",
"@ @ @ @ @ @ @ @ @ @ @ @ @ @ @ @ @ @ @ @ @ @ @ @ @ @ @ @ @ @ @ ",
"# # $ % & & & & & & & & * = = - = * & & & & & & & % $ # # # # ",
"# # ; > , ' ) ) , ! ~ ~ { ] = ^ / { ( _ : ) ) < ) > ; # # # # ",
"[ [ } | 1 2 3 3 4 4 5 6 7 8 8 9 0 a b c d 3 e d f | } [ [ [ [ ",
"g g h i j j j k j l m n 3 o p q r s t u v j j j j i h g g g g ",
"g g w x y z A B C D E F G H I J K e L M N O P B y x w g g g g ",
"g g Q R S T S S U V W X G Y Z J `  ...+.@.#.$.$.%.R Q g g g g ",
"&.&.*.=.-.;.>.>.,.'.).!.` Z ~.J {.].^.P /.(._.>.>.=.*.&.&.&.&.",
"&.&.*.=.>.>.>.-.,.U :.<.[.}.|.J 1.2.3.4.5.6._.>.>.=.*.&.&.&.&.",
"&.&.*.=.>.>.>.>.,.7.8.9.0.a.Y J b.c.d.P e.(._.>.>.=.*.&.&.&.&.",
"f.f.g.=.>.>.-.>.h.i.j.k.l.m.n.J o.p.!.q.r.s._.>.>.=.g.f.f.f.f.",
"t.t.*.u.>.>.>.;.>.v.$.8.w.= x.J y.z.A.B.C.D.;.>.>.u.*.t.t.t.t.",
"t.t.E.F.G.G.G.H.I.J.K.L.M.N.O.P.Q.R.S.T.U.V.I.G.G.F.E.t.t.t.t.",
"W.W.X.*.=.=.=.=.=.=.Y.Z.`. +.+++@+#+$+%+&+=.=.=.=.*.X.W.W.W.W.",
"W.W.X.*.=.=.=.=.=.=.=.&+*+Z.=+$+=+%+-+&+=.=.=.=.=.*.X.W.W.W.W.",
";+;+;+;+;+;+;+;+;+;+;+;+;+>+>+,+>+'+;+;+;+;+;+;+;+;+;+;+;+;+;+",
")+)+)+)+)+)+)+)+)+)+)+)+)+)+)+)+)+)+)+)+)+)+)+)+)+)+)+)+)+)+)+",
"!+!+!+!+!+!+!+!+!+!+!+!+!+!+!+!+!+!+!+!+!+!+!+!+!+!+!+!+!+!+!+",
"~+~+~+~+~+~+~+~+~+~+~+~+~+~+~+~+~+~+~+~+~+~+~+~+~+~+~+~+~+~+~+",
"{+{+{+{+{+{+{+{+{+{+{+{+{+{+{+{+{+{+{+{+{+{+{+{+{+{+{+{+{+{+{+",
"]+]+]+]+]+]+]+]+]+]+]+]+]+]+]+]+]+]+]+]+]+]+]+^+/+/+(+(+(+(+/+"};
