/* XPM */
static char * chorus__voice_3_xpm[] = {
"28 25 113 2",
"  	c None",
". 	c #8290A5",
"+ 	c #818FA4",
"@ 	c #818EA4",
"# 	c #808EA3",
"$ 	c #384154",
"% 	c #4A5468",
"& 	c #5C667A",
"* 	c #363F54",
"= 	c #475166",
"- 	c #596379",
"; 	c #596278",
"> 	c #596378",
", 	c #586278",
"' 	c #596279",
") 	c #586378",
"! 	c #808DA3",
"~ 	c #444E64",
"{ 	c #556076",
"] 	c #687286",
"^ 	c #677386",
"/ 	c #687385",
"( 	c #677286",
"_ 	c #687386",
": 	c #687285",
"< 	c #677285",
"[ 	c #7F8DA2",
"} 	c #3B455B",
"| 	c #4C576D",
"1 	c #5E6A7E",
"2 	c #5E6A7F",
"3 	c #5E697E",
"4 	c #485161",
"5 	c #39414D",
"6 	c #383F4B",
"7 	c #454E5D",
"8 	c #5C697D",
"9 	c #5D6A7E",
"0 	c #333E53",
"a 	c #435064",
"b 	c #546176",
"c 	c #546177",
"d 	c #546276",
"e 	c #546277",
"f 	c #556276",
"g 	c #535F75",
"h 	c #000000",
"i 	c #090A0D",
"j 	c #030405",
"k 	c #1C2026",
"l 	c #2B374B",
"m 	c #3A475D",
"n 	c #4B596F",
"o 	c #4A5A6E",
"p 	c #4B596E",
"q 	c #4A586E",
"r 	c #465368",
"s 	c #030304",
"t 	c #4A596F",
"u 	c #7E8CA1",
"v 	c #273347",
"w 	c #364359",
"x 	c #46546B",
"y 	c #47556B",
"z 	c #46556B",
"A 	c #47546B",
"B 	c #445268",
"C 	c #2C3644",
"D 	c #222934",
"E 	c #1F2530",
"F 	c #414F64",
"G 	c #0A0C0F",
"H 	c #030305",
"I 	c #020304",
"J 	c #262E3A",
"K 	c #435267",
"L 	c #0A0D10",
"M 	c #404E62",
"N 	c #7E8BA1",
"O 	c #273247",
"P 	c #384456",
"Q 	c #2D3746",
"R 	c #3A4659",
"S 	c #333E4E",
"T 	c #050608",
"U 	c #000101",
"V 	c #414F63",
"W 	c #7D8BA1",
"X 	c #364259",
"Y 	c #020203",
"Z 	c #050607",
"` 	c #2A3341",
" .	c #202B3F",
"..	c #2E3B50",
"+.	c #3E4C62",
"@.	c #3F4C62",
"#.	c #3E4B62",
"$.	c #3D4A60",
"%.	c #364356",
"&.	c #374357",
"*.	c #3D4B61",
"=.	c #3F4B62",
"-.	c #7D8AA0",
";.	c #1A2537",
">.	c #7C8A9F",
",.	c #7C899F",
"'.	c #7C899E",
").	c #9DA7B6",
"!.	c #7B899D",
"~.	c #7B889D",
"{.	c #7A879C",
"].	c #7A869B",
"^.	c #79869B",
". . . . . . . . . . . . . . . . . . . . . . . . . . . . ",
". . . . . . . . . . . . . . . . . . . . . . . . . . . . ",
"+ + + + + + + + + + + + + + + + + + + + + + + + + + + + ",
"+ + + + + + + + + + + + + + + + + + + + + + + + + + + + ",
"@ @ @ @ @ @ @ @ @ @ @ @ @ @ @ @ @ @ @ @ @ @ @ @ @ @ @ @ ",
"# # $ % & & & & & & & & & & & & & & & & & & & & & % $ # ",
"# # * = - ; > > - , - > > ; > - > > - > ' > > ) > = * # ",
"! ! ~ { ] ^ / / ( ( _ ^ ^ ] ( ( ( ] ] : : / < : _ { ~ ! ",
"[ [ } | 1 1 1 2 1 1 1 3 4 5 6 7 8 9 1 1 1 1 1 1 1 | } [ ",
"[ [ 0 a b c d e e b f g h i j h k b c d c f f e b a 0 [ ",
"[ [ l m n o n n p n n q a n r s j n p n n n p p t m l [ ",
"u u v w x y z z z A z z B C D h E z z z z z z z z w v u ",
"u u v w z z z x z z z z F G H I J z y z y z z z z w v u ",
"u u v w z z z z z z z z z z K L h M z z y z z z z w v u ",
"N N O w z z x z z z z P Q R S T U V z z x y z z z w O N ",
"W W v X z z z y z z x S Y h h Z ` y z z z z y z z X v W ",
"W W  ...+.+.+.@.#.+.+.+.$.%.&.*.#.+.=.+.+.#.#.+.+... .W ",
"-.-.;.v w w w w w w w w w w w w w w w w w w w w w v ;.-.",
"-.-.;.v w w w w w w w w w w w w w w w w w w w w w v ;.-.",
">.>.>.>.>.>.>.>.>.>.>.>.>.>.>.>.>.>.>.>.>.>.>.>.>.>.>.>.",
",.,.,.,.,.,.,.,.,.,.,.,.,.,.,.,.,.,.,.,.,.,.,.,.,.,.,.,.",
"'.'.'.'.'.'.'.'.'.'.'.'.'.'.'.'.'.'.'.'.'.'.'.'.'.'.'.'.",
").).).).).).).).).).).).).).).).).).).).).).).).).).).).",
"!.!.!.!.!.!.!.!.!.!.!.!.!.!.!.!.!.!.!.!.!.!.!.!.!.!.!.!.",
"~.~.~.~.{.].].^.^.^.^.].].{.~.~.~.~.~.~.~.~.~.~.~.~.~.~."};
