/* XPM */
static char * chorus__knob_pos_xpm[] = {
"5 5 4 1",
" 	c None",
".	c #56595E",
"+	c #272727",
"@	c #000000",
" ... ",
".+@+.",
".@@@.",
".+@+.",
" ... "};
