/* XPM */
static char * chorus__voice_lfo_separator_xpm[] = {
"14 25 28 1",
" 	c None",
".	c #8290A5",
"+	c #A1ACBB",
"@	c #818FA4",
"#	c #A1ABBB",
"$	c #818EA4",
"%	c #A1AABB",
"&	c #808EA3",
"*	c #A0AABA",
"=	c #808DA3",
"-	c #7F8DA2",
";	c #9FAAB9",
">	c #7E8CA1",
",	c #9EA9B8",
"'	c #7E8BA1",
")	c #9EA8B8",
"!	c #7D8BA1",
"~	c #7D8AA0",
"{	c #9EA7B8",
"]	c #7C8A9F",
"^	c #9DA7B7",
"/	c #7C899F",
"(	c #7C899E",
"_	c #9DA7B6",
":	c #7B899D",
"<	c #7A869B",
"[	c #7A879C",
"}	c #7B889D",
"...+..........",
"...+..........",
"@@@#@@@@@@@@@@",
"@@@#@@@@@@@@@@",
"$$$%$$$$$$$$$$",
"&&&*&&&&&&&&&&",
"&&&*&&&&&&&&&&",
"===*==========",
"---;----------",
"---;----------",
"---;----------",
">>>,>>>>>>>>>>",
">>>,>>>>>>>>>>",
">>>,>>>>>>>>>>",
"''')''''''''''",
"!!!)!!!!!!!!!!",
"!!!)!!!!!!!!!!",
"~~~{~~~~~~~~~~",
"~~~{~~~~~~~~~~",
"]]]^]]]]]]]]]]",
"///^//////////",
"(((_((((((((((",
"____((((((((((",
"::::::::::::::",
"<[}}}}}}}}}}}}"};
