/* XPM */
static char * chorus__voice_1_active_xpm[] = {
"33 25 187 2",
"  	c None",
". 	c #8290A5",
"+ 	c #818FA4",
"@ 	c #818EA4",
"# 	c #808EA3",
"$ 	c #4D576C",
"% 	c #616C85",
"& 	c #76839B",
"* 	c #77839B",
"= 	c #77849C",
"- 	c #4B546C",
"; 	c #5D6983",
"> 	c #727F9A",
", 	c #727E99",
"' 	c #727F99",
") 	c #73809B",
"! 	c #76829B",
"~ 	c #77839D",
"{ 	c #77849D",
"] 	c #77839E",
"^ 	c #73809A",
"/ 	c #727E9A",
"( 	c #717F99",
"_ 	c #808DA3",
": 	c #5A6580",
"< 	c #6E7B96",
"[ 	c #8591A8",
"} 	c #8493A8",
"| 	c #8593A7",
"1 	c #8491A8",
"2 	c #8592A9",
"3 	c #8997AC",
"4 	c #8C9AAD",
"5 	c #8D9BAF",
"6 	c #919BB0",
"7 	c #909BB0",
"8 	c #8D99AF",
"9 	c #8C98AD",
"0 	c #8995AC",
"a 	c #8692A9",
"b 	c #8591A7",
"c 	c #8491A7",
"d 	c #8593A8",
"e 	c #7F8DA2",
"f 	c #505B75",
"g 	c #63708B",
"h 	c #79889F",
"i 	c #7988A1",
"j 	c #7C89A0",
"k 	c #808CA3",
"l 	c #8490A6",
"m 	c #8895AA",
"n 	c #919EB1",
"o 	c #A8B2C1",
"p 	c #B1BAC6",
"q 	c #A2ACBC",
"r 	c #8796AA",
"s 	c #8290A6",
"t 	c #48536B",
"u 	c #596880",
"v 	c #6C7C96",
"w 	c #6C7C97",
"x 	c #6C7E96",
"y 	c #6D7F97",
"z 	c #70829B",
"A 	c #76869D",
"B 	c #8B95AB",
"C 	c #EFF0F4",
"D 	c #FFFFFF",
"E 	c #D3D8E0",
"F 	c #8B97AA",
"G 	c #808DA4",
"H 	c #76869E",
"I 	c #70829A",
"J 	c #6D7D97",
"K 	c #6E7E96",
"L 	c #6C7E97",
"M 	c #404C62",
"N 	c #4F5D77",
"O 	c #62728E",
"P 	c #61748D",
"Q 	c #65758F",
"R 	c #6B7993",
"S 	c #728099",
"T 	c #7F8CA3",
"U 	c #8C99AC",
"V 	c #AEB5C4",
"W 	c #B5BCC9",
"X 	c #D5DAE1",
"Y 	c #8C99AB",
"Z 	c #6B7994",
"` 	c #62728D",
" .	c #61728E",
"..	c #7E8CA1",
"+.	c #3C485D",
"@.	c #4B5972",
"#.	c #5C6C89",
"$.	c #5D6E89",
"%.	c #5C6E89",
"&.	c #5F718C",
"*.	c #667790",
"=.	c #737F98",
"-.	c #818FA3",
";.	c #919DAF",
">.	c #A1AABA",
",.	c #B7BFCA",
"'.	c #DADDE4",
").	c #919CAF",
"!.	c #728198",
"~.	c #5F6F8C",
"{.	c #687792",
"].	c #74839A",
"^.	c #8492A7",
"/.	c #97A2B3",
"(.	c #A6AFBD",
"_.	c #BCC3CE",
":.	c #DBDFE5",
"<.	c #75839A",
"[.	c #60718C",
"}.	c #677791",
"|.	c #728299",
"1.	c #8390A5",
"2.	c #94A0B1",
"3.	c #A3ACBB",
"4.	c #B9C1CC",
"5.	c #DADEE4",
"6.	c #7E8BA1",
"7.	c #3C475D",
"8.	c #5F718B",
"9.	c #65768F",
"0.	c #6F7E96",
"a.	c #7D8BA0",
"b.	c #8B98AB",
"c.	c #B0B9C6",
"d.	c #C7CDD6",
"e.	c #E2E5E9",
"f.	c #ADB6C4",
"g.	c #8795A7",
"h.	c #5F6F8B",
"i.	c #7D8BA1",
"j.	c #4B5872",
"k.	c #5F7089",
"l.	c #63738E",
"m.	c #697A93",
"n.	c #75829A",
"o.	c #808EA4",
"p.	c #EAECF0",
"q.	c #9AA4B5",
"r.	c #5E7089",
"s.	c #354054",
"t.	c #435068",
"u.	c #53637E",
"v.	c #54637E",
"w.	c #586580",
"x.	c #5C6B84",
"y.	c #64728A",
"z.	c #6C7991",
"A.	c #748096",
"B.	c #78859A",
"C.	c #6C7891",
"D.	c #5D6A84",
"E.	c #586680",
"F.	c #53627E",
"G.	c #7D8AA0",
"H.	c #303A4C",
"I.	c #4D5B74",
"J.	c #505E77",
"K.	c #556079",
"L.	c #5A667C",
"M.	c #5E6A81",
"N.	c #616E83",
"O.	c #4F5B74",
"P.	c #526077",
"Q.	c #556279",
"R.	c #7C8A9F",
"S.	c #7D8A9F",
"T.	c #7E8BA0",
"U.	c #7F8DA1",
"V.	c #7C899F",
"W.	c #7D899F",
"X.	c #7C899E",
"Y.	c #9DA7B6",
"Z.	c #7B899D",
"`.	c #7B889D",
" +	c #7A879C",
".+	c #7A869B",
"++	c #79869B",
". . . . . . . . . . . . . . . . . . . . . . . . . . . . . . . . . ",
". . . . . . . . . . . . . . . . . . . . . . . . . . . . . . . . . ",
"+ + + + + + + + + + + + + + + + + + + + + + + + + + + + + + + + + ",
"+ + + + + + + + + + + + + + + + + + + + + + + + + + + + + + + + + ",
"@ @ @ @ @ @ @ @ @ @ @ @ @ @ @ @ @ @ @ @ @ @ @ @ @ @ @ @ @ @ @ @ @ ",
"# # # # # # $ % & & & & & & & * = = = = * & & & & & & & & % $ # # ",
"# # # # # # - ; > , ' ' > ' ) ! ~ ~ { ] ! ^ ^ ' / ' ' ( ' ; - # # ",
"_ _ _ _ _ _ : < [ } | | 1 2 3 4 5 6 7 8 9 0 a b b | c b d < : _ _ ",
"e e e e e e f g h h h i j k l m n o p q r s k j h h h h h g f e e ",
"e e e e e e t u v w x y z A + B C D D E F G H I J K K L v u t e e ",
"e e e e e e M N O P O Q R S T U V W D X Y T S Z Q O ` `  .N M e e ",
"............+.@.#.$.%.&.*.=.-.;.>.,.D '.).-.!.*.&.%.%.%.%.@.+.....",
"............+.@.%.%.%.~.{.].^./.(._.D :./.^.<.{.[.%.%.%.%.@.+.....",
"............+.@.%.%.%.&.}.|.1.2.3.4.D 5.2.1.|.}.[.%.%.%.%.@.+.....",
"6.6.6.6.6.6.7.@.%.%.#.8.9.0.a.b.c.d.D e.f.g.0.9.h.$.%.%.%.@.7.6.6.",
"i.i.i.i.i.i.+.j.%.%.%.k.l.m.n.o.p.D D D D q.m.l.r.%.$.%.%.j.+.i.i.",
"i.i.i.i.i.i.s.t.u.u.u.v.w.x.y.z.A.B.B.A.C.y.D.E.u.F.F.u.u.t.s.i.i.",
"G.G.G.G.G.G.H.+.@.@.@.@.I.J.K.L.M.N.N.M.L.K.J.I.@.@.@.@.@.+.H.G.G.",
"G.G.G.G.G.G.H.+.@.@.@.@.@.I.O.P.K.Q.Q.K.P.O.I.@.@.@.@.@.@.+.H.G.G.",
"R.R.R.R.R.R.R.R.R.R.R.R.R.R.S.T.U.U.U.U.T.S.R.R.R.R.R.R.R.R.R.R.R.",
"V.V.V.V.V.V.V.V.V.V.V.V.V.V.V.V.W.W.W.W.V.V.V.V.V.V.V.V.V.V.V.V.V.",
"X.X.X.X.X.X.X.X.X.X.X.X.X.X.X.X.X.X.X.X.X.X.X.X.X.X.X.X.X.X.X.X.X.",
"Y.Y.Y.Y.Y.Y.Y.Y.Y.Y.Y.Y.Y.Y.Y.Y.Y.Y.Y.Y.Y.Y.Y.Y.Y.Y.Y.Y.Y.Y.Y.Y.Y.",
"Z.Z.Z.Z.Z.Z.Z.Z.Z.Z.Z.Z.Z.Z.Z.Z.Z.Z.Z.Z.Z.Z.Z.Z.Z.Z.Z.Z.Z.Z.Z.Z.Z.",
"`.`.`.`.`.`.`.`.`.`.`.`.`.`.`.`.`.`.`. +.+.+++++++++.+.+ +`.`.`.`."};
