/* XPM */
static char * chorus__knob_pos_xpm[] = {
"3 3 3 1",
" 	c None",
".	c #5C6976",
"+	c #000000",
".+.",
"+++",
".+."};
