/* XPM */
static char * delayline__display_lower_xpm[] = {
"39 17 43 1",
" 	c None",
".	c #697489",
"+	c #484F5A",
"@	c #000000",
"#	c #868C98",
"$	c #687489",
"%	c #6D6C6D",
"&	c #686868",
"*	c #646464",
"=	c #606060",
"-	c #5C5C5C",
";	c #575858",
">	c #535353",
",	c #4F4F4F",
"'	c #4B4B4B",
")	c #464646",
"!	c #424242",
"~	c #3E3E3E",
"{	c #393A3A",
"]	c #353536",
"^	c #313131",
"/	c #2D2D2D",
"(	c #292929",
"_	c #252525",
":	c #212020",
"<	c #1C1C1C",
"[	c #171717",
"}	c #131414",
"|	c #0F0F0F",
"1	c #0B0B0B",
"2	c #070707",
"3	c #677388",
"4	c #5E5E5E",
"5	c #484848",
"6	c #667388",
"7	c #323232",
"8	c #667387",
"9	c #667287",
"0	c #060606",
"a	c #667286",
"b	c #667186",
"c	c #657185",
"d	c #657085",
".+++++++++++++++++++++++++++++++++++++.",
".+@@@@@@@@@@@@@@@@@@@@@@@@@@@@@@@@@@@#.",
"$+@%%&*=-;>,')!~{]^/(_:<[}|12@@@@@@@@#$",
"3+@%'/<@@@@@@@@@@@@@@@@@@@@@@@@@@@@@@#3",
"3+@4/<@@@@@@@@@@@@@@@@@@@@@@@@@@@@@@@#3",
"3+@5<@@@@@@@@@@@@@@@@@@@@@@@@@@@@@@@@#3",
"6+@7@@@@@@@@@@@@@@@@@@@@@@@@@@@@@@@@@#6",
"8+@<@@@@@@@@@@@@@@@@@@@@@@@@@@@@@@@@@#8",
"9+@0@@@@@@@@@@@@@@@@@@@@@@@@@@@@@@@]@#9",
"9+@0@@@@@@@@@@@@@@@@@@@@@@@@@@@@@@@]@#9",
"9+@0@@@@@@@@@@@@@@@@@@@@@@@@@@@@@@@]@#9",
"a+@0@@@@@@@@@@@@@@@@@@@@@@@@@@@@@@@]@#a",
"b+@0@@@@@@@@@@@@@@@@@@@@@@@@@@@@@@@]@#b",
"b+@@@@@@@@@@@@@@@@@@@@@@@@@@@@@@@@@>@#b",
"b+@@@@@@@@@@@@@@@@@@@@@@@@@@@@@@@]>*@#b",
"c+@@@@@@@@@@@@@@@@@@@@@@@@@@@@@@@@@@@#c",
"d+####################################d"};
