/* XPM */
static char * edit_toolbar__poly_xpm[] = {
"38 32 54 1",
" 	c None",
".	c #144C7A",
"+	c #134B79",
"@	c #134B78",
"#	c #134A78",
"$	c #134A77",
"%	c #134975",
"&	c #134874",
"*	c #124773",
"=	c #124873",
"-	c #124772",
";	c #12456F",
">	c #11436B",
",	c #11426A",
"'	c #114169",
")	c #11426B",
"!	c #C1EFEC",
"~	c #0F3A5E",
"{	c #0F3B5F",
"]	c #0F3B60",
"^	c #0F395C",
"/	c #0F3C61",
"(	c #114067",
"_	c #0D3555",
":	c #0D3352",
"<	c #0E3758",
"[	c #0C314E",
"}	c #0C304D",
"|	c #0D3454",
"1	c #0C2F4C",
"2	c #0D3453",
"3	c #0F3A5D",
"4	c #0C2F4B",
"5	c #0D314F",
"6	c #0D3250",
"7	c #0D3251",
"8	c #103D63",
"9	c #11446D",
"0	c #0C304E",
"a	c #0D3353",
"b	c #114068",
"c	c #124671",
"d	c #134976",
"e	c #0C2F4D",
"f	c #0E385A",
"g	c #104066",
"h	c #124670",
"i	c #0E3556",
"j	c #0E385B",
"k	c #103E64",
"l	c #FFFFFF",
"m	c #11436C",
"n	c #0F3B5E",
"o	c #BFBFBF",
"......................................",
"....................++++++++++........",
"......++@####@@@#################@++..",
".....+$%&***==&==***----------***&%$+.",
"....+$=;>,'',)>),''''''''''''''',>;=$+",
"....@%;!!!!!~{]!!!!^^!!!^^!!!^!!!/(;%@",
"....@=>!....!_!....!:!.!::!.!:!.!</>=@",
"...+#*'!....![!....!}!.!}}!.!}!.!|~,*#",
"...+#*'!.!!.!1!.!!.!1!.!11!..!..!23'*#",
"...+#-'!.!!.!1!.!!.!4!.!1}}!...![_{,=@",
"...+#-'!.!!.!4!.!!.!4!.!}566!.!}7<89%@",
"...+#-'!....!1!.!!.!4!.!072a!.![|3bcd+",
"...+#-'!.!!!11!.!!.!4!.!07|2!.!6<89&@+",
"...+#-'!.!e}55!.!!.!4!.!!!!7!.!:fghd+.",
"...+#-'!.!0622!....!4!....!0!.!:^b-$+.",
"...+#-'!.!6|<<!....!4!....!1!.!:^b-$+.",
"...+#-'!!!6iffi!!!!44!!!!!!1!!!:jgc$+.",
"...+#-'^a[6|<<|5e1444444444441e6<k;d+.",
"...+#-'ll...l...lll...l...l...lli/m&@.",
"...+#-'ll...l...lll...l...l...ll|n,=#.",
"...+#-'ll...l...lll...l...l...lla3'*#+",
"...+#-'ll...l...lll...l...l...ll:^'-#+",
"...+#-'lllolllolllllolllolllollla^'-#+",
"...+#*'lllolllolllllolllolllollla3'*#+",
"...+#*'lllolllolllllolllolllolll|~'*#+",
"....@=>/<|aa:::::::::::::::::aa|</>=@.",
"....@%;(/~3^^^^^^^^^^^^^^^^^^^3~/(;%@.",
"....+$=;>,''''''''''''''''''''',>;=$+.",
".....+$%&***-----------------***&%$+..",
"......++@#######################@++...",
"............+++++++++++++++++.........",
"......................................"};
