/* XPM */
static char * edit_toolbar__midi_in_config_xpm[] = {
"38 32 183 2",
"  	c None",
". 	c #144C7A",
"+ 	c #134B79",
"@ 	c #134B78",
"# 	c #134A77",
"$ 	c #134976",
"% 	c #134975",
"& 	c #124873",
"* 	c #124671",
"= 	c #124670",
"- 	c #12456F",
"; 	c #12456E",
"> 	c #11436C",
", 	c #C1EFEC",
"' 	c #103F66",
") 	c #114168",
"! 	c #124772",
"~ 	c #11436D",
"{ 	c #134977",
"] 	c #134875",
"^ 	c #134674",
"/ 	c #124471",
"( 	c #124270",
"_ 	c #12406E",
": 	c #113E6C",
"< 	c #113C6A",
"[ 	c #103D62",
"} 	c #104067",
"| 	c #144A79",
"1 	c #134775",
"2 	c #124573",
"3 	c #134472",
"4 	c #113A68",
"5 	c #103866",
"6 	c #0F3664",
"7 	c #0F3A5D",
"8 	c #103E64",
"9 	c #124773",
"0 	c #144A78",
"a 	c #134876",
"b 	c #124572",
"c 	c #124271",
"d 	c #12416F",
"e 	c #113B69",
"f 	c #103967",
"g 	c #0F3462",
"h 	c #0F3260",
"i 	c #0E385B",
"j 	c #104066",
"k 	c #134673",
"l 	c #123E6C",
"m 	c #113D6B",
"n 	c #103865",
"o 	c #0E305E",
"p 	c #0D3353",
"q 	c #0F395C",
"r 	c #12446E",
"s 	c #134774",
"t 	c #134574",
"u 	c #103A68",
"v 	c #103867",
"w 	c #103664",
"x 	c #0F3562",
"y 	c #0E2F5E",
"z 	c #0E2E5B",
"A 	c #0E2C5A",
"B 	c #0E3556",
"C 	c #0F3B60",
"D 	c #134A78",
"E 	c #11426A",
"F 	c #103C61",
"G 	c #134473",
"H 	c #124371",
"I 	c #123F6D",
"J 	c #113C69",
"K 	c #113967",
"L 	c #0F3564",
"M 	c #0F305F",
"N 	c #0F2E5C",
"O 	c #0E2D5B",
"P 	c #0D2B59",
"Q 	c #0E2A57",
"R 	c #0D3250",
"S 	c #0E3759",
"T 	c #11446D",
"U 	c #0F3A5E",
"V 	c #0E3758",
"W 	c #12416E",
"X 	c #103B69",
"Y 	c #103765",
"Z 	c #103663",
"` 	c #0F3362",
" .	c #0F305D",
"..	c #0E2E5C",
"+.	c #0D2A58",
"@.	c #0E2857",
"#.	c #0D2755",
"$.	c #0C2F4B",
"%.	c #0D3352",
"&.	c #0F3C61",
"*.	c #103F65",
"=.	c #103562",
"-.	c #0F3361",
";.	c #0F3160",
">.	c #0E305D",
",.	c #0E2B5A",
"'.	c #0E2958",
").	c #0D2452",
"!.	c #0B2C47",
"~.	c #0C2F4D",
"{.	c #0F3B5F",
"].	c #0C304D",
"^.	c #0C2F4C",
"/.	c #0C2E4B",
"(.	c #113E6B",
"_.	c #113766",
":.	c #0F305E",
"<.	c #0E2E5D",
"[.	c #0E2B59",
"}.	c #0E2957",
"|.	c #0C2855",
"1.	c #0C2150",
"2.	c #0B2B45",
"3.	c #0B2D48",
"4.	c #0C2E4A",
"5.	c #103766",
"6.	c #0F3563",
"7.	c #0F3461",
"8.	c #0F325F",
"9.	c #0E2856",
"0.	c #0C2553",
"a.	c #0C2451",
"b.	c #0C224F",
"c.	c #0B204D",
"d.	c #0B2A44",
"e.	c #0E3859",
"f.	c #113867",
"g.	c #103563",
"h.	c #0F3360",
"i.	c #0F315F",
"j.	c #0F2D5B",
"k.	c #0D2856",
"l.	c #0D2654",
"m.	c #0D2553",
"n.	c #0C2350",
"o.	c #0C214E",
"p.	c #0B1F4D",
"q.	c #0B1D4B",
"r.	c #0D3454",
"s.	c #0F3463",
"t.	c #0E2F5D",
"u.	c #0D2957",
"v.	c #0C2653",
"w.	c #0C2352",
"x.	c #0C2250",
"y.	c #0C204E",
"z.	c #0B1E4C",
"A.	c #0B1C4A",
"B.	c #0E3260",
"C.	c #0D2453",
"D.	c #0C2351",
"E.	c #0C214F",
"F.	c #0B1F4E",
"G.	c #0B1A48",
"H.	c #0B2B46",
"I.	c #0E2D5C",
"J.	c #0B1E4B",
"K.	c #0B1B49",
"L.	c #0A1A47",
"M.	c #0C2D49",
"N.	c #0D2756",
"O.	c #0A2841",
"P.	c #0B1D4A",
"Q.	c #0A1B49",
"R.	c #0A2942",
"S.	c #0B2A43",
"T.	c #0D3453",
"U.	c #0E3657",
"V.	c #0D3251",
"W.	c #0C314E",
"X.	c #0E385A",
"Y.	c #0E3658",
"Z.	c #103E63",
". . . . . . . . . . . . . . . . . . . . . . . . . . . . . . . . . . . . . . ",
". . . . . . . . . . . . . . . . . . . . . . . . . . . . . . . . . . . . . . ",
". . . . . . . . . . . . . . . . . . . . . . . . . . . . . . . . . . . . . . ",
". . . . . . . . . . . . . . . . . . . . . . . . . . . . . . . . . . . . . . ",
". . . . . . . . . . . . . . + + + + + + + + + + + + . . . . . . . . . . . . ",
"+ . . . . . . . . . . . + @ # $ $ $ % % % % $ $ $ # @ + . . . . . . . . . . ",
"@ + . . . . . . . . + @ # % & * = - ; ; ; ; - = * & % # @ + . . . . . . . . ",
"# + . . . . . . . + @ $ & - > , , , , , , , , ' ) > - & $ @ + . . . . . . . ",
"$ + . . . . . . + @ $ ! ~ , , { ] ^ / ( _ : < , , [ } ~ ! $ @ + . . . . . . ",
"$ + . . . . . + @ $ ! > , | $ 1 2 3 , , : < 4 5 6 , 7 8 > ! $ @ + . . . . . ",
"% @ . . + + + @ $ 9 ~ , 0 a ^ b c d , , e f 5 6 g h , i 8 ~ 9 $ @ + + + . . ",
"% @ + + @ # $ $ & ; j , ] k , , _ l m e f n , , h o , p q j ; & $ $ # @ + . ",
"% @ + # $ & ! = r ) , s t 3 , , : < u v w x , , y z A , B C ) r = ! & $ D + ",
"% D D % * , E ) ' F , G H d I m J K 5 L g h M N O P Q , R S F ' , E T * % @ ",
"% # # 9 ~ , , U q V , ( W I m X f Y Z ` h  ...A +.@.#., $.%.V , , &.*.~ 9 # ",
"% # $ = ) , , , p R , _ , , u 5 Y =.-.;.>.z ,.'., , )., !.~., , , V {.) = $ ",
"% # % - *., , ].^./., (., , _.6 g h :.<.A [.}.|., , 1., 2.3./., , %.i *.- $ ",
"% # % - *., R $.4.3., e f 5.6.7.8.:...O +.9.#.0.a.b.c., d.!.3.4., R e.*.- % ",
"% # % - *.i %.].^./., f.Y g.h.i.>.j.A Q k.l.m.n.o.p.q., 2.3./.^.].%.i *.- $ ",
"% # $ = ) {.V r.p R ~., s.h.i.t.O [.u.#.v.w.x.y.z.A., d.!.~.R p r.V {.) = $ ",
"% # # 9 ~ *.&.U q V %., B.:.<.A +.u.#.C.D.E.F.z.A.G., H.$.%.V q U &.*.~ 9 # ",
"% D D % * T E ) ' F S R , I.,.'.k.l., , E.p.J.K.L., d.M.R S F ' ) E T * % @ ",
"% @ + # $ & ! = r ) C B ]., , N.m., O.O., P.Q., , d.!.].B C ) r = ! & $ D + ",
"% @ + + @ # $ $ & ; j q p ^.!., , , R.R., , , S.d.!.^.p q j ; & $ $ # @ + . ",
"% @ . . + + + @ $ 9 ~ 8 i T.].M.!.H.2.2.2.2.H.!.M.].T.i 8 ~ 9 $ @ + + + . . ",
"% @ . . . . . + @ $ ! > 8 7 U.V.W.].~.^.^.~.].W.V.U.7 8 > ! $ @ + . . . . . ",
"$ + . . . . . . + @ $ ! ~ } [ 7 X.V Y.U.U.Y.V X.7 [ } ~ ! $ @ + . . . . . . ",
"$ + . . . . . . . + @ $ & - > ) ' 8 8 Z.Z.8 8 ' ) > - & $ @ + . . . . . . . ",
"# + . . . . . . . . + @ # % & * = - ; ; ; ; - = * & % # @ + . . . . . . . . ",
"@ + . . . . . . . . . . + @ # $ $ $ % % % % $ $ $ # @ + . . . . . . . . . . ",
"+ . . . . . . . . . . . . . + + + + + + + + + + + + . . . . . . . . . . . . ",
". . . . . . . . . . . . . . . . . . . . . . . . . . . . . . . . . . . . . . "};
