/* XPM */
static char * edit_toolbar__volume_mask_label_xpm[] = {
"38 14 14 1",
" 	c None",
".	c #0E3658",
"+	c #0B3B63",
"@	c #082F50",
"#	c #041B2E",
"$	c #144C7A",
"%	c #2E699B",
"&	c #104066",
"*	c #124773",
"=	c #0E3657",
"-	c #0E3556",
";	c #103F65",
">	c #134874",
",	c #0E3555",
".+@##############################$%.&*",
"=+@##############################$%-;>",
"=+@##############################$%-;*",
"=+@##############################$%-;*",
"=+@##############################$%-;*",
"=+@##############################$%,;>",
"=+@##############################$%-;*",
"=+@##############################$%-;*",
"=+@##############################$%,;>",
"=+@##############################$%,;>",
"=+@##############################$%-;*",
"=+@##############################$%-;*",
"=+@##############################$%,;>",
"=+@##############################$%-;>"};
