/* XPM */
static char * edit_toolbar__cursor_follows_playback_pushed_xpm[] = {
"31 32 282 2",
"  	c None",
". 	c #144C7A",
"+ 	c #324554",
"@ 	c #334554",
"# 	c #134A78",
"$ 	c #134B79",
"% 	c #414F5C",
"& 	c #465461",
"* 	c #495764",
"= 	c #4B5966",
"- 	c #4B5A66",
"; 	c #4C5966",
"> 	c #4C5A67",
", 	c #4E5C69",
"' 	c #465561",
") 	c #515F6B",
"! 	c #5B6975",
"~ 	c #606F7A",
"{ 	c #64737E",
"] 	c #65737F",
"^ 	c #65747F",
"/ 	c #677581",
"( 	c #637481",
"_ 	c #51606C",
": 	c #63717D",
"< 	c #72818D",
"[ 	c #7C8B97",
"} 	c #81909B",
"| 	c #82919D",
"1 	c #83919D",
"2 	c #84939E",
"3 	c #7C8D9C",
"4 	c #495965",
"5 	c #5B6A76",
"6 	c #8796A1",
"7 	c #94A3AD",
"8 	c #9AA8B3",
"9 	c #9CABB6",
"0 	c #9DABB6",
"a 	c #9CABB5",
"b 	c #9DACB7",
"c 	c #93A4B3",
"d 	c #9FB6CB",
"e 	c #4D5C68",
"f 	c #61707C",
"g 	c #94A2AE",
"h 	c #A2B1BC",
"i 	c #AAB8C3",
"j 	c #ACBBC6",
"k 	c #ABBAC5",
"l 	c #AAB9C4",
"m 	c #A1B2C2",
"n 	c #4E5D69",
"o 	c #B0BFC9",
"p 	c #B2C1CB",
"q 	c #B1BFCA",
"r 	c #AFBDC8",
"s 	c #AFBCC7",
"t 	c #AEBBC6",
"u 	c #ADBBC5",
"v 	c #B3C1CC",
"w 	c #B4C2CD",
"x 	c #A7B9C8",
"y 	c #4E5D6A",
"z 	c #657480",
"A 	c #AFBEC8",
"B 	c #ACBAC4",
"C 	c #A9B7C1",
"D 	c #A7B5BF",
"E 	c #A7B4BE",
"F 	c #A6B4BE",
"G 	c #A5B3BD",
"H 	c #A8B6C0",
"I 	c #B6C5D0",
"J 	c #AABCCC",
"K 	c #4F5E6A",
"L 	c #AAB8C2",
"M 	c #6193AD",
"N 	c #6EACBE",
"O 	c #6FACBE",
"P 	c #6AA6B9",
"Q 	c #669EB3",
"R 	c #6197AD",
"S 	c #5E90A7",
"T 	c #5989A2",
"U 	c #53819D",
"V 	c #2E6A93",
"W 	c #26547D",
"X 	c #9CA9B2",
"Y 	c #A2B0BA",
"Z 	c #B4C3CE",
"` 	c #A9BBCB",
" .	c #70A0B4",
"..	c #A3E9EA",
"+.	c #9DE8E8",
"@.	c #96DCDF",
"#.	c #8ECFD5",
"$.	c #86C2CB",
"%.	c #7EB5C1",
"&.	c #74AABA",
"*.	c #5A98B4",
"=.	c #357097",
"-.	c #57728B",
";.	c #8D98A1",
">.	c #97A3AC",
",.	c #ACBBC5",
"'.	c #B2C1CC",
").	c #64839A",
"!.	c #82C2CD",
"~.	c #96E3E4",
"{.	c #8DD6D9",
"].	c #86C8CE",
"^.	c #7DB9C4",
"/.	c #72ADBB",
"(.	c #61A1B7",
"_.	c #377DA4",
":.	c #3C6585",
"<.	c #727E87",
"[.	c #808A92",
"}.	c #B1C0CB",
"|.	c #A8BACA",
"1.	c #98A5AE",
"2.	c #1F4C75",
"3.	c #788289",
"4.	c #87929A",
"5.	c #A9B8C3",
"6.	c #96A3AC",
"7.	c #6E9DB1",
"8.	c #326D94",
"9.	c #455F78",
"0.	c #747E85",
"a.	c #848F97",
"b.	c #A8B9C9",
"c.	c #95A2AB",
"d.	c #5F7E94",
"e.	c #365E7E",
"f.	c #646F76",
"g.	c #737D83",
"h.	c #838E95",
"i.	c #1E4B74",
"j.	c #727C83",
"k.	c #326C94",
"l.	c #445E76",
"m.	c #747D84",
"n.	c #71828F",
"o.	c #6D98A9",
"p.	c #95D8DC",
"q.	c #89CED3",
"r.	c #81C0C8",
"s.	c #77B3BF",
"t.	c #6AA7B9",
"u.	c #4D94B3",
"v.	c #2D668D",
"w.	c #4F6172",
"x.	c #6A737A",
"y.	c #768087",
"z.	c #86919A",
"A.	c #99A6AF",
"B.	c #536E84",
"C.	c #73A8BA",
"D.	c #89C8CF",
"E.	c #7CB8C3",
"F.	c #71ACBC",
"G.	c #5FA0B7",
"H.	c #3378A0",
"I.	c #395D79",
"J.	c #656E75",
"K.	c #6D767D",
"L.	c #7A848C",
"M.	c #8B979F",
"N.	c #9DAAB3",
"O.	c #6D7985",
"P.	c #608498",
"Q.	c #84B9C5",
"R.	c #77B1BF",
"S.	c #69A6B9",
"T.	c #4D92B1",
"U.	c #2F6489",
"V.	c #556471",
"W.	c #697278",
"X.	c #818B93",
"Y.	c #929EA7",
"Z.	c #A2AFB9",
"`.	c #B3C2CC",
" +	c #A9B7C2",
".+	c #9DAAB4",
"++	c #8C98A0",
"@+	c #7C868D",
"#+	c #52697D",
"$+	c #6893A8",
"%+	c #78B0BE",
"&+	c #5E9FB7",
"*+	c #33749B",
"=+	c #3D5B74",
"-+	c #656E74",
";+	c #6D767C",
">+	c #89949C",
",+	c #B0BEC8",
"'+	c #ACBAC5",
")+	c #939FA8",
"!+	c #6E7A83",
"~+	c #57768C",
"{+	c #71A0B4",
"]+	c #4C8DAE",
"^+	c #316284",
"/+	c #5B6872",
"(+	c #727B82",
"_+	c #7F8A91",
":+	c #909CA5",
"<+	c #A0ADB7",
"[+	c #B5C4CF",
"}+	c #667580",
"|+	c #9CAAB6",
"1+	c #B0BEC9",
"2+	c #9BA8B1",
"3+	c #7C878E",
"4+	c #51677B",
"5+	c #6088A0",
"6+	c #447B9E",
"7+	c #3F5B73",
"8+	c #676F76",
"9+	c #79838A",
"0+	c #ADBBC6",
"a+	c #A3B1BA",
"b+	c #869199",
"c+	c #778188",
"d+	c #3E5F7B",
"e+	c #2E577B",
"f+	c #687076",
"g+	c #6B747A",
"h+	c #919DA6",
"i+	c #B7C6D1",
"j+	c #687782",
"k+	c #9DABB7",
"l+	c #9FACB5",
"m+	c #909CA4",
"n+	c #818C94",
"o+	c #757F86",
"p+	c #6F797F",
"q+	c #6F787F",
"r+	c #7D878F",
"s+	c #9BA7B1",
"t+	c #6D7B87",
"u+	c #8796A2",
"v+	c #9EADB8",
"w+	c #ADBCC7",
"x+	c #89959D",
"y+	c #8393A3",
"z+	c #96A7B7",
"A+	c #A2B3C3",
"B+	c #A6B7C7",
"C+	c #A1B2C1",
"D+	c #99A9B8",
"E+	c #8F9EAC",
"F+	c #8694A1",
"G+	c #818F9B",
"H+	c #808E9A",
"I+	c #8593A0",
"J+	c #8D9CA9",
"K+	c #97A7B5",
"L+	c #9FB0BF",
"M+	c #A5B6C6",
"N+	c #99AFC4",
"O+	c #9DB4C9",
"P+	c #9DB3C8",
"Q+	c #9AB1C5",
"R+	c #96ACBF",
"S+	c #90A5B8",
"T+	c #8B9FB1",
"U+	c #879BAD",
"V+	c #879AAC",
"W+	c #8A9EB0",
"X+	c #8FA4B7",
"Y+	c #95ABBF",
"Z+	c #9AB0C4",
"`+	c #9EB5CA",
" @	c #134B78",
".@	c #134A77",
"+@	c #134874",
"@@	c #124772",
"#@	c #124671",
"$@	c #134976",
". . . . . . + + + + + + + + + + + + + + + + + @ . . # $ . . . ",
". . . . % & * = - - - - - - - - - - - - - - - ; > , # $ . . . ",
". . . ' ) ! ~ { ] ] ] ] ] ] ] ] ] ] ] ] ] ] ] ^ ^ / ( . . . . ",
". . . _ : < [ } | | | | | | | | | | | | | | | 1 1 2 3 . . . . ",
". . 4 5 < 6 7 8 9 9 9 0 0 0 a 9 9 9 9 9 9 9 9 0 0 b c d . . . ",
". . e f [ g h i j k k l l l l i l l l l l l k k j j m d . . . ",
". . n ] } 8 i o p q r s t u u u u u u u t s r q v w x d . . . ",
". . y z | 9 j p v A B C D E F F F F G F E H B o w I J d . . . ",
". . K z | 9 k q A L M N O P Q R S T U V W X Y L o Z ` d . . . ",
". . K z | 9 k r B Y  ...+.@.#.$.%.&.*.=.-.;.>.Y ,.'.` d . . . ",
". . K z | 9 l s H X ).!.~.{.].^./.(._.:.<.[.;.X C }.|.d . . . ",
". . K z | 9 l t E 1.M N O P Q R S T U V 2.3.4.1.D q |.d . . . ",
". . K z | 9 5.u G 6.7...+.@.#.$.%.&.*.8.9.0.a.6.F o b.d . . . ",
". . K z | 9 5.u G c.d.!.~.{.].^./.(._.e.f.g.h.c.F o b.d . . $ ",
". . K z | 9 5.u G c.M N O P Q R S T U V i.j.h.c.F o b.d . . $ ",
". . K z | 9 5.u G c.7...+.@.#.$.%.&.*.k.l.g.h.6.F o b.d . . $ ",
". . K z | 9 5.u G c.d.!.~.{.].^./.(._.e.f.m.a.>.E o |.d . . $ ",
". . K z | 9 5.u G 6.n.o.p.q.r.s.t.u.v.w.x.y.z.A.D q |.d . . $ ",
". . K z | 9 l u F >.a.B.C.D.E.F.G.H.I.J.K.L.M.N.i }.|.d . . $ ",
". . K z | 9 l t E A.4.O.P.Q.R.S.T.U.V.W.j.X.Y.Z.,.`.` d . . $ ",
". . K z | 9 l s  +.+++@+#+$+%+&+*+=+-+;+3.>+A.E o Z J d . . $ ",
". . K z | 9 k ,+'+Y )+h.!+~+{+]+^+/+W.(+_+:+<+B '.[+J d . . . ",
". . K }+1 |+j q 1+H 2+M.3+4+5+6+7+8+K.9+>+1.E A Z I J d . . . ",
". . K }+1 |+j v p 0+a+c.b+c+d+e+f+g+m.X.h+<+B '.[+i+J d . . . ",
". . . j+2 k+j w Z }.i l+m+n+o+p+q+g.r+M.s+D o Z I i+J . . . . ",
". . . t+u+v+w+w [+w A E s+;.n+L.L._+x+>.a+,.'.[+i+i+J . . . . ",
". . . . y+z+A+x ` |.B+C+D+E+F+G+H+I+J+K+L+M+b.J J J . . . . . ",
". . . . . . N+O+d d P+Q+R+S+T+U+V+W+X+Y+Z+P+`+d . . . . . . . ",
". . . . . . . . . . $  @.@+@@@#@#@@@+@$@ @$ . . . . . . . . . ",
". . . . . . . . . . . $ $ # .@$@$@.@# $ $ . . . . . . . . . . ",
". . . . . . . . . . . . . $ $ $ $ $ $ . . . . . . . . . . . . ",
". . . . . . . . . . . . . . . . . . . . . . . . . . . . . . . "};
