/* XPM */
static char * edit_toolbar__automation_mode_envelope_active_xpm[] = {
"31 32 284 2",
"  	c None",
". 	c #144C7A",
"+ 	c #324554",
"@ 	c #334554",
"# 	c #134A78",
"$ 	c #134B79",
"% 	c #414F5C",
"& 	c #465461",
"* 	c #495764",
"= 	c #4B5966",
"- 	c #4B5A66",
"; 	c #4C5966",
"> 	c #4C5A67",
", 	c #4E5C69",
"' 	c #465561",
") 	c #515F6B",
"! 	c #5B6975",
"~ 	c #606F7A",
"{ 	c #64737E",
"] 	c #65737F",
"^ 	c #65747F",
"/ 	c #677581",
"( 	c #637481",
"_ 	c #51606C",
": 	c #63717D",
"< 	c #72818D",
"[ 	c #7C8B97",
"} 	c #81909B",
"| 	c #82919D",
"1 	c #83919D",
"2 	c #84939E",
"3 	c #7C8D9C",
"4 	c #495965",
"5 	c #5B6A76",
"6 	c #8796A1",
"7 	c #94A3AD",
"8 	c #9AA8B3",
"9 	c #9CABB6",
"0 	c #9DABB6",
"a 	c #9CABB5",
"b 	c #9DACB7",
"c 	c #93A4B3",
"d 	c #9FB6CB",
"e 	c #4D5C68",
"f 	c #61707C",
"g 	c #94A2AE",
"h 	c #A2B1BC",
"i 	c #AAB8C3",
"j 	c #ACBBC6",
"k 	c #ACBAC5",
"l 	c #A1B2C2",
"m 	c #4E5D69",
"n 	c #B0BFC9",
"o 	c #B3C2CC",
"p 	c #B4C2CD",
"q 	c #A7B9C8",
"r 	c #4E5D6A",
"s 	c #657480",
"t 	c #B6C5D0",
"u 	c #B7C6D1",
"v 	c #B5C4CF",
"w 	c #AABCCC",
"x 	c #4F5E6A",
"y 	c #B2C1CC",
"z 	c #B1C0CB",
"A 	c #B1BFCA",
"B 	c #B4C3CE",
"C 	c #134B78",
"D 	c #AEBCC7",
"E 	c #ABB9C3",
"F 	c #A8B6C0",
"G 	c #A7B5BF",
"H 	c #ADBBC6",
"I 	c #A5B2BC",
"J 	c #EAB7BD",
"K 	c #E8354A",
"L 	c #99A6AF",
"M 	c #9DAAB3",
"N 	c #A2AFB9",
"O 	c #ACBAC4",
"P 	c #AFBEC8",
"Q 	c #A9BBCB",
"R 	c #AAB8C2",
"S 	c #A1AEB8",
"T 	c #A6B094",
"U 	c #D2D446",
"V 	c #A4AC80",
"W 	c #929EA7",
"X 	c #A0ADB7",
"Y 	c #A6B4BE",
"Z 	c #AFBDC7",
"` 	c #A6B8C8",
" .	c #9DB3C8",
"..	c #B3C1CC",
"+.	c #A9B7C1",
"@.	c #A0ADB6",
"#.	c #A4AE92",
"$.	c #F3F21F",
"%.	c #E9E825",
"&.	c #FFFC13",
"*.	c #E5E52D",
"=.	c #B8BE64",
"-.	c #94A09E",
";.	c #98A5AE",
">.	c #9FACB5",
",.	c #A0B1C0",
"'.	c #99AFC3",
").	c #134A77",
"!.	c #ABBAC5",
"~.	c #B1BEC9",
"{.	c #A5AE8E",
"].	c #F3F11F",
"^.	c #C5C748",
"/.	c #737D83",
"(.	c #6F797F",
"_.	c #6E777E",
":.	c #6F787F",
"<.	c #969C64",
"[.	c #D1D238",
"}.	c #FCFA14",
"|.	c #F9F618",
"1.	c #CCCF4C",
"2.	c #A1AA8A",
"3.	c #95A1AA",
"4.	c #9BA8B1",
"5.	c #96A6B4",
"6.	c #91A7BA",
"7.	c #124873",
"8.	c #134976",
"9.	c #9BAAB5",
"0.	c #A9B8C2",
"a.	c #ADBBC5",
"b.	c #ABB485",
"c.	c #F9F619",
"d.	c #BCBF4F",
"e.	c #727C83",
"f.	c #7D8577",
"g.	c #B4B84F",
"h.	c #F0EE20",
"i.	c #E3E42F",
"j.	c #B6BC6A",
"k.	c #8B99A0",
"l.	c #879AAC",
"m.	c #12446E",
"n.	c #124773",
"o.	c #81909C",
"p.	c #99A8B3",
"q.	c #A5B4BF",
"r.	c #A6B3BD",
"s.	c #B3B857",
"t.	c #707980",
"u.	c #747D84",
"v.	c #778188",
"w.	c #788289",
"x.	c #778088",
"y.	c #727B82",
"z.	c #737C80",
"A.	c #9CA262",
"B.	c #D6D735",
"C.	c #BEC351",
"D.	c #7C8E9E",
"E.	c #104067",
"F.	c #12456E",
"G.	c #64737F",
"H.	c #7F8E9A",
"I.	c #96A4AF",
"J.	c #9FADB7",
"K.	c #9DA9B3",
"L.	c #F7F51B",
"M.	c #A5AB64",
"N.	c #808A92",
"O.	c #869199",
"P.	c #88939B",
"Q.	c #859098",
"R.	c #7B858C",
"S.	c #717A81",
"T.	c #848C76",
"U.	c #778282",
"V.	c #738493",
"W.	c #103D62",
"X.	c #11436B",
"Y.	c #63727D",
"Z.	c #7D8B97",
"`.	c #909EA8",
" +	c #96A3AD",
".+	c #B3B977",
"++	c #9FA56A",
"@+	c #7A848C",
"#+	c #848F97",
"$+	c #8F9BA3",
"%+	c #96A3AC",
"&+	c #909CA5",
"*+	c #8A959E",
"=+	c #7F8991",
"-+	c #7A848B",
";+	c #757F86",
">+	c #747E85",
",+	c #707B86",
"'+	c #708190",
")+	c #0F3B5F",
"!+	c #114169",
"~+	c #4E5C68",
"{+	c #616F7B",
"]+	c #788691",
"^+	c #88959F",
"/+	c #B0B771",
"(+	c #F5F31D",
"_+	c #989F6F",
":+	c #939FA8",
"<+	c #9DAAB4",
"[+	c #A7B4BE",
"}+	c #A5B3BD",
"|+	c #8E9AA3",
"1+	c #818C94",
"2+	c #76838E",
"3+	c #758696",
"4+	c #4C5B67",
"5+	c #5E6C77",
"6+	c #727F8A",
"7+	c #A7AF69",
"8+	c #F0EF20",
"9+	c #8C9476",
"0+	c #ACBBC5",
"a+	c #84919E",
"b+	c #7F92A3",
"c+	c #114068",
"d+	c #12456F",
"e+	c #4B5965",
"f+	c #5B6873",
"g+	c #ABB151",
"h+	c #E7E627",
"i+	c #878F76",
"j+	c #A2B0BA",
"k+	c #9EABB5",
"l+	c #92A2B0",
"m+	c #8CA0B3",
"n+	c #4A5863",
"o+	c #57646F",
"p+	c #F4F219",
"q+	c #7B8376",
"r+	c #6E787F",
"s+	c #9EAFBE",
"t+	c #96ACBF",
"u+	c #134874",
"v+	c #495762",
"w+	c #57646D",
"x+	c #657079",
"y+	c #6C767E",
"z+	c #6F7980",
"A+	c #737C83",
"B+	c #7B858D",
"C+	c #86919A",
"D+	c #A6B7C7",
"E+	c #9BB1C6",
"F+	c #58646E",
"G+	c #67727B",
"H+	c #717B84",
"I+	c #778189",
"J+	c #7F8890",
"K+	c #94A0A9",
"L+	c #9EB5CA",
"M+	c #5C6A74",
"N+	c #6E7A83",
"O+	c #7B8690",
"P+	c #849098",
"Q+	c #8D98A1",
"R+	c #97A3AC",
"S+	c #134975",
"T+	c #65727E",
"U+	c #788690",
"V+	c #88959E",
"W+	c #94A1AA",
"X+	c #9CA8B2",
"Y+	c #A4B1BB",
"Z+	c #7B8A9A",
"`+	c #8C9BAA",
" @	c #96A6B5",
".@	c #9DAEBC",
"+@	c #A5B6C6",
"@@	c #A8B9C9",
"#@	c #94AABE",
"$@	c #99AFC4",
"%@	c #9CB3C7",
"&@	c #9DB4C9",
". . . . . . . + + + + + + + + + + + + + + + + + @ . . # $ . . ",
". . . . . % & * = - - - - - - - - - - - - - - - ; > , # $ . . ",
". . . . ' ) ! ~ { ] ] ] ] ] ] ] ] ] ] ] ] ] ] ] ^ ^ / ( . . . ",
". . . . _ : < [ } | | | | | | | | | | | | | | | 1 1 2 3 . . . ",
". . . 4 5 < 6 7 8 9 9 9 0 0 0 a 9 9 9 9 9 9 9 9 0 0 b c d . . ",
"$ . . e f [ g h i j j j j j j j k j j j j j j j j j j l d . . ",
"$ . . m ] } 8 i n o p p p p p p p p p p p p p p p p p q d . . ",
"$ . . r s | 9 j o t t t u u t t v v v v v t t t u u u w d . . ",
"$ . . x s | 9 j p t u u t v p y z A z z o B t u u u u w d . . ",
"C . . x s | 9 j p t u t B z D E F G F i H n y B v t u w d . . ",
"C . . x s | 9 j p t t p n E I J J K L M N G O P y p v Q d . . ",
"C . . x s | 9 j p v p n R S T J J K U V W L X Y E Z z `  .$ . ",
"C . . x s | 9 j ....n +.@.#.$.K K K %.&.*.=.-.;.>.I +.,.'.).$ ",
"C . . x s | 9 !.~.P +.@.{.].^./.(._.:.<.[.}.|.1.2.3.4.5.6.7.8.",
"C . . x s | 9.0.a.F @.b.c.d.e._._.:.(.(.(.f.g.h.&.i.j.k.l.m.n.",
"C . . x s o.p.q.r.>.b.c.s.e.(.t.u.v.w.x.u.y.t.z.A.B.}.C.D.E.F.",
"C . . x G.H.I.J.K.b.L.M.e.(.y.w.N.O.P.Q.N.R.x.u.y.S.T.U.V.W.X.",
"C . . m Y.Z.`. +.+].++e.(.e.@+#+$+%+;.%+&+*+#+=+-+;+>+,+'+)+!+",
"C $ $ ~+{+]+^+/+(+_+e.(.e.@+O.:+<+I [+}+S 4.3.|+P.1+=+2+3+W.X.",
"C $ $ 4+5+6+7+8+9+y.t.e.@+O.:+>.F D n Z 0++.I >.;.:+|+a+b+c+d+",
"C $ # e+f+g+h+i+S.t.e.@+O.:+>.+.P o B B o z Z E [+j+k+l+m+d+n.",
"C $ ).n+o+p+q+r+:.e.@+O.:+@.+.n p t u u t v p y n H E s+t+u+).",
"C C 8.v+w+x+y+z+A+B+C+:+@.+.n p t u u u u u t t B o y D+E+# $ ",
"C C 8.v+F+G+H+I+J+P.K+@.+.n p t u u u u u u u u u t t Q L+$ . ",
"C $ ).n.M+N+O+P+Q+R+S R n p t u u u u u u u u u u u u w . . . ",
"C $ # S+T+U+V+W+X+Y+E n p t u u u u u u u u u u u u u w . . . ",
"$ $ $ # S+Z+`+ @.@l +@@@Q w w w w w w w w w w w w w w . . . . ",
"$ . . $ C ).8.#@$@%@&@L+d d d d d d d d d d d d d . . . . . . ",
"$ . . . $ $ $ $ $ $ . . . . . . . . . . . . . . . . . . . . . ",
". . . . . . . . . . . . . . . . . . . . . . . . . . . . . . . ",
". . . . . . . . . . . . . . . . . . . . . . . . . . . . . . . ",
". . . . . . . . . . . . . . . . . . . . . . . . . . . . . . . "};
