/* XPM */
static char * filterbank__controls_display_separator_xpm[] = {
"20 115 575 2",
"  	c None",
". 	c #8795AA",
"+ 	c #8694A9",
"@ 	c #8593A8",
"# 	c #8492A7",
"$ 	c #818FA3",
"% 	c #A8AFC1",
"& 	c #8E9AAE",
"* 	c #484F5A",
"= 	c #B4BECE",
"- 	c #8290A5",
"; 	c #7F8CA0",
"> 	c #A8AEC0",
", 	c #8E99AE",
"' 	c #8D9BAF",
") 	c #7D8A9E",
"! 	c #A7AEC0",
"~ 	c #8693A8",
"{ 	c #8592A7",
"] 	c #8491A6",
"^ 	c #818DA2",
"/ 	c #7C889C",
"( 	c #808DA2",
"_ 	c #7B889B",
": 	c #A6AEC0",
"< 	c #828FA4",
"[ 	c #808CA1",
"} 	c #7B879A",
"| 	c #A6ADC0",
"1 	c #8391A6",
"2 	c #818FA4",
"3 	c #7F8CA1",
"4 	c #798699",
"5 	c #A6ADBF",
"6 	c #8390A5",
"7 	c #818EA3",
"8 	c #7E8B9F",
"9 	c #798598",
"0 	c #93A0B3",
"a 	c #808EA3",
"b 	c #7D8B9F",
"c 	c #788598",
"d 	c #CCD4E2",
"e 	c #939FB3",
"f 	c #8390A6",
"g 	c #828FA5",
"h 	c #808DA3",
"i 	c #7D8A9F",
"j 	c #788498",
"k 	c #A5ACBF",
"l 	c #7F8DA2",
"m 	c #7C8A9E",
"n 	c #778498",
"o 	c #7E8CA1",
"p 	c #7B899D",
"q 	c #768397",
"r 	c #A5ABBF",
"s 	c #A4ACBE",
"t 	c #818EA4",
"u 	c #7E8BA1",
"v 	c #7B889D",
"w 	c #768297",
"x 	c #A4ABBE",
"y 	c #7D8BA0",
"z 	c #7A889C",
"A 	c #758296",
"B 	c #A3ABBD",
"C 	c #A3AABE",
"D 	c #7F8CA2",
"E 	c #7D8AA0",
"F 	c #7A879C",
"G 	c #758196",
"H 	c #A3AABD",
"I 	c #7A879B",
"J 	c #758195",
"K 	c #A2AABD",
"L 	c #A2AABC",
"M 	c #7D899F",
"N 	c #7A869B",
"O 	c #7C899E",
"P 	c #79869A",
"Q 	c #748194",
"R 	c #A2A9BD",
"S 	c #7C8A9F",
"T 	c #A2A9BC",
"U 	c #79879B",
"V 	c #A1A9BC",
"W 	c #738095",
"X 	c #748196",
"Y 	c #768398",
"Z 	c #78859A",
"` 	c #7A879D",
" .	c #7B889E",
"..	c #7C899F",
"+.	c #7C8AA0",
"@.	c #7D8BA1",
"#.	c #738094",
"$.	c #A7AEBF",
"%.	c #6E7B8D",
"&.	c #717D90",
"*.	c #788599",
"=.	c #738093",
"-.	c #9CA5B8",
";.	c #9CA5B9",
">.	c #646E83",
",.	c #697587",
"'.	c #6E7A8D",
").	c #727F92",
"!.	c #7B899E",
"~.	c #A1A9BB",
"{.	c #868C98",
"].	c #8D99AE",
"^.	c #626C7D",
"/.	c #677285",
"(.	c #6E798D",
"_.	c #748094",
":.	c #788499",
"<.	c #7B879D",
"[.	c #7C889E",
"}.	c #737F93",
"|.	c #A0A8BC",
"1.	c #79859B",
"2.	c #596373",
"3.	c #616C7D",
"4.	c #697487",
"5.	c #707D90",
"6.	c #758297",
"7.	c #79869C",
"8.	c #7B899F",
"9.	c #778499",
"0.	c #727F93",
"a.	c #A0A8BB",
"b.	c #535C6A",
"c.	c #5C6676",
"d.	c #657182",
"e.	c #6D7A8C",
"f.	c #748195",
"g.	c #7A889D",
"h.	c #A0A8BA",
"i.	c #4F5765",
"j.	c #586171",
"k.	c #636D7F",
"l.	c #6C778B",
"m.	c #78849A",
"n.	c #7A869C",
"o.	c #778398",
"p.	c #727E92",
"q.	c #9FA8BB",
"r.	c #4C5461",
"s.	c #565F6E",
"t.	c #616B7B",
"u.	c #6A7688",
"v.	c #778397",
"w.	c #727E91",
"x.	c #4A5360",
"y.	c #545E6D",
"z.	c #5F6A7B",
"A.	c #717E92",
"B.	c #768498",
"C.	c #79869B",
"D.	c #717E91",
"E.	c #9FA7BA",
"F.	c #4A525E",
"G.	c #545D6B",
"H.	c #5F6979",
"I.	c #697486",
"J.	c #79859A",
"K.	c #768296",
"L.	c #9EA7B9",
"M.	c #8694A8",
"N.	c #9EA7BA",
"O.	c #49525E",
"P.	c #535D6B",
"Q.	c #5E6979",
"R.	c #687485",
"S.	c #707D8F",
"T.	c #758295",
"U.	c #49515E",
"V.	c #535C6B",
"W.	c #5E6879",
"X.	c #687385",
"Y.	c #707C8F",
"Z.	c #9EA6B9",
"`.	c #49515D",
" +	c #5E6878",
".+	c #707C8E",
"++	c #758194",
"@+	c #9DA6B9",
"#+	c #5D6878",
"$+	c #677385",
"%+	c #6F7C8E",
"&+	c #748295",
"*+	c #78869A",
"=+	c #6F7C8F",
"-+	c #6F7B8E",
";+	c #9DA5B9",
">+	c #4A535F",
",+	c #5E6978",
"'+	c #687384",
")+	c #748093",
"!+	c #6F7B8D",
"~+	c #4C5562",
"{+	c #555F6D",
"]+	c #606B7B",
"^+	c #687586",
"/+	c #778599",
"(+	c #6C788D",
"_+	c #6D778D",
":+	c #505966",
"<+	c #596372",
"[+	c #626D7D",
"}+	c #6A7587",
"|+	c #48505D",
"1+	c #657081",
"2+	c #6C788A",
"3+	c #9CA4B8",
"4+	c #525B69",
"5+	c #555E6C",
"6+	c #586270",
"7+	c #5D6777",
"8+	c #636E7F",
"9+	c #9BA5B8",
"0+	c #5B6575",
"a+	c #646F80",
"b+	c #6D798B",
"c+	c #9BA4B8",
"d+	c #626D7E",
"e+	c #677283",
"f+	c #657080",
"g+	c #667181",
"h+	c #677282",
"i+	c #687484",
"j+	c #6B7687",
"k+	c #6E7A8C",
"l+	c #717D8F",
"m+	c #768295",
"n+	c #778396",
"o+	c #778497",
"p+	c #737F92",
"q+	c #9BA3B7",
"r+	c #697586",
"s+	c #6D798A",
"t+	c #738092",
"u+	c #9AA4B7",
"v+	c #646E7F",
"w+	c #697385",
"x+	c #6D788A",
"y+	c #768195",
"z+	c #737E92",
"A+	c #6E798C",
"B+	c #9AA3B7",
"C+	c #5D6776",
"D+	c #636D7E",
"E+	c #6F7A8D",
"F+	c #778296",
"G+	c #565F6D",
"H+	c #5E6777",
"I+	c #656F80",
"J+	c #6C7789",
"K+	c #758094",
"L+	c #99A2B6",
"M+	c #586170",
"N+	c #697485",
"O+	c #727D91",
"P+	c #6D788B",
"Q+	c #949EB2",
"R+	c #4C5360",
"S+	c #5F6878",
"T+	c #687284",
"U+	c #939EB2",
"V+	c #49505D",
"W+	c #535A69",
"X+	c #5D6576",
"Y+	c #667082",
"Z+	c #6E788B",
"`+	c #757F94",
" @	c #768196",
".@	c #727C91",
"+@	c #6D778B",
"@@	c #939DB2",
"#@	c #474F5B",
"$@	c #515967",
"%@	c #5C6575",
"&@	c #747F93",
"*@	c #717C90",
"=@	c #6C778A",
"-@	c #939DB1",
";@	c #474E5A",
">@	c #5B6474",
",@	c #929DB1",
"'@	c #474D59",
")@	c #505866",
"!@	c #5B6473",
"~@	c #656E7F",
"{@	c #6C7689",
"]@	c #717B8F",
"^@	c #747E92",
"/@	c #929DB2",
"(@	c #464D59",
"_@	c #5A6473",
":@	c #6B7689",
"<@	c #707B8F",
"[@	c #505766",
"}@	c #5A6373",
"|@	c #646D7F",
"1@	c #6B7589",
"2@	c #707A8F",
"3@	c #737D92",
"4@	c #747F94",
"5@	c #919DB1",
"6@	c #505765",
"7@	c #5A6372",
"8@	c #6B7588",
"9@	c #707A8E",
"0@	c #737D91",
"a@	c #919CB0",
"b@	c #6A7588",
"c@	c #6F7A8E",
"d@	c #919CB1",
"e@	c #464C58",
"f@	c #4F5764",
"g@	c #5A6272",
"h@	c #727D90",
"i@	c #919BB0",
"j@	c #474E5B",
"k@	c #909BB0",
"l@	c #49505C",
"m@	c #525A68",
"n@	c #5C6574",
"o@	c #646F7F",
"p@	c #6A7687",
"q@	c #909BAF",
"r@	c #4D5461",
"s@	c #555D6C",
"t@	c #5D6677",
"u@	c #656F81",
"v@	c #6B7688",
"w@	c #717C8F",
"x@	c #444C58",
"y@	c #474F5C",
"z@	c #515A68",
"A@	c #586271",
"B@	c #606A7B",
"C@	c #677284",
"D@	c #717D91",
"E@	c #6D798C",
"F@	c #909AB0",
"G@	c #4D5562",
"H@	c #505865",
"I@	c #535B69",
"J@	c #909AAF",
"K@	c #545D6C",
"L@	c #545E6C",
"M@	c #56606E",
"N@	c #667283",
"O@	c #6C798B",
"P@	c #8F9AAF",
"Q@	c #596272",
"R@	c #5A6474",
"S@	c #646F81",
"T@	c #687386",
"U@	c #6F7B8F",
"V@	c #707C90",
"W@	c #6C788B",
"X@	c #8F99AF",
"Y@	c #636F80",
"Z@	c #6B7789",
"`@	c #6E7B8E",
" #	c #6B788A",
".#	c #677384",
"+#	c #606B7C",
"@#	c #565F6F",
"##	c #626C7E",
"$#	c #6B778A",
"%#	c #6D798D",
"&#	c #8E98AE",
"*#	c #4F5867",
"=#	c #566070",
"-#	c #647082",
";#	c #697588",
">#	c #6C798C",
",#	c #6E7B8F",
"'#	c #6D7A8D",
")#	c #6A778A",
"!#	c #667284",
"~#	c #4A525F",
"{#	c #525B6A",
"]#	c #6E7A8E",
"^#	c #6A7689",
"/#	c #667183",
"(#	c #464E5A",
"_#	c #4F5766",
":#	c #586272",
"<#	c #616B7D",
"[#	c #444B58",
"}#	c #4D5563",
"|#	c #575F70",
"1#	c #5F697B",
"2#	c #667084",
"3#	c #6D788C",
"4#	c #6E798E",
"5#	c #6A7589",
"6#	c #667083",
"7#	c #424A56",
"8#	c #4B5462",
"9#	c #555F6E",
"0#	c #657083",
"a#	c #657082",
"b#	c #424955",
"c#	c #4B5361",
"d#	c #555D6E",
"e#	c #5E6779",
"f#	c #656F82",
"g#	c #6A7488",
"h#	c #6D788D",
"i#	c #697488",
"j#	c #414955",
"k#	c #4A5361",
"l#	c #545D6E",
"m#	c #5D6779",
"n#	c #646F82",
"o#	c #687488",
"p#	c #6B778B",
"q#	c #414855",
"r#	c #4A5260",
"s#	c #545D6D",
"t#	c #646E81",
"u#	c #687387",
"v#	c #6B768A",
"w#	c #6C778C",
"x#	c #414754",
"y#	c #4A5160",
"z#	c #535C6C",
"A#	c #5C6678",
"B#	c #636D81",
"C#	c #677286",
"D#	c #6B768B",
"E#	c #687287",
"F#	c #49515F",
"G#	c #5B6577",
"H#	c #636D80",
"I#	c #677186",
"J#	c #6A758A",
"K#	c #424956",
"L#	c #4A5261",
"M#	c #535C6D",
"N#	c #5C6577",
"O#	c #434A58",
"P#	c #4C5463",
"Q#	c #555E6F",
"R#	c #697489",
"S#	c #414854",
"T#	c #474E5C",
"U#	c #4E5766",
"V#	c #565F70",
"W#	c #5D677A",
"X#	c #667185",
"Y#	c #687388",
"Z#	c #6C788C",
"`#	c #404653",
" $	c #424957",
".$	c #464E5C",
"+$	c #4C5363",
"@$	c #525B6B",
"#$	c #596374",
"$$	c #60697D",
"%$	c #464E5D",
"&$	c #474F5E",
"*$	c #495260",
"=$	c #4C5564",
"-$	c #515A6A",
";$	c #566071",
">$	c #5C6679",
",$	c #616C7F",
"'$	c #647084",
")$	c #667287",
"!$	c #687489",
"~$	c #69758A",
"{$	c #4E5666",
"]$	c #505868",
"^$	c #5A6476",
"/$	c #5F697C",
"($	c #626D80",
"_$	c #657084",
":$	c #677287",
"<$	c #5B6476",
"[$	c #525A6B",
"}$	c #596375",
"|$	c #616B7E",
"1$	c #555F70",
"2$	c #586375",
"3$	c #5C6779",
"4$	c #606B7E",
"5$	c #636E83",
"6$	c #657185",
"7$	c #677388",
"8$	c #545E70",
"9$	c #5D687B",
"0$	c #606C80",
"a$	c #636F83",
"b$	c #657186",
"c$	c #4F5869",
"d$	c #5A6577",
"e$	c #5F6A7D",
"f$	c #626E82",
"g$	c #647085",
"h$	c #667286",
"i$	c #495261",
"j$	c #50596A",
"k$	c #576173",
"l$	c #616D81",
"m$	c #444D5B",
"n$	c #4C5565",
"o$	c #535D6E",
"p$	c #5A6578",
"q$	c #5F6B7F",
"r$	c #626F83",
"s$	c #647186",
"t$	c #657287",
"u$	c #404955",
"v$	c #485260",
"w$	c #515C6C",
"x$	c #596476",
"y$	c #5E6A7D",
"z$	c #647185",
"A$	c #657286",
"B$	c #626F82",
"C$	c #5F6B7E",
"D$	c #3F4653",
"E$	c #505969",
"F$	c #586274",
"G$	c #5E697C",
"H$	c #626D82",
"I$	c #5E697D",
"J$	c #3E4552",
"K$	c #3D4451",
"L$	c #4F5868",
"M$	c #3D4450",
"N$	c #464E5B",
"O$	c #5E697B",
"P$	c #647083",
"Q$	c #626D81",
"R$	c #464D5B",
"S$	c #4F5768",
"T$	c #5E687B",
"U$	c #626C80",
"V$	c #646F83",
"W$	c #657085",
"X$	c #5E687C",
"Y$	c #3C4450",
"Z$	c #454D5B",
"`$	c #4E5767",
" %	c #566172",
".%	c #5D687A",
"+%	c #636F82",
"@%	c #616D80",
"#%	c #3C4350",
"$%	c #454C5B",
"%%	c #4E5667",
"&%	c #566072",
"*%	c #616C80",
"=%	c #636E82",
"-%	c #646F84",
";%	c #5D677B",
">%	c #3E4551",
",%	c #4F5767",
"'%	c #576071",
")%	c #636E81",
"!%	c #404654",
"~%	c #484F5E",
"{%	c #505869",
"]%	c #586173",
"^%	c #616B7F",
"/%	c #636D82",
"(%	c #5E677B",
". . . . . . . . . . . . . + @ # $ % & * ",
"= . + + + + + + + + + + + @ # - ; > , * ",
"' + + + + + + + + + + + + @ # $ ) ! , * ",
"~ ~ ~ ~ ~ ~ ~ ~ ~ ~ ~ ~ ~ { ] ^ / ! , * ",
"@ @ @ @ @ @ @ @ @ @ @ @ @ # - ( _ : & * ",
"{ { { { { { { { { { { { { ] < [ } | , * ",
"# # # # # # # # # # # # # 1 2 3 4 5 , * ",
"] ] ] ] ] ] ] ] ] ] ] ] ] 6 7 8 9 | , * ",
"0 1 1 1 1 1 1 1 1 1 1 1 1 - a b c | & * ",
"d e f f f f f f f f f f f g h i j k , * ",
"- - - - - - - - - - - - - 2 l m n k , * ",
"- - - - - - - - - - - - - 2 l m n k , * ",
"- - - - - - - - - - - - - 2 l m n k & * ",
"2 2 2 2 2 2 2 2 2 2 2 2 2 a o p q r , * ",
"2 2 2 2 2 2 2 2 2 2 2 2 2 a o p q s , * ",
"2 2 2 2 2 2 2 2 2 2 2 2 2 a o p q s , * ",
"t t t t t t t t t t t t t h u v w x & * ",
"a a a a a a a a a a a a a l y z A B , * ",
"a a a a a a a a a a a a a l y z A C , * ",
"h h h h h h h h h h h h h D E F G H & * ",
"l l l l l l l l l l l l l o i I J K , * ",
"l l l l l l l l l l l l l o i I J L , * ",
"D D D D D D D D D D D D D u M N J K & * ",
"y y y y y o o o o o o o o y O P Q R , * ",
"S S S S i i y y o o o o o y O P Q T , * ",
"U U I I v O S i y o o o o y O P Q V , * ",
"W W X A Y Z `  ...+.@.@.@.+. .Z #.V & * ",
"$.$.$.%.&.Q n P v O S y y S v *.=.V , * ",
"* -.;.>.,.'.).n F !.S S S S v *.=.~., * ",
"{.].+ >.^./.(._.:.<.[.......<.:.}.|.& * ",
"{.+ 1.>.2.3.4.5.6.7. .8.8.8.` 9.0.a., * ",
"{.+ 1.>.b.c.d.e.f.Z g.!.!.!.F n ).h., * ",
"{.+ 1.>.i.j.k.l.}.m.`  . . .n.o.p.q., * ",
"{.+ 1.>.r.s.t.u.p.n N v v v N v.w.q., * ",
"{.+ 1.>.x.y.z.,.A.B.C.g.g.g.C.q D.E., * ",
"{.+ 1.>.F.G.H.I.&.q J.F F F J.K.&.E.& * ",
"{.+ 1.>.F.G.H.I.&.K.J.F F F J.K.&.L., * ",
"{.M.1.>.F.G.H.I.&.K.J.F F F J.K.&.N., * ",
"{.+ 1.>.O.P.Q.R.S.T.*.U U U *.T.S.N., * ",
"{.+ 1.>.U.V.W.X.Y.J :.C.C.C.:.J Y.Z.& * ",
"{.M.1.>.`.b. +X..+++j P P P j ++.+@+, * ",
"{.+ 1.>.`.b.#+$+%+&+n *+*+*+n Q %+@+, * ",
"{.+ 1.>.U.b. +$+=+f.o.Z Z Z o._.-+;+, * ",
"{.M.1.>.>+G.,+'+%+Q v.*.*.*.v.)+!+-.& * ",
"{.C.1.>.~+{+]+^+=+f.B./+/+/+q =.%.-., * ",
"(+(+_+U.:+<+[+}+Y._.q n n n K.}.'.-., * ",
"|+F.r.:+s. +1+2+D.J v.n n n K.}.'.3+, * ",
"4+b.5+6+7+8+,.-+}.K.v.n n n K.}.'.9+& * ",
"0+c. +]+a+I.b+D.Q q n n n n K.}.'.c+, * ",
"d+8+a+e+,.b+Y.=.A v.n *.*.n K.}.'.c+, * ",
"f+g+h+i+j+k+l+)+m+n+o+c c o+m+p+k+q+& * ",
"$.$.$.h+r+s+.+t+T.n+o+c c o+m+p+k+u+, * ",
"* -.;.>.v+w+x+&.)+K.v.v.v.v.y+z+A+B+, * ",
"{.].+ >.C+D+I.E+z+y+F+v.v.v.y+z+A+B+& * ",
"{.+ 1.>.G+H+I+J+&.K+F+v.v.v.y+z+A+L+, * ",
"{.+ 1.>.i.M+t.N+E+z+J K.K.K.K+O+P+Q+, * ",
"{.+ 1.>.R+G.S+T+A+z+J K.K.K.K+O+P+U+, * ",
"{.+ 1.>.V+W+X+Y+Z+O+`+ @ @ @`+.@+@@@& * ",
"{.+ 1.>.#@$@%@I+x+&.&@J J J &@*@=@-@, * ",
"{.+ 1.>.;@:+>@I+=@&.&@J J J &@*@=@,@, * ",
"{.+ 1.>.'@)@!@~@{@]@^@K+K+K+^@]@{@/@, * ",
"{.M.1.>.(@)@_@v+:@<@z+_._._.z+<@:@,@& * ",
"{.+ 1.>.(@[@}@|@1@2@3@4@4@4@3@2@1@5@, * ",
"{.+ 1.>.(@6@7@|@8@9@0@&@&@&@0@9@8@a@, * ",
"{.M.1.>.(@i.7@k.b@c@O+}.}.}.O+c@b@d@, * ",
"{.+ 1.>.e@f@g@D+}+E+h@z+z+z+h@E+}+i@& * ",
"{.+ 1.>.(@6@7@D+8@E+h@z+z+z+h@E+}+i@, * ",
"{.M.1.>.j@)@}@D+b@'.&.p.p.p.&.'.,.k@, * ",
"{.C.1.>.l@m@n@o@p@k+&.w.w.w.l+k+r+q@, * ",
"(+(+_+(@r@s@t@u@v@E+*@O+O+O+w@A+I.q@& * ",
"x@(@y@r.z@A@B@C@=@-+&.D@D@D@Y.E@I.F@, * ",
"r.G@H@I@M+7+v+I.b+-+l+&.&.&..+b+N+J@, * ",
"K@L@M@<+7+3.N@u.e.=+5.5.5.5.%+O@R.P@, * ",
"A@Q@R@t@B@S@T@=@'.U@V@D@V@V@-+W@X.X@& * ",
"$.$.$.c.z.Y@$+Z@e.`@=+5.=+=+%. #.#& , * ",
"* -.;.>.c.+#d.,.O@`@=+=+=+=+%. #.#X@, * ",
"{.].+ >.@#c.##/.$#%#-+U@U@U@'.$#C@&#, * ",
"{.+ 1.>.*#=#Q.-#;#>#`@,#,#,#'#)#!#&#& * ",
"{.+ 1.>.~#{#R@d+T@$#%#]#]#]#E@^#/#&#, * ",
"{.+ 1.>.(#_#:#<#C@:@%#]#]#]#E@^#/#&#, * ",
"{.+ 1.>.[#}#|#1#2#1@3#4#4#4#3#5#6#&#, * ",
"{.+ 1.>.7#8#9#W.0#b@W@%#%#%#W@;#a#&#, * ",
"{.+ 1.>.b#c#d#e#f#g#l.h#h#h#l.i#f#&#& * ",
"{.+ 1.>.j#k#l#m#n#o#p#(+(+(+p#o#n#&#, * ",
"{.M.1.>.q#r#s#m#t#u#v#w#w#w#v#u#t#&#, * ",
"{.+ 1.>.q#r#s#m#t#u#v#w#w#w#v#u#t#&#, * ",
"{.+ 1.>.x#y#z#A#B#C#5#D#D#D#5#C#B#&#& * ",
"{.M.1.>.x#y#z#A#B#C#5#D#D#D#5#C#B#&#, * ",
"{.+ 1.>.x#y#z#A#B#E#5#D#D#D#5#E#B#&#, * ",
"{.+ 1.>.x#F#z#G#H#I#i#J#J#J#i#I#H#&#& * ",
"{.M.1.>.K#L#M#N#H#I#i#J#J#J#i#I#H#&#, * ",
"{.C.1.>.O#P#Q#m#B#I#R#J#J#J#R#I#B#&#, {.",
"(+(+_+S#T#U#V#W#B#X#Y#R#R#R#Y#X#B#W#Z#(+",
"`#S# $.$+$@$#$$$n#C#i#R#R#R#i#C#n#$$#$@$",
"%$&$*$=$-$;$>$,$'$)$o#!$~$!$o#)$'$,$>$;$",
"{${$]$@$V#^$/$($_$:$Y#Y#R#Y#Y#:$_$($/$<$",
"[$@$l#V#}$m#|$>.X#:$Y#R#R#R#Y#:$X#>.|$m#",
"$.$.$.1$2$3$4$5$6$)$7$!$!$!$7$)$6$5$$.$.",
"* -.;.>.8$2$9$0$a$b$)$)$7$)$)$b$a$% -.;+",
"{.].+ >.c$8$d$e$f$g$h$)$7$)$h$g$f$% & , ",
"{.+ 1.>.i$j$k$9$l$'$h$)$)$)$h$'$l$% , + ",
"{.+ 1.>.m$n$o$p$q$r$s$t$t$t$s$r$q$% , + ",
"{.+ 1.>.u$v$w$x$y$f$z$A$A$A$z$B$C$% , + ",
"{.+ 1.>.D$&$E$F$G$H$'$b$b$b$'$H$I$% , + ",
"{.+ 1.>.J$%$c$k$G$H$'$b$b$b$'$H$G$% , + ",
"{.+ 1.>.K$.$L$k$G$H$'$b$b$b$'$H$G$% , + ",
"{.+ 1.>.M$N$L$k$O$($P$6$6$6$P$Q$G$% , + ",
"{.M.1.>.M$R$S$k$T$U$V$W$W$W$V$Q$X$% , M.",
"{.+ 1.>.M$R$S$k$T$U$V$W$W$W$V$Q$X$% , + ",
"{.+ 1.>.M$R$S$k$T$U$V$W$W$W$V$Q$X$% , + ",
"{.M.1.>.Y$Z$`$ %.%,$+%'$'$'$+%@%9$% , M.",
"{.+ 1.>.#%$%%%&%W#*%=%-%-%-%=%*%;%% , + ",
"{.+ 1.>.M$Z$`$&%;%*%=%-%-%-%=%*%;%% , + ",
"{.M.1.>.>%.$,%'%W#,$)%V$V$V$)%,$.%% , M.",
"{.C.1.>.!%~%{%]%W#^%/%>.>.>./%^%(%% M.C."};
