/* XPM */
static char * filterbank__octave_separator_xpm[] = {
"3 17 8 1",
" 	c None",
".	c #9DA5B9",
"+	c #9CA5B8",
"@	c #9DA5B8",
"#	c #8D9AAE",
"$	c #8694A9",
"%	c #8694A8",
"&	c #79869B",
".+@",
"###",
"$$$",
"$$$",
"$$$",
"$$$",
"$$$",
"$$$",
"$$$",
"%%%",
"$$$",
"$$$",
"%%%",
"$$$",
"$$$",
"%%%",
"&&&"};
