/* XPM */
static char * global_toolbar__block_unset_repeat_pushed_xpm[] = {
"28 32 211 2",
"  	c None",
". 	c #144C7A",
"+ 	c #324554",
"@ 	c #334554",
"# 	c #414F5C",
"$ 	c #465461",
"% 	c #495764",
"& 	c #4B5966",
"* 	c #4B5A66",
"= 	c #4C5966",
"- 	c #4C5A67",
"; 	c #4E5C69",
"> 	c #465561",
", 	c #515F6B",
"' 	c #5B6975",
") 	c #606F7A",
"! 	c #64737E",
"~ 	c #65737F",
"{ 	c #65747F",
"] 	c #677581",
"^ 	c #647583",
"/ 	c #51606C",
"( 	c #63717D",
"_ 	c #72818D",
": 	c #7C8B97",
"< 	c #81909B",
"[ 	c #82919D",
"} 	c #83919D",
"| 	c #84939E",
"1 	c #7D8E9D",
"2 	c #495965",
"3 	c #5B6A76",
"4 	c #8796A1",
"5 	c #94A3AD",
"6 	c #9AA8B3",
"7 	c #9BAAB5",
"8 	c #000000",
"9 	c #9AA9B3",
"0 	c #9CAAB5",
"a 	c #9DABB6",
"b 	c #9DACB7",
"c 	c #93A4B3",
"d 	c #9FB6CB",
"e 	c #4D5C68",
"f 	c #61707C",
"g 	c #94A2AE",
"h 	c #A1B0BB",
"i 	c #A8B6C1",
"j 	c #A9B8C2",
"k 	c #F64949",
"l 	c #A2B0BA",
"m 	c #A2AFBA",
"n 	c #A5B3BD",
"o 	c #A6B4BF",
"p 	c #AAB9C4",
"q 	c #ABBAC5",
"r 	c #A1B2C2",
"s 	c #4E5D69",
"t 	c #99A7B2",
"u 	c #B3C1CC",
"v 	c #B1C0CB",
"w 	c #B1BFCA",
"x 	c #ACBAC4",
"y 	c #B0BDC8",
"z 	c #B2C0CB",
"A 	c #A6B8C7",
"B 	c #4E5D6A",
"C 	c #657480",
"D 	c #81909C",
"E 	c #99A8B3",
"F 	c #B5C4CF",
"G 	c #70CD81",
"H 	c #AEBCC7",
"I 	c #AABCCC",
"J 	c #4F5E6A",
"K 	c #9CABB6",
"L 	c #134B79",
"M 	c #A9BBCB",
"N 	c #A7B9C8",
"O 	c #134A78",
"P 	c #748084",
"Q 	c #727D80",
"R 	c #6F7C7E",
"S 	c #6D797C",
"T 	c #6C797C",
"U 	c #A4B5C4",
"V 	c #9DB4C9",
"W 	c #144A77",
"X 	c #737F83",
"Y 	c #6E7A7D",
"Z 	c #6F7B7D",
"` 	c #717D80",
" .	c #9CB3C7",
"..	c #707D81",
"+.	c #6F7B7E",
"@.	c #717D7F",
"#.	c #6F7C7F",
"$.	c #859198",
"%.	c #788489",
"&.	c #9AB1C5",
"*.	c #124977",
"=.	c #707D80",
"-.	c #707C80",
";.	c #788589",
">.	c #96A2AB",
",.	c #869298",
"'.	c #788488",
").	c #99AFC3",
"!.	c #124A78",
"~.	c #737E80",
"{.	c #778488",
"].	c #828E94",
"^.	c #9FACB5",
"/.	c #919DA5",
"(.	c #818D93",
"_.	c #98AFC3",
":.	c #737F82",
"<.	c #7A878A",
"[.	c #88949B",
"}.	c #99A5AE",
"|.	c #6E7B7E",
"1.	c #707C7E",
"2.	c #758185",
"3.	c #87939A",
"4.	c #93A3B0",
"5.	c #64737F",
"6.	c #727E7F",
"7.	c #727F82",
"8.	c #95A5B3",
"9.	c #7E8D98",
"0.	c #707D7F",
"a.	c #8C98A0",
"b.	c #99A9B8",
"c.	c #7F8E9A",
"d.	c #919FA9",
"e.	c #808C92",
"f.	c #95A2AA",
"g.	c #9EAFBE",
"h.	c #808F9B",
"i.	c #96A4AF",
"j.	c #A1AEB8",
"k.	c #7C898E",
"l.	c #727D7F",
"m.	c #9EABB4",
"n.	c #A3B4C4",
"o.	c #667580",
"p.	c #AAB8C2",
"q.	c #9BA9B1",
"r.	c #8A979E",
"s.	c #79858A",
"t.	c #747F82",
"u.	c #A6B3BD",
"v.	c #A6B8C8",
"w.	c #B0BFCA",
"x.	c #A7B4BE",
"y.	c #9AA8B1",
"z.	c #8B979E",
"A.	c #818C91",
"B.	c #929FA7",
"C.	c #919EA5",
"D.	c #AAB7C2",
"E.	c #A8BACA",
"F.	c #687782",
"G.	c #AFBDC8",
"H.	c #A9B7C1",
"I.	c #9EAAB2",
"J.	c #949FA6",
"K.	c #A0ACB6",
"L.	c #99A6AF",
"M.	c #737F84",
"N.	c #9DABB4",
"O.	c #6D7B87",
"P.	c #8796A2",
"Q.	c #9EADB8",
"R.	c #ADBCC7",
"S.	c #A4B2BC",
"T.	c #A1AEB7",
"U.	c #A3B0BA",
"V.	c #A3B1BB",
"W.	c #879399",
"X.	c #899399",
"Y.	c #879298",
"Z.	c #A6B4BE",
"`.	c #B2C1CC",
" +	c #8393A3",
".+	c #96A7B7",
"++	c #A2B3C3",
"@+	c #A5B6C6",
"#+	c #A3B5C4",
"$+	c #A6B8C6",
"%+	c #A0B1C1",
"&+	c #9AAAB8",
"*+	c #94A2AF",
"=+	c #94A3AF",
"-+	c #94A1AE",
";+	c #95A4B2",
">+	c #A8B9C9",
",+	c #99AFC4",
"'+	c #9EB5CA",
")+	c #9CB3C8",
"!+	c #9CB2C7",
"~+	c #9AB0C5",
"{+	c #97ADC1",
"]+	c #97ADC2",
"^+	c #98ADC1",
"/+	c #97ACC0",
"(+	c #98ADC0",
"_+	c #124A77",
":+	c #144B78",
"<+	c #154C79",
"[+	c #144B79",
". . . . . + + + + + + + + + + + + + + + + + @ . . . . . ",
". . . # $ % & * * * * * * * * * * * * * * * = - ; . . . ",
". . > , ' ) ! ~ ~ ~ ~ ~ ~ ~ ~ ~ ~ ~ ~ ~ ~ ~ { { ] ^ . . ",
". . / ( _ : < [ [ [ [ [ [ [ [ [ [ [ [ [ [ [ } } | 1 . . ",
". 2 3 _ 4 5 6 7 7 8 8 8 8 9 7 8 8 8 8 7 7 7 0 a b c d . ",
". e f : g h i j i 8 k k 8 l m 8 k k 8 n o i j p q r d . ",
". s ~ < t u v w 8 8 8 k k 8 8 k k 8 8 8 x y z u u A d . ",
". B C D E F 8 8 G G 8 k k 8 8 k k 8 G G 8 8 H w u I d . ",
". J C D K 8 G G G G 8 k k 8 8 k k 8 G G G G 8 H w I d L ",
". J C [ 8 G G G G G G 8 k 8 8 k 8 G G G G G G 8 H M d L ",
". s C 8 G G G G 8 8 8 8 k k k k 8 8 8 8 G G G G 8 N d O ",
". s C 8 G G G 8 P Q R 8 k k k k 8 S T T 8 G G G 8 U V W ",
". s 8 G G G 8 X Y Z T 8 k k k k 8 ` S T T 8 G G G 8  .W ",
". s 8 G G G 8 ..+.@.#.` 8 k k 8 $.%.` S T 8 G G G 8 &.*.",
". J 8 G G G 8 =.T +.-.;.8 k k 8 >.,.'.-.S 8 G G G 8 ).!.",
". J 8 G G G 8 #.+.~.{.].8 k k 8 ^./.(.P Y 8 G G G 8 _.!.",
". J 8 G G G 8 R R :.<.[.8 k k 8 }.8 8 8 |.8 G G G 8 _.L ",
". J ! 8 G G G 8 T 1.2.].8 k k 8 3.8 G 8 8 8 G G 8 4._.L ",
". J 5.8 G G G G 8 6.7.8 k k k k 8 8 G G G G G G 8 8.).L ",
". J 5.9.8 G G G 8 @.0.8 k 8 8 k 8 8 G G G G G 8 a.b.&.L ",
". J C c.d.8 G 8 Y Z T 8 k 8 8 k 8 8 G G G G 8 e.f.g. .. ",
". J C h.i.j.8 k.P l.+.8 k 8 8 k 8 8 G G G G 8 8 m.n.V . ",
". J o.} E p.q.r.s.t.8 k k 8 8 k k 8 G G G G G 8 u.v.d . ",
". J o.} 7 w.x.y.z.A.8 k 8 B.C.8 k 8 8 8 8 8 8 8 D.E.d . ",
". . F.| K p G.H.I.J.8 8 8 K.L.8 8 8 M.M.P s.[.N.x M . . ",
". . O.P.Q.R.z v x S.T.U.D.x V.f.z.W.W.X.Y.z.>.Z.`.M . . ",
". . .  +.+++N E.N @+#+n.$+A %+&+8.*+*+=+-+;+&+r >+. . . ",
". . . . . ,+V d d '+'+V '+)+!+~+{+]+^+^+/+(+,+_+L . . . ",
". . . . . . . . . . . . . . . L L !.:+<+<+[+!.. . . . . ",
". . . . . . . . . . . . . . . . . . . . . . . . . . . . ",
". . . . . . . . . . . . . . . . . . . . . . . . . . . . ",
". . . . . . . . . . . . . . . . . . . . . . . . . . . . "};
