/* XPM */
static char * global_toolbar__zoom_grabber_xpm[] = {
"13 32 56 1",
" 	c None",
".	c #C1EFEC",
"+	c #183855",
"@	c #184558",
"#	c #406C8E",
"$	c #406B8D",
"%	c #3D6788",
"&	c #3C6586",
"*	c #3B6485",
"=	c #396383",
"-	c #396182",
";	c #3F6A8B",
">	c #3E6889",
",	c #3A6384",
"'	c #396282",
")	c #386181",
"!	c #375F80",
"~	c #365E7E",
"{	c #386180",
"]	c #375F7F",
"^	c #345B7B",
"/	c #335979",
"(	c #325877",
"_	c #315776",
":	c #305574",
"<	c #355C7C",
"[	c #315676",
"}	c #2F5372",
"|	c #2E5271",
"1	c #335A7A",
"2	c #2F5573",
"3	c #2F5472",
"4	c #2C516F",
"5	c #2C4F6D",
"6	c #315675",
"7	c #2E5170",
"8	c #2D506F",
"9	c #2B4D6C",
"0	c #2A4C6A",
"a	c #305473",
"b	c #2F5272",
"c	c #284A69",
"d	c #284967",
"e	c #294C6A",
"f	c #284A68",
"g	c #284867",
"h	c #274765",
"i	c #254664",
"j	c #2C4E6D",
"k	c #2B4D6B",
"l	c #274966",
"m	c #254663",
"n	c #254463",
"o	c #294B69",
"p	c #254563",
"q	c #264765",
"             ",
"             ",
"             ",
"             ",
"             ",
"             ",
"             ",
"             ",
"...........  ",
".+++++++++.@ ",
".+#$%&*=-+.@@",
".+;>,')!~+.@@",
".+{]^/(_:+.@@",
".+~<([:}|+.@@",
".+1/23|45+.@@",
".+(678590+.@@",
".+ab590cd+.@@",
".+78efghi+.@@",
".+jklhmnn+.@@",
".+ofpnnnn+.@@",
" .+qnnnn+.@@ ",
"  .+nnn+.@@  ",
"   .+n+.@@   ",
"    .+.@@    ",
"     .@@     ",
"     @@      ",
"             ",
"             ",
"             ",
"             ",
"             ",
"             "};
