/* XPM */
static char * main_vu_xpm[] = {
"24 24 2 1",
" 	c #103C61",
".	c #154D7C",
"  ......................",
"  ......................",
"  ......................",
"  ......................",
"  ......................",
"  ......................",
"  ......................",
"  ......................",
"  ......................",
"  ......................",
"  ......................",
"  ......................",
"  ......................",
"  ......................",
"  ......................",
"  ......................",
"  ......................",
"  ......................",
"  ......................",
"  ......................",
"  ......................",
"  ......................",
"  ......................",
"  ......................"};
