/* XPM */
static char * panner__quad_top_xpm[] = {
"96 2 7 1",
" 	c None",
".	c #7D8A9F",
"+	c #B1B9C5",
"@	c #BAC1CC",
"#	c #C1C6CE",
"$	c #B6BAC0",
"%	c #B2B5BA",
"................................................................................................",
"++++++++++++++++++++++++++++++++++++++++++++++++++++++++++++++++++++++++++++++++++++++++++++@#$%"};
