/* XPM */
static char * rack__list_xpm[] = {
"32 32 4 1",
" 	c #154D7C",
".	c #C1EFEC",
"+	c #0D3557",
"@	c #000000",
"  ............................  ",
" .++++++++++++++++++++++++++++. ",
".+@@@@@@@@@@@@@@@@@@@@@@@@@@@@+.",
".+@@@@@@@@@@@@@@@@@@@@@@@@@@@@+.",
".+@@@@@@@@@@@@@@@@@@@@@@@@@@@@+.",
".+@@@@@@@@@@@@@@@@@@@@@@@@@@@@+.",
".+@@@@@@@@@@@@@@@@@@@@@@@@@@@@+.",
".+@@@@@@@@@@@@@@@@@@@@@@@@@@@@+.",
".+@@@@@@@@@@@@@@@@@@@@@@@@@@@@+.",
".+@@@@@@@@@@@@@@@@@@@@@@@@@@@@+.",
".+@@@@@@@@@@@@@@@@@@@@@@@@@@@@+.",
".+@@@@@@@@@@@@@@@@@@@@@@@@@@@@+.",
".+@@@@@@@@@@@@@@@@@@@@@@@@@@@@+.",
".+@@@@@@@@@@@@@@@@@@@@@@@@@@@@+.",
".+@@@@@@@@@@@@@@@@@@@@@@@@@@@@+.",
".+@@@@@@@@@@@@@@@@@@@@@@@@@@@@+.",
".+@@@@@@@@@@@@@@@@@@@@@@@@@@@@+.",
".+@@@@@@@@@@@@@@@@@@@@@@@@@@@@+.",
".+@@@@@@@@@@@@@@@@@@@@@@@@@@@@+.",
".+@@@@@@@@@@@@@@@@@@@@@@@@@@@@+.",
".+@@@@@@@@@@@@@@@@@@@@@@@@@@@@+.",
".+@@@@@@@@@@@@@@@@@@@@@@@@@@@@+.",
".+@@@@@@@@@@@@@@@@@@@@@@@@@@@@+.",
".+@@@@@@@@@@@@@@@@@@@@@@@@@@@@+.",
".+@@@@@@@@@@@@@@@@@@@@@@@@@@@@+.",
".+@@@@@@@@@@@@@@@@@@@@@@@@@@@@+.",
".+@@@@@@@@@@@@@@@@@@@@@@@@@@@@+.",
".+@@@@@@@@@@@@@@@@@@@@@@@@@@@@+.",
".+@@@@@@@@@@@@@@@@@@@@@@@@@@@@+.",
".+@@@@@@@@@@@@@@@@@@@@@@@@@@@@+.",
" .++++++++++++++++++++++++++++. ",
"  ............................  "};
