/* XPM */
static char * rack_toolbar__separator_xpm[] = {
"11 36 3 1",
" 	c None",
".	c #144C7A",
"+	c #487EAC",
"...........",
"...........",
"...........",
"...........",
"...........",
".....+.....",
".....+.....",
".....+.....",
".....+.....",
".....+.....",
".....+.....",
".....+.....",
".....+.....",
".....+.....",
".....+.....",
".....+.....",
".....+.....",
".....+.....",
".....+.....",
".....+.....",
".....+.....",
".....+.....",
".....+.....",
".....+.....",
".....+.....",
".....+.....",
".....+.....",
".....+.....",
"...........",
"...........",
"...........",
"...........",
"...........",
"...........",
"...........",
"..........."};
