/* XPM */
static char * rack_toolbar__show_back_xpm[] = {
"45 36 129 2",
"  	c None",
". 	c #144C7A",
"+ 	c #134B79",
"@ 	c #134B78",
"# 	c #134A77",
"$ 	c #134976",
"% 	c #134975",
"& 	c #124873",
"* 	c #124772",
"= 	c #124671",
"- 	c #134A78",
"; 	c #124670",
"> 	c #11436C",
", 	c #114169",
"' 	c #114067",
") 	c #11446D",
"! 	c #114068",
"~ 	c #103D63",
"{ 	c #000000",
"] 	c #0F395C",
"^ 	c #0F3B5E",
"/ 	c #124773",
"( 	c #12456F",
"_ 	c #134874",
": 	c #103E64",
"< 	c #B9E1F3",
"[ 	c #0E3658",
"} 	c #0F3A5E",
"| 	c #103F65",
"1 	c #103F66",
"2 	c #104066",
"3 	c #114168",
"4 	c #11426B",
"5 	c #11436D",
"6 	c #12446E",
"7 	c #12456E",
"8 	c #11426A",
"9 	c #103E63",
"0 	c #97CDE3",
"a 	c #99CFE4",
"b 	c #0D3454",
"c 	c #072640",
"d 	c #0E385B",
"e 	c #0F3A5D",
"f 	c #0F3B60",
"g 	c #103D62",
"h 	c #103C61",
"i 	c #99CDE3",
"j 	c #9ACFE4",
"k 	c #9ACFE5",
"l 	c #9DD1E5",
"m 	c #9ED1E6",
"n 	c #0E3758",
"o 	c #0E385A",
"p 	c #9BD0E5",
"q 	c #9DD0E5",
"r 	c #A0D3E7",
"s 	c #A2D3E8",
"t 	c #0C314E",
"u 	c #D5F6FB",
"v 	c #D4F4FA",
"w 	c #D3F4FA",
"x 	c #59A8C1",
"y 	c #0D3250",
"z 	c #9FD1E7",
"A 	c #A4D5E9",
"B 	c #A5D5E9",
"C 	c #0D3453",
"D 	c #8FC9E0",
"E 	c #CFF0F8",
"F 	c #CEF0F7",
"G 	c #CEEFF7",
"H 	c #CDEEF6",
"I 	c #CCEDF6",
"J 	c #CBEDF6",
"K 	c #CBEDF5",
"L 	c #0C2E4A",
"M 	c #A1D3E7",
"N 	c #A8D7EA",
"O 	c #A8D7EB",
"P 	c #104067",
"Q 	c #2F5556",
"R 	c #0B2C47",
"S 	c #A4D4E9",
"T 	c #AAD8EB",
"U 	c #ABD9ED",
"V 	c #0D314F",
"W 	c #0C2D49",
"X 	c #ACD9ED",
"Y 	c #ADDAED",
"Z 	c #D1F2F9",
"` 	c #0C2E4B",
" .	c #0C2F4C",
"..	c #0C304D",
"+.	c #0C304E",
"@.	c #AAD8EC",
"#.	c #AEDBED",
"$.	c #AFDBEE",
"%.	c #B0DCEE",
"&.	c #0C2F4B",
"*.	c #0B2A44",
"=.	c #0B2A43",
"-.	c #0B2B45",
";.	c #0B2D48",
">.	c #0D3352",
",.	c #0D3555",
"'.	c #0E3657",
").	c #0E3759",
"!.	c #B1DCEF",
"~.	c #0D3251",
"{.	c #0E3555",
"].	c #0F3B5F",
"^.	c #0C2F4D",
"/.	c #0F395B",
"(.	c #C8EBF3",
"_.	c #C6E8F2",
":.	c #0D3353",
"<.	c #C2E6F0",
"[.	c #C2E5F0",
"}.	c #C1E4EF",
"|.	c #C0E3EE",
"1.	c #BFE3EE",
"2.	c #BCE1ED",
"3.	c #BCE0ED",
"4.	c #BADFEB",
"5.	c #0F3C60",
"6.	c #B4DAE8",
"7.	c #B2D8E7",
"8.	c #0E3859",
". . . . . . . . . . . . . . . . . . . . . . . . . . . . . . . . . . . . . . . . . . . . . ",
". . . . . . . . . . . . . . . . . . . . . . . . . . . . . . . . . . . . . . . . . . . . . ",
". . . . . . . . . . . . . . . . . . . . . . . . . . . . . . . + + + + + + . . . . . . . . ",
". . . . . . . . . . . . . . . . . . . . . . . . . . . . . + @ # # $ $ # # @ + . . . . . . ",
". . . . . . . . . . . . . . . . . . . . . . . . . . . + @ # % & * = = * & % # @ + . . . . ",
"+ . . . . . . + + + + + + + + + + + + . . . . . . . + - $ & ; > , ' ' , > ; & $ @ + . . . ",
"@ + . . . . + - # $ $ % % % % $ $ # # - @ @ + + + @ # % * ) ! ~ { { ] ^ ~ ! ) * $ @ + . . ",
"# + . . . + # % / = ( ( ( ( ( ( ; = / _ % % % % $ % _ = > : { { < < { { [ } | > * $ @ . . ",
"$ + . . + # _ ; > ! 1 | : : : | 2 3 4 5 6 7 ( ( ( ( 6 8 9 { < < 0 a < < { b ] | ) & # + . ",
"$ + + + - % ; , c c c c c c c c d e f g 9 : : | 1 2 | h { < i j k l m m < { b } ! ; % @ . ",
"% @ + @ $ = 8 g c < < < < < < c c c c c c c n c o d o [ { < p q < < r s < { t [ g > & # + ",
"% @ + # & 5 9 c c u u u v w w x < < < < < < c < c y y { < m z < { { < A B < { C } , = # + ",
"% - - % ; ' c D x < < < < < < x E E F G H H I J K c L { < M s < { { < N O < { y d P ; $ + ",
"% - # & > g c D x < < < < < < x D D D D D D Q D c R R { < S A < { { < T U < { V o 1 ; $ + ",
"% # $ = , c w D c D D D D D D c c c c c c c R c W W L W { < O O < < X Y < { W y d P ; $ + ",
"% # $ ; 2 c Z D c c c c c c c c R W `  .....+.t V y y V { < @.X X #.$.%.< { &.C } , = # + ",
"% # % ( | c E D *.=.*.-.R ;.W L  .V >.,.'.n n ).o d o [ >.{ < < $.!.< < { W t [ g > & # + ",
"% # % ( | c H D c *.-.R W &...t ~.{.o ].g 9 : | 1 2 | h d C { { < < { { W ..b } ! ; % @ . ",
"$ # % ( | c K D D c -.R L ^.t y b n ].| 8 5 6 ( ( ( 6 8 9 /.b t { { W &.t b ] | ) & # + . ",
"$ - $ ; P /.c (.D D c c c c c c >.'.^ 1 5 = & % % % _ = > : } [ C ~.~.C [ } | > * $ @ . . ",
"# @ # * 8 f {.c _.D D D D D D D c >.).g 8 ; % # @ @ # % * ) ! ~ ^ ] ] ^ ~ ! ) * $ @ + . . ",
"# @ # _ 6 | /.:.c <.[.}.}.|.1.D D c >.d : 5 / # + + + - $ & ; > , ' ' , > ; & $ @ + . . . ",
"# + @ $ * > 9 o :.c c c c c c 2.3.D c b e ' ; % @ + . + @ # % & * = = * & % # @ + . . . . ",
"$ + + - % = 4 9 /.{.~.V ..^.` c 4.D c t [ g > & # + . . . + @ # # $ $ # # @ + . . . . . . ",
"$ + + + - % = > | f /.).[ {.>...c D D c C } , = # + . . . . . + + + + + + . . . . . . . . ",
"$ + . . + - % * 6 8 P | ~ 5./.,.c 6.D c ~./.P ; $ + . . . . . . . . . . . . . . . . . . . ",
"# + . . . + @ $ _ * ; ( 6 8 : ] c 7.D c y d 2 ; $ + . . . . . . . . . . . . . . . . . . . ",
"@ + . . . . + + - # $ % _ = > ~ 8.c c ..C e ' ; $ + . . . . . . . . . . . . . . . . . . . ",
"+ . . . . . . . + + + @ # % ; , 5.n b b ).h 4 * # + . . . . . . . . . . . . . . . . . . . ",
". . . . . . . . . . . . + # _ 7 ! h } } g ! ( _ - + . . . . . . . . . . . . . . . . . . . ",
". . . . . . . . . . . . . + # & ( 4 3 3 4 ( & # + . . . . . . . . . . . . . . . . . . . . ",
". . . . . . . . . . . . . + @ # % * = = * % # @ + . . . . . . . . . . . . . . . . . . . . ",
". . . . . . . . . . . . . . . . . . . . . . . . . . . . . . . . . . . . . . . . . . . . . ",
". . . . . . . . . . . . . . . . . . . . . . . . . . . . . . . . . . . . . . . . . . . . . ",
". . . . . . . . . . . . . . . . . . . . . . . . . . . . . . . . . . . . . . . . . . . . . ",
". . . . . . . . . . . . . . . . . . . . . . . . . . . . . . . . . . . . . . . . . . . . . "};
