/* XPM */
static char * rack_plugin_top__separator_xpm[] = {
"9 16 125 2",
"  	c None",
". 	c #31333E",
"+ 	c #32333E",
"@ 	c #4E5362",
"# 	c #3F424F",
"$ 	c #393C49",
"% 	c #393B4A",
"& 	c #393C4A",
"* 	c #424553",
"= 	c #3A3C48",
"- 	c #616773",
"; 	c #4E5364",
"> 	c #3F4253",
", 	c #3F4252",
"' 	c #515769",
") 	c #5E636F",
"! 	c #21212C",
"~ 	c #272733",
"{ 	c #646C7A",
"] 	c #424658",
"^ 	c #464A5C",
"/ 	c #5F6673",
"( 	c #252531",
"_ 	c #252530",
": 	c #262633",
"< 	c #2E2E3B",
"[ 	c #6C7382",
"} 	c #46495D",
"| 	c #45495D",
"1 	c #6F7685",
"2 	c #282734",
"3 	c #272735",
"4 	c #272734",
"5 	c #292938",
"6 	c #2B2C3B",
"7 	c #63697A",
"8 	c #4C5166",
"9 	c #545A6E",
"0 	c #5A5E6F",
"a 	c #2B2C3A",
"b 	c #2A2B38",
"c 	c #2D2E3D",
"d 	c #2D2E3E",
"e 	c #595E6E",
"f 	c #50546B",
"g 	c #575E72",
"h 	c #4F5363",
"i 	c #2F3040",
"j 	c #2F303F",
"k 	c #2C2E3C",
"l 	c #303142",
"m 	c #313345",
"n 	c #595E70",
"o 	c #51576E",
"p 	c #596075",
"q 	c #505465",
"r 	c #323445",
"s 	c #303141",
"t 	c #333548",
"u 	c #35374A",
"v 	c #585E71",
"w 	c #555B73",
"x 	c #5B6279",
"y 	c #505568",
"z 	c #36384B",
"A 	c #323545",
"B 	c #36394D",
"C 	c #383B50",
"D 	c #575D78",
"E 	c #5C637D",
"F 	c #51566A",
"G 	c #393C50",
"H 	c #393C51",
"I 	c #36394A",
"J 	c #3A3E53",
"K 	c #3C3F55",
"L 	c #575E74",
"M 	c #59607B",
"N 	c #5D657F",
"O 	c #52586D",
"P 	c #3D4056",
"Q 	c #383C4F",
"R 	c #3D4158",
"S 	c #3F435B",
"T 	c #575E75",
"U 	c #5A607E",
"V 	c #5E6581",
"W 	c #52596F",
"X 	c #40445C",
"Y 	c #42465D",
"Z 	c #3C4054",
"` 	c #41465E",
" .	c #444861",
"..	c #565E76",
"+.	c #5A627F",
"@.	c #5D6482",
"#.	c #535A72",
"$.	c #444962",
"%.	c #454A63",
"&.	c #3E4257",
"*.	c #454962",
"=.	c #474C66",
"-.	c #565D77",
";.	c #555E7D",
">.	c #59617F",
",.	c #545B74",
"'.	c #484E67",
").	c #484D67",
"!.	c #40455D",
"~.	c #484E69",
"{.	c #4A506C",
"].	c #565D79",
"^.	c #485270",
"/.	c #4D5774",
"(.	c #545C77",
"_.	c #4C516D",
":.	c #4B516D",
"<.	c #454B64",
"[.	c #4C536E",
"}.	c #4E5571",
"|.	c #555D7A",
"1.	c #35425C",
"2.	c #3C4862",
"3.	c #555D79",
"4.	c #4F5672",
". + + + + . + + + ",
"@ # $ $ $ % & $ * ",
"= - ; > , , , ' ) ",
"! ~ { ] ] ] ^ / ( ",
"_ : < [ } | 1 2 3 ",
"4 5 6 7 8 9 0 a a ",
"b c d e f g h i j ",
"k l m n o p q r r ",
"s t u v w x y z z ",
"A B C g D E F G H ",
"I J K L M N O P P ",
"Q R S T U V W X Y ",
"Z `  ...+.@.#.$.%.",
"&.*.=.-.;.>.,.'.).",
"!.~.{.].^./.(._.:.",
"<.[.}.|.1.2.3.4.4."};
