/* XPM */
static char * scrollbar_h_bg_xpm[] = {
"128 16 192 2",
"  	c None",
". 	c #2A2E3B",
"+ 	c #2A2E3C",
"@ 	c #2B2D3C",
"# 	c #2B2E3C",
"$ 	c #2B2D3B",
"% 	c #2E3140",
"& 	c #2E313F",
"* 	c #2E3141",
"= 	c #383B4E",
"- 	c #383C4E",
"; 	c #383C4F",
"> 	c #393C4E",
", 	c #383D4F",
"' 	c #393C4F",
") 	c #393D4F",
"! 	c #464C61",
"~ 	c #474B61",
"{ 	c #464B61",
"] 	c #464B62",
"^ 	c #474B62",
"/ 	c #464C62",
"( 	c #474C62",
"_ 	c #474C63",
": 	c #474C64",
"< 	c #4F566F",
"[ 	c #50566F",
"} 	c #50556F",
"| 	c #50576F",
"1 	c #51576F",
"2 	c #505670",
"3 	c #505770",
"4 	c #51566F",
"5 	c #515770",
"6 	c #515670",
"7 	c #515771",
"8 	c #515870",
"9 	c #515871",
"0 	c #525771",
"a 	c #525871",
"b 	c #525872",
"c 	c #515872",
"d 	c #525772",
"e 	c #535A73",
"f 	c #535A74",
"g 	c #535973",
"h 	c #181A21",
"i 	c #565C78",
"j 	c #545A74",
"k 	c #545A73",
"l 	c #202438",
"m 	c #212438",
"n 	c #191B22",
"o 	c #575C78",
"p 	c #565D78",
"q 	c #525973",
"r 	c #535972",
"s 	c #202437",
"t 	c #202538",
"u 	c #212539",
"v 	c #212538",
"w 	c #212639",
"x 	c #21263A",
"y 	c #21253A",
"z 	c #21263B",
"A 	c #22263A",
"B 	c #21273B",
"C 	c #22263B",
"D 	c #22273B",
"E 	c #22273C",
"F 	c #23273C",
"G 	c #22273D",
"H 	c #23273D",
"I 	c #23273E",
"J 	c #23283D",
"K 	c #24273D",
"L 	c #24273E",
"M 	c #23283E",
"N 	c #24283E",
"O 	c #24283F",
"P 	c #242840",
"Q 	c #24293F",
"R 	c #242940",
"S 	c #252940",
"T 	c #242A40",
"U 	c #252A40",
"V 	c #252A41",
"W 	c #252A42",
"X 	c #252B41",
"Y 	c #252B42",
"Z 	c #262A42",
"` 	c #262B42",
" .	c #262B43",
"..	c #272B43",
"+.	c #262B44",
"@.	c #565C77",
"#.	c #525972",
"$.	c #525971",
"%.	c #212439",
"&.	c #21273A",
"*.	c #252941",
"=.	c #242A41",
"-.	c #555B77",
";.	c #565C76",
">.	c #565B76",
",.	c #525870",
"'.	c #21273C",
").	c #22263C",
"!.	c #242941",
"~.	c #262B41",
"{.	c #555B75",
"].	c #555A75",
"^.	c #545B75",
"/.	c #22273A",
"(.	c #262A41",
"_.	c #545B74",
":.	c #545A75",
"<.	c #51586F",
"[.	c #50586F",
"}.	c #5A6076",
"|.	c #5B6076",
"1.	c #5A6176",
"2.	c #5B6176",
"3.	c #5B6177",
"4.	c #5B6277",
"5.	c #5C6177",
"6.	c #5B6178",
"7.	c #5C6278",
"8.	c #5C6277",
"9.	c #5C6279",
"0.	c #5D6279",
"a.	c #5D627A",
"b.	c #5D637A",
"c.	c #5E637A",
"d.	c #5E627A",
"e.	c #5D627B",
"f.	c #5E637B",
"g.	c #5D637B",
"h.	c #5E637C",
"i.	c #5E647B",
"j.	c #5F637C",
"k.	c #5E647C",
"l.	c #5F647C",
"m.	c #5E647D",
"n.	c #5F647D",
"o.	c #5F637D",
"p.	c #60647D",
"q.	c #5F657D",
"r.	c #60657D",
"s.	c #60657E",
"t.	c #61657E",
"u.	c #61657D",
"v.	c #60667E",
"w.	c #61667E",
"x.	c #60667F",
"y.	c #61667F",
"z.	c #62667F",
"A.	c #616680",
"B.	c #626780",
"C.	c #62677F",
"D.	c #626680",
"E.	c #616780",
"F.	c #626781",
"G.	c #626881",
"H.	c #626882",
"I.	c #50576E",
"J.	c #51576E",
"K.	c #525770",
"L.	c #535871",
"M.	c #535971",
"N.	c #525A72",
"O.	c #535A72",
"P.	c #50566D",
"Q.	c #50576D",
"R.	c #4F566E",
"S.	c #4F576E",
"T.	c #50566E",
"U.	c #51566E",
"V.	c #505870",
"W.	c #515971",
"X.	c #4F566C",
"Y.	c #4F556D",
"Z.	c #4F566D",
"`.	c #4F576D",
" +	c #51586E",
".+	c #515970",
"++	c #4F556B",
"@+	c #4E566C",
"#+	c #4F566B",
"$+	c #4E556C",
"%+	c #4F556C",
"&+	c #50586E",
". + . @ # # # # # # # $ $ $ $ $ $ $ $ $ $ $ $ $ $ $ $ $ $ $ $ $ $ $ $ $ $ $ $ $ $ $ $ $ $ $ $ $ $ $ $ $ $ $ $ $ $ $ $ $ $ $ $ $ $ $ $ $ $ $ $ $ $ $ $ $ $ $ $ $ $ $ $ $ $ $ $ $ $ $ $ $ $ $ $ $ $ $ $ $ $ $ $ $ $ $ $ $ $ $ $ $ $ $ $ $ $ $ $ $ $ $ $ $ $ $ $ $ ",
"% & % % % & % % % % % % % % % % % % % % % % % * * * * * % * * * * * % % % % % % % % % % % % % % % % % % % % % % % % % % % % % % % % % % % % % % % % % % % % % % % % % % % % % % % % % % % % % % % % % % % % % % % % % % % % % % % % % % % % % % % % % % % % % % ",
"= - - - - - - - - ; ; - - - - - - ; ; > , - , , , ' ' ' , ; ; ) ' , ) , ) ; ; ) , , ' ) ) ) ) ) , ' ) ) ' , ) ) ) ) ' ' ' ' ' ' ' ' ' ' ' ' ' ' ' ' ' ' ' ' ' ' ' ' ' ' ' ' ' ' ' ' ' ' ' ' ' ' ' ' ' ' ' ' ' ' ' ' ' ' ' ' ' ' ' ' ' ' ' ' ' ' ' ' ' ' ' ' ' ' ",
"! ~ { { { { ! { ~ ! ] ^ ] ] / ] ! ( ] / ( ( ] ( / / / ( ( ( ( / ( _ _ _ _ ( ( ( ( ( _ _ _ _ ( _ _ _ _ _ _ _ _ _ _ : _ : : _ _ _ : _ _ _ : : _ : : : : _ : : _ : : _ _ _ _ _ _ _ _ _ _ _ _ _ _ _ _ _ _ _ _ _ _ _ _ _ _ _ _ _ _ _ _ _ _ _ _ _ _ _ _ _ _ _ _ _ _ _ ",
"< < < < < [ } [ < [ [ < [ | [ [ | [ [ [ [ [ [ [ [ | [ | | [ | 1 [ 2 3 2 [ 4 5 5 5 5 | 6 6 | | 5 5 3 5 5 5 5 3 5 5 7 5 7 7 5 8 7 7 7 5 5 9 7 7 7 7 7 7 7 7 9 9 7 0 9 0 9 9 0 0 9 a a b 7 a b 9 b a c b b a b d b b 0 0 0 0 0 0 0 0 0 0 0 0 0 0 0 0 0 0 0 0 0 0 0 ",
"e f g g h h h h h h h h h h h h h h h h h h h h h h h h h h h h h h h h h h h h h h h h h h h h h h h h h h h h h h h h h h h h h h h h h h h h h h h h h h h h h h h h h h h h h h h h h h h h h h h h h h h h h h h h h h h h h h h h h h h h h h h h i i i i ",
"f e j k l m m m m m m m m m m m m m m m m m m m m m m m m m m m m m m m m m m m m m m m m m m m m m m m m m m m m m m m m m m m m m m m m m m m m m m m m m m m m m m m m m m m m m m m m m m m m m m m m m m m m m m m m m m m m m m m m m m m m m m n i o i p ",
"q g r g l s l m t m u v v m u u u u u w u w x x x y x x x z z x A x B B C D z C D D D E F E E E G H F H G E H H H I H H J K L M N L L M O M N N O O O O P O Q R R R P R R R S S T U S S S V U S U V T V V W V X V W Y Z ` W ` Y `  . ... ... .+. . .m n @.@.@.@.",
"#.b #.$.s l t v v l u m %.v u u u u w u w u x u x x x x x z z C x C &.D z B D D D D E E F E E E E E F F F H H H H H H I I I N M N N L M N O O O O O P R Q P P R R R P R R R R S R R S T U R *.=.V V U U V V V X W X Z Y Y  .` ` ` `  . . . ..... . .m n -.;.-.>.",
",.a a $.v l t m l v v v v u u v u u u w w y w w w w x x x x z z B &.A C B D D '.).B E E E E G E H H G G E H H H I H H I J M M M M M N O O O O O O O O Q O O P R Q R R R R R R T S T U S R !.S V U *.V V V V V ~.W Z ` ` W ` Y `  . . ... ....... ...m n {.].^.{.",
"8 8 8 8 t v v m v m u v t %.v u v w u w u w w w x x x x x z z x z C /.D D '.D D C D E D E F E G G H E H E H H H H H I H M L I N N I N O M O O O N O O O P O P R Q R R R R R R R R S S U R S U S U V V V W (.V ~.W ` X ` Y ` ` Y  . . . . . . .......+.n _.:.^.^.",
"| <.| [.}.|.1.1.1.2.2.2.2.3.2.2.3.3.4.5.4.3.6.7.7.7.8.7.9.9.0.0.9.7.9.0.9.0.0.0.a.a.a.a.a.b.a.a.b.c.d.e.c.c.f.g.f.h.h.i.j.h.k.j.l.l.m.n.l.o.n.n.n.p.n.n.n.n.q.r.q.p.r.r.s.r.s.r.t.u.t.t.v.v.w.x.w.y.w.z.y.A.y.B.z.C.y.D.D.B.B.E.F.B.F.F.F.G.F.F.F.G.H.G.j k f e ",
"| | I.I.I.I.I.| | J.| | | | [.| [.1 I.| | 1 | | 1 <.5 3 8 <.<.[.3 8 <.<.1 <.5 <.<.1 8 <.8 ,.8 K.8 8 8 8 8 8 ,.8 ,.9 ,.8 8 9 a 8 a a ,.9 $.a a $.$.a 9 $.$.$.$.a a $.a a b $.$.L.$.$.M.M.#.$.#.#.#.b r r r #.#.#.#.r r #.N.r g O.g g g r O.r q g e q r g g e e e ",
"P.Q.I.R.P.S.T.S.Q.T.R.I.I.P.T.I.S.I.T.I.[ I.I.I.I.J.I.| I.U.I.| | | J.| | 1 | | 1 | <.1 1 | 1 1 | 1 1 <.1 8 1 <.V.8 8 <.<.8 <.<.<.8 <.8 8 8 8 5 5 8 8 8 9 8 ,.,.,.$.a a ,.,.a ,.a W.9 9 a a a 9 a 9 $.a a 9 a b $.#.#.#.$.b #.#.$.a b r #.$.#.r $.#.b r $.#.r #.",
"X.Y.Z.X.P.X.Z.Z.P.Z.Z.P.Z.P.P.P.Z.Z.`.S.P.P.Z.P.P.P.T.T.P.T.T.T.I.I.R.I.P.P.Q.S.I.I.I.I.I.J.U.| I.I.I.I.I.J.| J. +| 1 I.| J.I.| I.[.| 1 <.<.| <.[.5 1 8 [.3 8 <.1 <.8 1 5 1 8 8 <.<.8 8 8 8 5 ,.8 ,.8 8 ,.8 ,.,.,.9 8 9 8 8 .+a 9 ,.$.$.$.$.a a a $.a $.$.$.$.#.",
"++@+#+$+%+@+@+$+%+@+X.X.X.X.X.@+X.Z.X.Z.X.%+X.X.X.X.Z.Z.X.Z.Z.Z.Z.`.Z.P.Z.`.P.R.Z.P.`.R.P.I.Q.`.R.I.P.`.Q.I.Q.Z.T.I.I.`.I.R.T.I.I.T.| S.I.I.[ I.I.I.| I.J.J.| I.1 I.I.I.1 J.1 1 1 | &+1 1 [.1 1 1 1 8 | 1 <.1 1 <.<.V.<.8 8 <.1 8 8 8 8 8 8 ,.8 8 ,.a 8 8 9 9 8 "};
