/* XPM */
static char * scrollbar_arrow_right_pushed_xpm[] = {
"16 16 70 1",
" 	c None",
".	c #184558",
"+	c #C1EFEC",
"@	c #183855",
"#	c #5B95BD",
"$	c #5C94BD",
"%	c #5B94BC",
"&	c #5B92BB",
"*	c #5A92BA",
"=	c #5A91BA",
"-	c #5B92BC",
";	c #5A91BB",
">	c #5891BA",
",	c #5890B8",
"'	c #588EB7",
")	c #578DB6",
"!	c #578DB5",
"~	c #578CB5",
"{	c #568CB4",
"]	c #568DB5",
"^	c #5589B3",
"/	c #5589B2",
"(	c #5588B1",
"_	c #5486B1",
":	c #5286B0",
"<	c #5285B0",
"[	c #5489B2",
"}	c #5488B1",
"|	c #5083AD",
"1	c #5082AC",
"2	c #5082AB",
"3	c #5081AA",
"4	c #4F7FAA",
"5	c #5182AC",
"6	c #4F81AB",
"7	c #507FAB",
"8	c #4D7DA6",
"9	c #4D7BA5",
"0	c #4C7BA5",
"a	c #4C7AA4",
"b	c #4E7DA7",
"c	c #4E7BA6",
"d	c #4D7BA6",
"e	c #4C7AA5",
"f	c #4974A0",
"g	c #49749F",
"h	c #48749F",
"i	c #4977A3",
"j	c #4976A0",
"k	c #4874A0",
"l	c #466F9B",
"m	c #466F99",
"n	c #456F99",
"o	c #47709B",
"p	c #456F9A",
"q	c #466F9A",
"r	c #436B96",
"s	c #436A95",
"t	c #436894",
"u	c #446B96",
"v	c #426A95",
"w	c #416691",
"x	c #406690",
"y	c #40658E",
"z	c #3F638D",
"A	c #416690",
"B	c #3E628C",
"C	c #3E618A",
"D	c #3E608A",
"E	c #3F628C",
".++++++++++++++.",
"++@@@@@@@@@@@@++",
"+@#######$%&*=@+",
"+@%-;=>,,')!~{@+",
"+@'!]{++^/(_:<@+",
"+@[}_:+++|1234@+",
"+@5167++++890a@+",
"+@bcde+++++fgh@+",
"+@ijkg+++++lmn@+",
"+@olpq++++rstt@+",
"+@uuvt+++wxyzz@+",
"+@Axyz++BCDDDD@+",
"+@AxyzEBBCDDDD@+",
"+@DDDDDDDDDDDD@+",
"++@@@@@@@@@@@@++",
".++++++++++++++."};
