/* XPM */
static char * sinth__filter_envelope_release_xpm[] = {
"43 14 107 2",
"  	c None",
". 	c #E5E5E5",
"+ 	c #F3F3F3",
"@ 	c #CDCDCD",
"# 	c #A8A8A8",
"$ 	c #3D3D3D",
"% 	c #414141",
"& 	c #CBCBCB",
"* 	c #CACBCA",
"= 	c #A2A3A2",
"- 	c #CCCCCC",
"; 	c #CBCCCC",
"> 	c #C9CACA",
", 	c #3C3C3C",
"' 	c #404040",
") 	c #C8C8C8",
"! 	c #9F9F9F",
"~ 	c #C9C9C9",
"{ 	c #3B3B3B",
"] 	c #3F3F3F",
"^ 	c #777777",
"/ 	c #898989",
"( 	c #BFBFBF",
"_ 	c #6D6D6D",
": 	c #444444",
"< 	c #676767",
"[ 	c #BCBCBC",
"} 	c #919191",
"| 	c #4D4D4D",
"1 	c #434343",
"2 	c #5B5B5B",
"3 	c #C6C5C5",
"4 	c #C5C5C5",
"5 	c #9B9B9B",
"6 	c #C6C6C6",
"7 	c #C6C7C7",
"8 	c #606060",
"9 	c #A7A8A8",
"0 	c #6A6A6A",
"a 	c #808080",
"b 	c #7B7B7B",
"c 	c #636363",
"d 	c #3E3E3E",
"e 	c #8D8E8E",
"f 	c #686969",
"g 	c #C3C2C2",
"h 	c #C3C3C2",
"i 	c #969896",
"j 	c #C3C3C4",
"k 	c #3A3A3A",
"l 	c #B7B7B8",
"m 	c #3D3D3E",
"n 	c #545455",
"o 	c #616162",
"p 	c #7E7E7F",
"q 	c #B2B2B3",
"r 	c #C0C0C0",
"s 	c #BFBFC0",
"t 	c #939393",
"u 	c #C1C1C0",
"v 	c #C1C1C1",
"w 	c #393939",
"x 	c #3D3D3C",
"y 	c #474747",
"z 	c #9C9C9B",
"A 	c #9C9C9C",
"B 	c #B9B9B8",
"C 	c #8A8A89",
"D 	c #6C6C6C",
"E 	c #4E4E4E",
"F 	c #BDBDBD",
"G 	c #BDBDBC",
"H 	c #8E8E8D",
"I 	c #BEBEBE",
"J 	c #383838",
"K 	c #696969",
"L 	c #6F6F6F",
"M 	c #8C8C8C",
"N 	c #787878",
"O 	c #4A4A4A",
"P 	c #646464",
"Q 	c #868686",
"R 	c #BABABA",
"S 	c #8B8B8B",
"T 	c #BBBBBB",
"U 	c #373737",
"V 	c #B4B4B4",
"W 	c #6B6B6B",
"X 	c #424242",
"Y 	c #686868",
"Z 	c #595959",
"` 	c #484848",
" .	c #B7B7B7",
"..	c #B9B8B8",
"+.	c #B5B4B4",
"@.	c #B4B5B4",
"#.	c #838383",
"$.	c #B6B6B6",
"%.	c #B5B6B5",
"&.	c #B2B2B1",
"*.	c #7F7F7E",
"=.	c #7F7F80",
"-.	c #7F807F",
";.	c #807F7F",
">.	c #7C7C7C",
",.	c #7C7C7B",
"'.	c #7C7B7C",
". . . . . . . . . . . . . . . . . . . . . . . . . . . . . . . . . . . . . . . . . . . ",
". + + + + + + + + + + + + + + + + + + + + + + + + + + + + + + + + + + + + + + + + + + ",
". + @ @ @ @ @ @ @ @ @ @ @ @ @ @ @ @ @ @ @ @ @ @ @ @ @ @ @ @ @ @ @ @ @ @ @ @ @ @ @ @ # ",
". + @ @ @ @ @ @ @ @ @ @ @ @ @ @ @ @ @ @ @ @ @ $ % @ @ @ @ @ @ @ @ @ @ @ @ @ @ @ & * = ",
". + - - - - ; - ; - ; - - - > - ; - - ; - ; - , ' ; - - - ; - ; - - - - - ; - ; ) ) ! ",
". + ~ ~ ~ ~ ~ ~ ~ ~ { ] ^ % / ( _ : ' < [ ~ ~ { ] ~ ~ } | $ 1 2 ~ ~ ~ ~ ~ ~ ~ ~ 3 4 5 ",
". + 6 6 6 6 7 6 7 6 { { 8 } 9 0 ' a b { c 7 6 { d 7 6 % { e / f 6 6 6 6 6 7 6 7 g h i ",
". + j j j j j j j j k k l j j ' k k k k m j j k m j j n k o p q j j j j j j j j r s t ",
". + u u u u v u v u w x u u v ' y z z A 5 v u w x v u B C D w E u u u u u v u v F G H ",
". + I I I I I I I I J , I I I K J L M N O I I J , I I P Q Q w ' I I I I I I I I R R S ",
". + T T T T T T T T U { T T T V W X w y Y T T U { T T Z ] J ` M T T T T T T T T  . .Q ",
". + ........B ..B ..B ......B ..B ....B ..B ..B ..B ......B ..B ..........B ..B +.@.#.",
". B $.$.$.$.%.$.%.$.%.$.$.$.%.$.%.$.$.%.$.%.$.%.$.%.$.$.$.%.$.%.$.$.$.$.$.%.$.%.&.&.*.",
"=.=.=.=.-.a =.-.;.a =.-.;.-.;.a =.-.-.;.a =.-.;.a =.-.-.-.;.a =.-.;.=.-.-.;.-.>.,.'.'."};
