/* XPM */
static char * sinth__osctune_osc2_fine_label_xpm[] = {
"46 13 39 1",
" 	c None",
".	c #6C778C",
"+	c #6B768B",
"@	c #464E5C",
"#	c #0B0C0F",
"$	c #000000",
"%	c #6A768A",
"&	c #090B0C",
"*	c #586272",
"=	c #6A758A",
"-	c #07080A",
";	c #424956",
">	c #646E82",
",	c #272B32",
"'	c #060608",
")	c #030304",
"!	c #1D2026",
"~	c #5C6578",
"{	c #697489",
"]	c #404653",
"^	c #555E6F",
"/	c #08090A",
"(	c #252830",
"_	c #4C5463",
":	c #545D6E",
"<	c #181A1F",
"[	c #656F84",
"}	c #687387",
"|	c #040506",
"1	c #010101",
"2	c #677489",
"3	c #050506",
"4	c #5F6B7F",
"5	c #252931",
"6	c #303640",
"7	c #647186",
"8	c #677388",
"9	c #616D81",
"0	c #292E36",
"..............................................",
".................................++...........",
"++++++++++++++++++++++++++++++++++++++++++++++",
"+++++++++++@#$$+$$+++++++++++++++%%+++++++++++",
"%%%%%%%%%%%&$*%%$$%%%%%%%%%%%%%%%==%%%%%%%%%%%",
"===========$$=================================",
"==========$$$$$=$$==$$$$-;==>,')!~{===========",
"{{{{{{{{{{{$${{{$${{$$]^$/{{($_:$<{{{{{{{{{{{{",
"{{{{{{{{{{{$${{{$${{$$[}$${{|$$$$12{{{{{{{{{{{",
"22222222222$$222$$22$$22$$223$4222222222222222",
"22222222222$$222$$22$$22$$225$6728822222222222",
"88888888888$$888$$88$$88$$8890/$$$888888888888",
"8888888888888888888888888888888888888888888888"};
