/* XPM */
static char * sinth__osctune_osc2_coarse_label_xpm[] = {
"46 17 90 1",
" 	c None",
".	c #788498",
"+	c #788397",
"@	c #778397",
"#	c #FFFFFF",
"$	c #778297",
"%	c #778296",
"&	c #768296",
"*	c #768195",
"=	c #758195",
"-	c #758095",
";	c #6F798D",
">	c #2D323A",
",	c #08090B",
"'	c #000000",
")	c #6C768A",
"!	c #272B32",
"~	c #050607",
"{	c #272A31",
"]	c #030404",
"^	c #171A1E",
"/	c #596171",
"(	c #4C5361",
"_	c #0F1113",
":	c #000101",
"<	c #6E788C",
"[	c #2B2F36",
"}	c #060708",
"|	c #202329",
"1	c #667082",
"2	c #758094",
"3	c #292D34",
"4	c #383D47",
"5	c #727D91",
"6	c #4E5563",
"7	c #636C7D",
"8	c #101114",
"9	c #464C58",
"0	c #747F93",
"a	c #070809",
"b	c #040405",
"c	c #5A6272",
"d	c #555D6B",
"e	c #5E6676",
"f	c #1B1D22",
"g	c #050606",
"h	c #6D778A",
"i	c #050506",
"j	c #707B8E",
"k	c #535A69",
"l	c #15171A",
"m	c #020303",
"n	c #090A0C",
"o	c #0B0C0E",
"p	c #22252B",
"q	c #5A6372",
"r	c #010101",
"s	c #748093",
"t	c #6C7789",
"u	c #6F7B8D",
"v	c #6F7A8D",
"w	c #5B6574",
"x	c #23262C",
"y	c #010202",
"z	c #101215",
"A	c #6B7688",
"B	c #383E48",
"C	c #727D90",
"D	c #262A31",
"E	c #4D5562",
"F	c #08080A",
"G	c #606A7A",
"H	c #434955",
"I	c #5F6879",
"J	c #09090B",
"K	c #292D35",
"L	c #363B45",
"M	c #717C90",
"N	c #6E788B",
"O	c #2D3139",
"P	c #6B7588",
"Q	c #262930",
"R	c #4B525F",
"S	c #000001",
"T	c #4E5764",
"U	c #2E323A",
"V	c #737F93",
"W	c #737F92",
"X	c #727E92",
"Y	c #717E91",
".................................++...........",
"+++++++++++++++++++++++++++++++++@@+++++++++++",
"##############################################",
"$$$$$$$$$$$$$$$$$$$$$$$$$$$$$$$$$%%$$$$$$$$$$$",
"%%%%%%%%%%%%%%%%%%%%%%%%%%%%%%%%%&&%%%%%%%%%%%",
"&&&&&&&&&&&&&&&&&&&&&&&&&&&&&&&&&**&&&&&&&&&&&",
"*********************************==***********",
"=================================--===========",
"--;>,''--)!~~{)---'']^/--''''-(_:''--<[}]|1---",
"223'45222{'66'{222227'822''902abc22223'de'f222",
"22g'h2222i'jj'g22klm'''22''j22n'opq22g''''r222",
"ssg'tssssi'uv'gssn'wj''ss''ssswxy'zss~'Assssss",
"003'BC000D'EE'D00F'GH''00''00000I'J00K'LM00000",
"00NOF''00PDiiQP00RJ''''00''000''S8T00NUJ'''000",
"VVVVVVVVVVVVVVVVVVVVVVVVVVVVVVVVVWWVVVVVVVVVVV",
"WWWWWWWWWWWWWWWWWWWWWWWWWWWWWWWWWXXWWWWWWWWWWW",
"XXXXXXXXXXXXXXXXXXXXXXXXXXXXXXXXXYYXXXXXXXXXXX"};
