/* XPM */
static char * sinth__filter_mode_lpf_xpm[] = {
"21 14 56 1",
" 	c None",
".	c #E5E5E5",
"+	c #F3F3F3",
"@	c #CDCDCD",
"#	c #A8A8A8",
"$	c #CBCBCB",
"%	c #A2A3A2",
"&	c #CCCCCC",
"*	c #CBCCCC",
"=	c #3C3C3C",
"-	c #C8C8C8",
";	c #9F9F9F",
">	c #C9C9C9",
",	c #3B3B3B",
"'	c #C6C5C5",
")	c #9B9B9B",
"!	c #C6C6C6",
"~	c #C6C7C7",
"{	c #C3C2C2",
"]	c #969896",
"^	c #C3C3C4",
"/	c #3A3A3A",
"(	c #C0C0C0",
"_	c #939393",
":	c #C1C1C0",
"<	c #393939",
"[	c #C1C1C1",
"}	c #BDBDBD",
"|	c #8E8E8D",
"1	c #BEBEBE",
"2	c #383838",
"3	c #BABABA",
"4	c #8B8B8B",
"5	c #BBBBBB",
"6	c #373737",
"7	c #B7B7B7",
"8	c #868686",
"9	c #B9B8B8",
"0	c #373636",
"a	c #373736",
"b	c #B9B9B8",
"c	c #B5B4B4",
"d	c #838383",
"e	c #B6B6B6",
"f	c #B5B6B5",
"g	c #B5B5B5",
"h	c #B1B2B1",
"i	c #B2B2B1",
"j	c #7F7F7E",
"k	c #7F7F80",
"l	c #7F807F",
"m	c #808080",
"n	c #807F7F",
"o	c #7C7C7C",
"p	c #7C7C7B",
"q	c #7C7B7C",
".....................",
".++++++++++++++++++++",
".+@@@@@@@@@@@@@@@@@@#",
".+@@@@@@@@@@@@@@@@@$%",
".+&&&&&*&*===&&&*&*-;",
".+>>>>>>>,,,,,>>>>>')",
".+!!,,,,,,,,,,!!~!~{]",
".+^^///////////^^^^(_",
".+::<<<<<<<<<<<:[:[}|",
".+1122222222222111134",
".+5566666666666655578",
".+99000a0a0a0000b9bcd",
".beffeffgeffeffgghiij",
"kkkklmklnmklmklnlopqq"};
