/* XPM */
static char * sinth__routing_strength_xpm[] = {
"30 30 219 2",
"  	c None",
". 	c #6F7B90",
"+ 	c #6E7A8F",
"@ 	c #6D798E",
"# 	c #6C788D",
"$ 	c #6C788B",
"% 	c #6B778B",
"& 	c #6B778C",
"* 	c #6C788C",
"= 	c #6F7B8F",
"- 	c #6E7A8E",
"; 	c #6E7A8D",
"> 	c #848D9B",
", 	c #A0A5AD",
"' 	c #B4B7BB",
") 	c #C3C4C6",
"! 	c #CCCCCC",
"~ 	c #C2C3C5",
"{ 	c #B3B6BA",
"] 	c #9EA2AB",
"^ 	c #818A97",
"/ 	c #687487",
"( 	c #6B7689",
"_ 	c #6F7A8F",
": 	c #6E798E",
"< 	c #6D788C",
"[ 	c #9298A4",
"} 	c #BCBEC1",
"| 	c #CDCDCD",
"1 	c #CDCCCC",
"2 	c #CCCCCD",
"3 	c #CCCDCC",
"4 	c #CCCDCD",
"5 	c #BABCBF",
"6 	c #8E939F",
"7 	c #677184",
"8 	c #6A7589",
"9 	c #6D798C",
"0 	c #7E8797",
"a 	c #B4B6BB",
"b 	c #B2B4B8",
"c 	c #777F8E",
"d 	c #677285",
"e 	c #6A768A",
"f 	c #8B93A0",
"g 	c #C9CACA",
"h 	c #CBCBCB",
"i 	c #CACACB",
"j 	c #838A96",
"k 	c #657082",
"l 	c #6A7689",
"m 	c #8B929F",
"n 	c #828894",
"o 	c #646E81",
"p 	c #6A7488",
"q 	c #6D788D",
"r 	c #6C778C",
"s 	c #7D8596",
"t 	c #C8C9C9",
"u 	c #CACACA",
"v 	c #CBCACA",
"w 	c #CACBCA",
"x 	c #CACBCB",
"y 	c #CBCACB",
"z 	c #727987",
"A 	c #6A7489",
"B 	c #6A758A",
"C 	c #CAC9CA",
"D 	c #CAC9C9",
"E 	c #CACAC9",
"F 	c #B0B2B5",
"G 	c #5E6779",
"H 	c #667084",
"I 	c #6B768A",
"J 	c #9096A2",
"K 	c #C9C9C9",
"L 	c #868C95",
"M 	c #606A7D",
"N 	c #677286",
"O 	c #697489",
"P 	c #BBBDC0",
"Q 	c #B8B9BC",
"R 	c #5B6476",
"S 	c #646E82",
"T 	c #828A99",
"U 	c #C8C8C8",
"V 	c #757B87",
"W 	c #697488",
"X 	c #9EA3AC",
"Y 	c #9599A0",
"Z 	c #5C6678",
"` 	c #667185",
" .	c #B3B5BA",
"..	c #C7C7C7",
"+.	c #C8C7C7",
"@.	c #C7C8C8",
"#.	c #C8C8C7",
"$.	c #C8C7C8",
"%.	c #C7C7C8",
"&.	c #AEB0B4",
"*.	c #586172",
"=.	c #656F83",
"-.	c #C3C4C5",
";.	c #C0C0C2",
">.	c #555E6F",
",.	c #FFFFFF",
"'.	c #C5C5C5",
").	c #C6C6C6",
"!.	c #535C6C",
"~.	c #636D81",
"{.	c #515A6A",
"].	c #C2C3C4",
"^.	c #C6C5C6",
"/.	c #C5C6C5",
"(.	c #C5C5C6",
"_.	c #C5C6C6",
":.	c #C6C5C5",
"<.	c #C6C6C5",
"[.	c #626C80",
"}.	c #B2B4B9",
"|.	c #C5C4C5",
"1.	c #C5C5C4",
"2.	c #C4C5C5",
"3.	c #ADAFB2",
"4.	c #525A6B",
"5.	c #9BA0A8",
"6.	c #C4C4C4",
"7.	c #92959C",
"8.	c #545C6D",
"9.	c #626F83",
"0.	c #7C8593",
"a.	c #6D747F",
"b.	c #545F70",
"c.	c #647185",
"d.	c #616D81",
"e.	c #B9BBBE",
"f.	c #C3C3C3",
"g.	c #C3C3C4",
"h.	c #B7B8BA",
"i.	c #4D5767",
"j.	c #586375",
"k.	c #657185",
"l.	c #636E83",
"m.	c #89909B",
"n.	c #7E838C",
"o.	c #515B6B",
"p.	c #5C6679",
"q.	c #667286",
"r.	c #647085",
"s.	c #5F6A7E",
"t.	c #B0B3B7",
"u.	c #C2C3C3",
"v.	c #C3C3C2",
"w.	c #C3C2C2",
"x.	c #C2C2C2",
"y.	c #C2C2C3",
"z.	c #C3C2C3",
"A.	c #C2C3C2",
"B.	c #ACAEB1",
"C.	c #4C5565",
"D.	c #566072",
"E.	c #677388",
"F.	c #626E82",
"G.	c #727A89",
"H.	c #C9C9CA",
"I.	c #636A76",
"J.	c #525C6C",
"K.	c #667287",
"L.	c #606C80",
"M.	c #7F8692",
"N.	c #C1C1C1",
"O.	c #747A84",
"P.	c #4F5869",
"Q.	c #667387",
"R.	c #657286",
"S.	c #636F83",
"T.	c #5E697C",
"U.	c #7D8590",
"V.	c #747A83",
"W.	c #4E5767",
"X.	c #566071",
"Y.	c #626D82",
"Z.	c #5D687B",
"`.	c #6D7583",
" +	c #AEB1B4",
".+	c #C0C1C0",
"++	c #C0C0C0",
"@+	c #C0C0C1",
"#+	c #C0C1C1",
"$+	c #C1C0C0",
"%+	c #626975",
"&+	c #4E5868",
"*+	c #586274",
"=+	c #838993",
"-+	c #B7B9BB",
";+	c #4C5464",
">+	c #515B6C",
",+	c #657184",
"'+	c #636E82",
")+	c #5F6A7D",
"!+	c #5A6576",
"~+	c #545E6E",
"{+	c #8B8F95",
"]+	c #A0A2A5",
"^+	c #ADAEAF",
"/+	c #B5B5B5",
"(+	c #B4B4B4",
"_+	c #AAAAAB",
":+	c #999B9E",
"<+	c #83878D",
"[+	c #646A74",
"}+	c #48515F",
"|+	c #4E5766",
"1+	c #647083",
"2+	c #626D80",
"3+	c #5A6577",
"4+	c #4F5868",
"5+	c #4E5666",
"6+	c #4C5564",
". . . . . . . . . + + @ # $ % % % & * # @ + + . . . . . . . ",
"= = = = = = = - ; * > , ' ) ! ! ~ { ] ^ / ( * ; - = = = = = ",
"_ _ _ _ _ _ : < [ } | ! 1 | 2 3 2 1 4 ! 5 6 7 8 < : _ _ _ _ ",
"- - - - - 9 0 a ! ! ! ! ! ! ! ! ! ! ! ! ! ! b c d e 9 - - - ",
"- - - - 9 f g h h h h h h h h h h h h h h h h i j k l 9 - - ",
": : : < m h h h h h h h h h h h h h h h h h h h h n o p < : ",
"q q r s t u u u u u i v u w v x u y u u u u i u u i z o A r ",
"q r B a C g u C D u u u u E u C u g u u u u E u u E F G H B ",
"r I J K K K K K K K K K K K K K K K K K K K K K K K K L M N ",
"I O P K K K K K K K K K K K K K K K K K K K K K K K K Q R S ",
"8 T U U U U U U U U U U U U U U U U U U U U U U U U U U V M ",
"W X U U U U U U U U U U U U U U U U U U U U U U U U U U Y Z ",
"`  ...+.@.@.#.$.+.+.$.#.+...@.U +.@.+.+.%.%.%...@.....%.&.*.",
"=.-.....................................................;.>.",
",.'.).).).).).).).).).).).).).).).).).).).).).).).).).).i !.",
"~.'.).).).).).).).).).).).).).).).).).).).).).).).).).).i {.",
"~.].'.^./.'./.'.(.(._.'.'./.'.(.(././.^.(.'.:.).'.<.'./.;.{.",
"[.}.|.1.'.'.'.'.'.|.'.'.'.2.'.'.'.'.'.'.'.'.'.2.'.'.'.1.3.4.",
"~.5.6.6.6.6.6.6.6.6.6.6.6.6.6.6.6.6.6.6.6.6.6.6.6.6.6.6.7.8.",
"9.0.6.6.6.6.6.6.6.6.6.6.6.6.6.6.6.6.6.6.6.6.6.6.6.6.6.6.a.b.",
"c.d.e.f.f.f.f.f.f.f.f.f.f.f.f.f.f.f.f.f.f.f.g.f.f.f.f.h.i.j.",
"k.l.m.f.f.f.f.f.f.f.f.f.f.f.f.f.f.f.f.f.f.f.f.f.f.f.f.n.o.p.",
"q.r.s.t.u.v.w.u.x.y.w.w.f.u.u.y.w.x.f.f.z.A.A.y.f.v.B.C.D.s.",
"E.q.F.G.u x.x.x.x.x.x.x.x.x.x.x.x.x.x.x.x.x.x.x.x.H.I.J.p.F.",
"E.K.r.L.M.N.N.N.N.N.N.N.N.N.N.N.N.N.N.N.N.N.N.N.N.O.P.j.L.r.",
"Q.Q.R.S.T.U.u N.N.N.N.N.N.N.N.N.N.N.N.N.N.N.N.H.V.W.X.T.S.R.",
"K.K.K.k.Y.Z.`. +.+++++@+++++++.+#+$+@+++++@+B.%+&+X.Z.Y.k.K.",
"K.K.K.K.k.F.T.*+=+-+++++++++++++++++++++h.n.;+>+*+T.F.k.K.K.",
"q.q.q.q.q.,+'+)+!+~+a.{+]+^+/+(+_+:+<+[+}+|+~+!+)+'+,+q.q.q.",
"q.q.q.q.q.q.k.1+2+T.3+X.J.4+5+6+6+|+4+J.X.3+T.2+1+k.q.q.q.q."};
