/* XPM */
static char * top__octave_top_xpm[] = {
"39 6 52 1",
" 	c None",
".	c #2F303A",
"+	c #2F3039",
"@	c #2E3039",
"#	c #2E303A",
"$	c #2F313A",
"%	c #32343F",
"&	c #32343E",
"*	c #33343F",
"=	c #33333F",
"-	c #32333F",
";	c #353844",
">	c #363844",
",	c #363744",
"'	c #363843",
")	c #353743",
"!	c #353744",
"~	c #393B49",
"{	c #383B49",
"]	c #393C49",
"^	c #393C4A",
"/	c #383B4A",
"(	c #393B4A",
"_	c #383C49",
":	c #9FA9B1",
"<	c #A0A8B0",
"[	c #9FA8B0",
"}	c #9FA9B0",
"|	c #9FA8AF",
"1	c #9EA7AF",
"2	c #9EA8B0",
"3	c #9EA8AF",
"4	c #9EA7B0",
"5	c #9FA7AF",
"6	c #9FA7B0",
"7	c #A0A9B1",
"8	c #A0A9B0",
"9	c #717B90",
"0	c #3C3F4F",
"a	c #3C3F4E",
"b	c #1E1D27",
"c	c #1F1C26",
"d	c #1E1C26",
"e	c #1E1D26",
"f	c #1F1C27",
"g	c #1F1D26",
"h	c #1E1C27",
"i	c #1F1D27",
"j	c #3B3E54",
"k	c #9EA6AF",
"l	c #3E4152",
"m	c #3E4252",
"...++.@..++.@..#......@$....@+...++.@..",
"%&*%%*%%*%%*%%%%=%&-*-&*%&%=%*%&*%%*%%%",
";>;,,';;;,,';;>,>;;>,,;,)>!,;!;>;,,';;>",
"~~{]^~~~{]^~~~~/(_~~{]{]~~~~~~~~{]^~~~~",
":<[<}}[<[}|1[12344562464<7<:87:87890aa0",
"bcdeeeddcccefeddbeggbhedbgbddeegdij9klm"};
