/* XPM */
static char * top__octave_end_xpm[] = {
"15 38 224 2",
"  	c None",
". 	c #2E303A",
"+ 	c #2F303A",
"@ 	c #2E3039",
"# 	c #2F3039",
"$ 	c #32343F",
"% 	c #33333F",
"& 	c #32343E",
"* 	c #32333F",
"= 	c #33343F",
"- 	c #363744",
"; 	c #363844",
"> 	c #353844",
", 	c #353744",
"' 	c #363843",
") 	c #383B4A",
"! 	c #393B4A",
"~ 	c #383C49",
"{ 	c #393B49",
"] 	c #383B49",
"^ 	c #393C49",
"/ 	c #393C4A",
"( 	c #3C3E4E",
"_ 	c #3C3F4E",
": 	c #3C3F4F",
"< 	c #3D3F4E",
"[ 	c #3E4152",
"} 	c #3E4252",
"| 	c #3E4151",
"1 	c #3F4152",
"2 	c #3F4151",
"3 	c #3E4251",
"4 	c #3F4252",
"5 	c #3F4354",
"6 	c #404354",
"7 	c #404353",
"8 	c #404254",
"9 	c #3F4353",
"0 	c #717B90",
"a 	c #414456",
"b 	c #414556",
"c 	c #414557",
"d 	c #959FA9",
"e 	c #434658",
"f 	c #424658",
"g 	c #424558",
"h 	c #434558",
"i 	c #434659",
"j 	c #262633",
"k 	c #939CA8",
"l 	c #43485A",
"m 	c #43475A",
"n 	c #44485A",
"o 	c #44475A",
"p 	c #44475B",
"q 	c #292936",
"r 	c #45495C",
"s 	c #45495D",
"t 	c #292A38",
"u 	c #3B3E54",
"v 	c #474A5F",
"w 	c #474A5E",
"x 	c #464B5E",
"y 	c #474B5E",
"z 	c #464A5E",
"A 	c #464B5F",
"B 	c #2C2D3C",
"C 	c #2C2E3D",
"D 	c #8B94A2",
"E 	c #474C60",
"F 	c #484B60",
"G 	c #474B60",
"H 	c #484C61",
"I 	c #474C61",
"J 	c #484C60",
"K 	c #484B61",
"L 	c #2E2F3E",
"M 	c #2E2F3F",
"N 	c #8891A1",
"O 	c #494D63",
"P 	c #494D62",
"Q 	c #494E63",
"R 	c #494E62",
"S 	c #2F3140",
"T 	c #303242",
"U 	c #868F9F",
"V 	c #4A4F64",
"W 	c #4A4F65",
"X 	c #4B4F64",
"Y 	c #4A4E65",
"Z 	c #4A4E64",
"` 	c #4B4F65",
" .	c #323346",
"..	c #848D9D",
"+.	c #4C5167",
"@.	c #4C5066",
"#.	c #4B5067",
"$.	c #4C5067",
"%.	c #323345",
"&.	c #343648",
"*.	c #808A9B",
"=.	c #4D5269",
"-.	c #4D5169",
";.	c #4D5168",
">.	c #4D5268",
",.	c #333648",
"'.	c #35374B",
").	c #7D8799",
"!.	c #4F546B",
"~.	c #4F536A",
"{.	c #4F536B",
"].	c #4E546B",
"^.	c #4E536B",
"/.	c #35384A",
"(.	c #373A4E",
"_.	c #7A8497",
":.	c #4F556D",
"<.	c #50556D",
"[.	c #4F546D",
"}.	c #50546D",
"|.	c #373B4D",
"1.	c #393C52",
"2.	c #788195",
"3.	c #51566F",
"4.	c #515770",
"5.	c #515670",
"6.	c #51576F",
"7.	c #393B50",
"8.	c #3B3F54",
"9.	c #757F94",
"0.	c #535771",
"a.	c #525871",
"b.	c #535871",
"c.	c #525872",
"d.	c #525771",
"e.	c #535872",
"f.	c #3B3F55",
"g.	c #3E4158",
"h.	c #737E93",
"i.	c #545973",
"j.	c #545974",
"k.	c #535973",
"l.	c #545A73",
"m.	c #3D4258",
"n.	c #41455B",
"o.	c #555B76",
"p.	c #555B75",
"q.	c #555A76",
"r.	c #40455D",
"s.	c #424760",
"t.	c #6E788F",
"u.	c #565C77",
"v.	c #575C77",
"w.	c #565D77",
"x.	c #565C78",
"y.	c #575C78",
"z.	c #575D77",
"A.	c #565D78",
"B.	c #444962",
"C.	c #6C758D",
"D.	c #575D79",
"E.	c #575E79",
"F.	c #464C65",
"G.	c #484D67",
"H.	c #6A738B",
"I.	c #575E7A",
"J.	c #585E7B",
"K.	c #585E7A",
"L.	c #575E7B",
"M.	c #494F69",
"N.	c #4A4F6A",
"O.	c #677089",
"P.	c #585F7C",
"Q.	c #585E7C",
"R.	c #4C516E",
"S.	c #4B526D",
"T.	c #646E88",
"U.	c #59607D",
"V.	c #58607D",
"W.	c #595F7E",
"X.	c #59607E",
"Y.	c #58607E",
"Z.	c #585F7D",
"`.	c #4E5470",
" +	c #4E5471",
".+	c #616B86",
"++	c #5A617F",
"@+	c #5A607F",
"#+	c #59607F",
"$+	c #59617F",
"%+	c #505773",
"&+	c #505774",
"*+	c #5F6984",
"=+	c #596080",
"-+	c #596180",
";+	c #525977",
">+	c #5D6683",
",+	c #586081",
"'+	c #586080",
")+	c #586181",
"!+	c #545B7A",
"~+	c #545C7A",
"{+	c #575F7F",
"]+	c #57607F",
"^+	c #575F7E",
"/+	c #585F7F",
"(+	c #565E7D",
"_+	c #555E7D",
":+	c #545D7D",
"<+	c #545D7C",
"[+	c #535D7C",
"}+	c #535D7D",
"|+	c #4E5777",
"1+	c #4E5877",
"2+	c #4E5776",
"3+	c #4E5876",
"4+	c #47516F",
"5+	c #48516F",
"6+	c #3E4A66",
"7+	c #35415C",
"8+	c #35425C",
"9+	c #35425D",
"0+	c #35415D",
"a+	c #2C3A53",
". + + + + + + @ # + + + # # + ",
"$ % $ & * = % $ = $ & = $ $ = ",
"- ; > > ; - - > , > ; > - - ' ",
") ! ~ { { ] { { { { { ] ^ / { ",
"( _ : _ _ : _ : _ : _ < _ _ : ",
"[ [ } | 1 2 1 } 3 [ 4 2 } 2 } ",
"5 5 6 6 6 6 7 6 6 6 8 9 6 6 6 ",
"0 a a a b b a a a b a a b a c ",
"d e f e f f f f f e g h e i e ",
"j k l m n o o m l p n o o o o ",
"q k r r s r r r r r s r r r r ",
"t u k v w w x y z y x w x A x ",
"B C D E F G H H I J I K J I I ",
"L M N O O O P Q P P P R Q Q P ",
"S T U V W W X Y Z W W V V ` W ",
"T  ...+.+.@.#.@.$.$.#.+.@.$.$.",
"%.&.*.=.=.-.=.;.>.=.>.>.=.>.=.",
",.'.).!.~.{.!.].^.].].^.{.^.].",
"/.(._.:.:.<.<.:.<.[.<.<.}.:.<.",
"|.1.2.3.3.4.5.6.3.3.3.5.6.3.3.",
"7.8.9.0.a.b.a.c.0.a.d.e.a.a.a.",
"f.g.h.i.i.j.k.k.i.i.l.k.l.i.l.",
"m.n.0 o.p.p.q.o.p.p.p.o.p.o.p.",
"r.s.t.u.v.w.v.x.y.x.v.z.u.y.A.",
"B.B.C.D.E.D.D.E.D.D.D.D.E.D.D.",
"F.G.H.I.J.K.K.K.K.K.I.L.L.I.I.",
"M.N.O.P.P.Q.P.P.P.P.P.P.P.P.P.",
"R.S.T.U.U.V.W.X.U.Y.U.Z.U.U.Y.",
"`. +.+++++@+#+#+++$+#+@+#+#+++",
"%+&+*+=+=+-+$+-+-+#+$+=+=+=+=+",
";+;+>+=+,+-+'+=+'+=+)+'+=+=+'+",
"!+!+~+{+{+]+{+{+{+{+^+{+{+/+{+",
"(+(+_+:+:+<+<+<+[+<+[+<+}+:+<+",
"|+1+1+1+2+3+1+2+3+2+1+3+3+|+3+",
"4+4+4+4+4+4+4+4+4+4+4+4+4+4+5+",
"6+6+6+6+6+6+6+6+6+6+6+6+6+6+6+",
"7+8+7+7+8+9+7+7+0+7+8+7+7+0+8+",
"a+a+a+a+a+a+a+a+a+a+a+a+a+a+a+"};
