/* XPM */
static char * top__controls_end_xpm[] = {
"7 38 114 2",
"  	c None",
". 	c #2F303A",
"+ 	c #2E3039",
"@ 	c #2F3039",
"# 	c #32343F",
"$ 	c #33343E",
"% 	c #33343F",
"& 	c #32333E",
"* 	c #353844",
"= 	c #363744",
"- 	c #393B4A",
"; 	c #383B49",
"> 	c #393B49",
", 	c #3C3F4F",
"' 	c #3C3F4E",
") 	c #3D3E4F",
"! 	c #3E4252",
"~ 	c #3F4252",
"{ 	c #3F4251",
"] 	c #3E4152",
"^ 	c #404354",
"/ 	c #3F4354",
"( 	c #414456",
"_ 	c #414556",
": 	c #434558",
"< 	c #424658",
"[ 	c #434658",
"} 	c #43485A",
"| 	c #44475A",
"1 	c #44485A",
"2 	c #44475B",
"3 	c #43475A",
"4 	c #45495C",
"5 	c #45495D",
"6 	c #45485C",
"7 	c #474A5E",
"8 	c #464A5F",
"9 	c #464A5E",
"0 	c #474A5F",
"a 	c #464B5E",
"b 	c #484C61",
"c 	c #474C61",
"d 	c #484C60",
"e 	c #474C60",
"f 	c #494E63",
"g 	c #494D62",
"h 	c #494D63",
"i 	c #494E62",
"j 	c #4A4F65",
"k 	c #4A4F64",
"l 	c #4B4F65",
"m 	c #4B4F64",
"n 	c #4B4E64",
"o 	c #4C5067",
"p 	c #4C5167",
"q 	c #4B5066",
"r 	c #4C5066",
"s 	c #4D5269",
"t 	c #4E536B",
"u 	c #4E546B",
"v 	c #4F546B",
"w 	c #50556D",
"x 	c #4F556D",
"y 	c #50556C",
"z 	c #51576F",
"A 	c #51566F",
"B 	c #525871",
"C 	c #535871",
"D 	c #535872",
"E 	c #545A74",
"F 	c #535A73",
"G 	c #545973",
"H 	c #545974",
"I 	c #555B75",
"J 	c #555B76",
"K 	c #555A75",
"L 	c #575C77",
"M 	c #575D78",
"N 	c #565D77",
"O 	c #565C78",
"P 	c #565C77",
"Q 	c #575D79",
"R 	c #575E79",
"S 	c #585E7B",
"T 	c #585E7A",
"U 	c #575E7B",
"V 	c #595F7C",
"W 	c #585F7C",
"X 	c #59607D",
"Y 	c #595F7D",
"Z 	c #595F7E",
"` 	c #59607E",
" .	c #5A607F",
"..	c #59607F",
"+.	c #59617F",
"@.	c #5A617F",
"#.	c #596080",
"$.	c #596180",
"%.	c #586080",
"&.	c #575F7F",
"*.	c #575F7E",
"=.	c #585F7F",
"-.	c #545D7C",
";.	c #535D7C",
">.	c #4E5877",
",.	c #4E5876",
"'.	c #4E5776",
").	c #475170",
"!.	c #47516F",
"~.	c #48516F",
"{.	c #3E4A66",
"].	c #35425D",
"^.	c #35415C",
"/.	c #2C3A53",
". . . + . . @ ",
"# # $ % & # % ",
"* = * = = = = ",
"- ; > > ; > > ",
", ' ) ' ' ' ' ",
"! ~ { ! ] ] ] ",
"^ ^ / / ^ ^ ^ ",
"( ( ( _ ( ( ( ",
": < < [ < < < ",
"} | 1 } 2 | 3 ",
"4 4 5 6 5 4 4 ",
"7 8 9 7 7 0 a ",
"b c d b e b c ",
"f g h i h i i ",
"j k k l m k n ",
"o p q p o q r ",
"s s s s s s s ",
"t t t u u v t ",
"w x w x w y w ",
"z z z A z z A ",
"B B C C D B C ",
"E F G F F H H ",
"I I I J I K I ",
"L M N N O P P ",
"Q Q Q R Q Q Q ",
"S T S T T S U ",
"V W V W W W V ",
"X X Y Y Y Z ` ",
" .....+.@.@. .",
"+...#...+...$.",
"%.#.#.#.#.#.#.",
"&.*.&.*.=.&.&.",
"-.;.-.-.-.-.-.",
">.>.,.>.'.>.,.",
").!.~.!.!.!.!.",
"{.{.{.{.{.{.{.",
"].^.^.^.^.^.^.",
"/././././././."};
