/* XPM */
static char * top__bpm_top_xpm[] = {
"65 6 52 1",
" 	c None",
".	c #2F303A",
"+	c #2F3039",
"@	c #2E3039",
"#	c #2E303A",
"$	c #2F313A",
"%	c #33343F",
"&	c #32343F",
"*	c #33333F",
"=	c #32343E",
"-	c #32333F",
";	c #353844",
">	c #363744",
",	c #363843",
"'	c #363844",
")	c #353743",
"!	c #353744",
"~	c #383B49",
"{	c #393C49",
"]	c #393C4A",
"^	c #393B49",
"/	c #383B4A",
"(	c #393B4A",
"_	c #383C49",
":	c #9FA9B1",
"<	c #A0A8B0",
"[	c #9FA8B0",
"}	c #9FA9B0",
"|	c #9FA8B1",
"1	c #9EA8B0",
"2	c #9FA8AF",
"3	c #9FA7AF",
"4	c #9FA7B0",
"5	c #9EA7AF",
"6	c #9EA8AF",
"7	c #9EA7B0",
"8	c #A0A9B1",
"9	c #A0A9B0",
"0	c #717B90",
"a	c #3C3F4F",
"b	c #3C3F4E",
"c	c #1E1D27",
"d	c #1F1C26",
"e	c #1E1C26",
"f	c #1E1D26",
"g	c #1E1C27",
"h	c #1F1D26",
"i	c #1F1C27",
"j	c #1F1D27",
"k	c #3B3E54",
"l	c #9EA6AF",
"m	c #3E4152",
".++.@..#......@$....@+...++.@..@$....@+...++.@..#......@+...++.@.",
"%&&%&&&&*&=-%-=%&=&*&%&=%&&%&&-=%&=&*&%&=%&&%&&&&*&=-%*&%&=%&&%&&",
";>>,;;'>';;'>>;>)'!>;!;';>>,;;>;>)'!>;!;';>>,;;'>';;'>>;!;';>>,;;",
"~{]^^^^/(_^^~{~{^^^^^^^^~{]^^^{~{^^^^^^^^~{]^^^^/(_^^~^^^^^~{]^^^",
":<[<}}[<[}[[<[[[[[|[[[[1[[1[23[[1[45225[51677341747<8<:98:9890abb",
"cdefffeedddfecegffheefichfhdeceffggffdfifeecfhhcgfechceeffhejk0lm"};
