/* XPM */
static char * top__icon_add_xpm[] = {
"31 38 364 2",
"  	c None",
". 	c #2F303A",
"+ 	c #2E3039",
"@ 	c #2F313A",
"# 	c #2F3039",
"$ 	c #2E303A",
"% 	c #32343F",
"& 	c #32343E",
"* 	c #32333F",
"= 	c #33343F",
"- 	c #33333F",
"; 	c #353844",
"> 	c #363844",
", 	c #363744",
"' 	c #353743",
") 	c #353744",
"! 	c #363843",
"~ 	c #383C49",
"{ 	c #393B49",
"] 	c #383B49",
"^ 	c #393C49",
"/ 	c #393C4A",
"( 	c #383B4A",
"_ 	c #393B4A",
": 	c #9FA9B1",
"< 	c #A0A9B1",
"[ 	c #A0A9B0",
"} 	c #A0A8B0",
"| 	c #9EA7AF",
"1 	c #9CA4AE",
"2 	c #9BA4AD",
"3 	c #9CA5AD",
"4 	c #9CA4AD",
"5 	c #717B90",
"6 	c #3C3F4E",
"7 	c #3C3F4F",
"8 	c #3C3E4E",
"9 	c #1E1D26",
"0 	c #1E1C26",
"a 	c #1F1D26",
"b 	c #1E1D27",
"c 	c #1F1D27",
"d 	c #3B3E54",
"e 	c #9EA6AF",
"f 	c #3E4251",
"g 	c #3E4152",
"h 	c #3E4252",
"i 	c #3E4151",
"j 	c #3F4152",
"k 	c #3F4151",
"l 	c #211F2A",
"m 	c #201F29",
"n 	c #201F2A",
"o 	c #211F29",
"p 	c #404354",
"q 	c #3F4354",
"r 	c #404353",
"s 	c #23212C",
"t 	c #22212D",
"u 	c #22222C",
"v 	c #22222D",
"w 	c #22212C",
"x 	c #23212D",
"y 	c #23222D",
"z 	c #4E5966",
"A 	c #414556",
"B 	c #414456",
"C 	c #242430",
"D 	c #252430",
"E 	c #242330",
"F 	c #252330",
"G 	c #25242F",
"H 	c #959FA9",
"I 	c #424658",
"J 	c #434658",
"K 	c #272633",
"L 	c #262633",
"M 	c #272634",
"N 	c #154D7C",
"O 	c #262734",
"P 	c #262733",
"Q 	c #939CA8",
"R 	c #43485A",
"S 	c #43475A",
"T 	c #44485A",
"U 	c #44475A",
"V 	c #292936",
"W 	c #282837",
"X 	c #282937",
"Y 	c #DDF8FD",
"Z 	c #DCF8FC",
"` 	c #292836",
" .	c #292937",
"..	c #45495C",
"+.	c #45495D",
"@.	c #2B2B3A",
"#.	c #2A2B39",
"$.	c #DBF8FC",
"%.	c #D9F8FC",
"&.	c #D9F7FD",
"*.	c #D8F7FC",
"=.	c #2A2B3A",
"-.	c #2B2B39",
";.	c #2A2C3A",
">.	c #464A5F",
",.	c #474A5F",
"'.	c #474A5E",
").	c #464B5E",
"!.	c #474B5E",
"~.	c #464A5E",
"{.	c #2D2E3D",
"].	c #2C2E3D",
"^.	c #2C2D3D",
"/.	c #D7F7FC",
"(.	c #D6F6FC",
"_.	c #D5F6FC",
":.	c #2D2D3C",
"<.	c #2D2D3D",
"[.	c #2C2D3C",
"}.	c #868F9F",
"|.	c #484C61",
"1.	c #474C60",
"2.	c #484B60",
"3.	c #474B60",
"4.	c #474C61",
"5.	c #2F3040",
"6.	c #2F2F40",
"7.	c #D2F6FB",
"8.	c #D1F5FB",
"9.	c #D0F5FB",
"0.	c #CFF4FB",
"a.	c #2E3040",
"b.	c #848D9D",
"c.	c #494D62",
"d.	c #494D63",
"e.	c #494E63",
"f.	c #313244",
"g.	c #313243",
"h.	c #313343",
"i.	c #303243",
"j.	c #303344",
"k.	c #313344",
"l.	c #818B9B",
"m.	c #4A4F65",
"n.	c #4A4F64",
"o.	c #4B4F64",
"p.	c #4A4E65",
"q.	c #4A4E64",
"r.	c #333546",
"s.	c #333547",
"t.	c #333447",
"u.	c #CFF5FB",
"v.	c #CEF4FB",
"w.	c #CDF4FB",
"x.	c #CCF4FB",
"y.	c #7F889A",
"z.	c #4C5067",
"A.	c #4C5167",
"B.	c #4C5066",
"C.	c #4B5067",
"D.	c #353749",
"E.	c #343749",
"F.	c #D0F5FC",
"G.	c #CEF5FB",
"H.	c #CBF4FA",
"I.	c #CAF3FB",
"J.	c #C9F4FB",
"K.	c #C8F3FB",
"L.	c #C7F3FB",
"M.	c #C6F2FA",
"N.	c #C5F2FA",
"O.	c #35374A",
"P.	c #7C8698",
"Q.	c #4D5268",
"R.	c #4D5269",
"S.	c #4D5169",
"T.	c #4D5168",
"U.	c #373A4D",
"V.	c #37394D",
"W.	c #D2F5FC",
"X.	c #C3F2FA",
"Y.	c #798397",
"Z.	c #4E546B",
"`.	c #4F546B",
" +	c #4F536A",
".+	c #4F536B",
"++	c #4E536B",
"@+	c #393C50",
"#+	c #393C51",
"$+	c #CAF4FA",
"%+	c #C9F3FB",
"&+	c #C8F3FA",
"*+	c #C5F2FB",
"=+	c #C4F2FA",
"-+	c #C1F2FA",
";+	c #C1F1F9",
">+	c #768194",
",+	c #50556D",
"'+	c #4F556D",
")+	c #3C3E53",
"!+	c #CBF4FB",
"~+	c #CAF3FA",
"{+	c #C9F3FA",
"]+	c #C6F3FA",
"^+	c #C2F2FA",
"/+	c #C0F1FA",
"(+	c #C0F1F9",
"_+	c #BFF1F9",
":+	c #3B3F54",
"<+	c #3B3E53",
"[+	c #747E93",
"}+	c #51566F",
"|+	c #515770",
"1+	c #515670",
"2+	c #51576F",
"3+	c #3D4156",
"4+	c #3D4157",
"5+	c #3D4057",
"6+	c #727C91",
"7+	c #525871",
"8+	c #535771",
"9+	c #535871",
"0+	c #525872",
"a+	c #40435A",
"b+	c #3F4359",
"c+	c #3F445A",
"d+	c #BEF1F9",
"e+	c #BDF1FA",
"f+	c #3F435A",
"g+	c #6F788F",
"h+	c #545973",
"i+	c #545974",
"j+	c #535973",
"k+	c #41465D",
"l+	c #41455D",
"m+	c #BDF1F9",
"n+	c #BDF0F9",
"o+	c #BBF0FA",
"p+	c #BAEFF9",
"q+	c #42455D",
"r+	c #42465E",
"s+	c #41465E",
"t+	c #42465D",
"u+	c #6C768E",
"v+	c #555B75",
"w+	c #555B76",
"x+	c #555A76",
"y+	c #434860",
"z+	c #434861",
"A+	c #BAF0F9",
"B+	c #B9EFF9",
"C+	c #B8EFF8",
"D+	c #444861",
"E+	c #444860",
"F+	c #6A748B",
"G+	c #575C77",
"H+	c #565C77",
"I+	c #565D77",
"J+	c #565C78",
"K+	c #575C78",
"L+	c #464B64",
"M+	c #454B63",
"N+	c #B8EFF9",
"O+	c #B7EEF9",
"P+	c #B5EEF8",
"Q+	c #B4EFF9",
"R+	c #454B64",
"S+	c #454A64",
"T+	c #677189",
"U+	c #575D79",
"V+	c #575E79",
"W+	c #484D67",
"X+	c #474D67",
"Y+	c #B3EEF9",
"Z+	c #B2EEF8",
"`+	c #474D66",
" @	c #484C66",
".@	c #484C67",
"+@	c #656F88",
"@@	c #585E7A",
"#@	c #575E7A",
"$@	c #585E7B",
"%@	c #494F6A",
"&@	c #4A4F6A",
"*@	c #49506A",
"=@	c #4A506A",
"-@	c #626B86",
";@	c #585F7C",
">@	c #585E7C",
",@	c #4B516E",
"'@	c #4C526D",
")@	c #4B526D",
"!@	c #4C516D",
"~@	c #4C526E",
"{@	c #4B526E",
"]@	c #606984",
"^@	c #595F7D",
"/@	c #59607D",
"(@	c #58607D",
"_@	c #595F7E",
":@	c #59607E",
"<@	c #4E5470",
"[@	c #4D5470",
"}@	c #4E5471",
"|@	c #4D5471",
"1@	c #5D6783",
"2@	c #5A617F",
"3@	c #5A607F",
"4@	c #59607F",
"5@	c #505673",
"6@	c #505774",
"7@	c #505674",
"8@	c #4F5773",
"9@	c #4F5674",
"0@	c #505773",
"a@	c #5A6481",
"b@	c #596080",
"c@	c #596180",
"d@	c #59617F",
"e@	c #525976",
"f@	c #525977",
"g@	c #ACEDF7",
"h@	c #ACECF8",
"i@	c #ABEDF7",
"j@	c #ABECF7",
"k@	c #57627F",
"l@	c #586081",
"m@	c #586080",
"n@	c #545B7A",
"o@	c #545C7A",
"p@	c #A8EAF5",
"q@	c #A7E9F4",
"r@	c #A8E9F5",
"s@	c #A9EBF6",
"t@	c #535C7A",
"u@	c #585F7F",
"v@	c #575F7F",
"w@	c #57607F",
"x@	c #565E7D",
"y@	c #555D7E",
"z@	c #A5E7F3",
"A@	c #A3E6F2",
"B@	c #A3E6F3",
"C@	c #565D7E",
"D@	c #565D7D",
"E@	c #565E7E",
"F@	c #535D7D",
"G@	c #545D7D",
"H@	c #545D7C",
"I@	c #535D7C",
"J@	c #4E5877",
"K@	c #4E5776",
"L@	c #4E5876",
"M@	c #9FE3F0",
"N@	c #4E5777",
"O@	c #47516F",
"P@	c #475170",
"Q@	c #48516F",
"R@	c #3E4A66",
"S@	c #35415C",
"T@	c #35425C",
"U@	c #35425D",
"V@	c #35415D",
"W@	c #2C3A53",
". . . . . + @ . . . . + # . . . # # . + . . $ . . . . . . + # ",
"% & * = * & = % & % - % = % & = % % = % % % % - % & * = - % = ",
"; ; > , , ; , ' > ) , ; ) ; > ; , , ! ; ; > , > ; ; > , , ; ) ",
"~ { { ] ^ ] ^ { { { { { { { { ] ^ / { { { { ( _ ~ { { ] { { { ",
": < [ [ : < [ : < } | 1 2 3 4 [ 5 6 7 6 6 7 8 6 7 6 6 7 6 7 6 ",
"9 9 0 a 9 9 0 0 a b 9 0 9 9 0 c d 5 e f g h g g h i j k j h f ",
"l m m m l m m n o m m m n m m n l m m 2 5 p q q p p p p r p p ",
"s t u v s t u t w w x x y w y y t y v t z 5 A B B B A A B B B ",
"C C D D C C D C E F G D D F E C D C C D D H I J I J I I I I I ",
"K L M K K L M L N N N N L L O L K L P L K L Q R R S T U U S R ",
"V V W X V V W N N Y Z N N ` ` ` X ` V  .V V Q ......+.........",
"@.@.@.#.@.@.@.N $.%.&.*.N #.=.-.@.-.@.@.;.#.d Q >.,.'.'.).!.~.",
"{.{.].^.{.{.].N *./.(._.N :.<.^.^.].{.<.:.[.{.}.|.1.2.3.|.|.4.",
"5.5.6.5.5.5.6.N 7.8.9.0.N 5.a.5.5.5.5.5.a.5.5.b.c.d.d.d.c.e.c.",
"f.g.h.i.f.g.h.N 7.8.9.0.N f.j.h.g.g.g.k.f.f.f.l.m.n.m.m.o.p.q.",
"r.s.t.N N N N N u.v.w.x.N N N N N r.r.s.r.s.s.y.z.A.A.B.C.B.z.",
"D.E.N N 8.F.G.w.w.H.I.J.K.L.M.N.N N O.O.O.D.O.P.Q.R.R.S.R.T.Q.",
"U.V.N W.8.F.G.w.w.H.I.J.K.L.M.N.X.N V.U.U.U.V.Y.Z.`. +.+`.Z.++",
"@+#+N 0.G.w.x.$+%+&+L.M.*+=+X.-+;+N @+@+#+@+@+>+,+'+'+,+,+'+,+",
"d )+N N !+~+{+L.]+N.N.X.^+/+(+_+N N :+:+d <+<+[+}+}+}+|+1+2+}+",
"3+4+5+N N N N N X.X.-+/+N N N N N 3+4+4+4+4+4+6+7+8+7+9+7+0+8+",
"a+b+a+c+a+b+a+N -+/+d+e+N a+b+a+c+c+f+f+f+f+c+g+h+h+h+i+j+j+h+",
"k+k+l+l+k+k+l+N m+n+o+p+N k+q+r+k+s+l+k+l+l+t+u+v+w+v+v+x+w+v+",
"y+y+z+y+y+y+z+N A+A+B+C+N y+D+y+z+y+z+y+E+y+E+F+G+H+G+I+G+J+K+",
"L+L+L+M+L+L+L+N N+O+P+Q+N R+M+R+L+R+L+M+L+L+S+T+U+U+V+U+U+V+U+",
"W+X+X+W+W+X+X+N N Y+Z+N N `+W+W+X+W+W+X+`+ @.@+@@@#@$@@@@@@@@@",
"%@&@*@&@%@&@*@*@N N N N &@&@=@&@%@&@%@%@=@&@%@-@;@;@;@>@;@;@;@",
",@'@'@'@,@'@'@'@)@'@'@'@)@!@,@'@~@)@'@{@{@)@!@]@^@/@/@(@_@:@/@",
"<@[@<@}@<@[@<@<@|@<@}@|@[@<@<@[@<@<@<@<@<@[@}@1@2@2@2@3@4@4@2@",
"5@6@5@7@N N N N N N N N N N N 8@8@8@9@0@6@6@7@a@b@b@b@c@d@c@c@",
"e@f@f@f@e@N g@g@h@i@j@g@g@N f@f@f@f@f@f@f@f@f@k@c@b@l@c@m@b@m@",
"n@o@o@n@n@o@N j@p@q@r@s@N t@n@o@o@n@n@o@n@n@o@n@u@v@v@w@v@v@v@",
"x@x@y@x@x@x@y@N z@A@B@N C@D@E@x@D@x@x@x@E@x@E@x@F@G@G@H@H@H@I@",
"J@J@K@L@J@K@L@L@N M@N K@L@K@J@L@L@N@L@N@N@L@N@J@J@J@K@L@J@K@L@",
"O@O@O@O@O@O@O@O@P@N O@O@O@O@O@O@O@O@Q@P@P@O@O@O@O@O@O@O@O@O@O@",
"R@R@R@R@R@R@R@R@R@R@R@R@R@R@R@R@R@R@R@R@R@R@R@R@R@R@R@R@R@R@R@",
"S@S@T@U@U@S@T@S@T@S@S@S@V@S@T@S@S@V@T@S@T@S@S@T@S@S@T@U@S@S@V@",
"W@W@W@W@W@W@W@W@W@W@W@W@W@W@W@W@W@W@W@W@W@W@W@W@W@W@W@W@W@W@W@"};
