/* XPM */
static char * top__bpm_end_xpm[] = {
"13 38 225 2",
"  	c None",
". 	c #2F303A",
"+ 	c #2F3039",
"@ 	c #2E3039",
"# 	c #2E303A",
"$ 	c #2F313A",
"% 	c #33343F",
"& 	c #32343F",
"* 	c #33333F",
"= 	c #32333F",
"- 	c #32343E",
"; 	c #353844",
"> 	c #363744",
", 	c #363843",
"' 	c #363844",
") 	c #383B49",
"! 	c #393C49",
"~ 	c #393C4A",
"{ 	c #393B49",
"] 	c #383B4A",
"^ 	c #393B4A",
"/ 	c #383C49",
"( 	c #3D3F4E",
"_ 	c #3C3F4E",
": 	c #3C3F4F",
"< 	c #3C3E4E",
"[ 	c #3F4151",
"} 	c #3E4252",
"| 	c #3E4251",
"1 	c #3E4152",
"2 	c #3E4151",
"3 	c #3F4252",
"4 	c #717B90",
"5 	c #404354",
"6 	c #3F4354",
"7 	c #404254",
"8 	c #4E5966",
"9 	c #414456",
"0 	c #414557",
"a 	c #414556",
"b 	c #252430",
"c 	c #959FA9",
"d 	c #434659",
"e 	c #434658",
"f 	c #424658",
"g 	c #434558",
"h 	c #272633",
"i 	c #262633",
"j 	c #939CA8",
"k 	c #44475A",
"l 	c #44485A",
"m 	c #43475A",
"n 	c #43485A",
"o 	c #44475B",
"p 	c #292936",
"q 	c #45495C",
"r 	c #45495D",
"s 	c #292B39",
"t 	c #2A2B39",
"u 	c #3B3E54",
"v 	c #464B5F",
"w 	c #474B5E",
"x 	c #464A5F",
"y 	c #474B5F",
"z 	c #464B5E",
"A 	c #474A5E",
"B 	c #2C2D3C",
"C 	c #2D2E3D",
"D 	c #2C2E3D",
"E 	c #8B94A2",
"F 	c #474C61",
"G 	c #484B60",
"H 	c #484C60",
"I 	c #474C60",
"J 	c #484C61",
"K 	c #474B60",
"L 	c #2E2F3E",
"M 	c #2E2F3F",
"N 	c #2F3040",
"O 	c #8891A1",
"P 	c #494D63",
"Q 	c #494E62",
"R 	c #494D62",
"S 	c #303242",
"T 	c #313343",
"U 	c #868F9F",
"V 	c #4A4F64",
"W 	c #4A4E65",
"X 	c #4A4F65",
"Y 	c #4B4F65",
"Z 	c #323445",
"` 	c #333447",
" .	c #848D9D",
"..	c #4B5067",
"+.	c #4C5067",
"@.	c #4C5167",
"#.	c #4C5166",
"$.	c #4B5166",
"%.	c #4B5066",
"&.	c #323345",
"*.	c #343648",
"=.	c #35374A",
"-.	c #808A9B",
";.	c #4D5269",
">.	c #4D5268",
",.	c #4D5169",
"'.	c #333548",
").	c #35384B",
"!.	c #36384C",
"~.	c #7E889A",
"{.	c #4F546A",
"].	c #4E536B",
"^.	c #4E546B",
"/.	c #4E536A",
"(.	c #4F546B",
"_.	c #35384A",
":.	c #373A4E",
"<.	c #383B4F",
"[.	c #7B8598",
"}.	c #50556D",
"|.	c #4F556D",
"1.	c #4F546D",
"2.	c #373A4D",
"3.	c #393D51",
"4.	c #3A3D53",
"5.	c #798296",
"6.	c #51566F",
"7.	c #51576F",
"8.	c #515770",
"9.	c #393C50",
"0.	c #3C4055",
"a.	c #768095",
"b.	c #535871",
"c.	c #525871",
"d.	c #535872",
"e.	c #3C3F55",
"f.	c #3E4158",
"g.	c #3F435A",
"h.	c #737E93",
"i.	c #545973",
"j.	c #535974",
"k.	c #535973",
"l.	c #535A73",
"m.	c #545A73",
"n.	c #3D4158",
"o.	c #40455B",
"p.	c #42465D",
"q.	c #555B76",
"r.	c #555B75",
"s.	c #555A76",
"t.	c #40465C",
"u.	c #424760",
"v.	c #434861",
"w.	c #6E788F",
"x.	c #575C77",
"y.	c #565C78",
"z.	c #565C77",
"A.	c #565D77",
"B.	c #444861",
"C.	c #454A63",
"D.	c #6C758D",
"E.	c #575D79",
"F.	c #575E79",
"G.	c #474C65",
"H.	c #474D67",
"I.	c #484D67",
"J.	c #6A738B",
"K.	c #585E7B",
"L.	c #585E7A",
"M.	c #484F69",
"N.	c #4A506A",
"O.	c #4A4F6A",
"P.	c #677089",
"Q.	c #585E7C",
"R.	c #585F7C",
"S.	c #585F7B",
"T.	c #4C526D",
"U.	c #4C516E",
"V.	c #4B526D",
"W.	c #646E88",
"X.	c #595F7E",
"Y.	c #59607E",
"Z.	c #59607D",
"`.	c #595F7D",
" +	c #4E5571",
".+	c #4E5470",
"++	c #4E5471",
"@+	c #616B86",
"#+	c #59607F",
"$+	c #5A607F",
"%+	c #5A617F",
"&+	c #59617F",
"*+	c #505774",
"=+	c #505773",
"-+	c #5F6984",
";+	c #596080",
">+	c #596180",
",+	c #525977",
"'+	c #5D6683",
")+	c #586080",
"!+	c #545B7A",
"~+	c #545C7A",
"{+	c #575F7F",
"]+	c #575F7E",
"^+	c #585F7F",
"/+	c #565E7D",
"(+	c #555E7D",
"_+	c #545D7C",
":+	c #535D7D",
"<+	c #545C7C",
"[+	c #535D7C",
"}+	c #4E5775",
"|+	c #4E5876",
"1+	c #4E5777",
"2+	c #4E5877",
"3+	c #4E5776",
"4+	c #47516F",
"5+	c #48516F",
"6+	c #475170",
"7+	c #3E4A66",
"8+	c #35415C",
"9+	c #35415D",
"0+	c #35425C",
"a+	c #35425D",
"b+	c #2C3A53",
". + + . @ . . # . . . @ $ ",
"% & & % & & & & * & = - % ",
"; > > , ; ; ' > ' ; > ; > ",
") ! ~ { { { { ] ^ / ! ) ! ",
"( _ _ : _ _ : < _ : _ : _ ",
"[ } [ } | 1 } 1 1 } 2 } 3 ",
"4 5 5 5 5 5 5 6 6 5 5 5 7 ",
"8 4 9 0 9 a a a 9 9 a 9 a ",
"b c d e d f e f e f f g e ",
"h i j k l k k m n n o k l ",
"p p j q q q r r q q r q r ",
"s t u j v w x y z x A A z ",
"B C D E F G H I J J J H K ",
"L M N O P Q Q Q R R P R P ",
"N S T U V W X X Y X X Y W ",
"S Z `  ...+.@.#.$.+.%.+.+.",
"&.*.=.-.;.;.;.;.;.>.;.;.,.",
"'.).!.~.{.].^./.^.^.(.].].",
"_.:.<.[.}.|.|.}.}.}.}.}.1.",
"2.3.4.5.6.6.6.7.7.6.6.6.8.",
"9.u 0.a.b.c.c.d.c.c.b.c.b.",
"e.f.g.h.i.j.k.i.i.i.i.l.m.",
"n.o.p.4 q.q.r.r.s.r.r.r.r.",
"t.u.v.w.x.y.y.y.z.x.A.y.y.",
"B.C.C.D.E.E.F.F.F.E.E.E.E.",
"G.H.I.J.K.L.K.K.K.L.L.K.K.",
"M.N.O.P.Q.R.R.R.R.R.S.R.R.",
"T.U.V.W.X.Y.X.Z.Y.`.Y.Y.Y.",
" +.+++@+#+#+$+%+#+%+#+&+$+",
"*+=+*+-+;+&+&+>+#+;+;+>+>+",
",+,+,+'+>+)+;+;+;+>+;+>+>+",
"!+!+!+~+{+]+]+{+{+^+{+{+{+",
"/+/+/+(+_+:+_+<+_+:+_+[+_+",
"}+|+1+|+1+1+|+1+2+2+2+3+|+",
"4+4+4+5+6+6+4+4+4+4+4+4+4+",
"7+7+7+7+7+7+7+7+7+7+7+7+7+",
"8+8+9+0+8+0+8+8+0+8+a+8+0+",
"b+b+b+b+b+b+b+b+b+b+b+b+b+"};
