/* XPM */
static char * top__bpm_display_xpm[] = {
"51 24 82 1",
" 	c None",
".	c #211F29",
"+	c #201F29",
"@	c #201F2A",
"#	c #211F2A",
"$	c #22222D",
"%	c #23212D",
"&	c #22212D",
"*	c #22212C",
"=	c #23222C",
"-	c #23222D",
";	c #23212C",
">	c #22222C",
",	c #252430",
"'	c #242430",
")	c #25242F",
"!	c #24242F",
"~	c #242330",
"{	c #272633",
"]	c #272733",
"^	c #262734",
"/	c #262733",
"(	c #282937",
"_	c #282837",
":	c #01080D",
"<	c #2D2D3D",
"[	c #292836",
"}	c #2B2B3A",
"|	c #2A2B39",
"1	c #2A2B3A",
"2	c #2C2E3D",
"3	c #2C2D3D",
"4	c #2D2E3D",
"5	c #2F3040",
"6	c #313243",
"7	c #313343",
"8	c #313244",
"9	c #333446",
"0	c #333447",
"a	c #323445",
"b	c #353749",
"c	c #35374A",
"d	c #343649",
"e	c #37394D",
"f	c #36394C",
"g	c #393C50",
"h	c #393C51",
"i	c #383B4E",
"j	c #3B3E53",
"k	c #3B3D52",
"l	c #3D4157",
"m	c #3C4055",
"n	c #3F435A",
"o	c #40435A",
"p	c #3F4259",
"q	c #41465D",
"r	c #42455D",
"s	c #40445C",
"t	c #444860",
"u	c #434860",
"v	c #464B64",
"w	c #454B64",
"x	c #454B63",
"y	c #484D67",
"z	c #474D67",
"A	c #49506A",
"B	c #4A506A",
"C	c #494F6A",
"D	c #4B516D",
"E	c #4C526D",
"F	c #4B526E",
"G	c #4E5471",
"H	c #4E5570",
"I	c #8288A6",
"J	c #505674",
"K	c #4F5674",
"L	c #505774",
"M	c #4F5673",
"N	c #505673",
"O	c #4F5774",
"P	c #505773",
"Q	c #4F5773",
".+@@+@@++@+@+@.+@++@#@@#@+.++++.@++..#@+..#@..@#+#.",
"$%%&$*=$%*%---%-=;*$-*--&$$>&&%>&>>*$>-;%&$*==>-&*$",
",',''',')),,!,,'',',!,'!''',',,,',,)'',),'',~',,'')",
"{]^]{]++++++++++++++++++++++++++++++++++++++++{/{/{",
"(__(++::::::::::::::::::::::::::::::::::::::::++<[(",
"}|}+::::::::::::::::::::::::::::::::::::::::::::+1}",
"232+::::::::::::::::::::::::::::::::::::::::::::+44",
"55+::::::::::::::::::::::::::::::::::::::::::::::+5",
"67+::::::::::::::::::::::::::::::::::::::::::::::+8",
"90+::::::::::::::::::::::::::::::::::::::::::::::+a",
"bc+::::::::::::::::::::::::::::::::::::::::::::::+d",
"ee+::::::::::::::::::::::::::::::::::::::::::::::+f",
"gh+::::::::::::::::::::::::::::::::::::::::::::::+i",
"jj+::::::::::::::::::::::::::::::::::::::::::::::+k",
"ll+::::::::::::::::::::::::::::::::::::::::::::::+m",
"no+::::::::::::::::::::::::::::::::::::::::::::::+p",
"qr+::::::::::::::::::::::::::::::::::::::::::::::+s",
"tu+::::::::::::::::::::::::::::::::::::::::::::::+u",
"vw+::::::::::::::::::::::::::::::::::::::::::::::+x",
"yy+::::::::::::::::::::::::::::::::::::::::::::::+z",
"AB+::::::::::::::::::::::::::::::::::::::::::::::+C",
"DE+::::::::::::::::::::::::::::::::::::::::::::::+F",
"GHIIIIIIIIIIIIIIIIIIIIIIIIIIIIIIIIIIIIIIIIIIIIIIIIG",
"JKJLJLLMNNJJLJOLOLJNJJLJPLJLJLNQPLPLOJQPJPLPNKJJJKJ"};
