/* XPM */
static char * top__swing_end_xpm[] = {
"7 38 188 2",
"  	c None",
". 	c #2F3039",
"+ 	c #2F303A",
"@ 	c #2E3039",
"# 	c #32333F",
"$ 	c #32343F",
"% 	c #33343E",
"& 	c #33343F",
"* 	c #32333E",
"= 	c #363844",
"- 	c #353844",
"; 	c #363744",
"> 	c #393B49",
", 	c #393B4A",
"' 	c #383B49",
") 	c #3C3F4F",
"! 	c #3C3F4E",
"~ 	c #3D3E4F",
"{ 	c #3E4252",
"] 	c #3E4152",
"^ 	c #3F4252",
"/ 	c #3F4251",
"( 	c #9BA4AD",
"_ 	c #717B90",
": 	c #404354",
"< 	c #3F4354",
"[ 	c #22212D",
"} 	c #4E5966",
"| 	c #414456",
"1 	c #414556",
"2 	c #24232F",
"3 	c #252430",
"4 	c #959FA9",
"5 	c #424658",
"6 	c #434658",
"7 	c #252532",
"8 	c #272633",
"9 	c #262633",
"0 	c #939CA8",
"a 	c #44485A",
"b 	c #43485A",
"c 	c #44475B",
"d 	c #272734",
"e 	c #282835",
"f 	c #292936",
"g 	c #45495D",
"h 	c #45485C",
"i 	c #272735",
"j 	c #282A38",
"k 	c #292A38",
"l 	c #3B3E54",
"m 	c #474A5E",
"n 	c #252733",
"o 	c #2A2B39",
"p 	c #2C2D3C",
"q 	c #2C2E3D",
"r 	c #8B94A2",
"s 	c #484C61",
"t 	c #474C60",
"u 	c #2D2E3E",
"v 	c #2E2F3F",
"w 	c #8891A1",
"x 	c #494E62",
"y 	c #494D63",
"z 	c #242531",
"A 	c #2A2B3A",
"B 	c #2E3040",
"C 	c #303242",
"D 	c #868F9F",
"E 	c #4B4F65",
"F 	c #4B4F64",
"G 	c #242532",
"H 	c #2F3141",
"I 	c #323345",
"J 	c #848D9D",
"K 	c #4C5167",
"L 	c #4C5067",
"M 	c #232531",
"N 	c #292A39",
"O 	c #2F3142",
"P 	c #333547",
"Q 	c #7F899A",
"R 	c #4D5269",
"S 	c #303243",
"T 	c #35364A",
"U 	c #7D8799",
"V 	c #4E546B",
"W 	c #242634",
"X 	c #2A2C3A",
"Y 	c #313445",
"Z 	c #36394C",
"` 	c #7A8396",
" .	c #4F556D",
"..	c #50556D",
"+.	c #252735",
"@.	c #2B2D3D",
"#.	c #333648",
"$.	c #383B50",
"%.	c #788094",
"&.	c #51566F",
"*.	c #51576F",
"=.	c #272937",
"-.	c #2C2F3F",
";.	c #35374A",
">.	c #3A3E52",
",.	c #757E93",
"'.	c #535871",
").	c #535872",
"!.	c #292C3A",
"~.	c #363A4E",
"{.	c #3C4056",
"].	c #727D91",
"^.	c #535A73",
"/.	c #2B2D3C",
"(.	c #303345",
"_.	c #393D51",
":.	c #3F4359",
"<.	c #707A8F",
"[.	c #555B76",
"}.	c #555B75",
"|.	c #2D3041",
"1.	c #34384A",
"2.	c #3C4057",
"3.	c #41465E",
"4.	c #6D778E",
"5.	c #565D77",
"6.	c #565C78",
"7.	c #313546",
"8.	c #41465D",
"9.	c #434861",
"0.	c #6C758D",
"a.	c #575E79",
"b.	c #575D79",
"c.	c #34394B",
"d.	c #3E4259",
"e.	c #434962",
"f.	c #474C66",
"g.	c #6A738B",
"h.	c #585E7A",
"i.	c #393E53",
"j.	c #41475F",
"k.	c #474D67",
"l.	c #494E69",
"m.	c #677089",
"n.	c #585F7C",
"o.	c #3F445B",
"p.	c #464C65",
"q.	c #4A4F6C",
"r.	c #4B526D",
"s.	c #646E88",
"t.	c #595F7D",
"u.	c #454A63",
"v.	c #4D536F",
"w.	c #4E5471",
"x.	c #616B86",
"y.	c #59617F",
"z.	c #5A617F",
"A.	c #49516C",
"B.	c #4E5572",
"C.	c #505773",
"D.	c #505774",
"E.	c #5F6984",
"F.	c #59607F",
"G.	c #4E5673",
"H.	c #515876",
"I.	c #525977",
"J.	c #5D6683",
"K.	c #596080",
"L.	c #515978",
"M.	c #545B7A",
"N.	c #545C7A",
"O.	c #575F7E",
"P.	c #585F7F",
"Q.	c #555D7C",
"R.	c #565E7D",
"S.	c #555E7D",
"T.	c #545D7C",
"U.	c #4E5876",
"V.	c #4E5877",
"W.	c #4E5776",
"X.	c #47516F",
"Y.	c #475170",
"Z.	c #48516F",
"`.	c #3E4A66",
" +	c #35425C",
".+	c #35425D",
"++	c #35415C",
"@+	c #2C3A53",
". . + + + @ + ",
"# # $ $ % & * ",
"= = - ; - ; ; ",
"> , , ' > > ' ",
") ! ) ! ~ ! ! ",
"{ ] { ^ / { ] ",
"( _ : : < < : ",
"[ } _ | | 1 | ",
"2 3 4 5 5 6 5 ",
"7 8 9 0 a b c ",
"d e f 0 g h g ",
"i j k l 0 m m ",
"n o p q r s t ",
"7 o u v w x y ",
"z A B C D E F ",
"G o H I J K L ",
"M N O P Q R R ",
"G N S T U V V ",
"W X Y Z `  ...",
"+.@.#.$.%.&.*.",
"=.-.;.>.,.'.).",
"!.O ~.{.].^.^.",
"/.(._.:.<.[.}.",
"|.1.2.3.4.5.6.",
"7._.8.9.0.a.b.",
"c.d.e.f.g.h.h.",
"i.j.k.l.m.n.n.",
"o.p.q.r.s.t.t.",
"u.r.v.w.x.y.z.",
"A.B.C.D.E.F.y.",
"G.H.I.I.J.K.K.",
"L.M.M.M.N.O.P.",
"Q.R.R.R.S.T.T.",
"U.V.V.V.U.V.W.",
"X.X.Y.X.Z.X.X.",
"`.`.`.`.`.`.`.",
" + +.+++++++++",
"@+@+@+@+@+@+@+"};
