/* XPM */
static char * top__tabs_buttons_separator_xpm[] = {
"48 38 258 2",
"  	c None",
". 	c #2E3039",
"+ 	c #2F313A",
"@ 	c #2F303A",
"# 	c #2F3039",
"$ 	c #2E303A",
"% 	c #32343E",
"& 	c #33343F",
"* 	c #32343F",
"= 	c #33333F",
"- 	c #32333F",
"; 	c #353844",
"> 	c #363744",
", 	c #353743",
"' 	c #363844",
") 	c #353744",
"! 	c #363843",
"~ 	c #383B49",
"{ 	c #393C49",
"] 	c #393B49",
"^ 	c #393C4A",
"/ 	c #383B4A",
"( 	c #393B4A",
"_ 	c #383C49",
": 	c #3C3F4F",
"< 	c #3C3F4E",
"[ 	c #3D3F4E",
"} 	c #3C3E4E",
"| 	c #3E4252",
"1 	c #3F4252",
"2 	c #3E4151",
"3 	c #3E4251",
"4 	c #3F4152",
"5 	c #3E4152",
"6 	c #3F4151",
"7 	c #404354",
"8 	c #404254",
"9 	c #404353",
"0 	c #3F4353",
"a 	c #3F4354",
"b 	c #404355",
"c 	c #414556",
"d 	c #414456",
"e 	c #414557",
"f 	c #424457",
"g 	c #434658",
"h 	c #424658",
"i 	c #424558",
"j 	c #434558",
"k 	c #434659",
"l 	c #44485A",
"m 	c #44475A",
"n 	c #43475B",
"o 	c #43475A",
"p 	c #43485A",
"q 	c #44475B",
"r 	c #939CA8",
"s 	c #44485B",
"t 	c #45495D",
"u 	c #45495C",
"v 	c #46495D",
"w 	c #464B5E",
"x 	c #474A5E",
"y 	c #464A5E",
"z 	c #474B5E",
"A 	c #464B5F",
"B 	c #464A5F",
"C 	c #474B5F",
"D 	c #474A5F",
"E 	c #3B3E54",
"F 	c #474B60",
"G 	c #484C60",
"H 	c #484C61",
"I 	c #474C61",
"J 	c #484B61",
"K 	c #484B60",
"L 	c #474C60",
"M 	c #8B94A2",
"N 	c #2C2E3D",
"O 	c #494D63",
"P 	c #494E62",
"Q 	c #494D62",
"R 	c #494E63",
"S 	c #8891A1",
"T 	c #2F3040",
"U 	c #4A4E64",
"V 	c #4A4E65",
"W 	c #4A4F65",
"X 	c #4B4F64",
"Y 	c #4A4F64",
"Z 	c #4B4F65",
"` 	c #868F9F",
" .	c #313343",
"..	c #4B4F66",
"+.	c #4C5067",
"@.	c #4C5066",
"#.	c #4C5167",
"$.	c #4B5166",
"%.	c #4B5067",
"&.	c #4C5166",
"*.	c #4B5066",
"=.	c #848D9D",
"-.	c #333447",
";.	c #4C5168",
">.	c #4D5169",
",.	c #4D5269",
"'.	c #4D5168",
").	c #4D5268",
"!.	c #808A9B",
"~.	c #35374A",
"{.	c #4D526A",
"].	c #4E536B",
"^.	c #4E546B",
"/.	c #4F546B",
"(.	c #4F536B",
"_.	c #4F546A",
":.	c #4E536A",
"<.	c #4F536A",
"[.	c #7E889A",
"}.	c #37394D",
"|.	c #4F546C",
"1.	c #4F546D",
"2.	c #50546D",
"3.	c #50556D",
"4.	c #4F556D",
"5.	c #7B8598",
"6.	c #393C50",
"7.	c #50556E",
"8.	c #515770",
"9.	c #51566F",
"0.	c #515670",
"a.	c #51576F",
"b.	c #798296",
"c.	c #535871",
"d.	c #525871",
"e.	c #525872",
"f.	c #535771",
"g.	c #525771",
"h.	c #535872",
"i.	c #768095",
"j.	c #3D4156",
"k.	c #525972",
"l.	c #545A73",
"m.	c #535973",
"n.	c #545A74",
"o.	c #545973",
"p.	c #535974",
"q.	c #545974",
"r.	c #535A73",
"s.	c #737E93",
"t.	c #3F435A",
"u.	c #555B75",
"v.	c #555A75",
"w.	c #555A76",
"x.	c #555B76",
"y.	c #717B90",
"z.	c #42465D",
"A.	c #555B77",
"B.	c #565C78",
"C.	c #565D78",
"D.	c #575D78",
"E.	c #575C78",
"F.	c #575C77",
"G.	c #575D77",
"H.	c #565C77",
"I.	c #565D77",
"J.	c #6E788F",
"K.	c #434861",
"L.	c #575D79",
"M.	c #565D79",
"N.	c #575E79",
"O.	c #6C758D",
"P.	c #454A63",
"Q.	c #575D7A",
"R.	c #585E7B",
"S.	c #585E7A",
"T.	c #575E7A",
"U.	c #575E7B",
"V.	c #6A738B",
"W.	c #484D67",
"X.	c #585F7C",
"Y.	c #585E7C",
"Z.	c #595F7C",
"`.	c #585F7B",
" +	c #677089",
".+	c #4A4F6A",
"++	c #585F7D",
"@+	c #59607E",
"#+	c #58607E",
"$+	c #59607D",
"%+	c #595F7E",
"&+	c #595F7D",
"*+	c #58607D",
"=+	c #646E88",
"-+	c #4B526D",
";+	c #59617F",
">+	c #5A617F",
",+	c #59607F",
"'+	c #5A607F",
")+	c #616B86",
"!+	c #4E5471",
"~+	c #596080",
"{+	c #596180",
"]+	c #5F6984",
"^+	c #505774",
"/+	c #586080",
"(+	c #58607F",
"_+	c #586180",
":+	c #586081",
"<+	c #586181",
"[+	c #5D6683",
"}+	c #525977",
"|+	c #565E7E",
"1+	c #565F7F",
"2+	c #575F7F",
"3+	c #575F7E",
"4+	c #575E7F",
"5+	c #575E7E",
"6+	c #585E7F",
"7+	c #585F7F",
"8+	c #57607F",
"9+	c #545C7A",
"0+	c #545B7A",
"a+	c #525B7B",
"b+	c #535C7B",
"c+	c #535D7C",
"d+	c #545D7C",
"e+	c #545C7B",
"f+	c #535C7C",
"g+	c #545D7D",
"h+	c #535D7D",
"i+	c #545C7C",
"j+	c #555E7D",
"k+	c #565E7D",
"l+	c #4D5675",
"m+	c #4E5775",
"n+	c #4E5876",
"o+	c #4E5877",
"p+	c #4E5675",
"q+	c #4F5775",
"r+	c #4F5675",
"s+	c #4F5776",
"t+	c #4E5777",
"u+	c #4E5776",
"v+	c #46506E",
"w+	c #46516F",
"x+	c #47516F",
"y+	c #475170",
"z+	c #47506F",
"A+	c #48516F",
"B+	c #3D4965",
"C+	c #3E4A66",
"D+	c #35415C",
"E+	c #35425C",
"F+	c #35415D",
"G+	c #35425D",
"H+	c #2B3953",
"I+	c #2C3A53",
". + @ @ @ @ . # @ @ @ # # @ . @ @ $ @ @ @ @ @ @ . + @ @ @ @ . # @ @ @ # # @ . @ @ $ @ @ @ @ @ @ ",
"% & * % * = * & * % & * * & * * * * = * % - & - % & * % * = * & * % & * * & * * * * = * % - & = ",
"; > , ' ) > ; ) ; ' ; > > ! ; ; ' > ' ; ; ' > > ; > , ' ) > ; ) ; ' ; > > ! ; ; ' > ' ; ; ' > > ",
"~ { ] ] ] ] ] ] ] ] ~ { ^ ] ] ] ] / ( _ ] ] ~ { ~ { ] ] ] ] ] ] ] ] ~ { ^ ] ] ] ] / ( _ ] ] ~ ] ",
": < < [ < < : < : < [ < < : < < : } < : < < : < : < < [ < < : < : < [ < < : < < : } < : < < : < ",
"| 1 2 3 | 4 | 3 5 1 6 | 6 | 3 5 | 5 5 | 2 4 6 2 | 1 2 3 | 4 | 3 5 1 6 | 6 | 3 5 | 5 5 | 2 4 6 4 ",
"7 8 7 7 7 9 7 7 7 8 0 7 7 7 7 7 7 a a 7 7 7 7 7 7 8 7 7 7 9 7 7 7 8 0 7 7 7 7 7 7 a a 7 7 7 7 9 ",
"b c d d d d d d c d d c d e d c c c d d d c c c d c d d d d d d c d d c d e d c c c d d d c c d ",
"f g h h h h h h g i j g k g k h g h g h g h h h j g h h h h h h g i j g k g k h g h g h g h h h ",
"k l m m n m o p q l m m m m l m m o p p o l m q m l m m n m o p q l m m m m l m m o p p o l m r ",
"s t u u u u u u u t u u u u u u t t u u u t u t u t u u u u u u u t u u u u u u t t u u u t u r ",
"v w x y x w z y z w x w A w A z B C w B D x x x x w x y x w z y z w x w A w A z B C w B D x r E ",
"C F G H I H H I G I J G I I I K G L H H L K F H G F G H I H H I G I J G I I I K G L H H L K M N ",
"H O O O P Q R Q Q Q P R R Q O P P P Q Q O O O O Q O O O P Q R Q Q Q P R R Q O P P P Q Q O O S T ",
"U V W X U X V U W W Y Y Z W Y V W W Z W Y W W W Z V W X U X V U W W Y Y Z W Y V W W Z W Y W `  .",
"..+.@.#.$.%.@.+.+.%.#.@.+.+.%.+.#.&.$.+.#.#.@.*.+.+.@.#.$.%.@.+.+.%.#.@.+.+.%.+.#.&.$.+.#.#.=.-.",
";.>.,.,.>.,.'.).,.).).,.).,.,.,.,.,.,.).,.,.>.,.,.>.,.,.>.,.'.).,.).).,.).,.,.,.,.,.,.).,.,.!.~.",
"{.].^.].^./.^.].^.^.].(.].^._.].^.:.^.^./.<.(./.].].^.].^./.^.].^.^.].(.].^._.].^.:.^.^./.<.[.}.",
"|.1.2.3.1.3.4.3.1.3.3.2.4.3.3.4.4.3.3.3.4.4.3.3.3.1.2.3.1.3.4.3.1.3.3.2.4.3.3.4.4.3.3.3.4.4.5.6.",
"7.8.9.9.9.0.a.9.9.9.0.a.9.9.9.9.9.a.a.9.9.9.8.9.9.8.9.9.9.0.a.9.9.9.0.a.9.9.9.9.9.a.a.9.9.9.b.E ",
"8.c.d.c.d.d.e.f.d.g.h.d.d.d.c.d.d.h.d.d.f.d.c.c.d.c.d.c.d.d.e.f.d.g.h.d.d.d.c.d.d.h.d.d.f.d.i.j.",
"k.l.m.n.m.m.m.o.o.l.m.l.o.l.o.p.m.o.o.o.o.o.q.o.r.l.m.n.m.m.m.o.o.l.m.l.o.l.o.p.m.o.o.o.o.o.s.t.",
"n.u.v.u.u.w.x.u.u.u.x.u.x.u.x.x.u.u.w.u.x.u.u.u.u.u.v.u.u.w.x.u.u.u.x.u.x.u.x.x.u.u.w.u.x.u.y.z.",
"A.B.C.D.E.F.B.E.B.F.G.H.E.C.F.B.B.B.H.F.H.F.I.I.B.B.C.D.E.F.B.E.B.F.G.H.E.C.F.B.B.B.H.F.H.F.J.K.",
"B.L.L.L.M.L.N.L.L.L.L.N.L.L.L.L.N.N.N.L.L.N.L.L.L.L.L.L.M.L.N.L.L.L.L.N.L.L.L.L.N.N.N.L.L.N.O.P.",
"Q.R.R.R.S.S.S.S.S.T.U.U.T.T.R.S.R.R.R.S.T.R.S.S.R.R.R.R.S.S.S.S.S.T.U.U.T.T.R.S.R.R.R.S.T.R.V.W.",
"U.X.Y.Z.X.X.X.X.X.X.X.X.X.X.Y.X.X.X.X.X.X.X.Y.`.X.X.Y.Z.X.X.X.X.X.X.X.X.X.X.Y.X.X.X.X.X.X.X. +.+",
"++@+#+$+$+%+@+$+#+$+++$+$+#+%+@+%+$+@+&+$+$+*+@+@+@+#+$+$+%+@+$+#+$+++$+$+#+%+@+%+$+@+&+$+$+=+-+",
"#+%+;+>+;+,+,+>+;+,+'+,+,+>+,+,+'+>+,+>+>+>+'+,+;+'+;+>+;+,+,+>+;+,+'+,+,+>+,+,+'+>+,+>+>+>+)+!+",
"#+;+~+~+;+;+{+{+,+;+~+~+~+~+~+;+;+{+,+~+~+~+{+~+{+{+~+~+;+;+{+{+,+;+~+~+~+~+~+;+;+{+,+~+~+~+]+^+",
"#+,+~+{+~+/+,+(+,+_+(+,+,+(+{+/+~+~+~+{+~+:+{+~+{+{+~+{+~+/+~+/+~+<+/+~+~+/+{+/+~+~+~+{+~+:+[+}+",
"|+1+2+2+3+2+4+4+4+5+4+4+6+2+2+3+3+2+2+7+2+2+8+2+2+2+2+2+3+2+2+2+2+3+2+2+7+2+2+3+3+2+2+7+2+2+9+0+",
"a+b+c+d+d+d+e+b+e+b+e+f+g+d+d+h+d+i+d+h+g+g+d+d+c+d+c+d+d+d+d+c+d+c+d+h+g+d+d+h+d+i+d+h+g+g+j+k+",
"l+m+n+n+n+o+p+q+r+s+m+n+t+n+t+t+n+t+o+o+o+u+n+o+u+n+n+n+n+o+u+n+u+o+n+n+t+n+t+t+n+t+o+o+o+u+n+o+",
"v+w+x+y+y+x+x+z+z+x+x+x+x+A+y+y+x+x+x+x+x+x+x+x+x+x+x+y+y+x+x+x+x+x+x+x+x+A+y+y+x+x+x+x+x+x+x+x+",
"B+C+C+C+C+C+C+C+C+C+C+C+C+C+C+C+C+C+C+C+C+C+C+C+C+C+C+C+C+C+C+C+C+C+C+C+C+C+C+C+C+C+C+C+C+C+C+C+",
"D+E+D+E+D+D+D+F+D+E+D+D+F+E+D+E+D+D+E+D+D+E+G+G+D+E+D+E+D+D+D+F+D+E+D+D+F+E+D+E+D+D+E+D+D+E+G+D+",
"H+I+I+I+I+I+I+I+I+I+I+I+I+I+I+I+I+I+I+I+I+I+I+I+I+I+I+I+I+I+I+I+I+I+I+I+I+I+I+I+I+I+I+I+I+I+I+I+"};
