/* XPM */
static char * vst__amp_label_end_xpm[] = {
"10 13 6 1",
" 	c None",
".	c #677388",
"+	c #667387",
"@	c #667287",
"#	c #667286",
"$	c #667186",
"..........",
"..........",
"..........",
"++++++++++",
"@@@@@@@@@@",
"@@@@@@@@@@",
"##########",
"##########",
"$$$$$$$$$$",
"$$$$$$$$$$",
"$$$$$$$$$$",
"$$$$$$$$$$",
"$$$$$$$$$$"};
