/* XPM */
static char * vst__button_gui_inactive_xpm[] = {
"79 17 171 2",
"  	c None",
". 	c #808EA3",
"+ 	c #808DA3",
"@ 	c #4D576C",
"# 	c #616C85",
"$ 	c #76839B",
"% 	c #7F8DA2",
"& 	c #4B546C",
"* 	c #5D6983",
"= 	c #727F9A",
"- 	c #727E99",
"; 	c #727F99",
"> 	c #717F99",
", 	c #5A6580",
"' 	c #6E7B96",
") 	c #8591A8",
"! 	c #8493A8",
"~ 	c #8593A7",
"{ 	c #8591A7",
"] 	c #8593A8",
"^ 	c #505B75",
"/ 	c #63708B",
"( 	c #79889F",
"_ 	c #7988A1",
": 	c #7A89A0",
"< 	c #818FA4",
"[ 	c #8492A7",
"} 	c #8290A5",
"| 	c #7C8BA1",
"1 	c #7F8DA3",
"2 	c #7E8DA3",
"3 	c #7E8CA1",
"4 	c #48536B",
"5 	c #596880",
"6 	c #6C7C96",
"7 	c #6C7C97",
"8 	c #6C7E96",
"9 	c #6C7E97",
"0 	c #75849D",
"a 	c #8896AA",
"b 	c #848FA8",
"c 	c #6F7695",
"d 	c #696D91",
"e 	c #6D7293",
"f 	c #697893",
"g 	c #6E7F97",
"h 	c #8793AA",
"i 	c #6C7493",
"j 	c #65748E",
"k 	c #808FA4",
"l 	c #777F9D",
"m 	c #63718A",
"n 	c #6A7B94",
"o 	c #404C62",
"p 	c #4F5D77",
"q 	c #62728E",
"r 	c #61748D",
"s 	c #657590",
"t 	c #808FA3",
"u 	c #666C8E",
"v 	c #485569",
"w 	c #4A566B",
"x 	c #49586B",
"y 	c #475267",
"z 	c #485469",
"A 	c #5C6B86",
"B 	c #79859E",
"C 	c #464E67",
"D 	c #4D5D71",
"E 	c #77859D",
"F 	c #53587A",
"G 	c #475368",
"H 	c #62728D",
"I 	c #61728E",
"J 	c #3C485D",
"K 	c #4B5972",
"L 	c #5C6C89",
"M 	c #5D6E89",
"N 	c #5C6E89",
"O 	c #697A93",
"P 	c #737E99",
"Q 	c #434D64",
"R 	c #475469",
"S 	c #55667F",
"T 	c #5E6F89",
"U 	c #5B6D88",
"V 	c #54657E",
"W 	c #596985",
"X 	c #76819B",
"Y 	c #424B63",
"Z 	c #4A586E",
"` 	c #728299",
" .	c #505377",
"..	c #435064",
"+.	c #566781",
"@.	c #7E8BA1",
"#.	c #6B7B94",
"$.	c #5D6387",
"%.	c #424E63",
"&.	c #4F5E76",
"*.	c #6B7B93",
"=.	c #7B889F",
"-.	c #78859D",
";.	c #677491",
">.	c #75819B",
",.	c #49586E",
"'.	c #4F5377",
").	c #7D8BA1",
"!.	c #677891",
"~.	c #595D82",
"{.	c #424C63",
"].	c #516179",
"^.	c #5F708B",
"/.	c #525C7A",
"(.	c #434A64",
"_.	c #424D63",
":.	c #506078",
"<.	c #424B64",
"[.	c #73839A",
"}.	c #3C475D",
"|.	c #5D6D89",
"1.	c #5E6588",
"2.	c #434864",
"3.	c #4C5671",
"4.	c #64738E",
"5.	c #64718E",
"6.	c #5A5D84",
"7.	c #515F79",
"8.	c #738099",
"9.	c #465269",
"0.	c #677691",
"a.	c #7C88A0",
"b.	c #4D5374",
"c.	c #455167",
"d.	c #576683",
"e.	c #424A63",
"f.	c #7D8AA0",
"g.	c #4B5872",
"h.	c #464F69",
"i.	c #575B81",
"j.	c #697090",
"k.	c #555A7F",
"l.	c #445064",
"m.	c #62748E",
"n.	c #484F6C",
"o.	c #444A65",
"p.	c #445065",
"q.	c #5C6D89",
"r.	c #354054",
"s.	c #435068",
"t.	c #53637E",
"u.	c #54637E",
"v.	c #505F79",
"w.	c #435066",
"x.	c #3D495D",
"y.	c #3E4A5E",
"z.	c #3E4A5F",
"A.	c #424E64",
"B.	c #4D5C76",
"C.	c #4E5D77",
"D.	c #404C61",
"E.	c #4D5C75",
"F.	c #51617B",
"G.	c #424F65",
"H.	c #7C8A9F",
"I.	c #303A4C",
"J.	c #4A5770",
"K.	c #48566E",
"L.	c #49566F",
"M.	c #7C899F",
"N.	c #7C899E",
". . . . . . . . . . . . . . . . . . . . . . . . . . . . . . . . . . . . . . . . . . . . . . . . . . . . . . . . . . . . . . . . . . . . . . . . . . . . . . . ",
"+ + + + + + + + + @ # $ $ $ $ $ $ $ $ $ $ $ $ $ $ $ $ $ $ $ $ $ $ $ $ $ $ $ $ $ $ $ $ $ $ $ $ $ $ $ $ $ $ $ $ $ $ $ $ $ $ $ $ $ $ $ $ $ $ $ $ # @ + + + + + + ",
"% % % % % % % % % & * = - ; ; - - ; - ; - ; ; - ; - ; ; ; - ; - ; - ; - ; ; ; - ; - ; ; - ; ; - ; - ; - ; ; - ; ; - ; - ; ; - ; - - - ; ; > ; * & % % % % % % ",
"% % % % % % % % % , ' ) ! ~ ~ ! ! ~ ! ~ ! ~ ~ ! ~ ! ~ ~ ~ ! ~ ! ~ ! ~ ! ~ ~ ~ ! ~ ! ~ ~ ! ~ ~ ! ~ ! ~ ! ~ ~ ! ~ ~ ! ~ ! ~ ~ ! ~ ! ! ! ~ ~ { ] ' , % % % % % % ",
"% % % % % % % % % ^ / ( ( ( _ ( ( ( ( ( ( ( ( ( ( ( ( _ ( ( ( ( : < [ } | _ ( < 1 ( ( 2 < : ( < 1 ( ( ( ( ( ( ( ( ( ( ( ( _ ( ( ( ( ( ( _ ( ( / ^ % % % % % % ",
"3 3 3 3 3 3 3 3 3 4 5 6 7 8 9 7 7 8 7 8 7 8 8 7 8 7 8 9 8 7 8 0 a b c d e f g h i j 8 k l m n h i j 8 7 8 8 7 8 8 7 8 7 8 9 7 8 7 7 7 8 9 9 6 5 4 3 3 3 3 3 3 ",
"3 3 3 3 3 3 3 3 3 o p q r q q r r q r q r q q r q r q q q r s t u v w x y z A B C D q E F G A B C D q r q q r q q r q r q q r q r r r q q H I p o 3 3 3 3 3 3 ",
"3 3 3 3 3 3 3 3 3 J K L M N N M M N M N M N N M N M N N N M O P Q R S T U V W X Y Z N `  ...+.X Y Z N M N N M N N M N M N N M N M M M N N N N K J 3 3 3 3 3 3 ",
"@.@.@.@.@.@.@.@.@.J K N N N L N N N N N N N N N N N N L N N #.$.%.&.*.=.-.;.M >.Y ,.N ` '...+.>.Y ,.N N N N N N N N N N N L N N N N N N L N N K J @.@.@.@.@.@.",
").).).).).).).).).J K N N N N N N N N N N N N N N N N N N N !.~.{.].^./.(._.:.>.<.,.N [.'...+.>.Y ,.N N N N N N N N N N N N N N N N N N N N N K J ).).).).).).",
").).).).).).).).).}.K N N L N N N L N L N L L N L N L N L N |.1.2.3.4.5.6._.7.8.2.9.0.a.b.c.d.>.e.,.L N L L N L L N L N L N N L N N N L N N N K }.).).).).).).",
"f.f.f.f.f.f.f.f.f.J g.N N N M N N N N N N N N N N N N M N N N M h.(.i.j.k.l.].m.n.o.$.1.p.R q.>.Y ,.N N N N N N N N N N N M N N N N N N M N N g.J f.f.f.f.f.f.",
"f.f.f.f.f.f.f.f.f.r.s.t.t.t.u.t.t.t.t.t.t.t.t.t.t.t.t.u.t.t.t.t.v.w.x.y.z.A.B.t.C.D.x.z.D.E.t.F.z.G.t.t.t.t.t.t.t.t.t.t.t.u.t.t.t.t.t.t.u.t.t.s.r.f.f.f.f.f.f.",
"H.H.H.H.H.H.H.H.H.I.J K K K K K K K K K K K K K K K K K K K K K K K J.K.J.K K K K K L.K.K K K K K K K K K K K K K K K K K K K K K K K K K K K J I.H.H.H.H.H.H.",
"M.M.M.M.M.M.M.M.M.I.J K K K K K K K K K K K K K K K K K K K K K K K K K K K K K K K K K K K K K K K K K K K K K K K K K K K K K K K K K K K K J I.M.M.M.M.M.M.",
"N.N.N.N.N.N.N.N.N.N.N.N.N.N.N.N.N.N.N.N.N.N.N.N.N.N.N.N.N.N.N.N.N.N.N.N.N.N.N.N.N.N.N.N.N.N.N.N.N.N.N.N.N.N.N.N.N.N.N.N.N.N.N.N.N.N.N.N.N.N.N.N.N.N.N.N.N.N.N.",
"N.N.N.N.N.N.N.N.N.N.N.N.N.N.N.N.N.N.N.N.N.N.N.N.N.N.N.N.N.N.N.N.N.N.N.N.N.N.N.N.N.N.N.N.N.N.N.N.N.N.N.N.N.N.N.N.N.N.N.N.N.N.N.N.N.N.N.N.N.N.N.N.N.N.N.N.N.N.N."};
