/* XPM */
static char * vst__button_params_active_xpm[] = {
"79 16 495 2",
"  	c None",
". 	c #788599",
"+ 	c #4D576C",
"@ 	c #616C85",
"# 	c #76839B",
"$ 	c #77849B",
"% 	c #78859C",
"& 	c #79869D",
"* 	c #7B879E",
"= 	c #7D89A0",
"- 	c #7E8AA0",
"; 	c #7D8AA0",
"> 	c #7E8AA1",
", 	c #7C89A0",
"' 	c #7C889F",
") 	c #7C899F",
"! 	c #7F8BA1",
"~ 	c #78849C",
"{ 	c #788498",
"] 	c #4B546C",
"^ 	c #5D6983",
"/ 	c #727F9A",
"( 	c #727E99",
"_ 	c #727F99",
": 	c #74809A",
"< 	c #76819B",
"[ 	c #79849E",
"} 	c #7C88A0",
"| 	c #7E89A1",
"1 	c #808BA3",
"2 	c #7F8AA2",
"3 	c #7F8BA2",
"4 	c #808CA3",
"5 	c #7D89A1",
"6 	c #7D88A1",
"7 	c #808AA3",
"8 	c #7E8AA2",
"9 	c #7E89A2",
"0 	c #818CA4",
"a 	c #818DA4",
"b 	c #818CA3",
"c 	c #7B879F",
"d 	c #78839D",
"e 	c #75819B",
"f 	c #737F9A",
"g 	c #717F99",
"h 	c #5A6580",
"i 	c #6E7B96",
"j 	c #8591A8",
"k 	c #8493A8",
"l 	c #8694A7",
"m 	c #8795A8",
"n 	c #8A98AB",
"o 	c #8D9BAE",
"p 	c #929EB0",
"q 	c #94A1B3",
"r 	c #97A3B4",
"s 	c #97A4B5",
"t 	c #96A2B4",
"u 	c #97A2B3",
"v 	c #96A3B5",
"w 	c #95A2B4",
"x 	c #96A2B3",
"y 	c #95A1B3",
"z 	c #95A1B2",
"A 	c #93A0B2",
"B 	c #94A0B1",
"C 	c #98A4B5",
"D 	c #98A4B6",
"E 	c #99A4B5",
"F 	c #99A5B5",
"G 	c #98A5B6",
"H 	c #93A0B3",
"I 	c #919EAF",
"J 	c #8C9AAE",
"K 	c #8997AB",
"L 	c #8695A9",
"M 	c #8593A7",
"N 	c #8591A7",
"O 	c #8593A8",
"P 	c #505B75",
"Q 	c #63708B",
"R 	c #79879E",
"S 	c #79889F",
"T 	c #7A89A0",
"U 	c #7D8BA3",
"V 	c #818FA4",
"W 	c #8693A8",
"X 	c #8E9AAD",
"Y 	c #B5BDC9",
"Z 	c #B7BECA",
"` 	c #B7BFCB",
" .	c #B3BBC8",
"..	c #9BA6B7",
"+.	c #939FB1",
"@.	c #939FB2",
"#.	c #9FAAB9",
"$.	c #B8C0CC",
"%.	c #B6BECB",
"&.	c #919DB0",
"*.	c #949FB1",
"=.	c #B7BFCA",
"-.	c #B2BAC7",
";.	c #98A4B7",
">.	c #909CAF",
",.	c #9EA9B9",
"'.	c #B8C0CB",
").	c #A2ACBC",
"!.	c #A4AFBE",
"~.	c #B9C1CC",
"{.	c #99A3B5",
"].	c #C5CBD5",
"^.	c #BDC4D0",
"/.	c #A5AFBE",
"(.	c #8A97AB",
"_.	c #808EA4",
":.	c #7C8BA1",
"<.	c #7988A1",
"[.	c #788397",
"}.	c #48536B",
"|.	c #596880",
"1.	c #6C7C96",
"2.	c #6C7C97",
"3.	c #6E8097",
"4.	c #72839A",
"5.	c #77859E",
"6.	c #7D8BA2",
"7.	c #8E9BAD",
"8.	c #FDFDFD",
"9.	c #FEFEFE",
"0.	c #FAFAFB",
"a.	c #B4BBC9",
"b.	c #8F9CAE",
"c.	c #8F9BAF",
"d.	c #D1D7DE",
"e.	c #A8AEBE",
"f.	c #8B99AC",
"g.	c #8C98AD",
"h.	c #97A3B3",
"i.	c #F8F8FA",
"j.	c #A3ADBD",
"k.	c #8B97AD",
"l.	c #D1D6DD",
"m.	c #A8AFBD",
"n.	c #D6D7E0",
"o.	c #8E9AAC",
"p.	c #909DAF",
"q.	c #E2E5EA",
"r.	c #8F99AB",
"s.	c #ECEEF1",
"t.	c #FCFCFD",
"u.	c #7F8EA1",
"v.	c #7C8AA2",
"w.	c #76849D",
"x.	c #71809A",
"y.	c #6C7E97",
"z.	c #778397",
"A.	c #404C62",
"B.	c #4F5D77",
"C.	c #62728E",
"D.	c #62758E",
"E.	c #657490",
"F.	c #697892",
"G.	c #6E7F96",
"H.	c #76869B",
"I.	c #8A95A9",
"J.	c #E3E4E8",
"K.	c #818B97",
"L.	c #A1A7B1",
"M.	c #E8E9EC",
"N.	c #8590A2",
"O.	c #8B99AB",
"P.	c #F4F5F7",
"Q.	c #F0F1F4",
"R.	c #CDD0D5",
"S.	c #848FA2",
"T.	c #8896A9",
"U.	c #E5E6E9",
"V.	c #838D99",
"W.	c #BFC2CA",
"X.	c #FFFFFF",
"Y.	c #C0C3CB",
"Z.	c #8391A2",
"`.	c #8894A9",
" +	c #8997A9",
".+	c #CDCFD5",
"++	c #FBFBFB",
"@+	c #8B94A3",
"#+	c #9FA8B9",
"$+	c #9BA2AD",
"%+	c #C3C7CE",
"&+	c #798191",
"*+	c #7B8494",
"=+	c #989FAA",
"-+	c #6A7485",
";+	c #75859B",
">+	c #677991",
",+	c #63738E",
"'+	c #62728D",
")+	c #61728E",
"!+	c #778297",
"~+	c #3C485D",
"{+	c #4B5972",
"]+	c #5C6C89",
"^+	c #5E6F89",
"/+	c #5F708B",
"(+	c #63748D",
"_+	c #6B7A92",
":+	c #738198",
"<+	c #8693A6",
"[+	c #FCFCFC",
"}+	c #E1E2E6",
"|+	c #798493",
"1+	c #9AA3B5",
"2+	c #EDEDF0",
"3+	c #7A8494",
"4+	c #AEB7C4",
"5+	c #BABEC6",
"6+	c #DCDEE2",
"7+	c #F7F8F8",
"8+	c #828C9B",
"9+	c #8794A7",
"0+	c #929EAF",
"a+	c #E3E4E7",
"b+	c #848D9B",
"c+	c #C8CDD7",
"d+	c #ABB0B9",
"e+	c #7E899A",
"f+	c #8794A8",
"g+	c #AEB6C3",
"h+	c #BBBFC7",
"i+	c #DDDEE3",
"j+	c #D9DADF",
"k+	c #F3F3F5",
"l+	c #CDD2DB",
"m+	c #F1F2F4",
"n+	c #DEDFE4",
"o+	c #9198A4",
"p+	c #F0F0F2",
"q+	c #C5C8D1",
"r+	c #B2BBC7",
"s+	c #8793A7",
"t+	c #768498",
"u+	c #748299",
"v+	c #6C7B94",
"w+	c #65758F",
"x+	c #5F718B",
"y+	c #5D6F89",
"z+	c #5C6E89",
"A+	c #778296",
"B+	c #64738E",
"C+	c #6A7A92",
"D+	c #728298",
"E+	c #FAFAFA",
"F+	c #EEEFF1",
"G+	c #FBFCFC",
"H+	c #B3B7C0",
"I+	c #798393",
"J+	c #DBDFE4",
"K+	c #8B92A0",
"L+	c #B2B7C3",
"M+	c #AAAFB9",
"N+	c #8693A7",
"O+	c #D4D6DE",
"P+	c #788290",
"Q+	c #808D9E",
"R+	c #8895A8",
"S+	c #8B93A0",
"T+	c #D5D7DC",
"U+	c #BFC3CC",
"V+	c #F1F1F3",
"W+	c #F6F7F8",
"X+	c #BBBFC9",
"Y+	c #7C8694",
"Z+	c #B9BECB",
"`+	c #EDEEF0",
" @	c #F3F4F6",
".@	c #8C98AC",
"+@	c #74839A",
"@@	c #6C7C94",
"#@	c #64758F",
"$@	c #60718C",
"%@	c #5D6D8A",
"&@	c #768296",
"*@	c #63748E",
"=@	c #728198",
"-@	c #8592A6",
";@	c #B2B7C0",
">@	c #AFB4BE",
",@	c #8F96A2",
"'@	c #737E8D",
")@	c #8490A0",
"!@	c #FAFBFB",
"~@	c #D3D5DA",
"{@	c #E2E4E9",
"]@	c #DDDFE3",
"^@	c #808C9E",
"/@	c #EAEBED",
"(@	c #9BA1AC",
"_@	c #E7E8EB",
":@	c #9AA2AE",
"<@	c #8F9BAE",
"[@	c #8892A0",
"}@	c #808997",
"|@	c #DFE0E7",
"1@	c #7B8493",
"2@	c #88909E",
"3@	c #CBCED4",
"4@	c #A9AFB9",
"5@	c #728097",
"6@	c #6C7C95",
"7@	c #65768F",
"8@	c #5D6F8A",
"9@	c #768195",
"0@	c #3C475D",
"a@	c #5F6E8B",
"b@	c #697991",
"c@	c #707F96",
"d@	c #838FA4",
"e@	c #DFE0E4",
"f@	c #6F7A8A",
"g@	c #7C899D",
"h@	c #B9C0CC",
"i@	c #DFE1E5",
"j@	c #D0D2D8",
"k@	c #D2D4DB",
"l@	c #ECEDF0",
"m@	c #87909F",
"n@	c #8F9AAD",
"o@	c #E1E3E6",
"p@	c #758090",
"q@	c #9DA4B5",
"r@	c #DDDEE2",
"s@	c #7F8C9F",
"t@	c #BAC1CD",
"u@	c #E0E1E6",
"v@	c #87909E",
"w@	c #D4D6DB",
"x@	c #778293",
"y@	c #BDC1CE",
"z@	c #ABB0BA",
"A@	c #717C8C",
"B@	c #E3E5EA",
"C@	c #9299A5",
"D@	c #D8DBE2",
"E@	c #A6AFBE",
"F@	c #9DA2AE",
"G@	c #6A788C",
"H@	c #6B7B94",
"I@	c #606F8B",
"J@	c #758195",
"K@	c #4B5872",
"L@	c #5E708A",
"M@	c #62738C",
"N@	c #677790",
"O@	c #6D7D94",
"P@	c #7F8DA1",
"Q@	c #DEE0E4",
"R@	c #6A7688",
"S@	c #79879D",
"T@	c #7A899F",
"U@	c #E5E8EC",
"V@	c #7D8694",
"W@	c #717C8D",
"X@	c #727E90",
"Y@	c #A5ABB7",
"Z@	c #B5B9C1",
"`@	c #8692A5",
" #	c #E0E1E5",
".#	c #707C8D",
"+#	c #7E8DA2",
"@#	c #DFE1E7",
"##	c #939BA8",
"$#	c #707B8D",
"%#	c #B4B8C1",
"&#	c #8592A4",
"*#	c #7C8BA0",
"=#	c #738093",
"-#	c #758295",
";#	c #E3E6EB",
">#	c #868E9B",
",#	c #667282",
"'#	c #68768C",
")#	c #697992",
"!#	c #758095",
"~#	c #354054",
"{#	c #435068",
"]#	c #53637E",
"^#	c #54637E",
"/#	c #55657F",
"(#	c #586781",
"_#	c #5C6B84",
":#	c #616F88",
"<#	c #66748B",
"[#	c #67758B",
"}#	c #586274",
"|#	c #5B6679",
"1#	c #68768E",
"2#	c #69778E",
"3#	c #6A788F",
"4#	c #6C7A91",
"5#	c #606B7E",
"6#	c #5D6779",
"7#	c #6E7A90",
"8#	c #707D93",
"9#	c #697589",
"0#	c #5E6879",
"a#	c #667286",
"b#	c #6E7B90",
"c#	c #616C7E",
"d#	c #626D7F",
"e#	c #6B778D",
"f#	c #6D7A90",
"g#	c #6F7C93",
"h#	c #667185",
"i#	c #6D7B90",
"j#	c #5C6678",
"k#	c #606B7F",
"l#	c #6D7A91",
"m#	c #6E7C92",
"n#	c #60697B",
"o#	c #6F7B90",
"p#	c #6E7888",
"q#	c #767E8C",
"r#	c #697382",
"s#	c #5D6778",
"t#	c #5D687B",
"u#	c #627089",
"v#	c #5D6C85",
"w#	c #596882",
"x#	c #556580",
"y#	c #758094",
"z#	c #303A4C",
"A#	c #4C5A73",
"B#	c #4F5C74",
"C#	c #515E76",
"D#	c #556279",
"E#	c #58657C",
"F#	c #5A677E",
"G#	c #5B677E",
"H#	c #5A667D",
"I#	c #5C697F",
"J#	c #5D6A80",
"K#	c #5F6B81",
"L#	c #5F6B82",
"M#	c #5F6C82",
"N#	c #5E6A81",
"O#	c #5D6980",
"P#	c #5C687F",
"Q#	c #616D83",
"R#	c #626E84",
"S#	c #647085",
"T#	c #636E83",
"U#	c #606C80",
"V#	c #5E6A80",
"W#	c #56637B",
"X#	c #525F77",
"Y#	c #4F5C75",
"Z#	c #4D5A73",
"`#	c #4C5972",
" $	c #4D5B73",
".$	c #505E76",
"+$	c #536078",
"@$	c #546179",
"#$	c #536178",
"$$	c #55627A",
"%$	c #57647B",
"&$	c #55637A",
"*$	c #59667D",
"=$	c #5B687E",
"-$	c #526078",
";$	c #4F5D75",
">$	c #748093",
",$	c #758193",
"'$	c #768194",
")$	c #778395",
"!$	c #788396",
"~$	c #788496",
"{$	c #798496",
"]$	c #798597",
"^$	c #798497",
"/$	c #7A8597",
"($	c #7B8698",
"_$	c #7B8799",
":$	c #7C8799",
"<$	c #768294",
"[$	c #758194",
"}$	c #747F93",
"|$	c #758093",
"1$	c #768094",
"2$	c #778295",
"3$	c #798396",
"4$	c #7A8497",
"5$	c #7A8598",
"6$	c #7B8598",
". . . . . . . . . + @ # # # $ % & * = = - ; = = = = ; - - = = = = ; > > - = , ' ) = ; - - ; = = = - > ! ! ! > > > > > > - ; , * & ~ # # # # # @ + . . . . . . ",
"{ { { { { { { { { ] ^ / ( _ : < [ } | 1 1 1 1 2 3 2 4 1 1 2 2 2 2 1 4 1 1 3 5 6 5 | 3 1 7 2 8 9 3 2 4 0 0 a 0 a a 0 a 0 b 1 | c d e f _ _ g _ ^ ] { { { { { { ",
"{ { { { { { { { { h i j k l m n o p q r s r r t u v r r r w x y x v r s r x z A B q x r v x x y x v C D E F G F F G F D C r H I J K L M M N O i h { { { { { { ",
"{ { { { { { { { { P Q R S T U V W X Y Z `  ...+.@.@.#.$.%.+.&.&.*.=.` ` -.;.&.>.>.&.,.` %.+.p &.*.=.'.).y y !.~.~.t {.~.].^./.(.O _.:.T <.S S Q P { { { { { { ",
"[.[.[.[.[.[.[.[.[.}.|.1.2.3.4.5.6.7.8.8.9.9.0.a.b.c.d.9.9.e.f.g.h.8.9.9.9.i.j.k.f.g.l.9.9.m.f.g.h.8.9.n.o.p.q.9.9.r.s.9.0.t.t.u.v.w.x.3.y.y.1.|.}.[.[.[.[.[.[.",
"z.z.z.z.z.z.z.z.z.A.B.C.D.E.F.G.H.I.8.J.K.L.9.M.N.O.P.Q.8.R.S.T.*.8.U.V.W.X.Y.Z.`. +P.Q.8..+S.T.*.8.++++@+#+8.++9.$+X.%+&+*+=+-+;+G.>+E.,+'+)+B.A.z.z.z.z.z.z.",
"!+!+!+!+!+!+!+!+!+~+{+]+^+/+(+_+:+<+[+}+|+1+9.2+3+4+9.5+6+7+8+9+0+8.a+b+c+9.d+e+f+g+9.h+i+7+8+9+0+8.j+k+5+l+m+n+9.o+9.p+q+r+s+t+u+v+w+x+y+z+z+{+~+!+!+!+!+!+!+",
"A+A+A+A+A+A+A+A+A+~+{+z+y+/+B+C+D+<+[+E+F+G+9.H+I+J+9.K+L+8.M+N+0+9.9.9.9.O+P+Q+R+J+9.S+L+8.M+N+0+9.T+U+V+W+X+i+9.Y+Z+`+9.9. @.@+@@@#@$@%@z+z+{+~+A+A+A+A+A+A+",
"&@&@&@&@&@&@&@&@&@~+{+z+y+x+*@C+=@-@[+F+;@>@,@'@)@!@[+~@{@9.]@^@0+9./@(@_@8.:@f+<@!@[+~@{@9.]@^@0+9.T+[@8.0.}@|@X.1@9+Q+2@3@X.4@5@6@7@$@8@z+z+{+~+&@&@&@&@&@&@",
"9@9@9@9@9@9@9@9@9@0@{+z+8@a@(+b@c@d@[+e@f@9@[.g@h@9.i@j@k@l@8.m@n@9.o@p@q@9.r@s@t@9.u@j@k@l@8.v@n@9.w@x@y@z@A@B@X.C@D@-.E@D@9.F@G@H@#@I@8@z+z+{+0@9@9@9@9@9@9@",
"J@J@J@J@J@J@J@J@J@~+K@z+z+L@M@N@O@P@8.Q@R@S@S@T@U@9.V@W@X@Y@9.Z@`@9. #.#+#@#9.##U@8.V@$#X@Y@9.%#&#X.~@.#*#=#-#;#9.>#l@9.X.9.k@,#'#)#*@/+^+z+z+K@~+J@J@J@J@J@J@",
"!#!#!#!#!#!#!#!#!#~#{#]#^#/#(#_#:#<#[#}#|#1#2#3#4#5#6#7#8#8#9#0#a#b#0#c#8#8#d#0#e#d#0#f#g#8#9#0#h#i#j#k#4#4#l#m#d#n#o#p#q#r#s#t#u#v#w#x#^#]#]#{#~#!#!#!#!#!#!#",
"y#y#y#y#y#y#y#y#y#z#~+{+{+A#B#C#D#E#F#G#F#H#H#F#I#J#K#K#K#K#L#L#L#L#L#L#L#L#L#L#L#L#L#M#M#K#K#K#K#N#J#O#P#P#O#N#M#Q#R#S#T#U#V#G#W#X#Y#Z#{+{+{+~+z#y#y#y#y#y#y#",
"y#y#y#y#y#y#y#y#y#z#~+{+{+`# $B#.$+$@$D#@$#$#$@$$$W#W#%$%$%$%$%$%$%$%$%$%$%$%$%$%$%$%$%$%$%$%$%$%$%$W#&$$$$$&$W#E#*$H#=$=$F#E#$$-$;$Z#{+{+{+{+~+z#y#y#y#y#y#y#",
">$>$>$>$>$>$>$>$>$>$>$>$>$>$,$'$)$!$!$~$~$~$~$~${$]$]$]$]$]$]$]$]$]$]$]$]$]$]$]$]$]$]$]$]$]$]$]$]$]$]$^${$^${$]$/$($_$:$:$:$(${$)$<$[$>$>$>$>$>$>$>$>$>$>$>$>$",
"}$}$}$}$}$}$}$}$}$}$}$}$}$}$|$1$2$!$3$3$3$3$3$3$^$^$^$^$^$^$^$^$^$^$^$^$^$^$^$^$^$^$^$^$^$^$^$^$^$^$^$^$^$^$^$^$4$5$6$($($6$5$^$!$2$'$|$}$}$}$}$}$}$}$}$}$}$}$"};
