/* XPM */
static char * control_play_block_xpm[] = {
"24 24 142 2",
"  	c None",
". 	c #000000",
"+ 	c #B7CFE7",
"@ 	c #96BDE2",
"# 	c #9AC2E8",
"$ 	c #A0CCEE",
"% 	c #9DC9EB",
"& 	c #98C1E4",
"* 	c #94B9DE",
"= 	c #8FB3D7",
"- 	c #89ABD1",
"; 	c #85A4CB",
"> 	c #829EC4",
", 	c #7C95BE",
"' 	c #788EB8",
") 	c #7287B2",
"! 	c #6F80AB",
"~ 	c #6879A6",
"{ 	c #46578E",
"] 	c #313D7B",
"^ 	c #A3C6E7",
"/ 	c #8EBFE8",
"( 	c #91C4EB",
"_ 	c #8ABBE4",
": 	c #86B3DC",
"< 	c #7FACD5",
"[ 	c #7BA2CD",
"} 	c #7598C7",
"| 	c #6F91BF",
"1 	c #6888B8",
"2 	c #627FB0",
"3 	c #5E78A8",
"4 	c #576EA3",
"5 	c #54689A",
"6 	c #4D5E93",
"7 	c #182366",
"8 	c #070707",
"9 	c #B4D3EE",
"0 	c #8AC0EA",
"a 	c #87BBE7",
"b 	c #81B2DF",
"c 	c #7CABD6",
"d 	c #75A1CF",
"e 	c #309615",
"f 	c #278612",
"g 	c #1E750F",
"h 	c #18610D",
"i 	c #5874A8",
"j 	c #516BA1",
"k 	c #4C6398",
"l 	c #455A91",
"m 	c #273573",
"n 	c #24306A",
"o 	c #A6CFEE",
"p 	c #84B7E2",
"q 	c #7DAEDB",
"r 	c #79A5D3",
"s 	c #739CCB",
"t 	c #2B8C14",
"u 	c #8CE357",
"v 	c #79DB4C",
"w 	c #67D343",
"x 	c #5470A4",
"y 	c #4F679D",
"z 	c #495F95",
"A 	c #43568D",
"B 	c #1A2664",
"C 	c #B4D4F0",
"D 	c #88B8E0",
"E 	c #7AABD8",
"F 	c #6F98C7",
"G 	c #82DF51",
"H 	c #6FD748",
"I 	c #60CD3E",
"J 	c #4C629A",
"K 	c #9CC1E4",
"L 	c #78A5D4",
"M 	c #729CCC",
"N 	c #6E94C4",
"O 	c #237D11",
"P 	c #69D343",
"Q 	c #57C93A",
"R 	c #43558F",
"S 	c #1A2662",
"T 	c #A8C7E4",
"U 	c #84ACD4",
"V 	c #7099C8",
"W 	c #6A90C0",
"X 	c #20770F",
"Y 	c #71D749",
"Z 	c #61CD3E",
"` 	c #51C436",
" .	c #4C649A",
"..	c #465A92",
"+.	c #364682",
"@.	c #19245F",
"#.	c #95B3D9",
"$.	c #678BBD",
"%.	c #1D6D0E",
"&.	c #67D344",
"*.	c #58C93A",
"=.	c #49BF33",
"-.	c #495F97",
";.	c #43578F",
">.	c #A0BBDA",
",.	c #7B9BC7",
"'.	c #6587B9",
").	c #19650D",
"!.	c #60CE3E",
"~.	c #51C437",
"{.	c #43B830",
"].	c #364780",
"^.	c #94ACD0",
"/.	c #6183B5",
"(.	c #165E0C",
"_.	c #58CA3C",
":.	c #3DB32C",
"<.	c #27336F",
"[.	c #9AB0D0",
"}.	c #6F8BB9",
"|.	c #5975A9",
"1.	c #526CA2",
"2.	c #465B92",
"3.	c #40518A",
"4.	c #141E5A",
"5.	c #93A7C9",
"6.	c #5570A7",
"7.	c #4F699F",
"8.	c #92A6C6",
"9.	c #637CAB",
"0.	c #475B93",
"a.	c #41528B",
"b.	c #8B9BBF",
"c.	c #4A5F96",
"d.	c #44558E",
"e.	c #8392B7",
"f.	c #6A7AA8",
"g.	c #41538B",
"h.	c #99A4C1",
"i.	c #2F3C7B",
"j.	c #6777A3",
"k.	c #222D6E",
"                                                ",
"                                                ",
"                                                ",
"    . . . . . . . . . . . . . . . . . . . .     ",
"    . + @ # $ % & * = - ; > , ' ) ! ~ { ] . .   ",
"      . ^ / ( _ : < [ } | 1 2 3 4 5 6 7 8 . .   ",
"      . 9 0 a b c d e f g h i j k l m n . .     ",
"        . o p q r s t u v w x y z A B . . .     ",
"        . C D E d F f G H I j J l m n . .       ",
"          . K L M N O v P Q y z R S . . .       ",
"          . T U V W X Y Z `  ...+.@.. .         ",
"            . #.N $.%.&.*.=.-.;.B . . .         ",
"            . >.,.'.).!.~.{...].@.. .           ",
"              . ^./.(._.=.:.;.<.. . .           ",
"              . [.}.|.1. .2.3.4.. .             ",
"                . 5.6.7.z ;.<.. . .             ",
"                . 8.9. .0.a.4.. .               ",
"                  . b.c.d.<.. . .               ",
"                  . e.f.g.4.. .                 ",
"                    . h.i.. . .                 ",
"                    . j.k.. .                   ",
"                      . . . .                   ",
"                        . .                     ",
"                                                "};
