/* XPM */
static char * control_rw_xpm[] = {
"24 24 60 1",
" 	c None",
".	c #000000",
"+	c #B7D8E7",
"@	c #B4DEEE",
"#	c #96CCE2",
"$	c #B4E0F0",
"%	c #8AD2EA",
"&	c #9AD1E8",
"*	c #A8D2E4",
"=	c #88C8E0",
"-	c #87CDE7",
";	c #A0DBEE",
">	c #A0C6DA",
",	c #84BBD4",
"'	c #7ABCD8",
")	c #81C3DF",
"!	c #9DD8EB",
"~	c #9ABAD0",
"{	c #7BA9C7",
"]	c #70AAC8",
"^	c #75B2CF",
"/	c #7CBBD6",
"(	c #98CFE4",
"_	c #92AFC6",
":	c #6F99B9",
"<	c #6596B9",
"[	c #6AA1C0",
"}	c #6FA9C7",
"|	c #94C7DE",
"1	c #6A86A8",
"2	c #4C739A",
"3	c #527BA2",
"4	c #5783A9",
"5	c #5E8CB0",
"6	c #6495B8",
"7	c #89B8D1",
"8	c #41608B",
"9	c #476993",
"0	c #5885A8",
"a	c #85B1CB",
"b	c #142B5A",
"c	c #405F8A",
"d	c #466892",
"e	c #517AA1",
"f	c #5883A8",
"g	c #7CA1BE",
"h	c #365580",
"i	c #4C719A",
"j	c #789BB8",
"k	c #19325F",
"l	c #365482",
"m	c #456991",
"n	c #4C7298",
"o	c #7293B2",
"p	c #274473",
"q	c #6F8BAB",
"r	c #243D6A",
"s	c #6885A6",
"t	c #46658E",
"u	c #314B7B",
"                        ",
"                        ",
"                        ",
"         ..         ..  ",
"        .+.        .+.  ",
"       .@#.       .@#.  ",
"      .$%&.      .$%&.  ",
"     .*=-;.     .*=-;.  ",
"    .>,')!.    .>,')!.  ",
"   .~{]^/(.   .~{]^/(.  ",
"  ._:<[}^|.  ._:<[}^|.  ",
" .123456[7. .123456[7.  ",
" .8923056a. .8923056a.  ",
"  .bcd2efg.  .bcd2efg.  ",
"   .bhdiej.   .bhdiej.  ",
"    .klmno.    .klmno.  ",
"     .kpmq.     .kpmq.  ",
"      .rps.      .rps.  ",
"       .rt.       .rt.  ",
"        .u.        .u.  ",
"         ..         ..  ",
"                        ",
"                        ",
"                        "};
