/* XPM */
static char * control_stop_xpm[] = {
"24 24 235 2",
"  	c None",
". 	c #000000",
"+ 	c #131313",
"@ 	c #0E0E0E",
"# 	c #E8BE7A",
"$ 	c #EBC489",
"% 	c #EABC7E",
"& 	c #EAB97E",
"* 	c #EAB77E",
"= 	c #EAB57E",
"- 	c #EAB27E",
"; 	c #E9AB7A",
"> 	c #EAA97A",
", 	c #EAA87A",
"' 	c #EAA87E",
") 	c #EBA67E",
"! 	c #EAA47E",
"~ 	c #EA9C76",
"{ 	c #E8916C",
"] 	c #E26F51",
"^ 	c #E8BA7A",
"/ 	c #E6B674",
"( 	c #E09C4A",
"_ 	c #E1984A",
": 	c #E0954A",
"< 	c #E19249",
"[ 	c #E18F4A",
"} 	c #E39254",
"| 	c #E38F54",
"1 	c #E38B54",
"2 	c #E48750",
"3 	c #E38350",
"4 	c #E47F50",
"5 	c #E37445",
"6 	c #DE5A2F",
"7 	c #D11E0E",
"8 	c #E7B473",
"9 	c #E09A46",
"0 	c #D9801F",
"a 	c #DA7C20",
"b 	c #DA7820",
"c 	c #DB741F",
"d 	c #DB7120",
"e 	c #DB6D20",
"f 	c #DB6920",
"g 	c #DC651F",
"h 	c #DB611F",
"i 	c #DC5D20",
"j 	c #DC5820",
"k 	c #DC5420",
"l 	c #DC4A1D",
"m 	c #CB1107",
"n 	c #E5AB67",
"o 	c #DE913C",
"p 	c #DA7420",
"q 	c #DA7020",
"r 	c #DB6C20",
"s 	c #DB6820",
"t 	c #DB6420",
"u 	c #DB6020",
"v 	c #DC5C1F",
"w 	c #DD5020",
"x 	c #DB401B",
"y 	c #C60B05",
"z 	c #E6A867",
"A 	c #DE8B3B",
"B 	c #DA731F",
"C 	c #DC6820",
"D 	c #DB6320",
"E 	c #DC601F",
"F 	c #DC5C20",
"G 	c #DD5820",
"H 	c #DD5021",
"I 	c #DD4C20",
"J 	c #DB3D1B",
"K 	c #C60A05",
"L 	c #E6A667",
"M 	c #DF893B",
"N 	c #DB701F",
"O 	c #DB6B20",
"P 	c #DC6020",
"Q 	c #DC5B20",
"R 	c #DC5720",
"S 	c #DD4B20",
"T 	c #DC411D",
"U 	c #D52612",
"V 	c #C70905",
"W 	c #E6A267",
"X 	c #DF853C",
"Y 	c #DB6F1F",
"Z 	c #DB6720",
"` 	c #DB5F20",
" .	c #DD5320",
"..	c #DD4F20",
"+.	c #DD4720",
"@.	c #DC391B",
"#.	c #D2170C",
"$.	c #E6A067",
"%.	c #E0813C",
"&.	c #DB6A20",
"*.	c #DC6720",
"=.	c #DC6320",
"-.	c #DD5720",
";.	c #DC5320",
">.	c #DE4320",
",.	c #DC341C",
"'.	c #D2150C",
").	c #C70805",
"!.	c #E8A472",
"~.	c #DD722C",
"{.	c #DB6620",
"].	c #DC5E20",
"^.	c #DC5A20",
"/.	c #DD5620",
"(.	c #DC5220",
"_.	c #DC4E20",
":.	c #DD4A20",
"<.	c #DE4621",
"[.	c #DD4220",
"}.	c #DE3E20",
"|.	c #DC311C",
"1.	c #D2140C",
"2.	c #C70705",
"3.	c #E8A172",
"4.	c #DD6F2C",
"5.	c #DB6220",
"6.	c #DB5E20",
"7.	c #DC5620",
"8.	c #DD5220",
"9.	c #DD4E20",
"0.	c #DE4A20",
"a.	c #DD4620",
"b.	c #DE4221",
"c.	c #DE3A20",
"d.	c #D92214",
"e.	c #D61A11",
"f.	c #C80705",
"g.	c #E89F72",
"h.	c #DD6A2C",
"i.	c #DC5221",
"j.	c #DE4620",
"k.	c #DE4220",
"l.	c #DE3921",
"m.	c #DE3620",
"n.	c #D91F14",
"o.	c #D61811",
"p.	c #C80605",
"q.	c #E99C72",
"r.	c #DE662C",
"s.	c #DC5520",
"t.	c #DC5120",
"u.	c #DD4D20",
"v.	c #DE4121",
"w.	c #DE3D20",
"x.	c #DE3920",
"y.	c #DE3520",
"z.	c #DE3121",
"A.	c #D91C15",
"B.	c #D61611",
"C.	c #CB0707",
"D.	c #EA9D77",
"E.	c #DD5920",
"F.	c #DD5520",
"G.	c #DD5120",
"H.	c #DE4921",
"I.	c #DE4520",
"J.	c #DE4120",
"K.	c #DE3120",
"L.	c #DF2D21",
"M.	c #D91915",
"N.	c #D81311",
"O.	c #CE0706",
"P.	c #EB9A77",
"Q.	c #DD4920",
"R.	c #DD4520",
"S.	c #DF3820",
"T.	c #DE3420",
"U.	c #DF3020",
"V.	c #DF2C21",
"W.	c #DF2921",
"X.	c #D91614",
"Y.	c #D81111",
"Z.	c #CE0707",
"`.	c #0D0D0D",
" +	c #E99372",
".+	c #DE4C20",
"++	c #DE4420",
"@+	c #DD4120",
"#+	c #DF3C21",
"$+	c #DF3920",
"%+	c #DF2C20",
"&+	c #DF2820",
"*+	c #E02420",
"=+	c #DA1415",
"-+	c #CE0807",
";+	c #E99072",
">+	c #DD4821",
",+	c #DD4420",
"'+	c #DE4020",
")+	c #DE3C20",
"!+	c #DE3821",
"~+	c #DF3420",
"{+	c #DF3120",
"]+	c #E02421",
"^+	c #E02121",
"/+	c #DA1714",
"(+	c #CB0906",
"_+	c #E98E72",
":+	c #DD4820",
"<+	c #DD4320",
"[+	c #DD4020",
"}+	c #D92815",
"|+	c #D5180F",
"1+	c #D5160F",
"2+	c #D4100B",
"3+	c #D40E0B",
"4+	c #D60D0B",
"5+	c #D60C0B",
"6+	c #CC0907",
"7+	c #C60705",
"8+	c #C80906",
"9+	c #141414",
"0+	c #DB391D",
"a+	c #C70D06",
"b+	c #C90D06",
"c+	c #CB0B06",
"d+	c #C90A06",
"e+	c #C70806",
"f+	c #C50605",
"g+	c #C90605",
"h+	c #CB0505",
"i+	c #CB0605",
"j+	c #C90705",
"k+	c #C50706",
"l+	c #B80503",
"                                                ",
"                                                ",
"    . + @ . . . . . . . . . . . . . . . . .     ",
"    . # $ % & * = - ; > , , ' ' ) ! ~ { ] .     ",
"    . ^ / ( _ : < [ } | 1 1 2 2 3 4 5 6 7 .     ",
"    . 8 9 0 a b c d e f g g h h i j k l m .     ",
"    . n o a b p q r s t u u v v j k w x y .     ",
"    . z A b B q r C D E F F G G k H I J K .     ",
"    . L M B N O C D P Q R R k k w S T U V .     ",
"    . W X Y O Z t ` Q R  . .....S +.@.#.V .     ",
"    . $.%.&.*.=.` Q -.;.....S S +.>.,.'.)..     ",
"    . !.~.{.=.].^./.(._.:.:.<.<.[.}.|.1.2..     ",
"    . 3.4.5.6.Q 7.8.9.0.a.a.b.b.}.c.d.e.f..     ",
"    . g.h.].^./.i.9.:.j.k.k.}.}.l.m.n.o.p..     ",
"    . q.r.^.s.t.u.:.a.v.w.w.x.x.y.z.A.B.C..     ",
"    . D.E.F.G.u.H.I.J.w.l.l.y.y.K.L.M.N.O..     ",
"    . P.F.G.u.Q.R.J.w.S.T.T.U.U.V.W.X.Y.Z..     ",
"    `. +t..+Q.++@+#+$+T.U.U.%+%+&+*+=+N.-+.     ",
"    `.;+.+>+,+'+)+!+~+{+%+%+&+&+]+^+/+B.(+.     ",
"    `._+:+<+[+}+|+1+2+3+4+4+5+5+5+5+6+7+8+.     ",
"    9+0+a+b+c+d+e+f+g+g+h+h+h+h+i+g+j+k+l+.     ",
"    . . . . . . . . . . . . . . . . . . . .     ",
"                                                ",
"                                                "};
