/* XPM */
static char * control_play_loop_xpm[] = {
"24 24 46 1",
" 	c None",
".	c #000000",
"+	c #B4DAA0",
"@	c #91C77A",
"#	c #A5D094",
"$	c #A9D099",
"%	c #7DB964",
"&	c #79B560",
"*	c #82B96E",
"=	c #A1C993",
"-	c #9FC691",
";	c #74B15D",
">	c #6FAD5B",
",	c #6CA958",
"'	c #67A655",
")	c #74AB63",
"!	c #95BF8B",
"~	c #8BB782",
"{	c #6BA957",
"]	c #63A152",
"^	c #5F9E4F",
"/	c #5A9A4C",
"(	c #57964A",
"_	c #73A86A",
":	c #A0C199",
"<	c #6FA367",
"[	c #5E9E4F",
"}	c #5A994C",
"|	c #569549",
"1	c #529247",
"2	c #4D8E44",
"3	c #498A41",
"4	c #337A2F",
"5	c #246E22",
"6	c #569649",
"7	c #529246",
"8	c #4D8E43",
"9	c #4A8B41",
"0	c #2B6F27",
"a	c #165A14",
"b	c #519146",
"c	c #498A40",
"d	c #155A14",
"e	c #3E8036",
"f	c #155914",
"g	c #1C5F19",
"                        ",
"                        ",
"         ......         ",
"       ...    ...       ",
"     ...        ...     ",
"    ..            ..    ",
"    .  ..          .    ",
"   ..  .+..        ..   ",
"   .   .@#$..       .   ",
"  ..   .%&*=-..     ..  ",
"  .    .;>,')!~..    .  ",
"  .    .{']^/(_:<. .....",
"  .    .][}|12345.  ... ",
"  .    .}67890a..    .  ",
"  ..   .b8c0d..     ..  ",
"   .   .e0f..       .   ",
"   ..  .g..        ..   ",
"    .  ..          .    ",
"    ..            ..    ",
"     ...        ...     ",
"       ...    ...       ",
"         ......         ",
"                        ",
"                        "};
