/* XPM */
static char * cursor_add_block_xpm[] = {
"32 32 97 2",
"  	c None",
". 	c #000000",
"+ 	c #CD7676",
"@ 	c #CC7575",
"# 	c #D77B7B",
"$ 	c #F48B8B",
"% 	c #D38282",
"& 	c #D37979",
"* 	c #E78686",
"= 	c #FA9A9A",
"- 	c #EFEFEF",
"; 	c #ED9F9F",
"> 	c #E78484",
", 	c #F89B9B",
"' 	c #FFB2B2",
") 	c #FFFFFF",
"! 	c #FFDBDB",
"~ 	c #F49494",
"{ 	c #FEB3B3",
"] 	c #FFBBBB",
"^ 	c #FFFFAF",
"/ 	c #FCCACA",
"( 	c #FBDDDD",
"_ 	c #FEDFDF",
": 	c #E6BE76",
"< 	c #CEC3AA",
"[ 	c #FAF9F7",
"} 	c #FAFAFA",
"| 	c #FFE298",
"1 	c #E9C279",
"2 	c #DAB576",
"3 	c #F7F7F6",
"4 	c #FDFFFF",
"5 	c #FFDA8F",
"6 	c #D8B370",
"7 	c #EAC282",
"8 	c #D6C982",
"9 	c #F5FFFE",
"0 	c #F6FFFF",
"a 	c #E9C178",
"b 	c #E2BB7B",
"c 	c #F6E796",
"d 	c #EEFFFE",
"e 	c #D4B06E",
"f 	c #F0E192",
"g 	c #E7FFFE",
"h 	c #E6FFFD",
"i 	c #F8CE85",
"j 	c #D5B172",
"k 	c #E1FFFD",
"l 	c #E0FFFE",
"m 	c #E0FFFD",
"n 	c #DFFFFD",
"o 	c #DEFFFD",
"p 	c #DEFFFE",
"q 	c #DDFFFD",
"r 	c #E3BC75",
"s 	c #D9FFFC",
"t 	c #D8FFFD",
"u 	c #D8FFFC",
"v 	c #D7FFFD",
"w 	c #D6FFFD",
"x 	c #D5FFFD",
"y 	c #F7CD85",
"z 	c #DBB575",
"A 	c #E8C080",
"B 	c #D0FFFC",
"C 	c #CFFFFC",
"D 	c #FBF8B5",
"E 	c #C9A766",
"F 	c #DBCD85",
"G 	c #C8FFFC",
"H 	c #C8FFFB",
"I 	c #F2E3D6",
"J 	c #EFDAD0",
"K 	c #EAD2B9",
"L 	c #D9B981",
"M 	c #DBCE85",
"N 	c #C0FFFB",
"O 	c #EFD9D0",
"P 	c #EFD8D0",
"Q 	c #EFD8CF",
"R 	c #EDDFCB",
"S 	c #CDC17D",
"T 	c #B9FFFB",
"U 	c #B8FFFB",
"V 	c #F0DED3",
"W 	c #EFDBCF",
"X 	c #EADDCA",
"Y 	c #AAA193",
"Z 	c #B5A99A",
"` 	c #EFDFCC",
" .	c #E3D6C2",
"..	c #3F3C35",
"+.	c #978D7D",
"@.	c #514D46",
"#.	c #131211",
"                                                                ",
"                                                                ",
"                                                                ",
"                                                                ",
"                                                                ",
"                                                                ",
"                                                                ",
"                                                                ",
"                                                                ",
"                                                                ",
"                                                                ",
"                . . . .                                         ",
"              . + @ # $ .                                       ",
"              . % & * = .                                       ",
"            . - ; > , ' .                                       ",
"            . ) ! ~ { ] .                                       ",
"          . ^ ) / ( _ .                                         ",
"          . ^ : < [ } .           . . . .                       ",
"        . ^ | 1 2 3 .             . 4 4 .                       ",
"        . ^ 5 6 7 8 .             . 9 0 .                       ",
"      . ^ | a b c .               . d d .                       ",
"      . ^ 5 e 7 f .       . . . . . g h . . . . .               ",
"    . ^ | i j c .         . k l m m n o p o q q .               ",
"    . ^ 5 r 7 f .         . s t u t t v w w x x .               ",
"  . ^ | y z A .           . . . . . B C . . . . .               ",
"  . D | E A F .                   . G H .                       ",
". I J K L M .                     . N N .                       ",
". O P Q R S .                     . T U .                       ",
". V P W X .                       . . . .                       ",
". Y Z `  ..                                                     ",
". ..+.@.#.                                                      ",
". . .                                                           "};
