/* XPM */
static char * icon_file_open_xpm[] = {
"24 24 165 2",
"  	c None",
". 	c #72730D",
"+ 	c #585907",
"@ 	c #6A6B0B",
"# 	c #A0A22E",
"$ 	c #C9CB61",
"% 	c #ECED9A",
"& 	c #8F9122",
"* 	c #6F700C",
"= 	c #BBBBBB",
"- 	c #7F8012",
"; 	c #E1E398",
"> 	c #FEFEFA",
", 	c #FEFEFD",
"' 	c #F6F7C4",
") 	c #73740E",
"! 	c #ECECEB",
"~ 	c #D8D8D9",
"{ 	c #888915",
"] 	c #FCFCE1",
"^ 	c #FEFEFE",
"/ 	c #FCFCED",
"( 	c #CCCE4C",
"_ 	c #F5F6F5",
": 	c #868715",
"< 	c #F3F3B5",
"[ 	c #FEFEF6",
"} 	c #FAFACA",
"| 	c #D6D757",
"1 	c #FFFFFF",
"2 	c #696A0A",
"3 	c #B7B856",
"4 	c #9B9C31",
"5 	c #ACAD43",
"6 	c #828317",
"7 	c #797A10",
"8 	c #7B7C10",
"9 	c #75760E",
"0 	c #616208",
"a 	c #5A5B07",
"b 	c #BFC145",
"c 	c #EBEB95",
"d 	c #EAEB93",
"e 	c #E5E78A",
"f 	c #DFE07A",
"g 	c #F6F6C5",
"h 	c #FEFEEE",
"i 	c #FCFDEB",
"j 	c #F7F8D1",
"k 	c #ECECAB",
"l 	c #ECEDAB",
"m 	c #EEEEAE",
"n 	c #E7E797",
"o 	c #9B9D2A",
"p 	c #67680A",
"q 	c #B5B73C",
"r 	c #E3E484",
"s 	c #E3E485",
"t 	c #DFE079",
"u 	c #F8F9CD",
"v 	c #FEFEF3",
"w 	c #FEFEF9",
"x 	c #FDFDE8",
"y 	c #F8F8CC",
"z 	c #DDDE79",
"A 	c #4B4C04",
"B 	c #5D5E08",
"C 	c #AAAC2C",
"D 	c #E9EB8C",
"E 	c #DEE078",
"F 	c #DBDC70",
"G 	c #D4D55D",
"H 	c #E9EA8D",
"I 	c #F9FACA",
"J 	c #FCFDE0",
"K 	c #FBFBD9",
"L 	c #F4F5BC",
"M 	c #E7E98F",
"N 	c #A0A222",
"O 	c #505105",
"P 	c #A5A725",
"Q 	c #ECEE88",
"R 	c #D2D454",
"S 	c #CECF4D",
"T 	c #D7D864",
"U 	c #E1E280",
"V 	c #E4E488",
"W 	c #E7E895",
"X 	c #E8E997",
"Y 	c #DADB70",
"Z 	c #575806",
"` 	c #96981C",
" .	c #F0F18F",
"..	c #CED04E",
"+.	c #C6C844",
"@.	c #E2E383",
"#.	c #E8EA92",
"$.	c #ECEC96",
"%.	c #A2A424",
"&.	c #E6E878",
"*.	c #C5C642",
"=.	c #C2C33F",
"-.	c #D8D96B",
";.	c #F8F8C1",
">.	c #FBFBCF",
",.	c #A1A323",
"'.	c #525305",
").	c #464703",
"!.	c #E7E979",
"~.	c #B4B630",
"{.	c #ACAE2A",
"].	c #B5B731",
"^.	c #B8BA34",
"/.	c #BCBE38",
"(.	c #BDBF39",
"_.	c #C3C440",
":.	c #D6D869",
"<.	c #E1E17F",
"[.	c #FAFBCC",
"}.	c #97991D",
"|.	c #444503",
"1.	c #888A16",
"2.	c #AEB02C",
"3.	c #9C9E20",
"4.	c #B9BB45",
"5.	c #C3C552",
"6.	c #EAEB95",
"7.	c #EBEC97",
"8.	c #3D3E02",
"9.	c #2A2A00",
"0.	c #535406",
"a.	c #DCDE62",
"b.	c #BBBD37",
"c.	c #A3A525",
"d.	c #A9AB29",
"e.	c #BEC048",
"f.	c #CCCD5E",
"g.	c #F0F1A4",
"h.	c #F1F2A9",
"i.	c #343501",
"j.	c #202000",
"k.	c #404103",
"l.	c #D8DA5C",
"m.	c #BEC03A",
"n.	c #D7D95B",
"o.	c #EBEC82",
"p.	c #F1F294",
"q.	c #F4F59F",
"r.	c #EEEF89",
"s.	c #E7E97B",
"t.	c #E6E881",
"u.	c #EDEE9B",
"v.	c #F7F7BC",
"w.	c #282800",
"x.	c #555606",
"y.	c #6C6D0B",
"z.	c #898B17",
"A.	c #8B8D17",
"B.	c #848614",
"C.	c #828416",
"D.	c #9C9D2C",
"E.	c #ACAD38",
"F.	c #7A7B16",
"G.	c #474804",
"H.	c #4E4F05",
"                                                ",
"                                                ",
"                                                ",
"          . + @                                 ",
"        # $ % & * = = = = = = = = =             ",
"      - ; > , ' ) . ! ! ! ! ! ! = ~ =           ",
"      { ] ^ ^ / ( @ _ _ _ _ _ ! = ~ ~ =         ",
"      : < [ [ } | @ 1 1 1 1 1 _ ! = = =         ",
"      2 2 3 3 2 2 4 3 5 6 7 8 9 * 0 ! =         ",
"      a b c d e f g h i j k l m n o p           ",
"      a q r s s t u v w x y y y y z * A         ",
"      B C D E F G H I J K y y y L M N O         ",
"      B P Q R S S S S T U s V W X Y N O         ",
"      Z `  ...+.S S S S S S G @.#.$.%.O         ",
"      A { &.*.=.=.*.S S S S -.s ;.>.,.'.        ",
"      ).: !.~.{.].].^./.(._.:.<.[.} }.|.        ",
"      ).1.!.2.,.3.3.3.3.3.3.4.5.6.7.8.9.        ",
"      0.` a.b.P ,.c.d.P c.c.e.f.g.h.i.j.        ",
"      k.+ l.3.m.n.o.p.q.r.s.t.u.v.6.w.9.        ",
"        x.y.{ }.z.{ 1.A.{ B.C.D.E.F.i.          ",
"          '.G.O O O O O O O O O H.).            ",
"                                                ",
"                                                ",
"                                                "};
