/* XPM */
static char * icon_add_xpm[] = {
"16 16 58 1",
" 	c None",
".	c #CEF2D4",
"+	c #BAEDC3",
"@	c #8CDF9A",
"#	c #BDEDC7",
"$	c #83DB94",
"%	c #7AD88C",
"&	c #155F21",
"*	c #BAECC3",
"=	c #87DD96",
"-	c #73D583",
";	c #8FDC9F",
">	c #70D082",
",	c #6DCF7F",
"'	c #95DEA4",
")	c #90DDA0",
"!	c #A3E2B1",
"~	c #8AD99B",
"{	c #67CB7A",
"]	c #67CD7A",
"^	c #63CB76",
"/	c #5CC56F",
"(	c #86D895",
"_	c #60C874",
":	c #5DC56E",
"<	c #48B959",
"[	c #145D1F",
"}	c #5BC16C",
"|	c #53BC64",
"1	c #43AE54",
"2	c #36A747",
"3	c #2A9B38",
"4	c #30A03E",
"5	c #32A242",
"6	c #0E4F15",
"7	c #55BD68",
"8	c #45B458",
"9	c #229232",
"0	c #0C4714",
"a	c #0F4E15",
"b	c #0E4C14",
"c	c #0F4E16",
"d	c #10541A",
"e	c #4FB963",
"f	c #49B35D",
"g	c #1F8D2E",
"h	c #0C4B14",
"i	c #47B15A",
"j	c #45AD58",
"k	c #208A2F",
"l	c #0F4F16",
"m	c #35A148",
"n	c #329B43",
"o	c #208830",
"p	c #12571B",
"q	c #135B1E",
"r	c #105318",
"s	c #11551A",
"                ",
"                ",
"                ",
"      .+@       ",
"      #$%&      ",
"      *=-&      ",
"      ;>,&      ",
"  ')!~{{{{]^/   ",
"  (________:<[  ",
"  }}}}}|123456  ",
"   &&&7890abcd  ",
"      efgh      ",
"      ijkl      ",
"      mnop      ",
"       qrs      ",
"                "};
