/* XPM */
static char * row_icon_play_xpm[] = {
"12 12 25 1",
" 	c None",
".	c #DE1414",
"+	c #FE7675",
"@	c #FE7575",
"#	c #FE6A6A",
"$	c #FE6C6A",
"%	c #FD6161",
"&	c #FD615F",
"*	c #FD6262",
"=	c #FC5858",
"-	c #FC5658",
";	c #FC5656",
">	c #FB4D4D",
",	c #FB4F4D",
"'	c #FB4F4F",
")	c #FB4F50",
"!	c #FB5050",
"~	c #F94545",
"{	c #F94547",
"]	c #F94747",
"^	c #F73E3E",
"/	c #F73E3F",
"(	c #F53637",
"_	c #F53737",
":	c #F32F30",
".           ",
"...         ",
".+@..       ",
".###$..     ",
".%&%%%*..   ",
".=-;=====.. ",
".>,>','')!..",
".~{]]]]]..  ",
".^^^^/..    ",
".((_..      ",
".:..        ",
"..          "};
