/* XPM */
static char * track_move_automation_right_xpm[] = {
"24 24 148 2",
"  	c None",
". 	c #5A300E",
"+ 	c #D1BE86",
"@ 	c #CFBD85",
"# 	c #CEBC83",
"$ 	c #CDBA82",
"% 	c #CCB980",
"& 	c #CBB87F",
"* 	c #C1AD77",
"= 	c #C0AC75",
"- 	c #D3C288",
"; 	c #D2C087",
"> 	c #C9B67F",
", 	c #C8B57D",
"' 	c #C6B27C",
") 	c #C5B17A",
"! 	c #C1AB76",
"~ 	c #C0AA74",
"{ 	c #BEA873",
"] 	c #D1BF86",
"^ 	c #CFBD84",
"/ 	c #CEBC84",
"( 	c #CBB880",
"_ 	c #C9B77F",
": 	c #C8B47D",
"< 	c #C7B37C",
"[ 	c #C4B079",
"} 	c #C2AE78",
"| 	c #C1AC76",
"1 	c #C0AB75",
"2 	c #BEA973",
"3 	c #BDA772",
"4 	c #CAB77F",
"5 	c #BDAB76",
"6 	c #B3A170",
"7 	c #A09577",
"8 	c #552D0D",
"9 	c #BFA974",
"0 	c #BDA872",
"a 	c #BCA671",
"b 	c #C9B67E",
"c 	c #C7B47D",
"d 	c #B2A06F",
"e 	c #060300",
"f 	c #050300",
"g 	c #9B8A5F",
"h 	c #AE9A6A",
"i 	c #B5A16E",
"j 	c #BBA470",
"k 	c #BAA36F",
"l 	c #B8A16D",
"m 	c #4C280B",
"n 	c #0B0A07",
"o 	c #F2F1EE",
"p 	c #0A0906",
"q 	c #96855B",
"r 	c #A89465",
"s 	c #B09A69",
"t 	c #B7A06C",
"u 	c #B59E6B",
"v 	c #C6B17B",
"w 	c #C4AF79",
"x 	c #C3AE77",
"y 	c #0B0A06",
"z 	c #F1F0ED",
"A 	c #ECEAE9",
"B 	c #EDEAE9",
"C 	c #040200",
"D 	c #938056",
"E 	c #512B0C",
"F 	c #AA9463",
"G 	c #B49B68",
"H 	c #B19A66",
"I 	c #C3AF78",
"J 	c #C2AD77",
"K 	c #A29062",
"L 	c #0B0906",
"M 	c #090805",
"N 	c #48260B",
"O 	c #9F8A5C",
"P 	c #A78F5E",
"Q 	c #AE9563",
"R 	c #AC9362",
"S 	c #AB9260",
"T 	c #BFAA75",
"U 	c #9F8D61",
"V 	c #F1EFED",
"W 	c #F0EFED",
"X 	c #F2F0EE",
"Y 	c #0D0B07",
"Z 	c #A48B5D",
"` 	c #AA915F",
" .	c #A88E5D",
"..	c #C3AE78",
"+.	c #C0AA75",
"@.	c #9E8B5E",
"#.	c #9A8357",
"$.	c #A2885A",
"%.	c #BCA571",
"&.	c #BBA46F",
"*.	c #B9A36E",
"=.	c #8A774F",
"-.	c #A2895B",
";.	c #AA8F5E",
">.	c #8B774F",
",.	c #9B8457",
"'.	c #A28A5B",
").	c #A88E5E",
"!.	c #A78D5C",
"~.	c #B69E6A",
"{.	c #B49D69",
"].	c #A18B5D",
"^.	c #8C7850",
"/.	c #9C8558",
"(.	c #A78D5D",
"_.	c #A68B5B",
":.	c #A58A59",
"<.	c #B29A66",
"[.	c #A7905F",
"}.	c #9D875A",
"|.	c #9C8559",
"1.	c #A88D5C",
"2.	c #A68C5B",
"3.	c #A38858",
"4.	c #A28656",
"5.	c #A18555",
"6.	c #B19965",
"7.	c #AF9764",
"8.	c #AD9362",
"9.	c #A9905E",
"0.	c #A98E5D",
"a.	c #A78C5B",
"b.	c #A58B5B",
"c.	c #A48959",
"d.	c #A28757",
"e.	c #A08454",
"f.	c #9E8253",
"g.	c #9C8152",
"h.	c #AF9663",
"i.	c #AD9462",
"j.	c #A98F5E",
"k.	c #A48A59",
"l.	c #9C7F51",
"m.	c #9A7E50",
"n.	c #AC9261",
"o.	c #A18556",
"p.	c #A08354",
"q.	c #9D8151",
"                    . .                         ",
"                  . + @ .                       ",
"                  . # $ .         . .           ",
"      . .         . % & . .     . * = .         ",
"    . - ; .   . . & > , ' ) . . ! ~ { .         ",
"    . ] ^ / . ( _ : < ) [ } | 1 2 3 .           ",
"      . $ % 4 5 6 7 8 . . 1 9 0 a .             ",
"        . b c d e f g h i . . j k l .           ",
"        . < ) m n o p n q r s . t u .           ",
"      . v w x m y z A B C y D E F G H . . .     ",
"  . . . I J . K L A z z A B M L N O P Q R S .   ",
". ) w J | T . U L A z A V A W X f Y Z S `  ..   ",
". ..| +.2 3 . @.p A A W W B M p N #.$.. . .     ",
"  . . . %.&.*.m p V A B C p =.E -.;. ..         ",
"        . l t m p z M p >.,.'.. ).!..           ",
"        . ~.{.].e f ^./.'.. . (._.:..           ",
"          . <.[.}.|.8 . . 1.2.:.3.4.5..         ",
"        . 6.7.Q 8.S 9.0.a.b.c.d.. e.f.g..       ",
"      . 7.h.i.. . j.!.b.k.3.. .   . l.m..       ",
"      . i.n..     . . 3.d..         . .         ",
"        . .         . o.p..                     ",
"                    . f.q..                     ",
"                      . .                       ",
"                                                "};
