/* XPM */
static char * bottom__vpiano_black_key_pressed_xpm[] = {
"8 16 53 1",
" 	c None",
".	c #527076",
"+	c #263132",
"@	c #1A2B2E",
"#	c #1A2C2E",
"$	c #283C3F",
"%	c #486468",
"&	c #263033",
"*	c #1A2A2D",
"=	c #25363A",
"-	c #435C60",
";	c #1B2A2C",
">	c #1B2A2D",
",	c #213134",
"'	c #3D5559",
")	c #527176",
"!	c #273133",
"~	c #1B292C",
"{	c #1C292C",
"]	c #1E2C2E",
"^	c #394E51",
"/	c #263133",
"(	c #1C282B",
"_	c #1B282A",
":	c #1A272A",
"<	c #33474A",
"[	c #1C282A",
"}	c #172324",
"|	c #2E3F42",
"1	c #517076",
"2	c #1C2729",
"3	c #141E20",
"4	c #29383B",
"5	c #1C2628",
"6	c #11191B",
"7	c #233133",
"8	c #1D2627",
"9	c #1D2527",
"0	c #0E1516",
"a	c #1E2A2C",
"b	c #0B1011",
"c	c #192324",
"d	c #334448",
"e	c #090C0D",
"f	c #141C1D",
"g	c #618187",
"h	c #0F1416",
"i	c #597074",
"j	c #587074",
"k	c #597075",
"l	c #597174",
"m	c #597175",
"n	c #587175",
".+@#@@$%",
".&@*@*=-",
".+;>;;,'",
")!~{~~]^",
")/(((_:<",
")/[[[[}|",
"1+222234",
")/555567",
"./89980a",
"1+222234",
")/555567",
"./89980a",
")/////bc",
")!ddddef",
".ggggggh",
"ijiklmkn"};
