/* XPM */
static char * bottom__vpiano_white_key_xpm[] = {
"11 36 212 2",
"  	c None",
". 	c #A4BAC8",
"+ 	c #C1D5E5",
"@ 	c #C1D6E5",
"# 	c #8294A2",
"$ 	c #A5BAC8",
"% 	c #C3D6E5",
"& 	c #C2D6E5",
"* 	c #C2D6E6",
"= 	c #C3D6E6",
"- 	c #8395A2",
"; 	c #A8BCCA",
"> 	c #C5D8E7",
", 	c #C5D8E6",
"' 	c #C4D8E6",
") 	c #C4D7E6",
"! 	c #C4D8E7",
"~ 	c #8696A2",
"{ 	c #ABBDCB",
"] 	c #C7DAE8",
"^ 	c #C7D9E7",
"/ 	c #C7D9E8",
"( 	c #C6D9E8",
"_ 	c #8898A4",
": 	c #ADBFCB",
"< 	c #C9DBE8",
"[ 	c #C9DBE9",
"} 	c #C9DAE9",
"| 	c #C9DAE8",
"1 	c #8A9AA4",
"2 	c #AFC0CC",
"3 	c #CCDCEA",
"4 	c #CCDDEA",
"5 	c #CCDCE9",
"6 	c #CCDDE9",
"7 	c #CBDCE9",
"8 	c #CBDDE9",
"9 	c #8C9BA5",
"0 	c #B2C3CD",
"a 	c #CEDEEA",
"b 	c #CEDEEB",
"c 	c #8D9CA6",
"d 	c #B4C4CE",
"e 	c #D1E0EB",
"f 	c #D1DFEB",
"g 	c #D0E0EB",
"h 	c #D0DFEB",
"i 	c #D1DFEC",
"j 	c #909DA6",
"k 	c #B7C4CF",
"l 	c #D3E2EC",
"m 	c #D2E1EC",
"n 	c #D2E1ED",
"o 	c #D3E2ED",
"p 	c #D3E1EC",
"q 	c #D3E1ED",
"r 	c #939EA8",
"s 	c #BAC6CF",
"t 	c #D5E3ED",
"u 	c #D5E3EE",
"v 	c #D4E3ED",
"w 	c #94A0A8",
"x 	c #BCC7D0",
"y 	c #D7E5EF",
"z 	c #D8E4EE",
"A 	c #D8E5EE",
"B 	c #D7E4EE",
"C 	c #D7E4EF",
"D 	c #D8E4EF",
"E 	c #97A1A8",
"F 	c #BDC9D1",
"G 	c #DAE6EF",
"H 	c #D9E5EF",
"I 	c #DAE6F0",
"J 	c #98A2A9",
"K 	c #C0CAD2",
"L 	c #DCE8F0",
"M 	c #DCE7F0",
"N 	c #DCE7F1",
"O 	c #DCE8F1",
"P 	c #DBE7F1",
"Q 	c #9BA4AA",
"R 	c #C3CCD3",
"S 	c #DEE9F1",
"T 	c #DEE9F2",
"U 	c #9CA4AB",
"V 	c #C4CDD4",
"W 	c #E1EBF2",
"X 	c #E0EBF2",
"Y 	c #E1EBF3",
"Z 	c #9EA6AB",
"` 	c #C6CED4",
" .	c #E3ECF3",
"..	c #E3EDF4",
"+.	c #E3ECF4",
"@.	c #E3EDF3",
"#.	c #A0A7AC",
"$.	c #C9CFD6",
"%.	c #E6EEF5",
"&.	c #E5EDF4",
"*.	c #E6EEF4",
"=.	c #E5EEF4",
"-.	c #E6EDF4",
";.	c #E6EDF5",
">.	c #E5EEF5",
",.	c #A2A8AD",
"'.	c #CBD2D7",
").	c #E8EFF5",
"!.	c #E8F0F5",
"~.	c #A4A9AE",
"{.	c #CDD3D7",
"].	c #EAF1F6",
"^.	c #EAF1F7",
"/.	c #A6ABAE",
"(.	c #CFD3D8",
"_.	c #ECF2F7",
":.	c #EDF2F8",
"<.	c #EDF3F7",
"[.	c #ECF3F7",
"}.	c #ECF2F8",
"|.	c #EDF2F7",
"1.	c #A7ACAF",
"2.	c #D1D5D8",
"3.	c #EFF4F8",
"4.	c #EFF5F9",
"5.	c #EFF5F8",
"6.	c #EEF4F9",
"7.	c #A9ADAF",
"8.	c #D3D7DA",
"9.	c #F1F6F9",
"0.	c #F1F6FA",
"a.	c #F1F5F9",
"b.	c #F2F6F9",
"c.	c #ABAEB0",
"d.	c #D5D8DB",
"e.	c #F4F8FA",
"f.	c #F3F7FB",
"g.	c #F4F7FB",
"h.	c #F4F7FA",
"i.	c #F3F8FA",
"j.	c #F4F8FB",
"k.	c #ACAFB1",
"l.	c #D7D9DB",
"m.	c #F6F9FB",
"n.	c #F6F8FB",
"o.	c #AEAFB2",
"p.	c #D8DBDB",
"q.	c #F8FAFC",
"r.	c #F8FBFC",
"s.	c #F9FBFC",
"t.	c #F9FAFD",
"u.	c #F9FAFC",
"v.	c #AFB2B3",
"w.	c #DBDBDC",
"x.	c #FAFCFD",
"y.	c #FBFCFD",
"z.	c #B2B2B3",
"A.	c #DCDCDD",
"B.	c #FDFEFE",
"C.	c #FDFDFE",
"D.	c #FCFDFE",
"E.	c #B3B3B4",
"F.	c #4C8097",
"G.	c #72A1B5",
"H.	c #366276",
"I.	c #9FB6C5",
"J.	c #BCD2E2",
"K.	c #BCD2E1",
"L.	c #7D929F",
"M.	c #95AFC0",
"N.	c #B3CCDC",
"O.	c #B3CCDD",
"P.	c #B2CBDC",
"Q.	c #B3CBDC",
"R.	c #B2CCDC",
"S.	c #748C9B",
"T.	c #89A9BA",
"U.	c #A9C5D6",
"V.	c #A9C6D7",
"W.	c #A9C5D7",
"X.	c #A9C6D6",
"Y.	c #6A8695",
"Z.	c #7FA2B4",
"`.	c #A0C0D1",
" +	c #A0BFD1",
".+	c #A0BFD0",
"++	c #9FBFD1",
"@+	c #608191",
"#+	c #739DAF",
"$+	c #96B9CB",
"%+	c #97B9CA",
"&+	c #96BACB",
"*+	c #567A8C",
"=+	c #6994A9",
"-+	c #8DB3C5",
";+	c #8CB3C5",
">+	c #8DB3C6",
",+	c #4E7486",
"'+	c #5F8EA2",
")+	c #83ADBF",
"!+	c #83ACC0",
"~+	c #84ADBF",
"{+	c #84ACBF",
"]+	c #83ACBF",
"^+	c #83ADC0",
"/+	c #446E81",
"(+	c #54869D",
"_+	c #7AA7B9",
":+	c #7AA7BA",
"<+	c #7AA6B9",
"[+	c #7AA6BA",
"}+	c #3C687B",
". + + @ + @ + @ @ + # ",
"$ % & & * * = * & * - ",
"; > > , ' ) > ' ) ! ~ ",
"{ ] ^ / ^ ^ ( ^ / ^ _ ",
": < [ [ < [ } < < | 1 ",
"2 3 4 5 3 6 3 7 8 4 9 ",
"0 a b a b a a a b a c ",
"d e e f g e h g i g j ",
"k l m n o p m q q p r ",
"s t u u t u v v u v w ",
"x y z A B z C D y B E ",
"F G H G G G I G G G J ",
"K L M N M L O P M L Q ",
"R S S S S T S S S T U ",
"V W W X Y W W W W Y Z ",
"`  . ... .+.@. . .+.#.",
"$.%.%.&.*.=.-.;.>.>.,.",
"'.).!.).!.).).).).!.~.",
"{.].^.^.].].].].].]./.",
"(._.:.<.[._.<.}.}.|.1.",
"2.3.3.3.4.5.6.3.3.3.7.",
"8.9.0.9.9.a.b.a.9.9.c.",
"d.e.f.f.g.h.i.i.h.j.k.",
"l.m.m.n.m.m.m.m.m.n.o.",
"p.q.q.r.s.t.q.r.u.q.v.",
"w.x.y.y.x.y.y.x.y.y.z.",
"A.B.C.D.B.B.C.D.C.D.E.",
"F.G.G.G.G.G.G.G.G.G.H.",
"I.J.J.J.J.J.J.K.K.J.L.",
"M.N.N.O.P.Q.R.N.Q.R.S.",
"T.U.V.V.W.U.W.U.X.X.Y.",
"Z.`. +.+++++ +.+++ +@+",
"#+$+%+$+$+$+$+$+&+$+*+",
"=+-+-+-+;+-+-+-+>+-+,+",
"'+)+!+!+~+{+]+^+^+^+/+",
"(+_+:+_+:+<+[+[+_+[+}+"};
