/* XPM */
static char * bottom__time_begin_xpm[] = {
"36 48 520 2",
"  	c None",
". 	c #154D7C",
"+ 	c #0D3557",
"@ 	c #C1EFEC",
"# 	c #25334A",
"$ 	c #24334A",
"% 	c #25334B",
"& 	c #24334B",
"* 	c #2C3A53",
"= 	c #35415C",
"- 	c #35415D",
"; 	c #35425C",
"> 	c #35425D",
", 	c #3E4A66",
"' 	c #47516F",
") 	c #47506F",
"! 	c #48516F",
"~ 	c #475170",
"{ 	c #4E5675",
"] 	c #4F5775",
"^ 	c #4F5675",
"/ 	c #4F5776",
"( 	c #4E5775",
"_ 	c #4E5876",
": 	c #4E5777",
"< 	c #4E5877",
"[ 	c #4E5776",
"} 	c #545C7B",
"| 	c #535C7B",
"1 	c #535C7C",
"2 	c #545D7D",
"3 	c #545D7C",
"4 	c #535D7D",
"5 	c #545C7C",
"6 	c #535D7C",
"7 	c #575E7F",
"8 	c #555E7D",
"9 	c #565E7D",
"0 	c #565E7E",
"a 	c #565D7D",
"b 	c #555D7C",
"c 	c #545C7D",
"d 	c #555C7C",
"e 	c #555D7D",
"f 	c #555D7E",
"g 	c #59607F",
"h 	c #545C7A",
"i 	c #545B7A",
"j 	c #535B7A",
"k 	c #535A79",
"l 	c #535978",
"m 	c #515877",
"n 	c #515876",
"o 	c #505775",
"p 	c #515775",
"q 	c #505876",
"r 	c #525877",
"s 	c #525978",
"t 	c #596180",
"u 	c #5D6683",
"v 	c #525977",
"w 	c #515977",
"x 	c #4F5572",
"y 	c #4C5470",
"z 	c #4B526E",
"A 	c #4B516D",
"B 	c #4A516C",
"C 	c #4A506C",
"D 	c #4A516D",
"E 	c #4D5470",
"F 	c #4E5572",
"G 	c #3C4157",
"H 	c #000000",
"I 	c #5F6984",
"J 	c #505774",
"K 	c #505773",
"L 	c #4F5774",
"M 	c #505673",
"N 	c #4F5673",
"O 	c #4D526E",
"P 	c #4A506B",
"Q 	c #454962",
"R 	c #474D67",
"S 	c #49506B",
"T 	c #4D536F",
"U 	c #3A3F55",
"V 	c #59607E",
"W 	c #616B86",
"X 	c #4E5471",
"Y 	c #4E5470",
"Z 	c #4E5571",
"` 	c #4C526D",
" .	c #484F69",
"..	c #454B64",
"+.	c #C0EFF7",
"@.	c #3D4056",
"#.	c #41465D",
"$.	c #454A63",
"%.	c #49506A",
"&.	c #4C536F",
"*.	c #383D53",
"=.	c #585F7C",
"-.	c #646E88",
";.	c #4B526D",
">.	c #4C516E",
",.	c #4C526E",
"'.	c #4C516D",
").	c #4B516B",
"!.	c #494F6A",
"~.	c #464A64",
"{.	c #41455C",
"].	c #C0F0F7",
"^.	c #C0F0F8",
"/.	c #C1EFF8",
"(.	c #C1F0F8",
"_.	c #37384C",
":.	c #3C3F53",
"<.	c #41455D",
"[.	c #464B64",
"}.	c #4B506B",
"|.	c #373B50",
"1.	c #585E7A",
"2.	c #677089",
"3.	c #4A4F6A",
"4.	c #4A506A",
"5.	c #494E69",
"6.	c #474E67",
"7.	c #454C65",
"8.	c #42465F",
"9.	c #3C4156",
"0.	c #363A4C",
"a.	c #BEEFF6",
"b.	c #BFEFF6",
"c.	c #BEEEF7",
"d.	c #2F3040",
"e.	c #323345",
"f.	c #41475F",
"g.	c #484D67",
"h.	c #353A4D",
"i.	c #575E79",
"j.	c #6A738B",
"k.	c #474D66",
"l.	c #474C66",
"m.	c #41475E",
"n.	c #3E4258",
"o.	c #393C50",
"p.	c #2F303F",
"q.	c #343547",
"r.	c #383C4F",
"s.	c #464B65",
"t.	c #464C65",
"u.	c #484D66",
"v.	c #34384B",
"w.	c #565C78",
"x.	c #6C758D",
"y.	c #464A63",
"z.	c #454A62",
"A.	c #434760",
"B.	c #3E4257",
"C.	c #BBEDF4",
"D.	c #BBECF4",
"E.	c #BBEDF3",
"F.	c #BAEDF3",
"G.	c #343748",
"H.	c #3A3C50",
"I.	c #43475F",
"J.	c #454A61",
"K.	c #323649",
"L.	c #555B76",
"M.	c #6E788F",
"N.	c #434861",
"O.	c #434960",
"P.	c #42475F",
"Q.	c #3E4359",
"R.	c #3B4054",
"S.	c #B9EBF3",
"T.	c #B8ECF3",
"U.	c #B8ECF2",
"V.	c #B9ECF3",
"W.	c #B9ECF2",
"X.	c #333647",
"Y.	c #373A4F",
"Z.	c #3B3F54",
"`.	c #3E4459",
" +	c #41465E",
".+	c #42475E",
"++	c #434860",
"@+	c #323547",
"#+	c #535973",
"$+	c #717B90",
"%+	c #42465D",
"&+	c #40445C",
"*+	c #40435B",
"=+	c #3D4257",
"-+	c #3B3E53",
";+	c #B7EBF1",
">+	c #B6EBF1",
",+	c #B7EBF2",
"'+	c #B7EAF1",
")+	c #36394C",
"!+	c #3A3D53",
"~+	c #3E4157",
"{+	c #3F445B",
"]+	c #303344",
"^+	c #525872",
"/+	c #737E93",
"(+	c #3F435A",
"_+	c #3F4258",
":+	c #3D4156",
"<+	c #3A3D52",
"[+	c #36384C",
"}+	c #B5E9F0",
"|+	c #B5EAF0",
"1+	c #B5EAEF",
"2+	c #B4EAF0",
"3+	c #B5EAF1",
"4+	c #B6EAF0",
"5+	c #2D2E3D",
"6+	c #313344",
"7+	c #3B3E52",
"8+	c #3C4056",
"9+	c #2E3142",
"0+	c #51576F",
"a+	c #768095",
"b+	c #3C3F55",
"c+	c #393C52",
"d+	c #36394D",
"e+	c #B3E8EF",
"f+	c #B2E9EF",
"g+	c #B3E9EF",
"h+	c #B3E9EE",
"i+	c #B4E9EF",
"j+	c #323445",
"k+	c #36384D",
"l+	c #393D52",
"m+	c #3B3F55",
"n+	c #2C2F3F",
"o+	c #4F556D",
"p+	c #798296",
"q+	c #3B3E54",
"r+	c #3A3E52",
"s+	c #37394D",
"t+	c #333547",
"u+	c #B0E8ED",
"v+	c #B1E7EE",
"w+	c #B0E7EE",
"x+	c #B1E8ED",
"y+	c #B1E8EE",
"z+	c #B1E7ED",
"A+	c #B2E8ED",
"B+	c #2A2A37",
"C+	c #2E2F3F",
"D+	c #2A2C3C",
"E+	c #4E546B",
"F+	c #7B8598",
"G+	c #383B4F",
"H+	c #373A4D",
"I+	c #34374A",
"J+	c #303243",
"K+	c #AFE6EC",
"L+	c #AFE7EC",
"M+	c #AFE7ED",
"N+	c #B0E7EC",
"O+	c #272733",
"P+	c #2C2C3B",
"Q+	c #343749",
"R+	c #373A4E",
"S+	c #292B39",
"T+	c #4D5168",
"U+	c #7E889A",
"V+	c #35364A",
"W+	c #323446",
"X+	c #ADE5EB",
"Y+	c #ADE6EB",
"Z+	c #252530",
"`+	c #292937",
" @	c #272937",
".@	c #4C5066",
"+@	c #808A9B",
"@@	c #35374A",
"#@	c #343649",
"$@	c #303242",
"%@	c #2C2D3C",
"&@	c #AAE5EA",
"*@	c #ABE5E9",
"=@	c #ABE4EA",
"-@	c #ACE4E9",
";@	c #ABE5EA",
">@	c #ACE5EA",
",@	c #24232E",
"'@	c #282735",
")@	c #262734",
"!@	c #4A4E65",
"~@	c #848D9D",
"{@	c #333447",
"]@	c #313343",
"^@	c #2E3040",
"/@	c #2B2B39",
"(@	c #A9E4E8",
"_@	c #A9E3E8",
":@	c #A9E4E9",
"<@	c #AAE4E9",
"[@	c #AAE4E8",
"}@	c #22212B",
"|@	c #262632",
"1@	c #2B2B3A",
"2@	c #2E303F",
"3@	c #242632",
"4@	c #494E63",
"5@	c #868F9F",
"6@	c #2D2E3C",
"7@	c #A7E3E7",
"8@	c #A7E2E7",
"9@	c #A8E3E8",
"0@	c #A7E3E8",
"a@	c #A8E3E7",
"b@	c #21202A",
"c@	c #252430",
"d@	c #292A37",
"e@	c #2D2D3C",
"f@	c #2F3140",
"g@	c #222430",
"h@	c #484C61",
"i@	c #8891A1",
"j@	c #282734",
"k@	c #23232E",
"l@	c #A6E2E6",
"m@	c #A5E2E6",
"n@	c #A6E2E5",
"o@	c #A6E1E6",
"p@	c #A6E3E6",
"q@	c #1E1C24",
"r@	c #201E28",
"s@	c #21222E",
"t@	c #474B5E",
"u@	c #8B94A2",
"v@	c #2C2E3D",
"w@	c #2B2C3B",
"x@	c #282A37",
"y@	c #262532",
"z@	c #23212D",
"A@	c #A3E1E5",
"B@	c #A4E0E5",
"C@	c #A4E1E5",
"D@	c #A4E1E4",
"E@	c #A3E1E4",
"F@	c #1D1A23",
"G@	c #1F1D27",
"H@	c #23212C",
"I@	c #262533",
"J@	c #2B2B3B",
"K@	c #2C2C3C",
"L@	c #1F1F2A",
"M@	c #45495C",
"N@	c #939CA8",
"O@	c #292A38",
"P@	c #282A38",
"Q@	c #282836",
"R@	c #252431",
"S@	c #1E1E27",
"T@	c #A2E0E3",
"U@	c #A1E0E3",
"V@	c #A2E0E4",
"W@	c #1A1920",
"X@	c #1F1D26",
"Y@	c #22212C",
"Z@	c #272936",
"`@	c #2A2A39",
" #	c #43475A",
".#	c #43485A",
"+#	c #282835",
"@#	c #282834",
"##	c #262634",
"$#	c #25242F",
"%#	c #22202B",
"&#	c #1E1D27",
"*#	c #1B1A22",
"=#	c #9FDFE3",
"-#	c #A0DFE2",
";#	c #9FDFE2",
">#	c #1A161E",
",#	c #1A1820",
"'#	c #1C1A22",
")#	c #1F1C26",
"!#	c #25232F",
"~#	c #252634",
"{#	c #272836",
"]#	c #282937",
"^#	c #1D1E28",
"/#	c #424658",
"(#	c #262633",
"_#	c #242431",
":#	c #21202B",
"<#	c #1C1A23",
"[#	c #1A181F",
"}#	c #19161E",
"|#	c #18151C",
"1#	c #18161C",
"2#	c #1C1B23",
"3#	c #21212B",
"4#	c #23222E",
"5#	c #252532",
"6#	c #272633",
"7#	c #414456",
"8#	c #414556",
"9#	c #959FA9",
"0#	c #24232F",
"a#	c #22222D",
"b#	c #20202A",
"c#	c #1B1920",
"d#	c #1A171E",
"e#	c #18151B",
"f#	c #17151B",
"g#	c #17141B",
"h#	c #19151C",
"i#	c #22212D",
"j#	c #23232F",
"k#	c #242430",
"l#	c #404354",
"m#	c #4E5966",
"n#	c #21202C",
"o#	c #201F2A",
"p#	c #1D1C25",
"q#	c #1A161D",
"r#	c #18151D",
"s#	c #17151C",
"t#	c #1A171F",
"u#	c #1C1921",
"v#	c #1D1B24",
"w#	c #23222D",
"x#	c #22222C",
"y#	c #3E4252",
"z#	c #3E4251",
"A#	c #3E4152",
"B#	c #3F4252",
"C#	c #9AA3AC",
"D#	c #1F1E28",
"E#	c #1D1B25",
"F#	c #1B1820",
"G#	c #1A1720",
"H#	c #18161D",
"I#	c #18161E",
"J#	c #19161D",
"K#	c #1B1821",
"L#	c #1D1D26",
"M#	c #201E29",
"N#	c #211F2A",
"O#	c #201F29",
"P#	c #3C3F4F",
"Q#	c #3C3F4E",
"R#	c #3D3F4E",
"S#	c #9DA5AE",
"T#	c #6F798E",
"U#	c #393C51",
"V#	c #1B1922",
"W#	c #19181F",
"X#	c #19171F",
"Y#	c #191720",
"Z#	c #1C1B25",
"`#	c #1D1C24",
" $	c #1E1B25",
".$	c #1D1C26",
"+$	c #1E1C26",
"@$	c #1E1D26",
"#$	c #393B49",
"$$	c #383B49",
"%$	c #393C49",
"&$	c #393C4A",
"*$	c #383A48",
"=$	c #9CA5AC",
"-$	c #9AA3AA",
";$	c #97A0A7",
">$	c #949DA5",
",$	c #939BA3",
"'$	c #929AA0",
")$	c #9099A1",
"!$	c #9198A0",
"~$	c #9199A1",
"{$	c #8E969E",
"]$	c #8F98A0",
"^$	c #919AA2",
"/$	c #949CA5",
"($	c #979FA7",
"_$	c #98A1AA",
":$	c #9AA3AB",
"<$	c #9BA4AD",
"[$	c #9CA5AE",
"}$	c #9CA5AD",
"|$	c #A0A9B1",
"1$	c #A0A9B0",
"2$	c #9FA9B1",
"3$	c #353844",
"4$	c #353744",
"5$	c #363844",
"6$	c #363744",
"7$	c #363843",
"8$	c #343743",
"9$	c #353743",
"0$	c #343542",
"a$	c #343642",
"b$	c #333641",
"c$	c #343641",
"d$	c #343541",
"e$	c #333541",
"f$	c #343643",
"g$	c #353643",
"h$	c #32343F",
"i$	c #33343F",
"j$	c #32343E",
"k$	c #31333E",
"l$	c #32323E",
"m$	c #31333D",
"n$	c #31323E",
"o$	c #32333E",
"p$	c #33333F",
"q$	c #2E3039",
"r$	c #2F3039",
"s$	c #2F303A",
"t$	c #2E303A",
"u$	c #2F313A",
". . . . . . . . . . . . . . . . . . . . . . . . . . . . . . . . . . . . ",
". . . . . . . . . . . . . . . . . . . . . . . . . . . . . . . . . . . . ",
". . . . . . . . . . . . . . . . . . . . . . . . . . . . . . . . . . . . ",
". . . . . . . . . . . . . . . . . . . . . . . . . . . . . . . . . . . . ",
". . . . . . . . . . . . . . . . . . . . . . . . . . . . . . . . . . . . ",
". . . . . . . . . . . . . . . . . . . . . . . . . . . . . . . . . . . . ",
". . . . . . . . . . . . . . . . . . . . . . . . . . . . . . . . . . . . ",
"+ + + + + + + + + + + + + + + + + + + + + + + + + + + + + + + + + + + + ",
"@ @ @ @ @ @ @ @ @ @ @ @ @ @ @ @ @ @ @ @ @ @ @ @ @ @ @ @ @ @ @ @ @ @ @ @ ",
"# $ % # $ $ # # & # $ # $ % & $ $ $ % # # & # # # $ % # $ $ # # & # $ # ",
"* * * * * * * * * * * * * * * * * * * * * * * * * * * * * * * * * * * * ",
"= - = ; = = - ; = ; = = ; = = ; > > = ; = ; = = = - = ; = = - ; = ; = = ",
", , , , , , , , , , , , , , , , , , , , , , , , , , , , , , , , , , , , ",
"' ) ) ' ' ' ' ! ~ ~ ' ' ' ' ' ' ' ' ' ' ' ~ ~ ' ' ' ' ' ' ' ' ! ~ ~ ' ' ",
"{ ] ^ / ( _ : _ : : _ : < < < [ _ < [ _ _ _ _ < [ _ [ < _ _ : _ : : _ : ",
"} | } | } 1 2 3 3 4 3 5 3 4 2 2 3 3 6 3 6 3 3 3 3 6 3 6 3 4 2 3 3 4 3 5 ",
"7 8 9 9 9 9 9 9 0 9 a b b b c d b d e e d e 9 9 9 0 0 9 9 0 9 a 9 9 9 f ",
"g h i i i j i } i j k l m n n o p p q n r s k j i i j i } h i i i i h h ",
"t u v v v w v w v q o x y z A B C B D z E F o q v v w v w G H H H H H H ",
"g I J K J L M N N F O P . . . . . . . Q R S T F x J L M N U H H H H H H ",
"V W X Y Z Y E Y E `  .... +.. +.. +.. @.#.$.%.` &.Z Y E Y *.H H H H H H ",
"=.-.;.>.` ,.'.` ).!.~.{.. ].^./.(.^.. _.:.<.[.!.}.` ,.'.` |.H H H H H H ",
"1.2.3.4.%.%.3.5.6.7.8.9.0.. a.b.c.. d.e.0.9.f.7.g. .%.3.3.h.H H H H H H ",
"i.j.g.R g.k.l.[.$.m.n.o.. . . . . . . p.q.r.n.m.$.s.t.g.u.v.H H H H H H ",
"w.x.$.[.y.z.z.A.{.B.. . . C.D.. E.F.. . . G.H.B.#.I.J.$.~.K.H H H H H H ",
"L.M.N.N.O.P.#.Q.R.. . S.T.U.V.. U.V.V.W.. . X.Y.Z.`. +.+++@+H H H H H H ",
"#+$+%+#.&+*+=+-+. . . ;+>+;+;+;+,+'+,+;+. . . e.)+!+~+{+{.]+H H H H H H ",
"^+/+(+(+_+:+<+[+. }+|+. 1+2+|+|+|+|+3+. 4+|+. 5+6+_.7+8+n.9+H H H H H H ",
"0+a+:+b+Z.c+d+. . e+f+e+g+g+h+e+g+g+g+i+g+g+. . 5+j+k+l+m+n+H H H H H H ",
"o+p+q+r+o.s+t+. u+v+w+u+x+y+z+z+y+x+A+A+y+x+y+. B+C+t+s+H.D+H H H H H H ",
"E+F+o.G+H+I+J+. K+K+L+L+M+L+. . . . . N+M+L+M+. O+P+J+Q+R+S+H H H H H H ",
"T+U+s+)+V+W+C+. . . X+X+Y+Y+. . . . . . L+. . . Z+`+C+W+V+ @H H H H H H ",
".@+@@@#@t+$@%@. &@*@=@=@-@;@. . -@;@=@;@;@>@;@. ,@'@%@$@t+)@H H H H H H ",
"!@~@{@j+]@^@/@. (@_@(@(@:@(@. . <@[@:@(@<@:@<@. }@|@1@2@]@3@H H H H H H ",
"4@5@]@$@d.6@`+. . 7@8@7@8@9@. . 0@9@8@a@9@9@. . b@c@d@e@f@g@H H H H H H ",
"h@i@d.C+5+1@j@k@. l@l@. m@m@n@o@o@l@l@. l@p@. q@r@k@j@1@5+s@H H H H H H ",
"t@u@v@%@w@x@y@z@. . . A@B@C@A@C@D@D@E@D@. . . F@G@H@I@d@J@K@L@H H H H H ",
"M@N@q+O@P@Q@R@}@S@. . T@U@V@T@. V@T@V@T@. . W@F@X@Y@c@Z@`+`@L@H H H H H ",
" #.#N@+#@###$#%#&#*#. . . =#-#. ;#-#. . . >#,#'#)#}@!#~#j@{#]#^#H H H H ",
"/#/#N@(#y@_#k@:#G@<#[#}#. . . . . . . |#1#}#[#2#&#3#4#R@5#6#6#6#6#6#H H ",
"7#7#8#9#0#0#a#b#G@2#c#d#1#|#e#f#f#g#f#|#h#d#,#2#&#b@i#j#j#c@k#c@c@k#k#c@",
"l#l#l#$+m#n#3#o#&#p#*#,#q#r#e#|#s#e#|#|#}#t#u#v#S@L@:#n#w#i#w#a#a#H@i#x#",
"y#z#A#B#$+C#D#S@&#E#<#F#G#}#H#I#I#J#J#}#t#K#<#E#L#D#M#r@N#O#N#N#O#N#O#O#",
"P#Q#P#Q#R#Q#S#T#U#E#V#u#,#W#X#X#X#t#Y#W#,#u#*#Z#`# $.$)#+$X@@$+$X@@$@$+$",
"#$#$#$#$$$%$&$*$T#=$-$;$>$,$'$)$!$~${$]$^$/$($_$:$<$[$}$|$1$2$|$1$2$|$1$",
"3$4$3$5$3$6$6$7$3$8$9$0$a$b$b$c$d$d$b$d$e$a$f$g$3$4$3$5$3$6$6$7$3$3$5$6$",
"h$i$h$j$i$h$h$i$h$h$h$k$l$k$m$n$o$n$m$o$k$m$h$p$h$i$h$j$i$h$h$i$h$h$h$h$",
"q$r$s$s$s$r$r$s$q$s$s$t$s$s$s$s$s$s$q$u$s$s$s$s$q$r$s$s$s$r$r$s$q$s$s$t$"};
