/* XPM */
static char * edit_toolbar__cursor_stepping_dropdown_xpm[] = {
"47 14 21 1",
" 	c None",
".	c #0B3B63",
"+	c #082F50",
"@	c #041B2E",
"#	c #144C7A",
"$	c #2E699B",
"%	c #0E3555",
"&	c #0F3A5E",
"*	c #114068",
"=	c #0D3250",
"-	c #0E385A",
";	c #103F65",
">	c #0C304D",
",	c #0E3758",
"'	c #103E64",
")	c #0C2F4D",
"!	c #0E3657",
"~	c #103E63",
"{	c #0C2F4C",
"]	c #0F3D63",
"^	c #E1EBF3",
".+@@@@@@@@@@@@@@@@@@@@@@@@@@@@@@@@@@@@@@@@#$%&*",
".+@@@@@@@@@@@@@@@@@@@@@@@@@@@@@@@@@@@@@@@@#$=-;",
".+@@@@@@@@@@@@@@@@@@@@@@@@@@@@@@@@@@@@@@@@#$>,'",
".+@@@@@@@@@@@@@@@@@@@@@@@@@@@@@@@@@@@@@@@@#$)!~",
".+@@@@@@@@@@@@@@@@@@@@@@@@@@@@@@@@@@@@@@@@#${!~",
".+@@@@@@@@@@@@@@@@@@@@@@@@@@@@@@@@@@@@@@@@#${!]",
".+@@@@@@@@@@@@@@@@@@@@@@@@@@@@@@@@@@@@@@@@#${!]",
".+@@@@@@@@@@@@@@@@@@@@@@@@@@@@@@@@@@@@@@@@#${!]",
".+@@@@@@@@@@@@@@@@@@@@@@@@@@@@@@@@@@@@@@@@#${!]",
".+@@@@@@@@@@@@@@@@@@@@@@@@@@@@@@@@@@@@@@@@#${!]",
".+@@@@@@@@@@@@@@@@@@@@@@@@@@@@@@@@@@@@@@@@#${!]",
".+@@@@@@@@@@@@@@@@@@@@@@@@@@@@@@@@@@@@@@@@#${!]",
".+@@@@@@@@@@@@@@@@@@@@@@@@@@@@@@@@@^^^^^^^#${!]",
".+@@@@@@@@@@@@@@@@@@@@@@@@@@@@@@@@@@^^^^^@#${!~"};
