/* XPM */
static char * filterbank__combo_str_separator_xpm[] = {
"1 17 6 1",
" 	c None",
".	c #9DA6B8",
"+	c #8D9AAE",
"@	c #8694A9",
"#	c #8694A8",
"$	c #79869B",
".",
"+",
"@",
"@",
"@",
"@",
"@",
"@",
"@",
"#",
"@",
"@",
"#",
"@",
"@",
"#",
"$"};
