/* XPM */
static char * filterbank__octave_slider_grabber_xpm[] = {
"29 17 172 2",
"  	c None",
". 	c #3B3C3C",
"+ 	c #3D3D3B",
"@ 	c #3B3B3A",
"# 	c #2F2F2F",
"$ 	c #2C2C2C",
"% 	c #2B2B2B",
"& 	c #2A2A2A",
"* 	c #292929",
"= 	c #282827",
"- 	c #272627",
"; 	c #262525",
"> 	c #252424",
", 	c #232323",
"' 	c #222223",
") 	c #212121",
"! 	c #212020",
"~ 	c #1D1D1D",
"{ 	c #111010",
"] 	c #000000",
"^ 	c #121212",
"/ 	c #131413",
"( 	c #242424",
"_ 	c #262626",
": 	c #292829",
"< 	c #2B2C2C",
"[ 	c #F1F1F1",
"} 	c #555555",
"| 	c #5A5A5A",
"1 	c #5E5F5E",
"2 	c #484848",
"3 	c #4D4D4D",
"4 	c #363636",
"5 	c #2E2E2D",
"6 	c #151515",
"7 	c #1F1E1F",
"8 	c #222122",
"9 	c #272727",
"0 	c #2C2B2B",
"a 	c #555455",
"b 	c #5F5F5F",
"c 	c #646463",
"d 	c #696869",
"e 	c #4E4E4E",
"f 	c #3E3E3D",
"g 	c #131313",
"h 	c #1D1D1C",
"i 	c #201F1F",
"j 	c #272626",
"k 	c #2E2E2E",
"l 	c #5B5B5B",
"m 	c #676767",
"n 	c #6D6E6E",
"o 	c #6E6C6C",
"p 	c #686968",
"q 	c #444443",
"r 	c #1F1F1F",
"s 	c #262624",
"t 	c #2C2C2D",
"u 	c #343435",
"v 	c #404040",
"w 	c #414141",
"x 	c #626262",
"y 	c #696868",
"z 	c #6E6E6F",
"A 	c #737373",
"B 	c #797979",
"C 	c #6C6C6C",
"D 	c #474747",
"E 	c #202020",
"F 	c #272527",
"G 	c #3A3A3A",
"H 	c #414142",
"I 	c #424242",
"J 	c #F5F5F5",
"K 	c #686868",
"L 	c #6E6E6E",
"M 	c #727373",
"N 	c #707070",
"O 	c #484949",
"P 	c #121112",
"Q 	c #282828",
"R 	c #313130",
"S 	c #3D3D3D",
"T 	c #424142",
"U 	c #FAFAFA",
"V 	c #686867",
"W 	c #6E6E6C",
"X 	c #727372",
"Y 	c #747374",
"Z 	c #4B4B4B",
"` 	c #131212",
" .	c #313030",
"..	c #FDFDFD",
"+.	c #626261",
"@.	c #686768",
"#.	c #737272",
"$.	c #787979",
"%.	c #232223",
"&.	c #292828",
"*.	c #313131",
"=.	c #403D3D",
"-.	c #403F3F",
";.	c #FEFEFE",
">.	c #616160",
",.	c #676768",
"'.	c #727272",
").	c #787978",
"!.	c #676766",
"~.	c #4D4D4C",
"{.	c #1E1D1D",
"].	c #222221",
"^.	c #3B3D3D",
"/.	c #5C5B5B",
"(.	c #6C6E6C",
"_.	c #787777",
":.	c #646464",
"<.	c #1E1E1D",
"[.	c #2F2D2F",
"}.	c #3C3C3C",
"|.	c #3F3F3F",
"1.	c #393939",
"2.	c #FCFCFC",
"3.	c #656565",
"4.	c #717070",
"5.	c #626362",
"6.	c #1E1D1E",
"7.	c #2B2A2A",
"8.	c #3A3737",
"9.	c #353434",
"0.	c #F7F7F7",
"a.	c #535453",
"b.	c #5E5E5F",
"c.	c #696969",
"d.	c #222323",
"e.	c #29292A",
"f.	c #2D2D2D",
"g.	c #535353",
"h.	c #585857",
"i.	c #5D5C5D",
"j.	c #616162",
"k.	c #666667",
"l.	c #393839",
"m.	c #0D0D0D",
"n.	c #121312",
"o.	c #141414",
"p.	c #252625",
"q.	c #282728",
"r.	c #2D2C2C",
"s.	c #585757",
"t.	c #5C5C5D",
"u.	c #464647",
"v.	c #4A4B4B",
"w.	c #303030",
"x.	c #262526",
"y.	c #403F40",
"z.	c #3E3E3F",
"A.	c #3E3E3E",
"B.	c #3C3C3D",
"C.	c #383938",
"D.	c #373737",
"E.	c #343534",
"F.	c #343433",
"G.	c #333232",
"H.	c #302F2F",
"I.	c #2A2929",
"J.	c #272726",
"K.	c #242423",
"L.	c #202021",
"M.	c #1D1C1D",
"N.	c #1A1A1A",
"O.	c #101010",
"                                                          ",
"  . . . . . . . . . . . + @ # $ % & * = - ; > , ' ) ! ~   ",
". { ] ^ ] / ] ( ] _ ] : ] < [ } ] | ] 1 ] 2 ] 3 ] 4 ] 5 6 ",
". ~ ] 7 ] 8 ] ( ] 9 ] * ] 0 [ a ] | ] b ] c ] d ] e ] f g ",
". h ] i ] 8 ] ( ] j ] k ] < [ l ] m ] n ] o ] p ] m ] q ^ ",
". ~ ] r ] s ] t ] u ] v ] w [ x ] y ] z ] A ] B ] C ] D ^ ",
". ~ ] E ] F ] # ] G ] H ] I J x ] K ] L ] M ] B ] N ] O P ",
". ~ ] ) ] Q ] R ] S ] T ] I U x ] V ] W ] X ] B ] Y ] Z ` ",
". ~ ] , ] Q ]  .] S ] T ] v ..+.] @.] W ] #.] $.] L ] Z ^ ",
". ~ ] %.] &.] *.] =.] -.] S ;.>.] ,.] W ] '.] ).] !.] ~.^ ",
". {.] ].] : ] R ] =.] ^.] G ;./.] ,.] (.] '.] _.] :.] e g ",
". <.] E ] Q ] [.] }.] |.] 1.2.} ] 3.] o ] '.] 4.] 5.] 3 ^ ",
". 6.] E ] &.] 7.] 8.] S ] 9.0.a.] b.] m ] C ] c.] :.] e ^ ",
". 6.] E ] d.] 9 ] e.] & ] f.[ g.] h.] i.] j.] k.] 2 ] l.m.",
". { ] n.] o.] p.] q.] & ] r.[ g.] s.] t.] u.] v.] w.] x.m.",
"  y.z.A.B.. G 1.C.D.4 E.F.G.H.r.% & I.= J.K.L.{.M.N.o.O.  ",
"                                                          "};
