/* XPM */
static char * filterbank__top_xpm[] = {
"329 6 45 1",
" 	c None",
".	c #7D8A9F",
"+	c #818EA2",
"@	c #8593A8",
"#	c #8492A7",
"$	c #8391A6",
"%	c #8290A5",
"&	c #818FA4",
"*	c #808EA2",
"=	c #808DA2",
"-	c #7F8DA1",
";	c #818EA3",
">	c #8290A4",
",	c #8693A8",
"'	c #8592A7",
")	c #8491A6",
"!	c #8390A5",
"~	c #828FA4",
"{	c #808DA1",
"]	c #7F8B9F",
"^	c #7D899D",
"/	c #7D899C",
"(	c #7C889B",
"_	c #7B879A",
":	c #7C889C",
"<	c #7E8A9E",
"[	c #808CA0",
"}	c #8390A4",
"|	c #8794A9",
"1	c #828FA3",
"2	c #A7AEBF",
"3	c #788497",
"4	c #7B879B",
"5	c #828EA3",
"6	c #8491A5",
"7	c #8795AA",
"8	c #8694A9",
"9	c #A7AFC0",
"0	c #9CA5B8",
"a	c #484F5A",
"b	c #9CA5B9",
"c	c #707C8E",
"d	c #758194",
"e	c #7A869A",
"f	c #7F8CA0",
".........................................................................................................................................................................................................................................................................................................................................",
"+++++++++++++++++++++++++++++++++++++++++++++++++++++++++++++++++++++++++++++++++++++++++++++++++++++++++++++++++++++++++++++++++++++++++++++++++++++++++++++++++++++++++++++++++++++++++++++++++++++++++++++++++++++++++++++++++++++++++++++++++++++++++++++++++++++++++++++++++++++++++++++++++++++++++++++++++++++++++++++++++++++++++",
"@@@@@@@@@@@@@@@@@@@@@@@@@@@@@@@@@@@@@@@@@@@@@@@@@@@@@@@@@@@@@@@@@@@@@@@@@@@@@@@@@@@@@@@@@@@@@@@@@@@@@@@@@@@@#$$%&**=====------------------------------------------------------------------------------------------------------------------------------------------------------------------------------------------------=====*;>%$##@@@@@",
",,,,,,,,,,,,,,,,,,,,,,,,,,,,,,,,,,,,,,,,,,,,,,,,,,,,,,,,,,,,,,,,,,,,,,,,,,,,,,,,,,,,,,,,,,,,,,,,,,,,,,,,,,,')!~{]^/(((((________________________________________________________________________________________________________________________________________________________________________________________________((((:/<[+})'',,,,",
"||||||||||||||||||||||||||||||||||||||||||||||||||||||||||||||||||||||||||||||||||||||||||||||||||||||||||,')1222222222222222222222222222222222222222222222222222222222222222222222222222222222222222222222222222222222222222222222222222222222222222222222222222222222222222222222222222222222222222222222222222222222222222234]56',||||",
"77777777777777777777777777777777777777777777777777777777777777777777777777777777777777777777777777777777778@$90aaaaaaaaaaaaaaaaaaaaaaaaaaaaaaaaaaaaaaaaaaaaaaaaaaaaaaaaaaaaaaaaaaaaaaaaaaaaaaaaaaaaaaaaaaaaaaaaaaaaaaaaaaaaaaaaaaaaaaaaaaaaaaaaaaaaaaaaaaaaaaaaaaaaaaaaaaaaaaaaaaaaaaaaaaaaaaaaaaaaaaaaaaaaaaaaaaaaaaaaaaaaa0bcdef>#@8777"};
