/* XPM */
static char * global_toolbar__add_xpm[] = {
"28 32 102 2",
"  	c None",
". 	c #144C7A",
"+ 	c #134B79",
"@ 	c #134A77",
"# 	c #134975",
"$ 	c #134874",
"% 	c #124873",
"& 	c #134976",
"* 	c #124670",
"= 	c #11426A",
"- 	c #103F66",
"; 	c #103E64",
"> 	c #0C3E6F",
", 	c #0D3251",
"' 	c #0E3758",
") 	c #114068",
"! 	c #55CCD5",
"~ 	c #53CCD5",
"{ 	c #5FD1DB",
"] 	c #83DEE5",
"^ 	c #0C2D49",
"/ 	c #12456E",
"( 	c #0F3B5E",
"_ 	c #61D2DB",
": 	c #5BD0D9",
"< 	c #73DAE2",
"[ 	c #95E3E9",
"} 	c #0A2942",
"| 	c #114067",
"1 	c #D8EEEF",
"2 	c #8FE1E7",
"3 	c #72D9E1",
"4 	c #93E2E9",
"5 	c #AFE7EC",
"6 	c #0A2840",
"7 	c #0D314F",
"8 	c #F1F1F1",
"9 	c #D4EDEF",
"0 	c #8BE1E7",
"a 	c #B7EAEE",
"b 	c #0A2740",
"c 	c #ADE7EC",
"d 	c #C2EBEF",
"e 	c #D2EDEF",
"f 	c #D6EEEF",
"g 	c #09243B",
"h 	c #0A2841",
"i 	c #103F65",
"j 	c #67D4DD",
"k 	c #7DDCE4",
"l 	c #E7EFF0",
"m 	c #EAEFF0",
"n 	c #09253C",
"o 	c #0B2B45",
"p 	c #0E3556",
"q 	c #114169",
"r 	c #98E3E9",
"s 	c #6BD7DF",
"t 	c #5ED1DA",
"u 	c #E3EFF0",
"v 	c #09243A",
"w 	c #0A273F",
"x 	c #0C2F4C",
"y 	c #90E2E8",
"z 	c #58CFD8",
"A 	c #64D3DC",
"B 	c #0B2A44",
"C 	c #0D3555",
"D 	c #6AD6DE",
"E 	c #86DFE6",
"F 	c #80DEE5",
"G 	c #57CED7",
"H 	c #70D9E1",
"I 	c #47C4CF",
"J 	c #C4EBEF",
"K 	c #BBEAEE",
"L 	c #A2E5EB",
"M 	c #66D4DC",
"N 	c #B6E9ED",
"O 	c #5ACFD8",
"P 	c #BFEAEE",
"Q 	c #B2E8ED",
"R 	c #51CAD3",
"S 	c #5CD1DA",
"T 	c #A3E6EB",
"U 	c #05535B",
"V 	c #39B9C4",
"W 	c #0B6C76",
"X 	c #001618",
"Y 	c #09253B",
"Z 	c #0B2D48",
"` 	c #0E3657",
" .	c #104066",
"..	c #0D3453",
"+.	c #103E63",
"@.	c #11436B",
"#.	c #0F3A5D",
"$.	c #0D3250",
"%.	c #0F3B5F",
"&.	c #134A78",
"*.	c #124772",
"=.	c #12456F",
". . . . . . . . . . . . . . . . . . . . . . . . . . . . ",
". . . . . . . . . . . . . + + + + + + + + . . . . . . . ",
". . . . . . . . . . . . + @ # $ % % $ # @ + . . . . . . ",
". . . . . . . . . . . + & * = - ; ; - = * & + . . . . . ",
". . . . . . . . . . + @ * ; > > > > , ' ; * @ + . . . . ",
". . . . . . . . . . + $ ) > ! ~ { ] > ^ ' = # + . . . . ",
". . . . . . . . . + @ / ( > _ : < [ > } , - $ + . . . . ",
". . . . . . . . . + $ | > 1 2 3 4 5 > 6 7 ; % + . . . . ",
". . . . . . . . + @ / ( > 8 9 0 5 a > b 7 ; % + . . . . ",
". . . . . . . . + $ | > c 8 d e f > g h , i $ + . . . . ",
". . . . . . . + @ / ( > c j k l m > n o p q # + . . . . ",
". . . . . . . + $ | > c r s t u > v w x ( / @ + . . . . ",
". . . . . . + @ / ( > c y z < A > n B C | $ + . . . . . ",
". . . . . . + $ | > c r D j 2 > v w x ( / @ + . . . . . ",
". . . . . + @ / ( > c y ! < E > n B C | $ + . . . . . . ",
". . . . . + $ | > c r F G 2 > v w x ( / @ + . . . . . . ",
". . . . + @ / ( > c y A < E > n B C | $ + . . . . . . . ",
". . . . + $ | > c r F t H > v w x ( / @ + . . . . . . . ",
". . . + @ / ( > 5 r I H D > n B C | $ + . . . . . . . . ",
". . . + # q > J K L M D > v w x ( / @ + . . . . . . . . ",
". . . + $ i > K K K N O > n B C | $ + . . . . . . . . . ",
". . . + % ; > P K K Q > v w x ( / @ + . . . . . . . . . ",
". . . + % ; > R S a T > n B C | $ + . . . . . . . . . . ",
". . . + % ; > U V W X Y 6 x ( / @ + . . . . . . . . . . ",
". . . + % ; > > > g n 6 Z ` ) $ + . . . . . . . . . . . ",
". . . + $  ...o h h o x ` +.* @ + . . . . . . . . . . . ",
". . . + & @.#...$., p %.) * & + . . . . . . . . . . . . ",
". . . + &.*.@. .i - q =.$ @ + . . . . . . . . . . . . . ",
". . . . + &.& $ % $ # @ + + . . . . . . . . . . . . . . ",
". . . . . + + + + + + + . . . . . . . . . . . . . . . . ",
". . . . . . . . . . . . . . . . . . . . . . . . . . . . ",
". . . . . . . . . . . . . . . . . . . . . . . . . . . . "};
