/* XPM */
static char * panner__quad_middle_xpm[] = {
"96 14 63 1",
" 	c None",
".	c #7B8491",
"+	c #464E5A",
"@	c #444C58",
"#	c #707D90",
"$	c #707C90",
"%	c #6F7C90",
"&	c #000000",
"*	c #030303",
"=	c #2C3139",
"-	c #030304",
";	c #14171B",
">	c #606B7D",
",	c #454D59",
"'	c #0D0E10",
")	c #010102",
"!	c #191C20",
"~	c #596474",
"{	c #2F353E",
"]	c #050506",
"^	c #0A0B0C",
"/	c #4D5765",
"(	c #6F7B8F",
"_	c #20242A",
":	c #4E5765",
"<	c #3F4651",
"[	c #414854",
"}	c #333942",
"|	c #15171B",
"1	c #252930",
"2	c #363C46",
"3	c #111316",
"4	c #6B778A",
"5	c #040506",
"6	c #48505D",
"7	c #0B0C0E",
"8	c #010101",
"9	c #697487",
"0	c #6D798C",
"a	c #030405",
"b	c #6F7A8F",
"c	c #6B768A",
"d	c #07080A",
"e	c #424955",
"f	c #505867",
"g	c #000001",
"h	c #6E7A8E",
"i	c #202329",
"j	c #08090A",
"k	c #3D444F",
"l	c #292D35",
"m	c #6E798E",
"n	c #323740",
"o	c #040405",
"p	c #14161A",
"q	c #5F687B",
"r	c #474E5C",
"s	c #08090B",
"t	c #333842",
"u	c #6D798E",
"v	c #020303",
"w	c #6D788D",
"x	c #6C778C",
".+@@@@@@@@@@@@@@@@@@@@@@@@@@@@@@@@@@@@@@@@@@@@@@@@@@@@@@@@@@@@@@@@@@@@@@@@@@@@@@@@@@@@@@@@@@@@@@",
"################################################################################################",
"$$$$$$$$$$$$$$$$$$$$$$$$$$$$$$$$$$$$$$$$$$$$$$$$$$$$$$$$$$$$$$$$$$$$$$$$$$$$$$$$$$$$$$$$$$$$$$$$",
"%&*=-;>,')-!~%%&*{]^/%%%%%%%%%%%%%%%%%%%%%%%%%%%%%%%%%%%%%%%%%%%%%%%%%%%%%%%%%%%%%%%%%%%%%%%%%%%",
"(&&==&_:<[}&|((&&12&3(((((((((((((((((((((((((((((((((((((((((((((((((((((((((((((((((((((((((((",
"(&&44&567&&&8((&&90&a(((((((((((((((((((((((((((((((((((((((((((((((((((((((((((((((((((((((((((",
"b&&cc&5d&efg&bb&*bb&*bbbbbbbbbbbbbbbbbbbbbbbbbbbbbbbbbbbbbbbbbbbbbbbbbbbbbbbbbbbbbbbbbbbbbbbbbbb",
"h&&==&ij&kl&&hh&*hh&*hhhhhhhhhhhhhhhhhhhhhhhhhhhhhhhhhhhhhhhhhhhhhhhhhhhhhhhhhhhhhhhhhhhhhhhhhhh",
"m&*nopqrs5t*&mm&*mm&*mmmmmmmmmmmmmmmmmmmmmmmmmmmmmmmmmmmmmmmmmmmmmmmmmmmmmmmmmmmmmmmmmmmmmmmmmmm",
"u&vuuuuuuuuuuuuuuuuuuuuuuuuuuuuuuuuuuuuuuuuuuuuuuuuuuuuuuuuuuuuuuuuuuuuuuuuuuuuuuuuuuuuuuuuuuuuu",
"w&vwwwwwwwwwwwwwwwwwwwwwwwwwwwwwwwwwwwwwwwwwwwwwwwwwwwwwwwwwwwwwwwwwwwwwwwwwwwwwwwwwwwwwwwwwwwww",
"wwwwwwwwwwwwwwwwwwwwwwwwwwwwwwwwwwwwwwwwwwwwwwwwwwwwwwwwwwwwwwwwwwwwwwwwwwwwwwwwwwwwwwwwwwwwwwww",
"xxxxxxxxxxxxxxxxxxxxxxxxxxxxxxxxxxxxxxxxxxxxxxxxxxxxxxxxxxxxxxxxxxxxxxxxxxxxxxxxxxxxxxxxxxxxxxxx",
"xxxxxxxxxxxxxxxxxxxxxxxxxxxxxxxxxxxxxxxxxxxxxxxxxxxxxxxxxxxxxxxxxxxxxxxxxxxxxxxxxxxxxxxxxxxxxxxx"};
