/* XPM */
static char * panner__mode_xpm[] = {
"96 17 35 1",
" 	c None",
".	c #484F5A",
"+	c #000000",
"@	c #868C98",
"#	c #6D6C6D",
"$	c #686868",
"%	c #646464",
"&	c #606060",
"*	c #5C5C5C",
"=	c #575858",
"-	c #535353",
";	c #4F4F4F",
">	c #4B4B4B",
",	c #464646",
"'	c #424242",
")	c #3E3E3E",
"!	c #393A3A",
"~	c #353536",
"{	c #313131",
"]	c #2D2D2D",
"^	c #292929",
"/	c #252525",
"(	c #212020",
"_	c #1C1C1C",
":	c #171717",
"<	c #131414",
"[	c #0F0F0F",
"}	c #0B0B0B",
"|	c #070707",
"1	c #020203",
"2	c #5E5E5E",
"3	c #484848",
"4	c #323232",
"5	c #060606",
"6	c #D5D5D5",
"................................................................................................",
".++++++++++++++++++++++++++++++++++++++++++++++++++++++++++++++++++++++++++++++++++++++++++++++@",
".+##$%&*=-;>,')!~{]^/(_:<[}|1++++++++++++++++++++++++++++++++++++++++++++++++++++++++++++++++++@",
".+#>]_+++++++++++++++++++++++++++++++++++++++++++++++++++++++++++++++++++++++++++++++++++++++++@",
".+2]_++++++++++++++++++++++++++++++++++++++++++++++++++++++++++++++++++++++++++++++++++++++++++@",
".+3_+++++++++++++++++++++++++++++++++++++++++++++++++++++++++++++++++++++++++++++++++++++++++++@",
".+4++++++++++++++++++++++++++++++++++++++++++++++++++++++++++++++++++++++++++++++++++++++++++++@",
".+_++++++++++++++++++++++++++++++++++++++++++++++++++++++++++++++++++++++++++++++++++++++++++++@",
".+5++++++++++++++++++++++++++++++++++++++++++++++++++++++++++++++++++++++++++++++++++++++++++~+@",
".+5++++++++++++++++++++++++++++++++++++++++++++++++++++++++++++++++++++++++++++++++++++++++++~+@",
".+5++++++++++++++++++++++++++++++++++++++++++++++++++++++++++++++++++++++++++++++++++++++++++~+@",
".+5++++++++++++++++++++++++++++++++++++++++++++++++++++++++++++++++++++++++++++++++++++++++++~+@",
".+5+++++++++++++++++++++++++++++++++++++++++++++++++++++++++++++++++++++++++++++++++++66666++~+@",
".++++++++++++++++++++++++++++++++++++++++++++++++++++++++++++++++++++++++++++++++++++++666+++-+@",
".+++++++++++++++++++++++++++++++++++++++++++++++++++++++++++++++++++++++++++++++++++++++6++~-%+@",
".++++++++++++++++++++++++++++++++++++++++++++++++++++++++++++++++++++++++++++++++++++++++++++++@",
".@@@@@@@@@@@@@@@@@@@@@@@@@@@@@@@@@@@@@@@@@@@@@@@@@@@@@@@@@@@@@@@@@@@@@@@@@@@@@@@@@@@@@@@@@@@@@@@"};
