/* XPM */
static char * peakmon__bottom_xpm[] = {
"47 37 25 1",
" 	c None",
".	c #6E798E",
"+	c #6D788D",
"@	c #6C778C",
"#	c #6B768B",
"$	c #6A758A",
"%	c #6A768A",
"&	c #69758A",
"*	c #697489",
"=	c #687489",
"-	c #677489",
";	c #677388",
">	c #667388",
",	c #667387",
"'	c #667287",
")	c #667286",
"!	c #667186",
"~	c #657185",
"{	c #657085",
"]	c #657084",
"^	c #656F83",
"/	c #656F84",
"(	c #646F83",
"_	c #646E83",
":	c #656E83",
"..+++++++++++++++++++++++++++++++++++++++++++++",
"+++++++++++++++++++++++++++++++++++++++++++++++",
"++@@@@@@@@@@@@@@@@@@@@@@@@@@@@@@@@@@@@@@@@@@@@@",
"@@@@@@@@@@@@@@@@@@@@@@@@@@@@@@@@@@@@@@@@@@@@@@@",
"@@@@@@@@@@@@@@@@@@@@@@@@@@@@@@@@@@@@@@@@@@@@@@@",
"@@#############################################",
"@@#############################################",
"###############################################",
"##$$$$$$$$$$$$$$$$$$$$$$$$$$$$$$$$$$$$$$$$$$$$$",
"%%$$$$$$$$$$$$$$$$$$$$$$$$$$$$$$$$$$$$$$$$$$$$$",
"$$&&&&&&&&&&&&&&&&&&&&&&&&&&&&&&&&&&&&&&&&&&&&&",
"$$*********************************************",
"***********************************************",
"**=============================================",
"--;;;;;;;;;;;;;;;;;;;;;;;;;;;;;;;;;;;;;;;;;;;;;",
"--;;;;;;;;;;;;;;;;;;;;;;;;;;;;;;;;;;;;;;;;;;;;;",
";;;;;;;;;;;;;;;;;;;;;;;;;;;;;;;;;;;;;;;;;;;;;;;",
";;>>>>>>>>>>>>>>>>>>>>>>>>>>>>>>>>>>>>>>>>>>>>>",
";;,,,,,,,,,,,,,,,,,,,,,,,,,,,,,,,,,,,,,,,,,,,,,",
";;'''''''''''''''''''''''''''''''''''''''''''''",
",,'''''''''''''''''''''''''''''''''''''''''''''",
"'''''''''''''''''''''''''''''''''''''''''''''''",
"'')))))))))))))))))))))))))))))))))))))))))))))",
"))!!!!!!!!!!!!!!!!!!!!!!!!!!!!!!!!!!!!!!!!!!!!!",
"))!!!!!!!!!!!!!!!!!!!!!!!!!!!!!!!!!!!!!!!!!!!!!",
"!!!!!!!!!!!!!!!!!!!!!!!!!!!!!!!!!!!!!!!!!!!!!!!",
"!!~~~~~~~~~~~~~~~~~~~~~~~~~~~~~~~~~~~~~~~~~~~~~",
"!!{{{{{{{{{{{{{{{{{{{{{{{{{{{{{{{{{{{{{{{{{{{{{",
"!!{{{{{{{{{{{{{{{{{{{{{{{{{{{{{{{{{{{{{{{{{{{{{",
"!!]]]]]]]]]]]]]]]]]]]]]]]]]]]]]]]]]]]]]]]]]]]]]",
"^^/////////////////////////////////////////////",
"(((((((((((((((((((((((((((((((((((((((((((((((",
"_______________________________________________",
"_______________________________________________",
":::::::::::::::::::::::::::::::::::::::::::::::",
"^^^^^^^^^^^^^^^^^^^^^^^^^^^^^^^^^^^^^^^^^^^^^^^",
"^^^^^^^^^^^^^^^^^^^^^^^^^^^^^^^^^^^^^^^^^^^^^^^"};
