/* XPM */
static char * rack_plugin_top__move_left_xpm[] = {
"9 16 121 2",
"  	c None",
". 	c #31333E",
"+ 	c #32333E",
"@ 	c #6C7179",
"# 	c #6B7179",
"$ 	c #6B717A",
"% 	c #6C717A",
"& 	c #6B7079",
"* 	c #201F29",
"= 	c #1F1E28",
"- 	c #23232F",
"; 	c #23232E",
"> 	c #24232F",
", 	c #22222E",
"' 	c #23222C",
") 	c #20202B",
"! 	c #1F1F2A",
"~ 	c #201F2A",
"{ 	c #22202B",
"] 	c #272735",
"^ 	c #262634",
"/ 	c #262532",
"( 	c #202B3E",
"_ 	c #608BA8",
": 	c #2A5679",
"< 	c #1F1E29",
"[ 	c #21222C",
"} 	c #2B2B3A",
"| 	c #2A2A39",
"1 	c #292937",
"2 	c #242F43",
"3 	c #80A7BC",
"4 	c #D3F4FA",
"5 	c #446C8A",
"6 	c #1A1A24",
"7 	c #21212C",
"8 	c #2D2F3F",
"9 	c #2D2D3D",
"0 	c #28364A",
"a 	c #759DB3",
"b 	c #D0F5FB",
"c 	c #95BDCE",
"d 	c #23364B",
"e 	c #1B1C25",
"f 	c #222330",
"g 	c #303143",
"h 	c #273348",
"i 	c #749FB6",
"j 	c #CCF3FB",
"k 	c #9BC7D8",
"l 	c #1E3145",
"m 	c #191A23",
"n 	c #1F202B",
"o 	c #272936",
"p 	c #323446",
"q 	c #51819F",
"r 	c #C6F3FA",
"s 	c #BEEBF4",
"t 	c #163552",
"u 	c #1A1B24",
"v 	c #272836",
"w 	c #2F3041",
"x 	c #323447",
"y 	c #50809F",
"z 	c #C1F1FA",
"A 	c #B9EAF4",
"B 	c #173553",
"C 	c #1D1F2A",
"D 	c #2F3243",
"E 	c #35384C",
"F 	c #323546",
"G 	c #314B65",
"H 	c #92C5D6",
"I 	c #B9EEF7",
"J 	c #5F8FA8",
"K 	c #202A3A",
"L 	c #292B3B",
"M 	c #333749",
"N 	c #3A3C51",
"O 	c #303445",
"P 	c #303244",
"Q 	c #2B445E",
"R 	c #93CBDD",
"S 	c #B6EFF8",
"T 	c #5B8BA6",
"U 	c #242E41",
"V 	c #313446",
"W 	c #3A3D52",
"X 	c #323547",
"Y 	c #363A4E",
"Z 	c #303344",
"` 	c #243A54",
" .	c #8EC9DC",
"..	c #B0EDF8",
"+.	c #3D6C8C",
"@.	c #2D2F40",
"#.	c #373B4F",
"$.	c #3E435A",
"%.	c #3C4157",
"&.	c #323749",
"*.	c #78B4CB",
"=.	c #316183",
"-.	c #2A2D3C",
";.	c #363A4D",
">.	c #40445C",
",.	c #464D66",
"'.	c #464B66",
").	c #3F445C",
"!.	c #363B4E",
"~.	c #26374F",
"{.	c #23334A",
"].	c #2D3242",
"^.	c #393E52",
"/.	c #4A506C",
"(.	c #4D536F",
"_.	c #4D5370",
":.	c #4A506B",
"<.	c #444962",
"[.	c #3B4055",
"}.	c #393D53",
"|.	c #41465E",
". + + + + + + + . ",
"@ # @ $ @ $ @ % & ",
"* * * * = = = = = ",
"- ; > , ' ) ! ~ { ",
"] ] ^ / ( _ : < [ ",
"} | 1 2 3 4 5 6 7 ",
"8 9 0 a b c d e f ",
"g h i j k l m n o ",
"p q r s t u n v w ",
"x y z A B C v D E ",
"F G H I J K L M N ",
"O P Q R S T U V W ",
"X Y Z `  ...+.@.#.",
"#.$.%.&.Q *.=.-.;.",
">.,.'.).!.~.{.].^.",
"/.(._.:.<.[.Y }.|."};
