/* XPM */
static char * rack_toolbar__preset_label_bottom_xpm[] = {
"259 12 32 1",
" 	c None",
".	c #134B79",
"+	c #12456E",
"@	c #103E64",
"#	c #2E699B",
"$	c #0C304D",
"%	c #0E3758",
"&	c #134975",
"*	c #144C7A",
"=	c #12456F",
"-	c #103F65",
";	c #0E385A",
">	c #0D3250",
",	c #0C2E4A",
"'	c #0B2C47",
")	c #0B2B46",
"!	c #0B2B45",
"~	c #134976",
"{	c #124670",
"]	c #114068",
"^	c #0F3A5E",
"/	c #0E3555",
"(	c #0C2F4D",
"_	c #0C2F4C",
":	c #124773",
"<	c #11436C",
"[	c #0E3657",
"}	c #134A77",
"|	c #124671",
"1	c #103E63",
"2	c #134B78",
"3	c #134A78",
".+@###########################################################################################################################################################################################################################################################$%@+&",
"*=-;>,')!!!!!!!!!!!!!!!!!!!!!!!!!!!!!!!!!!!!!!!!!!!!!!!!!!!!!!!!!!!!!!!!!!!!!!!!!!!!!!!!!!!!!!!!!!!!!!!!!!!!!!!!!!!!!!!!!!!!!!!!!!!!!!!!!!!!!!!!!!!!!!!!!!!!!!!!!!!!!!!!!!!!!!!!!!!!!!!!!!!!!!!!!!!!!!!!!!!!!!!!!!!!!!!!!!!!!!!!!!!!!!!!!!!!!!!!!!!!!!!!!!!)',>;-=~",
"*{]^/>$(___________________________________________________________________________________________________________________________________________________________________________________________________________________________________________________($>/^]{~",
"*:<@^;%[[[[[[[[[[[[[[[[[[[[[[[[[[[[[[[[[[[[[[[[[[[[[[[[[[[[[[[[[[[[[[[[[[[[[[[[[[[[[[[[[[[[[[[[[[[[[[[[[[[[[[[[[[[[[[[[[[[[[[[[[[[[[[[[[[[[[[[[[[[[[[[[[[[[[[[[[[[[[[[[[[[[[[[[[[[[[[[[[[[[[[[[[[[[[[[[[[[[[[[[[[[[[[[[[[[[[[[[[[[[[[[[[[[[[[[[[[[[[[[[[[[[[%;^@<:}",
"*&|<]-@11111111111111111111111111111111111111111111111111111111111111111111111111111111111111111111111111111111111111111111111111111111111111111111111111111111111111111111111111111111111111111111111111111111111111111111111111111111111111111111111111111@-]<|&2",
"*3&:{==+++++++++++++++++++++++++++++++++++++++++++++++++++++++++++++++++++++++++++++++++++++++++++++++++++++++++++++++++++++++++++++++++++++++++++++++++++++++++++++++++++++++++++++++++++++++++++++++++++++++++++++++++++++++++++++++++++++++++++++++++++++=={:&3.",
"*.2}~~&&&&&&&&&&&&&&&&&&&&&&&&&&&&&&&&&&&&&&&&&&&&&&&&&&&&&&&&&&&&&&&&&&&&&&&&&&&&&&&&&&&&&&&&&&&&&&&&&&&&&&&&&&&&&&&&&&&&&&&&&&&&&&&&&&&&&&&&&&&&&&&&&&&&&&&&&&&&&&&&&&&&&&&&&&&&&&&&&&&&&&&&&&&&&&&&&&&&&&&&&&&&&&&&&&&&&&&&&&&&&&&&&&&&&&&&&&&&&&&&&&&&&&&~~}2.*",
"**.......2222222222222222222222222222222222222222222222222222222222222222222222222222222222222222222222222222222222222222222222222222222222222222222222222222222222222222222222222222222222222222222222222222222222222222222222222222222222222222222222222.......**",
"*******************************************************************************************************************************************************************************************************************************************************************",
"*******************************************************************************************************************************************************************************************************************************************************************",
"*******************************************************************************************************************************************************************************************************************************************************************",
"*******************************************************************************************************************************************************************************************************************************************************************"};
