/* XPM */
static char * rack_plugin_top__begin_xpm[] = {
"5 16 80 1",
" 	c None",
".	c #2A2B34",
"+	c #2C2E37",
"@	c #3E404B",
"#	c #3A3B46",
"$	c #32333E",
"%	c #30323E",
"&	c #333541",
"*	c #464957",
"=	c #414451",
"-	c #3A3B49",
";	c #353846",
">	c #383B4A",
",	c #4C4F61",
"'	c #474A5B",
")	c #3F4252",
"!	c #383B4B",
"~	c #3B3E4E",
"{	c #505367",
"]	c #4A4E61",
"^	c #424558",
"/	c #3B3E4F",
"(	c #3E4153",
"_	c #53576C",
":	c #4E5266",
"<	c #45495C",
"[	c #3D4153",
"}	c #404457",
"|	c #565B71",
"1	c #51556B",
"2	c #505568",
"3	c #43485C",
"4	c #5A5E77",
"5	c #545971",
"6	c #53586D",
"7	c #42475B",
"8	c #464B60",
"9	c #5D627D",
"0	c #575C76",
"a	c #555B71",
"b	c #464A60",
"c	c #4A4E65",
"d	c #606783",
"e	c #5B617C",
"f	c #575E76",
"g	c #484E64",
"h	c #4C5269",
"i	c #646A88",
"j	c #5E6481",
"k	c #59607A",
"l	c #4A5068",
"m	c #4D546D",
"n	c #666D8D",
"o	c #606785",
"p	c #5B627D",
"q	c #4B526B",
"r	c #4F5570",
"s	c #686F90",
"t	c #616989",
"u	c #5C637F",
"v	c #4C526D",
"w	c #4F5672",
"x	c #687093",
"y	c #626A8C",
"z	c #5B6281",
"A	c #484E6A",
"B	c #4B526F",
"C	c #636C8F",
"D	c #5E6788",
"E	c #575F7E",
"F	c #3C4560",
"G	c #3F4964",
"H	c #525E7E",
"I	c #4E5978",
"J	c #4A5472",
"K	c #2C384F",
"L	c #2D3A52",
"M	c #3C4A66",
"N	c #384661",
"O	c #38455F",
".+@#$",
"%&*=-",
";>,')",
"!~{]^",
"/(_:<",
"[}|12",
"}3456",
"7890a",
"bcdef",
"ghijk",
"lmnop",
"qrstu",
"vwxyz",
"ABCDE",
"FGHIJ",
"KLMNO"};
