/* XPM */
static char * reverb__labels_xpm[] = {
"282 16 255 2",
"  	c None",
". 	c #778296",
"+ 	c #768296",
"@ 	c #768195",
"# 	c #758195",
"$ 	c #758095",
"% 	c #565E6E",
"& 	c #2F333C",
"* 	c #5F6879",
"= 	c #6A7487",
"- 	c #4B5260",
"; 	c #646D7F",
"> 	c #363B45",
", 	c #2F343C",
"' 	c #4C5360",
") 	c #727D92",
"! 	c #525968",
"~ 	c #596171",
"{ 	c #666F82",
"] 	c #656E81",
"^ 	c #6D778B",
"/ 	c #535A69",
"( 	c #737D92",
"_ 	c #737E93",
": 	c #758094",
"< 	c #414752",
"[ 	c #000000",
"} 	c #505765",
"| 	c #626B7C",
"1 	c #2F333B",
"2 	c #14161A",
"3 	c #040505",
"4 	c #323740",
"5 	c #464D59",
"6 	c #6B7588",
"7 	c #17191D",
"8 	c #434955",
"9 	c #3F4550",
"0 	c #040405",
"a 	c #4F5664",
"b 	c #010101",
"c 	c #596170",
"d 	c #1C1F24",
"e 	c #748094",
"f 	c #6B7689",
"g 	c #3D434E",
"h 	c #535B6A",
"i 	c #48505C",
"j 	c #565F6E",
"k 	c #49505D",
"l 	c #373D47",
"m 	c #697486",
"n 	c #3D444E",
"o 	c #31363F",
"p 	c #444B57",
"q 	c #707C8F",
"r 	c #5E6878",
"s 	c #343942",
"t 	c #4F5765",
"u 	c #616B7C",
"v 	c #2E333B",
"w 	c #49515E",
"x 	c #404651",
"y 	c #737F93",
"z 	c #596272",
"A 	c #667082",
"B 	c #474F5B",
"C 	c #030404",
"D 	c #0B0C0E",
"E 	c #515A68",
"F 	c #6A7588",
"G 	c #424955",
"H 	c #15171B",
"I 	c #4F5764",
"J 	c #121417",
"K 	c #656F81",
"L 	c #657082",
"M 	c #697386",
"N 	c #6D788B",
"O 	c #525B69",
"P 	c #454C58",
"Q 	c #343A43",
"R 	c #626C7D",
"S 	c #5D6777",
"T 	c #333942",
"U 	c #434A55",
"V 	c #737E92",
"W 	c #646E7F",
"X 	c #707B8F",
"Y 	c #414853",
"Z 	c #333841",
"` 	c #6F7B8E",
" .	c #4B5360",
"..	c #323841",
"+.	c #0F1013",
"@.	c #747F93",
"#.	c #616B7B",
"$.	c #050506",
"%.	c #1B1E23",
"&.	c #0A0B0D",
"*.	c #070809",
"=.	c #090A0C",
"-.	c #181A1E",
";.	c #687284",
">.	c #0C0D0F",
",.	c #2D3139",
"'.	c #1E2126",
").	c #1F2227",
"!.	c #070709",
"~.	c #3E444E",
"{.	c #555E6C",
"].	c #707B8E",
"^.	c #2A2E35",
"/.	c #191B1F",
"(.	c #6A7587",
"_.	c #373D46",
":.	c #202328",
"<.	c #616A7B",
"[.	c #0E0F12",
"}.	c #444A56",
"|.	c #050607",
"1.	c #21242A",
"2.	c #020202",
"3.	c #121317",
"4.	c #6F7A8D",
"5.	c #5F6979",
"6.	c #010102",
"7.	c #0D0E11",
"8.	c #101215",
"9.	c #697385",
"0.	c #191B20",
"a.	c #272A31",
"b.	c #272B32",
"c.	c #4B525F",
"d.	c #25282F",
"e.	c #141519",
"f.	c #677183",
"g.	c #24272E",
"h.	c #424854",
"i.	c #0C0D10",
"j.	c #748093",
"k.	c #1E2026",
"l.	c #586170",
"m.	c #2C3038",
"n.	c #131518",
"o.	c #4D5562",
"p.	c #5D6676",
"q.	c #30353D",
"r.	c #6B7688",
"s.	c #282B32",
"t.	c #555D6B",
"u.	c #4A515D",
"v.	c #060708",
"w.	c #3E444F",
"x.	c #373C45",
"y.	c #4C5461",
"z.	c #22252B",
"A.	c #555D6C",
"B.	c #60697A",
"C.	c #596271",
"D.	c #3A3F49",
"E.	c #0A0A0C",
"F.	c #32363F",
"G.	c #677182",
"H.	c #606B7B",
"I.	c #2A2F36",
"J.	c #646F80",
"K.	c #24282E",
"L.	c #353A44",
"M.	c #596372",
"N.	c #363C45",
"O.	c #505967",
"P.	c #3C434D",
"Q.	c #4E5764",
"R.	c #2D323A",
"S.	c #030304",
"T.	c #3A404A",
"U.	c #5C6676",
"V.	c #383E48",
"W.	c #697587",
"X.	c #424954",
"Y.	c #3E4550",
"Z.	c #404753",
"`.	c #5A6473",
" +	c #434A56",
".+	c #2E323A",
"++	c #1B1D22",
"@+	c #6E7A8D",
"#+	c #31363E",
"$+	c #141619",
"%+	c #020203",
"&+	c #586271",
"*+	c #737F92",
"=+	c #5B6473",
"-+	c #363B44",
";+	c #3B414B",
">+	c #2E333A",
",+	c #4E5663",
"'+	c #6D788A",
")+	c #667182",
"!+	c #6F7B8D",
"~+	c #4C5460",
"{+	c #262A30",
"]+	c #5E6877",
"^+	c #5F6978",
"/+	c #16181C",
"(+	c #15171A",
"_+	c #697586",
":+	c #3E454F",
"<+	c #282C32",
"[+	c #606A7A",
"}+	c #5C6675",
"|+	c #272B31",
"1+	c #667181",
"2+	c #646F7F",
"3+	c #353B44",
"4+	c #4D5561",
"5+	c #5C6574",
"6+	c #6E7A8C",
"7+	c #4A525F",
"8+	c #3F4650",
"9+	c #545D6B",
"0+	c #677283",
"a+	c #606A7B",
"b+	c #1A1D21",
"c+	c #171A1E",
"d+	c #6C7789",
"e+	c #727D91",
"f+	c #111316",
"g+	c #717C90",
"h+	c #23272D",
"i+	c #040506",
"j+	c #4E5664",
"k+	c #1D2025",
"l+	c #5F6878",
"m+	c #667081",
"n+	c #2A2E36",
"o+	c #101114",
"p+	c #656E80",
"q+	c #727E92",
"r+	c #717D91",
"s+	c #636E7F",
"t+	c #667183",
"u+	c #6D798C",
"v+	c #2C3139",
"w+	c #646E80",
"x+	c #657081",
"y+	c #727E91",
"z+	c #000001",
"A+	c #717E91",
"B+	c #6F7C8F",
"C+	c #687485",
"D+	c #6C788A",
"E+	c #5F6A7A",
"F+	c #707D90",
". . + + + + + + + + + + + + + + + + + + + + + + + + + + + + + + + + + + + + + + + + + + + + + + + + + + + + + + + + + + + + + + + + + + + + + + + + + + + + + + + + + + + + + + + + + + + + + + + + + + + + + + + + + + + + + + + + + + + + + + + + + + + + + + + + + + + + + + + + + + + + + + + + + + + + + + + + + + + + + + + + + + + + + + + + + + + + + + + + + + + + + + + + + + + + + + + + + + + + + + + + + + + + + + + + + + + + + + + + + + + + + + + + + + + + + + + + + + + + + + + + + + + + + + + + + + + + + + + + + + + + + + + + + + + + + + + + + + + + + + + + ",
"+ + @ @ @ @ @ @ @ @ @ @ @ @ @ @ @ @ @ @ @ @ @ @ @ @ @ @ @ @ @ @ @ @ @ @ @ @ @ @ @ @ @ @ @ @ @ @ @ @ @ @ @ @ @ @ @ @ @ @ @ @ @ @ @ @ @ @ @ @ @ @ @ @ @ @ @ @ @ @ @ @ @ @ @ @ @ @ @ @ @ @ @ @ @ @ @ @ @ @ @ @ @ @ @ @ @ @ @ @ @ @ @ @ @ @ @ @ @ @ @ @ @ @ @ @ @ @ @ @ @ @ @ @ @ @ @ @ @ @ @ @ @ @ @ @ @ @ @ @ @ @ @ @ @ @ @ @ @ @ @ @ @ @ @ @ @ @ @ @ @ @ @ @ @ @ @ @ @ @ @ @ @ @ @ @ @ @ @ @ @ @ @ @ @ @ @ @ @ @ @ @ @ @ @ @ @ @ @ @ @ @ @ @ @ @ @ @ @ @ @ @ @ @ @ @ @ @ @ @ @ @ @ @ @ @ @ @ @ @ @ @ @ @ @ @ @ @ @ @ @ @ @ @ @ @ @ @ @ @ @ @ @ @ @ @ @ @ @ @ @ @ @ @ @ @ @ @ @ @ @ @ ",
"@ @ # # # # # # # # # # # # # # # # # # # # # # # # # # # # # # # # # # # # # # # # # # # # # # # # # # # # # # # # # # # # # # # # # # # # # # # # # # # # # # # # # # # # # # # # # # # # # # # # # # # # # # # # # # # # # # # # # # # # # # # # # # # # # # # # # # # # # # # # # # # # # # # # # # # # # # # # # # # # # # # # # # # # # # # # # # # # # # # # # # # # # # # # # # # # # # # # # # # # # # # # # # # # # # # # # # # # # # # # # # # # # # # # # # # # # # # # # # # # # # # # # # # # # # # # # # # # # # # # # # # # # # # # # # # # # # # # # # # # # # # # ",
"# # $ $ $ $ $ $ $ $ $ $ $ $ $ $ $ $ $ $ $ $ $ $ $ $ $ $ $ % & * = & - $ $ $ $ $ $ $ $ $ $ $ $ $ $ $ $ $ $ $ $ $ $ $ $ $ $ $ $ $ $ $ $ $ $ $ $ $ $ $ $ $ $ ; > , ' & - $ $ $ $ $ $ $ $ $ $ $ $ $ $ $ $ $ $ $ $ $ $ $ $ ) ! ~ $ $ { ! ] ) ! ! ! % ^ $ $ ) ! ! ! ! / $ $ $ $ $ $ $ $ $ $ $ $ $ $ $ $ $ $ $ $ $ $ $ $ $ $ $ $ $ $ $ $ $ $ $ $ $ $ $ $ $ $ $ $ $ $ $ $ $ $ $ $ $ $ $ $ $ $ $ $ $ $ $ $ = & - $ ; > , % $ $ $ $ % & * $ $ $ $ $ $ $ $ $ $ $ $ $ $ $ $ $ $ $ $ $ $ $ $ $ $ $ $ $ $ $ $ $ $ $ $ $ $ $ $ ( _ $ $ $ $ $ $ $ $ $ $ $ $ $ $ $ $ $ $ $ $ $ $ $ $ $ $ $ $ $ $ $ $ ",
"$ $ : : : : : : : : : : : : : : : : : : : : : : : : : : : < [ } | [ 1 : : : : : : : : : : : : : : : : : : : : : : : : : : : : : : : : : : : : : : : : : : 2 3 4 5 [ 1 : : : : : : : : : : : : : : : : : : : : : : : : 6 [ 7 : : 8 [ 9 6 [ [ [ [ 0 a : 6 [ [ [ [ b : : : : : : : : : : : : : : : : : : : : : : : : : : : : : : : : : : : : : : : : : : : : : : : : : : : : : : : : : : : : : : : : | [ 1 : 2 3 4 c : : : : < [ } : : : : : : : : : : : : : : : : : : : : : : : : : : : : : : : : : : : : : : : : [ d : : : : : : : : : : : : : : : : : : : : : : : : : : : : : : : : ",
": : e e e e f g h i 4 j e f g h k l e m n o p q e e r s < n [ t u [ v w x y e z g A e e e e e e e e e e e f g h i 4 j e f g h k l e m n o p q e e e e e B C D g E [ v i 4 j e e e e e e e e e e e e e e e e e e e e e F [ 7 e e G [ 9 F [ H F I [ J e F [ 2 K K L e e e e e e e e e e e e e e e e e e e e e f g h k l e M g o < N e e M g o < N e F g O P Q R S T U V e e e e e e e e e e e e e e u [ v B C D g W e r s < n [ t X Y Z o p ` e F g O P Q R S T U V f g h i 4 j e e e e e e e e e e e  .4 ..G X p [ +.g j e m n o p q e f g h k l m n o p q e e M g o < N e e e e e e ",
": : @.@.@.@.#.[ $.%.&.b c #.[ *.=.-.;.&.>.,.$.'.@.K $.$.).!.[ I #.[ v ~.[ {.@.'.!.].@.@.@.@.@.@.@.@.@.@.@.#.[ $.%.&.b c #.[ *.=.-.;.&.>.,.$.'.@.@.@.@.@.^.b 0 /.5 [ $.%.&.b c @.@.@.@.@.@.@.@.@.@.@.@.@.@.@.@.@.@.@.@.(.[ D _._.:.[ 9 (.[ 7 @.<.[ [.@.(.[ D _._.}.@.@.@.@.@.@.@.@.@.@.@.@.@.@.@.@.@.@.@.@.@.#.[ *.=.-.;.&.|.1.2.3.4.;.&.|.1.2.3.4.5.[ $.7 6.&.7.8.[ P @.@.@.@.@.@.@.@.@.@.@.@.@.@.#.[ v ^.b 0 /.c K $.$.).!.[ I 9.0., a.[ b.@.5.[ $.7 6.&.7.8.[ P #.[ $.%.&.b c @.@.@.@.@.@.@.@.@.c.[ d.,.e.f.g.[ |./.h.;.&.>.,.$.'.@.#.[ *.=.i.&.>.,.$.'.@.;.&.|.1.2.3.4.@.@.@.@.@.",
"j.j.@.@.@.@.#.[ k.@.l.[ m.#.[ n.].@.~.[ Z o.1.[ p.~.[ p @.q.[ I #.[ v r.0 s.m b q.@.@.@.@.@.@.@.@.@.@.@.@.#.[ k.@.l.[ m.#.[ n.].@.~.[ Z o.1.[ p.t.v v u.@.v.H @.#.[ k.@.l.[ m.@.@.@.@.@.@.@.@.@.@.@.@.@.@.@.@.@.@.@.@.(.[ 6.&.&.|.[ 9 (.[ 2.>.2.[ w.@.(.[ 6.&.&.:.@.@.@.@.@.@.@.@.@.@.@.@.@.@.@.@.@.@.@.@.@.#.[ n.].@.g [ 5 @.x.[ y.g [ 5 @.x.[ y.5.[ k.@.z.[ A.B.[ ,.@.@.@.@.@.@.@.@.@.@.@.@.@.@.#.[ v @.v.H @.@.~.[ p @.q.[ I @.C.9 D.E.!.@.5.[ k.@.z.[ A.B.[ ,.#.[ k.@.l.[ m.@.@.@.@.@.@.@.@.@.p [ F.c.G.@.@.[ d @.@.~.[ Z o.1.[ p.#.[ n.].~.[ Z o.1.[ p.g [ 5 @.x.[ y.@.@.@.@.@.",
"@.@.y y y y H.[ I.y J.[ K.H.[ ,.y y L.[ H d d d M.N.[ O.y P.[ Q.H.[ v y R.S.T.[ U.y y y y y y y y y y y y H.[ I.y J.[ K.H.[ ,.y y L.[ H d d d M.B n.n.V.y v.H y H.[ I.y J.[ K.y y y y y y y y y y y y y y y y y y y y W.[ 7 y y X.[ Y.W.[ >.P.Z.`.y y W.[ 7 y y y y y y y y y y y y y y y y y y y y y y y y H.[ ,.y y Q [ O y p [  +Q [ O y p [  +5.[ .+y b.[ L J.[ I.y y y y y y y y y y y y y y H.[ v y v.H y y N.[ O.y P.[ Q.y.[ ++L.=.S.y 5.[ .+y b.[ L J.[ I.H.[ I.y J.[ K.y y y y y y y y y @+#+$+%+6.&+y [ d y y L.[ H d d d M.H.[ ,.y L.[ H d d d M.Q [ O y p [  +y y y y y ",
"@.@.*+*+*+*+H.[ D =+-+[ ;+H.[ >+*+*+,+[ , '+)+Y !+~+[ {+]+7 [ Q.H.[ >+*+^+[ 2./+*+*+*+*+*+*+*+*+*+*+*+*+*+H.[ D =+-+[ ;+H.[ >+*+*+,+[ , '+)+Y !+*+*+*+*+*+v.(+*+H.[ D =+-+[ ;+*+*+*+*+*+*+*+*+*+*+*+*+*+*+*+*+*+*+*+*+_+[ 7 *+*+X.[ :+_+[ 7 *+*+*+*+*+_+[ 7 *+*+*+*+*+*+*+*+*+*+*+*+*+*+*+*+*+*+*+*+*+*+*+*+H.[ >+*+*+o.[ <+[+%.[ }+o.[ <+[+%.[ }+^+[ >+*+|+[ 1+2+[ I.*+*+*+*+*+*+*+*+*+*+*+*+*+*+H.[ >+*+v.(+*+*+~+[ {+]+7 [ Q.3+[ 4+S 0 S.*+^+[ >+*+|+[ 1+2+[ I.H.[ D =+-+[ ;+*+*+*+*+*+*+*+*+*+]+5+6+7+[ 8+*+S.+.9+0+,+[ , '+)+Y !+H.[ >+*+,+[ , '+)+Y !+o.[ <+[+%.[ }+*+*+*+*+*+",
"y y V V V V a+[ b+&.[ c+d+a+[ .+V V e+s S.[ [ f+4.g+h+[ i+:.[ j+a+[ .+V V k+[ h.V V V V V V V V V V V V V a+[ b+&.[ c+d+a+[ .+V V e+s S.[ [ f+4.V V V V V v.(+V a+[ b+&.[ c+d+V V V V V V V V V V V V V V V V V V V V m [ 7 V V h.[ w.m [ 7 V V V V V m [ 7 V V V V V V V V V V V V V V V V V V V V V V V V a+[ .+V V e+F.2.[ 0 g V e+F.2.[ 0 g V l+[ .+V a.[ m+W [ n+V V V V V V V V V V V V V V a+[ .+V v.(+V V g+h+[ i+:.[ j+p.=.[ H o+S.V l+[ .+V a.[ m+W [ n+a+[ b+&.[ c+d+V V V V V V V V V c.2.[ [ f+p+V s S.[ }.e+s S.[ [ f+4.a+[ .+V e+s S.[ [ f+4.e+F.2.[ 0 g V V V V V V ",
"*+*+q+q+q+q+a+[ .+` K r+q+q+q+q+q+q+q+q+@+s+F q+q+q+q+t+u+q+q+q+q+q+q+q+r+v+0 F q+q+q+q+q+q+q+q+q+q+q+q+q+a+[ .+` K r+q+q+q+q+q+q+q+q+@+s+F q+q+q+q+q+q+q+q+q+q+q+q+q+` K r+q+q+q+q+q+q+q+q+q+q+q+q+q+q+q+q+q+q+q+q+q+q+q+q+q+q+q+q+q+q+q+q+q+q+q+q+q+q+q+q+q+q+q+q+q+q+q+q+q+q+q+q+q+q+q+q+q+q+q+q+q+q+q+q+q+q+q+q+q+q+q+u+w+@+q+q+q+q+u+w+@+q+q+q+q+q+q+q+q+q+q+q+q+q+q+q+q+q+q+q+q+q+q+q+q+q+q+q+q+q+q+q+q+q+q+q+q+t+u+q+q+q+q+` x+r+q+q+q+q+q+q+q+q+q+q+q+q+q+a+[ .+` K r+q+q+q+q+q+q+q+q+q+q+q+` w+t+q+q+q+q+q+q+q+q+q+@+s+F q+q+q+q+q+q+q+q+@+s+F q+q+q+q+u+w+@+q+q+q+q+q+q+q+",
"q+q+y+y+y+y+[+[ .+y+y+y+y+y+y+y+y+y+y+y+y+y+y+y+y+y+y+y+y+y+y+y+y+y+y+y+z+z+n y+y+y+y+y+y+y+y+y+y+y+y+y+y+[+[ .+y+y+y+y+y+y+y+y+y+y+y+y+y+y+y+y+y+y+y+y+y+y+y+y+y+y+y+y+y+y+y+y+y+y+y+y+y+y+y+y+y+y+y+y+y+y+y+y+y+y+y+y+y+y+y+y+y+y+y+y+y+y+y+y+y+y+y+y+y+y+y+y+y+y+y+y+y+y+y+y+y+y+y+y+y+y+y+y+y+y+y+y+y+y+y+y+y+y+y+y+y+y+y+y+y+y+y+y+y+y+y+y+y+y+y+y+y+y+y+y+y+y+y+y+y+y+y+y+y+y+y+y+y+y+y+y+y+y+y+y+y+y+y+y+y+y+y+y+y+y+y+y+y+y+y+y+y+y+y+y+y+y+y+y+y+y+y+y+y+[+[ .+y+y+y+y+y+y+y+y+y+y+y+y+y+y+y+y+y+y+y+y+y+y+y+y+y+y+y+y+y+y+y+y+y+y+y+y+y+y+y+y+y+y+y+y+y+y+y+y+y+y+y+y+y+y+",
"A+A+A+A+A+A+B+C+D+A+A+A+A+A+A+A+A+A+A+A+A+A+A+A+A+A+A+A+A+A+A+A+A+A+A+A+E+C+A+A+A+A+A+A+A+A+A+A+A+A+A+A+A+B+C+D+A+A+A+A+A+A+A+A+A+A+A+A+A+A+A+A+A+A+A+A+A+A+A+A+A+A+A+A+A+A+A+A+A+A+A+A+A+A+A+A+A+A+A+A+A+A+A+A+A+A+A+A+A+A+A+A+A+A+A+A+A+A+A+A+A+A+A+A+A+A+A+A+A+A+A+A+A+A+A+A+A+A+A+A+A+A+A+A+A+A+A+A+A+A+A+A+A+A+A+A+A+A+A+A+A+A+A+A+A+A+A+A+A+A+A+A+A+A+A+A+A+A+A+A+A+A+A+A+A+A+A+A+A+A+A+A+A+A+A+A+A+A+A+A+A+A+A+A+A+A+A+A+A+A+A+A+A+A+A+A+A+A+A+A+A+A+A+A+A+B+C+D+A+A+A+A+A+A+A+A+A+A+A+A+A+A+A+A+A+A+A+A+A+A+A+A+A+A+A+A+A+A+A+A+A+A+A+A+A+A+A+A+A+A+A+A+A+A+A+A+A+A+A+A+A+A+",
"A+A+r+r+r+r+r+r+r+r+r+r+r+r+r+r+r+r+r+r+r+r+r+r+r+r+r+r+r+r+r+r+r+r+r+r+r+r+r+r+r+r+r+r+r+r+r+r+r+r+r+r+r+r+r+r+r+r+r+r+r+r+r+r+r+r+r+r+r+r+r+r+r+r+r+r+r+r+r+r+r+r+r+r+r+r+r+r+r+r+r+r+r+r+r+r+r+r+r+r+r+r+r+r+r+r+r+r+r+r+r+r+r+r+r+r+r+r+r+r+r+r+r+r+r+r+r+r+r+r+r+r+r+r+r+r+r+r+r+r+r+r+r+r+r+r+r+r+r+r+r+r+r+r+r+r+r+r+r+r+r+r+r+r+r+r+r+r+r+r+r+r+r+r+r+r+r+r+r+r+r+r+r+r+r+r+r+r+r+r+r+r+r+r+r+r+r+r+r+r+r+r+r+r+r+r+r+r+r+r+r+r+r+r+r+r+r+r+r+r+r+r+r+r+r+r+r+r+r+r+r+r+r+r+r+r+r+r+r+r+r+r+r+r+r+r+r+r+r+r+r+r+r+r+r+r+r+r+r+r+r+r+r+r+r+r+r+r+r+r+r+r+r+r+r+r+r+r+r+r+r+r+",
"A+A+F+F+F+F+F+F+F+F+F+F+F+F+F+F+F+F+F+F+F+F+F+F+F+F+F+F+F+F+F+F+F+F+F+F+F+F+F+F+F+F+F+F+F+F+F+F+F+F+F+F+F+F+F+F+F+F+F+F+F+F+F+F+F+F+F+F+F+F+F+F+F+F+F+F+F+F+F+F+F+F+F+F+F+F+F+F+F+F+F+F+F+F+F+F+F+F+F+F+F+F+F+F+F+F+F+F+F+F+F+F+F+F+F+F+F+F+F+F+F+F+F+F+F+F+F+F+F+F+F+F+F+F+F+F+F+F+F+F+F+F+F+F+F+F+F+F+F+F+F+F+F+F+F+F+F+F+F+F+F+F+F+F+F+F+F+F+F+F+F+F+F+F+F+F+F+F+F+F+F+F+F+F+F+F+F+F+F+F+F+F+F+F+F+F+F+F+F+F+F+F+F+F+F+F+F+F+F+F+F+F+F+F+F+F+F+F+F+F+F+F+F+F+F+F+F+F+F+F+F+F+F+F+F+F+F+F+F+F+F+F+F+F+F+F+F+F+F+F+F+F+F+F+F+F+F+F+F+F+F+F+F+F+F+F+F+F+F+F+F+F+F+F+F+F+F+F+F+F+F+F+"};
