/* XPM */
static char * simpler__edit_xpm[] = {
"59 34 383 2",
"  	c None",
". 	c #7D8A9F",
"+ 	c #818EA2",
"@ 	c #8592A7",
"# 	c #8794A9",
"$ 	c #8896AB",
"% 	c #8795AA",
"& 	c #8694A9",
"* 	c #8593A8",
"= 	c #8391A6",
"- 	c #818FA3",
"; 	c #808DA1",
"> 	c #7F8CA0",
", 	c #8694A8",
"' 	c #8593A7",
") 	c #8391A5",
"! 	c #E5E5E5",
"~ 	c #768394",
"{ 	c #7E8B9E",
"] 	c #8693A8",
"^ 	c #677181",
"/ 	c #768294",
"( 	c #CDCDCD",
"_ 	c #BFBFBF",
": 	c #B3B3B3",
"< 	c #BEBEBE",
"[ 	c #B4B4B4",
"} 	c #CACACA",
"| 	c #5B6573",
"1 	c #707B8D",
"2 	c #8390A5",
"3 	c #7E8A9E",
"4 	c #CCCDCD",
"5 	c #5F5F5F",
"6 	c #000000",
"7 	c #555655",
"8 	c #CCCCCC",
"9 	c #CDCCCC",
"0 	c #020202",
"a 	c #B5B4B5",
"b 	c #CBCBCC",
"c 	c #878786",
"d 	c #757575",
"e 	c #B2B2B1",
"f 	c #CCCBCB",
"g 	c #CBCBCB",
"h 	c #CACBCA",
"i 	c #57606E",
"j 	c #6E798A",
"k 	c #8491A7",
"l 	c #828FA5",
"m 	c #7D899E",
"n 	c #CBCCCC",
"o 	c #CCCCCB",
"p 	c #CCCBCC",
"q 	c #CBCACB",
"r 	c #CBCBCA",
"s 	c #CBCACA",
"t 	c #5E5E5E",
"u 	c #545454",
"v 	c #CACAC9",
"w 	c #C9C9CA",
"x 	c #535353",
"y 	c #515151",
"z 	c #BCBCBC",
"A 	c #C8C8C9",
"B 	c #282828",
"C 	c #8D8D8C",
"D 	c #C9C8C8",
"E 	c #C8C8C8",
"F 	c #565E6D",
"G 	c #6D778A",
"H 	c #8491A6",
"I 	c #828FA4",
"J 	c #7D899D",
"K 	c #C9C9C9",
"L 	c #C9C8C9",
"M 	c #C9C9C8",
"N 	c #C3C3C4",
"O 	c #777676",
"P 	c #434343",
"Q 	c #3D3D3D",
"R 	c #696969",
"S 	c #C8C8C7",
"T 	c #B6B6B7",
"U 	c #575756",
"V 	c #3E3E3E",
"W 	c #5C5C5C",
"X 	c #C7C7C7",
"Y 	c #C7C7C6",
"Z 	c #585858",
"` 	c #565656",
" .	c #BABABA",
"..	c #686868",
"+.	c #111111",
"@.	c #3C3C3C",
"#.	c #565655",
"$.	c #919191",
"%.	c #C6C5C6",
"&.	c #C5C6C6",
"*.	c #C6C5C5",
"=.	c #C5C5C5",
"-.	c #565E6C",
";.	c #6D7789",
">.	c #818FA4",
",.	c #7C899D",
"'.	c #C6C6C6",
").	c #C6C7C7",
"!.	c #C4C4C4",
"~.	c #333434",
"{.	c #202020",
"].	c #2C2C2C",
"^.	c #262626",
"/.	c #C1C1C0",
"(.	c #232323",
"_.	c #0F0F0F",
":.	c #161616",
"<.	c #0D0D0D",
"[.	c #525252",
"}.	c #C4C3C4",
"|.	c #ADADAE",
"1.	c #080808",
"2.	c #0B0B0B",
"3.	c #6D6C6C",
"4.	c #C3C2C2",
"5.	c #C3C3C2",
"6.	c #C2C3C2",
"7.	c #555E6C",
"8.	c #6C7789",
"9.	c #8390A6",
"0.	c #818EA4",
"a.	c #7C889D",
"b.	c #C4C4C3",
"c.	c #C4C3C3",
"d.	c #C3C3C3",
"e.	c #8B8B8B",
"f.	c #1E1E1E",
"g.	c #C2C2C2",
"h.	c #343434",
"i.	c #7A7A7A",
"j.	c #8A8A8A",
"k.	c #0C0C0C",
"l.	c #252525",
"m.	c #505150",
"n.	c #C1C1C1",
"o.	c #ABABAA",
"p.	c #C0C1C1",
"q.	c #868686",
"r.	c #C0C0C0",
"s.	c #C0C0BF",
"t.	c #BFBFC0",
"u.	c #8290A5",
"v.	c #808EA3",
"w.	c #7B889C",
"x.	c #676767",
"y.	c #6B6B6B",
"z.	c #2F2F2F",
"A.	c #535352",
"B.	c #4F504F",
"C.	c #BEBEBF",
"D.	c #BFBEBE",
"E.	c #A8A9A9",
"F.	c #848485",
"G.	c #BDBDBD",
"H.	c #BEBDBD",
"I.	c #BDBCBD",
"J.	c #BDBDBC",
"K.	c #6B7788",
"L.	c #BDBEBE",
"M.	c #717171",
"N.	c #848484",
"O.	c #848384",
"P.	c #9D9D9D",
"Q.	c #747574",
"R.	c #1F1E1E",
"S.	c #414141",
"T.	c #4E4E4E",
"U.	c #BCBBBB",
"V.	c #BBBCBB",
"W.	c #A6A6A6",
"X.	c #BBBBBB",
"Y.	c #818282",
"Z.	c #BBBABA",
"`.	c #BABABB",
" +	c #A7A7A7",
".+	c #070707",
"++	c #010101",
"@+	c #646464",
"#+	c #8C8C8C",
"$+	c #787878",
"%+	c #3B3B3B",
"&+	c #8D8D8D",
"*+	c #A5A4A5",
"=+	c #040404",
"-+	c #606160",
";+	c #050505",
">+	c #4D4D4D",
",+	c #B9B9B9",
"'+	c #B8B8B9",
")+	c #A3A3A3",
"!+	c #B8B8B8",
"~+	c #5B5B5B",
"{+	c #9D9E9D",
"]+	c #B8B8B7",
"^+	c #B7B7B7",
"/+	c #B9B8B8",
"(+	c #B9B9B8",
"_+	c #B7B8B8",
":+	c #888889",
"<+	c #1A1A1A",
"[+	c #9A9A9A",
"}+	c #B7B7B6",
"|+	c #191819",
"1+	c #3A3A3A",
"2+	c #4C4C4C",
"3+	c #B6B6B6",
"4+	c #B6B6B5",
"5+	c #A1A1A1",
"6+	c #B5B6B6",
"7+	c #888888",
"8+	c #171717",
"9+	c #818181",
"0+	c #B5B5B5",
"a+	c #B4B5B5",
"b+	c #B5B4B4",
"c+	c #B4B5B4",
"d+	c #7F8DA2",
"e+	c #7A879B",
"f+	c #B5B6B5",
"g+	c #979898",
"h+	c #A8A9A8",
"i+	c #B4B4B5",
"j+	c #AAAAAA",
"k+	c #B0B1B0",
"l+	c #B3B4B4",
"m+	c #B3B4B3",
"n+	c #B3B3B2",
"o+	c #B2B2B3",
"p+	c #B2B2B2",
"q+	c #B3B2B2",
"r+	c #B1B2B2",
"s+	c #B1B2B1",
"t+	c #545E6C",
"u+	c #6B7688",
"v+	c #B2B3B2",
"w+	c #B2B1B1",
"x+	c #B2B1B2",
"y+	c #B1B1B1",
"z+	c #B0B1B1",
"A+	c #B0B0B1",
"B+	c #B1B0B1",
"C+	c #B1B1B0",
"D+	c #B0B0B0",
"E+	c #AFB0B0",
"F+	c #AFAFB0",
"G+	c #B0AFB0",
"H+	c #AFAFAF",
"I+	c #B0AFAF",
"J+	c #AFAFAE",
"K+	c #AFAEAF",
"L+	c #596271",
"M+	c #6C788A",
"N+	c #7D8B9F",
"O+	c #737F92",
"P+	c #646F7F",
"Q+	c #596371",
"R+	c #7E8CA1",
"S+	c #79869A",
"T+	c #727E91",
"U+	c #6A7687",
"V+	c #7C8A9E",
"W+	c #808DA3",
"X+	c #7F8CA2",
"Y+	c #68758A",
"Z+	c #687589",
"`+	c #677488",
" @	c #5C697E",
".@	c #5C697D",
"+@	c #5A667B",
"@@	c #5B677C",
"#@	c #636F84",
"$@	c #424E63",
"%@	c #414D61",
"&@	c #404C61",
"*@	c #3F4B60",
"=@	c #323D52",
"-@	c #39455A",
";@	c #59657A",
">@	c #141920",
",@	c #13181F",
"'@	c #13171F",
")@	c #12171E",
"!@	c #12171D",
"~@	c #12161C",
"{@	c #11151C",
"]@	c #11151B",
"^@	c #10141A",
"/@	c #101419",
"(@	c #10131A",
"_@	c #0F1319",
":@	c #0F1318",
"<@	c #0E1217",
"[@	c #0E1117",
"}@	c #0E1116",
"|@	c #0D1116",
"1@	c #0D1015",
"2@	c #0C1015",
"3@	c #0D0F14",
"4@	c #0C0F13",
"5@	c #0B0E12",
"6@	c #0A0E11",
"7@	c #0A0D10",
"8@	c #0A0C10",
"9@	c #0A0C0F",
"0@	c #090B0F",
"a@	c #090B0E",
"b@	c #080A0E",
"c@	c #080A0D",
"d@	c #07090D",
"e@	c #07090C",
"f@	c #07090B",
"g@	c #07080B",
"h@	c #060709",
"i@	c #050608",
"j@	c #050507",
"k@	c #040506",
"l@	c #030406",
"m@	c #030405",
"n@	c #020304",
"o@	c #010203",
"p@	c #020203",
"q@	c #010102",
"r@	c #010000",
"s@	c #38455A",
"t@	c #22262C",
"u@	c #22262A",
"v@	c #21252A",
"w@	c #1F2429",
"x@	c #1F2328",
"y@	c #1E2227",
"z@	c #1E2126",
"A@	c #1D2026",
"B@	c #1C2024",
"C@	c #1C1F23",
"D@	c #1B1E22",
"E@	c #1B1E21",
"F@	c #191C21",
"G@	c #181C20",
"H@	c #181B1F",
"I@	c #171A1E",
"J@	c #171A1D",
"K@	c #16181C",
"L@	c #15181C",
"M@	c #14171A",
"N@	c #141619",
"O@	c #131619",
"P@	c #131418",
"Q@	c #121417",
"R@	c #111316",
"S@	c #101315",
"T@	c #101214",
"U@	c #0F1113",
"V@	c #0F1012",
"W@	c #0E0F12",
"X@	c #0D0F11",
"Y@	c #0C0D10",
"Z@	c #0B0D0E",
"`@	c #0B0C0E",
" #	c #0A0B0D",
".#	c #090A0C",
"+#	c #090A0B",
"@#	c #08090B",
"##	c #07090A",
"$#	c #070708",
"%#	c #060708",
"&#	c #060607",
"*#	c #050506",
"=#	c #040405",
"-#	c #030304",
";#	c #020102",
">#	c #010001",
",#	c #838FA1",
"'#	c #838EA1",
". . . . . . . . . . . . . . . . . . . . . . . . . . . . . . . . . . . . . . . . . . . . . . . . + + . . . . . . . . . ",
"+ + + + + + + + + + + + + + + + + + + + + + + + + + + + + + + + + + + + + + + + + + + + + + + + @ @ + + + + + + + + + ",
"@ @ @ @ @ @ @ @ @ @ @ @ @ @ @ @ @ @ @ @ @ @ @ @ @ @ @ @ @ @ @ @ @ @ @ @ @ @ @ @ @ @ @ @ @ @ @ @ # # @ @ @ @ @ @ @ @ @ ",
"# # # # # # # # # # # # # # # # # # # # # # # # # # # # # # # # # # # # # # # # # # # # # # # # $ $ # # # # # # # # # ",
"$ $ $ $ $ $ $ $ $ $ $ $ $ $ $ $ $ $ $ $ $ $ $ $ $ $ $ $ $ $ $ $ $ $ $ $ $ $ $ $ $ $ $ $ $ $ $ $ $ $ $ $ $ $ $ $ $ $ $ ",
"$ $ $ $ $ $ $ $ $ $ $ $ $ $ $ $ $ $ $ $ $ $ $ $ $ $ $ $ $ $ $ $ $ $ $ $ $ $ $ $ $ $ $ $ $ $ $ $ $ $ $ $ $ $ $ $ $ $ $ ",
"$ $ $ $ $ $ $ $ $ $ $ $ $ $ $ $ $ $ $ $ $ $ $ $ $ $ $ $ $ $ $ $ $ $ $ $ $ $ $ $ $ $ $ $ $ $ $ $ % % $ $ $ $ $ $ $ $ $ ",
"% % % & & * * * * * * * * * * * * * * * * * * * * * * * * * * * * * * * * * * * * * & & % % % % & & % % % % % % % % % ",
"& & * = - ; > > > > > > > > > > > > > > > > > > > > > > > > > > > > > > > > > > > ; - = * & & & , , & & & & & & & & & ",
", ' ) ! ! ! ! ! ! ! ! ! ! ! ! ! ! ! ! ! ! ! ! ! ! ! ! ! ! ! ! ! ! ! ! ! ! ! ! ! ! ! ~ { ) ' , , ] ] , , , , , , , , , ",
"] @ + ! ! ! ! ! ! ! ! ! ! ! ! ! ! ! ! ! ! ! ! ! ! ! ! ! ! ! ! ! ! ! ! ! ! ! ! ! ! ! ^ / + @ ] ] * * ] ] ] ] ] ] ] ] ] ",
"* = > ! ! ( ( ( ( ( ( ( ( ( ( ( ( ( ( ( ( ( ( _ : < ( ( [ : } ( ( ( ( ( ( ( ( ( ( ( | 1 > = * * @ @ * * * * * * * * * ",
"@ 2 3 ! ! ( ( ( ( ( ( ( ( ( ( ( ( ( ( ( ( 4 ( 5 6 7 8 9 0 6 a b c d e f f g g g h h i j 3 2 @ @ k k @ @ @ @ @ @ @ @ @ ",
"k l m ! ! 8 n o n p p g b g g q g q r h s } } t 6 u v w x y z A B 6 C D A E E E E E F G m l k k H H k k k k k k k k k ",
"H I J ! ! K K K L M A N O P Q R < E S T U V d W 6 x X Y Z `  ...+.6 @.#.$.%.&.*.=.=.-.;.J I H H = = H H H H H H H H H ",
"= >.,.! ! '.).'.'.'.!.~.6 {.].6 ^._ /.(.6 _.:.<.6 [.!.}.0 6 |.B 0 6 1.2.3.4.4.4.5.6.7.8.,.>.= = 9.9.= = = = = = = = = ",
"9.0.a.! ! N N b.c.d.e.6 f._ g.h.6 i.j.6 k.a _ l.6 m.n.n.0 6 o.p.^.6 q.r.r.r.s.r.t._ 7.8.a.0.9.9.u.u.9.9.9.9.9.9.9.9.9.",
"u.v.w.! ! /.n.n.r./.x.6 6 6 6 6 6 Z y.6 z._ _ A.6 B.C.D.0 6 E.< l.6 F.G.H.I.G.G.J.J.7.K.w.v.u.u.u.u.u.u.u.u.u.u.u.u.u.",
"u.v.w.! ! < < L.< H.M.6 {.N.N.O.N.P.Q.6 R.z z S.6 T.U.V.0 6 W.X.^.6 Y. .Z. . . . . .7.K.w.v.u.u.u.u.u.u.u.u.u.u.u.u.u.",
"u.v.w.! ! X.X.X.X.`. +.+++@+#+$+%+&+*+=+6 y -+;+6 >+,+'+0 6 )+!+h.6 z.~+{+]+^+^+^+^+7.K.w.v.u.u.u.u.u.u.u.u.u.u.u.u.u.",
"u.v.w.! ! /+(+!+!+!+_+:+<+6 6 6 f.[+}+M.;+6 |+1+6 2+3+4+0 6 5+6+7+8+6 6 9+0+a+b+c+[ 7.K.w.v.u.u.>.>.u.u.u.u.u.u.u.u.u.",
">.d+e+! ! 3+f+f+0+0+0+0+a 5+g+h+c+i+[ [ j+[+k+l+m+m+: : : n+o+p+q+p+o+p+r+p+s+e e e t+u+e+d+>.>.>.>.>.>.>.>.>.>.>.>.>.",
">.d+w.! ! : o+v+q+v+p+p+p+p+w+x+x+s+s+s+y+z+A+B+C+A+k+D+D+E+F+G+H+I+H+H+H+H+H+J+K+K+L+M+w.d+>.>.0.0.>.>.>.>.>.>.>.>.>.",
"u.>.N+O+P+Q+7.7.7.7.7.7.7.7.7.7.7.7.7.7.7.7.7.7.7.7.7.7.7.7.7.7.7.7.7.7.7.7.7.7.7.Q+P+O+N+>.u.u.u.u.u.u.u.u.u.u.u.u.u.",
">.v.R+S+T+M+u+U+U+U+U+U+U+U+U+U+U+U+U+U+U+U+U+U+U+U+U+U+U+U+U+U+U+U+U+U+U+U+U+U+u+M+T+S+R+v.>.>.>.>.>.>.>.>.>.>.>.>.>.",
">.>.v.R+V+w.e+e+e+e+e+e+e+e+e+e+e+e+e+e+e+e+e+e+e+e+e+e+e+e+e+e+e+e+e+e+e+e+e+e+e+w.V+R+v.>.>.>.>.>.>.>.>.>.>.>.>.>.>.",
"0.0.0.W+W+X+X+X+X+X+X+X+X+X+X+X+X+X+X+X+X+X+X+X+X+X+X+X+X+X+X+X+X+X+X+X+X+X+X+X+X+X+W+W+0.0.0.0.0.0.0.0.0.0.0.0.0.0.0.",
"v.v.v.v.v.v.v.v.v.v.v.v.v.v.v.v.v.v.v.v.v.v.v.v.v.v.v.v.v.v.v.v.v.v.v.v.v.v.v.v.v.v.v.v.v.v.v.v.v.v.v.v.v.v.v.v.v.v.v.",
"Y+Y+Y+Y+Y+Y+Y+Y+Y+Y+Y+Y+Y+Y+Y+Y+Y+Y+Y+Y+Y+Y+Y+Y+Y+Y+Y+Y+Y+Y+Y+Y+Y+Y+Y+Y+Y+Y+Y+Y+Y+Y+Y+Y+Y+Y+Y+Y+Z+Z+Z+`+`+`+`+`+d+d+d+",
" @ @ @ @ @ @ @ @ @ @ @ @ @ @ @ @ @ @ @ @ @ @ @ @ @ @ @ @ @ @ @ @ @ @ @ @ @ @ @ @ @ @ @ @ @ @ @.@+@@@@@@@@@@@@@@@#@d+d+",
"$@$@$@$@$@$@$@$@$@$@$@$@$@$@$@$@$@$@$@$@$@$@$@$@$@$@$@$@$@$@$@$@$@$@$@$@$@$@$@$@$@$@$@$@$@$@%@&@&@*@*@*@*@=@=@=@-@;@d+",
">@,@,@'@)@!@~@{@]@^@/@(@_@:@<@[@}@|@1@2@3@4@5@5@6@7@8@9@0@a@b@c@d@e@f@g@h@h@i@i@j@k@k@l@m@n@n@o@p@q@++r@6 6 6 6 s@-@d+",
"t@t@u@v@w@x@y@z@A@B@C@D@E@F@G@H@I@J@K@L@M@N@O@P@Q@R@S@T@U@V@W@X@Y@Z@`@ #.#+#@###$#%#&#*#=#-#n@p@;#>#6 6 6 6 6 6 6 -@,#",
"6 6 6 6 6 6 6 6 6 6 6 6 6 6 6 6 6 6 6 6 6 6 6 6 6 6 6 6 6 6 6 6 6 6 6 6 6 6 6 6 6 6 6 6 6 6 6 6 6 6 6 6 6 6 6 6 6 6 '#"};
