/* XPM */
static char * top__icon_redo_disabled_xpm[] = {
"30 38 478 2",
"  	c None",
". 	c #2F303A",
"+ 	c #2E3039",
"@ 	c #2E303A",
"# 	c #2F3039",
"$ 	c #33343F",
"% 	c #32343F",
"& 	c #33333F",
"* 	c #32343E",
"= 	c #32333F",
"- 	c #363843",
"; 	c #353844",
"> 	c #363844",
", 	c #363744",
"' 	c #353744",
") 	c #393B49",
"! 	c #383B4A",
"~ 	c #393B4A",
"{ 	c #383C49",
"] 	c #383B49",
"^ 	c #393C49",
"/ 	c #393C4A",
"( 	c #9CA5AE",
"_ 	c #9CA5AD",
": 	c #9BA5AE",
"< 	c #9CA4AE",
"[ 	c #9BA5AD",
"} 	c #9BA4AD",
"| 	c #9CA4AD",
"1 	c #A0A9B0",
"2 	c #717B90",
"3 	c #3C3F4E",
"4 	c #3C3F4F",
"5 	c #3C3E4E",
"6 	c #1E1D27",
"7 	c #1F1C26",
"8 	c #1E1D26",
"9 	c #1E1C26",
"0 	c #1F1D26",
"a 	c #1F1C27",
"b 	c #1F1D27",
"c 	c #3B3E54",
"d 	c #9EA6AF",
"e 	c #3E4252",
"f 	c #3E4251",
"g 	c #3E4152",
"h 	c #211F2A",
"i 	c #211F29",
"j 	c #201F2A",
"k 	c #201F29",
"l 	c #404354",
"m 	c #3F4354",
"n 	c #22212D",
"o 	c #23222D",
"p 	c #22222D",
"q 	c #23212D",
"r 	c #22212C",
"s 	c #21202B",
"t 	c #21202C",
"u 	c #21212C",
"v 	c #4E5966",
"w 	c #414556",
"x 	c #414456",
"y 	c #252330",
"z 	c #242430",
"A 	c #24242F",
"B 	c #24232F",
"C 	c #23232F",
"D 	c #23232E",
"E 	c #23232D",
"F 	c #242330",
"G 	c #252430",
"H 	c #959FA9",
"I 	c #434658",
"J 	c #424658",
"K 	c #272633",
"L 	c #272733",
"M 	c #262733",
"N 	c #252532",
"O 	c #262532",
"P 	c #252431",
"Q 	c #23222E",
"R 	c #22222E",
"S 	c #242431",
"T 	c #252633",
"U 	c #262633",
"V 	c #939CA8",
"W 	c #43475A",
"X 	c #43485A",
"Y 	c #282937",
"Z 	c #282936",
"` 	c #272735",
" .	c #282834",
"..	c #262734",
"+.	c #22222F",
"@.	c #363636",
"#.	c #20202C",
"$.	c #252531",
"%.	c #282734",
"&.	c #282735",
"*.	c #292836",
"=.	c #292936",
"-.	c #292937",
";.	c #45495D",
">.	c #45495C",
",.	c #2B2B39",
"'.	c #2B2B3A",
").	c #292A39",
"!.	c #2A2A38",
"~.	c #282835",
"{.	c #262632",
"].	c #777777",
"^.	c #20212D",
"/.	c #252632",
"(.	c #272836",
"_.	c #2A2A37",
":.	c #2A2A39",
"<.	c #2A2C3A",
"[.	c #2A2B39",
"}.	c #464B5E",
"|.	c #2D2E3D",
"1.	c #2C2E3C",
"2.	c #2C2D3C",
"3.	c #2A2B3A",
"4.	c #282836",
"5.	c #292A3A",
"6.	c #2B2C3C",
"7.	c #2C2E3D",
"8.	c #2D2D3D",
"9.	c #2D2D3C",
"0.	c #868F9F",
"a.	c #484C61",
"b.	c #2E2F3F",
"c.	c #2D2E3E",
"d.	c #2A2B3B",
"e.	c #767676",
"f.	c #232430",
"g.	c #262735",
"h.	c #2F3040",
"i.	c #2E3040",
"j.	c #848D9D",
"k.	c #494D62",
"l.	c #303141",
"m.	c #2E303F",
"n.	c #2A2C3B",
"o.	c #5D5D5D",
"p.	c #22232F",
"q.	c #222330",
"r.	c #232431",
"s.	c #252835",
"t.	c #303142",
"u.	c #313243",
"v.	c #313344",
"w.	c #313244",
"x.	c #818B9B",
"y.	c #4B4F65",
"z.	c #313245",
"A.	c #242432",
"B.	c #242633",
"C.	c #262835",
"D.	c #757575",
"E.	c #2E2F41",
"F.	c #323445",
"G.	c #333547",
"H.	c #333546",
"I.	c #7F889A",
"J.	c #4B5166",
"K.	c #323547",
"L.	c #252734",
"M.	c #272837",
"N.	c #2C2D3D",
"O.	c #2B2D3C",
"P.	c #282A39",
"Q.	c #333548",
"R.	c #343649",
"S.	c #353749",
"T.	c #35374A",
"U.	c #7C8698",
"V.	c #4D5269",
"W.	c #35364A",
"X.	c #313345",
"Y.	c #262836",
"Z.	c #282938",
"`.	c #2F3242",
" +	c #303244",
".+	c #2F3142",
"++	c #282A38",
"@+	c #272936",
"#+	c #292B3A",
"$+	c #2D3040",
"%+	c #303344",
"&+	c #333447",
"*+	c #36394C",
"=+	c #373A4D",
"-+	c #37394D",
";+	c #798397",
">+	c #4E546B",
",+	c #36394D",
"'+	c #36394E",
")+	c #2F3243",
"!+	c #333648",
"~+	c #747474",
"{+	c #35384A",
"]+	c #373A4F",
"^+	c #383B4F",
"/+	c #393C50",
"(+	c #768194",
"_+	c #50556D",
":+	c #383B50",
"<+	c #393C51",
"[+	c #292C3A",
"}+	c #2C2F3F",
"|+	c #34374A",
"1+	c #2C2E3E",
"2+	c #35394C",
"3+	c #3A3D52",
"4+	c #3B3E53",
"5+	c #747E93",
"6+	c #51576F",
"7+	c #3A3E52",
"8+	c #303345",
"9+	c #333749",
"0+	c #33374A",
"a+	c #2A2D3D",
"b+	c #313446",
"c+	c #373A4E",
"d+	c #3B3F54",
"e+	c #3C4056",
"f+	c #3D4157",
"g+	c #727C91",
"h+	c #525871",
"i+	c #3D4057",
"j+	c #323548",
"k+	c #2E3143",
"l+	c #333649",
"m+	c #2E3243",
"n+	c #2C3040",
"o+	c #2F3344",
"p+	c #34374B",
"q+	c #3A3E53",
"r+	c #3D4158",
"s+	c #3E4259",
"t+	c #3F445A",
"u+	c #6F788F",
"v+	c #545973",
"w+	c #3F435A",
"x+	c #3B4055",
"y+	c #737373",
"z+	c #313445",
"A+	c #343749",
"B+	c #35394B",
"C+	c #2F3143",
"D+	c #303445",
"E+	c #34384C",
"F+	c #393D52",
"G+	c #3E4258",
"H+	c #40445B",
"I+	c #41455D",
"J+	c #42465D",
"K+	c #6C768E",
"L+	c #555A76",
"M+	c #41465E",
"N+	c #42465E",
"O+	c #34384B",
"P+	c #303446",
"Q+	c #393E51",
"R+	c #35394D",
"S+	c #363A4E",
"T+	c #3F445B",
"U+	c #43475F",
"V+	c #434860",
"W+	c #444860",
"X+	c #6A748B",
"Y+	c #565C77",
"Z+	c #454963",
"`+	c #444A62",
" @	c #434761",
".@	c #33384B",
"+@	c #727272",
"@@	c #3C4055",
"#@	c #363B4E",
"$@	c #323748",
"%@	c #373C50",
"&@	c #40465E",
"*@	c #444962",
"=@	c #464B64",
"-@	c #454A64",
";@	c #677189",
">@	c #575E79",
",@	c #474C66",
"'@	c #454B65",
")@	c #434961",
"!@	c #3E445B",
"~@	c #393E53",
"{@	c #33364A",
"]@	c #383C51",
"^@	c #3E445A",
"/@	c #424860",
"(@	c #40455C",
"_@	c #3A3F54",
":@	c #34394C",
"<@	c #323648",
"[@	c #41475F",
"}@	c #464A64",
"|@	c #464C66",
"1@	c #474D66",
"2@	c #484C66",
"3@	c #484C67",
"4@	c #656F88",
"5@	c #585E7B",
"6@	c #484D67",
"7@	c #464C67",
"8@	c #464B65",
"9@	c #424961",
"0@	c #3E435B",
"a@	c #363B4F",
"b@	c #35384C",
"c@	c #444961",
"d@	c #41465D",
"e@	c #44495A",
"f@	c #464956",
"g@	c #393E52",
"h@	c #474B65",
"i@	c #474D67",
"j@	c #494F68",
"k@	c #494E69",
"l@	c #494F6A",
"m@	c #626B86",
"n@	c #585F7C",
"o@	c #454B64",
"p@	c #454A63",
"q@	c #42475F",
"r@	c #40455D",
"s@	c #3D4259",
"t@	c #3A3E54",
"u@	c #373B4F",
"v@	c #393D53",
"w@	c #3E425A",
"x@	c #444859",
"y@	c #464A58",
"z@	c #383D53",
"A@	c #3E435A",
"B@	c #424760",
"C@	c #474E69",
"D@	c #49506B",
"E@	c #4B506C",
"F@	c #606984",
"G@	c #59607E",
"H@	c #525664",
"I@	c #65676D",
"J@	c #737375",
"K@	c #3C4256",
"L@	c #62646B",
"M@	c #747575",
"N@	c #6E6E71",
"O@	c #454858",
"P@	c #63656C",
"Q@	c #61636A",
"R@	c #474B58",
"S@	c #5A5C65",
"T@	c #737475",
"U@	c #737374",
"V@	c #585A67",
"W@	c #4D536F",
"X@	c #5D6783",
"Y@	c #59607F",
"Z@	c #3B4056",
"`@	c #4F5260",
" #	c #585B65",
".#	c #565964",
"+#	c #727374",
"@#	c #464A59",
"##	c #5F6168",
"$#	c #6E6F71",
"%#	c #383D51",
"&#	c #4A4E5C",
"*#	c #4E515E",
"=#	c #575964",
"-#	c #494C5A",
";#	c #484C5A",
">#	c #4E525F",
",#	c #535762",
"'#	c #44495B",
")#	c #3D4258",
"!#	c #4A506B",
"~#	c #4E5471",
"{#	c #596380",
"]#	c #393E54",
"^#	c #4E515F",
"/#	c #404557",
"(#	c #606269",
"_#	c #3A3F53",
":#	c #535662",
"<#	c #494D5C",
"[#	c #404457",
"}#	c #3C4157",
"|#	c #4F5673",
"1#	c #56617E",
"2#	c #596080",
"3#	c #3A3F55",
"4#	c #404558",
"5#	c #393F54",
"6#	c #727274",
"7#	c #494C5D",
"8#	c #464B5B",
"9#	c #515461",
"0#	c #4B4F5E",
"a#	c #4E5260",
"b#	c #4A4E5D",
"c#	c #545763",
"d#	c #45495B",
"e#	c #3C4258",
"f#	c #434861",
"g#	c #4B526E",
"h#	c #515976",
"i#	c #535A79",
"j#	c #575F7F",
"k#	c #3C4158",
"l#	c #505362",
"m#	c #42465A",
"n#	c #3E4358",
"o#	c #747475",
"p#	c #61626B",
"q#	c #3C4057",
"r#	c #64656C",
"s#	c #4C4F60",
"t#	c #5C5F68",
"u#	c #585B66",
"v#	c #4D5571",
"w#	c #535B7A",
"x#	c #555D7C",
"y#	c #545D7C",
"z#	c #394157",
"A#	c #3A4058",
"B#	c #394058",
"C#	c #384056",
"D#	c #383E55",
"E#	c #383F55",
"F#	c #383E54",
"G#	c #393F57",
"H#	c #3B435A",
"I#	c #414963",
"J#	c #48506E",
"K#	c #4C5673",
"L#	c #4D5676",
"M#	c #4E5877",
"N#	c #3B425A",
"O#	c #3A435C",
"P#	c #3A425B",
"Q#	c #394159",
"R#	c #384058",
"S#	c #384059",
"T#	c #3C435D",
"U#	c #3F4864",
"V#	c #434D6B",
"W#	c #46506D",
"X#	c #47516F",
"Y#	c #38435D",
"Z#	c #39445E",
"`#	c #37425C",
" $	c #37425B",
".$	c #38435C",
"+$	c #3B4661",
"@$	c #3D4864",
"#$	c #3D4965",
"$$	c #3E4A66",
"%$	c #334059",
"&$	c #333F59",
"*$	c #333E59",
"=$	c #333F5A",
"-$	c #333E5A",
";$	c #33405A",
">$	c #34405A",
",$	c #34415B",
"'$	c #35415C",
")$	c #35425C",
"!$	c #2B3952",
"~$	c #2C3A53",
". + . . @ . . . . . . + # . . . # # . + . . # # . + . . @ . ",
"$ % % % % & % * = $ & % $ % * $ % % $ % % $ % % $ % % % % & ",
"- ; ; > , > ; ; > , , ; ' ; > ; , , - ; ; ; , , - ; ; > , > ",
") ) ) ) ! ~ { ) ) ] ) ) ) ) ) ] ^ / ) ) ) ] ^ / ) ) ) ) ! ~ ",
"( _ ( ( ( : < : _ : : < ( : : [ < } _ | 1 2 3 3 4 3 3 4 5 3 ",
"6 7 6 8 9 0 0 9 8 0 9 9 8 a 6 9 9 8 8 9 b c 2 d e f g e g g ",
"h i j k j k k h k k j i h i k k k j k k j h k k } 2 l l m m ",
"n n o n p q r r s r s t u t t r q o r o o n o p n v 2 w w x ",
"y z z A A z B C C D D D D D E C B B y F z G z z G G H I J I ",
"K L M M N O P z C Q o o o p R C G S N T U K U M U K U V W X ",
"Y Z Z `  ...N +.@.@.@.@.@.@.#.p C $.K %.&.Y *.=.-.=.=.V ;.>.",
",.'.).!.~.{.@.@.].].].].].].@.@.^.C /.(._.:.,.'.'.<.[.c V }.",
"|.1.2.3.4.@.].].].].].].].].].].@.R z 4.5.6.7.|.8.9.2.|.0.a.",
"b.b.c.d.@.].e.e.e.@.@.@.@.e.e.e.].@.f.g.3.c.b.h.h.i.h.h.j.k.",
"l.l.m.n.@.e.e.o.@.+.p.p.q.@.o.e.e.@.r.s.<.b.t.u.v.w.w.w.x.y.",
"v.z.h.@.e.e.e.@.f.A.B.C.C.T @.D.e.e.@.g.3.E.v.F.G.H.G.G.I.J.",
"K.G.t.@.e.D.@.B.L.M.3.N.O.P.g.@.D.e.@.g.3.i.F.Q.R.R.S.T.U.V.",
"W.T.X.@.D.D.@.Y.Z.N.`. +.+O.++@.D.D.@.@+#+$+%+&+T.*+=+-+;+>+",
",+'+G.@.D.D.@.++O.)+!+!+@.@.@.@.~+D.@.@.@.@.$+X.{+]+^+/+(+_+",
":+<+T.@.D.D.@.[+}+F.|+R.@.D.~+~+~+~+D.D.D.@.1+%+2+<+3+4+5+6+",
"7+7+'+@.D.~+~+@.}+8+9+0+%+@.D.~+~+~+D.D.@.a+}+b+c+d+e+f+g+h+",
"i+i+<+j+@.~+~+o.@.k+b+l+K.m+@.D.~+~+D.@.1+n+o+p+q+r+s+t+u+v+",
"w+w+x+,+@.~+~+~+y+@.z+A+B+l+z+@.D.D.@.i.C+D+E+F+G+H+I+J+K+L+",
"M+N+H+q+O+@.~+y+y+@.P+2+Q+F+R+j+@.@.m+%+K.S+d+T+M+U+V+W+X+Y+",
"Z+`+ @t+F+.@@.@.+@@.K.S+f+t+@@#@Q.b+P+$@%@f+&@*@`+=@=@-@;@>@",
",@,@'@)@!@~@R+l+@.@.{@]@^@/@(@_@:@<@<@c+f+[@}@,@|@1@2@3@4@5@",
"6@6@7@8@9@0@d+a@2+0+b@~@(@c@d@e@].f@b@g@H+*@h@7@i@j@k@l@m@n@",
"-@o@p@*@q@r@s@t@u@2+S+v@w@d@t+x@].y@,+z@A@B@)@`+'@C@D@E@F@G@",
"T+r@H@].I@J@K@L@M@N@O@]@x+P@M@Q@].R@S+S@T@U@V@w+d@=@D@W@X@Y@",
"x+Z@`@]. #J .#+#@###$#%#&#].*#=#].-#;#].>#,#].'#)#)@!#~#{#Y@",
"~@]#^#]./#~@(#].].].]._#:#].g@x@].<#:#].g@[#].^#}#B@!#|#1#2#",
"_@3#`@].4#5#.#6#7#8#9#5#0#].a# #].b#b#].`@c#].d#e#f#g#h#i#j#",
"k#e#l#].m#}#n#P@D.o#p#q#}#P@D.r#].s#q#t#o#U@u#}#T+'@v#w#x#y#",
"z#A#B#C#D#E#E#E#D#E#E#D#E#D#E#E#E#D#E#D#D#F#E#G#H#I#J#K#L#M#",
"N#O#P#Q#R#R#R#R#R#R#R#R#R#R#R#R#R#R#B#S#S#R#R#Q#T#U#V#W#X#X#",
"Y#Z#Y#`# $ $ $ $ $ $ $ $ $ $ $ $ $ $ $ $ $ $ $.$Z#+$@$#$$$$$",
"%$&$%$&$&$%$*$*$&$=$*$*$-$*$&$*$*$-$&$*$&$&$&$=$;$>$,$'$'$)$",
"!$!$!$!$!$!$!$!$!$!$!$!$!$!$!$!$!$!$!$!$!$!$!$!$!$~$~$~$~$~$"};
