/* XPM */
static char * top__icon_settings_xpm[] = {
"28 38 497 2",
"  	c None",
". 	c #2F303A",
"+ 	c #2E3039",
"@ 	c #2F313A",
"# 	c #2F3039",
"$ 	c #2E303A",
"% 	c #32333F",
"& 	c #33343F",
"* 	c #32343E",
"= 	c #32343F",
"- 	c #33333F",
"; 	c #363844",
"> 	c #363744",
", 	c #353844",
"' 	c #353743",
") 	c #353744",
"! 	c #363843",
"~ 	c #393B49",
"{ 	c #383B49",
"] 	c #393C49",
"^ 	c #393C4A",
"/ 	c #383B4A",
"( 	c #393B4A",
"_ 	c #383C49",
": 	c #3C3F4E",
"< 	c #3C3F4F",
"[ 	c #3D3F4E",
"} 	c #717B90",
"| 	c #A0A9B0",
"1 	c #A0A9B1",
"2 	c #9FA9B1",
"3 	c #9DA5AE",
"4 	c #9CA6AE",
"5 	c #9EA6AF",
"6 	c #9DA7B0",
"7 	c #9DA6AF",
"8 	c #9EA7AF",
"9 	c #9DA7AF",
"0 	c #3F4152",
"a 	c #3F4151",
"b 	c #3E4151",
"c 	c #3E4252",
"d 	c #3F4252",
"e 	c #3B3E54",
"f 	c #1F1D27",
"g 	c #1E1C26",
"h 	c #1F1D26",
"i 	c #1E1D26",
"j 	c #1F1C26",
"k 	c #1E1D27",
"l 	c #404354",
"m 	c #9BA4AD",
"n 	c #201F29",
"o 	c #211F2A",
"p 	c #201F2A",
"q 	c #1F1E28",
"r 	c #211F29",
"s 	c #1F1E29",
"t 	c #201E28",
"u 	c #414556",
"v 	c #4E5966",
"w 	c #22212D",
"x 	c #22222D",
"y 	c #23222D",
"z 	c #21212C",
"A 	c #22202B",
"B 	c #21202C",
"C 	c #21212A",
"D 	c #22202C",
"E 	c #21202B",
"F 	c #22212C",
"G 	c #22202A",
"H 	c #22212B",
"I 	c #424658",
"J 	c #959FA9",
"K 	c #252430",
"L 	c #242430",
"M 	c #24232F",
"N 	c #211F2B",
"O 	c #20202B",
"P 	c #44485A",
"Q 	c #44475A",
"R 	c #939CA8",
"S 	c #262633",
"T 	c #272633",
"U 	c #252632",
"V 	c #252532",
"W 	c #262532",
"X 	c #262531",
"Y 	c #242330",
"Z 	c #154D7C",
"` 	c #1E1E29",
" .	c #1F1F29",
"..	c #1F1F2A",
"+.	c #45495D",
"@.	c #45495C",
"#.	c #292936",
"$.	c #282835",
"%.	c #282836",
"&.	c #282834",
"*.	c #272634",
"=.	c #262735",
"-.	c #232430",
";.	c #BBF0FA",
">.	c #1E1D28",
",.	c #CDF4FC",
"'.	c #1D1D27",
").	c #D8F7FC",
"!.	c #1E1F29",
"~.	c #474A5E",
"{.	c #2A2B39",
"].	c #292B39",
"^.	c #292937",
"/.	c #262634",
"(.	c #262632",
"_.	c #232531",
":.	c #B8EFF9",
"<.	c #BBEFF9",
"[.	c #1E1F28",
"}.	c #C9F4FA",
"|.	c #CDF4FB",
"1.	c #1D1E28",
"2.	c #1E1E27",
"3.	c #D5F6FC",
"4.	c #20202A",
"5.	c #484B60",
"6.	c #8B94A2",
"7.	c #2C2E3D",
"8.	c #2C2D3C",
"9.	c #2C2D3B",
"0.	c #282A37",
"a.	c #232330",
"b.	c #B4EFF9",
"c.	c #B7EFF9",
"d.	c #BAF0F9",
"e.	c #1E202A",
"f.	c #C8F3FA",
"g.	c #CAF4FB",
"h.	c #1E1F2A",
"i.	c #D2F6FC",
"j.	c #D2F5FC",
"k.	c #20212B",
"l.	c #494D63",
"m.	c #8891A1",
"n.	c #2F3040",
"o.	c #2E2F3F",
"p.	c #2D2E3D",
"q.	c #A7EBF7",
"r.	c #A7EAF7",
"s.	c #B3EEF8",
"t.	c #B6EFF8",
"u.	c #B9EFF9",
"v.	c #20212C",
"w.	c #C6F3FA",
"x.	c #C8F4FA",
"y.	c #CBF4FB",
"z.	c #CFF4FC",
"A.	c #CFF5FC",
"B.	c #CFF5FB",
"C.	c #4A4F65",
"D.	c #868F9F",
"E.	c #313343",
"F.	c #303242",
"G.	c #2A2C3A",
"H.	c #B2EDF9",
"I.	c #B4EEF9",
"J.	c #B2EEF8",
"K.	c #21222E",
"L.	c #C7F2FA",
"M.	c #C8F3FB",
"N.	c #C9F4FB",
"O.	c #CBF3FB",
"P.	c #CCF4FC",
"Q.	c #21232E",
"R.	c #21232F",
"S.	c #4C5167",
"T.	c #848D9D",
"U.	c #323346",
"V.	c #313344",
"W.	c #B1EDF8",
"X.	c #232431",
"Y.	c #C6F2FB",
"Z.	c #C9F3FB",
"`.	c #242531",
" +	c #252633",
".+	c #4D5269",
"++	c #808A9B",
"@+	c #343649",
"#+	c #333547",
"$+	c #303143",
"%+	c #AFECF7",
"&+	c #B5EEF9",
"*+	c #242633",
"=+	c #242732",
"-+	c #C4F2FA",
";+	c #C5F2FA",
">+	c #252734",
",+	c #272837",
"'+	c #4F536A",
")+	c #7E889A",
"!+	c #36384C",
"~+	c #35384A",
"{+	c #313345",
"]+	c #ADEDF8",
"^+	c #B0EDF8",
"/+	c #B3EEF9",
"(+	c #262835",
"_+	c #272A37",
":+	c #C1F1FA",
"<+	c #C2F2FA",
"[+	c #262836",
"}+	c #282A38",
"|+	c #2C2D3D",
"1+	c #2F3042",
"2+	c #4F556D",
"3+	c #7B8598",
"4+	c #383B4F",
"5+	c #373A4D",
"6+	c #ABECF7",
"7+	c #AEECF8",
"8+	c #B1EEF8",
"9+	c #2A2C3B",
"0+	c #2B2D3C",
"a+	c #BFF0FA",
"b+	c #BFF1FA",
"c+	c #282A39",
"d+	c #2B2E3E",
"e+	c #303344",
"f+	c #343749",
"g+	c #51566F",
"h+	c #798296",
"i+	c #3A3D53",
"j+	c #393D50",
"k+	c #34374A",
"l+	c #AAECF7",
"m+	c #ACECF8",
"n+	c #AFEDF7",
"o+	c #2C2F3E",
"p+	c #2E3141",
"q+	c #BBF0F9",
"r+	c #BCF0FA",
"s+	c #2A2C3C",
"t+	c #2E3041",
"u+	c #383B50",
"v+	c #525871",
"w+	c #768095",
"x+	c #3C4055",
"y+	c #3B3E53",
"z+	c #A8ECF7",
"A+	c #ACECF7",
"B+	c #2C2E3E",
"C+	c #B9F0F8",
"D+	c #B9F0F9",
"E+	c #363A4C",
"F+	c #3B3D54",
"G+	c #545973",
"H+	c #737E93",
"I+	c #3E4259",
"J+	c #3D4157",
"K+	c #3A3D52",
"L+	c #A9ECF8",
"M+	c #2D3041",
"N+	c #303445",
"O+	c #323548",
"P+	c #B6EEF8",
"Q+	c #B6EEF9",
"R+	c #2D3140",
"S+	c #323547",
"T+	c #3D4057",
"U+	c #555B75",
"V+	c #42465D",
"W+	c #40455B",
"X+	c #393B50",
"Y+	c #2D3040",
"Z+	c #2E3142",
"`+	c #313445",
" @	c #35394C",
".@	c #2E3143",
"+@	c #3A3E53",
"@@	c #3E435A",
"#@	c #575C77",
"$@	c #6E788F",
"%@	c #434861",
"&@	c #424760",
"*@	c #40465C",
"=@	c #3C4057",
"-@	c #363A4D",
";@	c #313446",
">@	c #2F3344",
",@	c #2F3244",
"'@	c #313546",
")@	c #393D51",
"!@	c #AFEDF8",
"~@	c #303345",
"{@	c #353A4C",
"]@	c #40465D",
"^@	c #575E79",
"/@	c #6C758D",
"(@	c #454A63",
"_@	c #444861",
":@	c #41455C",
"<@	c #3C4056",
"[@	c #393C51",
"}@	c #363A4F",
"|@	c #363A4E",
"1@	c #323748",
"2@	c #313547",
"3@	c #35384C",
"4@	c #3A3F55",
"5@	c #3E4359",
"6@	c #3D4156",
"7@	c #ACEDF8",
"8@	c #363B4E",
"9@	c #3D4258",
"0@	c #434860",
"a@	c #585E7B",
"b@	c #6A738B",
"c@	c #484D67",
"d@	c #474D67",
"e@	c #474C66",
"f@	c #444A62",
"g@	c #434760",
"h@	c #3F455C",
"i@	c #3E445B",
"j@	c #3D4158",
"k@	c #393D52",
"l@	c #35394D",
"m@	c #383C50",
"n@	c #3F435A",
"o@	c #323648",
"p@	c #34384B",
"q@	c #41455D",
"r@	c #464A64",
"s@	c #585F7C",
"t@	c #677089",
"u@	c #4A4F6A",
"v@	c #4A506A",
"w@	c #484F69",
"x@	c #474C67",
"y@	c #464C66",
"z@	c #464B65",
"A@	c #434962",
"B@	c #40455C",
"C@	c #373B4F",
"D@	c #353A4D",
"E@	c #373A4E",
"F@	c #3B4055",
"G@	c #41465F",
"H@	c #454A64",
"I@	c #3D4159",
"J@	c #383D51",
"K@	c #36394D",
"L@	c #3E4258",
"M@	c #59607D",
"N@	c #646E88",
"O@	c #4B526D",
"P@	c #4C516E",
"Q@	c #4C526D",
"R@	c #4C526E",
"S@	c #4B506C",
"T@	c #4B516C",
"U@	c #4A506C",
"V@	c #474E68",
"W@	c #454B64",
"X@	c #40455E",
"Y@	c #3B3F55",
"Z@	c #3A4055",
"`@	c #3E445A",
" #	c #444862",
".#	c #464B64",
"+#	c #41475E",
"@#	c #3D4259",
"##	c #3C4158",
"$#	c #3F435B",
"%#	c #434961",
"&#	c #484E68",
"*#	c #49506B",
"=#	c #5A617F",
"-#	c #616B86",
";#	c #4E5471",
">#	c #4E5470",
",#	c #4E5571",
"'#	c #4D5470",
")#	c #4C5370",
"!#	c #42475F",
"~#	c #3F445B",
"{#	c #434A63",
"]#	c #41475F",
"^#	c #40455D",
"/#	c #41465E",
"(#	c #49506A",
"_#	c #4C536F",
":#	c #596080",
"<#	c #5F6984",
"[#	c #505774",
"}#	c #505773",
"|#	c #4F5774",
"1#	c #505673",
"2#	c #4E5572",
"3#	c #4A506B",
"4#	c #424860",
"5#	c #484E69",
"6#	c #4E5673",
"7#	c #586081",
"8#	c #5D6683",
"9#	c #525977",
"0#	c #515977",
"a#	c #505876",
"b#	c #505674",
"c#	c #4A516C",
"d#	c #ACEDF7",
"e#	c #ABEDF7",
"f#	c #3B4056",
"g#	c #49506C",
"h#	c #4F5673",
"i#	c #515876",
"j#	c #575F7F",
"k#	c #545C7A",
"l#	c #545B7A",
"m#	c #535B7A",
"n#	c #525A77",
"o#	c #A8EAF5",
"p#	c #A7E9F4",
"q#	c #A8E9F5",
"r#	c #A9EBF6",
"s#	c #3C4157",
"t#	c #4D5570",
"u#	c #535A7A",
"v#	c #535A79",
"w#	c #545D7D",
"x#	c #555E7D",
"y#	c #565E7D",
"z#	c #545C7C",
"A#	c #4C526F",
"B#	c #454C65",
"C#	c #A5E7F3",
"D#	c #A3E6F2",
"E#	c #A3E6F3",
"F#	c #3D4359",
"G#	c #525978",
"H#	c #545C7B",
"I#	c #565E7E",
"J#	c #4E5776",
"K#	c #4E5876",
"L#	c #4E5877",
"M#	c #4D5776",
"N#	c #4C5573",
"O#	c #49536F",
"P#	c #444C68",
"Q#	c #3F4760",
"R#	c #3A4158",
"S#	c #9FE3F0",
"T#	c #363C53",
"U#	c #373E54",
"V#	c #3F4660",
"W#	c #444D69",
"X#	c #495370",
"Y#	c #4C5674",
"Z#	c #4D5675",
"`#	c #47516F",
" $	c #475170",
".$	c #46506E",
"+$	c #454F6C",
"@$	c #434C68",
"#$	c #3E4761",
"$$	c #39415A",
"%$	c #353C53",
"&$	c #32394E",
"*$	c #32394F",
"=$	c #3E4A66",
"-$	c #3D4965",
";$	c #3C4864",
">$	c #3A4560",
",$	c #36415A",
"'$	c #323C52",
")$	c #2F384D",
"!$	c #2D364B",
"~$	c #35425C",
"{$	c #35425D",
"]$	c #35415C",
"^$	c #35415D",
"/$	c #34405B",
"($	c #33405A",
"_$	c #323D56",
":$	c #2F3951",
"<$	c #2C364E",
"[$	c #2B364B",
"}$	c #2C364D",
"|$	c #2F3A51",
"1$	c #333F5A",
"2$	c #34415B",
"3$	c #2C3A53",
"4$	c #2B3952",
"5$	c #2B3851",
"6$	c #2A374F",
"7$	c #28354C",
"8$	c #28344B",
". . . + @ . . . . + # . . . # # . + . . $ . . . . . . + ",
"% & % * & = * = - = & = * & = = & = = = = - = * % & - = ",
"; > > , > ' ; ) > , ) , ; , > > ! , , ; > ; , , ; > > , ",
"~ { ] { ] ~ ~ ~ ~ ~ ~ ~ ~ { ] ^ ~ ~ ~ ~ / ( _ ~ ~ { ~ ~ ",
": < : < : : [ : } | 1 | 2 1 | 3 4 5 6 7 8 8 6 9 9 8 9 7 ",
"0 a b c d b 5 } e f g h i i g j h i i h g j g i i k i i ",
"l l l l } m n n o p o n o q q q q n r s q q t q s n s p ",
"u u u } v w x y w y x z A B C C D B E F C G E E E A B H ",
"I I I J K K L L K L M M x z E E z x x z E N E O E E z x ",
"P Q R S T S U V W V X Y w Z Z ` O F z Z Z q ` Z Z  ...w ",
"+.@.R #.$.%.&.*.=.T W -.Z ;.Z >. ...Z ,.Z '.'.Z ).Z !.z ",
"~.R e {.].^.%.S /.(._.Z :.<.Z [. .Z }.|.Z 1.2.Z 3.3.Z 4.",
"5.6.7.8.9.0.Z Z Z a.Z b.c.d.Z ..e.Z f.g.Z h.h.Z i.j.Z k.",
"l.m.n.o.p.{.Z q.r.Z Z s.t.u.Z Z v.Z w.x.y.Z Z z.A.B.Z v.",
"C.D.E.F.o.G.Z r.r.Z Z H.I.c.Z J.Z K.Z L.M.N.O.y.P.Z Q.R.",
"S.T.U.V.n.Z r.r.r.Z Z W.s.t.Z J.Z X.X.Z Y.L.M.Z.Z X.`. +",
".+++@+#+$+Z r.r.r.Z Z %+J.&+Z J.Z *+=+ +Z -+;+Z *+>+,+].",
"'+)+!+~+{+Z r.r.r.Z Z ]+^+/+Z J.Z (+,+_+Z :+<+Z [+}+|+1+",
"2+3+4+5+#+Z r.r.r.Z Z 6+7+8+Z J.Z }+9+0+Z a+b+Z c+d+e+f+",
"g+h+i+j+k+Z r.r.r.Z Z l+m+n+Z J.Z 9+o+p+Z q+r+Z s+t+f+u+",
"v+w+x+y+5+{+Z r.r.Z Z z+l+A+Z J.Z B+p+e+Z C+D+Z B+e+E+F+",
"G+H+I+J+K+~+Z r.r.Z Z r.q.L+Z Z d+M+N+O+Z P+Q+Z R+S+j+T+",
"U+} V+W+J+X+Z Z Z Y+Z r.r.q.Z Y+Z+`+k+ @Z J.J.Z .@k++@@@",
"#@$@%@&@*@=@-@S+;@{+>@Z r.r.Z ,@'@ @K+)@Z !@^+Z ~@{@=@]@",
"^@/@(@(@_@:@<@[@}@|@ @1@Z r.Z 2@3@4@5@6@Z 7@m+Z O+8@9@0@",
"a@b@c@d@e@f@g@:@h@i@j@k@l@Z Z k+m@n@g@W+k@Z Z o@p@+@q@r@",
"s@t@u@v@w@w@c@x@y@z@A@B@4@C@D@E@F@G@H@0@I@J@K@l@J@L@A@d@",
"M@N@O@P@Q@R@S@T@U@v@V@W@X@J+Y@Z@`@ #e@.#+#@#F@##$#%#&#*#",
"=#-#;#>#,#>#'#>#)#T@d@H@!#~#@@@@h@%@{#f@]#^#/#A@d@(#O@_#",
":#<#[#}#[#|#1#2#;#3#Z Z Z Z Z Z Z Z Z Z Z h@4#5#R@,#6#,#",
"7#8#9#9#9#0#9#a#b#c#A@Z d#d#m+e#6+d#d#Z f#@@%#g#h#i#i#b#",
"j#k#l#l#l#m#l#m#n#'#y@h@Z 6+o#p#q#r#Z 4@s#h@y@t#9#u#v#9#",
"w#x#y#y#y#y#y#y#z#9#A#B#]@Z C#D#E#Z s#F#]@B#_#G#H#I#I#H#",
"J#K#L#J#K#K#K#K#M#N#O#P#Q#R#Z S#Z T#U#R#V#W#X#Y#Z#K#L#Z#",
"`#`#`#`#`#`# $ $`#.$+$@$#$$$%$Z &$*$%$$$#$@$+$.$`#`#`#`#",
"=$=$=$=$=$=$=$=$=$=$-$;$>$,$'$)$!$)$'$,$>$;$-$=$=$=$=$=$",
"~${${$]$~$]$~$]$]$]$^$/$($_$:$<$[$}$|$_$1$2$]$]$~${$]$]$",
"3$3$3$3$3$3$3$3$3$3$3$3$4$5$6$7$8$7$6$5$4$3$3$3$3$3$3$3$"};
