/* XPM */
static char * top__bpm_bottom_xpm[] = {
"65 8 39 1",
" 	c None",
".	c #525977",
"+	c #515977",
"@	c #525976",
"#	c #515976",
"$	c #515775",
"%	c #505674",
"&	c #4E5571",
"*	c #4E5471",
"=	c #4E5572",
"-	c #4F5673",
";	c #505876",
">	c #545B7A",
",	c #545C7A",
"'	c #545B7B",
")	c #535B7A",
"!	c #545C7B",
"~	c #535B79",
"{	c #535978",
"]	c #535A79",
"^	c #565D7D",
"/	c #565E7D",
"(	c #565E7E",
"_	c #555D7E",
":	c #565D7E",
"<	c #4E5775",
"[	c #4E5876",
"}	c #4E5777",
"|	c #4E5877",
"1	c #4E5776",
"2	c #47516F",
"3	c #48516F",
"4	c #475170",
"5	c #3E4A66",
"6	c #35415C",
"7	c #35415D",
"8	c #35425C",
"9	c #35425D",
"0	c #2C3A53",
"..+@+.+...........+@+..#...+.....................@..#..$%&*=-$;.+",
">>,>,>')>!,,>>>>>,>,,>>'>>>>>>>,>>')>)>>!>>>>)''>>>>>>,,~{{{]~!>)",
"^/(/^/((^(((_:(/((((/:(/:/^//(/(/(//^(//^(/(:://(^^/^/^_///^/(///",
"<[}[}}[}|||1[|1[[[[|1[1|[[}[}}|1[[[[|1[1|[[}[}}[}|||1[|1[1|[[}[}}",
"22234422222222222442222222234422224422222222344222222222222222344",
"55555555555555555555555555555555555555555555555555555555555555555",
"66786866866899686866676866786896868666768667868668668966768667868",
"00000000000000000000000000000000000000000000000000000000000000000"};
