/* XPM */
static char * top__button_fastforward_xpm[] = {
"30 24 297 2",
"  	c None",
". 	c #211F2A",
"+ 	c #211F29",
"@ 	c #201F29",
"# 	c #201F2A",
"$ 	c #1F1E29",
"% 	c #1F1F28",
"& 	c #201E28",
"* 	c #1F1E28",
"= 	c #201E29",
"- 	c #22212D",
"; 	c #21202C",
"> 	c #21212B",
", 	c #211F2B",
"' 	c #20202B",
") 	c #22212C",
"! 	c #21212C",
"~ 	c #22212B",
"{ 	c #21202B",
"] 	c #22202B",
"^ 	c #22222C",
"/ 	c #23222D",
"( 	c #23212D",
"_ 	c #23212C",
": 	c #252430",
"< 	c #23222F",
"[ 	c #24232F",
"} 	c #23222E",
"| 	c #23232E",
"1 	c #23232F",
"2 	c #242430",
"3 	c #24242F",
"4 	c #252532",
"5 	c #272633",
"6 	c #252533",
"7 	c #252431",
"8 	c #154D7C",
"9 	c #22222E",
"0 	c #242431",
"a 	c #262532",
"b 	c #252632",
"c 	c #262633",
"d 	c #262634",
"e 	c #262733",
"f 	c #282835",
"g 	c #272735",
"h 	c #272734",
"i 	c #242531",
"j 	c #EAFBFE",
"k 	c #20202C",
"l 	c #21222E",
"m 	c #232330",
"n 	c #262632",
"o 	c #282834",
"p 	c #252531",
"q 	c #21212E",
"r 	c #282836",
"s 	c #292937",
"t 	c #282936",
"u 	c #2A2A39",
"v 	c #292A39",
"w 	c #282937",
"x 	c #E5FAFD",
"y 	c #21222D",
"z 	c #272935",
"A 	c #272836",
"B 	c #252634",
"C 	c #22222D",
"D 	c #272835",
"E 	c #282938",
"F 	c #292A38",
"G 	c #2B2C3A",
"H 	c #2B2B39",
"I 	c #2B2B3A",
"J 	c #2C2D3B",
"K 	c #2B2C3C",
"L 	c #2C2D3C",
"M 	c #2B2C39",
"N 	c #E6FAFE",
"O 	c #E3F9FD",
"P 	c #242632",
"Q 	c #232430",
"R 	c #2A2A38",
"S 	c #2B2C3B",
"T 	c #2C2C3C",
"U 	c #2C2E3D",
"V 	c #2E2F3F",
"W 	c #2E2F40",
"X 	c #2C2D3D",
"Y 	c #292B3A",
"Z 	c #E8FAFE",
"` 	c #242532",
" .	c #282A38",
"..	c #2D2E3D",
"+.	c #2E2E3F",
"@.	c #2D2F40",
"#.	c #2E3040",
"$.	c #303142",
"%.	c #303242",
"&.	c #303143",
"*.	c #E1F9FD",
"=.	c #DDF8FD",
"-.	c #262734",
";.	c #262735",
">.	c #2C2E3E",
",.	c #2F3140",
"'.	c #303243",
").	c #323446",
"!.	c #323345",
"~.	c #2D2F3F",
"{.	c #DBF8FD",
"].	c #D9F7FD",
"^.	c #282A37",
"/.	c #2A2C3B",
"(.	c #2D2F3E",
"_.	c #2F3141",
":.	c #313344",
"<.	c #333749",
"[.	c #343649",
"}.	c #343749",
"|.	c #313446",
"1.	c #2F3142",
"2.	c #D5F7FD",
"3.	c #D2F6FC",
"4.	c #D3F6FD",
"5.	c #292C39",
"6.	c #2F3241",
"7.	c #313545",
"8.	c #333647",
"9.	c #36384C",
"0.	c #36394C",
"a.	c #313445",
"b.	c #D0F6FC",
"c.	c #CAF4FC",
"d.	c #C7F3FB",
"e.	c #C1F2FB",
"f.	c #BAF0FA",
"g.	c #CEF5FC",
"h.	c #2F3242",
"i.	c #323547",
"j.	c #35374A",
"k.	c #383B4F",
"l.	c #343547",
"m.	c #B7EFF9",
"n.	c #AEEDF8",
"o.	c #2C2E3F",
"p.	c #333648",
"q.	c #36394D",
"r.	c #3A3E52",
"s.	c #3A3D53",
"t.	c #3A3E53",
"u.	c #393C50",
"v.	c #34384B",
"w.	c #B5EEF9",
"x.	c #86DEEE",
"y.	c #2A2D3C",
"z.	c #2A2C3C",
"A.	c #2E3041",
"B.	c #313546",
"C.	c #35384C",
"D.	c #383B50",
"E.	c #3C3F56",
"F.	c #3C4055",
"G.	c #3D3F55",
"H.	c #37394D",
"I.	c #A4E9F6",
"J.	c #2C2F3E",
"K.	c #2C2F40",
"L.	c #2C2F3F",
"M.	c #2E3142",
"N.	c #383C50",
"O.	c #3B3D54",
"P.	c #3E4259",
"Q.	c #3E4359",
"R.	c #3E4258",
"S.	c #3D4055",
"T.	c #B3EEF9",
"U.	c #A7EBF7",
"V.	c #8BDFEF",
"W.	c #2E3143",
"X.	c #2F3244",
"Y.	c #313547",
"Z.	c #3C3F55",
"`.	c #3D4158",
" +	c #40445C",
".+	c #40455C",
"++	c #40445B",
"@+	c #3B3D53",
"#+	c #99E5F3",
"$+	c #303344",
"%+	c #313346",
"&+	c #323648",
"*+	c #34364A",
"=+	c #33364A",
"-+	c #2F3344",
";+	c #393D52",
">+	c #3D4157",
",+	c #3F445A",
"'+	c #40455B",
")+	c #42475F",
"!+	c #424760",
"~+	c #42485E",
"{+	c #3D4056",
"]+	c #94E4F2",
"^+	c #393C51",
"/+	c #373C51",
"(+	c #323749",
"_+	c #373C50",
":+	c #3B3F55",
"<+	c #42475E",
"[+	c #454963",
"}+	c #444A61",
"|+	c #42465F",
"1+	c #3D4258",
"2+	c #323649",
"3+	c #363A4E",
"4+	c #3C4056",
"5+	c #3D4159",
"6+	c #373B4E",
"7+	c #41465D",
"8+	c #444961",
"9+	c #454A63",
"0+	c #464C65",
"a+	c #464C66",
"b+	c #464C64",
"c+	c #A1E8F5",
"d+	c #35384B",
"e+	c #363A4D",
"f+	c #3E445A",
"g+	c #42465E",
"h+	c #41475F",
"i+	c #3E445B",
"j+	c #353A4D",
"k+	c #3B4056",
"l+	c #3F445B",
"m+	c #43475F",
"n+	c #444A63",
"o+	c #484D67",
"p+	c #494F69",
"q+	c #494E69",
"r+	c #494E68",
"s+	c #474B65",
"t+	c #373B50",
"u+	c #393F53",
"v+	c #40465D",
"w+	c #444A62",
"x+	c #454B65",
"y+	c #444B64",
"z+	c #3A3F53",
"A+	c #454962",
"B+	c #494F68",
"C+	c #49506A",
"D+	c #4A506A",
"E+	c #4A4F6A",
"F+	c #4A516C",
"G+	c #4B516C",
"H+	c #4A516B",
"I+	c #40455D",
"J+	c #3C4158",
"K+	c #3F455B",
"L+	c #434861",
"M+	c #464B65",
"N+	c #484E68",
"O+	c #3B4055",
"P+	c #494F6A",
"Q+	c #4B516B",
"R+	c #4B506C",
"S+	c #4C526D",
"T+	c #4B526D",
"U+	c #4D536F",
"V+	c #4E5470",
"W+	c #454B64",
"X+	c #4B516D",
"Y+	c #4C526E",
"Z+	c #4A516D",
"`+	c #454B63",
" @	c #41475E",
".@	c #434860",
"+@	c #4D536E",
"@@	c #4E5471",
"#@	c #4D5570",
"$@	c #505774",
"%@	c #4F5573",
"&@	c #4E5572",
"*@	c #4A506C",
"=@	c #494E6A",
"-@	c #4A506B",
";@	c #4B526E",
">@	c #4D5470",
",@	c #4F5572",
"'@	c #484F6A",
")@	c #4D546F",
"!@	c #4F5571",
"~@	c #4F5672",
"{@	c #4F5774",
"]@	c #505773",
"^@	c #505673",
". + @ # $ % & * * * $ # @ + # * $ * $ * = * # # @ # @ # # @ ",
"- - - ; > > , ' > ) ! ~ - - > > { # ' ] ! ; ! ^ ) / ^ ( _ ( ",
": : < [ } ) ! ' ! / | [ [ 1 [ } ! ; { > ( | 1 1 2 2 : : : 3 ",
"4 5 6 7 1 8 8 ' ; 9 [ 0 a a 7 [ 8 8 { ; / [ 7 a b c d e e 5 ",
"f f g h i 8 j 8 k l m n h o e p 8 j 8 k q m b g r r s t t t ",
"u v v w e 8 x j 8 y 1 c z w A B 8 x j 8 C m c D E F F G H I ",
"J K L M f 8 N O j 8 m P A F F A 8 N O j 8 Q 4 A R S K T U U ",
"V W V X Y 8 Z O O Z 8 4 g s F w 8 Z O O Z 8 ` D  .S ..+.@.#.",
"$.%.&.W L 8 N *.=.*.x 8 -.w F w 8 N *.=.*.x 8 ;.E S >.,.'.$.",
").!.).&.~.8 N =.{.].{.O 8 A ^.w 8 N =.{.].{.O 8 w /.(._.:.).",
"<.[.}.|.1.8 O {.].2.3.4.*.8 w E 8 O {.].2.3.4.*.8 5.>.6.7.8.",
"9.0.0.}.a.8 *.2.b.c.d.e.f.g.8  .8 *.2.b.c.d.e.f.g.8 U h.i.j.",
"k.k.k.0.l.8 =.b.c.d.e.f.m.n.8 Y 8 =.b.c.d.e.f.m.n.8 o.'.p.q.",
"r.s.t.u.v.8 ].d.e.f.w.n.x.8 y.z.8 ].d.e.f.w.n.x.8 >.A.B.C.D.",
"E.F.G.t.H.8 2.e.f.w.I.x.8 J.K.K.8 2.e.f.w.I.x.8 L.M.a.v.N.O.",
"P.Q.R.S.N.8 4.f.T.U.V.8 M.W.X.X.8 4.f.T.U.V.8 M.X.Y.v.N.Z.`.",
" +.+++R.@+8 b.T.#+V.8 $+%+&+*+=+8 b.T.#+V.8 -+|.<.H.;+>+,+'+",
")+!+~+.+{+8 c.#+]+8 B.&+v.k.^+/+8 c.#+]+8 i.(+v._+:+Q..+<+!+",
"[+[+}+|+1+8 T.]+8 2+v.3+s.4+5+4+8 T.]+8 <.v.6+;+>+7+)+8+[+9+",
"0+a+b+8+.+8 c+8 d+e+_+E.f+g+h+i+8 c+8 d+j+/+k+l+m+n+0+a+o+o+",
"p+q+r+s+)+8 8 t+N.u+1+v+w+x+y+)+8 8 t+N.z+5+7+A+a+B+q+C+D+E+",
"F+G+H+q+9+I+`.:+J+K+L+M+p+C+N+9+I+>+O+>+'+L+M+P+Q+R+S+S+S+T+",
"U+V+U+G+r+9+!+)+L+W+r+X+Y+U+Z+r+`+h+ @.@M+r+T++@U+@@#@V+V+V+",
"$@$@%@&@+@*@=@p+-@;@>@,@%@%@&@Y+H+'@p+-@X+)@!@~@{@]@]@]@^@^@"};
