/* XPM */
static char * vst__button_gui_active_xpm[] = {
"79 17 344 2",
"  	c None",
". 	c #808EA3",
"+ 	c #808DA3",
"@ 	c #4D576C",
"# 	c #616C85",
"$ 	c #76839B",
"% 	c #77849C",
"& 	c #78859C",
"* 	c #79869D",
"= 	c #7B879E",
"- 	c #7C89A0",
"; 	c #7D8AA0",
"> 	c #7E8AA0",
", 	c #7E8AA1",
"' 	c #7F8BA1",
") 	c #78849C",
"! 	c #77839B",
"~ 	c #7F8DA2",
"{ 	c #4B546C",
"] 	c #5D6983",
"^ 	c #727F9A",
"/ 	c #727E99",
"( 	c #727F99",
"_ 	c #738099",
": 	c #75819B",
"< 	c #77839D",
"[ 	c #79869E",
"} 	c #7C87A0",
"| 	c #808BA3",
"1 	c #818CA3",
"2 	c #818CA4",
"3 	c #818DA4",
"4 	c #808AA3",
"5 	c #7D89A1",
"6 	c #7B869F",
"7 	c #78849D",
"8 	c #73809A",
"9 	c #717F99",
"0 	c #5A6580",
"a 	c #6E7B96",
"b 	c #8591A8",
"c 	c #8493A8",
"d 	c #8593A7",
"e 	c #8693A7",
"f 	c #8795A8",
"g 	c #8997AA",
"h 	c #8C9AAD",
"i 	c #8F9CAE",
"j 	c #929FB1",
"k 	c #95A1B2",
"l 	c #96A3B5",
"m 	c #98A4B5",
"n 	c #98A4B6",
"o 	c #99A5B5",
"p 	c #98A5B6",
"q 	c #99A4B5",
"r 	c #96A3B4",
"s 	c #94A0B2",
"t 	c #909DB0",
"u 	c #8D9AAC",
"v 	c #8897AB",
"w 	c #8591A7",
"x 	c #8593A8",
"y 	c #505B75",
"z 	c #63708B",
"A 	c #79889F",
"B 	c #7988A1",
"C 	c #7B89A0",
"D 	c #7D8CA4",
"E 	c #818FA4",
"F 	c #8A97AB",
"G 	c #8F9BAE",
"H 	c #939EAF",
"I 	c #A3A8B0",
"J 	c #ABAFB5",
"K 	c #A7ABB2",
"L 	c #99A3B0",
"M 	c #95A1B5",
"N 	c #96A1B2",
"O 	c #A3A9B1",
"P 	c #A0A6B0",
"Q 	c #96A1B3",
"R 	c #9DA4B0",
"S 	c #96A1B1",
"T 	c #94A0B1",
"U 	c #A1A6AF",
"V 	c #9AA0AB",
"W 	c #8492A7",
"X 	c #7F8EA3",
"Y 	c #7C8AA1",
"Z 	c #7A89A0",
"` 	c #7E8CA1",
" .	c #48536B",
"..	c #596880",
"+.	c #6C7C96",
"@.	c #6C7C97",
"#.	c #6C7E96",
"$.	c #6C7E97",
"%.	c #6D7D97",
"&.	c #6E8098",
"*.	c #72839B",
"=.	c #78889E",
"-.	c #7D8BA3",
";.	c #8392A6",
">.	c #9EA4AD",
",.	c #F2F2F2",
"'.	c #FEFEFE",
").	c #F7F7F7",
"!.	c #FCFCFC",
"~.	c #969DAB",
"{.	c #949FAE",
"].	c #DBDBDC",
"^.	c #8B96A9",
"/.	c #909DAF",
"(.	c #CACBCD",
"_.	c #949AA6",
":.	c #8F9AAA",
"<.	c #D9D9DA",
"[.	c #7B889E",
"}.	c #7A8AA0",
"|.	c #74839C",
"1.	c #708198",
"2.	c #6D7F97",
"3.	c #404C62",
"4.	c #4F5D77",
"5.	c #62728E",
"6.	c #61748D",
"7.	c #62758E",
"8.	c #667591",
"9.	c #6A7993",
"0.	c #717F98",
"a.	c #77879D",
"b.	c #8791A2",
"c.	c #F8F8F8",
"d.	c #F5F5F5",
"e.	c #8F949D",
"f.	c #798291",
"g.	c #7B8593",
"h.	c #9599A0",
"i.	c #828995",
"j.	c #8C95A6",
"k.	c #FFFFFF",
"l.	c #DCDCDC",
"m.	c #7D8897",
"n.	c #8C98AC",
"o.	c #8A9099",
"p.	c #8A93A4",
"q.	c #D8D8D9",
"r.	c #697787",
"s.	c #73819A",
"t.	c #6A7C94",
"u.	c #667691",
"v.	c #63738F",
"w.	c #62728D",
"x.	c #61728E",
"y.	c #3C485D",
"z.	c #4B5972",
"A.	c #5C6C89",
"B.	c #5D6E89",
"C.	c #5C6E89",
"D.	c #5E6F8A",
"E.	c #60718C",
"F.	c #65768F",
"G.	c #6D7D95",
"H.	c #76849B",
"I.	c #A3A8AF",
"J.	c #B4B6B9",
"K.	c #788291",
"L.	c #8591A1",
"M.	c #8C97A8",
"N.	c #8A96A7",
"O.	c #8490A1",
"P.	c #8B94A6",
"Q.	c #DBDBDB",
"R.	c #7C8696",
"S.	c #8996A9",
"T.	c #CACCCD",
"U.	c #898F98",
"V.	c #8791A1",
"W.	c #677385",
"X.	c #6E7E96",
"Y.	c #677790",
"Z.	c #61728C",
"`.	c #5D6F8A",
" +	c #7E8BA1",
".+	c #65748F",
"++	c #75849B",
"@+	c #A6A9AD",
"#+	c #7E899B",
"$+	c #B1B4B9",
"%+	c #B1B4BA",
"&+	c #8D98A8",
"*+	c #7B8696",
"=+	c #667385",
"-+	c #667790",
";+	c #7D8BA1",
">+	c #64758F",
",+	c #6B7C94",
"'+	c #74839A",
")+	c #9BA1A9",
"!+	c #C2C2C5",
"~+	c #7F8B9C",
"{+	c #8F99A9",
"]+	c #ADAFB5",
"^+	c #A9ABB0",
"/+	c #838D9D",
"(+	c #E0E0E1",
"_+	c #7B8595",
":+	c #8895A9",
"<+	c #CFD0D1",
"[+	c #848B95",
"}+	c #8691A1",
"|+	c #D9D9D9",
"1+	c #667285",
"2+	c #3C475D",
"3+	c #5D6F89",
"4+	c #5F6F8B",
"5+	c #64758E",
"6+	c #6A7893",
"7+	c #718198",
"8+	c #7B879D",
"9+	c #E6E6E6",
"0+	c #AFB1B5",
"a+	c #999FAB",
"b+	c #B3B5BA",
"c+	c #A7AAAE",
"d+	c #7D879B",
"e+	c #E1E1E2",
"f+	c #FDFDFD",
"g+	c #A0A3AA",
"h+	c #A4A8B0",
"i+	c #F1F1F1",
"j+	c #747D8C",
"k+	c #848EA0",
"l+	c #D7D7D8",
"m+	c #647083",
"n+	c #6C7A94",
"o+	c #60708C",
"p+	c #5D6D8A",
"q+	c #4B5872",
"r+	c #5F708B",
"s+	c #63738D",
"t+	c #677891",
"u+	c #74849B",
"v+	c #848E9E",
"w+	c #CCCDCE",
"x+	c #DEDEDF",
"y+	c #898E97",
"z+	c #788497",
"A+	c #939CA8",
"B+	c #E5E5E5",
"C+	c #EDEDED",
"D+	c #8D9199",
"E+	c #707A8A",
"F+	c #828EA1",
"G+	c #D6D6D7",
"H+	c #606D80",
"I+	c #6A7A93",
"J+	c #5F718B",
"K+	c #354054",
"L+	c #435068",
"M+	c #53637E",
"N+	c #54637E",
"O+	c #55647F",
"P+	c #586781",
"Q+	c #5B6A84",
"R+	c #616F88",
"S+	c #67758D",
"T+	c #6C7A91",
"U+	c #6E7A90",
"V+	c #6A7484",
"W+	c #707784",
"X+	c #67717F",
"Y+	c #626C7D",
"Z+	c #646E80",
"`+	c #6E7A8F",
" @	c #738096",
".@	c #707C91",
"+@	c #707885",
"@@	c #6E7682",
"#@	c #636D7D",
"$@	c #636D7E",
"%@	c #6C788D",
"&@	c #6F7C93",
"*@	c #6B798F",
"=@	c #566173",
"-@	c #556074",
";@	c #5E6D86",
">@	c #596983",
",@	c #566680",
"'@	c #54647F",
")@	c #7C8A9F",
"!@	c #303A4C",
"~@	c #4C5A73",
"{@	c #4D5B74",
"]@	c #515E76",
"^@	c #546179",
"/@	c #59667D",
"(@	c #5E6A80",
"_@	c #616D83",
":@	c #636F84",
"<@	c #616D82",
"[@	c #626D83",
"}@	c #626E84",
"|@	c #636F85",
"1@	c #657186",
"2@	c #667287",
"3@	c #646F84",
"4@	c #626E82",
"5@	c #5F6C82",
"6@	c #5D6A80",
"7@	c #5A677E",
"8@	c #57647B",
"9@	c #536078",
"0@	c #4F5D75",
"a@	c #4D5A73",
"b@	c #7C899F",
"c@	c #4E5C74",
"d@	c #56637B",
"e@	c #5C687F",
"f@	c #5B687E",
"g@	c #5A667D",
"h@	c #5D6980",
"i@	c #58657C",
"j@	c #525F77",
"k@	c #7C899E",
"l@	c #7D8A9E",
"m@	c #7E8A9F",
"n@	c #7F8BA0",
"o@	c #808DA1",
"p@	c #818EA2",
"q@	c #838FA3",
"r@	c #8490A4",
"s@	c #8390A3",
"t@	c #828FA2",
"u@	c #818DA1",
"v@	c #7F8CA0",
"w@	c #7D8A9F",
"x@	c #7D899E",
"y@	c #7C889D",
"z@	c #7E8BA0",
"A@	c #828EA2",
"B@	c #808CA1",
"C@	c #7E8B9F",
". . . . . . . . . . . . . . . . . . . . . . . . . . . . . . . . . . . . . . . . . . . . . . . . . . . . . . . . . . . . . . . . . . . . . . . . . . . . . . . ",
"+ + + + + + + + + @ # $ $ $ $ $ $ $ $ $ $ $ $ $ $ $ $ $ % & * = - ; > , , , ' , , , , ' ' ' , > - = * ) ! $ $ $ $ $ $ $ $ $ $ $ $ $ $ $ $ $ $ # @ + + + + + + ",
"~ ~ ~ ~ ~ ~ ~ ~ ~ { ] ^ / ( ( / / ( / ( / ( ( / ( / ( _ : < [ } , | 1 2 3 3 3 2 3 2 3 3 2 3 1 4 5 6 7 : 8 ( / ( ( / ( / ( ( / ( / / / ( ( 9 ( ] { ~ ~ ~ ~ ~ ~ ",
"~ ~ ~ ~ ~ ~ ~ ~ ~ 0 a b c d d c c d c d c d d c d c e f g h i j k l m n o o o p o p o o p q m r s t u v f d c d d c d c d d c d c c c d d w x a 0 ~ ~ ~ ~ ~ ~ ",
"~ ~ ~ ~ ~ ~ ~ ~ ~ y z A A A B A A A A A A A A A A A C D E x F G H I J K L M N O P Q Q R O S T U V F W X Y Z A A A A A A A B A A A A A A B A A z y ~ ~ ~ ~ ~ ~ ",
"` ` ` ` ` ` ` ` `  ...+.@.#.$.@.@.#.@.#.@.#.#.@.#.%.&.*.=.-.;.>.,.'.).!.'.~.{.'.].^./.(.'._.:.'.<.[.}.|.1.2.@.#.#.@.#.@.#.$.@.#.@.@.@.#.$.$.+... .` ` ` ` ` ` ",
"` ` ` ` ` ` ` ` ` 3.4.5.6.5.5.6.6.5.6.5.6.5.5.6.5.7.8.9.0.a.b.c.d.e.f.g.h.i.j.k.l.m.n.(.k.o.p.k.q.r.s.t.u.v.6.5.5.6.5.6.5.5.6.5.6.6.6.5.5.w.x.4.3.` ` ` ` ` ` ",
"` ` ` ` ` ` ` ` ` y.z.A.B.C.C.B.B.C.B.C.B.C.C.B.C.D.E.F.G.H.I.k.J.K.L.M.N.O.P.'.Q.R.S.T.'.U.V.'.q.W.X.Y.Z.`.B.C.C.B.C.B.C.C.B.C.B.B.B.C.C.C.C.z.y.` ` ` ` ` ` ",
" + + + + + + + + +y.z.C.C.C.A.C.C.C.C.C.C.C.C.C.C.`.E..+G.++J '.@+#+$+'.'.%+&+'.Q.*+S.T.'.U.V.'.q.=+X.-+Z.`.C.C.C.C.C.C.C.A.C.C.C.C.C.C.A.C.C.z.y. + + + + + +",
";+;+;+;+;+;+;+;+;+y.z.C.C.C.C.C.C.C.C.C.C.C.C.C.C.`.E.>+,+'+)+k.!+~+{+]+'.^+/+k.(+_+:+<+'.[+}+k.|+1+G.-+Z.`.C.C.C.C.C.C.C.C.C.C.C.C.C.C.C.C.C.z.y.;+;+;+;+;+;+",
";+;+;+;+;+;+;+;+;+2+z.C.C.A.C.C.C.A.C.A.C.A.A.C.A.3+4+5+6+7+8+9+'.0+a+b+'.c+d+e+f+g+h+d.i+j+k+k.l+m+n+F.o+p+C.A.A.C.A.C.A.C.C.A.C.C.C.A.C.C.C.z.2+;+;+;+;+;+;+",
"; ; ; ; ; ; ; ; ; y.q+C.C.C.B.C.C.C.C.C.C.C.C.C.C.3+r+s+t+G.u+v+w+!.k.k.x+y+z+A+B+'.'.C+D+E+F+k.G+H+I+>+J+`.C.C.C.C.C.C.C.B.C.C.C.C.C.C.B.C.C.q+y.; ; ; ; ; ; ",
"; ; ; ; ; ; ; ; ; K+L+M+M+M+N+M+M+M+M+M+M+M+M+M+M+M+O+P+Q+R+S+T+U+V+W+X+Y+Z+`+ @.@+@@@#@$@%@&@*@=@-@;@>@,@'@M+M+M+M+M+M+M+N+M+M+M+M+M+M+N+M+M+L+K+; ; ; ; ; ; ",
")@)@)@)@)@)@)@)@)@!@y.z.z.z.z.z.z.z.z.z.z.z.z.z.z.z.~@{@]@^@/@(@_@:@:@<@[@}@}@|@1@2@3@4@:@_@5@6@7@8@9@0@a@z.z.z.z.z.z.z.z.z.z.z.z.z.z.z.z.z.z.y.!@)@)@)@)@)@)@",
"b@b@b@b@b@b@b@b@b@!@y.z.z.z.z.z.z.z.z.z.z.z.z.z.z.z.z.a@c@]@^@d@/@7@e@f@7@g@g@7@e@h@h@e@7@/@i@d@^@j@0@c@~@z.z.z.z.z.z.z.z.z.z.z.z.z.z.z.z.z.z.y.!@b@b@b@b@b@b@",
"k@k@k@k@k@k@k@k@k@k@k@k@k@k@k@k@k@k@k@k@k@k@k@k@k@k@k@l@m@n@o@p@q@q@r@r@q@q@q@q@r@r@r@s@q@t@p@u@o@v@n@m@w@x@k@k@k@k@k@k@k@k@k@k@k@k@k@k@k@k@k@k@k@k@k@k@k@k@k@",
"k@k@k@k@k@k@k@k@k@k@k@k@k@k@k@k@k@k@k@k@k@k@k@k@y@k@l@w@z@v@u@p@t@q@q@t@t@t@t@t@q@q@q@t@t@A@p@o@o@B@B@v@n@C@w@x@k@k@k@k@k@k@k@k@k@k@k@k@k@k@k@k@k@k@k@k@k@k@k@"};
