/* XPM */
static char * control_frame__top_right_xpm[] = {
"10 9 32 1",
" 	c None",
".	c #CBCBCF",
"+	c #B1B3BB",
"@	c #787B8B",
"#	c #595D72",
"$	c #B9BAC1",
"%	c #BABBC1",
"&	c #D9DADC",
"*	c #E5E5E5",
"=	c #9A9CA7",
"-	c #3F4251",
";	c #424554",
">	c #ACADB2",
",	c #E4E4E4",
"'	c #626677",
")	c #434656",
"!	c #595C6A",
"~	c #7E8088",
"{	c #4A4E5F",
"]	c #DFE0E0",
"^	c #9C9DA4",
"/	c #3A3C4A",
"(	c #56596E",
"_	c #DCDCDE",
":	c #A6A8B0",
"<	c #393C49",
"[	c #4C5061",
"}	c #A8A9B2",
"|	c #3B3D4B",
"1	c #484B5C",
"2	c #3B3E4C",
"3	c #474A5B",
"....+@####",
"$$$%&*=###",
"----;>,'##",
")))))!*~{#",
"######]^/(",
"######_:<[",
"######_}|1",
"######_}23",
"######_}23"};
