/* XPM */
static char * controls__stereo_panner_xpm[] = {
"124 17 357 2",
"  	c None",
". 	c #FCFBFB",
"+ 	c #FBFBFB",
"@ 	c #FBFAFB",
"# 	c #FAFAFA",
"$ 	c #F9FAFA",
"% 	c #FAFAF9",
"& 	c #F9F9F9",
"* 	c #F8F8F9",
"= 	c #F8F8F8",
"- 	c #F7F8F7",
"; 	c #F7F7F7",
"> 	c #F7F6F7",
", 	c #F6F7F7",
"' 	c #F6F6F6",
") 	c #F6F5F6",
"! 	c #F5F5F5",
"~ 	c #F4F5F5",
"{ 	c #F4F4F4",
"] 	c #F3F3F3",
"^ 	c #F2F3F3",
"/ 	c #F2F2F3",
"( 	c #F2F2F2",
"_ 	c #F1F1F2",
": 	c #F1F2F1",
"< 	c #F1F1F1",
"[ 	c #F1F1F0",
"} 	c #F0F0F1",
"| 	c #F0F0F0",
"1 	c #F0F0EF",
"2 	c #EFF0F0",
"3 	c #F0EFEF",
"4 	c #EFEFEE",
"5 	c #EFEFEF",
"6 	c #EEEEEE",
"7 	c #EDEEEE",
"8 	c #EEEDEE",
"9 	c #EDEDED",
"0 	c #EDEDEC",
"a 	c #EDECED",
"b 	c #ECECEC",
"c 	c #ECEBEB",
"d 	c #EBEBEB",
"e 	c #EAEAEB",
"f 	c #EBEAEA",
"g 	c #EAEAEA",
"h 	c #EAEAE9",
"i 	c #EAE9E9",
"j 	c #E9E9E9",
"k 	c #E9E9E8",
"l 	c #E8E9E8",
"m 	c #E7E8E8",
"n 	c #E7E7E8",
"o 	c #E7E7E7",
"p 	c #E7E6E7",
"q 	c #E6E7E7",
"r 	c #E6E6E7",
"s 	c #E5E6E6",
"t 	c #E5E6E5",
"u 	c #E5E5E6",
"v 	c #E5E5E4",
"w 	c #E5E4E4",
"x 	c #E4E4E4",
"y 	c #E3E4E4",
"z 	c #E3E3E3",
"A 	c #E3E3E2",
"B 	c #E2E2E2",
"C 	c #E1E2E1",
"D 	c #E2E1E1",
"E 	c #E1E1E1",
"F 	c #E0E1E1",
"G 	c #E0E0E0",
"H 	c #E0DFE0",
"I 	c #DFE0DF",
"J 	c #DFDFDF",
"K 	c #DEDFDF",
"L 	c #DFDFDE",
"M 	c #DEDEDE",
"N 	c #DDDEDD",
"O 	c #DDDEDE",
"P 	c #DDDDDC",
"Q 	c #DDDDDD",
"R 	c #DCDCDC",
"S 	c #DBDCDB",
"T 	c #DBDBDB",
"U 	c #DADADB",
"V 	c #DADBDA",
"W 	c #DADADA",
"X 	c #D9D9DA",
"Y 	c #D9DADA",
"Z 	c #D9D9D9",
"` 	c #D9D8D8",
" .	c #D9D9D8",
"..	c #D8D8D8",
"+.	c #D8D8D7",
"@.	c #D7D8D7",
"#.	c #D8D7D7",
"$.	c #D7D6D7",
"%.	c #D7D7D7",
"&.	c #D6D6D6",
"*.	c #D6D5D5",
"=.	c #FBFCFB",
"-.	c #585858",
";.	c #383838",
">.	c #000000",
",.	c #282828",
"'.	c #0F0F0F",
").	c #151515",
"!.	c #9E9D9D",
"~.	c #D5D5D5",
"{.	c #FBFBFC",
"].	c #585757",
"^.	c #555555",
"/.	c #3A393A",
"(.	c #474647",
"_.	c #2C2C2C",
":.	c #1D1D1D",
"<.	c #141414",
"[.	c #121112",
"}.	c #0D0D0D",
"|.	c #1B1B1B",
"1.	c #020202",
"2.	c #010101",
"3.	c #9C9C9C",
"4.	c #585758",
"5.	c #565556",
"6.	c #4D4D4D",
"7.	c #4B4B4B",
"8.	c #575858",
"9.	c #434343",
"0.	c #393939",
"a.	c #333333",
"b.	c #2F2F2F",
"c.	c #272727",
"d.	c #111111",
"e.	c #0C0C0C",
"f.	c #050505",
"g.	c #161616",
"h.	c #9A9A9A",
"i.	c #D5D6D6",
"j.	c #575758",
"k.	c #525352",
"l.	c #505051",
"m.	c #5A5B5B",
"n.	c #494949",
"o.	c #464646",
"p.	c #444444",
"q.	c #3B3B3B",
"r.	c #2C2D2D",
"s.	c #2A2A2A",
"t.	c #222222",
"u.	c #212121",
"v.	c #0A0A0A",
"w.	c #040404",
"x.	c #999998",
"y.	c #575757",
"z.	c #525253",
"A.	c #505150",
"B.	c #5D5C5D",
"C.	c #4B4C4B",
"D.	c #4B4A4A",
"E.	c #484848",
"F.	c #515151",
"G.	c #383839",
"H.	c #333334",
"I.	c #2B2C2B",
"J.	c #363636",
"K.	c #1E1E1E",
"L.	c #131313",
"M.	c #0B0B0B",
"N.	c #080808",
"O.	c #191919",
"P.	c #979797",
"Q.	c #525353",
"R.	c #505050",
"S.	c #4A4B4A",
"T.	c #454545",
"U.	c #3F3F40",
"V.	c #3D3D3D",
"W.	c #3C3C3C",
"X.	c #333433",
"Y.	c #424242",
"Z.	c #262626",
"`.	c #1F1F1F",
" +	c #242424",
".+	c #090909",
"++	c #070707",
"@+	c #030303",
"#+	c #959595",
"$+	c #FBFBFA",
"%+	c #535352",
"&+	c #515051",
"*+	c #5D5D5C",
"=+	c #4C4B4C",
"-+	c #454645",
";+	c #403F3F",
">+	c #3E3D3D",
",+	c #373737",
"'+	c #313131",
")+	c #2D2D2D",
"!+	c #2B2B2A",
"~+	c #262726",
"{+	c #1C1D1C",
"]+	c #1A1B1B",
"^+	c #0E0E0E",
"/+	c #060606",
"(+	c #949494",
"_+	c #545555",
":+	c #535252",
"<+	c #5D5D5D",
"[+	c #4B4B4C",
"}+	c #4A4A4A",
"|+	c #484748",
"1+	c #464545",
"2+	c #3F3F3F",
"3+	c #3C3B3C",
"4+	c #3A3939",
"5+	c #464746",
"6+	c #343434",
"7+	c #303030",
"8+	c #2E2E2E",
"9+	c #3A3A3A",
"0+	c #202020",
"a+	c #181818",
"b+	c #0B0B0A",
"c+	c #929292",
"d+	c #555454",
"e+	c #4C4B4B",
"f+	c #494A4A",
"g+	c #484847",
"h+	c #454546",
"i+	c #323232",
"j+	c #313030",
"k+	c #2F2E2E",
"l+	c #2B2B2B",
"m+	c #252526",
"n+	c #1A1A1A",
"o+	c #919191",
"p+	c #FAFBFB",
"q+	c #545455",
"r+	c #525252",
"s+	c #5C5D5D",
"t+	c #39393A",
"u+	c #474747",
"v+	c #303031",
"w+	c #2F2F2E",
"x+	c #29292A",
"y+	c #232323",
"z+	c #1F201F",
"A+	c #121212",
"B+	c #101010",
"C+	c #8F8F8F",
"D+	c #D5D4D5",
"E+	c #FBFAFA",
"F+	c #565757",
"G+	c #4A4A49",
"H+	c #424343",
"I+	c #3D3C3D",
"J+	c #3C3C3B",
"K+	c #393A39",
"L+	c #323132",
"M+	c #292929",
"N+	c #282728",
"O+	c #272627",
"P+	c #252525",
"Q+	c #1C1C1C",
"R+	c #141413",
"S+	c #8D8D8E",
"T+	c #FAFAFB",
"U+	c #565657",
"V+	c #545554",
"W+	c #5C5C5D",
"X+	c #474847",
"Y+	c #434243",
"Z+	c #3D3D3C",
"`+	c #2D2C2D",
" @	c #171717",
".@	c #8C8C8C",
"+@	c #575756",
"@@	c #555455",
"#@	c #4F4F50",
"$@	c #5C5D5C",
"%@	c #49494A",
"&@	c #3B3B3C",
"*@	c #333434",
"=@	c #313232",
"-@	c #303130",
";@	c #181717",
">@	c #161716",
",@	c #121211",
"'@	c #0B0C0B",
")@	c #8B8B8B",
"!@	c #D4D5D4",
"~@	c #595959",
"{@	c #565656",
"]@	c #313132",
"^@	c #2C2D2C",
"/@	c #262727",
"(@	c #242525",
"_@	c #181919",
":@	c #171718",
"<@	c #080809",
"[@	c #8A8A8A",
"}@	c #D4D5D5",
"|@	c #575656",
"1@	c #545454",
"2@	c #515251",
"3@	c #504F50",
"4@	c #484747",
"5@	c #454445",
"6@	c #3F3E3F",
"7@	c #393938",
"8@	c #171818",
"9@	c #888888",
"0@	c #D4D4D4",
"a@	c #FAF9FA",
"b@	c #F9F8F9",
"c@	c #F9F8F8",
"d@	c #F7F7F8",
"e@	c #F7F7F6",
"f@	c #F6F7F6",
"g@	c #F6F5F5",
"h@	c #F5F4F5",
"i@	c #F4F5F4",
"j@	c #F3F4F4",
"k@	c #F3F3F2",
"l@	c #F2F1F2",
"m@	c #F1F2F2",
"n@	c #EEEFEE",
"o@	c #EFEEEF",
"p@	c #EDEEED",
"q@	c #ECECED",
"r@	c #ECEBEC",
"s@	c #EAEBEB",
"t@	c #EAEBEA",
"u@	c #E9E8E8",
"v@	c #E8E8E8",
"w@	c #E6E6E6",
"x@	c #E6E6E5",
"y@	c #E5E5E5",
"z@	c #E5E4E5",
"A@	c #E1E2E2",
"B@	c #E1E1E0",
"C@	c #E0DFDF",
"D@	c #DFDEDE",
"E@	c #DEDDDE",
"F@	c #DCDDDC",
"G@	c #DCDBDB",
"H@	c #DBDADB",
"I@	c #DBDBDA",
"J@	c #D7D8D8",
"K@	c #D7D7D8",
"L@	c #D6D7D7",
"M@	c #D5D6D5",
"N@	c #D6D5D6",
"O@	c #D4D4D5",
"P@	c #D5D4D4",
". + @ # @ $ % % & & * = = - ; > , ' ) ! ! ! ! ~ { { { ] ^ ^ / ( _ : < [ } | 1 2 3 4 5 6 6 7 8 9 0 a b c d d d e f g h i j k l m m n o p q r s t u v w x x y x z z A B B C D E F G G H I J K L M N O N P Q R R R S T U V W X Y Z Z `  ...+.@.#.$.%.&.&.*.",
"=.-.;.;.>.>.,.'.>.>.>.>.).>.>.>.>.>.).>.>.>.>.>.).>.>.>.>.>.>.>.>.>.>.>.>.>.>.>.>.>.>.>.>.>.>.>.>.>.>.>.>.>.>.>.>.>.>.>.>.>.!.>.>.>.>.>.>.>.>.>.>.>.>.>.>.>.>.>.>.>.>.>.>.>.>.>.>.>.>.>.>.>.>.>.>.>.>.).>.>.>.>.>.).>.>.>.>.>.).>.>.>.>.'.,.>.>.;.;.-.~.",
"{.-.].^./.;.(._.:.<.[.}.|.1.2.2.>.>.).>.>.>.>.>.).>.>.>.>.>.>.>.>.>.>.>.>.>.>.>.>.>.>.>.>.>.>.>.>.>.>.>.>.>.>.>.>.>.>.>.>.>.3.>.>.>.>.>.>.>.>.>.>.>.>.>.>.>.>.>.>.>.>.>.>.>.>.>.>.>.>.>.>.>.>.>.>.>.>.).>.>.>.>.>.).>.>.2.2.1.|.}.[.<.:._.(.;./.^.].-.~.",
"+ -.4.5.6.7.8.9.0.a.b.c._.d.'.e.f.1.g.2.>.>.>.>.).>.>.>.>.>.>.>.>.>.>.>.>.>.>.>.>.>.>.>.>.>.>.>.>.>.>.>.>.>.>.>.>.>.>.>.>.>.h.>.>.>.>.>.>.>.>.>.>.>.>.>.>.>.>.>.>.>.>.>.>.>.>.>.>.>.>.>.>.>.>.>.>.>.>.).>.>.>.>.2.g.1.f.e.'.d._.c.b.a.0.9.8.7.6.5.4.-.i.",
"+ -.j.^.k.l.m.n.o.p.o.q.9.r.s.t.g.'.u.v.w.2.>.>.).>.>.>.>.>.>.>.>.>.>.>.>.>.>.>.>.>.>.>.>.>.>.>.>.>.>.>.>.>.>.>.>.>.>.>.>.>.x.>.>.>.>.>.>.>.>.>.>.>.>.>.>.>.>.>.>.>.>.>.>.>.>.>.>.>.>.>.>.>.>.>.>.>.>.).>.>.2.w.v.u.'.g.t.s.r.9.q.o.p.o.n.m.l.k.^.j.-.~.",
"+ -.y.^.z.A.B.C.D.E.o.9.F.q.G.H.I.c.J.K.L.}.M.N.O.2.>.>.>.>.>.>.>.>.>.>.>.>.>.>.>.>.>.>.>.>.>.>.>.>.>.>.>.>.>.>.>.>.>.>.>.>.P.>.>.>.>.>.>.>.>.>.>.>.>.>.>.>.>.>.>.>.>.>.>.>.>.>.>.>.>.>.>.>.>.>.>.>.2.O.N.M.}.L.K.J.c.I.H.G.q.F.9.o.E.D.C.B.A.z.^.y.-.~.",
"+ -.y.^.Q.R.B.7.S.E.T.9.F.U.V.W.J.X.Y._.Z.t.`.O. +M..+++@+2.2.>.>.>.>.>.>.>.>.>.>.>.>.>.>.>.>.>.>.>.>.>.>.>.>.>.>.>.>.>.>.>.#+>.>.>.>.>.>.>.>.>.>.>.>.>.>.>.>.>.>.>.>.>.>.>.>.>.>.>.>.>.>.2.2.@+++.+M. +O.`.t.Z._.Y.X.J.W.V.U.F.9.T.E.S.7.B.R.Q.^.y.-.~.",
"$+-.j.^.%+&+*+=+S.E.-+9.F.;+>+W./.,+p.'+b.)+!+~+X.{+]+g.^+.+N.N./+1.2.>.>.>.>.>.>.>.>.>.>.>.>.>.>.>.>.>.>.>.>.>.>.>.>.>.>.>.(+>.>.>.>.>.>.>.>.>.>.>.>.>.>.>.>.>.>.>.>.>.>.>.>.>.>.2.1./+N.N..+^+g.]+{+X.~+!+)+b.'+p.,+/.W.>+;+F.9.-+E.S.=+*+&+%+^.j.-.~.",
"+ -.j._+:+R.<+[+}+|+1+9.F.2+V.3+4+,+5+6+7+8+_.s.9+Z. +0+|.a+g.).d.b+++/+w.2.>.>.>.>.>.>.>.>.>.>.>.>.>.>.>.>.>.>.>.>.>.>.>.>.c+>.>.>.>.>.>.>.>.>.>.>.>.>.>.>.>.>.>.>.>.>.>.>.2.w./+++b+d.).g.a+|.0+ +Z.9+s._.8+7+6+5+,+4+3+V.2+F.9.1+|+}+[+<+R.:+_+j.-.~.",
"+ -.y.d+%+R.*+e+f+g+h+9.F.;+V.W.4+,+5+6+i+j+k+l+q.c.m+ +t.0+K.:.n+).L.d.^+.+/+f.@+2.>.>.>.>.>.>.>.>.>.>.>.>.>.>.>.>.>.>.>.>.o+>.>.>.>.>.>.>.>.>.>.>.>.>.>.>.>.>.>.>.2.@+f./+.+^+d.L.).n+:.K.0+t. +m+c.q.l+k+j+i+6+5+,+4+W.V.;+F.9.h+g+f+e+*+R.%+d+y.-.~.",
"p+-.y.q+r+R.s+7.}+E.h+9.F.;+V.W.t+,+u+6+i+v+w+)+V.x+Z. +y+u.z+K.{+|.O.a+g.A+B+^+M.++f.w.1.2.>.>.>.>.>.>.>.>.>.>.>.>.>.>.>.>.C+>.>.>.>.>.>.>.>.>.>.>.>.>.>.>.2.1.w.f.++M.^+B+A+g.a+O.|.{+K.z+u.y+ +Z.x+V.)+w+v+i+6+u+,+t+W.V.;+F.9.h+E.}+7.s+R.r+q+y.-.D+",
"E+-.F+d+:+R.*+7.G+|+-+H+F.U.I+J+K+,+u+6+L+j+8+)+V.M+N+O+P+t.0+`.:.Q+n+O.a+g.).R+d.^+e.M..+f.@+1.1.>.>.>.>.>.>.>.>.>.>.>.>.>.S+>.>.>.>.>.>.>.>.>.>.>.>.1.1.@+f..+M.e.^+d.R+).g.a+O.n+Q+:.`.0+t.P+O+N+M+V.)+8+j+L+6+u+,+K+J+I+U.F.H+-+|+G+7.*+R.:+d+F+-.~.",
"T+-.U+V+r+R.W+7.G+X+T.Y+F.2+Z+q.0.,+(.6+i+7+8+`+V.M+,.O+P+y+t.0+`.K.Q+|.a+ @g.<.L.A+B+'.}.M..+N./+1.>.>.>.>.>.>.>.>.>.>.>.>..@>.>.>.>.>.>.>.>.>.>.>.1./+N..+M.}.'.B+A+L.<.g. @a+|.Q+K.`.0+t.y+P+O+,.M+V.`+8+7+i+6+(.,+0.q.Z+2+F.Y+T.X+G+7.W+R.r+V+U+-.~.",
"T+-.+@@@r+#@$@e+%@u+T.9.F.2+V.&@0.,+o.*@=@-@8+)+V.M+N+Z.P+y+t.0+`.:.Q+|.n+O.;@>@).<.L.,@d.B+'.^+}.e.'@M.v.>.>.>.>.>.>.>.>.>.)@>.>.>.>.>.>.>.>.v.M.'@e.}.^+'.B+d.,@L.<.).>@;@O.n+|.Q+:.`.0+t.y+P+Z.N+M+V.)+8+-@=@*@o.,+0.&@V.2+F.9.T.u+%@e+$@#@r+@@+@-.!@",
"# ~@{@V+r+#@*+7.n.X+T.9.F.2+Z+q.0.,+o.6+]@7+8+^@V.M+,./@(@y+t.0+`.:.Q+|.n+_@:@g.).<.L.A+d.B+'.^+}.e.M.M.v..+<@N.++>.>.>.>.>.[@>.>.>.>.++N.<@.+v.M.M.e.}.^+'.B+d.A+L.<.).g.:@_@n+|.Q+:.`.0+t.y+(@/@,.M+V.^@8+7+]@6+o.,+0.q.Z+2+F.9.T.X+n.7.*+#@r+V+{@~@}@",
"@ ~@|@1@2@3@s+7.G+4@5@H+F.6@V.&@7@,+(.*@=@v+8+)+V.M+N+Z.(@y+t.0+`.:.Q+|.n+O.8@g.).<.L.A+d.B+'.^+}.e.'@M.v..+<@N.++++/+/+>.>.9@/+/+/+++++N.<@.+v.M.'@e.}.^+'.B+d.A+L.<.).g.8@O.n+|.Q+:.`.0+t.y+(@Z.N+M+V.)+8+v+=@*@(.,+7@&@V.6@F.H+5@4@G+7.s+3@2@1@|@~@0@",
"# # a@& & b@c@= d@d@; e@; f@g@g@g@! h@i@{ j@] ] ] k@( l@m@: < < | | | 1 5 5 n@o@6 7 p@9 q@b b b r@d s@f t@g g j j j u@v@v@n o q q w@w@x@y@y@z@x x x z z z B B A@B E E B@G G G C@J J D@M E@N Q Q F@R R G@S T H@I@W W Z Z  .` ....J@K@%.L@&.&.M@N@~.D+O@P@"};
