/* XPM */
static char * envelope__loop_active_xpm[] = {
"49 20 339 2",
"  	c #594041",
". 	c #5B4444",
"+ 	c #5C4746",
"@ 	c #5D4847",
"# 	c #5F4A49",
"$ 	c #5F4B4A",
"% 	c #604C4C",
"& 	c #614E4E",
"* 	c #624F4F",
"= 	c #635050",
"- 	c #645252",
"; 	c #655353",
"> 	c #665454",
", 	c #675656",
"' 	c #685757",
") 	c #695859",
"! 	c #6A595A",
"~ 	c #6B5B5B",
"{ 	c #6B5D5D",
"] 	c #6C5E5E",
"^ 	c #6D5F5F",
"/ 	c #6E6161",
"( 	c #6F6262",
"_ 	c #706464",
": 	c #716565",
"< 	c #726666",
"[ 	c #736868",
"} 	c #746969",
"| 	c #756A6A",
"1 	c #766C6C",
"2 	c #776D6D",
"3 	c #786E6E",
"4 	c #797070",
"5 	c #7A7171",
"6 	c #7B7272",
"7 	c #7C7474",
"8 	c #7D7575",
"9 	c #7E7777",
"0 	c #7F7878",
"a 	c #807979",
"b 	c #807B7B",
"c 	c #817C7C",
"d 	c #827D7D",
"e 	c #837F7F",
"f 	c #848080",
"g 	c #868383",
"h 	c #888686",
"i 	c #CCCCCC",
"j 	c #5B4344",
"k 	c #929292",
"l 	c #CDCDCD",
"m 	c #5C4647",
"n 	c #9D9D9C",
"o 	c #9E9D9D",
"p 	c #9E9D9E",
"q 	c #9F9E9F",
"r 	c #A09F9F",
"s 	c #A0A09F",
"t 	c #A1A1A0",
"u 	c #A1A1A1",
"v 	c #A2A2A2",
"w 	c #A3A3A2",
"x 	c #A4A4A3",
"y 	c #A4A4A4",
"z 	c #A5A5A5",
"A 	c #A6A6A6",
"B 	c #A7A7A7",
"C 	c #A8A8A8",
"D 	c #A9A9A9",
"E 	c #AAAAAA",
"F 	c #ABABAB",
"G 	c #ACACAC",
"H 	c #ADADAD",
"I 	c #AEAEAE",
"J 	c #AFAFAF",
"K 	c #B0B0B0",
"L 	c #B1B1B1",
"M 	c #B2B1B2",
"N 	c #BABABA",
"O 	c #D4D4D4",
"P 	c #CECFCF",
"Q 	c #5E4949",
"R 	c #9D9D9D",
"S 	c #9D9E9E",
"T 	c #9E9F9F",
"U 	c #9F9F9F",
"V 	c #A09FA0",
"W 	c #A0A0A0",
"X 	c #A0A1A0",
"Y 	c #A1A2A1",
"Z 	c #A3A3A3",
"` 	c #A4A5A5",
" .	c #A5A6A6",
"..	c #A6A7A7",
"+.	c #AFAEAE",
"@.	c #B0AFAF",
"#.	c #B0B0AF",
"$.	c #B0B1B0",
"%.	c #B1B2B1",
"&.	c #B1B2B2",
"*.	c #B2B3B3",
"=.	c #BBBBBB",
"-.	c #CFCFCF",
";.	c #604C4B",
">.	c #9E9E9F",
",.	c #A2A2A1",
"'.	c #A5A5A4",
").	c #A6A6A5",
"!.	c #A7A6A6",
"~.	c #A7A8A7",
"{.	c #A8A9A8",
"].	c #A9AAA9",
"^.	c #AAAAA9",
"/.	c #ABABAA",
"(.	c #ABACAC",
"_.	c #ACADAC",
":.	c #ADADAC",
"<.	c #AEAEAD",
"[.	c #AFAFB0",
"}.	c #B0B0B1",
"|.	c #B0B1B1",
"1.	c #B2B3B2",
"2.	c #B3B3B3",
"3.	c #B4B3B4",
"4.	c #BBBCBC",
"5.	c #D6D6D6",
"6.	c #D1D1D0",
"7.	c #624F4E",
"8.	c #A1A0A1",
"9.	c #A2A1A2",
"0.	c #A3A2A2",
"a.	c #A5A4A4",
"b.	c #A6A5A5",
"c.	c #A7A7A6",
"d.	c #A8A7A8",
"e.	c #A9A8A9",
"f.	c #ABAAAB",
"g.	c #ACABAC",
"h.	c #ADAEAD",
"i.	c #B2B2B2",
"j.	c #B4B4B3",
"k.	c #B5B5B4",
"l.	c #B5B5B5",
"m.	c #BDBDBD",
"n.	c #D8D8D8",
"o.	c #D2D2D2",
"p.	c #635151",
"q.	c #A0A0A1",
"r.	c #A2A1A1",
"s.	c #A3A2A3",
"t.	c #000000",
"u.	c #050505",
"v.	c #A7A8A8",
"w.	c #A8A9A9",
"x.	c #A9AAAA",
"y.	c #AFAFAE",
"z.	c #B0AFB0",
"A.	c #B3B2B2",
"B.	c #B4B3B3",
"C.	c #B4B4B4",
"D.	c #B4B5B5",
"E.	c #B5B6B6",
"F.	c #B6B6B6",
"G.	c #BEBDBE",
"H.	c #DADBDB",
"I.	c #D2D2D3",
"J.	c #A6A7A6",
"K.	c #AAA9AA",
"L.	c #AFB0B0",
"M.	c #B1B0B0",
"N.	c #B2B1B1",
"O.	c #B6B5B5",
"P.	c #BFBFBF",
"Q.	c #DDDDDD",
"R.	c #D4D4D3",
"S.	c #685657",
"T.	c #A3A4A3",
"U.	c #A6A5A6",
"V.	c #A7A6A7",
"W.	c #9C9C9C",
"X.	c #393939",
"Y.	c #080808",
"Z.	c #070707",
"`.	c #383838",
" +	c #9FA0A0",
".+	c #3A3A3A",
"++	c #080707",
"@+	c #3A3939",
"#+	c #474746",
"$+	c #060606",
"%+	c #222222",
"&+	c #9B9B9B",
"*+	c #B4B5B4",
"=+	c #B5B6B5",
"-+	c #B6B7B6",
";+	c #BFC0C0",
">+	c #DEDEDE",
",+	c #D5D5D5",
"'+	c #695A59",
")+	c #A4A3A4",
"!+	c #A5A4A5",
"~+	c #A6A6A7",
"{+	c #A7A7A8",
"]+	c #444344",
"^+	c #454444",
"/+	c #3A3A39",
"(+	c #454545",
"_+	c #464646",
":+	c #3A3B3A",
"<+	c #474747",
"[+	c #484848",
"}+	c #353535",
"|+	c #B6B7B7",
"1+	c #B7B7B7",
"2+	c #B8B7B7",
"3+	c #C1C1C1",
"4+	c #E0E1E0",
"5+	c #6B5C5D",
"6+	c #A4A4A5",
"7+	c #A5A5A6",
"8+	c #010101",
"9+	c #070808",
"0+	c #B8B8B8",
"a+	c #B9B8B9",
"b+	c #C0C0C0",
"c+	c #E3E3E3",
"d+	c #D7D7D8",
"e+	c #6D5E5F",
"f+	c #A8A8A9",
"g+	c #A8A7A7",
"h+	c #A9A8A8",
"i+	c #B6B5B6",
"j+	c #E5E5E5",
"k+	c #A9A9AA",
"l+	c #3B3B3A",
"m+	c #3B3B3B",
"n+	c #3B3B3C",
"o+	c #B3B3B4",
"p+	c #494949",
"q+	c #363636",
"r+	c #E7E7E7",
"s+	c #D9DAD9",
"t+	c #716465",
"u+	c #ABAAAA",
"v+	c #ACABAB",
"w+	c #AEADAD",
"x+	c #A1A0A0",
"y+	c #A3A4A4",
"z+	c #525252",
"A+	c #9E9E9E",
"B+	c #EAEAE9",
"C+	c #736767",
"D+	c #AAAAAB",
"E+	c #AAABAB",
"F+	c #ABACAB",
"G+	c #ACACAB",
"H+	c #ACADAD",
"I+	c #AEAFAE",
"J+	c #AFB0AF",
"K+	c #B3B2B3",
"L+	c #B5B4B4",
"M+	c #B7B8B7",
"N+	c #ECECEC",
"O+	c #DCDBDB",
"P+	c #746A6A",
"Q+	c #AAA9A9",
"R+	c #AEADAE",
"S+	c #B3B4B4",
"T+	c #B7B6B7",
"U+	c #B7B7B8",
"V+	c #B7B8B8",
"W+	c #B9B9B9",
"X+	c #EEEEEE",
"Y+	c #DCDDDD",
"Z+	c #776D6C",
"`+	c #ABABAC",
" @	c #F1F1F0",
".@	c #796F6F",
"+@	c #B6B6B5",
"@@	c #B7B7B6",
"#@	c #B9B9B8",
"$@	c #BABAB9",
"%@	c #BBBABA",
"&@	c #BBBABB",
"*@	c #BCBBBC",
"=@	c #BCBCBC",
"-@	c #BEBEBE",
";@	c #F2F1F2",
">@	c #DFDFDF",
",@	c #7A7272",
"'@	c #D7D7D7",
")@	c #D9D9DA",
"!@	c #DADADB",
"~@	c #DCDCDC",
"{@	c #DEDEDF",
"]@	c #DFDFE0",
"^@	c #E0E0E1",
"/@	c #E2E2E2",
"(@	c #E4E4E4",
"_@	c #E5E5E6",
":@	c #E6E6E7",
"<@	c #E8E8E8",
"[@	c #E9E9E9",
"}@	c #EAEAEA",
"|@	c #EBEBEB",
"1@	c #ECECED",
"2@	c #EDEDEE",
"3@	c #EFEFEF",
"4@	c #F0F0F0",
"5@	c #F2F2F2",
"6@	c #C1C0C0",
"7@	c #C2C2C2",
"8@	c #C3C3C3",
"9@	c #C4C3C4",
"0@	c #C5C4C5",
"a@	c #C5C5C5",
"b@	c #C6C6C6",
"c@	c #C7C7C7",
"d@	c #C8C7C7",
"e@	c #C9C8C8",
"f@	c #C9C9C8",
"g@	c #CACAC9",
"h@	c #CACACA",
"i@	c #CBCBCA",
"j@	c #CCCCCB",
"k@	c #CECECE",
"l@	c #CFCECE",
"m@	c #D0CFCF",
"n@	c #D0CFD0",
"o@	c #D0D0D0",
"p@	c #D0D0D1",
"q@	c #D1D1D2",
"r@	c #D3D2D3",
"s@	c #D4D3D3",
"t@	c #D5D4D4",
"u@	c #D9D9D9",
"v@	c #DBDBDC",
"w@	c #DFDEDF",
"x@	c #E0E0E0",
"  . + + @ # $ % & * = - ; > , ' ) ! ~ { ] ^ / ( _ : < [ } | 1 2 3 4 5 6 7 8 9 0 a b c d e f g h i ",
"j k k k k k k k k k k k k k k k k k k k k k k k k k k k k k k k k k k k k k k k k k k k k k k k l ",
"m k n n n o p q q r s t u v v w x x y y z A B B C C C D D E E F F G G G H H I J K K L L M M N O P ",
"Q k R R S T U V V W X Y v v Z Z y `  . ...B C C C D D D E F F G G H H I I +.@.#.$.$.%.&.*.*.=.O -.",
";.k >.>.U s s t t ,.v Z Z y y '.).).!.!.B ~.{.D ].].^./.F (.(._.:.<.I I J [.}.|.%.%.1.2.3.3.4.5.6.",
"7.k r r V 8.8.9.9.0.w x y a.b.).c.B d.d.e.D D D E E f.g.G _._.h.I J J K K $.%.%.i.i.2.j.k.l.m.n.o.",
"p.k q.q.8.r.9.s.s.Z Z y z A t.u.B v.w.w.D D x.x.E F F G G H H I y.@.z.K L L i.A.B.B.C.D.E.F.G.H.I.",
"> k u u r.0.w x x '.z A A J.t.u.C C D D K.K.f.F G G H I I +.+.J L.K M.N.i.i.2.2.C.C.l.O.F.F.P.Q.R.",
"S.k 0.0.w T.x '.'.b.U.V.B C t.u.D W.X.Y.Z.`. +T .+Y.++@+s.[.t.u.#+$+%+&+*.2.C.*+=+=+F.F.-+-+;+>+,+",
"'+k Z Z )+!+z  . .~+~+{+C C t.u.x.`.t.]+^+t./+X.t.(+_+t.:+$.t.t.<+[+t.}+C.C.l.l.F.F.|+|+1+2+3+4+5.",
"5+k y y 6+7+7+~+~+B ~.{.D D t.u.E Z.8+A B 8+Y.9+8+x.E 8+Y.N.t.8+H I 8+Y.l.l.F.F.F.F.1+1+0+a+b+c+d+",
"e+k z z z A A B B C f+D D E t.u.F Z.8+g+h+8+Y.Y.8+E E 8+Y.*.t.8+h.I 8+Y.i+i+F.F.1+1+0+0+0+0+b+j+n.",
"( k A A !.g+g+C C D D k+k+E t.u.G /+t._+#+t.l+m+t.<+<+t.n+o+t.t.p+p+t.q+F.F.1+1+0+0+0+0+0+0+b+r+s+",
"t+k ....B C C D D ^.^.u+f.v+t.u.w+x+.+Y.Y..+T.y+m+Y.Y.m+A C.t.u.z+Z.%+A+|+1+0+0+0+0+0+0+0+0+b+B+H.",
"C+k C C C D D K.K.D+E+F+G+G H+h.I+I+J+J+$.$.%.&.i.K+2.C.L+O.t.u.F.-+-+M+0+0+a+a+0+0+0+0+0+0+b+N+O+",
"P+k D D D Q+^././.G+G+:.:.w+R+I J [.}.}.L L i.*.S+C.C.l.l.F.t.u.T+U+V+0+W+W+0+0+0+0+0+0+0+0+b+X+Y+",
"Z+k D D D E D+`+`+G G H h.I J J K K L L i.i.2.j.C.k.l.i+i+F.F.1+1+0+a+0+0+0+0+0+0+0+0+0+0+0+b+ @>+",
".@k M M i.2.B.L+L+O.+@F.F.F.@@1+0+#@$@$@%@&@*@=@=@m.m.-@-@P.P.b+b+b+b+b+b+b+b+b+b+b+b+b+b+b+b+;@>@",
",@k O O O O O O O O O O O O O O O O O O O O 5.'@n.)@!@~@Q.>+{@]@^@/@c+(@_@:@<@[@}@|@1@2@3@4@5@5@>@",
"6@7@8@8@9@0@a@b@b@c@d@e@f@g@h@i@j@i l l k@l@m@n@o@p@q@r@r@s@s@t@,+5.'@n.n.n.u@)@!@!@v@~@Q.Q.w@x@>@"};
