/* XPM */
static char * frame__top_separator_xpm[] = {
"48 26 189 2",
"  	c None",
". 	c #000000",
"+ 	c #160A61",
"@ 	c #CFCFCF",
"# 	c #D0CFCF",
"$ 	c #CFD0CF",
"% 	c #D0CFD0",
"& 	c #D0D0D0",
"* 	c #CFCFD0",
"= 	c #CFD0D0",
"- 	c #D0D1D0",
"; 	c #D1D0D1",
"> 	c #D1D0D0",
", 	c #D0D1D1",
"' 	c #D1D1D1",
") 	c #D1D1D0",
"! 	c #D2D2D1",
"~ 	c #D1D2D2",
"{ 	c #D1D2D1",
"] 	c #D2D1D2",
"^ 	c #D1D1D2",
"/ 	c #D2D2D2",
"( 	c #D3D2D2",
"_ 	c #D2D3D2",
": 	c #D2D2D3",
"< 	c #D3D2D3",
"[ 	c #D2D3D3",
"} 	c #D3D3D3",
"| 	c #D3D3D4",
"1 	c #D3D4D3",
"2 	c #D4D4D4",
"3 	c #D4D3D4",
"4 	c #D4D4D3",
"5 	c #D3D4D4",
"6 	c #D5D4D4",
"7 	c #D5D5D4",
"8 	c #D4D5D4",
"9 	c #D5D4D5",
"0 	c #D4D4D5",
"a 	c #D5D5D5",
"b 	c #D6D5D5",
"c 	c #D5D6D5",
"d 	c #D6D5D6",
"e 	c #D6D6D5",
"f 	c #D5D6D6",
"g 	c #D6D6D6",
"h 	c #D7D6D6",
"i 	c #D7D7D6",
"j 	c #D7D6D7",
"k 	c #D7D7D7",
"l 	c #D6D7D7",
"m 	c #D8D7D7",
"n 	c #D7D7D8",
"o 	c #D7D8D8",
"p 	c #D8D7D8",
"q 	c #D8D8D8",
"r 	c #D8D8D7",
"s 	c #D7D8D7",
"t 	c #D8D8D9",
"u 	c #D9D8D8",
"v 	c #D8D9D9",
"w 	c #D8D9D8",
"x 	c #D9D8D9",
"y 	c #D9D9D8",
"z 	c #D9D9D9",
"A 	c #D9D9DA",
"B 	c #D9DAD9",
"C 	c #D9DADA",
"D 	c #DAD9DA",
"E 	c #DAD9D9",
"F 	c #DADAD9",
"G 	c #DADADA",
"H 	c #DADBDA",
"I 	c #DBDADA",
"J 	c #DBDBDB",
"K 	c #DBDBDA",
"L 	c #DBDADB",
"M 	c #DADBDB",
"N 	c #DBDCDB",
"O 	c #DCDBDB",
"P 	c #DCDBDC",
"Q 	c #DBDCDC",
"R 	c #DCDCDB",
"S 	c #DCDCDC",
"T 	c #DCDCDD",
"U 	c #DDDDDC",
"V 	c #DCDDDD",
"W 	c #DDDDDD",
"X 	c #DDDCDC",
"Y 	c #DDDDDE",
"Z 	c #DDDEDD",
"` 	c #DDDEDE",
" .	c #DEDDDD",
"..	c #DEDDDE",
"+.	c #DEDEDE",
"@.	c #DEDEDD",
"#.	c #DEDEDF",
"$.	c #DFDFDE",
"%.	c #DEDFDE",
"&.	c #DFDEDE",
"*.	c #DFDEDF",
"=.	c #DEDFDF",
"-.	c #DFDFDF",
";.	c #DFDFE0",
">.	c #E0DFDF",
",.	c #E0E0DF",
"'.	c #E0DFE0",
").	c #E0E0E0",
"!.	c #DFE0E0",
"~.	c #E1E0E1",
"{.	c #E1E0E0",
"].	c #E0E1E0",
"^.	c #E0E1E1",
"/.	c #E1E1E0",
"(.	c #E1E1E1",
"_.	c #E2E1E1",
":.	c #E1E2E2",
"<.	c #E2E1E2",
"[.	c #E2E2E2",
"}.	c #E1E1E2",
"|.	c #E1E2E1",
"1.	c #E2E2E3",
"2.	c #E3E2E3",
"3.	c #E2E3E3",
"4.	c #E3E3E3",
"5.	c #E3E3E2",
"6.	c #E4E4E3",
"7.	c #E3E4E3",
"8.	c #E4E3E4",
"9.	c #E3E4E4",
"0.	c #E3E3E4",
"a.	c #E4E4E4",
"b.	c #E5E4E4",
"c.	c #E4E5E4",
"d.	c #E5E5E4",
"e.	c #E5E4E5",
"f.	c #E4E4E5",
"g.	c #E4E5E5",
"h.	c #E5E5E5",
"i.	c #E5E5E6",
"j.	c #E6E5E5",
"k.	c #E5E6E5",
"l.	c #E6E5E6",
"m.	c #E5E6E6",
"n.	c #E6E6E5",
"o.	c #E6E6E6",
"p.	c #E6E7E6",
"q.	c #E7E6E6",
"r.	c #E7E6E7",
"s.	c #E7E7E7",
"t.	c #E7E7E6",
"u.	c #E6E7E7",
"v.	c #E8E8E8",
"w.	c #E8E7E7",
"x.	c #E8E8E7",
"y.	c #E7E7E8",
"z.	c #E7E8E7",
"A.	c #E8E7E8",
"B.	c #E8E9E8",
"C.	c #E9E8E8",
"D.	c #E8E8E9",
"E.	c #E9E9E8",
"F.	c #E9E9E9",
"G.	c #E9E8E9",
"H.	c #E8E9E9",
"I.	c #E9EAE9",
"J.	c #EAE9E9",
"K.	c #E9EAEA",
"L.	c #EAEAEA",
"M.	c #EAE9EA",
"N.	c #EBEAEA",
"O.	c #EAEBEA",
"P.	c #EAEAEB",
"Q.	c #EBEBEB",
"R.	c #EAEBEB",
"S.	c #EBEBEA",
"T.	c #EBEBEC",
"U.	c #ECEBEB",
"V.	c #EBECEB",
"W.	c #ECECEB",
"X.	c #EBECEC",
"Y.	c #ECECEC",
"Z.	c #ECEBEC",
"`.	c #333541",
" +	c #3F4251",
".+	c #494C5E",
"++	c #505467",
"@+	c #55586D",
"#+	c #575B6F",
". . . . . . . . . . . . . . . . . . . . . . . . . . . . . . . . . . . . . . . . . . . . . . . . ",
". . . . . . . . . . . . . . . . . . . . . . . . . . . . . . . . . . . . . . . . . . . . . . . . ",
"+ + + + + + + + + + + + + + + + + + + + + + + + + + + + + + + + + + + + + + + + + + + + + + + + ",
"@ @ @ @ @ @ @ @ @ @ @ @ @ @ @ @ @ @ @ @ @ @ @ # $ $ # # $ % $ & * & = & = & = & & & & & & & & - ",
"; & > , ' - ' ) ' ' ; ' ' ' ' ' ! ' ' ' ~ ' ' { ] ! ! ~ ^ { ] ] / ] / / / / / / ( / _ : ( < _ _ ",
"[ [ : [ / } } } } } | } 1 2 | 2 } 3 4 | 2 2 2 4 5 2 5 2 2 2 2 2 2 6 6 7 8 2 9 0 2 a 0 7 a 8 a 9 ",
"a b a a c c a d b b e f f f b d g d g d g g g g g g g g h g i h h h j i k l k k k j k k i k k m ",
"n o p m q p r s o q q n q p q q q q q t u q q q u t v w x y u y v z y z w z z z z z A B C z D z ",
"C C C z E F F C G G G G G G H G I H G H J K L J I L L J J L M J J J J N J J O P J Q N R J R R S ",
"S S S S S S S S S S S T U S V W X U W W W W V W W W W W Y W W W Z W ` W  ...+.W ` @.+.+.` ` @.+.",
"+.+.+.+.#.$.%.&.+.*.=.+.=.%.-.*.=.-.-.-.-.;.;.;.>.-.-.-.>.>.>.-.,.'.-.,.).!.).).).).).).).).).).",
"~.).{.].~.^./.(././.~.(.(.(.(.(.(.(.(.(.(.(._.:.<._.[.[.}.<.[.|.<.[.[.[.[.[.[.[.[.[.1.2.[.3.4.[.",
"3.4.2.5.5.5.4.3.4.4.4.6.4.7.4.7.8.7.6.7.9.7.4.0.9.a.7.a.a.a.a.a.b.a.a.b.c.d.e.f.b.f.g.d.h.h.h.g.",
"h.h.h.h.h.h.i.j.j.j.j.k.j.l.k.m.l.n.o.o.o.o.o.o.o.o.o.o.o.p.q.r.o.p.s.r.r.t.t.r.u.s.u.s.s.s.s.s.",
"s.s.v.s.w.s.s.v.x.v.y.v.z.v.A.v.v.v.v.v.B.C.v.C.D.C.E.C.F.E.D.D.B.C.B.G.H.B.F.F.F.F.F.I.J.K.F.J.",
"K.K.F.J.K.L.J.L.L.M.L.L.L.L.L.N.L.L.O.P.L.N.Q.R.Q.Q.Q.O.P.P.S.Q.Q.R.Q.Q.T.Q.U.V.T.W.T.Q.U.V.U.Q.",
"X.Y.X.Y.Y.Z.Y.Y.Y.Y.Y.Y.Y.Y.Y.Y.Y.Y.Y.Y.Y.Y.Y.Y.Y.Y.Y.Y.Y.Y.Y.Y.Y.Y.Y.Y.Y.Y.Y.Y.Y.Y.Y.Y.Y.Y.Y.Y.",
"Y.Y.Y.Y.Y.Y.Y.Y.Y.Y.Y.Y.Y.Y.Y.Y.Y.Y.Y.Y.Y.Y.Y.Y.Y.Y.Y.Y.Y.Y.Y.Y.Y.Y.Y.Y.Y.Y.Y.Y.Y.Y.Y.Y.Y.Y.Y.Y.",
"Y.Y.Y.Y.Y.Y.Y.Y.Y.Y.Y.Y.Y.Y.Y.Y.Y.Y.Y.Y.Y.Y.Y.Y.Y.Y.Y.Y.Y.Y.Y.Y.Y.Y.Y.Y.Y.Y.Y.Y.Y.Y.Y.Y.Y.Y.Y.Y.",
"+ + + + + + + + + + + + + + + + + + + + + + + + + + + + + + + + + + + + + + + + + + + + + + + + ",
"`.`.`.`.`.`.`.`.`.`.`.`.`.`.`.`.`.`.`.`.`.`.`.`.`.`.`.`.`.`.`.`.`.`.`.`.`.`.`.`.`.`.`.`.`.`.`.`.",
" + + + + + + + + + + + + + + + + + + + + + + + + + + + + + + + + + + + + + + + + + + + + + + + +",
".+.+.+.+.+.+.+.+.+.+.+.+.+.+.+.+.+.+.+.+.+.+.+.+.+.+.+.+.+.+.+.+.+.+.+.+.+.+.+.+.+.+.+.+.+.+.+.+",
"++++++++++++++++++++++++++++++++++++++++++++++++++++++++++++++++++++++++++++++++++++++++++++++++",
"@+@+@+@+@+@+@+@+@+@+@+@+@+@+@+@+@+@+@+@+@+@+@+@+@+@+@+@+@+@+@+@+@+@+@+@+@+@+@+@+@+@+@+@+@+@+@+@+",
"#+#+#+#+#+#+#+#+#+#+#+#+#+#+#+#+#+#+#+#+#+#+#+#+#+#+#+#+#+#+#+#+#+#+#+#+#+#+#+#+#+#+#+#+#+#+#+#+"};
