/* XPM */
static char * region__button_add_xpm[] = {
"22 20 250 2",
"  	c None",
". 	c #D5D5D5",
"+ 	c #E0E0E0",
"@ 	c #DFDEDF",
"# 	c #DDDDDD",
"$ 	c #DBDBDC",
"% 	c #D9D9DA",
"& 	c #D8D8D8",
"* 	c #D7D7D7",
"= 	c #D4D3D3",
"- 	c #D2D1D2",
"; 	c #D0CFD0",
"> 	c #CFCECF",
", 	c #CDCDCD",
"' 	c #CCCCCB",
") 	c #CACAC9",
"! 	c #C9C8C8",
"~ 	c #C7C6C6",
"{ 	c #C5C5C5",
"] 	c #C3C3C3",
"^ 	c #C2C2C2",
"/ 	c #CBCACA",
"( 	c #BDBBBB",
"_ 	c #F9F9F9",
": 	c #FFFFFF",
"< 	c #FBFBFB",
"[ 	c #F8F8F8",
"} 	c #F5F5F5",
"| 	c #F2F2F3",
"1 	c #EFEFEF",
"2 	c #ECECED",
"3 	c #E9E8E9",
"4 	c #E6E6E6",
"5 	c #E3E3E3",
"6 	c #DFDFDF",
"7 	c #A8A7A7",
"8 	c #9C9696",
"9 	c #BDBABA",
"0 	c #F9F8F9",
"a 	c #C9C9C9",
"b 	c #C7C7C7",
"c 	c #C6C6C6",
"d 	c #C1C1C0",
"e 	c #BFBFBF",
"f 	c #BDBDBD",
"g 	c #BCBCBC",
"h 	c #BBBBBA",
"i 	c #BAB9B9",
"j 	c #B8B7B8",
"k 	c #A8A6A6",
"l 	c #9B9494",
"m 	c #BCB8B8",
"n 	c #F7F7F6",
"o 	c #C8C7C8",
"p 	c #C5C4C5",
"q 	c #C4C3C3",
"r 	c #C2C2C1",
"s 	c #BEBEBE",
"t 	c #BCBDBC",
"u 	c #BBBBBB",
"v 	c #B9B9BA",
"w 	c #B8B8B9",
"x 	c #B7B7B7",
"y 	c #999392",
"z 	c #B9B7B7",
"A 	c #F4F5F5",
"B 	c #C8C8C8",
"C 	c #C6C7C7",
"D 	c #C6C5C6",
"E 	c #C4C4C4",
"F 	c #C1C1C1",
"G 	c #BFC0C0",
"H 	c #BEBEBF",
"I 	c #BCBBBB",
"J 	c #B9B9B8",
"K 	c #B8B8B7",
"L 	c #B6B6B6",
"M 	c #A7A5A5",
"N 	c #979090",
"O 	c #B9B4B4",
"P 	c #F3F3F3",
"Q 	c #C5C6C5",
"R 	c #C4C5C4",
"S 	c #A8A8A8",
"T 	c #616161",
"U 	c #5F6060",
"V 	c #5F5F5F",
"W 	c #B0B1B0",
"X 	c #BABBBA",
"Y 	c #B9BAB9",
"Z 	c #B8B8B8",
"` 	c #B7B6B7",
" .	c #B5B5B5",
"..	c #968E8E",
"+.	c #B7B3B4",
"@.	c #F1F1F0",
"#.	c #C4C4C5",
"$.	c #A7A7A7",
"%.	c #606060",
"&.	c #5E5F5E",
"*.	c #AFB0AF",
"=.	c #B9B8B8",
"-.	c #B3B4B4",
";.	c #A7A4A4",
">.	c #948C8C",
",.	c #B6B2B1",
"'.	c #EEEEEE",
").	c #C3C4C4",
"!.	c #A6A6A7",
"~.	c #5E5E5E",
"{.	c #AFAFAF",
"].	c #BABABA",
"^.	c #B6B6B5",
"/.	c #B5B4B4",
"(.	c #B3B3B3",
"_.	c #A6A4A4",
":.	c #928A8A",
"<.	c #B4AFB0",
"[.	c #ECECEC",
"}.	c #C1C2C1",
"|.	c #A5A6A6",
"1.	c #5E5E5D",
"2.	c #AFAEAE",
"3.	c #B9B9B9",
"4.	c #B4B4B5",
"5.	c #B2B2B2",
"6.	c #A6A3A3",
"7.	c #918787",
"8.	c #B3AEAF",
"9.	c #EBEBEB",
"0.	c #7F7F7F",
"a.	c #605F5F",
"b.	c #5D5E5E",
"c.	c #5D5D5D",
"d.	c #5C5C5C",
"e.	c #5B5B5B",
"f.	c #838483",
"g.	c #B2B2B3",
"h.	c #B1B1B1",
"i.	c #8F8586",
"j.	c #B2ADAC",
"k.	c #E8E9E8",
"l.	c #C5C6C6",
"m.	c #5D5D5C",
"n.	c #5B5C5C",
"o.	c #828283",
"p.	c #B2B3B3",
"q.	c #B0B0B0",
"r.	c #A5A2A2",
"s.	c #8D8383",
"t.	c #B1ABAB",
"u.	c #C7C8C8",
"v.	c #C2C3C2",
"w.	c #7E7E7E",
"x.	c #5E5E5F",
"y.	c #5C5D5D",
"z.	c #5C5C5B",
"A.	c #5A5A5A",
"B.	c #828282",
"C.	c #B1B1B0",
"D.	c #B0AFAF",
"E.	c #8C8081",
"F.	c #AFA9A9",
"G.	c #E4E4E4",
"H.	c #5E5F5F",
"I.	c #5C5B5C",
"J.	c #818181",
"K.	c #B0B0AF",
"L.	c #AEAEAE",
"M.	c #A5A1A1",
"N.	c #8B7F7E",
"O.	c #ADA7A8",
"P.	c #E1E2E2",
"Q.	c #C1C0C0",
"R.	c #BEBDBE",
"S.	c #BDBDBC",
"T.	c #A1A1A1",
"U.	c #A9AAAA",
"V.	c #B4B4B4",
"W.	c #B0AFB0",
"X.	c #AFAEAF",
"Y.	c #ADADAE",
"Z.	c #A4A1A1",
"`.	c #887C7C",
" +	c #ADA6A6",
".+	c #C3C3C2",
"++	c #BFC0BF",
"@+	c #BEBFBE",
"#+	c #A0A0A0",
"$+	c #5D5C5D",
"%+	c #A9A8A9",
"&+	c #B4B4B3",
"*+	c #AEADAE",
"=+	c #ADACAC",
"-+	c #A4A0A0",
";+	c #877B7A",
">+	c #ABA5A4",
",+	c #DEDEDE",
"'+	c #C2C1C2",
")+	c #C0C1C0",
"!+	c #BEBFBF",
"~+	c #BDBDBE",
"{+	c #9FA0A0",
"]+	c #B3B3B2",
"^+	c #ADADAC",
"/+	c #ACACAC",
"(+	c #867877",
"_+	c #A9A2A2",
":+	c #DCDCDC",
"<+	c #C0C1C1",
"[+	c #BEBEBD",
"}+	c #BDBCBC",
"|+	c #9F9F9F",
"1+	c #A6A7A7",
"2+	c #AEAFAE",
"3+	c #ADADAD",
"4+	c #AAABAB",
"5+	c #A39F9F",
"6+	c #847676",
"7+	c #A8A1A2",
"8+	c #C0BFC0",
"9+	c #AEAEAD",
"0+	c #ABAAAB",
"a+	c #AAAAAA",
"b+	c #827474",
"c+	c #A79F9F",
"d+	c #A39E9E",
"e+	c #817172",
"f+	c #A69D9E",
"g+	c #959393",
"h+	c #868383",
"i+	c #837F7F",
"j+	c #817C7C",
"k+	c #7F7878",
"l+	c #7D7575",
"m+	c #7A7171",
"n+	c #786E6E",
"o+	c #746A6A",
"p+	c #726767",
"q+	c #706363",
"r+	c #6E6060",
"s+	c #6B5C5C",
"t+	c #695859",
"u+	c #665555",
"v+	c #645252",
"w+	c #614E4E",
"x+	c #5F4B4A",
"y+	c #5C4746",
"z+	c #5B4343",
"A+	c #7F6F6F",
". + @ # $ % & * . = - ; > , ' ) ! ~ { ] ^ / ",
"( _ : < [ } | 1 2 3 4 5 + 6 6 6 6 6 6 # 7 8 ",
"9 0 a b b b b b b c { ] ^ d e f g h i j k l ",
"m n a b b b b o c p q r d e s t u v w x k y ",
"z A a b b b B C D E ] F G H f I h J K L M N ",
"O P a b b o b Q R S T U V W t X Y Z `  .M ..",
"+.@.a b b b c #.] $.%.V &.*.I i =.x L -.;.>.",
",.'.a b b c { ).^ !.%.V ~.{.].w x ^./.(._.:.",
"<.[.a b b { E ^ }.|.V ~.1.2.3.K L 4.(.5.6.7.",
"8.9.a b c E 0.T %.a.V b.c.d.d.e.f.-.g.h.6.i.",
"j.k.a c l.E 0.%.V V ~.c.m.d.n.e.o.p.5.q.r.s.",
"t.4 u.Q R v.w.%.V x.~.y.d.z.e.A.B.5.C.D.r.E.",
"F.G.b E ] F w.V H.~.~.d.I.e.A.A.J.h.K.L.M.N.",
"O.P.D ).^ Q.e R.S.T.c.n.e.U.V.(.h.W.X.Y.Z.`.",
" ++ { .+F ++@+f g #+$+e.e.%+&+5.C.{.*+=+-+;+",
">+,+).'+)+!+~+g h {+d.e.A.7 ]+h.q.L.^+/+-+(+",
"_+:+] <+++[+}+u ].|+e.A.A.1+h.q.2+3+/+4+5+6+",
"7+:+^ 8+e f u ].3.K L V.(.h.C.{.9+/+0+a+5+b+",
"c+Z (.(.(.(.(.(.(.(.(.(.(.(.(.(.(.(.(.(.d+e+",
"f+g+h+i+j+k+l+m+n+o+p+q+r+s+t+u+v+w+x+y+z+A+"};
