/* XPM */
static char * region__button_select_active_xpm[] = {
"21 20 219 2",
"  	c None",
". 	c #594141",
"+ 	c #5B4545",
"@ 	c #5D4847",
"# 	c #604C4B",
"$ 	c #624F4F",
"% 	c #665555",
"& 	c #6C5B5B",
"* 	c #706161",
"= 	c #746666",
"- 	c #756969",
"; 	c #766A6A",
"> 	c #756A6A",
", 	c #766C6C",
"' 	c #796F6F",
") 	c #7B7272",
"! 	c #7D7676",
"~ 	c #807979",
"{ 	c #827D7D",
"] 	c #848181",
"^ 	c #878484",
"/ 	c #ABAAAA",
"( 	c #634F4F",
"_ 	c #929292",
": 	c #939393",
"< 	c #959595",
"[ 	c #9B9B9B",
"} 	c #9F9F9F",
"| 	c #A1A1A1",
"1 	c #9D9D9D",
"2 	c #989898",
"3 	c #949494",
"4 	c #B1B1B1",
"5 	c #645152",
"6 	c #9D9D9C",
"7 	c #9F9E9E",
"8 	c #A1A1A0",
"9 	c #A7A7A7",
"0 	c #B0B0B0",
"a 	c #B9B9B9",
"b 	c #BEBEBE",
"c 	c #BFBFBF",
"d 	c #BABABA",
"e 	c #B4B4B4",
"f 	c #AFAFAF",
"g 	c #ADADAD",
"h 	c #ACACAC",
"i 	c #AEAEAE",
"j 	c #B4B3B4",
"k 	c #C4C4C4",
"l 	c #D1D1D1",
"m 	c #665454",
"n 	c #9D9E9E",
"o 	c #A0A0A0",
"p 	c #A3A4A3",
"q 	c #ABABAB",
"r 	c #C7C8C8",
"s 	c #D0D0D0",
"t 	c #CACACA",
"u 	c #B6B6B6",
"v 	c #B0B1B0",
"w 	c #B1B2B2",
"x 	c #B4B5B5",
"y 	c #675655",
"z 	c #969696",
"A 	c #A5A5A5",
"B 	c #C1C1C1",
"C 	c #8D8D8C",
"D 	c #000000",
"E 	c #898989",
"F 	c #D9DAD9",
"G 	c #CCCDCC",
"H 	c #B7B7B7",
"I 	c #B3B3B3",
"J 	c #B0B0B1",
"K 	c #B1B2B1",
"L 	c #B6B5B6",
"M 	c #C5C6C6",
"N 	c #D3D3D3",
"O 	c #695958",
"P 	c #A09FA0",
"Q 	c #A2A1A2",
"R 	c #C8C7C7",
"S 	c #DAD9DA",
"T 	c #CCCCCC",
"U 	c #C0C0C0",
"V 	c #B4B5B4",
"W 	c #B2B2B2",
"X 	c #B4B4B3",
"Y 	c #C7C7C7",
"Z 	c #D5D5D5",
"` 	c #6A5B5B",
" .	c #A1A0A1",
"..	c #A4A3A3",
"+.	c #A8A8A8",
"@.	c #B5B5B5",
"#.	c #CBCACA",
"$.	c #D9D9D8",
"%.	c #CBCBCB",
"&.	c #C1C0C1",
"*.	c #B8B8B8",
"=.	c #C8C8C9",
"-.	c #D6D6D7",
";.	c #6C5D5D",
">.	c #A2A1A1",
",.	c #A5A4A4",
"'.	c #AAAAAA",
").	c #CBCCCB",
"!.	c #0C0C0C",
"~.	c #E6E6E6",
"{.	c #D8D8D8",
"].	c #CCCBCB",
"^.	c #B8B7B7",
"/.	c #6E5F60",
"(.	c #979797",
"_.	c #A3A3A2",
":.	c #A5A6A5",
"<.	c #ABABAA",
"[.	c #2E2E2E",
"}.	c #E3E3E3",
"|.	c #D7D7D7",
"1.	c #B9BAB9",
"2.	c #D9D9D9",
"3.	c #6F6261",
"4.	c #A4A3A4",
"5.	c #A6A6A7",
"6.	c #ABABAC",
"7.	c #CDCDCD",
"8.	c #505050",
"9.	c #E1E1E1",
"0.	c #C6C6C6",
"a.	c #BCBDBD",
"b.	c #BCBBBB",
"c.	c #DBDBDB",
"d.	c #716465",
"e.	c #A4A4A5",
"f.	c #A7A7A8",
"g.	c #6F6F6F",
"h.	c #DADADA",
"i.	c #BDBCBD",
"j.	c #DDDDDD",
"k.	c #726666",
"l.	c #8A8A8A",
"m.	c #CECECE",
"n.	c #BCBCBC",
"o.	c #DEDEDE",
"p.	c #746969",
"q.	c #A7A6A6",
"r.	c #A9A9A9",
"s.	c #B8B8B9",
"t.	c #535353",
"u.	c #EAEAEA",
"v.	c #CFCFCF",
"w.	c #E0E0E0",
"x.	c #766B6C",
"y.	c #B9B8B9",
"z.	c #CCCCCB",
"A.	c #E8E8E8",
"B.	c #BBBBBB",
"C.	c #D0D0CF",
"D.	c #E2E2E2",
"E.	c #786D6D",
"F.	c #AAA9AA",
"G.	c #B8B8B7",
"H.	c #909190",
"I.	c #525252",
"J.	c #E7E7E7",
"K.	c #D8D7D8",
"L.	c #C9C9C9",
"M.	c #E4E3E3",
"N.	c #787070",
"O.	c #999999",
"P.	c #AEAEAD",
"Q.	c #C3C2C3",
"R.	c #D2D2D2",
"S.	c #DFDFDF",
"T.	c #E9E9E9",
"U.	c #393939",
"V.	c #6E6E6E",
"W.	c #D6D6D6",
"X.	c #BDBDBD",
"Y.	c #E5E5E5",
"Z.	c #B2B3B2",
"`.	c #DEDEDD",
" +	c #161616",
".+	c #6D6D6D",
"++	c #C5C5C5",
"@+	c #7D7474",
"#+	c #B6B6B5",
"$+	c #C4C4C3",
"%+	c #151515",
"&+	c #4F4F4F",
"*+	c #C3C3C3",
"=+	c #D3D2D3",
"-+	c #7E7777",
";+	c #D4D4D4",
">+	c #E7E7E8",
",+	c #EDEDED",
"'+	c #EFEFEF",
")+	c #EEEEEE",
"!+	c #ECECEC",
"~+	c #ECEBEB",
"{+	c #EDEDEE",
"]+	c #F0F0F0",
"^+	c #F2F2F2",
"/+	c #C1C0C0",
"(+	c #C2C2C2",
"_+	c #C4C3C4",
":+	c #C6C5C6",
"<+	c #C9C9C8",
"[+	c #CBCBCA",
"}+	c #CECECD",
"|+	c #D1D0D0",
"1+	c #D5D4D5",
"2+	c #D9D9DA",
"3+	c #DFDEDF",
"4+	c #E1E0E0",
"5+	c #DBDBDC",
"6+	c #DCDCDC",
". + @ # $ % & * = - ; > , ' ) ! ~ { ] ^ / ",
"( _ _ _ : < [ } | | 1 2 3 : _ _ _ _ _ _ 4 ",
"5 < 6 7 8 9 0 a b c d e f g h i 0 4 j k l ",
"m < n o p q d r s s t c u 4 f f v w x k l ",
"y z } 8 A 0 B C D E F G c H I J K I L M N ",
"O z P Q 9 I R _ D D g S T U a V W X H Y Z ",
"` z  ...+.@.#.3 D D D s $.%.&.d u x *.=.-.",
";.z >.,.'.u ).< D D D !.~.{.].B d ^.*.t {.",
"/.(._.:.<.H T z D D D D [.}.|.t U d 1.%.2.",
"3.(.4.5.6.*.7.z D D D D D 8.9.N 0.a.b.7.c.",
"d.(.e.f.h *.7.z D D D D D D g.h.T U i.7.j.",
"k.2 A +.g *.7.z D D D D D D D l.m.B n.m.o.",
"p.2 q.r.i s.7.z D D D D D t.u.c.7.B n.v.w.",
"x.2 9 r.i y.z.3 D D D D D t.A.2.t b B.C.D.",
"E.2 +.F.i G.r H.D D D D D I.J.K.L.b B.s M.",
"N.O.r./ P.@.Q.R.S.T.U.D D D V.W.Y X.B.l Y.",
") O.r.q g Z.X.Y R.`.A. +D D .+N ++n.B.R.J.",
"@+[ W e #+*.X.$+T W.9.%+D &+w.Z t *+U =+A.",
"-+A ;+;+;+;+Z |.h.w.>+,+'+'+)+!+~+{+]+^+A.",
"/+(+_+:+Y <+[+}+|+1+2+3+4+9.w.o.5+6+j.S.S."};
