/* XPM */
static char * source__new_samp_xpm[] = {
"49 20 356 2",
"  	c #DFDFDF",
". 	c #E0E0E0",
"+ 	c #DFDEDF",
"@ 	c #DEDEDE",
"# 	c #DDDDDD",
"$ 	c #DCDCDC",
"% 	c #DBDBDC",
"& 	c #DADADB",
"* 	c #D9D9DA",
"= 	c #D9D9D9",
"- 	c #D8D8D8",
"; 	c #D7D7D7",
"> 	c #D6D6D6",
", 	c #D5D5D5",
"' 	c #D5D4D4",
") 	c #D4D3D3",
"! 	c #D3D2D3",
"~ 	c #D2D1D2",
"{ 	c #D1D0D1",
"] 	c #D0D0D1",
"^ 	c #D0CFD0",
"/ 	c #CFCECF",
"( 	c #CFCECE",
"_ 	c #CECDCD",
": 	c #CDCDCD",
"< 	c #CCCCCC",
"[ 	c #CCCCCB",
"} 	c #CBCBCB",
"| 	c #CACACA",
"1 	c #CACAC9",
"2 	c #C9C9C8",
"3 	c #C9C8C8",
"4 	c #C8C7C7",
"5 	c #C7C6C6",
"6 	c #C6C6C6",
"7 	c #C5C5C5",
"8 	c #C5C4C5",
"9 	c #C4C3C4",
"0 	c #C3C3C3",
"a 	c #C2C2C2",
"b 	c #C1C0C0",
"c 	c #FFFFFF",
"d 	c #FEFEFE",
"e 	c #FCFCFC",
"f 	c #FBFBFB",
"g 	c #FAFAFA",
"h 	c #F8F8F9",
"i 	c #F7F7F7",
"j 	c #F6F6F6",
"k 	c #F5F5F5",
"l 	c #F4F4F4",
"m 	c #F2F2F3",
"n 	c #F1F1F2",
"o 	c #F0F0F0",
"p 	c #EFEFEF",
"q 	c #EEEEEE",
"r 	c #ECECED",
"s 	c #EBEBEC",
"t 	c #EAE9EA",
"u 	c #E9E8E9",
"v 	c #E8E7E8",
"w 	c #E6E6E6",
"x 	c #E5E5E5",
"y 	c #E4E4E4",
"z 	c #E3E3E3",
"A 	c #E2E2E2",
"B 	c #B3B3B3",
"C 	c #7A7272",
"D 	c #FFFEFF",
"E 	c #C7C7C7",
"F 	c #C4C4C4",
"G 	c #C2C1C2",
"H 	c #C1C1C1",
"I 	c #C1C1C0",
"J 	c #C0C0C0",
"K 	c #BFBFBF",
"L 	c #BFBFBE",
"M 	c #BEBEBD",
"N 	c #BDBDBD",
"O 	c #BCBCBD",
"P 	c #BCBCBC",
"Q 	c #BCBCBB",
"R 	c #BBBBBA",
"S 	c #BBBABA",
"T 	c #BAB9B9",
"U 	c #B9B9B9",
"V 	c #B8B8B8",
"W 	c #B8B7B8",
"X 	c #796F6F",
"Y 	c #FDFDFC",
"Z 	c #C8C7C8",
"` 	c #C7C6C7",
" .	c #C4C3C3",
"..	c #C3C3C2",
"+.	c #C2C2C1",
"@.	c #BEBEBE",
"#.	c #BCBDBC",
"$.	c #BBBCBB",
"%.	c #BBBBBB",
"&.	c #BABABA",
"*.	c #B9B9BA",
"=.	c #B8B8B9",
"-.	c #B7B7B7",
";.	c #776D6C",
">.	c #DCDDDD",
",.	c #C8C8C8",
"'.	c #C6C7C7",
").	c #C6C5C6",
"!.	c #C6C5C5",
"~.	c #C5C4C4",
"{.	c #C0C1C1",
"].	c #BFC0C0",
"^.	c #BEBEBF",
"/.	c #BDBCBD",
"(.	c #BCBBBC",
"_.	c #BCBBBB",
":.	c #BABAB9",
"<.	c #B9B9B8",
"[.	c #B8B8B7",
"}.	c #B8B7B7",
"|.	c #B7B6B6",
"1.	c #B6B6B6",
"2.	c #746A6A",
"3.	c #DCDBDB",
"4.	c #F8F8F8",
"5.	c #C5C6C5",
"6.	c #C4C6C4",
"7.	c #C4C5C4",
"8.	c #C1C0C1",
"9.	c #BEBFBF",
"0.	c #BEBFBE",
"a.	c #BDBEBD",
"b.	c #BCBEBC",
"c.	c #BBBCBC",
"d.	c #BABBBB",
"e.	c #BABBBA",
"f.	c #B9BAB9",
"g.	c #B8B9B9",
"h.	c #B7B6B7",
"i.	c #B6B6B7",
"j.	c #B5B5B6",
"k.	c #B5B5B5",
"l.	c #736767",
"m.	c #DADBDB",
"n.	c #F6F6F5",
"o.	c #C5C6C6",
"p.	c #C4C5C5",
"q.	c #C4C4C5",
"r.	c #BDBEBE",
"s.	c #B9B8B9",
"t.	c #B9B8B8",
"u.	c #B4B4B4",
"v.	c #B3B4B4",
"w.	c #716465",
"x.	c #D9DAD9",
"y.	c #F3F3F3",
"z.	c #363636",
"A.	c #C3C4C4",
"B.	c #C2C3C3",
"C.	c #C1C1C2",
"D.	c #C0C0BF",
"E.	c #BDBDBC",
"F.	c #B7B7B8",
"G.	c #B7B7B6",
"H.	c #B6B6B5",
"I.	c #B5B4B4",
"J.	c #B4B3B3",
"K.	c #6F6262",
"L.	c #F1F1F1",
"M.	c #C3C2C3",
"N.	c #C1C2C1",
"O.	c #B4B4B5",
"P.	c #B2B2B2",
"Q.	c #6D5E5F",
"R.	c #D7D7D8",
"S.	c #777777",
"T.	c #181818",
"U.	c #020202",
"V.	c #0B0B0B",
"W.	c #2B2B2B",
"X.	c #787878",
"Y.	c #171616",
"Z.	c #030303",
"`.	c #060606",
" +	c #989999",
".+	c #BCBDBD",
"++	c #000000",
"@+	c #050505",
"#+	c #5B5A5B",
"$+	c #0A0A0A",
"%+	c #161616",
"&+	c #808080",
"*+	c #484848",
"=+	c #070707",
"-+	c #858585",
";+	c #B5B6B5",
">+	c #222222",
",+	c #9B9B9C",
"'+	c #B1B1B2",
")+	c #B1B1B1",
"!+	c #6B5C5D",
"~+	c #ECEDEC",
"{+	c #080808",
"]+	c #010101",
"^+	c #727272",
"/+	c #6C6C6D",
"(+	c #3F3F3F",
"_+	c #888888",
":+	c #6D6D6D",
"<+	c #717171",
"[+	c #585858",
"}+	c #242424",
"|+	c #404040",
"1+	c #5C5C5C",
"2+	c #3F4040",
"3+	c #5A5A5A",
"4+	c #1D1D1D",
"5+	c #343434",
"6+	c #B1B0B1",
"7+	c #B0B0B0",
"8+	c #695A59",
"9+	c #EAEAEA",
"0+	c #C2C3C2",
"a+	c #262626",
"b+	c #383838",
"c+	c #606060",
"d+	c #A8A8A7",
"e+	c #7C7C7C",
"f+	c #131313",
"g+	c #AFB0B0",
"h+	c #AEADAD",
"i+	c #B4B3B4",
"j+	c #ACACAC",
"k+	c #ACACAB",
"l+	c #B0B0AF",
"m+	c #B0AFAF",
"n+	c #685657",
"o+	c #D4D4D3",
"p+	c #E8E8E8",
"q+	c #737373",
"r+	c #1E1E1E",
"s+	c #0D0D0D",
"t+	c #ABABAB",
"u+	c #ABABAA",
"v+	c #AFAEAE",
"w+	c #AEAEAE",
"x+	c #665454",
"y+	c #D2D2D3",
"z+	c #E5E6E6",
"A+	c #C2C1C1",
"B+	c #707070",
"C+	c #6F6F6F",
"D+	c #0E0E0E",
"E+	c #696969",
"F+	c #464646",
"G+	c #474747",
"H+	c #333333",
"I+	c #AEADAE",
"J+	c #ADADAE",
"K+	c #635151",
"L+	c #D2D2D2",
"M+	c #BFC0BF",
"N+	c #313131",
"O+	c #0C0C0C",
"P+	c #797979",
"Q+	c #7A7A7A",
"R+	c #0F0F0F",
"S+	c #575657",
"T+	c #B4B4B3",
"U+	c #B1B1B0",
"V+	c #505050",
"W+	c #202020",
"X+	c #979697",
"Y+	c #ADACAD",
"Z+	c #ADACAC",
"`+	c #624F4E",
" @	c #D1D1D0",
".@	c #E1E1E1",
"+@	c #C2C2C3",
"@@	c #C0C1C0",
"#@	c #BDBDBE",
"$@	c #B9BABA",
"%@	c #B8B9B8",
"&@	c #B7B8B7",
"*@	c #B6B7B6",
"=@	c #B4B5B4",
"-@	c #B4B3B2",
";@	c #B3B3B2",
">@	c #AEAEAD",
",@	c #ADADAC",
"'@	c #ABABAC",
")@	c #604C4B",
"!@	c #CFCFCF",
"~@	c #C1C2C2",
"{@	c #BEBDBD",
"]@	c #BDBCBC",
"^@	c #B2B3B3",
"/@	c #AFAFAF",
"(@	c #AEAFAE",
"_@	c #ADADAD",
":@	c #ABACAC",
"<@	c #AAABAB",
"[@	c #AAAAAA",
"}@	c #5E4949",
"|@	c #CECFCF",
"1@	c #C0BFC0",
"2@	c #ACABAC",
"3@	c #ABAAAB",
"4@	c #ABAAAA",
"5@	c #AAAAA9",
"6@	c #5C4647",
"7@	c #5B4344",
"8@	c #888686",
"9@	c #868383",
"0@	c #858282",
"a@	c #848080",
"b@	c #837F7F",
"c@	c #827E7E",
"d@	c #817C7C",
"e@	c #807B7B",
"f@	c #807979",
"g@	c #7F7878",
"h@	c #7E7676",
"i@	c #7D7575",
"j@	c #7C7474",
"k@	c #7B7272",
"l@	c #7A7171",
"m@	c #797070",
"n@	c #786E6E",
"o@	c #776D6D",
"p@	c #756B6B",
"q@	c #736868",
"r@	c #726767",
"s@	c #716666",
"t@	c #716464",
"u@	c #706363",
"v@	c #6E6060",
"w@	c #6D5F5F",
"x@	c #6C5D5D",
"y@	c #6B5C5C",
"z@	c #6A5A5A",
"A@	c #695859",
"B@	c #685758",
"C@	c #675656",
"D@	c #665555",
"E@	c #655454",
"F@	c #645252",
"G@	c #624F4F",
"H@	c #614E4E",
"I@	c #604C4C",
"J@	c #5F4B4A",
"K@	c #5F4A49",
"L@	c #5D4847",
"M@	c #5C4746",
"N@	c #5B4444",
"O@	c #594041",
"  . + + @ # # $ % & & * = - - ; ; > , ' ) ) ! ~ { ] ^ ^ / ( _ : < [ } | 1 2 3 4 4 5 6 7 8 9 0 a b ",
"  c c c d e f g h i j k l m n o p q r s t u v w x y z A .                                     B C ",
"  D E E E E E E E E E E E E E E E E E E 6 6 7 7 F F 0 0 a G H I J K L M N O P Q Q R S T U V W B X ",
"@ Y E E E E E E E E E E E E E Z Z ` 6 6 7 8 9  .....+.+.I J K K @.@.@.N #.$.%.&.&.*.*.=.V -.-.B ;.",
">.g E E E E E E E E E E E ,.,.E '.6 ).!.~.F 0 0 a a H {.].K ^.^.@.N /.(._.R R :.:.<.<.[.}.|.1.B 2.",
"3.4.E E E E E E E E E Z Z E E 6 5.6.7.F  .0 a G 8.8.J ].9.0.a.a.b.#.c.d.e.:.f.g.g.V W h.i.j.k.B l.",
"m.n.E E E E E E E E E E E 6 o.p.q.F 0 0 a a H {.].].9.9.r.a.#.P P _.R :.T s.t.[.[.-.-.1.k.u.v.B w.",
"x.y.E E E E z.z.E E E 6 6 7 8 F A.B.a a C.H J D.L L @.@.N E.Q Q R &.&.U =.F.-.G.G.H.k.I.I.J.B B K.",
"- L.E E E E z.z.E 6 6 7 7 F 9 M.a a N.N.{.J K 9.r.r.N N P Q R S &.U U V [.G.1.j.j.O.u.B B P.P.B Q.",
"R.p E E E Z z.z.6 7 7 F F S.T.U.V.W.H X.Y.Z.`.W. +.+c.++@+#+$+%+&+*+=+%+-+1.;+++@+*+`.>+,+'+)+B !+",
"> ~+,.z.z.z.z.z.z.z.z.F 0 {+]+^+/+(+K _+:+<+[+]+}+Q %.++++|+1+++++2+3+++4+k.O.++++*+*+++5+6+7+B 8+",
", 9+'.z.z.z.z.z.z.z.z.0+a a+++b+c+d+L e+f+++++++U.%.&.++++g+k.++++h+u.++`.u.i+++]+j+k+]+{+l+m+B n+",
"o+p+6 6 o.p.z.z.0 a a H H k.q+*+++r+r.s+++<+_+]+++&.U ++@+W -.++@+k.k.++@+B B ++]+t+u+]+{+v+w+B x+",
"y+z+8 8 8 F z.z.a A+A+b J (+B+C+]+$+E.D+++E+F+++++U V ++@+h.1.++@+u.u.++@+P.)+++++G+G+++H+I+J+B K+",
"L+z F F F 0 z.z.H J J M+M+N+O+]+T.P+P Q+R+{+S+@+++V -.++@+1.k.++@+T+J.++@+)+U+++@+V+=+W+X+Y+Z+B `+",
" @.@B.B.+@G G H @@M+M+9.^.#@N P P Q R e.$@f.<.%@&@&@*@1.k.=@T+J.-@;@P.)+)+7+7+++@+w+>@,@,@j+'@B )@",
"!@  a a ~@{.{.].M+0.0.M {@]@P %.%.&.&.&.U V -.-.*@*@;+k.u.u.B ^@P.)+)+7+7+/@(@++@+_@Y+j+:@<@[@B }@",
"|@  H H 8.1@1@K K @.@.N P %.%.&.&.&.U U V [.G.1.k.k.u.u.B B P.)+U+U+7+/@/@w+>@,@,@j+2@3@4@5@5@B 6@",
": B B B B B B B B B B B B B B B B B B B B B B B B B B B B B B B B B B B B B B B B B B B B B B B 7@",
"< 8@9@9@0@a@b@c@d@e@f@g@h@i@j@k@l@m@n@o@p@2.q@r@s@t@u@K.v@w@x@y@z@A@B@C@D@E@F@K+G@H@I@J@K@L@M@N@O@"};
