/* XPM */
static char * simpler__display_bottom_xpm[] = {
"123 6 18 1",
" 	c None",
".	c #737F93",
"+	c #646E83",
"@	c #30394E",
"#	c #404A5F",
"$	c #061224",
"%	c #071324",
"&	c #000000",
"*	c #818A9D",
"=	c #737F92",
"-	c #717E91",
";	c #616A7F",
">	c #414B60",
",	c #030F21",
"'	c #727E92",
")	c #7F879A",
"!	c #828A9D",
"~	c #707D90",
"..+@#$%&&&&&&&&&&&&&&&&&&&&&&&&&&&&&&&&&&&&&&&&&&&&&&&&&&&&&&&&&&&&&&&&&&&&&&&&&&&&&&&&&&&&&&&&&&&&&&&&&&&&&&&&&&&&&&&&&&&*",
"==-;>#,&&&&&&&&&&&&&&&&&&&&&&&&&&&&&&&&&&&&&&&&&&&&&&&&&&&&&&&&&&&&&&&&&&&&&&&&&&&&&&&&&&&&&&&&&&&&&&&&&&&&&&&&&&&&&&&&&&**",
"''--;;)!!!!!!!!!!!!!!!!!!!!!!!!!!!!!!!!!!!!!!!!!!!!!!!!!!!!!!!!!!!!!!!!!!!!!!!!!!!!!!!!!!!!!!!!!!!!!!!!!!!!!!!!!!!!!!!!!!!-",
"---------------------------------------------------------------------------------------------------------------------------",
"---------------------------------------------------------------------------------------------------------------------------",
"-------------~~~~~~-------------------------~~~~~~-------------------------~~~~~~-------------------------~~~~~~-----------"};
