/* XPM */
static char * simpler__knob_separator_xpm[] = {
"1 30 27 1",
" 	c None",
".	c #707D90",
"+	c #6F7B90",
"@	c #6F7B8F",
"#	c #6F7A8F",
"$	c #6E7A8E",
"%	c #6E798E",
"&	c #6C778C",
"*	c #6C778B",
"=	c #697489",
"-	c #687287",
";	c #667084",
">	c #636D81",
",	c #606A7D",
"'	c #5F697B",
")	c #5D687A",
"!	c #5D677A",
"~	c #5E687A",
"{	c #5E687B",
"]	c #606A7E",
"^	c #616D81",
"/	c #636F84",
"(	c #647085",
"_	c #667286",
":	c #667287",
"<	c #677388",
"[	c #667387",
".",
"+",
"@",
"#",
"$",
"$",
"%",
"&",
"*",
"=",
"-",
";",
">",
",",
"'",
")",
"!",
"~",
"{",
"]",
"^",
"/",
"(",
"_",
":",
"<",
"[",
":",
":",
"_"};
