/* XPM */
static char * simpler__right_xpm[] = {
"14 80 77 1",
" 	c None",
".	c #7F8DA2",
"+	c #7E8CA1",
"@	c #7D8BA1",
"#	c #7E8BA1",
"$	c #7D8AA0",
"%	c #7C8A9F",
"&	c #7C899F",
"*	c #7C899E",
"=	c #7B899D",
"-	c #7B889D",
";	c #7A889C",
">	c #7A879B",
",	c #79879B",
"'	c #79869B",
")	c #79869A",
"!	c #78869A",
"~	c #788599",
"{	c #798699",
"]	c #798599",
"^	c #788498",
"/	c #788397",
"(	c #778397",
"_	c #778297",
":	c #778296",
"<	c #768296",
"[	c #768195",
"}	c #758195",
"|	c #758095",
"1	c #758094",
"2	c #748093",
"3	c #747F93",
"4	c #737F93",
"5	c #737F92",
"6	c #727E92",
"7	c #717E91",
"8	c #707D90",
"9	c #707C90",
"0	c #707B90",
"a	c #6F7B90",
"b	c #6F7B8F",
"c	c #6F7A8F",
"d	c #6E7A8E",
"e	c #6E798E",
"f	c #6C778C",
"g	c #6D788D",
"h	c #6C778B",
"i	c #697489",
"j	c #6B768B",
"k	c #687287",
"l	c #6B768A",
"m	c #667084",
"n	c #6A758A",
"o	c #636E81",
"p	c #606A7D",
"q	c #5F697C",
"r	c #677286",
"s	c #5E697A",
"t	c #667285",
"u	c #697589",
"v	c #6A768A",
"w	c #5E687A",
"x	c #667185",
"y	c #5E687B",
"z	c #667085",
"A	c #687388",
"B	c #616B7E",
"C	c #667186",
"D	c #616D81",
"E	c #657287",
"F	c #677489",
"G	c #636F84",
"H	c #667387",
"I	c #647085",
"J	c #667287",
"K	c #677388",
"L	c #667286",
".++@@@@@@@@@@@",
"+++@@@@@@@@@@@",
"###$$$$$$$$$$$",
"@@@$$$$$$$$$$$",
"@@@%%%%%%%%%%%",
"$$$&&&&&&&&&&&",
"$$$***********",
"%%%***********",
"&&&===========",
"***-----------",
"***-----------",
"===;;;;;;;;;;;",
"---;;;;;;;;;;;",
"--->>>>>>>>>>>",
";;;,,,,,,,,,,,",
";;;'''''''''''",
">>>)))))))))))",
",,,!!!!!!!!!!!",
"'''~~~~~~~~~~~",
")))~~~~~~~~~~~",
"!!!~~~~~~~~~~~",
"~~~~~~~~~~~~~~",
"~~~{{{{{{{{{{{",
"~~~]]]]]]]]]]]",
"~~~~~~~~~~~~~~",
"{{{^^^^^^^^^^^",
"]]]^^^^^^^^^^^",
"~~~^^^^^^^^^^^",
"^^^///////////",
"^^^(((((((((((",
"^^^___________",
"///:::::::::::",
"(((<<<<<<<<<<<",
"___[[[[[[[[[[[",
":::}}}}}}}}}}}",
"<<<|||||||||||",
"[[[11111111111",
"}}}11111111111",
"|||22222222222",
"11133333333333",
"11133333333333",
"22244444444444",
"33355555555555",
"33366666666666",
"44477777777777",
"55577777777777",
"66677777777777",
"77788888888888",
"77788888888888",
"77799999999999",
"88800000000000",
"aaaaaaaaaaaaaa",
"bbbbbbbbbbbbbb",
"cccccccccccccc",
"dddddddddddddd",
"dddddddddddddd",
"eeeeeeeeeeeeee",
"fggggggggggggg",
"hggggggggggggg",
"ijffffffffffff",
"klffffffffffff",
"mnffffffffffff",
"oijfffffffffff",
"pknjjjjjjjjjjj",
"qrnjjjjjjjjjjj",
"stuvvvvvvvvvvv",
"wxinnnnnnnnnnn",
"yxinnnnnnnnnnn",
"qzAiiiiiiiiiii",
"BCAiiiiiiiiiii",
"DEFFFFFFFFFFFF",
"GHFFFFFFFFFFFF",
"IJKKKKKKKKKKKK",
"LKKKKKKKKKKKKK",
"JKKKKKKKKKKKKK",
"KKKKKKKKKKKKKK",
"HHHHHHHHHHHHHH",
"JJJJJJJJJJJJJJ",
"JJJJJJJJJJJJJJ",
"LLLLLLLLLLLLLL"};
