/* XPM */
static char * controls__spinbox_spin_xpm[] = {
"11 17 29 1",
" 	c None",
".	c #CECECE",
"+	c #CBCBCB",
"@	c #CBCBCA",
"#	c #CACACB",
"$	c #CACACA",
"%	c #000000",
"&	c #CFCFD0",
"*	c #D5D5D5",
"=	c #E0E0E0",
"-	c #DCDCDC",
";	c #E2E2E1",
">	c #E7E8E8",
",	c #EEEDEE",
"'	c #C8C8C8",
")	c #CCCBCC",
"!	c #D0D0D0",
"~	c #D5D4D5",
"{	c #D9D9D9",
"]	c #DEDEDE",
"^	c #EFF0EF",
"/	c #E5E6E6",
"(	c #E6E6E5",
"_	c #E5E6E4",
":	c #E4E5E4",
"<	c #E4E4E4",
"[	c #E3E4E3",
"}	c #E3E3E3",
"|	c #E2E3E2",
".+@@#@@$$$$",
"%%%%%%%%%%&",
"%%%%%%%%%%*",
"%%%%=%%%%%-",
"%%%===%%%%-",
"%%=====%%%;",
"%=======%%>",
"%%%%%%%%%%,",
"%%%%%%%%%%'",
"%%%%%%%%%%'",
"%=======%%'",
"%%=====%%%)",
"%%%===%%%%!",
"%%%%=%%%%%~",
"%%%%%%%%%%{",
"%%%%%%%%%%]",
"^/(_:<<[[}|"};
