/* XPM */
static char * control_frame__left_xpm[] = {
"10 12 6 1",
" 	c None",
".	c #A8A9B2",
"+	c #DCDCDE",
"@	c #474A5B",
"#	c #3B3E4C",
"$	c #595D72",
".+@#$$$$$$",
".+@#$$$$$$",
".+@#$$$$$$",
".+@#$$$$$$",
".+@#$$$$$$",
".+@#$$$$$$",
".+@#$$$$$$",
".+@#$$$$$$",
".+@#$$$$$$",
".+@#$$$$$$",
".+@#$$$$$$",
".+@#$$$$$$"};
