/* XPM */
static char * controls__filter_lowpass_active_xpm[] = {
"25 20 214 2",
"  	c None",
". 	c #594041",
"+ 	c #5B4444",
"@ 	c #5C4746",
"# 	c #5F4A49",
"$ 	c #604D4D",
"% 	c #635050",
"& 	c #655353",
"* 	c #675656",
"= 	c #695859",
"- 	c #6B5C5C",
"; 	c #6D5F5F",
"> 	c #706363",
", 	c #726666",
"' 	c #746969",
") 	c #766C6C",
"! 	c #796F6F",
"~ 	c #7B7272",
"{ 	c #7D7575",
"] 	c #7E7777",
"^ 	c #807A7A",
"/ 	c #827D7D",
"( 	c #848080",
"_ 	c #868383",
": 	c #888686",
"< 	c #CCCCCC",
"[ 	c #5B4344",
"} 	c #929292",
"| 	c #939393",
"1 	c #969696",
"2 	c #999999",
"3 	c #9B9B9B",
"4 	c #9C9C9C",
"5 	c #959595",
"6 	c #CDCDCD",
"7 	c #5C4647",
"8 	c #9D9D9C",
"9 	c #9F9E9E",
"0 	c #A09FA0",
"a 	c #A1A1A0",
"b 	c #A2A2A2",
"c 	c #A4A4A4",
"d 	c #A7A7A6",
"e 	c #ACACAC",
"f 	c #B4B4B4",
"g 	c #BCBCBC",
"h 	c #C1C1C1",
"i 	c #C4C4C4",
"j 	c #C5C5C5",
"k 	c #C0C0C0",
"l 	c #B9B9B9",
"m 	c #B2B2B2",
"n 	c #B2B1B2",
"o 	c #BABABA",
"p 	c #D4D4D4",
"q 	c #CECFCF",
"r 	c #5F4A4A",
"s 	c #A3A3A3",
"t 	c #A6A7A7",
"u 	c #A8A8A8",
"v 	c #A9AAA9",
"w 	c #ABABAB",
"x 	c #ADADAD",
"y 	c #BDBEBE",
"z 	c #CACACA",
"A 	c #D6D6D6",
"B 	c #D7D8D7",
"C 	c #E1E1E1",
"D 	c #D8D8D8",
"E 	c #E0E0E0",
"F 	c #CBCBCB",
"G 	c #BDBEBD",
"H 	c #B5B6B6",
"I 	c #B3B4B4",
"J 	c #BBBBBB",
"K 	c #CFCFCF",
"L 	c #645150",
"M 	c #9D9D9D",
"N 	c #BBBBBA",
"O 	c #BEBEBD",
"P 	c #CCCCCB",
"Q 	c #D9D8D8",
"R 	c #E5E5E5",
"S 	c #E9E9E9",
"T 	c #5A615A",
"U 	c #000B00",
"V 	c #979B97",
"W 	c #EBEBEB",
"X 	c #DFDFDF",
"Y 	c #CCCDCC",
"Z 	c #BFBFBF",
"` 	c #B7B6B7",
" .	c #BBBCBC",
"..	c #D1D1D0",
"+.	c #6B5A59",
"@.	c #A9A9A9",
"#.	c #C9C9C9",
"$.	c #D0CFD0",
"%.	c #DEDEDE",
"&.	c #E8E8E7",
"*.	c #E7E7E7",
"=.	c #B4B7B4",
"-.	c #485048",
";.	c #ACAFAC",
">.	c #EDEEED",
",.	c #DDDDDD",
"'.	c #BEBEBE",
").	c #D2D2D2",
"!.	c #706060",
"~.	c #D7D7D7",
"{.	c #525952",
"].	c #4F574F",
"^.	c #797E79",
"/.	c #A7AAA7",
"(.	c #B6B9B6",
"_.	c #9FA39F",
":.	c #4B524B",
"<.	c #1C261C",
"[.	c #D6D7D6",
"}.	c #EAEAEA",
"|.	c #C1C0C1",
"1.	c #DADBDB",
"2.	c #D2D2D3",
"3.	c #756464",
"4.	c #B5B5B5",
"5.	c #DCDCDC",
"6.	c #2E372E",
"7.	c #051005",
"8.	c #071207",
"9.	c #DFE0DF",
"0.	c #D4D4D3",
"a.	c #766667",
"b.	c #3C453C",
"c.	c #040F04",
"d.	c #4C534C",
"e.	c #D5D6D5",
"f.	c #CACBCB",
"g.	c #D5D5D5",
"h.	c #776A69",
"i.	c #3D453D",
"j.	c #F0F0F0",
"k.	c #D1D1D1",
"l.	c #E2E3E2",
"m.	c #796B6C",
"n.	c #797F79",
"o.	c #D9D9D9",
"p.	c #E6E6E6",
"q.	c #D8D8D9",
"r.	c #7B6D6E",
"s.	c #010C01",
"t.	c #020D02",
"u.	c #131D13",
"v.	c #F1F1F1",
"w.	c #E2E2E2",
"x.	c #DADADA",
"y.	c #7D7171",
"z.	c #2B342B",
"A.	c #030E03",
"B.	c #061106",
"C.	c #0D180D",
"D.	c #949894",
"E.	c #EDEDED",
"F.	c #DCDDDC",
"G.	c #7E7374",
"H.	c #121C12",
"I.	c #4A514A",
"J.	c #EFEFEE",
"K.	c #DDDEDE",
"L.	c #807575",
"M.	c #232C23",
"N.	c #686E68",
"O.	c #F2F2F2",
"P.	c #DFDEDE",
"Q.	c #7F7676",
"R.	c #DBDBDB",
"S.	c #A7A9A6",
"T.	c #555C55",
"U.	c #242D24",
"V.	c #495149",
"W.	c #939793",
"X.	c #E4E4E4",
"Y.	c #F3F3F3",
"Z.	c #DFE0E0",
"`.	c #7F7675",
" +	c #CECECE",
".+	c #E1E1E2",
"++	c #E3E3E3",
"@+	c #E6E6E5",
"#+	c #F4F4F3",
"$+	c #7D7373",
"%+	c #C8C8C8",
"&+	c #CECECD",
"*+	c #D0D0CF",
"=+	c #D0D0D0",
"-+	c #D3D3D3",
";+	c #F3F2F3",
">+	c #7B7373",
",+	c #DCDCDD",
"'+	c #E7E7E8",
")+	c #ECEBEB",
"!+	c #EEEEEF",
"~+	c #C1C0C0",
"{+	c #C2C2C2",
"]+	c #C3C3C3",
"^+	c #C5C4C5",
"/+	c #C6C6C6",
"(+	c #C8C7C7",
"_+	c #C9C9C8",
":+	c #CFCECE",
"<+	c #D0D0D1",
"[+	c #D3D2D3",
"}+	c #D4D3D3",
"|+	c #DADADB",
"1+	c #DFDEDF",
". + @ # $ % & * = - ; > , ' ) ! ~ { ] ^ / ( _ : < ",
"[ } } } } } } } } | 1 2 3 4 4 4 3 2 5 | } } } } 6 ",
"7 } 8 9 0 a b c d e f g h i i j i k l f m n o p q ",
"r 5 s t u v w x f y z A B C D D E D F G H I J p K ",
"L M m N O k h i P Q R S T U U U V W X Y Z `  .A ..",
"+.@.#.$.%.X E C &.*.=.-.U U U U U ;.>.,.F g '.D ).",
"!.m ~.{.].^./.(._.:.U U U U U U U <.[.}.~.j |.1.2.",
"3.4.5.6.U U 7.8.U U U U U U U U U U <.9.C < j ,.0.",
"a.4.%.b.U U U U U U U U U U U U c.U U d.S e.f.X g.",
"h.4.X i.U U U U U U U U U U U U U U U c.j.E k.l.A ",
"m.4.E i.U U U U U U U U U U U U U U U U n.}.o.p.q.",
"r.4.E i.U U s.U U U U U U U U U U t.U U u.v.w.W x.",
"y.4.E z.U U c.U U U U A.8.c.c.B.C.A.U U t.D.*.E.F.",
"G.4.X H.U U U U U U U U U U U U U U U U U I.S J.K.",
"L.4.X M.U U U U U U U U U U U U U U U U A.N.S O.P.",
"Q.m R.S.T.i.i.i.i.i.i.i.i.i.i.i.i.z.U.V.W.Y X.Y.Z.",
"`.@. +5..+w.++X.X.X.R R @+p.p.p.*.*.*.p.p.w.R.#+E ",
"$+M h %+F < 6 &+ +*+=+k.).).-+p p p p -+-+k.< ;+E ",
">+5 A ~.D D D D D D D x.,+X C ++R '+}.)+!+v.O.O.X ",
"~+{+]+^+/+(+_+z P 6 :+$.<+[+}+g.~.D o.|+5.,.1+E X "};
