/* XPM */
static char * controls__display_xpm[] = {
"57 14 49 1",
" 	c None",
".	c #D1D1D1",
"+	c #D1D1D0",
"@	c #D1D0D1",
"#	c #D0D1D0",
"$	c #D0D0D0",
"%	c #D0D0CF",
"&	c #D0CFCF",
"*	c #CFCFCF",
"=	c #CFD0CF",
"-	c #CFCFD0",
";	c #CFCECF",
">	c #CFCFCE",
",	c #CECFCF",
"'	c #CECECE",
")	c #CECFCE",
"!	c #CDCDCE",
"~	c #CECDCE",
"{	c #CDCDCD",
"]	c #CDCECD",
"^	c #CACACA",
"/	c #D7D7D7",
"(	c #000000",
"_	c #DDDDDD",
":	c #D5D5D5",
"<	c #E2E3E3",
"[	c #DCDCDC",
"}	c #E9E9E8",
"|	c #E2E2E1",
"1	c #EFEFEF",
"2	c #E7E8E8",
"3	c #F4F5F5",
"4	c #EEEDEE",
"5	c #D2D2D3",
"6	c #C8C8C8",
"7	c #E4E5E4",
"8	c #D5D4D5",
"9	c #EDEEED",
"0	c #D9D9D9",
"a	c #DEDEDE",
"b	c #EFF0EF",
"c	c #EEF0EF",
"d	c #EEEFEE",
"e	c #EEEFED",
"f	c #EDEEEE",
"g	c #EDEDED",
"h	c #ECEDEC",
"i	c #E3E3E3",
"j	c #E2E3E2",
".+@#$$$%&%*=-*;>*,')''!~{]{-*;>*,'-*;>*,')''!~{]{-*;>*,^^",
"/(((((((((((((((((((((((((((((((((((((((((((((((((((((((-",
"_(((((((((((((((((((((((((((((((((((((((((((((((((((((((:",
"<((((((((((((((((((((((((((((((((((((((((((((((((((((((([",
"<((((((((((((((((((((((((((((((((((((((((((((((((((((((([",
"}(((((((((((((((((((((((((((((((((((((((((((((((((((((((|",
"1(((((((((((((((((((((((((((((((((((((((((((((((((((((((2",
"3(((((((((((((((((((((((((((((((((((((((((((((((((((((((4",
"5(((((((((((((((((((((((((((((((((((((((((((((((((((((((6",
"7((((((((((((((((((((((((((((((((((((((((((((((((((((((($",
"}(((((((((((((((((((((((((((((((((((((((((((((((((((((((8",
"9(((((((((((((((((((((((((((((((((((((((((((((((((((((((0",
"1(((((((((((((((((((((((((((((((((((((((((((((((((((((((a",
"111111111111111111bcdefgghh111111b111111bcdefgghh111111ij"};
