/* XPM */
static char * controls__range_begin_xpm[] = {
"7 7 3 1",
" 	c None",
".	c #000000",
"+	c #FFFFFF",
".++.   ",
".+.+.  ",
".+..+. ",
".+...+.",
".+..+. ",
".+.+.  ",
".++.   "};
