/* XPM */
static char * envelope__susloop_xpm[] = {
"49 20 389 2",
"  	c #DFDFDF",
". 	c #E0E0E0",
"+ 	c #DFDEDF",
"@ 	c #DEDEDE",
"# 	c #DDDDDD",
"$ 	c #DCDCDC",
"% 	c #DBDBDC",
"& 	c #DADADB",
"* 	c #D9D9DA",
"= 	c #D9D9D9",
"- 	c #D8D8D8",
"; 	c #D7D7D7",
"> 	c #D6D6D6",
", 	c #D5D5D5",
"' 	c #D5D4D4",
") 	c #D4D3D3",
"! 	c #D3D2D3",
"~ 	c #D2D1D2",
"{ 	c #D1D0D1",
"] 	c #D0D0D1",
"^ 	c #D0CFD0",
"/ 	c #CFCECF",
"( 	c #CFCECE",
"_ 	c #CECDCD",
": 	c #CDCDCD",
"< 	c #CCCCCC",
"[ 	c #CCCCCB",
"} 	c #CBCBCB",
"| 	c #CACACA",
"1 	c #CACAC9",
"2 	c #C9C9C8",
"3 	c #C9C8C8",
"4 	c #C8C7C7",
"5 	c #C7C6C6",
"6 	c #C6C6C6",
"7 	c #C5C5C5",
"8 	c #C5C4C5",
"9 	c #C4C3C4",
"0 	c #C3C3C3",
"a 	c #C2C2C2",
"b 	c #C1C0C0",
"c 	c #FFFFFF",
"d 	c #FEFEFE",
"e 	c #FCFCFC",
"f 	c #FBFBFB",
"g 	c #FAFAFA",
"h 	c #F8F8F9",
"i 	c #F7F7F7",
"j 	c #F6F6F6",
"k 	c #F5F5F5",
"l 	c #F4F4F4",
"m 	c #F2F2F3",
"n 	c #F1F1F2",
"o 	c #F0F0F0",
"p 	c #EFEFEF",
"q 	c #EEEEEE",
"r 	c #ECECED",
"s 	c #EBEBEC",
"t 	c #EAE9EA",
"u 	c #E9E8E9",
"v 	c #E8E7E8",
"w 	c #E6E6E6",
"x 	c #E5E5E5",
"y 	c #E4E4E4",
"z 	c #E3E3E3",
"A 	c #E2E2E2",
"B 	c #B3B3B3",
"C 	c #7A7272",
"D 	c #FFFEFF",
"E 	c #C7C7C7",
"F 	c #C4C4C4",
"G 	c #C2C1C2",
"H 	c #C1C1C1",
"I 	c #C1C1C0",
"J 	c #C0C0C0",
"K 	c #BFBFBF",
"L 	c #BFBFBE",
"M 	c #BEBEBD",
"N 	c #BDBDBD",
"O 	c #BCBCBD",
"P 	c #BCBCBC",
"Q 	c #BCBCBB",
"R 	c #BBBBBA",
"S 	c #BBBABA",
"T 	c #BAB9B9",
"U 	c #B9B9B9",
"V 	c #B8B8B8",
"W 	c #B8B7B8",
"X 	c #796F6F",
"Y 	c #FDFDFC",
"Z 	c #C8C7C8",
"` 	c #C7C6C7",
" .	c #C4C3C3",
"..	c #C3C3C2",
"+.	c #C2C2C1",
"@.	c #BEBEBE",
"#.	c #BCBDBC",
"$.	c #BBBCBB",
"%.	c #BBBBBB",
"&.	c #BABABA",
"*.	c #B9B9BA",
"=.	c #B8B8B9",
"-.	c #B7B7B7",
";.	c #776D6C",
">.	c #DCDDDD",
",.	c #C8C8C8",
"'.	c #C6C7C7",
").	c #C6C5C6",
"!.	c #C6C5C5",
"~.	c #C5C4C4",
"{.	c #C0C1C1",
"].	c #BFC0C0",
"^.	c #BEBEBF",
"/.	c #BDBCBD",
"(.	c #BCBBBC",
"_.	c #BCBBBB",
":.	c #BABAB9",
"<.	c #B9B9B8",
"[.	c #B8B8B7",
"}.	c #B8B7B7",
"|.	c #B7B6B6",
"1.	c #B6B6B6",
"2.	c #746A6A",
"3.	c #DCDBDB",
"4.	c #F8F8F8",
"5.	c #C5C6C5",
"6.	c #C4C6C4",
"7.	c #C4C5C4",
"8.	c #C1C0C1",
"9.	c #BEBFBF",
"0.	c #BEBFBE",
"a.	c #BDBEBD",
"b.	c #BCBEBC",
"c.	c #BBBCBC",
"d.	c #BABBBB",
"e.	c #BABBBA",
"f.	c #B9BAB9",
"g.	c #B8B9B9",
"h.	c #B7B6B7",
"i.	c #B6B6B7",
"j.	c #B5B5B6",
"k.	c #B5B5B5",
"l.	c #736767",
"m.	c #DADBDB",
"n.	c #F6F6F5",
"o.	c #C5C6C6",
"p.	c #C4C5C5",
"q.	c #C4C4C5",
"r.	c #606060",
"s.	c #626262",
"t.	c #BDBEBE",
"u.	c #B9B8B9",
"v.	c #B9B8B8",
"w.	c #B4B4B4",
"x.	c #B3B4B4",
"y.	c #716465",
"z.	c #D9DAD9",
"A.	c #F3F3F3",
"B.	c #C3C4C4",
"C.	c #C2C3C3",
"D.	c #C1C1C2",
"E.	c #C0C0BF",
"F.	c #60605F",
"G.	c #BDBDBC",
"H.	c #B7B7B8",
"I.	c #B7B7B6",
"J.	c #B6B6B5",
"K.	c #B5B4B4",
"L.	c #B4B3B3",
"M.	c #6F6262",
"N.	c #F1F1F1",
"O.	c #A0A0A0",
"P.	c #707070",
"Q.	c #656565",
"R.	c #696969",
"S.	c #7A7A7A",
"T.	c #636363",
"U.	c #666666",
"V.	c #656465",
"W.	c #C3C2C3",
"X.	c #9C9C9C",
"Y.	c #6D6D6D",
"Z.	c #666766",
"`.	c #757676",
" +	c #5F5F5F",
".+	c #616161",
"++	c #7E7E7D",
"@+	c #626161",
"#+	c #7C7C7C",
"$+	c #B2B2B2",
"%+	c #7B7B7B",
"&+	c #616160",
"*+	c #797979",
"=+	c #AFAFB0",
"-+	c #5A5A5B",
";+	c #5C5C5C",
">+	c #7E7E7E",
",+	c #5D5D5D",
"'+	c #6A6A6A",
")+	c #A7A7A7",
"!+	c #6D5E5F",
"~+	c #D7D7D8",
"{+	c #686868",
"]+	c #646464",
"^+	c #9F9E9F",
"/+	c #848484",
"(+	c #9A9A9A",
"_+	c #979797",
":+	c #807F7F",
"<+	c #BCBDBD",
"[+	c #5E5F5F",
"}+	c #606161",
"|+	c #7D7D7D",
"1+	c #5E5D5E",
"2+	c #828182",
"3+	c #828282",
"4+	c #808080",
"5+	c #5B5B5B",
"6+	c #787978",
"7+	c #B4B5B4",
"8+	c #5A5A5A",
"9+	c #7D7D7E",
"0+	c #595959",
"a+	c #737373",
"b+	c #6B5C5D",
"c+	c #ECEDEC",
"d+	c #787878",
"e+	c #818080",
"f+	c #959595",
"g+	c #B9BABA",
"h+	c #737374",
"i+	c #909090",
"j+	c #B2B3B2",
"k+	c #5E5E5E",
"l+	c #B6B5B6",
"m+	c #5E5E5F",
"n+	c #B3B3B4",
"o+	c #595A5A",
"p+	c #AFAFAF",
"q+	c #AFAEAF",
"r+	c #595859",
"s+	c #695A59",
"t+	c #EAEAEA",
"u+	c #C1C2C2",
"v+	c #9E9F9E",
"w+	c #888988",
"x+	c #727272",
"y+	c #636463",
"z+	c #C2C3C2",
"A+	c #9A9A99",
"B+	c #848483",
"C+	c #6E6E6E",
"D+	c #BDBCBC",
"E+	c #5C5D5D",
"F+	c #B5B5B4",
"G+	c #5C5C5B",
"H+	c #B1B1B1",
"I+	c #B3B2B3",
"J+	c #AEAEAD",
"K+	c #ADAEAD",
"L+	c #585858",
"M+	c #5C5B5B",
"N+	c #685657",
"O+	c #D4D4D3",
"P+	c #E8E8E8",
"Q+	c #9D9E9E",
"R+	c #9B9C9C",
"S+	c #686767",
"T+	c #858585",
"U+	c #7F7F7F",
"V+	c #969797",
"W+	c #5A5B5A",
"X+	c #777777",
"Y+	c #595958",
"Z+	c #7C7C7B",
"`+	c #7C7B7B",
" @	c #585757",
".@	c #717171",
"+@	c #665454",
"@@	c #D2D2D3",
"#@	c #E5E6E6",
"$@	c #6E6F6F",
"%@	c #A0A1A1",
"&@	c #A4A3A3",
"*@	c #6A6969",
"=@	c #656464",
"-@	c #888888",
";@	c #787778",
">@	c #B7B8B8",
",@	c #7A797A",
"'@	c #787979",
")@	c #AEAEAE",
"!@	c #787777",
"~@	c #767676",
"{@	c #AAAAAA",
"]@	c #B0B0B0",
"^@	c #807F80",
"/@	c #676667",
"(@	c #A1A1A2",
"_@	c #635151",
":@	c #D2D2D2",
"<@	c #BFC0BF",
"[@	c #BAB9BA",
"}@	c #B5B4B5",
"|@	c #B4B4B3",
"1@	c #B3B2B2",
"2@	c #B1B1B0",
"3@	c #B0B0AF",
"4@	c #5A595A",
"5@	c #AEADAE",
"6@	c #ADACAD",
"7@	c #ADACAC",
"8@	c #624F4E",
"9@	c #D1D1D0",
"0@	c #E1E1E1",
"a@	c #C2C2C3",
"b@	c #C0C1C0",
"c@	c #BDBDBE",
"d@	c #B8B9B8",
"e@	c #B7B8B7",
"f@	c #B6B7B6",
"g@	c #B4B3B2",
"h@	c #B3B3B2",
"i@	c #575757",
"j@	c #ADADAC",
"k@	c #ACACAC",
"l@	c #ABABAC",
"m@	c #604C4B",
"n@	c #CFCFCF",
"o@	c #BEBDBD",
"p@	c #B5B6B5",
"q@	c #B2B3B3",
"r@	c #AEAFAE",
"s@	c #ADADAD",
"t@	c #ABACAC",
"u@	c #AAABAB",
"v@	c #5E4949",
"w@	c #CECFCF",
"x@	c #C0BFC0",
"y@	c #ACABAC",
"z@	c #ABAAAB",
"A@	c #ABAAAA",
"B@	c #AAAAA9",
"C@	c #5C4647",
"D@	c #5B4344",
"E@	c #888686",
"F@	c #868383",
"G@	c #858282",
"H@	c #848080",
"I@	c #837F7F",
"J@	c #827E7E",
"K@	c #817C7C",
"L@	c #807B7B",
"M@	c #807979",
"N@	c #7F7878",
"O@	c #7E7676",
"P@	c #7D7575",
"Q@	c #7C7474",
"R@	c #7B7272",
"S@	c #7A7171",
"T@	c #797070",
"U@	c #786E6E",
"V@	c #776D6D",
"W@	c #756B6B",
"X@	c #736868",
"Y@	c #726767",
"Z@	c #716666",
"`@	c #716464",
" #	c #706363",
".#	c #6E6060",
"+#	c #6D5F5F",
"@#	c #6C5D5D",
"##	c #6B5C5C",
"$#	c #6A5A5A",
"%#	c #695859",
"&#	c #685758",
"*#	c #675656",
"=#	c #665555",
"-#	c #655454",
";#	c #645252",
">#	c #624F4F",
",#	c #614E4E",
"'#	c #604C4C",
")#	c #5F4B4A",
"!#	c #5F4A49",
"~#	c #5D4847",
"{#	c #5C4746",
"]#	c #5B4444",
"^#	c #594041",
"  . + + @ # # $ % & & * = - - ; ; > , ' ) ) ! ~ { ] ^ ^ / ( _ : < [ } | 1 2 3 4 4 5 6 7 8 9 0 a b ",
"  c c c d e f g h i j k l m n o p q r s t u v w x y z A .                                     B C ",
"  D E E E E E E E E E E E E E E E E E E 6 6 7 7 F F 0 0 a G H I J K L M N O P Q Q R S T U V W B X ",
"@ Y E E E E E E E E E E E E E Z Z ` 6 6 7 8 9  .....+.+.I J K K @.@.@.N #.$.%.&.&.*.*.=.V -.-.B ;.",
">.g E E E E E E E E E E E ,.,.E '.6 ).!.~.F 0 0 a a H {.].K ^.^.@.N /.(._.R R :.:.<.<.[.}.|.1.B 2.",
"3.4.E E E E E E E E E Z Z E E 6 5.6.7.F  .0 a G 8.8.J ].9.0.a.a.b.#.c.d.e.:.f.g.g.V W h.i.j.k.B l.",
"m.n.E E E E E E E E E E E 6 o.p.q.F 0 0 a a H {.].r.s.9.t.a.#.P P _.R :.T u.v.[.[.-.-.1.k.w.x.B y.",
"z.A.E E E E E E E E E 6 6 7 8 F B.C.a a D.H J E.L F.s.@.N G.Q Q R &.&.U =.H.-.I.I.J.k.K.K.L.B B M.",
"- N.E O.P.Q.R.S.E T.U.7 7 s.V.W.X.Y.s.Z.`.J K 9.t. +.+N k.++s.@+#+$+$+%+&+ +*+=+j.-+;+>+,+'+)+B !+",
"~+p E {+]+^+X./+6 T.Q.F F s.]+a Q..+(+_+:+K @.t.<+[+}+c.|+1+2+3+;+%+%+;+4+4+5+6+7+8+8+9+9+0+a+B b+",
"> c+,.d+]+e+f+g+o.T.Q.F 0 .+]+H h+r.#+i+j+@.N G.Q k+r.%..+,+1.l+;+}+ +5+B $+-+m+n+o+o+p+q+r+;+B s+",
", t+'.u+v+w+T.x+7.s.y+z+%..+T.J %.A+B+ +C+N D+P %.k+r.g+r.E+k.F+G+r. +5+$+H+8+k+I+0+0+J+K+L+M+B N+",
"O+P+6 /+Q+R+s.S+0 Y..+(+T+r.T.K U+_+V+ +]+D+k+Y.&.,+ +U %+;+4+4+5+*+*+W+>+>+8+X+$+0+Y+Z+`+ @.@B +@",
"@@#@8 #+R.T.$@%@a &@*@=@-@r.s.@.;@Q.F.'+(+%.,+s.U ,+ +>@H+,@ +[+'@)@)@!@,+,+~@{@]@L+8+^@5+/@(@B _@",
":@z F F F 0 ..+.H J J <@<@0.@.N N P P $.e.&.[@U V V -.I.1.1.k.}@w.|@L.1@$+H+2@3@3@L+4@5@5@6@7@B 8@",
"9@0@C.C.a@G G H b@<@<@9.^.c@N P P Q R e.g+f.<.d@e@e@f@1.k.7+|@L.g@h@$+H+H+]@]@p+p+i@0+j@j@k@l@B m@",
"n@  a a u+{.{.].<@0.0.M o@D+P %.%.&.&.&.U V -.-.f@f@p@k.w.w.B q@$+H+H+]@]@p+r@K+K+s@6@k@t@u@{@B v@",
"w@  H H 8.x@x@K K @.@.N P %.%.&.&.&.U U V [.I.1.k.k.w.w.B B $+H+2@2@]@p+p+)@J+j@j@k@y@z@A@B@B@B C@",
": B B B B B B B B B B B B B B B B B B B B B B B B B B B B B B B B B B B B B B B B B B B B B B B D@",
"< E@F@F@G@H@I@J@K@L@M@N@O@P@Q@R@S@T@U@V@W@2.X@Y@Z@`@ #M..#+#@###$#%#&#*#=#-#;#_@>#,#'#)#!#~#{#]#^#"};
