/* XPM */
static char * frame__section_envlfo_xpm[] = {
"53 18 311 2",
"  	c None",
". 	c #160A61",
"+ 	c #D1D1D1",
"@ 	c #D1D1D0",
"# 	c #D1D0D1",
"$ 	c #D0D1D0",
"% 	c #D0D0D0",
"& 	c #D0D0CF",
"* 	c #D0CFCF",
"= 	c #CFCFCF",
"- 	c #CFD0CF",
"; 	c #CFCFD0",
"> 	c #CFCECF",
", 	c #CFCFCE",
"' 	c #CECFCF",
") 	c #CECECE",
"! 	c #CECFCE",
"~ 	c #CDCDCE",
"{ 	c #CECDCE",
"] 	c #CDCDCD",
"^ 	c #CDCECD",
"/ 	c #CDCCCD",
"( 	c #CDCCCC",
"_ 	c #CCCCCC",
": 	c #CCCBCC",
"< 	c #CBCBCB",
"[ 	c #CBCCCC",
"} 	c #CBCBCA",
"| 	c #CACACB",
"1 	c #CACACA",
"2 	c #D7D7D7",
"3 	c #D7D7D6",
"4 	c #D6D7D6",
"5 	c #D6D7D7",
"6 	c #D6D6D6",
"7 	c #D7D6D6",
"8 	c #D5D6D6",
"9 	c #D6D6D5",
"0 	c #D6D5D6",
"a 	c #D5D5D6",
"b 	c #D5D5D5",
"c 	c #D4D5D4",
"d 	c #D5D4D4",
"e 	c #D4D4D4",
"f 	c #D4D3D4",
"g 	c #D4D3D3",
"h 	c #D3D3D3",
"i 	c #D3D3D4",
"j 	c #D2D3D3",
"k 	c #D2D2D3",
"l 	c #D2D3D2",
"m 	c #D2D2D2",
"n 	c #D1D2D2",
"o 	c #D2D2D1",
"p 	c #D2D1D1",
"q 	c #D0D0D1",
"r 	c #CFD0D0",
"s 	c #DDDDDD",
"t 	c #DDDDDC",
"u 	c #DCDCDD",
"v 	c #DDDCDC",
"w 	c #DCDDDC",
"x 	c #DCDCDC",
"y 	c #DBDCDB",
"z 	c #DBDBDC",
"A 	c #DBDBDB",
"B 	c #DBDADA",
"C 	c #DADBDA",
"D 	c #DADADA",
"E 	c #D9DADA",
"F 	c #D9DAD9",
"G 	c #D9D9D9",
"H 	c #D9D8D9",
"I 	c #D8D9D9",
"J 	c #D9D8D8",
"K 	c #D8D8D8",
"L 	c #D9D9D8",
"M 	c #D8D7D8",
"N 	c #D7D7D8",
"O 	c #D8D8D7",
"P 	c #D7D6D7",
"Q 	c #E2E3E3",
"R 	c #E3E2E3",
"S 	c #E2E3E2",
"T 	c #E2E2E2",
"U 	c #E2E1E1",
"V 	c #E1E2E2",
"W 	c #E2E2E1",
"X 	c #E2E1E2",
"Y 	c #E1E1E1",
"Z 	c #E0E1E1",
"` 	c #E1E1E0",
" .	c #E0E0E1",
"..	c #E0E1E0",
"+.	c #E0E0E0",
"@.	c #E0DFE0",
"#.	c #E0E0DF",
"$.	c #E0DFDF",
"%.	c #DFDFE0",
"&.	c #DFDFDF",
"*.	c #DFDEDF",
"=.	c #DEDEDF",
"-.	c #DEDEDE",
";.	c #DEDDDE",
">.	c #DDDDDE",
",.	c #E9E9E8",
"'.	c #E8E8E9",
").	c #000000",
"!.	c #E4E4E4",
"~.	c #E8E8E7",
"{.	c #7D7D7D",
"].	c #E7E7E7",
"^.	c #262626",
"/.	c #E7E6E6",
"(.	c #303030",
"_.	c #E6E6E6",
":.	c #E5E6E6",
"<.	c #909191",
"[.	c #6E6E6E",
"}.	c #E5E5E5",
"|.	c #E5E5E6",
"1.	c #5F5F5F",
"2.	c #706F70",
"3.	c #E5E5E4",
"4.	c #E4E5E4",
"5.	c #E3E4E3",
"6.	c #E3E3E3",
"7.	c #B2B2B2",
"8.	c #3A3A3A",
"9.	c #080808",
"0.	c #3B3B3B",
"a.	c #B3B3B3",
"b.	c #EFEFEF",
"c.	c #1A1A1A",
"d.	c #9B9C9B",
"e.	c #9B9B9B",
"f.	c #EDECED",
"g.	c #EEEEED",
"h.	c #121212",
"i.	c #ECEDED",
"j.	c #272727",
"k.	c #ECECEC",
"l.	c #838283",
"m.	c #878787",
"n.	c #484748",
"o.	c #C0C1C1",
"p.	c #EBEBEC",
"q.	c #EBEBEB",
"r.	c #1D1D1D",
"s.	c #B8B8B8",
"t.	c #EBEBEA",
"u.	c #EAEAEA",
"v.	c #191919",
"w.	c #999998",
"x.	c #989899",
"y.	c #989898",
"z.	c #E8E8E8",
"A.	c #C2C2C2",
"B.	c #151515",
"C.	c #838484",
"D.	c #838383",
"E.	c #141414",
"F.	c #090909",
"G.	c #C3C3C3",
"H.	c #E7E8E8",
"I.	c #F4F5F5",
"J.	c #F4F4F5",
"K.	c #292929",
"L.	c #F4F4F4",
"M.	c #F4F3F4",
"N.	c #0C0C0C",
"O.	c #7E7E7E",
"P.	c #F3F3F3",
"Q.	c #282828",
"R.	c #F2F2F2",
"S.	c #E6E6E5",
"T.	c #070707",
"U.	c #252525",
"V.	c #F2F1F2",
"W.	c #F1F1F1",
"X.	c #C9C9C9",
"Y.	c #131313",
"Z.	c #F1F1F0",
"`.	c #F0F0F0",
" +	c #F0F1F0",
".+	c #F0F0EF",
"++	c #5E5E5E",
"@+	c #A9A9A9",
"#+	c #EFEEEF",
"$+	c #EFEEEE",
"%+	c #A7A7A7",
"&+	c #EEEDEE",
"*+	c #232323",
"=+	c #222222",
"-+	c #434343",
";+	c #0E0E0E",
">+	c #C1C2C1",
",+	c #2E2E2E",
"'+	c #010101",
")+	c #B7B7B8",
"!+	c #848484",
"~+	c #636363",
"{+	c #C8C8C8",
"]+	c #6C6C6C",
"^+	c #494949",
"/+	c #212121",
"(+	c #C0C0C0",
"_+	c #D8D7D7",
":+	c #171717",
"<+	c #8B8C8B",
"[+	c #8C8B8B",
"}+	c #AFAEAE",
"|+	c #696969",
"1+	c #757575",
"2+	c #797979",
"3+	c #444444",
"4+	c #ACACAC",
"5+	c #333333",
"6+	c #CBCCCB",
"7+	c #CCCCCB",
"8+	c #C9CAC9",
"9+	c #828282",
"0+	c #8F8F8F",
"a+	c #DCDCDB",
"b+	c #242424",
"c+	c #DADAD9",
"d+	c #DAD9D9",
"e+	c #494A49",
"f+	c #242324",
"g+	c #D5D6D5",
"h+	c #D5D5D4",
"i+	c #BEBFBF",
"j+	c #2F2F2F",
"k+	c #D3D2D2",
"l+	c #C6C5C5",
"m+	c #232222",
"n+	c #CCCBCB",
"o+	c #505050",
"p+	c #909090",
"q+	c #8D8D8D",
"r+	c #181818",
"s+	c #919291",
"t+	c #919191",
"u+	c #909190",
"v+	c #D4D4D3",
"w+	c #BAB9B9",
"x+	c #020202",
"y+	c #6E6D6D",
"z+	c #908F8F",
"A+	c #343434",
"B+	c #8A8A8A",
"C+	c #8A8A89",
"D+	c #D1D0D0",
"E+	c #C5C5C4",
"F+	c #E1E0E0",
"G+	c #525252",
"H+	c #DFDEDE",
"I+	c #DEDDDD",
"J+	c #808080",
"K+	c #BABAB9",
"L+	c #DBDCDA",
"M+	c #757675",
"N+	c #BBBCBC",
"O+	c #A6A5A5",
"P+	c #363636",
"Q+	c #A5A5A5",
"R+	c #E8E9E8",
"S+	c #E7E8E7",
"T+	c #E7E8E6",
"U+	c #E7E7E6",
"V+	c #E6E7E6",
"W+	c #E6E5E5",
"X+	c #E4E4E3",
"Y+	c #E1E2E1",
"Z+	c #E0E1DF",
"`+	c #3E3E3E",
" @	c #BCBCBB",
".@	c #DEDEDD",
"+@	c #DBDBDA",
"@@	c #DBDBD9",
"#@	c #D8D9D8",
"$@	c #D7D8D7",
"%@	c #D6D5D5",
"&@	c #D5D4D5",
"*@	c #EDEEED",
"=@	c #EDEDEC",
"-@	c #ECEDEC",
";@	c #ECECEB",
">@	c #EBECEA",
",@	c #EAEBEA",
"'@	c #E9EAE9",
")@	c #E5E6E5",
"!@	c #E4E5E3",
"~@	c #E3E3E2",
"{@	c #DFDFDE",
"]@	c #DDDEDE",
"^@	c #DCDBDB",
"/@	c #EEF0EF",
"(@	c #EEEFEE",
"_@	c #EDEEEE",
":@	c #EDEDED",
"<@	c #ECEEED",
"[@	c #EBECEC",
"}@	c #EBECEB",
"|@	c #E9E9E9",
"1@	c #E8E7E7",
"2@	c #E4E3E3",
"3@	c #EFF0EF",
"4@	c #EEEFED",
"5@	c #EAEAE9",
"6@	c #E5E6E4",
". . . . . . . . . . . . . . . . . . . . . . . . . . . . . . . . . . . . . . . . . . . . . . . . . . . . . ",
". + @ # $ % % % & * & = - ; = > , = ' ) ! ) ) ~ { ] ^ ] ] ] ] / ( _ _ _ _ _ _ : _ < [ < } } | } } 1 1 1 1 ",
". 2 3 4 5 6 7 6 8 9 0 8 a b b b b c d e e e e e f g h i h h h h h j k l m m n o + p + + + + # q q q % r ; ",
". s t u v w x x x y z z A A A A A B C D D D D E F G G G G H I G J J K L K K M N O N 2 2 2 P 4 5 6 4 4 6 b ",
". Q R Q S T T T U V U W X Y Y Y Z Y `  ...+.@.#.$.%.%.%.&.&.&.&.*.=.-.=.-.-.;.s >.;.s >.s s t x v x x x x ",
". ,.'.).).).).).!.~.).).{.].].).^./.(.).) _.:.<.).[.}.|.1.2.3.).^.4.!.!.!.5.).).).).).&.6.7.8.9.9.0.a.U W ",
". b.b.).c.d.e.e.f.g.).).h.Y i.).j.k.l.).m.k.k.n.).o.p.q.r.s.t.).j.q.u.u.u.u.).v.w.x.y.z.A.9.B.C.D.E.F.G.H.",
". I.J.).K.J.L.M.L.M.).N.).O.P.).Q.P.6 ).8.R.S.T.U.V.W.X.Y.b.Z.).Q.Z.`. +`.`.).Q.b..+b.b.++).@+#+$+%+).1.&+",
". k m ).).).).*+* = ).=+-+;+>+).=+_ : ,+'+)+!+).~+{+{+]+^+{+{+)./+{+{+{+{+{+).).).)./+{+K.).(+{+{+(+).K.{+",
". _+3 ).:+<+[+y.e g ).*+}+'+|+).*++ @ 1+).2+3+).4+^ ] 5+m.6+7+).=+| 1 8+X.{+).B.9+9+0+{+K.).(+{+{+(+).K.{+",
". a+y ).b+c+d+G G H ).b+_+e+N.).f+g+h+i+'+j+F.*+k+m l+T.G.% % ).m+> = ) ^ ] ).=+_ n+n+< o+).p+8+{+q+).o+{+",
". ..#.).r+s+t+u+v+s ).U.a+w+x+).b+D c+G 5+).).y+3 6 z+A+9 b b ).:+B+C+B+{+o ).*+@ D+% ; 4+T.E.1+1+Y.9.4+: ",
". 4.4.).).).).).E+U ).U.F++.G+).U.H+-.I+J+).).K+A L+G+M+D d+G ).).).).).N+7 ).*+h+c d f e O+P+9.9.P+Q+@ % ",
". ,.,.R+H.S+T+U+V+S.W+}.3.4.X+X+6.6.S W Y+` ` Z++.#.`+ @-.-..@s t v t A A +@C @@d+G J #@J $@2 2 6 7 %@%@&@",
". *@*@=@-@k.;@>@t.,@,@'@,.,.z.z.S+].U+/.S.S.)@4.4.!@5.6.~@S S Y+Y Y ` +.+.$.{@{@H+]@s s t w x ^@A A D E G ",
". b.b.b.b.b.b.b./@(@(@_@*@:@<@k.-@[@>@}@u.u.'@|@,.,.~.~.1@].V+V+)@W+3.3.4.5.2@5.S ~@T Y `  .` #.&.&.{@-.-.",
". b.b.b.b.b.b.b.b.b.b.b.b.b.b.b.b.b.b.3@/@(@4@_@:@:@-@-@;@}@}@,@,@5@|@,.,.R+~.S+U+U+_.:.S.6@4.!.!.5.5.6.S ",
". . . . . . . . . . . . . . . . . . . . . . . . . . . . . . . . . . . . . . . . . . . . . . . . . . . . . "};
