/* XPM */
static char * frame__section_params_active_xpm[] = {
"53 18 295 2",
"  	c None",
". 	c #160A61",
"+ 	c #150960",
"@ 	c #A2A2A2",
"# 	c #A1A1A1",
"$ 	c #A0A0A0",
"% 	c #A1A0A0",
"& 	c #A1A0A1",
"* 	c #A2A2A1",
"= 	c #A1A2A2",
"- 	c #A2A3A2",
"; 	c #A2A3A3",
"> 	c #A3A3A2",
", 	c #A3A2A3",
"' 	c #A3A3A3",
") 	c #A3A3A4",
"! 	c #A3A4A3",
"~ 	c #A4A3A4",
"{ 	c #A3A4A4",
"] 	c #A4A4A4",
"^ 	c #A4A5A4",
"/ 	c #A4A4A5",
"( 	c #A5A6A6",
"_ 	c #A7A7A7",
": 	c #15095D",
"< 	c #A2A2A3",
"[ 	c #9D9E9E",
"} 	c #9B9B9B",
"| 	c #9A9A9A",
"1 	c #99999A",
"2 	c #999A9A",
"3 	c #9A9A99",
"4 	c #9E9D9D",
"5 	c #9E9E9F",
"6 	c #9E9E9E",
"7 	c #9C9C9C",
"8 	c #9C9B9B",
"9 	c #9D9D9D",
"0 	c #9D9D9C",
"a 	c #9D9D9E",
"b 	c #A0A09F",
"c 	c #9E9E9D",
"d 	c #9D9E9D",
"e 	c #9F9F9F",
"f 	c #A0A1A1",
"g 	c #140958",
"h 	c #959596",
"i 	c #8F8E8F",
"j 	c #8A8A8A",
"k 	c #898989",
"l 	c #8A8A89",
"m 	c #8A8989",
"n 	c #8C8B8C",
"o 	c #8E8D8E",
"p 	c #929292",
"q 	c #959494",
"r 	c #929293",
"s 	c #8E8E8E",
"t 	c #8C8C8C",
"u 	c #8B8A8B",
"v 	c #8B8B8A",
"w 	c #949393",
"x 	c #929392",
"y 	c #8F8E8E",
"z 	c #8C8D8D",
"A 	c #8D8D8D",
"B 	c #909090",
"C 	c #939393",
"D 	c #959595",
"E 	c #939494",
"F 	c #908F8F",
"G 	c #8D8D8C",
"H 	c #8C8C8D",
"I 	c #8E8E8D",
"J 	c #90908F",
"K 	c #9C9C9B",
"L 	c #130953",
"M 	c #989898",
"N 	c #89898A",
"O 	c #7C7C7C",
"P 	c #757575",
"Q 	c #737373",
"R 	c #727273",
"S 	c #727373",
"T 	c #7A7A7A",
"U 	c #818180",
"V 	c #848383",
"W 	c #818181",
"X 	c #767676",
"Y 	c #747475",
"Z 	c #757576",
"` 	c #7A7979",
" .	c #7E7E7E",
"..	c #777777",
"+.	c #7B7B7C",
"@.	c #828282",
"#.	c #848585",
"$.	c #787877",
"%.	c #757475",
"&.	c #747575",
"*.	c #757675",
"=.	c #767575",
"-.	c #797979",
";.	c #11084D",
">.	c #FFFFFF",
",.	c #FAFAFA",
"'.	c #D7D7D7",
").	c #606060",
"!.	c #7F7F7F",
"~.	c #707070",
"{.	c #747474",
"].	c #707170",
"^.	c #DADADA",
"/.	c #6B6B6B",
"(.	c #6E6E6F",
"_.	c #6C6C6C",
":.	c #A6A6A6",
"<.	c #808080",
"[.	c #717271",
"}.	c #717171",
"|.	c #B8B8B8",
"1.	c #626262",
"2.	c #868686",
"3.	c #E0E0E0",
"4.	c #FCFCFC",
"5.	c #F8F8F8",
"6.	c #E5E5E5",
"7.	c #969696",
"8.	c #838383",
"9.	c #11084B",
"0.	c #929393",
"a.	c #7B7B7B",
"b.	c #ECECEC",
"c.	c #919191",
"d.	c #ADADAC",
"e.	c #575756",
"f.	c #575757",
"g.	c #D6D6D6",
"h.	c #FEFEFE",
"i.	c #ADADAD",
"j.	c #646565",
"k.	c #686868",
"l.	c #656565",
"m.	c #B7B8B7",
"n.	c #D0D0D0",
"o.	c #5F5F5F",
"p.	c #616161",
"q.	c #D8D8D8",
"r.	c #656665",
"s.	c #696969",
"t.	c #666666",
"u.	c #F0F0F0",
"v.	c #5C5C5B",
"w.	c #F1F1F1",
"x.	c #595959",
"y.	c #989999",
"z.	c #BDBDBD",
"A.	c #10074A",
"B.	c #E3E3E3",
"C.	c #565656",
"D.	c #555555",
"E.	c #E9E9E9",
"F.	c #FBFBFB",
"G.	c #676666",
"H.	c #FDFDFD",
"I.	c #C9C9C9",
"J.	c #5E5E5E",
"K.	c #606061",
"L.	c #5F5E5E",
"M.	c #E2E2E2",
"N.	c #5B5B5B",
"O.	c #DBDBDB",
"P.	c #5A5A5A",
"Q.	c #6A6969",
"R.	c #616162",
"S.	c #EDEDED",
"T.	c #8B8C8C",
"U.	c #5D5D5D",
"V.	c #F3F3F3",
"W.	c #585958",
"X.	c #7F7F80",
"Y.	c #A4A5A5",
"Z.	c #999998",
"`.	c #E5E5E6",
" +	c #6A696A",
".+	c #858585",
"++	c #E8E8E8",
"@+	c #5C5C5C",
"#+	c #B4B4B4",
"$+	c #CDCDCD",
"%+	c #CECECE",
"&+	c #C8C8C8",
"*+	c #DDDDDD",
"=+	c #EEEEEE",
"-+	c #BCBCBC",
";+	c #9F9F9E",
">+	c #A9A9A9",
",+	c #838382",
"'+	c #F6F6F6",
")+	c #8B8B8B",
"!+	c #D9D9D9",
"~+	c #626363",
"{+	c #5A5A5B",
"]+	c #5A5B5A",
"^+	c #E7E7E7",
"/+	c #636363",
"(+	c #676767",
"_+	c #B2B2B2",
":+	c #CACACA",
"<+	c #868687",
"[+	c #AFAFAF",
"}+	c #878787",
"|+	c #EAEAEA",
"1+	c #848483",
"2+	c #6A6B6B",
"3+	c #C4C4C4",
"4+	c #C2C2C2",
"5+	c #6F6F6F",
"6+	c #5E5D5E",
"7+	c #E4E4E4",
"8+	c #5E5E5F",
"9+	c #626261",
"0+	c #7A797A",
"a+	c #8A8B8A",
"b+	c #B5B5B5",
"c+	c #A8A8A8",
"d+	c #8D8E8D",
"e+	c #E6E6E6",
"f+	c #ACACAC",
"g+	c #D2D2D2",
"h+	c #646364",
"i+	c #646464",
"j+	c #727272",
"k+	c #B9B9B9",
"l+	c #999999",
"m+	c #D3D3D3",
"n+	c #807F7F",
"o+	c #B7B7B7",
"p+	c #BABABA",
"q+	c #6D6D6D",
"r+	c #4E4E4E",
"s+	c #545454",
"t+	c #535353",
"u+	c #4D4D4D",
"v+	c #525252",
"w+	c #434343",
"x+	c #DFDFDF",
"y+	c #B0B0B0",
"z+	c #484848",
"A+	c #4A4A4A",
"B+	c #C7C7C7",
"C+	c #7C7B7B",
"D+	c #666667",
"E+	c #6F706F",
"F+	c #5C5C5D",
"G+	c #5D5D5C",
"H+	c #5C5D5C",
"I+	c #5C5D5D",
"J+	c #5D5C5D",
"K+	c #5D5E5D",
"L+	c #5E5D5D",
"M+	c #676868",
"N+	c #5E5E5D",
"O+	c #5F6060",
"P+	c #969695",
"Q+	c #888989",
"R+	c #8D8C8D",
"S+	c #898888",
"T+	c #828283",
"U+	c #7E7F7F",
"V+	c #7F7E7F",
"W+	c #807F80",
"X+	c #818282",
"Y+	c #878788",
"Z+	c #888888",
"`+	c #828182",
" @	c #7F8080",
".@	c #7F7F7E",
"+@	c #7F7E7E",
"@@	c #939292",
"#@	c #AAAAAA",
"$@	c #A5A5A5",
"%@	c #BEBDBD",
"&@	c #BCBCBD",
"*@	c #BCBCBB",
"=@	c #BBBBBB",
"-@	c #BCBBBB",
";@	c #BBBBBA",
">@	c #BABBBA",
",@	c #BBBABA",
"'@	c #BABBBB",
")@	c #BABABB",
"!@	c #BBBABB",
"~@	c #BBBCBC",
"{@	c #BBBCBB",
". . . + + + + + + + + + + + + + + + + + + + + + + + + + + + + + + + + + + + + + + + + + + + + + + + + + . ",
"+ @ @ # $ $ $ $ $ $ $ $ $ $ $ $ $ $ % $ & % # & # # # # * @ @ = @ - ; > , , ' ' ) ) ! ' ~ { ] ] ] ^ / ( _ ",
": < @ [ } | 1 2 3 | 2 3 | | } } 4 5 6 7 7 } 8 7 7 6 5 6 9 7 0 a b # b c 9 4 4 [ a c d 6 6 6 6 6 6 e f ] _ ",
"g @ 6 h i j k k k k k k l m n o p q r s t u v t s p w x y z A B C D E F A A G t H t z G A A A A I J C K ] ",
"L 6 M N O P Q Q R Q S Q Q Q P T U V W T X Y P Z `  .W  .T ....+.@.#.@.O $.Z P Y %.&.&.P *.=.=.X X -.W s 6 ",
";.7 C  .>.>.>.,.'...).).< >.>.!.~.{.].>.>.>.,.^.!./.(._.:.>.>.<.[.P }.>.>.|.1.1.|.>.>.1.1.2.3.4.5.6.7.8.M ",
"9.[ 0.a.>.b.c.d.>.^.e.f.g.h.>.i.j.k.l.>.b.p m.>.n.o.p.o.q.h.>.i.r.s.t.>.>.u.v.v.w.>.>.x.x.b.,.' y.z.} !.M ",
"A.# D O >.B.C.D.E.F.D.G.H.I.u.B.J.K.L.>.M.C.N.>.O.x.P.Q.H.I.u.B.o.R.o.>.S.F.T.A F.S.>.f.U.>.V.~.W.U.s.X.} ",
"A.Y.Z.!.>.`. +.+F.++f.$ >.p z.>.X @+N.>.b.y #+>.6 x.x.# >.p z.>.X U.@+>.B.I.$+%+&+B.>.x.x.*+>.>.=+-+{.8.;+",
"A.>+a ,+>.>.>.>.'+)+P.!+F.~+k >.i.{+]+>.>.>.>.^+t.P.P.!+F./+k >.i.N.v.>.B.z H.H.t B.>.N.N.(+_+3.h.>.:+<+@ ",
"A.[+@ }+>.|+}+1+2+1.}.h.>.>.>.>.6.U.U.>.B./+3+>.4+U.5+h.>.>.>.>.6.6+J.>.7+1.w.w.p.7+>.J.8+9+8+8+0+>.B.a+_ ",
"9.b+c+d+>.e+}.X X ~.f+>.|.M M g+>.!.h+>.7+i+j+,.F.{.>+>.k+l+l+m+>.n+i+>.6.s.l+l+s.6.>.l.l.=+o+9 p+>.%+B f+",
";.q+(+x.>.3.r+s+t+u+q.h.v+w+w+8.>.] w+>.x+w+w+y+>.:.'.h.v+w+w+8.>.] w+>.x+z+A+A+z+x+>.w+w+k+++4.'+B+U.x.(+",
"L W C+~.D+l./.~.E+s./+o.U.U.F+G+G+@+H+@+@+F+I+@+@+U.G+G+U.J+F+@+J+K+K+L+).i+k.M+i+).K+N+L+F+J+K+N+O+l.~.a.",
"g P+0.t .+.+Q+G R+S+T+<.U+ . . . . . . . . . . . . . . . . . . . .!.V+W+X+.+Y+Z+.+`+ @.@.@ . .+@+@<.1+)+@@",
": #@c+$@@ @ ] :.:.] # $ e e e e e e e e e e e e e e e e e e e e e e e $ # ' $@$@' # $ e e e e e e $ # $@c+",
"+ z.%@&@*@=@-+-+-+-+-@p+;@>@,@,@p+,@>@>@p+'@'@>@,@>@)@!@>@)@p+>@p+p+;@>@*@~@-+z.{@-+>@>@p+>@p+p+;@p+=@-+z.",
". . . + + + + + + + + + + + + + + + + + + + + + + + + + + + + + + + + + + + + + + + + + + + + + + + + + . "};
