/* XPM */
static char * frame__section_regions_active_xpm[] = {
"53 18 257 2",
"  	c None",
". 	c #160A61",
"+ 	c #150960",
"@ 	c #A2A2A2",
"# 	c #A0A0A0",
"$ 	c #A1A0A0",
"% 	c #A1A0A1",
"& 	c #A1A1A1",
"* 	c #A2A2A1",
"= 	c #A1A2A2",
"- 	c #A2A3A2",
"; 	c #A2A3A3",
"> 	c #A3A3A2",
", 	c #A3A2A3",
"' 	c #A3A3A3",
") 	c #A3A3A4",
"! 	c #A3A4A3",
"~ 	c #A4A3A4",
"{ 	c #A3A4A4",
"] 	c #A4A4A4",
"^ 	c #A4A5A4",
"/ 	c #A4A4A5",
"( 	c #A4A5A5",
"_ 	c #A6A6A6",
": 	c #15095D",
"< 	c #9D9D9E",
"[ 	c #9C9C9C",
"} 	c #999A9A",
"| 	c #999999",
"1 	c #99999A",
"2 	c #9A9A99",
"3 	c #9A9A9A",
"4 	c #9B9A9A",
"5 	c #9A9A9B",
"6 	c #9B9B9B",
"7 	c #9C9B9B",
"8 	c #9B9B9C",
"9 	c #9B9C9C",
"0 	c #9D9D9C",
"a 	c #9C9C9D",
"b 	c #9D9D9D",
"c 	c #9E9D9D",
"d 	c #9D9E9E",
"e 	c #9E9E9D",
"f 	c #9D9E9D",
"g 	c #9E9E9E",
"h 	c #9E9F9F",
"i 	c #140959",
"j 	c #969696",
"k 	c #8E8E8E",
"l 	c #8A8A8B",
"m 	c #898989",
"n 	c #888989",
"o 	c #8A8989",
"p 	c #89898A",
"q 	c #898A89",
"r 	c #8A898A",
"s 	c #8A8A89",
"t 	c #8A8A8A",
"u 	c #8B8A8A",
"v 	c #8A8B8A",
"w 	c #8A8B8B",
"x 	c #8B8B8B",
"y 	c #8B8C8C",
"z 	c #8C8B8B",
"A 	c #8C8C8C",
"B 	c #8C8C8B",
"C 	c #8C8C8D",
"D 	c #8C8D8D",
"E 	c #8D8D8C",
"F 	c #8D8D8D",
"G 	c #8E8E8D",
"H 	c #8F8F8F",
"I 	c #949493",
"J 	c #130954",
"K 	c #7C7C7C",
"L 	c #757575",
"M 	c #737373",
"N 	c #727272",
"O 	c #737272",
"P 	c #727273",
"Q 	c #727373",
"R 	c #737374",
"S 	c #747474",
"T 	c #747373",
"U 	c #747374",
"V 	c #737474",
"W 	c #757574",
"X 	c #747475",
"Y 	c #757475",
"Z 	c #747575",
"` 	c #757675",
" .	c #767575",
"..	c #767676",
"+.	c #797979",
"@.	c #818181",
"#.	c #8E8F8F",
"$.	c #12084F",
"%.	c #808080",
"&.	c #FFFFFF",
"*.	c #FAFAFA",
"=.	c #D9D9D9",
"-.	c #7A797A",
";.	c #606060",
">.	c #626262",
",.	c #D0D0D0",
"'.	c #F6F6F6",
").	c #FBFBFB",
"!.	c #E7E7E7",
"~.	c #A8A8A8",
"{.	c #616161",
"].	c #E4E4E4",
"^.	c #828282",
"/.	c #D6D6D6",
"(.	c #F8F8F8",
"_.	c #D5D5D5",
":.	c #626161",
"<.	c #616262",
"[.	c #AAAAAA",
"}.	c #868686",
"|.	c #E0E0E0",
"1.	c #FCFCFC",
"2.	c #E5E5E5",
"3.	c #838383",
"4.	c #12084E",
"5.	c #7B7C7C",
"6.	c #ECECEC",
"7.	c #929292",
"8.	c #B7B7B7",
"9.	c #CECECE",
"0.	c #575657",
"a.	c #565757",
"b.	c #909090",
"c.	c #575757",
"d.	c #6F6F6F",
"e.	c #F5F5F5",
"f.	c #949494",
"g.	c #B3B3B3",
"h.	c #CACBCA",
"i.	c #575858",
"j.	c #585857",
"k.	c #E2E2E2",
"l.	c #585858",
"m.	c #F9F9F9",
"n.	c #EFEFEF",
"o.	c #F0F0F0",
"p.	c #595858",
"q.	c #F1F1F1",
"r.	c #595959",
"s.	c #E3E3E3",
"t.	c #BDBDBD",
"u.	c #7F7F7F",
"v.	c #11074C",
"w.	c #7D7D7D",
"x.	c #565656",
"y.	c #5B5B5B",
"z.	c #DBDBDB",
"A.	c #555555",
"B.	c #555556",
"C.	c #565555",
"D.	c #565556",
"E.	c #555656",
"F.	c #BABABA",
"G.	c #BCBCBC",
"H.	c #888889",
"I.	c #BBBBBB",
"J.	c #FEFEFE",
"K.	c #A7A7A7",
"L.	c #5D5D5D",
"M.	c #F3F3F3",
"N.	c #707170",
"O.	c #585859",
"P.	c #696969",
"Q.	c #11084D",
"R.	c #7F8080",
"S.	c #B4B4B4",
"T.	c #DCDCDC",
"U.	c #8C8D8C",
"V.	c #8F8E8E",
"W.	c #8F8F8E",
"X.	c #585758",
"Y.	c #575857",
"Z.	c #5E5E5E",
"`.	c #C8C8C8",
" +	c #DDDDDD",
".+	c #EEEEEE",
"++	c #848483",
"@+	c #E6E6E6",
"#+	c #666666",
"$+	c #595A59",
"%+	c #5A595A",
"&+	c #888888",
"*+	c #5A5A59",
"=+	c #5A5A5A",
"-+	c #5F5F5F",
";+	c #5B5B5A",
">+	c #FDFDFD",
",+	c #ACACAC",
"'+	c #676867",
")+	c #B2B2B2",
"!+	c #CACACA",
"~+	c #878787",
"{+	c #636363",
"]+	c #C4C4C4",
"^+	c #C2C2C2",
"/+	c #5C5D5D",
"(+	c #5C5C5C",
"_+	c #BEBEBE",
":+	c #5D5D5E",
"<+	c #C7C7C7",
"[+	c #5E5E5F",
"}+	c #5F5F5E",
"|+	c #616162",
"1+	c #5F5E5F",
"2+	c #7A7A7A",
"3+	c #656465",
"4+	c #717171",
"5+	c #EDEDED",
"6+	c #989898",
"7+	c #ABABAB",
"8+	c #9D9C9D",
"9+	c #646464",
"0+	c #656564",
"a+	c #656565",
"b+	c #DFDFDF",
"c+	c #434343",
"d+	c #B0B0B0",
"e+	c #676767",
"f+	c #CBCBCB",
"g+	c #DEDEDE",
"h+	c #6B6B6B",
"i+	c #F7F7F7",
"j+	c #6A6A6A",
"k+	c #B9B9B9",
"l+	c #E8E8E8",
"m+	c #707070",
"n+	c #5C5D5C",
"o+	c #5D5C5C",
"p+	c #5C5C5D",
"q+	c #5D5D5C",
"r+	c #5D5C5D",
"s+	c #5E5E5D",
"t+	c #5D5E5E",
"u+	c #838484",
"v+	c #7E7F7F",
"w+	c #7E7E7E",
"x+	c #7F7E7E",
"y+	c #848484",
"z+	c #A5A5A5",
"A+	c #9F9F9F",
"B+	c #BCBBBB",
"C+	c #BABABB",
"D+	c #BBBBBA",
"E+	c #BABBBA",
"F+	c #BBBABA",
"G+	c #BABBBB",
"H+	c #BBBABB",
". + + + + + + + + + + + + + + + + + + + + + + + + + + + + + + + + + + + + + + + + + + + + + + + + + + + + ",
"+ @ # # # # # # # # # # # # # # # # $ # % $ & % & & & & * @ @ = @ - ; > , , ' ' ) ) ! ' ~ { ] ] ] ^ / ( _ ",
": < [ } | | 1 } 2 3 } 2 3 3 3 3 4 5 6 6 6 6 7 8 6 8 8 9 [ [ 0 a 0 b 0 0 b c c d < e f g g g g g g g h & ] ",
"i j k l m m m n m m m m m m m m m o p q o r s t t t u v u w x x x x y z x A B A C A D E F F F F G G H I [ ",
"J m K L M M N O P M Q M M M M M M M M M M R S R T U V S S S S S S S S S W X S X Y Z Z L `  . .` ....+.@.#.",
"$.%.&.&.&.*.=.-.;.;.&.&.&.&.&.>.;.K ,.'.).!.~.{.{.&.].{.{.^./.(.(._.@.:.<.&.&.[.>.>.&.].>.>.}.|.1.(.2.j 3.",
"4.5.&.6.7.8.&.9.0.a.&.6.b.b.b.c.d.'.e.[.f.g.h.i.j.&.k.l.M m.n.# # o.(.N p.&.&.q.;.r.&.s.r.r.6.*.' | t.6 u.",
"v.w.&.s.x.y.&.z.A.B.&.k.C.x.D.E.F.&.F x.x.x.l.x.x.&.k.x.G.&.}.x.x.H.&.I.a.&.'.J.K.c.&.k.c.L.&.M.N.O.L.P.%.",
"Q.R.&.6.k S.&.b c.c.&.&.&.&.k.c.T.&.L.c.U.V.W.X.Y.&.k.l.T.&.L.l.l.Z.&.T.l.&.s.`.M.>.&.s.r.r. +&.&..+G.S ++",
"Q.3.&.&.&.&.@+#+$+%+&.6.7.7.&+*+T.&.;.=+*.&.&.=+=+&.s.=+T.&.-+=+=+;.&.T.;+&.s...>+,+&.s.y.y.'+)+|.J.&.!+~+",
"v.&+&.].{+]+&.^+/+(+&.s.L.L.L.L.t.&.k L.Z.s.&.L.L.&.s.L._+&.x :+Z.A &._+Z.&.s.Z.<+e.&.s.[+}+|+[+1+2+&.s.t ",
"4.k &.2.3+4+*.).M {+&.5+6+6+6+P.2+(.M.7+8+q.&.9+9+&.].9+w.m.n._ _ o.(.w.0+&.2.a+K >+&.2.a+a+.+8.b F.&.9.b.",
"$.=+&.b+c+c+d+&._ c+&.&.&.&.&.=+c+e+f+'.*.g+@ c+c+&.b+c+c+h+9.i+i+9.j+c+c+&.b+c+c+k+&.b+c+c+k+l+1.'.<+L.r.",
"J m+a+-+:+:+L.(+n+o+p+n+(+(+p+q+q+(+n+(+(+p+/+(+(+L.q+q+L.r+p+(+r+n+n+o+/+o+L./+n+/+n+q+o+p+r+n+s+t+-+a+m+",
"i B u+%.v+u.w+w+w+w+w+w+w+w+w+w+w+w+w+w+w+w+w+w+w+w+w+w+w+w+w+w+w+w+w+w+w+w+w+w+w+w+w+w+w+w+w+w+x+v+%.y+u ",
": z+@ # A+A+A+A+A+A+A+A+A+A+A+A+A+A+A+A+A+A+A+A+A+A+A+A+A+A+A+A+A+A+A+A+A+A+A+A+A+A+A+A+A+A+A+A+A+A+# & z+",
"+ G.B+C+D+F.E+F.F.D+F+F.D+E+F+F+F.F+E+E+F.G+G+E+F+E+C+H+E+C+F.E+F.F.D+E+D+G+F.I.E+I.E+E+F.E+F.F.D+F.F.I.G.",
". + + + + + + + + + + + + + + + + + + + + + + + + + + + + + + + + + + + + + + + + + + + + + + + + + + + + "};
