/* XPM */
static char * frame__section_begin_xpm[] = {
"13 26 82 1",
" 	c None",
".	c #000000",
"+	c #160A61",
"@	c #D0D0D0",
"#	c #CFD0D0",
"$	c #D0D1D0",
"%	c #D2D2D2",
"&	c #D3D2D2",
"*	c #D2D3D2",
"=	c #D2D2D3",
"-	c #D3D2D3",
";	c #D5D5D4",
">	c #D4D5D4",
",	c #D4D4D4",
"'	c #D5D4D5",
")	c #D4D4D5",
"!	c #D5D5D5",
"~	c #D7D7D6",
"{	c #D7D7D7",
"]	c #D6D7D7",
"^	c #D7D6D7",
"/	c #D8D7D7",
"(	c #D9D9D9",
"_	c #D8D9D8",
":	c #D9D9DA",
"<	c #D9DAD9",
"[	c #D9DADA",
"}	c #DAD9DA",
"|	c #DBDCDB",
"1	c #DBDBDB",
"2	c #DCDBDB",
"3	c #DCDBDC",
"4	c #DBDCDC",
"5	c #DCDCDB",
"6	c #DCDCDC",
"7	c #DDDDDD",
"8	c #DEDDDD",
"9	c #DEDDDE",
"0	c #DEDEDE",
"a	c #DDDEDE",
"b	c #DEDEDD",
"c	c #E0E0DF",
"d	c #E0E0E0",
"e	c #DFE0E0",
"f	c #E2E2E2",
"g	c #E2E2E3",
"h	c #E3E2E3",
"i	c #E2E3E3",
"j	c #E3E3E3",
"k	c #E5E4E4",
"l	c #E4E5E4",
"m	c #E5E5E4",
"n	c #E5E4E5",
"o	c #E4E4E5",
"p	c #E4E5E5",
"q	c #E5E5E5",
"r	c #E7E6E7",
"s	c #E7E7E6",
"t	c #E6E7E7",
"u	c #E7E7E7",
"v	c #E9E8E9",
"w	c #E8E9E9",
"x	c #E8E9E8",
"y	c #E9E9E9",
"z	c #E9EAE9",
"A	c #EAE9E9",
"B	c #E9EAEA",
"C	c #EBEBEB",
"D	c #EBEBEC",
"E	c #ECEBEB",
"F	c #EBECEB",
"G	c #ECECEB",
"H	c #ECECEC",
"I	c #333541",
"J	c #3F4251",
"K	c #494C5E",
"L	c #494D5E",
"M	c #505467",
"N	c #55586D",
"O	c #55596D",
"P	c #575B6F",
"Q	c #575B70",
".............",
".............",
"+++++++++++++",
"@#@#@@@@@@@@$",
"%%%%%&%*=&-**",
";>,'),!);!>!'",
"~{]{{{^{{~{{/",
"(_(((((:<[(}(",
"|112314|51556",
"78907ab00aab0",
"cdedddddddddd",
"fffffffghfijf",
"klmnokopmqqqp",
"rrssrtutuuuuu",
"vwxyyyyyzAByA",
"CDCEFDGDCEFEC",
"HHHHHHHHHHHHH",
"HHHHHHHHHHHHH",
"HHHHHHHHHHHHH",
"+++++++++++++",
"IIIIIIIIIIIII",
"JJJJJJJJJJJJJ",
"KKKLLLLKKKKKK",
"MMMMMMMMMMMMM",
"NNOOOOOOOONNN",
"PPQQQQQQQQQPP"};
