/* XPM */
static char * layer__3_xpm[] = {
"25 20 266 2",
"  	c None",
". 	c #DFDFDF",
"+ 	c #E0E0E0",
"@ 	c #DFDEDF",
"# 	c #DDDDDD",
"$ 	c #DCDCDC",
"% 	c #DADADB",
"& 	c #D9D9D9",
"* 	c #D8D8D8",
"= 	c #D7D7D7",
"- 	c #D5D5D5",
"; 	c #D4D3D3",
"> 	c #D3D2D3",
", 	c #D0D0D1",
"' 	c #D0CFD0",
") 	c #CFCECE",
"! 	c #CDCDCD",
"~ 	c #CCCCCB",
"{ 	c #CACACA",
"] 	c #C9C9C8",
"^ 	c #C8C7C7",
"/ 	c #C6C6C6",
"( 	c #C5C4C5",
"_ 	c #C3C3C3",
": 	c #C2C2C2",
"< 	c #C1C0C0",
"[ 	c #FFFFFF",
"} 	c #FCFCFC",
"| 	c #F9F9FA",
"1 	c #F7F6F6",
"2 	c #F4F4F4",
"3 	c #F1F1F2",
"4 	c #EFEFEF",
"5 	c #ECECED",
"6 	c #EAE9EA",
"7 	c #E7E7E7",
"8 	c #E4E4E5",
"9 	c #E2E2E2",
"0 	c #B3B3B3",
"a 	c #7A7272",
"b 	c #FFFEFF",
"c 	c #C7C7C7",
"d 	c #C5C5C5",
"e 	c #C4C4C4",
"f 	c #C2C1C2",
"g 	c #C1C1C0",
"h 	c #BFBFBF",
"i 	c #BEBEBD",
"j 	c #BCBCBD",
"k 	c #BCBCBB",
"l 	c #BBBABA",
"m 	c #B9B9B9",
"n 	c #B8B7B8",
"o 	c #796F6F",
"p 	c #DEDEDE",
"q 	c #FDFDFC",
"r 	c #C8C7C8",
"s 	c #C4C3C4",
"t 	c #C3C3C2",
"u 	c #C2C2C1",
"v 	c #C0C0C0",
"w 	c #BEBEBE",
"x 	c #BDBDBD",
"y 	c #BBBCBB",
"z 	c #BABABA",
"A 	c #B9B9BA",
"B 	c #B8B8B8",
"C 	c #B7B7B7",
"D 	c #776D6C",
"E 	c #DCDDDD",
"F 	c #FAFAFA",
"G 	c #C8C8C8",
"H 	c #C6C7C7",
"I 	c #C6C5C6",
"J 	c #C5C4C4",
"K 	c #C0C1C1",
"L 	c #BEBEBF",
"M 	c #BCBBBC",
"N 	c #BBBBBA",
"O 	c #BABAB9",
"P 	c #B9B9B8",
"Q 	c #B8B7B7",
"R 	c #B6B6B6",
"S 	c #746A6A",
"T 	c #DCDBDB",
"U 	c #F8F8F8",
"V 	c #C5C6C5",
"W 	c #C4C5C4",
"X 	c #C4C3C3",
"Y 	c #C1C0C1",
"Z 	c #BFC0C0",
"` 	c #BEBFBE",
" .	c #BDBEBD",
"..	c #BCBDBC",
"+.	c #BABBBB",
"@.	c #B8B9B9",
"#.	c #B6B6B7",
"$.	c #B5B5B5",
"%.	c #736767",
"&.	c #DADBDB",
"*.	c #F6F6F5",
"=.	c #C5C6C6",
"-.	c #C4C4C5",
";.	c #9D9D9D",
">.	c #747474",
",.	c #666666",
"'.	c #606161",
").	c #636363",
"!.	c #6E6F6E",
"~.	c #8B8B8B",
"{.	c #B9B8B8",
"].	c #B9B8B9",
"^.	c #B8B8B7",
"/.	c #B3B4B4",
"(.	c #716465",
"_.	c #D9DAD9",
":.	c #F3F3F3",
"<.	c #C3C4C4",
"[.	c #868686",
"}.	c #676768",
"|.	c #717171",
"1.	c #727272",
"2.	c #5E5E5E",
"3.	c #5E5E5D",
"4.	c #888888",
"5.	c #B7B7B8",
"6.	c #B7B7B6",
"7.	c #B5B4B4",
"8.	c #6F6262",
"9.	c #F1F1F1",
"0.	c #BDBEBE",
"a.	c #AFAFAF",
"b.	c #5D5D5D",
"c.	c #848484",
"d.	c #B5B5B6",
"e.	c #B4B4B4",
"f.	c #B2B2B2",
"g.	c #6D5E5F",
"h.	c #D7D7D8",
"i.	c #C1C1C1",
"j.	c #C0BFBF",
"k.	c #737373",
"l.	c #717272",
"m.	c #7F7F7F",
"n.	c #B1B1B1",
"o.	c #B4B5B4",
"p.	c #B3B3B4",
"q.	c #B2B2B3",
"r.	c #6B5C5D",
"s.	c #D6D6D6",
"t.	c #ECEDEC",
"u.	c #C7C6C6",
"v.	c #C0C0C1",
"w.	c #5D5D5C",
"x.	c #6A6A6A",
"y.	c #A9AAAA",
"z.	c #B2B3B3",
"A.	c #B2B1B2",
"B.	c #B0B0B0",
"C.	c #695A59",
"D.	c #EAEAEA",
"E.	c #C3C4C3",
"F.	c #BFBFBE",
"G.	c #BDBDBE",
"H.	c #BDBCBC",
"I.	c #9A9B9B",
"J.	c #5F5F5F",
"K.	c #5C5C5B",
"L.	c #707070",
"M.	c #B3B2B3",
"N.	c #B2B2B1",
"O.	c #B0B1B0",
"P.	c #B0AFAF",
"Q.	c #685657",
"R.	c #D4D4D3",
"S.	c #E8E8E8",
"T.	c #C4C5C5",
"U.	c #BFBEBE",
"V.	c #BCBCBC",
"W.	c #777677",
"X.	c #5B5B5B",
"Y.	c #5C5C5C",
"Z.	c #B1B1B0",
"`.	c #AEAEAE",
" +	c #665454",
".+	c #D2D2D3",
"++	c #E5E6E6",
"@+	c #C2C3C3",
"#+	c #C2C1C1",
"$+	c #BEBDBE",
"%+	c #979797",
"&+	c #ACADAD",
"*+	c #646364",
"=+	c #5A5B5B",
"-+	c #646464",
";+	c #B4B3B3",
">+	c #B0AFB0",
",+	c #AFAEAE",
"'+	c #ADADAE",
")+	c #635151",
"!+	c #D2D2D2",
"~+	c #E3E3E3",
"{+	c #BFC0BF",
"]+	c #5F605F",
"^+	c #6D6C6D",
"/+	c #6C6C6C",
"(+	c #5A5A5A",
"_+	c #8F8F8E",
":+	c #B3B2B2",
"<+	c #B0B0AF",
"[+	c #AFAEAF",
"}+	c #AEADAE",
"|+	c #ADACAC",
"1+	c #624F4E",
"2+	c #D1D1D0",
"3+	c #E1E1E1",
"4+	c #818180",
"5+	c #6A6B6B",
"6+	c #5C5D5C",
"7+	c #626262",
"8+	c #989797",
"9+	c #B3B3B2",
"0+	c #AEAEAD",
"a+	c #ADADAC",
"b+	c #ABABAC",
"c+	c #604C4B",
"d+	c #CFCFCF",
"e+	c #BEBDBD",
"f+	c #BBBBBB",
"g+	c #B6B7B6",
"h+	c #ADAEAD",
"i+	c #ADACAD",
"j+	c #ABACAC",
"k+	c #AAAAAA",
"l+	c #5E4949",
"m+	c #CECFCF",
"n+	c #C0BFC0",
"o+	c #ACABAC",
"p+	c #ABAAAA",
"q+	c #AAAAA9",
"r+	c #5C4647",
"s+	c #5B4344",
"t+	c #CCCCCC",
"u+	c #888686",
"v+	c #868383",
"w+	c #848080",
"x+	c #827D7D",
"y+	c #807A7A",
"z+	c #7E7777",
"A+	c #7C7474",
"B+	c #7A7171",
"C+	c #786E6E",
"D+	c #756B6B",
"E+	c #736868",
"F+	c #716565",
"G+	c #6D5F5F",
"H+	c #6B5C5C",
"I+	c #695859",
"J+	c #675656",
"K+	c #655353",
"L+	c #635050",
"M+	c #604D4D",
"N+	c #5F4A49",
"O+	c #5C4746",
"P+	c #5B4444",
"Q+	c #594041",
". + @ # $ % & * = - ; > , ' ) ! ~ { ] ^ / ( _ : < ",
". [ [ } | 1 2 3 4 5 6 7 8 9 . . . . . . . . . 0 a ",
". b c c c c c c c c / d e _ f g h i j k l m n 0 o ",
"p q c c c c c c r / d s t u v h w x y z A B C 0 D ",
"E F c c c c c G H I J _ : K h L x M N O P Q R 0 S ",
"T U c c c c r c V W X : Y Z `  ...+.O @.n #.$.0 %.",
"&.*.c c c c c =.-.;.>.,.'.).!.~.{.O ].^.C $./.0 (.",
"_.:.c c c c / ( <.[.}.|.1.).2.3.4.m 5.6.$.7.0 0 8.",
"* 9.c c c / d s :  .K h 0.a.3.b.c.B 6.d.e.0 f.0 g.",
"h.4 c r / d e _ : i.j.k.l.).2.m.n.C R o.p.q.n.0 r.",
"s.t.G u.=.d _ : v.h ` 2.3.b.w.x.y.R $.p.z.A.B.0 C.",
"- D.H V W E.: K v F.G.H.B I.J.K.L.$.e.M.N.O.P.0 Q.",
"R.S./ T.X : i.v U.0.H.V.z m W.X.Y.o.0 f.Z.P.`.0  +",
".+++( e @+#+v h $+%+R z m &+*+=+-+;+f.B.>+,+'+0 )+",
"!+~+e _ u v {+w x J.]+^+/+w.X.(+_+:+n.<+[+}+|+0 1+",
"2+3+@+f i.{+L x V.4+5+J.6+7+k.8+9+n.B.a.0+a+b+0 c+",
"d+. : K Z ` e+V.f+z m C g+$.e.z.n.B.a.h+i+j+k+0 l+",
"m+. i.n+h w V.f+z m B 6.$.e.0 n.Z.a.`.a+o+p+q+0 r+",
"! 0 0 0 0 0 0 0 0 0 0 0 0 0 0 0 0 0 0 0 0 0 0 0 s+",
"t+u+v+w+x+y+z+A+B+C+D+E+F+8.G+H+I+J+K+L+M+N+O+P+Q+"};
