/* XPM */
static char * layer__6_active_xpm[] = {
"25 20 262 2",
"  	c None",
". 	c #594041",
"+ 	c #5B4444",
"@ 	c #5C4746",
"# 	c #5F4A49",
"$ 	c #604D4D",
"% 	c #635050",
"& 	c #655353",
"* 	c #675656",
"= 	c #695859",
"- 	c #6B5C5C",
"; 	c #6D5F5F",
"> 	c #6F6262",
", 	c #716565",
"' 	c #736868",
") 	c #756B6B",
"! 	c #786E6E",
"~ 	c #7A7171",
"{ 	c #7C7474",
"] 	c #7E7777",
"^ 	c #807A7A",
"/ 	c #827D7D",
"( 	c #848080",
"_ 	c #868383",
": 	c #888686",
"< 	c #CCCCCC",
"[ 	c #5B4344",
"} 	c #929292",
"| 	c #939393",
"1 	c #949494",
"2 	c #CDCDCD",
"3 	c #5C4647",
"4 	c #9D9D9C",
"5 	c #9E9D9D",
"6 	c #9F9E9F",
"7 	c #A0A09F",
"8 	c #A1A1A1",
"9 	c #A3A3A3",
"0 	c #A7A7A6",
"a 	c #A8A8A8",
"b 	c #ABABAB",
"c 	c #ADADAD",
"d 	c #AEAEAE",
"e 	c #AFAFAF",
"f 	c #B0B0B0",
"g 	c #B1B1B1",
"h 	c #B2B1B2",
"i 	c #BABABA",
"j 	c #D4D4D4",
"k 	c #CECFCF",
"l 	c #5E4949",
"m 	c #9D9D9D",
"n 	c #9E9F9F",
"o 	c #A09FA0",
"p 	c #A1A2A1",
"q 	c #A4A4A4",
"r 	c #ACACAC",
"s 	c #B1B2B2",
"t 	c #B5B5B5",
"u 	c #B8B8B8",
"v 	c #B9B9B9",
"w 	c #B6B6B6",
"x 	c #B4B4B4",
"y 	c #B2B1B1",
"z 	c #B0B1B0",
"A 	c #B2B3B3",
"B 	c #BBBBBB",
"C 	c #CFCFCF",
"D 	c #604C4B",
"E 	c #9E9E9F",
"F 	c #A1A1A0",
"G 	c #A9A9A9",
"H 	c #B8B8B7",
"I 	c #BEBEBE",
"J 	c #C3C4C3",
"K 	c #C7C7C7",
"L 	c #C8C9C8",
"M 	c #C9C9C8",
"N 	c #C7C8C8",
"O 	c #C5C5C4",
"P 	c #C1C1C1",
"Q 	c #B5B5B6",
"R 	c #B2B3B2",
"S 	c #B3B3B3",
"T 	c #B4B3B4",
"U 	c #BBBCBC",
"V 	c #D6D6D6",
"W 	c #D1D1D0",
"X 	c #624F4E",
"Y 	c #A09F9F",
"Z 	c #A1A0A1",
"` 	c #A3A2A3",
" .	c #A8A8A7",
"..	c #C6C6C5",
"+.	c #D0D0D0",
"@.	c #D7D7D7",
"#.	c #DADADA",
"$.	c #DCDCDC",
"%.	c #D9DAD9",
"&.	c #D5D5D5",
"*.	c #C2C2C2",
"=.	c #BABBBA",
"-.	c #B5B5B4",
";.	c #BDBDBD",
">.	c #D8D8D8",
",.	c #D2D2D2",
"'.	c #635151",
").	c #A0A0A1",
"!.	c #A2A1A1",
"~.	c #A6A5A6",
"{.	c #B7B7B7",
"].	c #C5C5C5",
"^.	c #D3D3D3",
"/.	c #DEDEDE",
"(.	c #888888",
"_.	c #313131",
":.	c #0B0B0B",
"<.	c #030303",
"[.	c #1B1B1B",
"}.	c #484848",
"|.	c #CACACA",
"1.	c #BFBFBF",
"2.	c #B9B8B8",
"3.	c #B5B6B6",
"4.	c #BEBDBE",
"5.	c #DADBDB",
"6.	c #D2D2D3",
"7.	c #665454",
"8.	c #A4A3A3",
"9.	c #494949",
"0.	c #000000",
"a.	c #232323",
"b.	c #323232",
"c.	c #202020",
"d.	c #010101",
"e.	c #DEDDDD",
"f.	c #B8B7B7",
"g.	c #DDDDDD",
"h.	c #D4D4D3",
"i.	c #685657",
"j.	c #A3A2A2",
"k.	c #A4A5A4",
"l.	c #ABABAA",
"m.	c #B5B4B5",
"n.	c #C4C4C4",
"o.	c #878787",
"p.	c #1E1E1E",
"q.	c #FAFAFA",
"r.	c #F9F9F9",
"s.	c #F6F6F6",
"t.	c #E2E2E2",
"u.	c #E4E4E4",
"v.	c #C6C6C6",
"w.	c #BDBEBD",
"x.	c #B6B7B6",
"y.	c #BFC0C0",
"z.	c #695A59",
"A.	c #AAABAB",
"B.	c #B6B6B7",
"C.	c #404040",
"D.	c #2F2F2F",
"E.	c #040404",
"F.	c #101010",
"G.	c #4D4D4D",
"H.	c #CBCBCB",
"I.	c #E9E9E9",
"J.	c #C0C0C0",
"K.	c #E0E1E0",
"L.	c #6B5C5D",
"M.	c #A7A7A8",
"N.	c #ACACAD",
"O.	c #B7B8B7",
"P.	c #C9C9C9",
"Q.	c #0A0A0A",
"R.	c #0F0F0F",
"S.	c #2B2B2B",
"T.	c #020202",
"U.	c #CECECE",
"V.	c #BAB9BA",
"W.	c #E3E3E3",
"X.	c #D7D7D8",
"Y.	c #6D5E5F",
"Z.	c #A5A5A5",
"`.	c #050505",
" +	c #1A1A1A",
".+	c #EDEDED",
"++	c #FCFCFC",
"@+	c #B2B2B2",
"#+	c #6C6C6C",
"$+	c #E0E0E0",
"%+	c #E5E5E5",
"&+	c #A6A6A6",
"*+	c #AAA9A9",
"=+	c #1F1F1F",
"-+	c #FBFBFB",
";+	c #F2F2F2",
">+	c #545454",
",+	c #DFDFDF",
"'+	c #D1D1D1",
")+	c #E7E7E7",
"!+	c #716465",
"~+	c #A6A7A7",
"{+	c #B9B9B8",
"]+	c #DBDBDA",
"^+	c #636363",
"/+	c #ECECEC",
"(+	c #797979",
"_+	c #DEDFDF",
":+	c #BCBCBC",
"<+	c #EAEAE9",
"[+	c #736767",
"}+	c #AAAAAA",
"|+	c #AEADAE",
"1+	c #B7B8B8",
"2+	c #171717",
"3+	c #1C1C1C",
"4+	c #DBDBDB",
"5+	c #CECDCE",
"6+	c #DCDBDB",
"7+	c #746A6A",
"8+	c #ABAAAA",
"9+	c #AFAFAE",
"0+	c #B7B7B6",
"a+	c #C2C2C1",
"b+	c #D1D0D1",
"c+	c #575757",
"d+	c #161616",
"e+	c #5B5B5B",
"f+	c #EEEEEE",
"g+	c #DCDDDD",
"h+	c #776D6C",
"i+	c #ADADAE",
"j+	c #BCBDBC",
"k+	c #C8C8C8",
"l+	c #E1E1E1",
"m+	c #D6D5D6",
"n+	c #F1F1F0",
"o+	c #796F6F",
"p+	c #B6B5B5",
"q+	c #D0D0CF",
"r+	c #F2F1F2",
"s+	c #7A7272",
"t+	c #D9D9D9",
"u+	c #E0E0E1",
"v+	c #E4E4E5",
"w+	c #E6E6E6",
"x+	c #E7E7E8",
"y+	c #EBEAEA",
"z+	c #EDEDEE",
"A+	c #F0F0F0",
"B+	c #C1C0C0",
"C+	c #C3C3C3",
"D+	c #C5C4C5",
"E+	c #C8C7C7",
"F+	c #CACAC9",
"G+	c #CECECD",
"H+	c #D2D1D1",
"I+	c #D3D2D3",
"J+	c #D3D3D4",
"K+	c #D7D6D6",
"L+	c #DADADB",
"M+	c #DFDEDF",
". + @ # $ % & * = - ; > , ' ) ! ~ { ] ^ / ( _ : < ",
"[ } } } } } } } } | | 1 1 1 1 | | } } } } } } } 2 ",
"3 } 4 5 6 7 8 9 0 a b c d e f f e e d f g h i j k ",
"l } m n o p q a r s t u v v v v w x y z s A B j C ",
"D } E 7 F q G e H I J K L M N O P i Q R S T U V W ",
"X } Y Z `  .e i ..+.@.#.$.$.%.&.< *.=.t -.t ;.>.,.",
"'.} ).!.~.r {.].^./.(._.:.<.[.}.V |.1.2.3.w 4.5.6.",
"7.} 8 8. .g 1.+./.9.0.0.a.b.c.d.e.C *.B f.w 1.g.h.",
"i.} j.k.l.m.n.V o.0.p.+.q.r.s.t.u.j v.w.v x.y./.&.",
"z.} 9 ~.A.B.v.#._.0.C.D.E.F.G.H.I.#.H.J.i 2.P K.V ",
"L.} q M.N.O.P.$.Q.0.0.R.S.T.0.R.H./.U.*.B V.J.W.X.",
"Y.} Z.a c v |.g.`.0. +.+++@+0.0.#+$+C n.;.v J.%+>.",
"> } &+*+d v P.$.=+0.9.-+++;+0.0.>+,+'+].;.v J.)+%.",
"!+} ~+G d {+P.]+^+0. +/+q.@+0.0.(+_++.n.:+v J.<+5.",
"[+} a }+|+1+K @.C 2+0.F.S.<.0.3+@.4+5+*.:+v J./+6+",
"7+} G 8+9+0+a+b+/.2 c+d+<.2+e+'+,+j P.J.B u J.f+g+",
"h+} G }+i+S j+k+,.#./.,+l+l+,+$.m+< n.;.v u J.n+/.",
"o+} h S p+{+I n.H.q+,.j &.&.&.^.C H.v.*.J.J.J.r+,+",
"s+} j j j &.V @.t+4+4+/.u+t.W.v+w+x+I.y+z+A+;+;+,+",
"B+*.C+D+v.E+F+H.G++.H+I+J+m+K+@.>.t+t+L+$.g.M+$+,+"};
