/* XPM */
static char * region__button_remove_active_xpm[] = {
"21 20 205 2",
"  	c None",
". 	c #5A4242",
"+ 	c #5C4645",
"@ 	c #5E4948",
"# 	c #604D4D",
"$ 	c #635151",
"% 	c #665454",
"& 	c #685758",
"* 	c #6A5B5B",
"= 	c #6D5E5E",
"- 	c #6F6262",
"; 	c #716666",
"> 	c #746969",
", 	c #776D6D",
"' 	c #797070",
") 	c #7C7373",
"! 	c #7E7777",
"~ 	c #817B7B",
"{ 	c #837E7E",
"] 	c #858282",
"^ 	c #878585",
"/ 	c #C2C2C2",
"( 	c #756969",
"_ 	c #929292",
": 	c #C4C4C4",
"< 	c #766A6B",
"[ 	c #999998",
"} 	c #9E9D9D",
"| 	c #9F9E9F",
"1 	c #A0A09F",
"2 	c #A1A1A1",
"3 	c #A3A3A3",
"4 	c #A4A4A4",
"5 	c #A6A6A6",
"6 	c #A7A7A7",
"7 	c #A8A8A8",
"8 	c #A9A9A9",
"9 	c #ABABAB",
"0 	c #ACACAC",
"a 	c #ADADAD",
"b 	c #AEAEAE",
"c 	c #B0B0B0",
"d 	c #B1B1B1",
"e 	c #B6B6B6",
"f 	c #CCCCCC",
"g 	c #CFD0D0",
"h 	c #776C6C",
"i 	c #999999",
"j 	c #9E9F9F",
"k 	c #A09FA0",
"l 	c #A0A1A0",
"m 	c #A2A2A2",
"n 	c #A5A5A5",
"o 	c #AAAAAA",
"p 	c #B0AFAF",
"q 	c #B0B1B1",
"r 	c #B1B2B2",
"s 	c #B7B7B7",
"t 	c #CDCDCD",
"u 	c #D0D0D0",
"v 	c #786E6D",
"w 	c #9A9A9A",
"x 	c #A1A1A0",
"y 	c #A8A7A7",
"z 	c #A8A9A8",
"A 	c #ABACAB",
"B 	c #ADAEAD",
"C 	c #AFAFAE",
"D 	c #B1B1B2",
"E 	c #B2B2B2",
"F 	c #B3B3B3",
"G 	c #B8B8B8",
"H 	c #CECECE",
"I 	c #D2D2D1",
"J 	c #796F6F",
"K 	c #9B9A9A",
"L 	c #A1A0A1",
"M 	c #A3A2A3",
"N 	c #A6A6A5",
"O 	c #ACACAB",
"P 	c #AEADAD",
"Q 	c #AFAFAF",
"R 	c #B3B4B3",
"S 	c #B4B4B4",
"T 	c #B5B5B5",
"U 	c #B5B6B5",
"V 	c #B6B6B5",
"W 	c #B9B9B9",
"X 	c #D3D3D3",
"Y 	c #7A7070",
"Z 	c #9B9B9B",
"` 	c #A6A5A6",
" .	c #B1B0B0",
"..	c #B7B8B8",
"+.	c #B9BABA",
"@.	c #BBBBBB",
"#.	c #BCBCBC",
"$.	c #BDBDBD",
"%.	c #BEBEBE",
"&.	c #BFBFBF",
"*.	c #D2D2D2",
"=.	c #D3D3D4",
"-.	c #7B7272",
";.	c #A4A3A3",
">.	c #AAAAA9",
",.	c #C3C3C3",
"'.	c #C7C7C7",
").	c #C9C8C9",
"!.	c #CACACA",
"~.	c #CBCBCB",
"{.	c #CDCCCC",
"].	c #C8C8C8",
"^.	c #D4D4D4",
"/.	c #D5D5D4",
"(.	c #9D9D9D",
"_.	c #A6A7A6",
":.	c #DADAD9",
"<.	c #DCDCDC",
"[.	c #DDDDDD",
"}.	c #DEDEDE",
"|.	c #D6D6D6",
"1.	c #C0C1C0",
"2.	c #7D7574",
"3.	c #A9A8A9",
"4.	c #858585",
"5.	c #000000",
"6.	c #1A1A1A",
"7.	c #C4C3C3",
"8.	c #D8D8D8",
"9.	c #D7D8D7",
"0.	c #7E7676",
"a.	c #9E9E9E",
"b.	c #B5B5B6",
"c.	c #C9C9C9",
"d.	c #898989",
"e.	c #D9D9D9",
"f.	c #CBCACB",
"g.	c #DADADA",
"h.	c #D9D9DA",
"i.	c #7F7777",
"j.	c #9F9F9F",
"k.	c #1B1B1B",
"l.	c #DBDBDB",
"m.	c #807979",
"n.	c #ACABAB",
"o.	c #C6C6C6",
"p.	c #868686",
"q.	c #D5D5D5",
"r.	c #DBDCDB",
"s.	c #817A7B",
"t.	c #9FA0A0",
"u.	c #DFDFDF",
"v.	c #E0E0E0",
"w.	c #CFCFCF",
"x.	c #C1C1C1",
"y.	c #DCDDDD",
"z.	c #827C7C",
"A.	c #A0A0A0",
"B.	c #B0AFB0",
"C.	c #C7C8C7",
"D.	c #CACBCA",
"E.	c #CDCECE",
"F.	c #CFCECF",
"G.	c #C0C0C0",
"H.	c #DEDDDD",
"I.	c #827D7D",
"J.	c #ABAAAA",
"K.	c #B3B3B2",
"L.	c #BCBBBC",
"M.	c #C0C1C1",
"N.	c #C4C5C5",
"O.	c #C5C5C5",
"P.	c #E1E1E1",
"Q.	c #847F7E",
"R.	c #ABABAC",
"S.	c #AEAFAE",
"T.	c #B1B2B1",
"U.	c #B9B9B8",
"V.	c #BABAB9",
"W.	c #BBBABB",
"X.	c #BABABA",
"Y.	c #E3E3E2",
"Z.	c #858080",
"`.	c #B5B4B4",
" +	c #B7B7B6",
".+	c #E3E3E3",
"++	c #E2E2E2",
"@+	c #868181",
"#+	c #D7D7D7",
"$+	c #DFDFE0",
"%+	c #E5E5E5",
"&+	c #E8E8E8",
"*+	c #ECEBEB",
"=+	c #EEEEEF",
"-+	c #F1F1F1",
";+	c #F2F2F2",
">+	c #C5C4C5",
",+	c #C8C7C7",
"'+	c #CDCDCC",
")+	c #CFCECE",
"!+	c #D0CFD0",
"~+	c #D1D0D1",
"{+	c #D3D2D3",
"]+	c #D5D4D4",
"^+	c #E0DFE0",
". + @ # $ % & * = - ; > , ' ) ! ~ { ] ^ / ",
"( _ _ _ _ _ _ _ _ _ _ _ _ _ _ _ _ _ _ _ : ",
"< [ } | 1 2 3 4 5 6 7 8 9 0 a b c d e f g ",
"h i j k l m 4 n 6 7 8 o 0 a b p q r s t u ",
"v w 1 x m 4 5 y z o A 0 B C c D E F G H I ",
"J K L M N 8 O P Q Q c E R S T U T V W u X ",
"Y Z m ` o  .T ..W +.@.#.$.%.&.%.@.W @.*.=.",
"-.Z ;.>.F #.,.'.).!.~.f f {.f ].,.%.%.^./.",
") (._.C #.!.^.:.<.<.[.}.}.}.<.|.t ,.1.|.|.",
"2.(.3.F : 4.5.5.5.5.5.5.5.5.5.6.^.].7.8.9.",
"0.a.o b.c.d.5.5.5.5.5.5.5.5.5.6.e.f.: g.h.",
"i.j.9 e c.d.5.5.5.5.5.5.5.5.5.k.g.~.: l.g.",
"m.j.n.T o.p.5.5.5.5.5.5.5.5.5.6.q.c.,.<.r.",
"s.t.9 F &.f |.l.}.}.u.u.v.v.}.8.w.: x.}.y.",
"z.A.o B.G 1.C.D.t E.F.w.u u u f o.G.&.u.H.",
"I.A.J.a K.s L.%.&.M./ ,.: N.O.,.&.#.$.P.u.",
"Q.A.o R.S.T.T e s U.V.W.#.$.$.#.X.W #.Y.P.",
"Z.` F `.V  +U.X.L.$.%.&.x.x.x.G.G.G.G..+++",
"@+@.^.^.^.^.^.^.^.#+g.[.$+++%+&+*+=+-+;+++",
"x.,.>+o.,+c.~.'+)+!+~+{+]+|.8.e.l.<.}.^+u."};
