/* XPM */
static char * source__copy_xpm[] = {
"49 20 362 2",
"  	c #DFDFDF",
". 	c #E0E0E0",
"+ 	c #DFDEDF",
"@ 	c #DEDEDE",
"# 	c #DDDDDD",
"$ 	c #DCDCDC",
"% 	c #DBDBDC",
"& 	c #DADADB",
"* 	c #D9D9DA",
"= 	c #D9D9D9",
"- 	c #D8D8D8",
"; 	c #D7D7D7",
"> 	c #D6D6D6",
", 	c #D5D5D5",
"' 	c #D5D4D4",
") 	c #D4D3D3",
"! 	c #D3D2D3",
"~ 	c #D2D1D2",
"{ 	c #D1D0D1",
"] 	c #D0D0D1",
"^ 	c #D0CFD0",
"/ 	c #CFCECF",
"( 	c #CFCECE",
"_ 	c #CECDCD",
": 	c #CDCDCD",
"< 	c #CCCCCC",
"[ 	c #CCCCCB",
"} 	c #CBCBCB",
"| 	c #CACACA",
"1 	c #CACAC9",
"2 	c #C9C9C8",
"3 	c #C9C8C8",
"4 	c #C8C7C7",
"5 	c #C7C6C6",
"6 	c #C6C6C6",
"7 	c #C5C5C5",
"8 	c #C5C4C5",
"9 	c #C4C3C4",
"0 	c #C3C3C3",
"a 	c #C2C2C2",
"b 	c #C1C0C0",
"c 	c #FFFFFF",
"d 	c #FEFEFE",
"e 	c #FCFCFC",
"f 	c #FBFBFB",
"g 	c #FAFAFA",
"h 	c #F8F8F9",
"i 	c #F7F7F7",
"j 	c #F6F6F6",
"k 	c #F5F5F5",
"l 	c #F4F4F4",
"m 	c #F2F2F3",
"n 	c #F1F1F2",
"o 	c #F0F0F0",
"p 	c #EFEFEF",
"q 	c #EEEEEE",
"r 	c #ECECED",
"s 	c #EBEBEC",
"t 	c #EAE9EA",
"u 	c #E9E8E9",
"v 	c #E8E7E8",
"w 	c #E6E6E6",
"x 	c #E5E5E5",
"y 	c #E4E4E4",
"z 	c #E3E3E3",
"A 	c #E2E2E2",
"B 	c #B3B3B3",
"C 	c #7A7272",
"D 	c #FFFEFF",
"E 	c #C7C7C7",
"F 	c #C4C4C4",
"G 	c #C2C1C2",
"H 	c #C1C1C1",
"I 	c #C1C1C0",
"J 	c #C0C0C0",
"K 	c #BFBFBF",
"L 	c #BFBFBE",
"M 	c #BEBEBD",
"N 	c #BDBDBD",
"O 	c #BCBCBD",
"P 	c #BCBCBC",
"Q 	c #BCBCBB",
"R 	c #BBBBBA",
"S 	c #BBBABA",
"T 	c #BAB9B9",
"U 	c #B9B9B9",
"V 	c #B8B8B8",
"W 	c #B8B7B8",
"X 	c #796F6F",
"Y 	c #FDFDFC",
"Z 	c #C8C7C8",
"` 	c #C7C6C7",
" .	c #C4C3C3",
"..	c #C3C3C2",
"+.	c #C2C2C1",
"@.	c #BEBEBE",
"#.	c #BCBDBC",
"$.	c #BBBCBB",
"%.	c #BBBBBB",
"&.	c #BABABA",
"*.	c #B9B9BA",
"=.	c #B8B8B9",
"-.	c #B7B7B7",
";.	c #776D6C",
">.	c #DCDDDD",
",.	c #C8C8C8",
"'.	c #C6C7C7",
").	c #C6C5C6",
"!.	c #C6C5C5",
"~.	c #C5C4C4",
"{.	c #C0C1C1",
"].	c #BFC0C0",
"^.	c #BEBEBF",
"/.	c #BDBCBD",
"(.	c #BCBBBC",
"_.	c #BCBBBB",
":.	c #BABAB9",
"<.	c #B9B9B8",
"[.	c #B8B8B7",
"}.	c #B8B7B7",
"|.	c #B7B6B6",
"1.	c #B6B6B6",
"2.	c #746A6A",
"3.	c #DCDBDB",
"4.	c #F8F8F8",
"5.	c #C5C6C5",
"6.	c #C4C6C4",
"7.	c #C4C5C4",
"8.	c #C1C0C1",
"9.	c #BEBFBF",
"0.	c #BEBFBE",
"a.	c #BDBEBD",
"b.	c #BCBEBC",
"c.	c #BBBCBC",
"d.	c #BABBBB",
"e.	c #BABBBA",
"f.	c #B9BAB9",
"g.	c #B8B9B9",
"h.	c #B7B6B7",
"i.	c #B6B6B7",
"j.	c #B5B5B6",
"k.	c #B5B5B5",
"l.	c #736767",
"m.	c #DADBDB",
"n.	c #F6F6F5",
"o.	c #C5C6C6",
"p.	c #C4C5C5",
"q.	c #C4C4C5",
"r.	c #BDBEBE",
"s.	c #B9B8B9",
"t.	c #B9B8B8",
"u.	c #B4B4B4",
"v.	c #B3B4B4",
"w.	c #716465",
"x.	c #D9DAD9",
"y.	c #F3F3F3",
"z.	c #C3C4C4",
"A.	c #C2C3C3",
"B.	c #C1C1C2",
"C.	c #C0C0BF",
"D.	c #BDBDBC",
"E.	c #B7B7B8",
"F.	c #B7B7B6",
"G.	c #B6B6B5",
"H.	c #B5B4B4",
"I.	c #B4B3B3",
"J.	c #6F6262",
"K.	c #F1F1F1",
"L.	c #C3C2C3",
"M.	c #C1C2C1",
"N.	c #B4B4B5",
"O.	c #B2B2B2",
"P.	c #6D5E5F",
"Q.	c #D7D7D8",
"R.	c #535353",
"S.	c #121212",
"T.	c #020202",
"U.	c #181818",
"V.	c #A4A4A4",
"W.	c #414141",
"X.	c #090909",
"Y.	c #080808",
"Z.	c #3F3F3F",
"`.	c #B0B1B1",
" +	c #BCBDBD",
".+	c #000000",
"++	c #050505",
"@+	c #4B4B4B",
"#+	c #060606",
"$+	c #232323",
"%+	c #A2A1A2",
"&+	c #313131",
"*+	c #010101",
"=+	c #9D9D9D",
"-+	c #808080",
";+	c #515151",
">+	c #B5B6B5",
",+	c #B4B5B4",
"'+	c #B3B3B4",
")+	c #B2B2B3",
"!+	c #B1B1B2",
"~+	c #B1B1B1",
"{+	c #6B5C5D",
"]+	c #ECEDEC",
"^+	c #494949",
"/+	c #787878",
"(+	c #5F5F5F",
"_+	c #A0A0A0",
":+	c #4B4C4B",
"<+	c #4C4C4C",
"[+	c #363636",
"}+	c #848384",
"|+	c #989898",
"1+	c #B2B3B3",
"2+	c #B2B1B2",
"3+	c #B1B0B1",
"4+	c #B0B0B0",
"5+	c #695A59",
"6+	c #EAEAEA",
"7+	c #C6C7C6",
"8+	c #C3C4C3",
"9+	c #C2C3C2",
"0+	c #0A0A0A",
"a+	c #1E1E1E",
"b+	c #0E0E0E",
"c+	c #A8A8A8",
"d+	c #070707",
"e+	c #2A2A2A",
"f+	c #B4B3B4",
"g+	c #B3B2B3",
"h+	c #B2B2B1",
"i+	c #B1B1B0",
"j+	c #B0B1B0",
"k+	c #B0B0AF",
"l+	c #B0AFAF",
"m+	c #685657",
"n+	c #D4D4D3",
"o+	c #E8E8E8",
"p+	c #BFBEBE",
"q+	c #6E6E6E",
"r+	c #353535",
"s+	c #717171",
"t+	c #AFAEAE",
"u+	c #AEAEAE",
"v+	c #665454",
"w+	c #D2D2D3",
"x+	c #E5E6E6",
"y+	c #C2C1C1",
"z+	c #464646",
"A+	c #303030",
"B+	c #767676",
"C+	c #5F5E5F",
"D+	c #9E9D9D",
"E+	c #3E3E3E",
"F+	c #4A4A4A",
"G+	c #B5B6B6",
"H+	c #AEAFAF",
"I+	c #0F0F0F",
"J+	c #0B0B0B",
"K+	c #ACACAC",
"L+	c #B0AFB0",
"M+	c #AFAEAF",
"N+	c #AEADAE",
"O+	c #ADADAE",
"P+	c #635151",
"Q+	c #D2D2D2",
"R+	c #BFC0BF",
"S+	c #B6B7B6",
"T+	c #4E4F4E",
"U+	c #101010",
"V+	c #9F9F9F",
"W+	c #3E3F3E",
"X+	c #3D3D3D",
"Y+	c #ABABAB",
"Z+	c #222222",
"`+	c #B5B4B5",
" @	c #595958",
".@	c #4A4949",
"+@	c #AFAFAF",
"@@	c #ADACAD",
"#@	c #ADACAC",
"$@	c #624F4E",
"%@	c #D1D1D0",
"&@	c #E1E1E1",
"*@	c #C2C2C3",
"=@	c #C0C1C0",
"-@	c #BDBDBE",
";@	c #B9BABA",
">@	c #B8B9B8",
",@	c #B7B8B7",
"'@	c #B4B4B3",
")@	c #898887",
"!@	c #3B3B3B",
"~@	c #919191",
"{@	c #AEAEAD",
"]@	c #ADADAC",
"^@	c #ABABAC",
"/@	c #604C4B",
"(@	c #CFCFCF",
"_@	c #C1C2C2",
":@	c #BEBDBD",
"<@	c #BDBCBC",
"[@	c #5D5D5D",
"}@	c #AEAFAE",
"|@	c #ADAEAD",
"1@	c #ADADAD",
"2@	c #ABACAC",
"3@	c #AAABAB",
"4@	c #AAAAAA",
"5@	c #5E4949",
"6@	c #CECFCF",
"7@	c #C0BFC0",
"8@	c #ACABAC",
"9@	c #ABAAAB",
"0@	c #ABAAAA",
"a@	c #AAAAA9",
"b@	c #5C4647",
"c@	c #5B4344",
"d@	c #888686",
"e@	c #868383",
"f@	c #858282",
"g@	c #848080",
"h@	c #837F7F",
"i@	c #827E7E",
"j@	c #817C7C",
"k@	c #807B7B",
"l@	c #807979",
"m@	c #7F7878",
"n@	c #7E7676",
"o@	c #7D7575",
"p@	c #7C7474",
"q@	c #7B7272",
"r@	c #7A7171",
"s@	c #797070",
"t@	c #786E6E",
"u@	c #776D6D",
"v@	c #756B6B",
"w@	c #736868",
"x@	c #726767",
"y@	c #716666",
"z@	c #716464",
"A@	c #706363",
"B@	c #6E6060",
"C@	c #6D5F5F",
"D@	c #6C5D5D",
"E@	c #6B5C5C",
"F@	c #6A5A5A",
"G@	c #695859",
"H@	c #685758",
"I@	c #675656",
"J@	c #665555",
"K@	c #655454",
"L@	c #645252",
"M@	c #624F4F",
"N@	c #614E4E",
"O@	c #604C4C",
"P@	c #5F4B4A",
"Q@	c #5F4A49",
"R@	c #5D4847",
"S@	c #5C4746",
"T@	c #5B4444",
"U@	c #594041",
"  . + + @ # # $ % & & * = - - ; ; > , ' ) ) ! ~ { ] ^ ^ / ( _ : < [ } | 1 2 3 4 4 5 6 7 8 9 0 a b ",
"  c c c d e f g h i j k l m n o p q r s t u v w x y z A .                                     B C ",
"  D E E E E E E E E E E E E E E E E E E 6 6 7 7 F F 0 0 a G H I J K L M N O P Q Q R S T U V W B X ",
"@ Y E E E E E E E E E E E E E Z Z ` 6 6 7 8 9  .....+.+.I J K K @.@.@.N #.$.%.&.&.*.*.=.V -.-.B ;.",
">.g E E E E E E E E E E E ,.,.E '.6 ).!.~.F 0 0 a a H {.].K ^.^.@.N /.(._.R R :.:.<.<.[.}.|.1.B 2.",
"3.4.E E E E E E E E E Z Z E E 6 5.6.7.F  .0 a G 8.8.J ].9.0.a.a.b.#.c.d.e.:.f.g.g.V W h.i.j.k.B l.",
"m.n.E E E E E E E E E E E 6 o.p.q.F 0 0 a a H {.].].9.9.r.a.#.P P _.R :.T s.t.[.[.-.-.1.k.u.v.B w.",
"x.y.E E E E E E E E E 6 6 7 8 F z.A.a a B.H J C.L L @.@.N D.Q Q R &.&.U =.E.-.F.F.G.k.H.H.I.B B J.",
"- K.E E E E E E E 6 6 7 7 F 9 L.a a M.M.{.J K 9.r.r.N N P Q R S &.U U V [.F.1.j.j.N.u.B B O.O.B P.",
"Q.p E E E Z E 6 6 7 7 F P R.S.T.U.V.B W.X.Y.Z.`. +.+++@+#+$+%+&+*+=+V -+.+;+>+,+,+v.'+)+)+!+~+B {+",
"> ]+,.,.4 5 6 o.o.7 7 F ^+.+&+/+(+_+Z..+:+<+.+Z.Q .+.+<+@+.+[+}+.+R.-.Z..+|+N.'+'+1+1+O.2+3+4+B 5+",
", 6+'.'.7+5.5.7.7.8+8+9+0+.+1+J J C.Y.*+E.-.*+X.%..+*+v.1+*+Y.F.a+b+c+d+e+u.f+g+g+O.h+i+j+k+l+B m+",
"n+o+6 6 o.p.F  .0 a a H 0+.+O.K p+@.Y.*+|.|.*+X.&..+*+B O.*+Y.-.q+.+r+.+s+B B O.O.~+i+k+l+t+u+B v+",
"w+x+8 8 8 F z.A.a y+y+b z+.+A+B+C+D+Z..+<+<+.+E+U .+.+F+F+.+[+G+H+I+.+J+K+O.~+4+4+L+L+M+t+N+O+B P+",
"Q+z F F F 0 ..+.H J J R+S+T+U+T.U.V+u+W+Y.Y.X+Y+V .+++R.d+Z+=+`+u. @.+.@O.~+i+k+k++@M+N+N+@@#@B $@",
"%@&@A.A.*@G G H =@R+R+9.^.-@N P P Q R e.;@f.<.>@,@.+++1.k.,+'@I.)@!@*+~@~+4+4++@+@u+{@]@]@K+^@B /@",
"(@  a a _@{.{.].R+0.0.M :@<@P %.%.&.&.&.U V -.-.S+.+++k.u.u.B 1+.+0+[@4+4++@}@|@|@1@@@K+2@3@4@B 5@",
"6@  H H 8.7@7@K K @.@.N P %.%.&.&.&.U U V [.F.1.k.k.u.u.B B O.~+i+i+4++@+@u+{@]@]@K+8@9@0@a@a@B b@",
": B B B B B B B B B B B B B B B B B B B B B B B B B B B B B B B B B B B B B B B B B B B B B B B c@",
"< d@e@e@f@g@h@i@j@k@l@m@n@o@p@q@r@s@t@u@v@2.w@x@y@z@A@J.B@C@D@E@F@G@H@I@J@K@L@P+M@N@O@P@Q@R@S@T@U@"};
