/* XPM */
static char * source__movedown_xpm[] = {
"49 20 361 2",
"  	c #DFDFDF",
". 	c #E0E0E0",
"+ 	c #DFDEDF",
"@ 	c #DEDEDE",
"# 	c #DDDDDD",
"$ 	c #DCDCDC",
"% 	c #DBDBDC",
"& 	c #DADADB",
"* 	c #D9D9DA",
"= 	c #D9D9D9",
"- 	c #D8D8D8",
"; 	c #D7D7D7",
"> 	c #D6D6D6",
", 	c #D5D5D5",
"' 	c #D5D4D4",
") 	c #D4D3D3",
"! 	c #D3D2D3",
"~ 	c #D2D1D2",
"{ 	c #D1D0D1",
"] 	c #D0D0D1",
"^ 	c #D0CFD0",
"/ 	c #CFCECF",
"( 	c #CFCECE",
"_ 	c #CECDCD",
": 	c #CDCDCD",
"< 	c #CCCCCC",
"[ 	c #CCCCCB",
"} 	c #CBCBCB",
"| 	c #CACACA",
"1 	c #CACAC9",
"2 	c #C9C9C8",
"3 	c #C9C8C8",
"4 	c #C8C7C7",
"5 	c #C7C6C6",
"6 	c #C6C6C6",
"7 	c #C5C5C5",
"8 	c #C5C4C5",
"9 	c #C4C3C4",
"0 	c #C3C3C3",
"a 	c #C2C2C2",
"b 	c #C1C0C0",
"c 	c #FFFFFF",
"d 	c #FEFEFE",
"e 	c #FCFCFC",
"f 	c #FBFBFB",
"g 	c #FAFAFA",
"h 	c #F8F8F9",
"i 	c #F7F7F7",
"j 	c #F6F6F6",
"k 	c #F5F5F5",
"l 	c #F4F4F4",
"m 	c #F2F2F3",
"n 	c #F1F1F2",
"o 	c #F0F0F0",
"p 	c #EFEFEF",
"q 	c #EEEEEE",
"r 	c #ECECED",
"s 	c #EBEBEC",
"t 	c #EAE9EA",
"u 	c #E9E8E9",
"v 	c #E8E7E8",
"w 	c #E6E6E6",
"x 	c #E5E5E5",
"y 	c #E4E4E4",
"z 	c #E3E3E3",
"A 	c #E2E2E2",
"B 	c #B3B3B3",
"C 	c #7A7272",
"D 	c #FFFEFF",
"E 	c #C7C7C7",
"F 	c #C4C4C4",
"G 	c #C2C1C2",
"H 	c #C1C1C1",
"I 	c #C1C1C0",
"J 	c #C0C0C0",
"K 	c #BFBFBF",
"L 	c #BFBFBE",
"M 	c #BEBEBD",
"N 	c #BDBDBD",
"O 	c #BCBCBD",
"P 	c #BCBCBC",
"Q 	c #BCBCBB",
"R 	c #BBBBBA",
"S 	c #BBBABA",
"T 	c #BAB9B9",
"U 	c #B9B9B9",
"V 	c #B8B8B8",
"W 	c #B8B7B8",
"X 	c #796F6F",
"Y 	c #FDFDFC",
"Z 	c #C8C7C8",
"` 	c #C7C6C7",
" .	c #C4C3C3",
"..	c #C3C3C2",
"+.	c #C2C2C1",
"@.	c #BEBEBE",
"#.	c #BCBDBC",
"$.	c #BBBCBB",
"%.	c #BBBBBB",
"&.	c #BABABA",
"*.	c #B9B9BA",
"=.	c #B8B8B9",
"-.	c #B7B7B7",
";.	c #776D6C",
">.	c #DCDDDD",
",.	c #C8C8C8",
"'.	c #C6C7C7",
").	c #C6C5C6",
"!.	c #C6C5C5",
"~.	c #C5C4C4",
"{.	c #C0C1C1",
"].	c #BFC0C0",
"^.	c #BEBEBF",
"/.	c #BDBCBD",
"(.	c #BCBBBC",
"_.	c #BCBBBB",
":.	c #BABAB9",
"<.	c #B9B9B8",
"[.	c #B8B8B7",
"}.	c #B8B7B7",
"|.	c #B7B6B6",
"1.	c #B6B6B6",
"2.	c #746A6A",
"3.	c #DCDBDB",
"4.	c #F8F8F8",
"5.	c #C5C6C5",
"6.	c #C4C6C4",
"7.	c #C4C5C4",
"8.	c #C1C0C1",
"9.	c #BEBFBF",
"0.	c #BEBFBE",
"a.	c #BDBEBD",
"b.	c #BCBEBC",
"c.	c #BBBCBC",
"d.	c #BABBBB",
"e.	c #BABBBA",
"f.	c #B9BAB9",
"g.	c #B8B9B9",
"h.	c #B7B6B7",
"i.	c #B6B6B7",
"j.	c #B5B5B6",
"k.	c #B5B5B5",
"l.	c #736767",
"m.	c #DADBDB",
"n.	c #F6F6F5",
"o.	c #C5C6C6",
"p.	c #C4C5C5",
"q.	c #C4C4C5",
"r.	c #BDBEBE",
"s.	c #B9B8B9",
"t.	c #B9B8B8",
"u.	c #B4B4B4",
"v.	c #B3B4B4",
"w.	c #716465",
"x.	c #D9DAD9",
"y.	c #F3F3F3",
"z.	c #C3C4C4",
"A.	c #C2C3C3",
"B.	c #C1C1C2",
"C.	c #C0C0BF",
"D.	c #BDBDBC",
"E.	c #B7B7B8",
"F.	c #B7B7B6",
"G.	c #B6B6B5",
"H.	c #B5B4B4",
"I.	c #B4B3B3",
"J.	c #6F6262",
"K.	c #F1F1F1",
"L.	c #C3C2C3",
"M.	c #C1C2C1",
"N.	c #B4B4B5",
"O.	c #B2B2B2",
"P.	c #6D5E5F",
"Q.	c #D7D7D8",
"R.	c #000000",
"S.	c #050505",
"T.	c #5E5E5E",
"U.	c #0B0B0B",
"V.	c #171717",
"W.	c #878686",
"X.	c #4B4B4B",
"Y.	c #070707",
"Z.	c #161616",
"`.	c #8A8B8B",
" +	c #BCBDBD",
".+	c #AEAFAF",
"++	c #3F3F3F",
"@+	c #090909",
"#+	c #080808",
"$+	c #3E3D3E",
"%+	c #ADACAD",
"&+	c #414141",
"*+	c #8F8F8F",
"=+	c #949494",
"-+	c #3A3A3A",
";+	c #A9AAA9",
">+	c #404040",
",+	c #060606",
"'+	c #373737",
")+	c #A2A2A3",
"!+	c #B2B2B3",
"~+	c #B1B1B2",
"{+	c #B1B1B1",
"]+	c #6B5C5D",
"^+	c #ECEDEC",
"/+	c #424243",
"(+	c #606060",
"_+	c #424242",
":+	c #5D5D5D",
"<+	c #1E1E1E",
"[+	c #3E3E3E",
"}+	c #4A4A4A",
"|+	c #888888",
"1+	c #4E4E4E",
"2+	c #525252",
"3+	c #808080",
"4+	c #3D3D3E",
"5+	c #59595A",
"6+	c #525353",
"7+	c #343434",
"8+	c #B2B1B2",
"9+	c #B1B0B1",
"0+	c #B0B0B0",
"a+	c #695A59",
"b+	c #EAEAEA",
"c+	c #C6C7C6",
"d+	c #C2C3C2",
"e+	c #010101",
"f+	c #B2B3B3",
"g+	c #181818",
"h+	c #0F0F0F",
"i+	c #121212",
"j+	c #131313",
"k+	c #B0B1B0",
"l+	c #B0B0AF",
"m+	c #B0AFAF",
"n+	c #685657",
"o+	c #D4D4D3",
"p+	c #E8E8E8",
"q+	c #BFBEBE",
"r+	c #BDBCBC",
"s+	c #575757",
"t+	c #838383",
"u+	c #828282",
"v+	c #828281",
"w+	c #80807F",
"x+	c #AFAEAE",
"y+	c #AEAEAE",
"z+	c #665454",
"A+	c #D2D2D3",
"B+	c #E5E6E6",
"C+	c #C2C1C1",
"D+	c #BEBDBE",
"E+	c #BEBDBD",
"F+	c #3D3D3D",
"G+	c #B5B6B6",
"H+	c #A0A1A1",
"I+	c #9B9B9B",
"J+	c #484848",
"K+	c #6F6E6F",
"L+	c #555455",
"M+	c #AEADAE",
"N+	c #ADADAE",
"O+	c #635151",
"P+	c #D2D2D2",
"Q+	c #BFC0BF",
"R+	c #AAAAAA",
"S+	c #3C3C3C",
"T+	c #A8A8A8",
"U+	c #B5B4B5",
"V+	c #343433",
"W+	c #2E2E2E",
"X+	c #A8A8A7",
"Y+	c #464645",
"Z+	c #0E0E0E",
"`+	c #020202",
" @	c #151415",
".@	c #424142",
"+@	c #ADACAC",
"@@	c #624F4E",
"#@	c #D1D1D0",
"$@	c #E1E1E1",
"%@	c #C2C2C3",
"&@	c #C0C1C0",
"*@	c #BDBDBE",
"=@	c #B9BABA",
"-@	c #B8B9B8",
";@	c #B7B8B7",
">@	c #B6B7B6",
",@	c #B4B5B4",
"'@	c #B4B4B3",
")@	c #B4B3B2",
"!@	c #B3B3B2",
"~@	c #AFAFAF",
"{@	c #AEAEAD",
"]@	c #ADADAC",
"^@	c #ACACAC",
"/@	c #ABABAC",
"(@	c #604C4B",
"_@	c #CFCFCF",
":@	c #C1C2C2",
"<@	c #B5B6B5",
"[@	c #AEAFAE",
"}@	c #ADAEAD",
"|@	c #ADADAD",
"1@	c #ABACAC",
"2@	c #AAABAB",
"3@	c #5E4949",
"4@	c #CECFCF",
"5@	c #C0BFC0",
"6@	c #B1B1B0",
"7@	c #ACABAC",
"8@	c #ABAAAB",
"9@	c #ABAAAA",
"0@	c #AAAAA9",
"a@	c #5C4647",
"b@	c #5B4344",
"c@	c #888686",
"d@	c #868383",
"e@	c #858282",
"f@	c #848080",
"g@	c #837F7F",
"h@	c #827E7E",
"i@	c #817C7C",
"j@	c #807B7B",
"k@	c #807979",
"l@	c #7F7878",
"m@	c #7E7676",
"n@	c #7D7575",
"o@	c #7C7474",
"p@	c #7B7272",
"q@	c #7A7171",
"r@	c #797070",
"s@	c #786E6E",
"t@	c #776D6D",
"u@	c #756B6B",
"v@	c #736868",
"w@	c #726767",
"x@	c #716666",
"y@	c #716464",
"z@	c #706363",
"A@	c #6E6060",
"B@	c #6D5F5F",
"C@	c #6C5D5D",
"D@	c #6B5C5C",
"E@	c #6A5A5A",
"F@	c #695859",
"G@	c #685758",
"H@	c #675656",
"I@	c #665555",
"J@	c #655454",
"K@	c #645252",
"L@	c #624F4F",
"M@	c #614E4E",
"N@	c #604C4C",
"O@	c #5F4B4A",
"P@	c #5F4A49",
"Q@	c #5D4847",
"R@	c #5C4746",
"S@	c #5B4444",
"T@	c #594041",
"  . + + @ # # $ % & & * = - - ; ; > , ' ) ) ! ~ { ] ^ ^ / ( _ : < [ } | 1 2 3 4 4 5 6 7 8 9 0 a b ",
"  c c c d e f g h i j k l m n o p q r s t u v w x y z A .                                     B C ",
"  D E E E E E E E E E E E E E E E E E E 6 6 7 7 F F 0 0 a G H I J K L M N O P Q Q R S T U V W B X ",
"@ Y E E E E E E E E E E E E E Z Z ` 6 6 7 8 9  .....+.+.I J K K @.@.@.N #.$.%.&.&.*.*.=.V -.-.B ;.",
">.g E E E E E E E E E E E ,.,.E '.6 ).!.~.F 0 0 a a H {.].K ^.^.@.N /.(._.R R :.:.<.<.[.}.|.1.B 2.",
"3.4.E E E E E E E E E Z Z E E 6 5.6.7.F  .0 a G 8.8.J ].9.0.a.a.b.#.c.d.e.:.f.g.g.V W h.i.j.k.B l.",
"m.n.E E E E E E E E E E E 6 o.p.q.F 0 0 a a H {.].].9.9.r.a.#.P P _.R :.T s.t.[.[.-.-.1.k.u.v.B w.",
"x.y.E E E E E E E E E 6 6 7 8 F z.A.a a B.H J C.L L @.@.N D.Q Q R &.&.U =.E.-.F.F.G.k.H.H.I.B B J.",
"- K.E E E E E E E 6 6 7 7 F 9 L.a a M.M.{.J K 9.r.r.N N P Q R S &.U U V [.F.1.j.j.N.u.B B O.O.B P.",
"Q.p E E E R.R.R.R.R.R.R.F 0 R.S.T.U.V.W.X.Y.Z.`. +.+++@+#+$+%+&+R.*+V =+R.-+;+>+U.,+'+)+!+~+{+B ]+",
"> ^+,.,.4 R.R.R.R.R.R.R.0 a R.R./+(+R.R._+:+R.<+Q [+R.}+}+R.[+|+R.1+-.2+R.3+4+Y.5+6+R.7+8+9+0+B a+",
", b+'.'.c+5.R.R.R.R.R.d+a H R.R.-.D.R.R.N.%.R.Y.%.#+e+v.f+e+@+F.g+h+O.i+j+O.#+R.R.R.R.S.k+l+m+B n+",
"o+p+6 6 o.p.F R.R.R.a H H J R.S.q+@.R.S.r+r+R.S.&.#+e+B O.e+@+-.T.R.2+R.s+B @+i+t+u+v+w+m+x+y+B z+",
"A+B+8 8 8 F z.A.R.C+C+b J K R.S.D+E+R.S.%.%.R.S.U [+R.}+}+R.F+G+H+e+e+e+I+O.>+R.J+K+L+V.x+M+N+B O+",
"P+z F F F 0 ..+.H J J Q+Q+0.R.S.N P R.S.e.&.R.S.V R+F+#+#+S+T+U+u.V+R.W+O.{+X+Y+Z+`+ @.@M+%++@B @@",
"#@$@A.A.%@G G H &@Q+Q+9.^.*@N P P Q R e.=@f.<.-@;@;@>@1.k.,@'@I.)@!@O.{+{+0+0+~@~@y+{@]@]@^@/@B (@",
"_@  a a :@{.{.].Q+0.0.M E+r+P %.%.&.&.&.U V -.-.>@>@<@k.u.u.B f+O.{+{+0+0+~@[@}@}@|@%+^@1@2@R+B 3@",
"4@  H H 8.5@5@K K @.@.N P %.%.&.&.&.U U V [.F.1.k.k.u.u.B B O.{+6@6@0+~@~@y+{@]@]@^@7@8@9@0@0@B a@",
": B B B B B B B B B B B B B B B B B B B B B B B B B B B B B B B B B B B B B B B B B B B B B B B b@",
"< c@d@d@e@f@g@h@i@j@k@l@m@n@o@p@q@r@s@t@u@2.v@w@x@y@z@J.A@B@C@D@E@F@G@H@I@J@K@O+L@M@N@O@P@Q@R@S@T@"};
