/* XPM */
static char * source__new_osc_pushed_xpm[] = {
"49 20 359 2",
"  	c #594041",
". 	c #5B4444",
"+ 	c #5C4746",
"@ 	c #5D4847",
"# 	c #5F4A49",
"$ 	c #5F4B4A",
"% 	c #604C4C",
"& 	c #614E4E",
"* 	c #624F4F",
"= 	c #635050",
"- 	c #645252",
"; 	c #655353",
"> 	c #665454",
", 	c #675656",
"' 	c #685757",
") 	c #695859",
"! 	c #6A595A",
"~ 	c #6B5B5B",
"{ 	c #6B5D5D",
"] 	c #6C5E5E",
"^ 	c #6D5F5F",
"/ 	c #6E6161",
"( 	c #6F6262",
"_ 	c #706464",
": 	c #716565",
"< 	c #726666",
"[ 	c #736868",
"} 	c #746969",
"| 	c #756A6A",
"1 	c #766C6C",
"2 	c #776D6D",
"3 	c #786E6E",
"4 	c #797070",
"5 	c #7A7171",
"6 	c #7B7272",
"7 	c #7C7474",
"8 	c #7D7575",
"9 	c #7E7777",
"0 	c #7F7878",
"a 	c #807979",
"b 	c #807B7B",
"c 	c #817C7C",
"d 	c #827D7D",
"e 	c #837F7F",
"f 	c #848080",
"g 	c #868383",
"h 	c #888686",
"i 	c #CCCCCC",
"j 	c #5B4344",
"k 	c #929292",
"l 	c #CDCDCD",
"m 	c #5C4647",
"n 	c #9D9D9C",
"o 	c #9E9D9D",
"p 	c #9E9D9E",
"q 	c #9F9E9F",
"r 	c #A09F9F",
"s 	c #A0A09F",
"t 	c #A1A1A0",
"u 	c #A1A1A1",
"v 	c #A2A2A2",
"w 	c #A3A3A2",
"x 	c #A4A4A3",
"y 	c #A4A4A4",
"z 	c #A5A5A5",
"A 	c #A6A6A6",
"B 	c #A7A7A7",
"C 	c #A8A8A8",
"D 	c #A9A9A9",
"E 	c #AAAAAA",
"F 	c #ABABAB",
"G 	c #ACACAC",
"H 	c #ADADAD",
"I 	c #AEAEAE",
"J 	c #AFAFAF",
"K 	c #B0B0B0",
"L 	c #B1B1B1",
"M 	c #B2B1B2",
"N 	c #BABABA",
"O 	c #D4D4D4",
"P 	c #CECFCF",
"Q 	c #5E4949",
"R 	c #9D9D9D",
"S 	c #9D9E9E",
"T 	c #9E9F9F",
"U 	c #9F9F9F",
"V 	c #A09FA0",
"W 	c #A0A0A0",
"X 	c #A0A1A0",
"Y 	c #A1A2A1",
"Z 	c #A3A3A3",
"` 	c #A4A5A5",
" .	c #A5A6A6",
"..	c #A6A7A7",
"+.	c #AFAEAE",
"@.	c #B0AFAF",
"#.	c #B0B0AF",
"$.	c #B0B1B0",
"%.	c #B1B2B1",
"&.	c #B1B2B2",
"*.	c #B2B3B3",
"=.	c #BBBBBB",
"-.	c #CFCFCF",
";.	c #604C4B",
">.	c #9E9E9F",
",.	c #A2A2A1",
"'.	c #A5A5A4",
").	c #A6A6A5",
"!.	c #A7A6A6",
"~.	c #A7A8A7",
"{.	c #A8A9A8",
"].	c #A9AAA9",
"^.	c #AAAAA9",
"/.	c #ABABAA",
"(.	c #ABACAC",
"_.	c #ACADAC",
":.	c #ADADAC",
"<.	c #AEAEAD",
"[.	c #AFAFB0",
"}.	c #B0B0B1",
"|.	c #B0B1B1",
"1.	c #B2B3B2",
"2.	c #B3B3B3",
"3.	c #B4B3B4",
"4.	c #BBBCBC",
"5.	c #D6D6D6",
"6.	c #D1D1D0",
"7.	c #624F4E",
"8.	c #A1A0A1",
"9.	c #A2A1A2",
"0.	c #A3A2A2",
"a.	c #A5A4A4",
"b.	c #A6A5A5",
"c.	c #A7A7A6",
"d.	c #A8A7A8",
"e.	c #A9A8A9",
"f.	c #ABAAAB",
"g.	c #ACABAC",
"h.	c #ADAEAD",
"i.	c #B2B2B2",
"j.	c #B4B4B3",
"k.	c #B5B5B4",
"l.	c #B5B5B5",
"m.	c #BDBDBD",
"n.	c #D8D8D8",
"o.	c #D2D2D2",
"p.	c #635151",
"q.	c #A0A0A1",
"r.	c #A2A1A1",
"s.	c #A3A2A3",
"t.	c #A7A8A8",
"u.	c #A8A9A9",
"v.	c #A9AAAA",
"w.	c #AFAFAE",
"x.	c #B0AFB0",
"y.	c #B3B2B2",
"z.	c #B4B3B3",
"A.	c #B4B4B4",
"B.	c #B4B5B5",
"C.	c #B5B6B6",
"D.	c #B6B6B6",
"E.	c #BEBDBE",
"F.	c #DADBDB",
"G.	c #D2D2D3",
"H.	c #363636",
"I.	c #A6A7A6",
"J.	c #AAA9AA",
"K.	c #AFB0B0",
"L.	c #B1B0B0",
"M.	c #B2B1B1",
"N.	c #B6B5B5",
"O.	c #BFBFBF",
"P.	c #DDDDDD",
"Q.	c #D4D4D3",
"R.	c #685657",
"S.	c #A3A4A3",
"T.	c #A6A5A6",
"U.	c #A7A6A7",
"V.	c #AAABAA",
"W.	c #AAABAB",
"X.	c #AEADAD",
"Y.	c #AFAEAF",
"Z.	c #B1B1B0",
"`.	c #B2B2B1",
" +	c #B4B5B4",
".+	c #B5B6B5",
"++	c #B6B7B6",
"@+	c #BFC0C0",
"#+	c #DEDEDE",
"$+	c #D5D5D5",
"%+	c #695A59",
"&+	c #A4A3A4",
"*+	c #A5A4A5",
"=+	c #A6A6A7",
"-+	c #A7A7A8",
";+	c #9B9B9B",
">+	c #393939",
",+	c #080808",
"'+	c #070707",
")+	c #383838",
"!+	c #696868",
"~+	c #151515",
"{+	c #020202",
"]+	c #0A0A0A",
"^+	c #272727",
"/+	c #4A4A4A",
"(+	c #101010",
"_+	c #161616",
":+	c #969696",
"<+	c #B2B2B3",
"[+	c #B3B3B4",
"}+	c #B6B7B7",
"|+	c #B7B7B7",
"1+	c #B8B7B7",
"2+	c #C1C1C1",
"3+	c #E0E1E0",
"4+	c #6B5C5D",
"5+	c #000000",
"6+	c #434343",
"7+	c #444444",
"8+	c #010101",
"9+	c #666667",
"0+	c #626262",
"a+	c #AEAFAF",
"b+	c #414141",
"c+	c #2C2C2C",
"d+	c #6E6E6E",
"e+	c #585757",
"f+	c #959494",
"g+	c #B8B8B8",
"h+	c #B9B8B9",
"i+	c #C0C0C0",
"j+	c #E3E3E3",
"k+	c #D7D7D8",
"l+	c #6D5E5F",
"m+	c #ADACAC",
"n+	c #222222",
"o+	c #333332",
"p+	c #585858",
"q+	c #999A9A",
"r+	c #090909",
"s+	c #B3B4B3",
"t+	c #B5B4B5",
"u+	c #B6B5B6",
"v+	c #E5E5E5",
"w+	c #A8A7A7",
"x+	c #A9A9AA",
"y+	c #696968",
"z+	c #424242",
"A+	c #1C1C1C",
"B+	c #A5A5A6",
"C+	c #E7E7E7",
"D+	c #D9DAD9",
"E+	c #716465",
"F+	c #ABAAAA",
"G+	c #464545",
"H+	c #464646",
"I+	c #3A3A3A",
"J+	c #676867",
"K+	c #676767",
"L+	c #2D2D2D",
"M+	c #707070",
"N+	c #5A5A5A",
"O+	c #EAEAE9",
"P+	c #736767",
"Q+	c #AAAAAB",
"R+	c #ABACAB",
"S+	c #ACACAB",
"T+	c #393A3A",
"U+	c #070807",
"V+	c #393A39",
"W+	c #A2A3A2",
"X+	c #AFB0AF",
"Y+	c #2E2E2E",
"Z+	c #0B0B0B",
"`+	c #171717",
" @	c #727272",
".@	c #B3B2B3",
"+@	c #181717",
"@@	c #9A9A9A",
"#@	c #B7B8B7",
"$@	c #ECECEC",
"%@	c #DCDBDB",
"&@	c #746A6A",
"*@	c #AAA9A9",
"=@	c #AEADAE",
"-@	c #B3B4B4",
";@	c #B7B6B7",
">@	c #B7B7B8",
",@	c #B7B8B8",
"'@	c #B9B9B9",
")@	c #EEEEEE",
"!@	c #DCDDDD",
"~@	c #776D6C",
"{@	c #ABABAC",
"]@	c #F1F1F0",
"^@	c #796F6F",
"/@	c #B5B4B4",
"(@	c #B6B6B5",
"_@	c #B7B7B6",
":@	c #B9B9B8",
"<@	c #BABAB9",
"[@	c #BBBABA",
"}@	c #BBBABB",
"|@	c #BCBBBC",
"1@	c #BCBCBC",
"2@	c #BEBEBE",
"3@	c #F2F1F2",
"4@	c #DFDFDF",
"5@	c #7A7272",
"6@	c #D7D7D7",
"7@	c #D9D9DA",
"8@	c #DADADB",
"9@	c #DCDCDC",
"0@	c #DEDEDF",
"a@	c #DFDFE0",
"b@	c #E0E0E1",
"c@	c #E2E2E2",
"d@	c #E4E4E4",
"e@	c #E5E5E6",
"f@	c #E6E6E7",
"g@	c #E8E8E8",
"h@	c #E9E9E9",
"i@	c #EAEAEA",
"j@	c #EBEBEB",
"k@	c #ECECED",
"l@	c #EDEDEE",
"m@	c #EFEFEF",
"n@	c #F0F0F0",
"o@	c #F2F2F2",
"p@	c #C1C0C0",
"q@	c #C2C2C2",
"r@	c #C3C3C3",
"s@	c #C4C3C4",
"t@	c #C5C4C5",
"u@	c #C5C5C5",
"v@	c #C6C6C6",
"w@	c #C7C7C7",
"x@	c #C8C7C7",
"y@	c #C9C8C8",
"z@	c #C9C9C8",
"A@	c #CACAC9",
"B@	c #CACACA",
"C@	c #CBCBCA",
"D@	c #CCCCCB",
"E@	c #CECECE",
"F@	c #CFCECE",
"G@	c #D0CFCF",
"H@	c #D0CFD0",
"I@	c #D0D0D0",
"J@	c #D0D0D1",
"K@	c #D1D1D2",
"L@	c #D3D2D3",
"M@	c #D4D3D3",
"N@	c #D5D4D4",
"O@	c #D9D9D9",
"P@	c #DBDBDC",
"Q@	c #DFDEDF",
"R@	c #E0E0E0",
"  . + + @ # $ % & * = - ; > , ' ) ! ~ { ] ^ / ( _ : < [ } | 1 2 3 4 5 6 7 8 9 0 a b c d e f g h i ",
"j k k k k k k k k k k k k k k k k k k k k k k k k k k k k k k k k k k k k k k k k k k k k k k k l ",
"m k n n n o p q q r s t u v v w x x y y z A B B C C C D D E E F F G G G H H I J K K L L M M N O P ",
"Q k R R S T U V V W X Y v v Z Z y `  . ...B C C C D D D E F F G G H H I I +.@.#.$.$.%.&.*.*.=.O -.",
";.k >.>.U s s t t ,.v Z Z y y '.).).!.!.B ~.{.D ].].^./.F (.(._.:.<.I I J [.}.|.%.%.1.2.3.3.4.5.6.",
"7.k r r V 8.8.9.9.0.w x y a.b.).c.B d.d.e.D D D E E f.g.G _._.h.I J J K K $.%.%.i.i.2.j.k.l.m.n.o.",
"p.k q.q.8.r.9.s.s.Z Z y z A !.!.B t.u.u.D D v.v.E F F G G H H I w.@.x.K L L i.y.z.z.A.B.C.D.E.F.G.",
"> k u u r.0.H.H.x '.z A A I.~.~.C C D D J.J.f.F G G H I I +.+.J K.K L.M.i.i.2.2.A.A.l.N.D.D.O.P.Q.",
"R.k 0.0.w S.H.H.'.b.T.U.B C C C D D ^.^.V.W.(.(.G H X.+.Y.[.[.K Z.`.i.i.*.2.A. +.+.+D.D.++++@+#+$+",
"%+k Z Z &+*+H.H. .=+=+-+C ;+>+,+'+)+q f.!+~+{+]+^+<.A /+(+{+_+:+L i.<+[+A.A.l.l.D.D.}+}+|+1+2+3+5.",
"4+k y H.H.H.H.H.H.H.H.{.D )+5+6+7+5+>+F '+8+9+0+>+a+b+5+c+d+e+f+2.A.A.A.l.l.D.D.D.D.|+|+g+h+i+j+k+",
"l+k z H.H.H.H.H.H.H.H.D D '+8+z A 8+,+m+n+5+o+p+q+K.r+5+z *.*.s+s+A.A.t+u+u+D.D.|+|+g+g+g+g+i+v+n.",
"( k A A !.w+H.H.C D D x+x+'+8+A B 8+,+<.'.y+z+5+A+Z.r+5+B+[+[+A.A.l.C.D.D.D.|+|+g+g+g+g+g+g+i+C+D+",
"E+k ....B C H.H.D ^.^.F+f.>+5+G+H+5+I+I I+J+K+8+]+&.b+5+L+M+N+:+l.D.D.D.}+|+g+g+g+g+g+g+g+g+i+O+F.",
"P+k C C C D H.H.J.Q+W.R+S+U T+U+,+V+W+X+Y+Z+8+`+ @.@F /+(+{++@@@D.++++#@g+g+h+h+g+g+g+g+g+g+i+$@%@",
"&@k D D D *@^././.S+S+:.:.X.=@I J [.}.}.L L i.*.-@A.A.l.l.D.D.;@;@>@,@g+'@'@g+g+g+g+g+g+g+g+i+)@!@",
"~@k D D D E Q+{@{@G G H h.I J J K K L L i.i.2.j.A.k.l.u+u+D.D.|+|+g+h+g+g+g+g+g+g+g+g+g+g+g+i+]@#+",
"^@k M M i.2.z./@/@N.(@D.D.D._@|+g+:@<@<@[@}@|@1@1@m.m.2@2@O.O.i+i+i+i+i+i+i+i+i+i+i+i+i+i+i+i+3@4@",
"5@k O O O O O O O O O O O O O O O O O O O O 5.6@n.7@8@9@P.#+0@a@b@c@j+d@e@f@g@h@i@j@k@l@m@n@o@o@4@",
"p@q@r@r@s@t@u@v@v@w@x@y@z@A@B@C@D@i l l E@F@G@H@I@J@K@L@L@M@M@N@$+5.6@n.n.n.O@7@8@8@P@9@P.P.Q@R@4@"};
