/* XPM */
static char * source__paste_pushed_xpm[] = {
"49 20 379 2",
"  	c #594041",
". 	c #5B4444",
"+ 	c #5C4746",
"@ 	c #5D4847",
"# 	c #5F4A49",
"$ 	c #5F4B4A",
"% 	c #604C4C",
"& 	c #614E4E",
"* 	c #624F4F",
"= 	c #635050",
"- 	c #645252",
"; 	c #655353",
"> 	c #665454",
", 	c #675656",
"' 	c #685757",
") 	c #695859",
"! 	c #6A595A",
"~ 	c #6B5B5B",
"{ 	c #6B5D5D",
"] 	c #6C5E5E",
"^ 	c #6D5F5F",
"/ 	c #6E6161",
"( 	c #6F6262",
"_ 	c #706464",
": 	c #716565",
"< 	c #726666",
"[ 	c #736868",
"} 	c #746969",
"| 	c #756A6A",
"1 	c #766C6C",
"2 	c #776D6D",
"3 	c #786E6E",
"4 	c #797070",
"5 	c #7A7171",
"6 	c #7B7272",
"7 	c #7C7474",
"8 	c #7D7575",
"9 	c #7E7777",
"0 	c #7F7878",
"a 	c #807979",
"b 	c #807B7B",
"c 	c #817C7C",
"d 	c #827D7D",
"e 	c #837F7F",
"f 	c #848080",
"g 	c #868383",
"h 	c #888686",
"i 	c #CCCCCC",
"j 	c #5B4344",
"k 	c #929292",
"l 	c #CDCDCD",
"m 	c #5C4647",
"n 	c #9D9D9C",
"o 	c #9E9D9D",
"p 	c #9E9D9E",
"q 	c #9F9E9F",
"r 	c #A09F9F",
"s 	c #A0A09F",
"t 	c #A1A1A0",
"u 	c #A1A1A1",
"v 	c #A2A2A2",
"w 	c #A3A3A2",
"x 	c #A4A4A3",
"y 	c #A4A4A4",
"z 	c #A5A5A5",
"A 	c #A6A6A6",
"B 	c #A7A7A7",
"C 	c #A8A8A8",
"D 	c #A9A9A9",
"E 	c #AAAAAA",
"F 	c #ABABAB",
"G 	c #ACACAC",
"H 	c #ADADAD",
"I 	c #AEAEAE",
"J 	c #AFAFAF",
"K 	c #B0B0B0",
"L 	c #B1B1B1",
"M 	c #B2B1B2",
"N 	c #BABABA",
"O 	c #D4D4D4",
"P 	c #CECFCF",
"Q 	c #5E4949",
"R 	c #9D9D9D",
"S 	c #9D9E9E",
"T 	c #9E9F9F",
"U 	c #9F9F9F",
"V 	c #A09FA0",
"W 	c #A0A0A0",
"X 	c #A0A1A0",
"Y 	c #A1A2A1",
"Z 	c #A3A3A3",
"` 	c #A4A5A5",
" .	c #A5A6A6",
"..	c #A6A7A7",
"+.	c #AFAEAE",
"@.	c #B0AFAF",
"#.	c #B0B0AF",
"$.	c #B0B1B0",
"%.	c #B1B2B1",
"&.	c #B1B2B2",
"*.	c #B2B3B3",
"=.	c #BBBBBB",
"-.	c #CFCFCF",
";.	c #604C4B",
">.	c #9E9E9F",
",.	c #A2A2A1",
"'.	c #A5A5A4",
").	c #A6A6A5",
"!.	c #A7A6A6",
"~.	c #A7A8A7",
"{.	c #A8A9A8",
"].	c #A9AAA9",
"^.	c #AAAAA9",
"/.	c #ABABAA",
"(.	c #ABACAC",
"_.	c #ACADAC",
":.	c #ADADAC",
"<.	c #AEAEAD",
"[.	c #AFAFB0",
"}.	c #B0B0B1",
"|.	c #B0B1B1",
"1.	c #B2B3B2",
"2.	c #B3B3B3",
"3.	c #B4B3B4",
"4.	c #BBBCBC",
"5.	c #D6D6D6",
"6.	c #D1D1D0",
"7.	c #624F4E",
"8.	c #A1A0A1",
"9.	c #A2A1A2",
"0.	c #A3A2A2",
"a.	c #A5A4A4",
"b.	c #A6A5A5",
"c.	c #A7A7A6",
"d.	c #A8A7A8",
"e.	c #A9A8A9",
"f.	c #ABAAAB",
"g.	c #ACABAC",
"h.	c #ADAEAD",
"i.	c #B2B2B2",
"j.	c #B4B4B3",
"k.	c #B5B5B4",
"l.	c #B5B5B5",
"m.	c #BDBDBD",
"n.	c #D8D8D8",
"o.	c #D2D2D2",
"p.	c #635151",
"q.	c #A0A0A1",
"r.	c #A2A1A1",
"s.	c #A3A2A3",
"t.	c #A7A8A8",
"u.	c #A8A9A9",
"v.	c #A9AAAA",
"w.	c #AFAFAE",
"x.	c #B0AFB0",
"y.	c #B3B2B2",
"z.	c #B4B3B3",
"A.	c #B4B4B4",
"B.	c #B4B5B5",
"C.	c #B5B6B6",
"D.	c #B6B6B6",
"E.	c #BEBDBE",
"F.	c #DADBDB",
"G.	c #D2D2D3",
"H.	c #A6A7A6",
"I.	c #AAA9AA",
"J.	c #525151",
"K.	c #555555",
"L.	c #AFB0B0",
"M.	c #B1B0B0",
"N.	c #B2B1B1",
"O.	c #B6B5B5",
"P.	c #BFBFBF",
"Q.	c #DDDDDD",
"R.	c #D4D4D3",
"S.	c #685657",
"T.	c #A3A4A3",
"U.	c #A6A5A6",
"V.	c #A7A6A7",
"W.	c #AAABAA",
"X.	c #AAABAB",
"Y.	c #AEADAD",
"Z.	c #AFAEAF",
"`.	c #000000",
" +	c #050505",
".+	c #B1B1B0",
"++	c #B2B2B1",
"@+	c #B4B5B4",
"#+	c #B5B6B5",
"$+	c #B6B7B6",
"%+	c #BFC0C0",
"&+	c #DEDEDE",
"*+	c #D5D5D5",
"=+	c #695A59",
"-+	c #A4A3A4",
";+	c #A5A4A5",
">+	c #434343",
",+	c #202020",
"'+	c #939393",
")+	c #696969",
"!+	c #141414",
"~+	c #030303",
"{+	c #272727",
"]+	c #8B8A8A",
"^+	c #ACACAB",
"/+	c #151515",
"(+	c #020202",
"_+	c #0A0A0A",
":+	c #AFB0AF",
"<+	c #A6A6A7",
"[+	c #3F3F40",
"}+	c #0B0B0B",
"|+	c #060606",
"1+	c #373737",
"2+	c #B6B7B7",
"3+	c #B7B7B7",
"4+	c #B8B7B7",
"5+	c #C1C1C1",
"6+	c #E0E1E0",
"7+	c #6B5C5D",
"8+	c #A4A4A5",
"9+	c #A5A5A6",
"0+	c #444444",
"a+	c #323232",
"b+	c #787878",
"c+	c #616161",
"d+	c #656565",
"e+	c #505050",
"f+	c #010101",
"g+	c #212121",
"h+	c #ADACAD",
"i+	c #ADADAE",
"j+	c #070808",
"k+	c #676868",
"l+	c #636363",
"m+	c #3A3A3A",
"n+	c #757474",
"o+	c #040303",
"p+	c #757575",
"q+	c #767676",
"r+	c #3D3D3D",
"s+	c #070707",
"t+	c #5A5A5A",
"u+	c #545454",
"v+	c #353535",
"w+	c #B8B8B8",
"x+	c #B9B8B9",
"y+	c #C0C0C0",
"z+	c #E3E3E3",
"A+	c #D7D7D8",
"B+	c #6D5E5F",
"C+	c #6F6F6F",
"D+	c #111111",
"E+	c #222222",
"F+	c #333333",
"G+	c #585858",
"H+	c #9B9B9B",
"I+	c #B3B4B3",
"J+	c #080808",
"K+	c #E5E5E5",
"L+	c #A8A7A7",
"M+	c #0C0C0C",
"N+	c #686867",
"O+	c #7E7E7D",
"P+	c #6A6A6A",
"Q+	c #434342",
"R+	c #1C1C1C",
"S+	c #B2B2B3",
"T+	c #B3B3B4",
"U+	c #090909",
"V+	c #131313",
"W+	c #858585",
"X+	c #868686",
"Y+	c #E7E7E7",
"Z+	c #D9DAD9",
"`+	c #716465",
" @	c #454545",
".@	c #333332",
"+@	c #0D0D0D",
"@@	c #626161",
"#@	c #424242",
"$@	c #686969",
"%@	c #777777",
"&@	c #4B4B4B",
"*@	c #747474",
"=@	c #595959",
"-@	c #191919",
";@	c #EAEAE9",
">@	c #736767",
",@	c #4E4E4E",
"'@	c #959696",
")@	c #717171",
"!@	c #0E0E0E",
"~@	c #525252",
"{@	c #2E2E2E",
"]@	c #171717",
"^@	c #B5B4B4",
"/@	c #484948",
"(@	c #161616",
"_@	c #464546",
":@	c #ECECEC",
"<@	c #DCDBDB",
"[@	c #746A6A",
"}@	c #AAA9A9",
"|@	c #AEADAE",
"1@	c #B3B4B4",
"2@	c #B7B6B7",
"3@	c #B7B7B8",
"4@	c #B7B8B8",
"5@	c #B9B9B9",
"6@	c #EEEEEE",
"7@	c #DCDDDD",
"8@	c #776D6C",
"9@	c #AAAAAB",
"0@	c #ABABAC",
"a@	c #B6B5B6",
"b@	c #F1F1F0",
"c@	c #796F6F",
"d@	c #B6B6B5",
"e@	c #B7B7B6",
"f@	c #B9B9B8",
"g@	c #BABAB9",
"h@	c #BBBABA",
"i@	c #BBBABB",
"j@	c #BCBBBC",
"k@	c #BCBCBC",
"l@	c #BEBEBE",
"m@	c #F2F1F2",
"n@	c #DFDFDF",
"o@	c #7A7272",
"p@	c #D7D7D7",
"q@	c #D9D9DA",
"r@	c #DADADB",
"s@	c #DCDCDC",
"t@	c #DEDEDF",
"u@	c #DFDFE0",
"v@	c #E0E0E1",
"w@	c #E2E2E2",
"x@	c #E4E4E4",
"y@	c #E5E5E6",
"z@	c #E6E6E7",
"A@	c #E8E8E8",
"B@	c #E9E9E9",
"C@	c #EAEAEA",
"D@	c #EBEBEB",
"E@	c #ECECED",
"F@	c #EDEDEE",
"G@	c #EFEFEF",
"H@	c #F0F0F0",
"I@	c #F2F2F2",
"J@	c #C1C0C0",
"K@	c #C2C2C2",
"L@	c #C3C3C3",
"M@	c #C4C3C4",
"N@	c #C5C4C5",
"O@	c #C5C5C5",
"P@	c #C6C6C6",
"Q@	c #C7C7C7",
"R@	c #C8C7C7",
"S@	c #C9C8C8",
"T@	c #C9C9C8",
"U@	c #CACAC9",
"V@	c #CACACA",
"W@	c #CBCBCA",
"X@	c #CCCCCB",
"Y@	c #CECECE",
"Z@	c #CFCECE",
"`@	c #D0CFCF",
" #	c #D0CFD0",
".#	c #D0D0D0",
"+#	c #D0D0D1",
"@#	c #D1D1D2",
"##	c #D3D2D3",
"$#	c #D4D3D3",
"%#	c #D5D4D4",
"&#	c #D9D9D9",
"*#	c #DBDBDC",
"=#	c #DFDEDF",
"-#	c #E0E0E0",
"  . + + @ # $ % & * = - ; > , ' ) ! ~ { ] ^ / ( _ : < [ } | 1 2 3 4 5 6 7 8 9 0 a b c d e f g h i ",
"j k k k k k k k k k k k k k k k k k k k k k k k k k k k k k k k k k k k k k k k k k k k k k k k l ",
"m k n n n o p q q r s t u v v w x x y y z A B B C C C D D E E F F G G G H H I J K K L L M M N O P ",
"Q k R R S T U V V W X Y v v Z Z y `  . ...B C C C D D D E F F G G H H I I +.@.#.$.$.%.&.*.*.=.O -.",
";.k >.>.U s s t t ,.v Z Z y y '.).).!.!.B ~.{.D ].].^./.F (.(._.:.<.I I J [.}.|.%.%.1.2.3.3.4.5.6.",
"7.k r r V 8.8.9.9.0.w x y a.b.).c.B d.d.e.D D D E E f.g.G _._.h.I J J K K $.%.%.i.i.2.j.k.l.m.n.o.",
"p.k q.q.8.r.9.s.s.Z Z y z A !.!.B t.u.u.D D v.v.E F F G G H H I w.@.x.K L L i.y.z.z.A.B.C.D.E.F.G.",
"> k u u r.0.w x x '.z A A H.~.~.C C D D I.I.f.F G G H I I +.J.K.L.K M.N.i.i.2.2.A.A.l.O.D.D.P.Q.R.",
"S.k 0.0.w T.x '.'.b.U.V.B C C C D D ^.^.W.X.(.(.G H Y.+.Z.[.`. +.+++i.i.*.2.A.@+#+#+D.D.$+$+%+&+*+",
"=+k Z Z -+;+z  . .`. +>+ +,+'+)+!+~+ +{+]+^+:.)+/+(+_+{+:+`.`.`.`.`.<+[+}+|+1+z D.D.2+2+3+4+5+6+5.",
"7+k y y 8+9+9+<+<+`.`.0+0+`.a+b+c+d+e+f+g+h+i+j+f+k+l+m+M.n+`.o+p+q+r+s+t+u+`.v+D.D.3+3+w+x+y+z+A+",
"B+k z z z A A B B `.f+y y f+s+C+D+`.`.`.(+<.w.E+`.F+G+H+&.*.`. +I+A.J+`.`.`.`. +3+3+w+w+w+w+y+K+n.",
"( k A A !.L+L+C C `.f+8+8+f+s+M+`.N+O+f+`.w.#.A P+Q+`.R+S+T+`. +A.l.U+V+W+W+X+W+w+w+w+w+w+w+y+Y+Z+",
"`+k ....B C C D D `.`. @ @`..@+@`.@@#@`.`.:+$.m+$@k+f+_+2.A.U+`.P+%@#@`.&@*@=@-@w+w+w+w+w+w+y+;@F.",
">@k C C C D D I.I.`. +,@s+,+'@)@!@J+~@ +`.$.%.{@}+f+]@*@^@O.l+M+`.`.h./@!@(+(@_@w+w+w+w+w+w+y+:@<@",
"[@k D D D }@^././.`. +:.:.Y.|@I J [.}.}.L L i.*.1@A.A.l.l.D.D.2@2@3@4@w+5@5@w+w+w+w+w+w+w+w+y+6@7@",
"8@k D D D E 9@0@0@`. +H h.I J J K K L L i.i.2.j.A.k.l.a@a@D.D.3+3+w+x+w+w+w+w+w+w+w+w+w+w+w+y+b@&+",
"c@k M M i.2.z.^@^@O.d@D.D.D.e@3+w+f@g@g@h@i@j@k@k@m.m.l@l@P.P.y+y+y+y+y+y+y+y+y+y+y+y+y+y+y+y+m@n@",
"o@k O O O O O O O O O O O O O O O O O O O O 5.p@n.q@r@s@Q.&+t@u@v@w@z+x@y@z@A@B@C@D@E@F@G@H@I@I@n@",
"J@K@L@L@M@N@O@P@P@Q@R@S@T@U@V@W@X@i l l Y@Z@`@ #.#+#@#####$#$#%#*+5.p@n.n.n.&#q@r@r@*#s@Q.Q.=#-#n@"};
