/* XPM */
static char * automation_glob_bg_sel_xpm[] = {
"16 16 7 1",
" 	c None",
".	c #F4B0B0",
"+	c #F60000",
"@	c #ABB842",
"#	c #A5193A",
"$	c #9CA743",
"%	c #A6B149",
"  ............  ",
" .+++++++++++++ ",
".+@@@@@@@@@@@@+#",
".+$$$$$$$$$$$$+#",
".+%%%%%%%%%%%%+#",
".+@@@@@@@@@@@@+#",
".+$$$$$$$$$$$$+#",
".+%%%%%%%%%%%%+#",
".+@@@@@@@@@@@@+#",
".+$$$$$$$$$$$$+#",
".+%%%%%%%%%%%%+#",
".+@@@@@@@@@@@@+#",
".+$$$$$$$$$$$$+#",
".+%%%%%%%%%%%%+#",
" +++++++++++++# ",
"  ############  "};
