/* XPM */
static char * automation_glob_bg_xpm[] = {
"16 16 9 1",
" 	c None",
".	c #CDD86E",
"+	c #DFEA82",
"@	c #737012",
"#	c #B8C35B",
"$	c #121100",
"%	c #A6B149",
"&	c #9CA743",
"*	c #929B49",
"  ............  ",
" +@@@@@@@@@@@@# ",
".#$$$$$$$$$$$$%&",
".#$$$$$$$$$$$$%&",
".#$$$$$$$$$$$$%&",
".#$$$$$$$$$$$$%&",
".#$$$$$$$$$$$$%&",
".#$$$$$$$$$$$$%&",
".#$$$$$$$$$$$$%&",
".#$$$$$$$$$$$$%&",
".#$$$$$$$$$$$$%&",
".#$$$$$$$$$$$$%&",
".#$$$$$$$$$$$$%&",
".#$$$$$$$$$$$$%&",
" #@@@@@@@@@@@@* ",
"  &&&&&&&&&&&&  "};
