/* XPM */
static char * automation_glob_bg_xpm[] = {
"16 16 94 2",
"  	c None",
". 	c #000000",
"+ 	c #202218",
"@ 	c #6D7252",
"# 	c #AAAF8B",
"$ 	c #C0C6A0",
"% 	c #0B0C08",
"& 	c #60664A",
"* 	c #C5CAA8",
"= 	c #DFE2CF",
"- 	c #D3D6BD",
"; 	c #BEC2A1",
"> 	c #BBBF9F",
", 	c #CDD0B8",
"' 	c #DBDDCC",
") 	c #C4C9A7",
"! 	c #949772",
"~ 	c #D9DCC5",
"{ 	c #CDD1B5",
"] 	c #9EA478",
"^ 	c #8A8F67",
"/ 	c #91976D",
"( 	c #9BA274",
"_ 	c #949A71",
": 	c #BABEA6",
"< 	c #D1D4BF",
"[ 	c #939772",
"} 	c #62684D",
"| 	c #DADDC8",
"1 	c #C2C7A5",
"2 	c #8E946B",
"3 	c #959B6F",
"4 	c #AAB17F",
"5 	c #ACB381",
"6 	c #B4B89A",
"7 	c #CDD0BE",
"8 	c #60664B",
"9 	c #C7CCAB",
"0 	c #CED2B6",
"a 	c #8D936A",
"b 	c #C5C9AF",
"c 	c #B3B79C",
"d 	c #1F2117",
"e 	c #6C7151",
"f 	c #DDE0CC",
"g 	c #A0A67D",
"h 	c #B1B889",
"i 	c #D3D6C4",
"j 	c #616549",
"k 	c #A8AD88",
"l 	c #D6DAC1",
"m 	c #8B9168",
"n 	c #A7AE7D",
"o 	c #D4D7C0",
"p 	c #909476",
"q 	c #C1C6A1",
"r 	c #C6CAAD",
"s 	c #90966C",
"t 	c #CBD0B1",
"u 	c #ADB192",
"v 	c #C3C7AB",
"w 	c #979D71",
"x 	c #CCD0B1",
"y 	c #B1B695",
"z 	c #CFD2BC",
"A 	c #989D7C",
"B 	c #D9DCC9",
"C 	c #989D76",
"D 	c #5B5F44",
"E 	c #BDC0A9",
"F 	c #CFD3B6",
"G 	c #C5C9A9",
"H 	c #191B13",
"I 	c #D2D5C1",
"J 	c #C5C9A7",
"K 	c #565B43",
"L 	c #939671",
"M 	c #CBCDBA",
"N 	c #C5C8AE",
"O 	c #AEB584",
"P 	c #CED2B5",
"Q 	c #878B69",
"R 	c #090906",
"S 	c #5E6448",
"T 	c #B1B598",
"U 	c #D6D8C8",
"V 	c #D4D7BE",
"W 	c #535840",
"X 	c #62664A",
"Y 	c #929679",
"Z 	c #ADB191",
"` 	c #B4B997",
" .	c #9FA383",
"..	c #5C6045",
". . . . + @ # $ $ # @ + . . . . ",
". . % & * = - ; > , ' ) & % . . ",
". % ! ~ { ] ^ / ( ( _ : < [ % . ",
". } | 1 2 3 4 5 5 5 5 4 6 7 8 . ",
"+ 9 0 a ( 5 5 5 5 5 5 5 5 b c d ",
"e f g 3 5 5 5 5 5 5 5 5 5 h i j ",
"k l m n 5 5 5 5 5 5 5 5 5 5 o p ",
"q r s 5 5 5 5 5 5 5 5 5 5 5 t u ",
"q v w 5 5 5 5 5 5 5 5 5 5 5 x y ",
"k z w 5 5 5 5 5 5 5 5 5 5 5 l A ",
"e B C 5 5 5 5 5 5 5 5 5 5 h f D ",
"+ 9 E n 5 5 5 5 5 5 5 5 5 F G H ",
". } I 6 5 5 5 5 5 5 5 5 J | K . ",
". % L M N O 5 5 5 5 O P ~ Q R . ",
". . % S T U - J J V = ) W R . . ",
". . . . d X Y Z `  ...H . . . . "};
