/* XPM */
static char * effect_panel_generic_slider_light_xpm[] = {
"26 140 368 2",
"  	c #4D4D67",
". 	c #4C4C66",
"+ 	c #3E3E52",
"@ 	c #3D3D51",
"# 	c #393A4D",
"$ 	c #38394C",
"% 	c #3D3D52",
"& 	c #142132",
"* 	c #101C2C",
"= 	c #0F1B2A",
"- 	c #101B2A",
"; 	c #0F1927",
"> 	c #0D1724",
", 	c #0D1622",
"' 	c #0E1720",
") 	c #0E161E",
"! 	c #0E141C",
"~ 	c #0C1218",
"{ 	c #090F16",
"] 	c #05090E",
"^ 	c #04070B",
"/ 	c #030508",
"( 	c #020305",
"_ 	c #000102",
": 	c #000101",
"< 	c #6F6F91",
"[ 	c #A0A0C5",
"} 	c #101722",
"| 	c #111E2F",
"1 	c #142439",
"2 	c #162840",
"3 	c #152438",
"4 	c #0C131E",
"5 	c #0A0E13",
"6 	c #0D1217",
"7 	c #11171E",
"8 	c #121A22",
"9 	c #151D25",
"0 	c #141D26",
"a 	c #131D29",
"b 	c #121C29",
"c 	c #121C2A",
"d 	c #111E2D",
"e 	c #121F30",
"f 	c #132133",
"g 	c #152336",
"h 	c #6E6E90",
"i 	c #1C2639",
"j 	c #0F1A2B",
"k 	c #132237",
"l 	c #182C46",
"m 	c #203757",
"n 	c #223855",
"o 	c #203248",
"p 	c #25384D",
"q 	c #2A3F55",
"r 	c #2E435B",
"s 	c #30465E",
"t 	c #30465F",
"u 	c #2C445F",
"v 	c #2A425E",
"w 	c #28405F",
"x 	c #263E5E",
"y 	c #243D5F",
"z 	c #253F62",
"A 	c #264064",
"B 	c #9F9FC4",
"C 	c #1D2334",
"D 	c #0E1929",
"E 	c #132238",
"F 	c #1A2D49",
"G 	c #233C5C",
"H 	c #2C4769",
"I 	c #334E6F",
"J 	c #3B5676",
"K 	c #435F7D",
"L 	c #486681",
"M 	c #4A6683",
"N 	c #466380",
"O 	c #3F5B7A",
"P 	c #375373",
"Q 	c #314C6D",
"R 	c #2C4669",
"S 	c #294466",
"T 	c #264164",
"U 	c #4B4B65",
"V 	c #1A2130",
"W 	c #132339",
"X 	c #1B2E4A",
"Y 	c #263F5F",
"Z 	c #3B5776",
"` 	c #496682",
" .	c #56738D",
"..	c #5E7D94",
"+.	c #607F96",
"@.	c #5C7A92",
"#.	c #516E89",
"$.	c #44607D",
"%.	c #385374",
"&.	c #2F496B",
"*.	c #2A4467",
"=.	c #171E2D",
"-.	c #0E1B2B",
";.	c #15253B",
">.	c #1F334E",
",.	c #294362",
"'.	c #486481",
").	c #58768F",
"!.	c #6A899E",
"~.	c #7696A9",
"{.	c #7899AB",
"].	c #7292A5",
"^.	c #648299",
"/.	c #526F89",
"(.	c #415E7C",
"_.	c #344F70",
":.	c #294366",
"<.	c #0F1825",
"[.	c #111D2F",
"}.	c #16273C",
"|.	c #213551",
"1.	c #304969",
"2.	c #3F5B79",
"3.	c #66859B",
"4.	c #7A9AAC",
"5.	c #87A8B7",
"6.	c #8AACBA",
"7.	c #83A4B4",
"8.	c #7393A6",
"9.	c #5E7C94",
"0.	c #395575",
"a.	c #2E496B",
"b.	c #3C3C51",
"c.	c #0D1623",
"d.	c #1B2C45",
"e.	c #263C5A",
"f.	c #355071",
"g.	c #58758F",
"h.	c #6E8DA2",
"i.	c #82A3B3",
"j.	c #8DAFBD",
"k.	c #90B2BF",
"l.	c #89ABB9",
"m.	c #7C9CAE",
"n.	c #4F6C87",
"o.	c #3D5978",
"p.	c #6D6D8F",
"q.	c #1B2D45",
"r.	c #263D5B",
"s.	c #365172",
"t.	c #46627F",
"u.	c #82A4C4",
"v.	c #90B4CD",
"w.	c #D1F8F7",
"x.	c #7E9FB0",
"y.	c #53708B",
"z.	c #314C6E",
"A.	c #283F5C",
"B.	c #476380",
"C.	c #84A6C5",
"D.	c #91B4CE",
"E.	c #89AAB9",
"F.	c #7F9FB0",
"G.	c #6C8BA0",
"H.	c #55738C",
"I.	c #324D6E",
"J.	c #2B4568",
"K.	c #9E9EC3",
"L.	c #0D1723",
"M.	c #263E5B",
"N.	c #486581",
"O.	c #84A7C5",
"P.	c #92B6CE",
"Q.	c #8BACBA",
"R.	c #7FA0B1",
"S.	c #415D7B",
"T.	c #4A4A64",
"U.	c #132234",
"V.	c #5D7B93",
"W.	c #83A6C4",
"X.	c #92B5CE",
"Y.	c #405C7A",
"Z.	c #142133",
"`.	c #263D5A",
" +	c #82A5C4",
".+	c #8FB3CC",
"++	c #88A9B8",
"@+	c #7D9EAF",
"#+	c #6A8A9F",
"$+	c #54728C",
"%+	c #3B3B50",
"&+	c #142134",
"*+	c #273E5B",
"=+	c #355171",
"-+	c #87A9B8",
";+	c #375272",
">+	c #0E1723",
",+	c #1B2D46",
"'+	c #6C6C8D",
")+	c #9D9DC1",
"!+	c #132233",
"~+	c #283F5B",
"{+	c #142234",
"]+	c #132134",
"^+	c #8BADBB",
"/+	c #6C8CA1",
"(+	c #273C5A",
"_+	c #494963",
":+	c #5F7D95",
"<+	c #56748E",
"[+	c #3A3A4F",
"}+	c #85A7C6",
"|+	c #80A1B1",
"1+	c #6A6A8C",
"2+	c #9A9AC0",
"3+	c #1A2C45",
"4+	c #93B6CF",
"5+	c #8CAEBC",
"6+	c #81A2B2",
"7+	c #0E1622",
"8+	c #1B2E45",
"9+	c #607E96",
"0+	c #85A8C6",
"a+	c #81A1B2",
"b+	c #57758E",
"c+	c #69698B",
"d+	c #484862",
"e+	c #3A3A4E",
"f+	c #142233",
"g+	c #9999BF",
"h+	c #0E1623",
"i+	c #263E5A",
"j+	c #474761",
"k+	c #39394E",
"l+	c #686889",
"m+	c #9898BD",
"n+	c #0D1722",
"o+	c #293E5C",
"p+	c #1A2D45",
"q+	c #676788",
"r+	c #464660",
"s+	c #38384D",
"t+	c #9797BC",
"u+	c #283E5C",
"v+	c #37374C",
"w+	c #666687",
"x+	c #9595BB",
"y+	c #45455F",
"z+	c #273F5A",
"A+	c #283E5B",
"B+	c #9393BA",
"C+	c #44445E",
"D+	c #1B2C46",
"E+	c #36364B",
"F+	c #646486",
"G+	c #0E1722",
"H+	c #273D5B",
"I+	c #44445D",
"J+	c #36364A",
"K+	c #646484",
"L+	c #44445C",
"M+	c #646483",
"N+	c #9393B8",
"O+	c #9393B7",
"P+	c #636382",
"Q+	c #43435B",
"R+	c #363649",
"S+	c #9292B6",
"T+	c #42425A",
"U+	c #353548",
"V+	c #626280",
"W+	c #9191B3",
"X+	c #1A2D46",
"Y+	c #343447",
"Z+	c #8F8FB2",
"`+	c #414159",
" @	c #61617F",
".@	c #263D59",
"+@	c #404058",
"@@	c #333346",
"#@	c #60607E",
"$@	c #8E8EB1",
"%@	c #293F5B",
"&@	c #3F3F57",
"*@	c #323246",
"=@	c #5E5E7C",
"-@	c #8B8BAF",
";@	c #3E3E56",
">@	c #5D5D7B",
",@	c #323245",
"'@	c #8A8AAE",
")@	c #293F5C",
"!@	c #8989AD",
"~@	c #3D3D55",
"{@	c #313144",
"]@	c #5C5C7A",
"^@	c #273F5B",
"/@	c #8888AB",
"(@	c #3C3C54",
"_@	c #273D5A",
":@	c #303043",
"<@	c #5B5B78",
"[@	c #1A2E45",
"}@	c #8888A8",
"|@	c #3C3C52",
"1@	c #303042",
"2@	c #5B5B76",
"3@	c #3C3C53",
"4@	c #3B3B51",
"5@	c #5A5A75",
"6@	c #2F2F41",
"7@	c #8686A7",
"8@	c #3A3A50",
"9@	c #2E2E40",
"0@	c #595973",
"a@	c #8585A5",
"b@	c #6B8A9F",
"c@	c #45617F",
"d@	c #597790",
"e@	c #708FA3",
"f@	c #8EB0BD",
"g@	c #67869C",
"h@	c #253B58",
"i@	c #334E70",
"j@	c #54718B",
"k@	c #7797AA",
"l@	c #628097",
"m@	c #4C6985",
"n@	c #304B6D",
"o@	c #8484A4",
"p@	c #253B59",
"q@	c #2F4A6C",
"r@	c #7A9BAD",
"s@	c #2D476A",
"t@	c #233857",
"u@	c #5A7890",
"v@	c #4A6783",
"w@	c #274165",
"x@	c #39394F",
"y@	c #1A2C44",
"z@	c #213756",
"A@	c #2D486A",
"B@	c #585872",
"C@	c #585973",
"D@	c #5A5B75",
"E@	c #5C5D76",
"F@	c #5F617A",
"G@	c #64677F",
"H@	c #676B82",
"I@	c #6A6F85",
"J@	c #6B7187",
"K@	c #6A6F86",
"L@	c #666A81",
"M@	c #61647C",
"N@	c #5E6078",
"O@	c #8687A6",
"P@	c #8889A8",
"Q@	c #898BA9",
"R@	c #8A8DAA",
"S@	c #8A8DAB",
"T@	c #898CAA",
"U@	c #888AA9",
"V@	c #8789A7",
"W@	c #3B3C52",
"X@	c #3D3E54",
"Y@	c #3E4055",
"Z@	c #3E3F54",
"`@	c #3D3D53",
"                    .                             . ",
"    + @ # $ # @ + + % + + + + + + + + + + +       . ",
"    + & * = = - ; > , ' ) ! ~ { ] ^ / ( _ : ( < [ . ",
"    % } | 1 2 3 4 5 6 7 8 9 0 a b c - d e f g h [ . ",
". . % i j k l m n o p q r s t u v w x y z A A h B . ",
". . % C D E F G H I J K L M N O P Q R S A A T h B . ",
"U . % V D W X Y Q Z `  ...+.@.#.$.%.&.*.A A A h B . ",
"U . % =.-.;.>.,.%.'.).!.~.{.].^./.(._.R :.A A h B . ",
"U . % <.[.}.|.1.2.#.3.4.5.6.7.8.9.` 0.a.:.A A h B . ",
"U . b.c.f d.e.f.$.g.h.i.j.k.l.m.3.n.o.Q :.A A p.B U ",
"U . b.c.f q.r.s.t.@.u.v.w.w.l.x.!.y.2.z.*.A A p.B U ",
"U U b.c.f d.A.s.B...C.D.w.w.E.F.G.H.O I.J.A A p.K.U ",
"U U b.L.f q.M.P N...O.P.w.w.Q.R.G.H.S.I.:.A A p.K.T.",
"U U b.c.U.q.r.P N.V.W.X.w.w.Q.R.G.H.Y.I :.A A p.K.T.",
"U U b.c.Z.q.`.s.B.9. +.+w.w.++@+#+$+2.z.*.A A p.K.T.",
"T.T.%+c.&+d.*+=+N 9. +.+w.w.-+@+#+$+2.z.*.A A p.K.U ",
"T.T.%+c.f d.r.;+'.V.W.D.w.w.Q.F.#+$+Y.I.:.A A p.K.U ",
"T.T.%+>+f ,+r.P '.9.W.X.w.w.Q.R.#+$+Y.z.:.A A '+)+T.",
"T.T.%+c.!+q.~+s.B...C.v.w.w.E.F.G.H.2.z.*.A A '+)+T.",
"T.T.%+c.{+q.*+;+'...O.D.w.w.l.F.G.H.Y.z.*.A A '+)+T.",
"T.T.%+L.]+,+M.%.N...O.P.w.w.^+R./+H.Y.I :.A A '+)+T.",
"T.T.%+c.]+,+(+P N...O.X.w.w.Q.R./+ .Y.z.:.A A '+)+_+",
"T.T.%+L.]+,+A.s.'.:+O.D.w.w.E.F./+<+Y.z.J.A A '+)+_+",
"_+_+[+c.f q.M.P N.:+}+P.w.w.Q.|+/+ .(.I.:.A A 1+2+_+",
"_+_+[+c.Z.3+M.%.` :+}+4+w.w.5+6+h.<+(.I :.A A 1+2+_+",
"_+_+[+7+]+8+*+;+` 9+0+P.w.w.^+a+h.b+(.I.*.A A 1+2+_+",
"_+_+[+, Z.q.A.s.N.9+}+X.w.w.l.R.h.<+Y.I.J.A A c+2+_+",
"_+_+[+L.&+q.M.P N...O.P.w.w.^+|+/+H.S.I.:.A A c+2+_+",
"_+_+[+c.]+q.r.P N.V.W.X.w.w.Q.R.G.H.Y.I :.A A c+2+_+",
"d+_+e+L.f+q.M.s.B.9. +.+w.w.++@+#+$+2.z.*.A A c+g+d+",
"d+_+e+c.Z.q.*+=+N 9. +.+w.w.-+@+#+$+2.z.*.A A c+g+d+",
"d+d+e+h+f q.i+;+'.V.W.D.w.w.Q.F.#+$+Y.I.:.A A c+g+d+",
"d+j+k+c.f q.r.P '.9.W.X.w.w.Q.R.#+$+Y.z.:.A A c+g+j+",
"d+j+k+c.Z.q.*+s.B...C.v.w.w.E.F.G.H.2.z.*.A A c+g+j+",
"d+j+k+L.Z.8+*+;+'...O.D.w.w.l.F.G.H.Y.z.*.A A c+g+j+",
"j+j+k+c.]+q.r.%.N...O.P.w.w.^+R./+H.Y.I :.A A l+m+j+",
"j+j+k+L.&+q.(+P N...O.X.w.w.Q.R./+ .Y.z.:.A A l+m+j+",
"j+j+k+n+&+,+o+s.'.:+O.D.w.w.E.F./+<+Y.z.J.A A l+m+j+",
"j+j+k+c.&+p+M.P N.:+}+P.w.w.Q.|+/+ .(.I.:.A A l+m+j+",
"j+j+k+c.f q.M.%.` :+}+4+w.w.5+6+h.<+(.I :.A A q+m+j+",
"r+r+s+L.Z.8+*+;+` 9+0+P.w.w.^+a+h.b+(.I.*.A A q+t+j+",
"r+r+s+, ]+,+u+s.N.9+}+X.w.w.l.R.h.<+Y.I.J.A A q+t+j+",
"r+r+s+c.&+q.r.P N...O.P.w.w.^+|+/+H.S.I.:.A A q+t+j+",
"r+r+s+c.Z.q.r.P N.V.W.X.w.w.Q.R.G.H.Y.I :.A A q+t+r+",
"r+r+s+L.Z.q.r.s.B.9. +.+w.w.++@+#+$+2.z.*.A A q+t+r+",
"r+r+s+c.f+d.*+=+N 9. +.+w.w.-+@+#+$+2.z.*.A A q+t+r+",
"r+r+v+h+]+q.M.;+'.V.W.D.w.w.Q.F.#+$+Y.I.:.A A w+x+y+",
"r+r+v+c.f d.i+P '.9.W.X.w.w.Q.R.#+$+Y.z.:.A A w+x+y+",
"r+r+v+7+f q.z+s.B...C.v.w.w.E.F.G.H.2.z.*.A A w+x+y+",
"y+y+v+L.Z.q.r.;+'...O.D.w.w.l.F.G.H.Y.z.*.A A w+x+y+",
"y+y+v+c.&+q.i+%.N...O.P.w.w.^+R./+H.Y.I :.A A w+x+y+",
"y+y+v+c.]+,+`.P N...O.X.w.w.Q.R./+ .Y.z.:.A A w+x+y+",
"y+y+v+, &+q.A+s.'.:+O.D.w.w.E.F./+<+Y.z.J.A A w+x+y+",
"y+y+v+c.f q.i+P N.:+}+P.w.w.Q.|+/+ .(.I.:.A A w+B+C+",
"y+y+v+h+&+D+r.%.` :+}+4+w.w.5+6+h.<+(.I :.A A w+B+C+",
"C+C+E+c.&+8+M.;+` 9+0+P.w.w.^+a+h.b+(.I.*.A A F+B+C+",
"C+C+E+G+{+,+u+s.N.9+}+X.w.w.l.R.h.<+Y.I.J.A A F+B+C+",
"C+C+E+c.&+q.M.P N...O.P.w.w.^+|+/+H.S.I.:.A A F+B+C+",
"C+C+E+, ]+,+H+P N.V.W.X.w.w.Q.R.G.H.Y.I :.A A F+B+C+",
"C+I+J+>+{+q.r.s.B.9. +.+w.w.++@+#+$+2.z.*.A A K+B+I+",
"C+L+J+L.f ,+M.=+N 9. +.+w.w.-+@+#+$+2.z.*.A A M+B+L+",
"I+L+J+h+f q.r.;+'.V.W.D.w.w.Q.F.#+$+Y.I.:.A A M+N+L+",
"L+L+J+n+Z.p+M.P '.9.W.X.w.w.Q.R.#+$+Y.z.:.A A M+O+L+",
"L+L+J+c.&+q.*+s.B...C.v.w.w.E.F.G.H.2.z.*.A A M+O+L+",
"L+L+J+c.&+8+M.;+'...O.D.w.w.l.F.G.H.Y.z.*.A A P+O+L+",
"L+L+J+>+]+q.H+%.N...O.P.w.w.^+R./+H.Y.I :.A A M+O+L+",
"L+L+J+h+&+q.e.P N...O.X.w.w.Q.R./+ .Y.z.:.A A M+O+L+",
"L+L+J+>+f p+A.s.'.:+O.D.w.w.E.F./+<+Y.z.J.A A M+O+L+",
"Q+Q+R+h+&+q.r.P N.:+}+P.w.w.Q.|+/+ .(.I.:.A A P+S+Q+",
"Q+T+R+G+&+q.M.%.` :+}+4+w.w.5+6+h.<+(.I :.A A P+S+Q+",
"Q+T+R+c.f 8+*+;+` 9+0+P.w.w.^+a+h.b+(.I.*.A A P+S+Q+",
"T+Q+R+h+!+p+A.s.N.9+}+X.w.w.l.R.h.<+Y.I.J.A A P+S+Q+",
"T+Q+R+c.!+q.r.P N...O.P.w.w.^+|+/+H.S.I.:.A A P+S+Q+",
"T+T+U+L.!+d.*+P N.V.W.X.w.w.Q.R.G.H.Y.I :.A A V+W+T+",
"T+T+U+n+&+,+M.s.B.9. +.+w.w.++@+#+$+2.z.*.A A V+W+T+",
"T+T+U+c.!+q.*+=+N 9. +.+w.w.-+@+#+$+2.z.*.A A V+W+T+",
"T+T+U+n+f X+r.;+'.V.W.D.w.w.Q.F.#+$+Y.I.:.A A V+W+T+",
"T+T+Y+L.f ,+M.P '.9.W.X.w.w.Q.R.#+$+Y.z.:.A A V+Z+T+",
"T+T+Y+c.&+,+z+s.B...C.v.w.w.E.F.G.H.2.z.*.A A V+Z+T+",
"`+T+Y+c.&+8+i+;+'...O.D.w.w.l.F.G.H.Y.z.*.A A  @W+`+",
"`+T+Y+h+f+q.r.%.N...O.P.w.w.^+R./+H.Y.I :.A A  @W+`+",
"`+T+Y+L.f d..@P N...O.X.w.w.Q.R./+ .Y.z.:.A A  @W+`+",
"`+`+Y+L.f d.u+s.'.:+O.D.w.w.E.F./+<+Y.z.J.A A  @Z+`+",
"`+`+Y+c.U.q.r.P N.:+}+P.w.w.Q.|+/+ .(.I.:.A A  @Z++@",
"`+`+Y+c.Z.,+M.%.` :+}+4+w.w.5+6+h.<+(.I :.A A  @Z++@",
"+@+@@@c.]+8+r.;+` 9+0+P.w.w.^+a+h.b+(.I.*.A A #@$@`+",
"+@+@@@c.&+d.%@s.N.9+}+X.w.w.l.R.h.<+Y.I.J.A A #@$@`+",
"+@+@@@, Z.,+r.P N...O.P.w.w.^+|+/+H.S.I.:.A A #@$@`+",
"+@+@@@>+Z.p+M.P N.V.W.X.w.w.Q.R.G.H.Y.I :.A A #@$@+@",
"+@+@@@L.f+D+r.s.B.9. +.+w.w.++@+#+$+2.z.*.A A #@$@+@",
"&@+@@@c.&+,+M.=+N 9. +.+w.w.-+@+#+$+2.z.*.A A #@$@&@",
"&@+@*@h+&+d.r.;+'.V.W.D.w.w.Q.F.#+$+Y.I.:.A A =@-@&@",
"&@+@*@c.&+q.r.P '.9.W.X.w.w.Q.R.#+$+Y.z.:.A A =@-@&@",
"&@&@*@c.]+p+*+s.B...C.v.w.w.E.F.G.H.2.z.*.A A =@-@&@",
"&@&@*@n+&+q.M.;+'...O.D.w.w.l.F.G.H.Y.z.*.A A =@-@&@",
"&@&@*@c.Z.q.M.%.N...O.P.w.w.^+R./+H.Y.I :.A A =@-@&@",
"&@&@*@c.f ,+(+P N...O.X.w.w.Q.R./+ .Y.z.:.A A =@-@&@",
"&@;@*@, ]+,+A.s.'.:+O.D.w.w.E.F./+<+Y.z.J.A A >@-@&@",
"&@;@*@L.&+q.r.P N.:+}+P.w.w.Q.|+/+ .(.I.:.A A >@-@&@",
";@;@,@h+&+q.r.%.` :+}+4+w.w.5+6+h.<+(.I :.A A >@'@;@",
";@;@,@c.{+q.r.;+` 9+0+P.w.w.^+a+h.b+(.I.*.A A >@'@;@",
";@;@,@c.]+q.)@s.N.9+}+X.w.w.l.R.h.<+Y.I.J.A A >@'@;@",
";@;@,@L.]+q.i+P N...O.P.w.w.^+|+/+H.S.I.:.A A >@'@;@",
";@;@,@L.&+q.*+P N.V.W.X.w.w.Q.R.G.H.Y.I :.A A >@'@;@",
";@;@,@c.]+d.*+s.B.9. +.+w.w.++@+#+$+2.z.*.A A >@!@;@",
"~@~@{@L.]+q.r.=+N 9. +.+w.w.-+@+#+$+2.z.*.A A ]@!@~@",
"~@~@{@h+!+q.i+;+'.V.W.D.w.w.Q.F.#+$+Y.I.:.A A ]@!@~@",
"~@~@{@G+]+q.r.P '.9.W.X.w.w.Q.R.#+$+Y.z.:.A A ]@!@~@",
"~@~@{@c.f X+^@s.B...C.v.w.w.E.F.G.H.2.z.*.A A ]@!@~@",
"~@~@{@L.f 8+*+;+'...O.D.w.w.l.F.G.H.Y.z.*.A A ]@!@~@",
"~@~@{@c.{+q.`.%.N...O.P.w.w.^+R./+H.Y.I :.A A ]@/@(@",
"~@~@{@c.&+q._@P N...O.X.w.w.Q.R./+ .Y.z.:.A A ]@/@(@",
"(@(@:@L.]+q.~+s.'.:+O.D.w.w.E.F./+<+Y.z.J.A A <@/@(@",
"(@(@:@>+Z.q.*+P N.:+}+P.w.w.Q.|+/+ .(.I.:.A A <@/@(@",
"(@(@:@c.Z.q.i+%.` :+}+4+w.w.5+6+h.<+(.I :.A A <@/@(@",
"(@(@:@L.]+[@M.;+` 9+0+P.w.w.^+a+h.b+(.I.*.A A <@/@(@",
"(@(@:@c.&+p+u+s.N.9+}+X.w.w.l.R.h.<+Y.I.J.A A <@}@(@",
"(@(@:@, Z.q.M.P N...O.P.w.w.^+|+/+H.S.I.:.A A <@}@(@",
"|@|@1@L.f q.M.P N.V.W.X.w.w.Q.R.G.H.Y.I :.A A 2@}@(@",
"|@|@1@L.&+q.r.s.B.9. +.+w.w.++@+#+$+2.z.*.A A 2@}@3@",
"|@|@1@n+]+q.M.=+N 9. +.+w.w.-+@+#+$+2.z.*.A A 2@}@|@",
"|@|@1@c.Z.q.r.;+'.V.W.D.w.w.Q.F.#+$+Y.I.:.A A 2@}@|@",
"4@|@1@, &+,+M.P '.9.W.X.w.w.Q.R.#+$+Y.z.:.A A 5@}@4@",
"4@|@1@c.]+q.A+s.B...C.v.w.w.E.F.G.H.2.z.*.A A 5@}@4@",
"4@4@6@L.]+8+M.;+'...O.D.w.w.l.F.G.H.Y.z.*.A A 5@7@|@",
"4@4@6@h+&+d.M.%.N...O.P.w.w.^+R./+H.Y.I :.A A 5@7@|@",
"4@4@6@L.&+q..@P N...O.X.w.w.Q.R./+ .Y.z.:.A A 5@7@4@",
"4@4@6@L.Z.q.)@s.'.:+O.D.w.w.E.F./+<+Y.z.J.A A 5@7@4@",
"4@8@9@c.f q.H+P N.:+}+P.w.w.Q.|+/+ .(.I.:.A A 5@7@4@",
"4@8@9@L.]+,+M.%.` :+}+4+w.w.5+6+h.<+(.I :.A A 5@7@4@",
"8@8@9@c.Z.q.M.;+` :+}+P.w.w.Q.|+/+<+(.I.*.A A 0@a@4@",
"8@8@9@L.]+q.o+s.B.V.W.v.w.w.E.x.b@$+2.I.J.A A 0@a@4@",
"8@8@9@c.Z.,+e.=+c@d@e@7.5+f@l.m.g@#.o.Q :.A A 0@a@8@",
"8@8@9@L.f q.h@i@S.j@!.x.6.j.5.k@l@m@J n@:.A A 0@o@8@",
"8@8@9@c.!+q.p@q@J m@:+].F.i.r@b@g.c@s.s@:.A A 0@o@8@",
"8@8@9@h+]+X+t@s@_.(.#.:+!./+g@u@v@o.Q J.w@A A 0@o@8@",
"x@x@x@7+&+y@z@J.q@;+S.m@y.H.#.N.o.i@A@:.A A A 0@o@8@",
"x@x@x@B@B@B@C@D@E@F@G@H@I@J@K@L@M@N@E@0@B@B@B@0@o@8@",
"x@x@x@B@o@o@o@o@a@O@P@Q@R@S@T@U@V@O@a@o@o@o@o@o@o@x@",
"x@x@x@x@x@x@x@x@8@8@W@X@Y@Y@Z@`@4@8@x@x@x@x@x@x@x@x@"};
