/* XPM */
static char * effect_panel_generic_slider_base_xpm[] = {
"26 140 201 2",
"  	c #4D4D67",
". 	c #4C4C66",
"+ 	c #3E3E52",
"@ 	c #3D3D51",
"# 	c #393A4D",
"$ 	c #38394C",
"% 	c #3D3D52",
"& 	c #142132",
"* 	c #101C2C",
"= 	c #0F1B2A",
"- 	c #101B2A",
"; 	c #0F1927",
"> 	c #0D1724",
", 	c #0C1521",
"' 	c #0B131D",
") 	c #0A111A",
"! 	c #090F17",
"~ 	c #080D14",
"{ 	c #060B12",
"] 	c #05090E",
"^ 	c #04070B",
"/ 	c #030508",
"( 	c #020305",
"_ 	c #000102",
": 	c #000101",
"< 	c #6F6F91",
"[ 	c #A0A0C5",
"} 	c #101722",
"| 	c #111E2F",
"1 	c #142439",
"2 	c #162840",
"3 	c #152438",
"4 	c #0B121D",
"5 	c #06090E",
"6 	c #070B11",
"7 	c #090F18",
"8 	c #0B111A",
"9 	c #0C131D",
"0 	c #111E2D",
"a 	c #121F30",
"b 	c #132133",
"c 	c #152336",
"d 	c #6E6E90",
"e 	c #1C2639",
"f 	c #0F1A2B",
"g 	c #132237",
"h 	c #182C46",
"i 	c #1F3656",
"j 	c #1E3351",
"k 	c #182940",
"l 	c #192B42",
"m 	c #1A2D46",
"n 	c #1C2F49",
"o 	c #1D314C",
"p 	c #1F334F",
"q 	c #1F3553",
"r 	c #203755",
"s 	c #223959",
"t 	c #233B5C",
"u 	c #243D5F",
"v 	c #253F62",
"w 	c #264064",
"x 	c #9F9FC4",
"y 	c #1D2334",
"z 	c #0E1929",
"A 	c #132238",
"B 	c #192C48",
"C 	c #1F3758",
"D 	c #253F63",
"E 	c #264164",
"F 	c #274064",
"G 	c #4B4B65",
"H 	c #1A2130",
"I 	c #132339",
"J 	c #1A2D49",
"K 	c #203859",
"L 	c #171E2D",
"M 	c #0E1B2B",
"N 	c #14243A",
"O 	c #1B2E4A",
"P 	c #213A5B",
"Q 	c #0F1825",
"R 	c #111D2F",
"S 	c #15263B",
"T 	c #1C304C",
"U 	c #3C3C51",
"V 	c #0D1623",
"W 	c #1A2B44",
"X 	c #203655",
"Y 	c #6D6D8F",
"Z 	c #43629B",
"` 	c #000000",
" .	c #9E9EC3",
"..	c #0D1723",
"+.	c #1A2C44",
"@.	c #4A4A64",
"#.	c #132234",
"$.	c #142133",
"%.	c #203654",
"&.	c #3B3B50",
"*.	c #142134",
"=.	c #213755",
"-.	c #0E1723",
";.	c #1A2C45",
">.	c #6C6C8D",
",.	c #9D9DC1",
"'.	c #132233",
").	c #142234",
"!.	c #132134",
"~.	c #213655",
"{.	c #494963",
"].	c #3A3A4F",
"^.	c #6A6A8C",
"/.	c #9A9AC0",
"(.	c #192B44",
"_.	c #0E1622",
":.	c #0D1622",
"<.	c #69698B",
"[.	c #484862",
"}.	c #3A3A4E",
"|.	c #142233",
"1.	c #9999BF",
"2.	c #0E1623",
"3.	c #203754",
"4.	c #474761",
"5.	c #39394E",
"6.	c #686889",
"7.	c #9898BD",
"8.	c #0D1722",
"9.	c #192C44",
"0.	c #676788",
"a.	c #464660",
"b.	c #38384D",
"c.	c #9797BC",
"d.	c #37374C",
"e.	c #666687",
"f.	c #9595BB",
"g.	c #45455F",
"h.	c #9393BA",
"i.	c #44445E",
"j.	c #1A2B45",
"k.	c #36364B",
"l.	c #646486",
"m.	c #0E1722",
"n.	c #44445D",
"o.	c #36364A",
"p.	c #646484",
"q.	c #44445C",
"r.	c #646483",
"s.	c #9393B8",
"t.	c #9393B7",
"u.	c #636382",
"v.	c #43435B",
"w.	c #363649",
"x.	c #9292B6",
"y.	c #42425A",
"z.	c #353548",
"A.	c #626280",
"B.	c #9191B3",
"C.	c #192C45",
"D.	c #343447",
"E.	c #8F8FB2",
"F.	c #414159",
"G.	c #61617F",
"H.	c #404058",
"I.	c #333346",
"J.	c #60607E",
"K.	c #8E8EB1",
"L.	c #213754",
"M.	c #3F3F57",
"N.	c #323246",
"O.	c #5E5E7C",
"P.	c #8B8BAF",
"Q.	c #3E3E56",
"R.	c #5D5D7B",
"S.	c #323245",
"T.	c #8A8AAE",
"U.	c #8989AD",
"V.	c #3D3D55",
"W.	c #313144",
"X.	c #5C5C7A",
"Y.	c #8888AB",
"Z.	c #3C3C54",
"`.	c #303043",
" +	c #5B5B78",
".+	c #8888A8",
"++	c #3C3C52",
"@+	c #303042",
"#+	c #5B5B76",
"$+	c #3C3C53",
"%+	c #3B3B51",
"&+	c #5A5A75",
"*+	c #2F2F41",
"=+	c #8686A7",
"-+	c #3A3A50",
";+	c #2E2E40",
">+	c #595973",
",+	c #8585A5",
"'+	c #8484A4",
")+	c #39394F",
"!+	c #585872",
"                    .                             . ",
"    + @ # $ # @ + + % + + + + + + + + + + +       . ",
"    + & * = = - ; > , ' ) ! ~ { ] ^ / ( _ : ( < [ . ",
"    % } | 1 2 3 4 5 6 ~ 7 8 9 , > ; - 0 a b c d [ . ",
". . % e f g h i j k l m n o p q r s t u v w w d x . ",
". . % y z A B C D w w w E w w w w w F E w w E d x . ",
"G . % H z I J K D w w w w w w w w w w w w w w d x . ",
"G . % L M N O P w w w w w w w w w w w w w w w d x . ",
"G . % Q R S T u w w w w w w w w w w w w w w w d x . ",
"G . U V b W X w w w w w w w w w w w w w w w w Y x G ",
"G . U V b W X w w w Z Z ` ` w w w w w w w w w Y x G ",
"G G U V b W r w w w Z Z ` ` w w w w w w w w w Y  .G ",
"G G U ..b +.r w w w Z Z ` ` w w w w w w w w w Y  .@.",
"G G U V #.+.X w w w Z Z ` ` w w w w w w w w w Y  .@.",
"G G U V $.+.%.w w w Z Z ` ` w w w w w w w w w Y  .@.",
"@.@.&.V *.W =.w w w Z Z ` ` w w w w w w w w w Y  .G ",
"@.@.&.V b W X w w w Z Z ` ` w w w w w w w w w Y  .G ",
"@.@.&.-.b ;.X w w w Z Z ` ` w w w w w w w w w >.,.@.",
"@.@.&.V '.+.=.w w w Z Z ` ` w w w w w w w w w >.,.@.",
"@.@.&.V ).W =.w w w Z Z ` ` w w w w w w w w w >.,.@.",
"@.@.&...!.;.r w w w Z Z ` ` w w w w w w w w w >.,.@.",
"@.@.&.V !.;.~.w w w Z Z ` ` w w w w w w w w w >.,.{.",
"@.@.&...!.;.r w w w Z Z ` ` w w w w w w w w w >.,.{.",
"{.{.].V b +.r w w w Z Z ` ` w w w w w w w w w ^./.{.",
"{.{.].V $.(.r w w w Z Z ` ` w w w w w w w w w ^./.{.",
"{.{.]._.!.+.=.w w w Z Z ` ` w w w w w w w w w ^./.{.",
"{.{.].:.$.+.r w w w Z Z ` ` w w w w w w w w w <./.{.",
"{.{.]...*.+.r w w w Z Z ` ` w w w w w w w w w <./.{.",
"{.{.].V !.+.X w w w Z Z ` ` w w w w w w w w w <./.{.",
"[.{.}...|.+.r w w w Z Z ` ` w w w w w w w w w <.1.[.",
"[.{.}.V $.+.=.w w w Z Z ` ` w w w w w w w w w <.1.[.",
"[.[.}.2.b +.3.w w w Z Z ` ` w w w w w w w w w <.1.[.",
"[.4.5.V b +.X w w w Z Z ` ` w w w w w w w w w <.1.4.",
"[.4.5.V $.+.X w w w Z Z ` ` w w w w w w w w w <.1.4.",
"[.4.5...$.+.=.w w w Z Z ` ` w w w w w w w w w <.1.4.",
"4.4.5.V !.+.X w w w Z Z ` ` w w w w w w w w w 6.7.4.",
"4.4.5...*.+.~.w w w Z Z ` ` w w w w w w w w w 6.7.4.",
"4.4.5.8.*.;.~.w w w Z Z ` ` w w w w w w w w w 6.7.4.",
"4.4.5.V *.9.r w w w Z Z ` ` w w w w w w w w w 6.7.4.",
"4.4.5.V b +.r w w w Z Z ` ` w w w w w w w w w 0.7.4.",
"a.a.b...$.+.=.w w w Z Z ` ` w w w w w w w w w 0.c.4.",
"a.a.b.:.!.;.X w w w Z Z ` ` w w w w w w w w w 0.c.4.",
"a.a.b.V *.+.X w w w Z Z ` ` w w w w w w w w w 0.c.4.",
"a.a.b.V $.+.X w w w Z Z ` ` w w w w w w w w w 0.c.a.",
"a.a.b...$.+.X w w w Z Z ` ` w w w w w w w w w 0.c.a.",
"a.a.b.V |.W =.w w w Z Z ` ` w w w w w w w w w 0.c.a.",
"a.a.d.2.!.+.r w w w Z Z ` ` w w w w w w w w w e.f.g.",
"a.a.d.V b W 3.w w w Z Z ` ` w w w w w w w w w e.f.g.",
"a.a.d._.b +.3.w w w Z Z ` ` w w w w w w w w w e.f.g.",
"g.g.d...$.W X w w w Z Z ` ` w w w w w w w w w e.f.g.",
"g.g.d.V *.+.3.w w w Z Z ` ` w w w w w w w w w e.f.g.",
"g.g.d.V !.;.r w w w Z Z ` ` w w w w w w w w w e.f.g.",
"g.g.d.:.*.+.%.w w w Z Z ` ` w w w w w w w w w e.f.g.",
"g.g.d.V b +.3.w w w Z Z ` ` w w w w w w w w w e.h.i.",
"g.g.d.2.*.j.X w w w Z Z ` ` w w w w w w w w w e.h.i.",
"i.i.k.V *.+.r w w w Z Z ` ` w w w w w w w w w l.h.i.",
"i.i.k.m.).;.X w w w Z Z ` ` w w w w w w w w w l.h.i.",
"i.i.k.V *.+.r w w w Z Z ` ` w w w w w w w w w l.h.i.",
"i.i.k.:.!.;.~.w w w Z Z ` ` w w w w w w w w w l.h.i.",
"i.n.o.-.).+.X w w w Z Z ` ` w w w w w w w w w p.h.n.",
"i.q.o...b ;.r w w w Z Z ` ` w w w w w w w w w r.h.q.",
"n.q.o.2.b +.X w w w Z Z ` ` w w w w w w w w w r.s.q.",
"q.q.o.8.$.9.r w w w Z Z ` ` w w w w w w w w w r.t.q.",
"q.q.o.V *.+.X w w w Z Z ` ` w w w w w w w w w r.t.q.",
"q.q.o.V *.+.r w w w Z Z ` ` w w w w w w w w w u.t.q.",
"q.q.o.-.!.+.~.w w w Z Z ` ` w w w w w w w w w r.t.q.",
"q.q.o.2.*.+.X w w w Z Z ` ` w w w w w w w w w r.t.q.",
"q.q.o.-.b 9.r w w w Z Z ` ` w w w w w w w w w r.t.q.",
"v.v.w.2.*.+.X w w w Z Z ` ` w w w w w w w w w u.x.v.",
"v.y.w.m.*.+.r w w w Z Z ` ` w w w w w w w w w u.x.v.",
"v.y.w.V b +.=.w w w Z Z ` ` w w w w w w w w w u.x.v.",
"y.v.w.2.'.9.r w w w Z Z ` ` w w w w w w w w w u.x.v.",
"y.v.w.V '.+.X w w w Z Z ` ` w w w w w w w w w u.x.v.",
"y.y.z...'.W =.w w w Z Z ` ` w w w w w w w w w A.B.y.",
"y.y.z.8.*.;.r w w w Z Z ` ` w w w w w w w w w A.B.y.",
"y.y.z.V '.+.=.w w w Z Z ` ` w w w w w w w w w A.B.y.",
"y.y.z.8.b C.X w w w Z Z ` ` w w w w w w w w w A.B.y.",
"y.y.D...b ;.r w w w Z Z ` ` w w w w w w w w w A.E.y.",
"y.y.D.V *.;.3.w w w Z Z ` ` w w w w w w w w w A.E.y.",
"F.y.D.V *.+.3.w w w Z Z ` ` w w w w w w w w w G.B.F.",
"F.y.D.2.|.+.X w w w Z Z ` ` w w w w w w w w w G.B.F.",
"F.y.D...b W 3.w w w Z Z ` ` w w w w w w w w w G.B.F.",
"F.F.D...b W X w w w Z Z ` ` w w w w w w w w w G.E.F.",
"F.F.D.V #.+.X w w w Z Z ` ` w w w w w w w w w G.E.H.",
"F.F.D.V $.;.r w w w Z Z ` ` w w w w w w w w w G.E.H.",
"H.H.I.V !.+.X w w w Z Z ` ` w w w w w w w w w J.K.F.",
"H.H.I.V *.W L.w w w Z Z ` ` w w w w w w w w w J.K.F.",
"H.H.I.:.$.;.X w w w Z Z ` ` w w w w w w w w w J.K.F.",
"H.H.I.-.$.9.r w w w Z Z ` ` w w w w w w w w w J.K.H.",
"H.H.I...|.j.X w w w Z Z ` ` w w w w w w w w w J.K.H.",
"M.H.I.V *.;.r w w w Z Z ` ` w w w w w w w w w J.K.M.",
"M.H.N.2.*.W X w w w Z Z ` ` w w w w w w w w w O.P.M.",
"M.H.N.V *.+.X w w w Z Z ` ` w w w w w w w w w O.P.M.",
"M.M.N.V !.9.X w w w Z Z ` ` w w w w w w w w w O.P.M.",
"M.M.N.8.*.W r w w w Z Z ` ` w w w w w w w w w O.P.M.",
"M.M.N.V $.+.r w w w Z Z ` ` w w w w w w w w w O.P.M.",
"M.M.N.V b ;.~.w w w Z Z ` ` w w w w w w w w w O.P.M.",
"M.Q.N.:.!.;.r w w w Z Z ` ` w w w w w w w w w R.P.M.",
"M.Q.N...*.+.X w w w Z Z ` ` w w w w w w w w w R.P.M.",
"Q.Q.S.2.*.+.X w w w Z Z ` ` w w w w w w w w w R.T.Q.",
"Q.Q.S.V ).W X w w w Z Z ` ` w w w w w w w w w R.T.Q.",
"Q.Q.S.V !.+.=.w w w Z Z ` ` w w w w w w w w w R.T.Q.",
"Q.Q.S...!.+.3.w w w Z Z ` ` w w w w w w w w w R.T.Q.",
"Q.Q.S...*.+.=.w w w Z Z ` ` w w w w w w w w w R.T.Q.",
"Q.Q.S.V !.W =.w w w Z Z ` ` w w w w w w w w w R.U.Q.",
"V.V.W...!.+.X w w w Z Z ` ` w w w w w w w w w X.U.V.",
"V.V.W.2.'.+.3.w w w Z Z ` ` w w w w w w w w w X.U.V.",
"V.V.W.m.!.+.X w w w Z Z ` ` w w w w w w w w w X.U.V.",
"V.V.W.V b C.r w w w Z Z ` ` w w w w w w w w w X.U.V.",
"V.V.W...b +.=.w w w Z Z ` ` w w w w w w w w w X.U.V.",
"V.V.W.V ).+.%.w w w Z Z ` ` w w w w w w w w w X.Y.Z.",
"V.V.W.V *.+.=.w w w Z Z ` ` w w w w w w w w w X.Y.Z.",
"Z.Z.`...!.+.3.w w w Z Z ` ` w w w w w w w w w  +Y.Z.",
"Z.Z.`.-.$.+.=.w w w Z Z ` ` w w w w w w w w w  +Y.Z.",
"Z.Z.`.V $.+.3.w w w Z Z ` ` w w w w w w w w w  +Y.Z.",
"Z.Z.`...!.9.r w w w Z Z ` ` w w w w w w w w w  +Y.Z.",
"Z.Z.`.V *.9.X w w w Z Z ` ` w w w w w w w w w  +.+Z.",
"Z.Z.`.:.$.+.r w w w Z Z ` ` w w w w w w w w w  +.+Z.",
"++++@+..b +.r w w w Z Z ` ` w w w w w w w w w #+.+Z.",
"++++@+..*.+.X w w w Z Z ` ` w w w w w w w w w #+.+$+",
"++++@+8.!.+.r w w w Z Z ` ` w w w w w w w w w #+.+++",
"++++@+V $.+.X w w w Z Z ` ` w w w w w w w w w #+.+++",
"%+++@+:.*.;.r w w w Z Z ` ` w w w w w w w w w &+.+%+",
"%+++@+V !.+.~.w w w Z Z ` ` w w w w w w w w w &+.+%+",
"%+%+*+..!.+.r w w w Z Z ` ` w w w w w w w w w &+=+++",
"%+%+*+2.*.W r w w w Z Z ` ` w w w w w w w w w &+=+++",
"%+%+*+..*.+.3.w w w Z Z ` ` w w w w w w w w w &+=+%+",
"%+%+*+..$.+.=.w w w Z Z ` ` w w w w w w w w w &+=+%+",
"%+-+;+V b +.~.w w w Z Z ` ` w w w w w w w w w &+=+%+",
"%+-+;+..!.;.r w w w Z Z ` ` w w w w w w w w w &+=+%+",
"-+-+;+V $.W r w w w Z Z ` ` w w w w w w w w w >+,+%+",
"-+-+;+..!.+.~.w w w Z Z ` ` w w w w w w w w w >+,+%+",
"-+-+;+V $.;.X w w w w w w w w w w w w w w w w >+,+-+",
"-+-+;+..b +.%.w w w w w w w w w w w w w w w w >+'+-+",
"-+-+;+V '.+.~.w w w w w w w w w w w w w w w w >+'+-+",
"-+-+;+2.!.C.~.w w w w w w w w w w w w w w w w >+'+-+",
")+)+)+_.*.+.X w w w w w w w w w w w w w w w w >+'+-+",
")+)+)+!+!+!+!+>+!+!+>+!+!+>+>+>+!+!+>+!+!+!+!+>+'+-+",
")+)+)+!+'+'+'+'+'+'+'+'+'+'+'+'+'+'+'+'+'+'+'+'+'+)+",
")+)+)+)+)+)+)+)+)+)+)+)+)+)+)+)+)+)+)+)+)+)+)+)+)+)+"};
