/* XPM */
static char * effect_panel_generic_label_xpm[] = {
"25 140 178 2",
"  	c None",
". 	c #4D4D67",
"+ 	c #4C4C66",
"@ 	c #D2D2D8",
"# 	c #CDD2D8",
"$ 	c #CBD2D8",
"% 	c #C9D2D8",
"& 	c #CCD2D8",
"* 	c #CFD2D8",
"= 	c #4B4B65",
"- 	c #B0BACC",
"; 	c #C3CDD8",
"> 	c #AEB8CA",
", 	c #AAB4C5",
"' 	c #AAB3C5",
") 	c #828A9A",
"! 	c #ADB6C8",
"~ 	c #BEC9D8",
"{ 	c #A8B1C2",
"] 	c #A7B0C2",
"^ 	c #A8B0C2",
"/ 	c #A8B1C3",
"( 	c #A7B0C3",
"_ 	c #7F8797",
": 	c #BDC8D8",
"< 	c #A7B1C2",
"[ 	c #A8B0C3",
"} 	c #A7B1C3",
"| 	c #A9B1C2",
"1 	c #A9B1C3",
"2 	c #7F8796",
"3 	c #A9B2C2",
"4 	c #A9B2C3",
"5 	c #A8B2C3",
"6 	c #4A4A64",
"7 	c #AAB2C3",
"8 	c #A9B2C4",
"9 	c #ACB5C8",
"0 	c #BDC7D8",
"a 	c #494963",
"b 	c #AAB2C2",
"c 	c #7E8796",
"d 	c #AAB1C3",
"e 	c #BDC7D7",
"f 	c #AAB3C3",
"g 	c #AAB2C4",
"h 	c #ABB2C3",
"i 	c #AAB3C4",
"j 	c #ABB2C4",
"k 	c #ACB5C7",
"l 	c #ABB3C3",
"m 	c #ABB3C4",
"n 	c #484862",
"o 	c #BCC7D7",
"p 	c #7E8696",
"q 	c #474761",
"r 	c #ACB2C3",
"s 	c #ACB3C4",
"t 	c #ACB3C3",
"u 	c #ACB4C3",
"v 	c #ABB4C4",
"w 	c #ACB4C4",
"x 	c #ABB4C7",
"y 	c #464660",
"z 	c #BCC6D7",
"A 	c #ACB4C5",
"B 	c #ACB5C5",
"C 	c #ACB5C4",
"D 	c #ADB4C4",
"E 	c #7E8695",
"F 	c #ADB4C5",
"G 	c #45455F",
"H 	c #BCC6D6",
"I 	c #7D8695",
"J 	c #ADB5C4",
"K 	c #ADB5C5",
"L 	c #44445E",
"M 	c #AEB5C4",
"N 	c #AEB5C5",
"O 	c #ADB6C4",
"P 	c #BBC6D6",
"Q 	c #AEB6C5",
"R 	c #7D8595",
"S 	c #ABB4C6",
"T 	c #44445C",
"U 	c #AFB5C5",
"V 	c #AEB5C6",
"W 	c #44445D",
"X 	c #AFB5C4",
"Y 	c #AFB6C5",
"Z 	c #AFB6C4",
"` 	c #AFB5C6",
" .	c #7D8594",
"..	c #AFB7C5",
"+.	c #43435B",
"@.	c #B0B7C5",
"#.	c #B0B6C5",
"$.	c #AFB7C6",
"%.	c #AFB6C6",
"&.	c #B0B7C6",
"*.	c #BBC6D5",
"=.	c #B0B6C6",
"-.	c #42425A",
";.	c #B1B7C5",
">.	c #BBC5D5",
",.	c #B1B7C6",
"'.	c #B1B8C5",
").	c #B0B8C5",
"!.	c #B1B8C6",
"~.	c #B0B8C6",
"{.	c #7C8594",
"].	c #414159",
"^.	c #B2B8C6",
"/.	c #B2B8C5",
"(.	c #404058",
"_.	c #BAC5D5",
":.	c #B2B8C7",
"<.	c #B2B7C6",
"[.	c #7C8493",
"}.	c #B2B9C6",
"|.	c #B3B9C6",
"1.	c #B3B8C6",
"2.	c #3F3F57",
"3.	c #BAC5D4",
"4.	c #B3B9C7",
"5.	c #B3BAC6",
"6.	c #3E3E56",
"7.	c #B4B9C7",
"8.	c #B4B9C6",
"9.	c #B4BAC6",
"0.	c #B3BAC7",
"a.	c #BAC4D4",
"b.	c #B4BAC7",
"c.	c #B5B9C7",
"d.	c #B5BAC7",
"e.	c #B4BBC7",
"f.	c #B5BBC7",
"g.	c #3D3D55",
"h.	c #B5BAC6",
"i.	c #7B8493",
"j.	c #B5BAC8",
"k.	c #3C3C54",
"l.	c #B9C4D4",
"m.	c #B6BBC7",
"n.	c #B6BAC7",
"o.	c #B5BBC8",
"p.	c #B6BBC8",
"q.	c #7B8392",
"r.	c #B6BAC8",
"s.	c #B6BCC6",
"t.	c #B6BBC6",
"u.	c #B6BCC8",
"v.	c #3C3C52",
"w.	c #B6BCC7",
"x.	c #B9C4D3",
"y.	c #B7BCC7",
"z.	c #B7BCC8",
"A.	c #B7BBC8",
"B.	c #3B3B51",
"C.	c #B8BCC8",
"D.	c #B8BCC7",
"E.	c #B8BDC8",
"F.	c #B8BDC7",
"G.	c #B7BDC8",
"H.	c #3A3A50",
"I.	c #B7BDC7",
"J.	c #B9C3D3",
"K.	c #7B8391",
"L.	c #B9BDC8",
"M.	c #B9BCC8",
"N.	c #B9BCC7",
"O.	c #A5AFC0",
"P.	c #B4BED0",
"Q.	c #7B8492",
"R.	c #7A8190",
"S.	c #7A8191",
"T.	c #767E8D",
"U.	c #39394F",
". . . . . + . . . . . . . + . . . . . . . + . . . ",
". . . . . + . . . . . . . + . . . . . . . + . . . ",
". . . . . + . . . . . . . + . . . . . . . + . . . ",
"+ + . + . + . . + + . + . + . . + + . + . + . + . ",
"+ + + @ @ # $ $ $ $ $ $ $ $ $ $ $ $ $ $ $ % + + + ",
"+ + + & @ @ @ @ @ @ @ @ @ @ @ @ @ @ @ @ @ * + + + ",
"+ = + - ; > , ' , ' , , , , , ' , ' , , , ) + + + ",
"+ = + ! ~ { { ] { ^ { { / { { ] / ( / { { _ + + + ",
"+ = + ! : { { ] { ] { { { { { < { ] { { / _ + + + ",
"= = + ! : < / { { ] { [ / { { { / ^ / { { _ + = + ",
"= = + ! : { { [ < { { { / [ { { } { / { { _ + = + ",
"= = = ! : { { / { / [ / | / { / / / { { { _ = = = ",
"= = = ! : { 1 / 1 { / 1 / { 1 / / 1 / / / 2 = = = ",
"= = = ! : 1 / 1 / / 1 1 3 1 1 1 4 4 1 | / 2 = = = ",
"= = = ! : 4 1 / / 4 4 5 5 1 1 { 4 1 1 1 4 2 = = = ",
"= 6 6 ! : 1 1 4 4 4 1 4 4 1 1 4 1 1 1 1 4 _ = = 6 ",
"= 6 6 ! : 7 7 4 4 4 4 4 4 4 8 1 8 4 1 4 4 _ = = 6 ",
"6 6 6 9 0 4 4 4 4 4 4 4 4 4 4 4 4 4 4 4 4 2 6 6 6 ",
"6 6 6 9 0 4 4 4 4 4 4 4 4 4 4 4 4 4 4 4 4 2 6 6 6 ",
"6 6 6 9 0 4 4 4 4 4 4 4 4 4 4 4 4 4 4 4 4 2 6 6 6 ",
"6 6 6 9 0 4 4 7 4 4 4 4 4 4 4 4 4 7 4 4 4 2 6 6 6 ",
"a 6 6 9 0 4 4 1 1 7 4 4 4 4 4 1 b 4 4 7 7 c 6 6 6 ",
"a 6 6 9 0 d 4 7 7 4 4 7 4 7 4 1 b 4 4 7 4 c 6 6 6 ",
"a a a 9 e 7 4 4 7 7 7 4 4 7 7 7 7 7 7 7 4 c a a a ",
"a a a 9 e 4 7 7 7 7 7 7 f 7 7 7 g g 7 7 g c a a a ",
"a a a 9 e 7 h f g i 7 7 g 7 7 g i j f g 7 c a a a ",
"a a a k e f g 7 f f 7 7 h g g f 7 f l 7 l c a a a ",
"a a a k e j j 7 i h m f m h m f m i j i j c a a a ",
"a a a k e l m 7 i i i i j l h i l f h i m c a a a ",
"n n n k o f i f f i i i i i i i f i i i i p n n n ",
"n n n k o i l m i m i i i l f i i i i m l p n n n ",
"n n n k o i m i m m i i i i i i m i i i m p n n n ",
"q n n k o h i m h m i m m l i m h m m m i p n n n ",
"q n n k o j m m j m m m m l m m l m m m i p n n n ",
"q n n k o m m m r m m m m l m m l m s m m p n n n ",
"q q q k o l s t m m m t s s s l l l m t m p n q q ",
"q q q k o t m s t l t m s m m m m m t m t p n q q ",
"q q q k o u s v t l w s t w t s s u s s w p q q q ",
"q q q k o w u w s w w s t w s w w u s s w p q q q ",
"q q q x o w w s w s w v w w w w t w w v w p q y q ",
"q y q x z w w v w v w v v w w v w w s m v p y y y ",
"q y q x z w v w w w w w A w w w w w w w w p y q y ",
"q y q x z B w v w w C w w w w w w w w v w p y q y ",
"y y y x z w w D A w A w w D A w w A w w w E y y y ",
"y y y x z w A D A w A D D D D w w w A F F E y y y ",
"y y y x z F F D A F D F A F A D D D D A F E y y y ",
"G G G x H D w w s D w D D D D D D w w D D I G G y ",
"G G G x H J D D D D D D D D D D D J D D D I G G y ",
"G G G x H D J J J J D D D D D D D D D J D I G G y ",
"G G G x H J D J J J J D D D D F J J D J D I G G G ",
"G G G x H J K D J D J D J J J J D D D J J I G G G ",
"L G L x H K J J J J J J K K J J w K J J J I G G G ",
"L G L x H M N J K K J K K J J J J O J J K I G G G ",
"G L G x P K N K K N J O M K K J Q K K N J R L L L ",
"G L G x P K M N N K M M J N J J K K J N K R L L L ",
"L L L S P N M M K M N N M M N N N M M N N R L L L ",
"L L L S P N M M N N N N N N N N N N N N N R L L L ",
"L T L S P N N N N M N N U N N N U M N N N R L L L ",
"L T L S P N N U N M V N N N U N N Q V N N R L L L ",
"W T W S P U U U U X U Q U N U Y N N N U N R L L L ",
"T T T S P Z ` Y X Z X N Y U Y Y Y U X X U  .L L L ",
"T T T S P X Y Y Y Y X Y U Y Y X Y U Y U U  .W W W ",
"T T T S P Y Y Z U U Y Z Y Y Y Z Y Z Y X Z  .T T T ",
"T T T S P U Y Z Y Y Z Z Y Z Z Z Z Y Z Y Z  .T T T ",
"T T T S P Y Y Y Y Y ..Y Z ..Z Y Z Y Y Y Y  .T T T ",
"+.T T S P ....Y Y ......Y Y ..Y Y ..Y Y Y  .T T T ",
"+.T T S P @...Y ....@.Y ..#...Y Y ......Y  .T T T ",
"+.T T S P $.#.@.@...Y @.#.@...@.@.%.&...%. .T T T ",
"+.+.+.S *.@.&.$.&.....Y @.&.&.=.#.@.@..... .+.+.+.",
"-.+.+.S *.@.$.@.&.@.&.&.@.&.&.@.@.&.&.@.@. .+.+.+.",
"-.+.+.S *.;.@.&.&.&.&.&.&.&.&.&.@.@.&.&.@. .+.+.+.",
"+.+.+.S >.#.,.@.#.,.;.&.#.#.@.@.#.#.@.@.#. .-.+.-.",
"+.+.+.S >.@.&.#.@.,.&.,.#.@.&.@.#.@.,.@.@. .-.+.-.",
"-.-.-.' >.@.@.@.#.@.@.#.@.@.#.#.@.@.@.@.@. .-.-.-.",
"-.-.-.' >.@.@.@.@.#.@.@.@.@.@.@.@.@.@.@.@. .-.-.-.",
"-.-.-.' >.@.'.'.@.@.'.@.;.@.@.'.,.,.@.@.@. .-.-.-.",
"-.-.-.' >.).,.'.@.,.,.@.,.).;.'.@.,.;.,.!. .-.-.-.",
"-.-.-.' >.!.@.;.;.;.;.~.;.;.'.;.@.'.'.@.'.{.-.].].",
"-.-.-.' >.'.,.!.'.'.!.;.;.,.'.;.;.).,.,.;.{.-.].].",
"].].].' >.!.!.!.'.,.'.'.'.,.!.!.!.'.!.^.!.{.].].].",
"].].].' >.'.^.^./.!.!.^./.!.'.!./.'.!.!.!.{.].].].",
"].].].' >.^.^.!.'.!.^./.!.^.!./.!.'.'./.!.{.].].].",
"].].].' >.^.^.^.^.^.^./.^.^.^.^.^.^.!.!.!.{.].].].",
"].].(.' _.!.^.^.^.^.,.^.^.^.^.^.^.^.:.^.^.{.].].].",
"].].(.' _.!.^.^.^.^.^.^.^.^.^.^.^.^.^.^.^.{.].].].",
"(.(.(.' _.,.!.^.^.!.^.,.^.^.^.^.!.^.!.^.<.[.(.].(.",
"(.(.(.' _.^.^.:.^.^.!.^.^.:.}.^.!.^.^.^.}.[.(.].(.",
"(.(.(.' _.^.^.}.}.^.^.^.^.^.^.:.^.^.}.^.^.[.(.].(.",
"(.(.(.' _.^.}.}.^.^.^.}.^.|.^.^.^.^.^.}.}.[.(.(.(.",
"(.(.(.' _.|.^.^.}.1.^.1.1.|.|.}.}.|.1.|.}.[.(.(.(.",
"(.(.(.' _.}.1.|.|.}.|.|.|.|.|.|.}.^.|.|.}.[.(.2.(.",
"2.2.2.' 3.|.|.|.1.|.|.}.|.|.|.|.|.|.|.1.|.[.(.2.2.",
"2.2.2.' 3.|.|.|.4.5.|.|.|.|.|.|.|.|.4.|.5.[.(.2.2.",
"2.2.2.' 3.4.|.|.|.|.|.4.|.|.|.4.4.|.|.|.|.[.2.2.2.",
"2.2.2.' 3.|.4.|.|.|.|.|.4.|.4.|.4.4.|.|.|.[.2.2.2.",
"2.2.2.' 3.|.|.|.|.|.|.4.4.4.|.4.|.4.|.|.|.[.2.2.2.",
"2.2.2.' 3.|.4.|.|.4.|.|.4.|.4.4.4.|.4.|.|.[.2.2.2.",
"2.6.2.' 3.7.8.4.|.7.4.4.4.9.4.|.7.7.7.0.4.[.2.2.2.",
"2.6.2.' 3.8.7.4.4.7.4.8.4.4.5.4.4.4.4.7.0.[.2.2.2.",
"6.6.6.8 a.9.b.b.7.0.4.7.8.b.b.b.|.7.b.b.7.[.6.6.6.",
"6.6.6.8 a.b.7.b.7.b.b.b.b.4.7.7.0.b.7.b.7.[.6.6.6.",
"6.6.6.8 a.b.b.b.b.b.b.b.b.7.c.b.b.b.b.7.b.[.6.6.6.",
"6.6.6.8 a.b.d.b.b.9.b.b.b.b.d.d.d.d.b.b.b.[.6.6.6.",
"6.6.6.8 a.e.b.e.d.9.b.d.f.d.d.d.b.b.d.b.d.[.6.6.6.",
"6.6.g.8 a.d.b.f.9.9.d.b.f.b.b.b.b.9.b.b.d.[.6.6.g.",
"g.g.g.8 a.9.h.b.d.9.b.b.9.h.d.h.b.b.b.b.9.i.g.g.g.",
"g.g.g.8 a.9.b.b.b.b.b.b.d.9.9.b.d.9.b.d.b.i.g.g.g.",
"g.g.g.8 a.b.b.d.b.9.b.b.d.b.h.d.d.d.b.b.b.i.g.g.g.",
"g.g.g.8 a.b.b.d.d.d.b.d.d.d.d.d.d.d.d.b.b.i.g.g.g.",
"g.g.g.8 a.d.f.d.d.d.d.b.d.d.d.d.d.f.f.d.j.i.g.g.g.",
"g.g.k.8 l.d.d.m.d.n.o.f.o.d.n.d.j.f.d.m.p.q.g.g.k.",
"g.g.k.8 l.m.j.r.d.d.p.o.m.n.m.f.d.d.r.o.m.q.g.g.k.",
"k.k.k.8 l.o.r.p.r.f.f.m.p.p.o.p.m.o.p.m.p.q.k.k.k.",
"k.k.k.8 l.m.m.m.m.p.m.m.m.m.m.p.m.o.p.m.m.q.k.k.k.",
"k.k.k.8 l.p.m.m.p.p.s.p.m.t.p.m.p.p.p.t.p.q.k.k.k.",
"k.k.k.8 l.u.p.p.u.p.m.p.m.m.p.u.p.p.p.m.p.q.k.k.k.",
"k.v.k.8 l.p.w.p.p.u.m.p.p.p.p.p.w.m.p.w.m.q.v.v.k.",
"k.v.k.8 l.u.w.u.u.u.w.u.p.p.p.u.m.w.u.w.m.q.v.v.k.",
"v.v.v.4 x.w.w.m.w.w.w.u.y.w.y.w.w.w.p.m.w.q.v.v.v.",
"v.v.v.4 x.u.w.w.y.w.u.y.y.w.w.z.y.w.u.w.w.q.v.v.v.",
"v.v.v.4 x.w.w.w.w.y.z.w.w.y.z.u.w.w.y.y.w.q.v.v.v.",
"v.v.v.4 x.y.z.z.z.y.y.y.y.w.z.u.y.y.z.z.y.q.v.v.v.",
"v.v.v.4 x.y.z.y.y.A.z.y.y.y.y.z.z.y.z.z.z.q.B.v.v.",
"v.v.v.4 x.z.z.z.z.A.z.C.C.z.C.C.z.D.z.z.z.q.B.v.v.",
"B.B.B.4 x.z.z.y.D.y.A.z.z.C.C.z.y.C.z.y.z.q.B.B.B.",
"B.B.B.4 x.C.C.C.C.C.C.z.C.C.C.z.z.z.C.C.C.q.B.B.B.",
"B.B.B.4 x.C.C.C.C.C.C.C.C.C.C.E.z.E.C.E.E.q.B.B.B.",
"B.B.B.4 x.E.C.E.E.C.C.C.C.C.E.y.E.C.y.E.C.q.B.B.B.",
"B.B.B.4 x.C.F.C.E.C.C.E.F.E.C.F.E.E.E.G.E.q.B.H.B.",
"B.B.B.4 x.E.E.C.E.C.E.E.G.E.E.I.E.E.F.D.E.q.B.H.B.",
"H.B.B.4 J.E.F.F.F.G.F.E.F.I.E.E.E.E.F.I.F.K.H.H.H.",
"H.B.B.4 J.E.E.E.E.E.E.E.F.E.E.E.E.L.F.E.E.K.H.H.H.",
"H.H.H./ J.E.E.E.E.L.E.E.F.E.E.L.L.E.E.L.E.K.H.H.H.",
"H.H.H./ J.L.L.L.E.L.E.M.E.L.L.L.E.E.F.N.E.K.H.H.H.",
"H.H.H./ J.L.L.L.L.E.E.L.L.L.E.E.L.L.L.L.E.K.H.H.H.",
"H.H.H.O.P.Q.R.S.S.S.S.R.S.S.S.S.S.S.S.R.S.T.H.H.H.",
"H.U.U.U.U.U.U.H.U.U.U.U.U.U.U.U.U.U.U.H.U.H.H.U.U.",
"H.U.U.U.U.U.U.H.U.U.U.U.U.U.U.U.U.U.U.H.U.H.H.U.U.",
"U.U.U.U.U.U.U.U.U.U.U.U.U.U.U.U.U.U.U.U.U.U.U.U.U.",
"U.U.U.U.U.U.U.U.U.U.U.U.U.U.U.U.U.U.U.U.U.U.U.U.U."};
