/* XPM */
static char * effect_panel_generic_bottom_xpm[] = {
"134 20 187 2",
"  	c #171723",
". 	c #35354B",
"+ 	c #4E4E68",
"@ 	c #36364C",
"# 	c #353549",
"$ 	c #171721",
"% 	c #4D4D67",
"& 	c #343448",
"* 	c #433544",
"= 	c #43383D",
"- 	c #403E3F",
"; 	c #2F2F43",
"> 	c #28283A",
", 	c #2A2A3C",
"' 	c #3A3A50",
") 	c #29293B",
"! 	c #242434",
"~ 	c #3D3D55",
"{ 	c #3E313A",
"] 	c #313131",
"^ 	c #333333",
"/ 	c #454545",
"( 	c #323232",
"_ 	c #2C2C2C",
": 	c #44343E",
"< 	c #39394F",
"[ 	c #161620",
"} 	c #303044",
"| 	c #272739",
"1 	c #463948",
"2 	c #9A8993",
"3 	c #9E9A9C",
"4 	c #5E5B5C",
"5 	c #493E44",
"6 	c #392D3A",
"7 	c #222230",
"8 	c #313145",
"9 	c #404058",
"0 	c #3E303F",
"a 	c #303030",
"b 	c #434343",
"c 	c #949494",
"d 	c #9D9D9D",
"e 	c #000000",
"f 	c #ACACAC",
"g 	c #363636",
"h 	c #292929",
"i 	c #3F323F",
"j 	c #3B3B51",
"k 	c #333347",
"l 	c #2B2B3D",
"m 	c #372A34",
"n 	c #767676",
"o 	c #5B5B5B",
"p 	c #4B4B4B",
"q 	c #3F3F3F",
"r 	c #382B34",
"s 	c #3C3C54",
"t 	c #414159",
"u 	c #382E33",
"v 	c #747474",
"w 	c #ADADAD",
"x 	c #352C31",
"y 	c #2F2F41",
"z 	c #2E2A2C",
"A 	c #3D3D3D",
"B 	c #404040",
"C 	c #484244",
"D 	c #50506A",
"E 	c #393737",
"F 	c #2D2D2D",
"G 	c #686868",
"H 	c #757575",
"I 	c #464646",
"J 	c #5B5859",
"K 	c #231F20",
"L 	c #4C4C4C",
"M 	c #555555",
"N 	c #625A5D",
"O 	c #6D6D93",
"P 	c #6E6E96",
"Q 	c #75759D",
"R 	c #4A4849",
"S 	c #212121",
"T 	c #3E3E3E",
"U 	c #484848",
"V 	c #5F5F5F",
"W 	c #817D7F",
"X 	c #44445E",
"Y 	c #20181E",
"Z 	c #353535",
"` 	c #3C3C3C",
" .	c #816D7F",
"..	c #9B9BBF",
"+.	c #7A7AA2",
"@.	c #69698D",
"#.	c #1B1B27",
"$.	c #56484F",
"%.	c #1D1D1D",
"&.	c #5A5A5A",
"*.	c #7B7B7B",
"=.	c #B2A3AC",
"-.	c #6A6A8E",
";.	c #45455F",
">.	c #292029",
",.	c #3E353A",
"'.	c #494748",
").	c #545051",
"!.	c #6B5B63",
"~.	c #8E7992",
"{.	c #9D9DBF",
"].	c #9999BD",
"^.	c #737399",
"/.	c #43435B",
"(.	c #21212F",
"_.	c #37374D",
":.	c #564758",
"<.	c #262626",
"[.	c #525252",
"}.	c #656565",
"|.	c #898989",
"1.	c #AEAEAE",
"2.	c #AE9DB3",
"3.	c #73739B",
"4.	c #464660",
"5.	c #38384E",
"6.	c #616181",
"7.	c #7878A0",
"8.	c #9797BB",
"9.	c #B0B0D0",
"0.	c #9191B5",
"a.	c #7979A1",
"b.	c #52526E",
"c.	c #4B3B46",
"d.	c #717171",
"e.	c #8C8C8C",
"f.	c #A9A9A9",
"g.	c #C0C0C0",
"h.	c #AA95A6",
"i.	c #555571",
"j.	c #2C2C40",
"k.	c #3E3E56",
"l.	c #484862",
"m.	c #60607E",
"n.	c #76769E",
"o.	c #8585AD",
"p.	c #7D7DA5",
"q.	c #20202E",
"r.	c #252535",
"s.	c #4B3C4D",
"t.	c #5A4C53",
"u.	c #706C6E",
"v.	c #8B8789",
"w.	c #9D8F98",
"x.	c #95829A",
"y.	c #2C2C3E",
"z.	c #67678B",
"A.	c #717199",
"B.	c #2E2E40",
"C.	c #4A4A64",
"D.	c #4B4B65",
"E.	c #494963",
"F.	c #42425A",
"G.	c #14141E",
"H.	c #1B1B29",
"I.	c #1A1A26",
"J.	c #1D1D29",
"K.	c #1E1E2A",
"L.	c #111119",
"M.	c #272737",
"N.	c #44445C",
"O.	c #585874",
"P.	c #5E5E7A",
"Q.	c #636383",
"R.	c #8080A6",
"S.	c #8686AE",
"T.	c #8C8CB2",
"U.	c #8B8BB1",
"V.	c #8585AB",
"W.	c #7F7FA5",
"X.	c #77779F",
"Y.	c #6B6B91",
"Z.	c #676789",
"`.	c #5C5C78",
" +	c #565672",
".+	c #51516D",
"++	c #13131D",
"  . . . . . . . . . . + . . . . . . . . . . . . . . . . . . . . . . . . . . . . . . . . . . . . . . . . . . . . . . . . . . . . . . . . . . . . . . . . . . . . . . . . . . . . . . . . . @ . . . . . . . . . . . . . . . @ . . . . . . . . . . . . @ . + . @ . @ . . . .   ",
"  . . . # . . # . . . + . . . . . . . . . . . . . . # . . . . . . . . . . . . . . . . . . . . . . . . . . . . . # # . . . . . . . . . . # . . . . . . . . . . . . . . . . # . . . . . . . . . . . . . . . . . # . . . . . . . . . . . . . . . . . . . . + . . . . . . . .   ",
"$ . # # # # . . . # . # # # # # . # . . . # # # # . . . # . # # # . # # . . . # . . . . # . . . # # # # . # . . . . . . . # . . . # # # . . . . . . . # . . . . # . . . # . . . . . . . . # # . . . # . . . . . . . . # . # . # . . . . . . # . . # . . + . # . . . . # .   ",
"$ # # # # # # # # # # # # # # # # # # # # # # # # # # # # # # # # # # # # # # # # # # # # # # # # # # # # # # # # # # # # # # # # # # # # . # # # # # # # # # # # # # # # # # # # # # # # # # # # # # # # # # # # # # . . . # # # # . # # . # # # # # . % # # # # # # # #   ",
"$ # # # # # # # # # # # # # # # # # # # # # # # # # # # # # # # # # # # # # # # # # # # # # # # # # # # # # # # # # # # & # # # # # # # # # # # # # # # # # # # # # # # # # # # # # # # # # # # # # # # # # # # # # # # # # # # # # # # # # # # * = - - = * # # # # # # # $ ",
"$ # & # & # ; > , ' ) ! , # ~ # # # # # & # & # # & # # # # # & & # # & # # # # # # # # & # # # & # & # # # # # # # # & & # # # & # # # & # # # # # # # # # # # # # # & # # & & # # # # # & # & # # # # # # # # # # # # & # # # # # # # & # & { ] ^ / ( _ ^ : < # # # # # $ ",
"[ & & & & } | 1 2 3 4 5 6 7 8 9 & & & & & & & & & & & & & & & & & & & & & & & & & & & & & & & & & & & & & & # # & & # & & & # & & & & & & & # & & & & & & & & # & & & & & # & & & & & & & & & # & & & & & & & & # & & & & # & & & # & & & & 0 a b c d e f g h i j & & # # $ ",
"[ k k k k l m e e n o p q r ) s t & & & & & & & & & & & & & & & & & & & & & & & & & & & & & & & & & & & & & & & & & & & & & & & & & & & & & & & & & & & & & & & & & & & & & & & & & & & & & & & & & & & & & & & & & & & & & & & & & & & & & u ( v w n e f q ^ x s j & & & [ ",
"$ # # # # y z f f e e A B C % D D # # # # # # # # # # # # # # # # # # # # # # # # # # # # # # # # # # # # # # # # # # # # # # # # # # # # # # # # # # # # # # # # # # # # # # # # # # # # # # # # # # # # # # # # # # # # # # # # # # # # # E F G H e f A B I J D D # # # $ ",
"$ # # # # ~ K L M f f e e N O P Q # # # # # # # # # # # # # # # # # # # # # # # # # # # # # # # # # # # # # # # # # # # # # # # # # # # # # # # # # # # # # # # # # # # # # # # # # # # # # # # # # # # # # # # # e e # # e e # # e e # # # R S L M e f T U V W P Q # # # $ ",
"$ # # # # X Y Z q ` B f f  ...+.@.# # # # # # # # # # # # # # # # # # # # # # # # # # # # # # # # # # # # # # # # # # # # # # # # # # # # # # # # # # # # # # # # # # # # # # # # # # # # # # # # # # # # # # # # e e #.# e e #.# e e #.# # $.%.Z e f B U &.*.=.+.-.# # # $ ",
"$ # # # # ;., >.,.'.).!.~.{.].^./.# % % % % % % % % % % % % % % % % % % % % % % % % % % % % % % % % % % % % % % % % % % % % % % % % % % % % % % % % % % % % % % % % % % % % % % % % % % % % % % % % % % % % % % % (.(._.% (.(._.% (.(._.% % :.^ <.e f [.}.|.1.2.3.4.# # # $ ",
"$ # # # # ' s , 5.6.7.8.9.0.a.b.(.# # # # # # # # # # # # # # # # # # # # # # # # # # # # # # # # # # # # # # # # # # # # # # # # # # # # # # # # # # # # # # # # # # # # # # # # # # # # # # # # # # # # # # # # e e #.# e e #.# e e #.# # ' c.^ b d.e.f.g.h.a.i.j.# # # $ ",
"$ # # # # # ~ k.l.m.n.o.p.-.D q.r.# # # # # # # # # # # # # # # # # # # # # # # # # # # # # # # # # # # # # # # # # # # # # # # # # # # # # # # # # # # # # # # # # # # # # # # # # # # # # # # # # # # # # # # # e e #.# e e #.# e e #.# # # @ s.t.u.v.w.x.-.D , y.# # # $ ",
"$ # # # # # # @ j X z.A.b.# #.r.# # # # # # # # # # # # # # # # # # # # # # # # # # # # # # # # # # # # # # # # # # # # # # # # # # # # # # # # # # # # # # # # # # # # # # # # # # # # # # # # # # # # # # # # # e e #.# e e #.# e e #.# # # # B.. X z.A.i.< r.y.# # # # $ ",
"$ # # # # # # # # y.q.q.q.q.r.# # # # # # # # # # # # # # # # # # # # # # # # # # # # # # # # # # # # # # # # # # # # # # # # # # # # # # # # # # # # # # # # # # # # # # # # # # # # # # # # # # # # # # # # # # e e #.# e e #.# e e #.# # # # # y.r.q.q.q.r.y.# # # # # $ ",
"[ & & . @ @ _._._.@ _._.@ @ _._._._.@ _.@ _._._._._._._._.@ _._._._._._._._._.@ _._._._._._._._.@ _._._._._._._._._.@ _._._._._._._._._._._._._._._._._._._._._._.@ _._._._._.@ _._._._._._._._._.@ @ _._._._._._.e e #._.e e #._.e e #.@ _._._._.@ _.@ _._._.@ @ . . & k [ ",
"[ # j ;.C.D.D.D.D.D.D.D.D.D.D.D.D.D.D.D.D.D.D.D.D.D.D.D.D.D.D.D.D.D.D.D.D.D.D.D.C.D.D.D.D.D.D.D.D.D.D.D.D.D.D.D.D.D.D.D.C.D.D.D.D.D.D.D.D.C.D.D.D.D.D.D.D.D.D.D.D.D.D.D.C.D.D.D.D.D.D.D.D.D.D.D.D.D.D.D.D.D.C.D.C.e e #.C.e e #.D.e e #.D.D.D.D.C.C.D.D.D.D.D.C.E.l.F.5.& [ ",
"G.8 , H.I.#.#.#.#.#.#.#.#.#.#.#.#.#.#.#.#.#.#.#.#.#.#.#.#.#.#.#.#.#.#.#.#.#.#.#.#.#.#.#.#.#.#.#.#.#.#.#.I.I.#.#.H.H.J.J.J.H.J.J.K.K.K.K.K.K.K.K.K.J.H.J.J.H.H.H.H.H.#.I.#.#.#.#.#.#.#.#.#.#.#.#.#.#.#.#.#.#.#.#.#.e e #.#.e e #.#.e e #.#.#.#.#.#.#.#.#.#.#.#.#.#.#.K.y k [ ",
"L.l , , > > | M.M.M.M.M.M.M.M.M.M.M.M.M.M.M.M.M.M.M.M.M.M.M.M.M.M.M.M.M.M.M.M.M.M.M.M.M.M.M.M.M.) j.8 @ s N.C.C.b.O.P.Q.z.O ^.a.R.S.S.T.0.U.V.W.X.A.Y.Z.6.`.`. +.+D.X ~ # l M.M.M.M.M.M.M.M.M.M.M.M.M.M.M.M.M.M.M.e e #.M.e e #.M.e e #.M.M.M.M.M.M.M.M.M.M.M.M.> > l B.; ++"};
