/* XPM */
static char * effect_panel_generic_slider_grabber_xpm[] = {
"15 29 172 2",
"  	c None",
". 	c #3B3C3C",
"+ 	c #111010",
"@ 	c #1D1D1D",
"# 	c #1D1D1C",
"$ 	c #1E1D1D",
"% 	c #1E1E1D",
"& 	c #1E1D1E",
"* 	c #403F40",
"= 	c #000000",
"- 	c #3E3E3F",
"; 	c #121212",
"> 	c #1F1E1F",
", 	c #201F1F",
"' 	c #1F1F1F",
") 	c #202020",
"! 	c #212121",
"~ 	c #232323",
"{ 	c #232223",
"] 	c #222221",
"^ 	c #121312",
"/ 	c #3E3E3E",
"( 	c #3C3C3D",
"_ 	c #131413",
": 	c #222122",
"< 	c #262624",
"[ 	c #272527",
"} 	c #282828",
"| 	c #292828",
"1 	c #292829",
"2 	c #222323",
"3 	c #141414",
"4 	c #3A3A3A",
"5 	c #242424",
"6 	c #2C2C2D",
"7 	c #2F2F2F",
"8 	c #313130",
"9 	c #313030",
"0 	c #313131",
"a 	c #2F2D2F",
"b 	c #2B2A2A",
"c 	c #272727",
"d 	c #252625",
"e 	c #393939",
"f 	c #383938",
"g 	c #262626",
"h 	c #272626",
"i 	c #343435",
"j 	c #3D3D3D",
"k 	c #403D3D",
"l 	c #3C3C3C",
"m 	c #3A3737",
"n 	c #29292A",
"o 	c #282728",
"p 	c #373737",
"q 	c #363636",
"r 	c #292929",
"s 	c #2E2E2E",
"t 	c #404040",
"u 	c #414142",
"v 	c #424142",
"w 	c #403F3F",
"x 	c #3B3D3D",
"y 	c #3F3F3F",
"z 	c #2A2A2A",
"A 	c #343534",
"B 	c #3D3D3B",
"C 	c #343433",
"D 	c #3B3B3A",
"E 	c #2B2C2C",
"F 	c #2C2B2B",
"G 	c #414141",
"H 	c #424242",
"I 	c #353434",
"J 	c #2D2D2D",
"K 	c #2D2C2C",
"L 	c #333232",
"M 	c #F1F1F1",
"N 	c #F5F5F5",
"O 	c #FAFAFA",
"P 	c #FDFDFD",
"Q 	c #FEFEFE",
"R 	c #FCFCFC",
"S 	c #F7F7F7",
"T 	c #302F2F",
"U 	c #2C2C2C",
"V 	c #555555",
"W 	c #555455",
"X 	c #5B5B5B",
"Y 	c #626262",
"Z 	c #626261",
"` 	c #616160",
" .	c #5C5B5B",
"..	c #535453",
"+.	c #535353",
"@.	c #2B2B2B",
"#.	c #5A5A5A",
"$.	c #676767",
"%.	c #696868",
"&.	c #686868",
"*.	c #686867",
"=.	c #686768",
"-.	c #676768",
";.	c #656565",
">.	c #5E5E5F",
",.	c #585857",
"'.	c #585757",
").	c #2A2929",
"!.	c #282827",
"~.	c #5E5F5E",
"{.	c #5F5F5F",
"].	c #6D6E6E",
"^.	c #6E6E6F",
"/.	c #6E6E6E",
"(.	c #6E6E6C",
"_.	c #6C6E6C",
":.	c #6E6C6C",
"<.	c #5D5C5D",
"[.	c #5C5C5D",
"}.	c #272627",
"|.	c #272726",
"1.	c #262525",
"2.	c #484848",
"3.	c #646463",
"4.	c #737373",
"5.	c #727373",
"6.	c #727372",
"7.	c #737272",
"8.	c #727272",
"9.	c #6C6C6C",
"0.	c #616162",
"a.	c #464647",
"b.	c #242423",
"c.	c #252424",
"d.	c #202021",
"e.	c #4D4D4D",
"f.	c #696869",
"g.	c #686968",
"h.	c #797979",
"i.	c #787979",
"j.	c #787978",
"k.	c #787777",
"l.	c #717070",
"m.	c #696969",
"n.	c #666667",
"o.	c #4A4B4B",
"p.	c #222223",
"q.	c #1D1C1D",
"r.	c #4E4E4E",
"s.	c #707070",
"t.	c #747374",
"u.	c #676766",
"v.	c #646464",
"w.	c #626362",
"x.	c #303030",
"y.	c #1A1A1A",
"z.	c #212020",
"A.	c #2E2E2D",
"B.	c #3E3E3D",
"C.	c #444443",
"D.	c #474747",
"E.	c #484949",
"F.	c #4B4B4B",
"G.	c #4D4D4C",
"H.	c #393839",
"I.	c #262526",
"J.	c #101010",
"K.	c #151515",
"L.	c #131313",
"M.	c #121112",
"N.	c #131212",
"O.	c #0D0D0D",
"    . . . . . . . . . . . .   ",
". + @ # @ @ @ @ @ $ % & & + * ",
". = = = = = = = = = = = = = - ",
". ; > , ' ) ! ~ { ] ) ) ) ^ / ",
". = = = = = = = = = = = = = ( ",
". _ : : < [ } } | 1 } | 2 3 . ",
". = = = = = = = = = = = = = 4 ",
". 5 5 5 6 7 8 9 0 8 a b c d e ",
". = = = = = = = = = = = = = f ",
". g c h i 4 j j k k l m n o p ",
". = = = = = = = = = = = = = q ",
". 1 r s t u v v w x y j z z A ",
"B = = = = = = = = = = = = = C ",
"D E F E G H H t j 4 e I J K L ",
"7 M M M M N O P Q Q R S M M T ",
"U V W X Y Y Y Z `  .V ..+.+.K ",
"@.= = = = = = = = = = = = = @.",
"z #.#.$.%.&.*.=.-.-.;.>.,.'.z ",
"r = = = = = = = = = = = = = ).",
"!.~.{.].^./.(.(.(._.:.$.<.[.!.",
"}.= = = = = = = = = = = = = |.",
"1.2.3.:.4.5.6.7.8.8.8.9.0.a.b.",
"c.= = = = = = = = = = = = = d.",
"~ e.f.g.h.h.h.i.j.k.l.m.n.o.$ ",
"p.= = = = = = = = = = = = = q.",
"! q r.$.9.s.t./.u.v.w.v.2.x.y.",
"z.= = = = = = = = = = = = = 3 ",
"@ A.B.C.D.E.F.F.G.r.e.r.H.I.J.",
"  K.L.; ; M.N.; ; L.; ; O.O.  "};
