/* XPM */
static char * effect_panel_generic_bottom_xpm[] = {
"101 12 27 1",
" 	c None",
".	c #656F83",
"+	c #657083",
"@	c #667083",
"#	c #677184",
"$	c #677285",
"%	c #667084",
"&	c #677286",
"*	c #748196",
"=	c #737F94",
"-	c #748096",
";	c #748095",
">	c #8390A5",
",	c #828EA4",
"'	c #8391A5",
")	c #828FA4",
"!	c #3D4656",
"~	c #3D4655",
"{	c #3D4354",
"]	c #3D485A",
"^	c #42495A",
"/	c #43495B",
"(	c #17253C",
"_	c #17273C",
":	c #17273D",
"<	c #18273D",
"[	c #1A273E",
".....................................................................................................",
".....................................................................................................",
"+++++++++++++++++++++++++++++++++++++++++++++++++++++++++++++++++++++++++++++++++++++++++++++++++++++",
"@@@@@@@@@@@@@@@@@@@@@@@@@@@@@@@@@@@@@@@@@@@@@@@@@@@@@@@@@@@@@@@@@@@@@@@@@@@@@@@@@@@@@@@@@@@@@@@@@@@@@",
"@@@@@@@@@@@@@@@@@@@@@@@@@@@@@@@@@@@@@@@@@@@@@@@@@@@@@@@@@@@@@@@@@@@@@@@@@@@@@@@@@@@@@@@@@@@@@@@@@@@@@",
"#####################################################################################################",
"#####################################################################################################",
"$$$$%$%$$$$$$$$%$$$$$$$$%&$$$$$$%$$$$$$$$%$&$$$$$$$&$$$$$$$$$$%$$&$$%$$$$$$$$$$%$$&$$%$$$$$$$$%%$$$$&",
"****=*=********=********=-******=********=*;*******;**********=**-**=**********=**-**=********==****-",
">>>>>>>>>>>>>>>>>>>>>>>>>,>>>>>>>>>>>>>>>'>)>>>>>>>)>>>>>>>>>>>>>,>>>>>>>>>>>>>>>>,>>>>>>>>>>>>>>>>>,",
"!!!!!!!!!!!!!!!!!!!!!!!!!~!!!!!!!!!!{{!]]^^^]^^////////^]^^]]]]!{~!!!!!!!]^^]]]]!{~!!!!!!!!!!!!!!!!!~",
"(((((((((((((((((((((((((_(((((((((((((::<<<:<<[[[[[[[[<:<<::::((_(((((((:<<::::((_(((((((((((((((((_"};
