/* XPM */
static char * effect_panel_generic_vu_empty_xpm[] = {
"26 140 525 2",
"  	c #4D4D67",
". 	c #4C4C66",
"+ 	c #3E3E52",
"@ 	c #3D3D51",
"# 	c #393A4D",
"$ 	c #38394C",
"% 	c #3D3D52",
"& 	c #142132",
"* 	c #101C2C",
"= 	c #0F1B2A",
"- 	c #101B2A",
"; 	c #0F1927",
"> 	c #0D1724",
", 	c #0C1521",
"' 	c #0B131D",
") 	c #0A111A",
"! 	c #090F17",
"~ 	c #080D14",
"{ 	c #060B12",
"] 	c #05090E",
"^ 	c #04070B",
"/ 	c #030508",
"( 	c #020305",
"_ 	c #000102",
": 	c #000101",
"< 	c #6F6F91",
"[ 	c #A0A0C5",
"} 	c #101722",
"| 	c #111E2F",
"1 	c #142439",
"2 	c #162840",
"3 	c #152438",
"4 	c #0B121D",
"5 	c #06090E",
"6 	c #070B11",
"7 	c #090F18",
"8 	c #0B111A",
"9 	c #0C131D",
"0 	c #111E2D",
"a 	c #121F30",
"b 	c #132133",
"c 	c #152336",
"d 	c #6E6E90",
"e 	c #1C2639",
"f 	c #0F1A2B",
"g 	c #832009",
"h 	c #822009",
"i 	c #822008",
"j 	c #831F09",
"k 	c #821F09",
"l 	c #832008",
"m 	c #831F08",
"n 	c #264064",
"o 	c #9F9FC4",
"p 	c #1D2334",
"q 	c #0E1623",
"r 	c #5D1D0A",
"s 	c #5D1D09",
"t 	c #5D1C0A",
"u 	c #213652",
"v 	c #4B4B65",
"w 	c #1A2130",
"x 	c #0E1929",
"y 	c #7F2309",
"z 	c #80230A",
"A 	c #802309",
"B 	c #7F230A",
"C 	c #171E2D",
"D 	c #0E1B2B",
"E 	c #7E250A",
"F 	c #7D250A",
"G 	c #0F1825",
"H 	c #101A28",
"I 	c #5A210A",
"J 	c #3C3C51",
"K 	c #0D1623",
"L 	c #7B280A",
"M 	c #7B290A",
"N 	c #6D6D8F",
"O 	c #7A2B0A",
"P 	c #7A2B0B",
"Q 	c #7B2B0A",
"R 	c #121D2B",
"S 	c #57250B",
"T 	c #58260B",
"U 	c #57260B",
"V 	c #58250B",
"W 	c #9E9EC3",
"X 	c #0D1723",
"Y 	c #772E0B",
"Z 	c #762E0B",
"` 	c #772F0B",
" .	c #4A4A64",
"..	c #132234",
"+.	c #75300C",
"@.	c #75300B",
"#.	c #76300C",
"$.	c #76300B",
"%.	c #552A0C",
"&.	c #542B0C",
"*.	c #542A0C",
"=.	c #552B0C",
"-.	c #3B3B50",
";.	c #142134",
">.	c #72340C",
",.	c #72360D",
"'.	c #72350C",
").	c #72360C",
"!.	c #71360C",
"~.	c #71360D",
"{.	c #72350D",
"].	c #0E1723",
"^.	c #532E0C",
"/.	c #522E0C",
"(.	c #522E0D",
"_.	c #532E0D",
":.	c #6C6C8D",
"<.	c #9D9DC1",
"[.	c #132233",
"}.	c #6F390D",
"|.	c #70390D",
"1.	c #142234",
"2.	c #6E3A0D",
"3.	c #6F3A0D",
"4.	c #121D2C",
"5.	c #50310D",
"6.	c #51310D",
"7.	c #132134",
"8.	c #6C3D0D",
"9.	c #6C3D0E",
"0.	c #494963",
"a.	c #6C3F0E",
"b.	c #6B3F0D",
"c.	c #6B3F0E",
"d.	c #6C3F0D",
"e.	c #3A3A4F",
"f.	c #4F340D",
"g.	c #4E340D",
"h.	c #4E340E",
"i.	c #4E350D",
"j.	c #4F340E",
"k.	c #4F350D",
"l.	c #4F350E",
"m.	c #6A6A8C",
"n.	c #9A9AC0",
"o.	c #142133",
"p.	c #69410E",
"q.	c #6A420E",
"r.	c #6A410E",
"s.	c #69420E",
"t.	c #0E1622",
"u.	c #68430E",
"v.	c #69430E",
"w.	c #0D1622",
"x.	c #4D380E",
"y.	c #4E380E",
"z.	c #69698B",
"A.	c #67470F",
"B.	c #67470E",
"C.	c #66490F",
"D.	c #66480F",
"E.	c #65490F",
"F.	c #65480F",
"G.	c #484862",
"H.	c #3A3A4E",
"I.	c #121E2B",
"J.	c #4B3C0E",
"K.	c #4B3B0E",
"L.	c #9999BF",
"M.	c #644C0F",
"N.	c #644B0F",
"O.	c #634C0F",
"P.	c #634E0F",
"Q.	c #634E10",
"R.	c #474761",
"S.	c #39394E",
"T.	c #4A400F",
"U.	c #4A3F0F",
"V.	c #615210",
"W.	c #605210",
"X.	c #5F5311",
"Y.	c #5E5311",
"Z.	c #5F5312",
"`.	c #5E5312",
" +	c #474211",
".+	c #464211",
"++	c #474311",
"@+	c #464311",
"#+	c #686889",
"$+	c #9898BD",
"%+	c #595614",
"&+	c #595714",
"*+	c #595615",
"=+	c #5A5714",
"-+	c #595715",
";+	c #5A5715",
">+	c #0D1722",
",+	c #565816",
"'+	c #575816",
")+	c #424515",
"!+	c #525C19",
"~+	c #525B19",
"{+	c #676788",
"]+	c #464660",
"^+	c #38384D",
"/+	c #4F5D1A",
"(+	c #505D1B",
"_+	c #4F5D1B",
":+	c #505D1A",
"<+	c #9797BC",
"[+	c #3E4819",
"}+	c #3E4919",
"|+	c #4B611E",
"1+	c #4B601D",
"2+	c #4B611D",
"3+	c #4B601E",
"4+	c #49631F",
"5+	c #4A631F",
"6+	c #49621F",
"7+	c #3A4B1C",
"8+	c #394B1C",
"9+	c #142233",
"0+	c #456722",
"a+	c #456622",
"b+	c #37374C",
"c+	c #436824",
"d+	c #446823",
"e+	c #436723",
"f+	c #436823",
"g+	c #446824",
"h+	c #436724",
"i+	c #666687",
"j+	c #9595BB",
"k+	c #45455F",
"l+	c #364E20",
"m+	c #416C27",
"n+	c #416C26",
"o+	c #406C26",
"p+	c #406C27",
"q+	c #3F6E28",
"r+	c #3F6D28",
"s+	c #325223",
"t+	c #3C722B",
"u+	c #3B712B",
"v+	c #3C712B",
"w+	c #3A722C",
"x+	c #3A732C",
"y+	c #2F5526",
"z+	c #9393BA",
"A+	c #44445E",
"B+	c #37772F",
"C+	c #37782F",
"D+	c #36364B",
"E+	c #367930",
"F+	c #367A30",
"G+	c #357930",
"H+	c #357A30",
"I+	c #646486",
"J+	c #0E1722",
"K+	c #121E2C",
"L+	c #2C582A",
"M+	c #2B592A",
"N+	c #2B582A",
"O+	c #337C34",
"P+	c #337C33",
"Q+	c #337D34",
"R+	c #327C33",
"S+	c #327D34",
"T+	c #337D33",
"U+	c #317F34",
"V+	c #317F35",
"W+	c #317E35",
"X+	c #44445D",
"Y+	c #36364A",
"Z+	c #285D2D",
"`+	c #285C2D",
" @	c #646484",
".@	c #44445C",
"+@	c #2E8338",
"@@	c #2F8338",
"#@	c #646483",
"$@	c #2E8238",
"%@	c #9393B8",
"&@	c #275D2E",
"*@	c #265D2E",
"=@	c #9393B7",
"-@	c #2E8137",
";@	c #2D8237",
">@	c #2D8137",
",@	c #2D8037",
"'@	c #636382",
")@	c #265C2D",
"!@	c #265B2D",
"~@	c #2D8036",
"{@	c #2D7F37",
"]@	c #2D7F36",
"^@	c #2C7F36",
"/@	c #2D7E36",
"(@	c #2C7E36",
"_@	c #43435B",
":@	c #363649",
"<@	c #255B2D",
"[@	c #9292B6",
"}@	c #42425A",
"|@	c #2C7D36",
"1@	c #2C7D35",
"2@	c #2C7E35",
"3@	c #2C7C35",
"4@	c #255A2C",
"5@	c #255A2D",
"6@	c #2B7C34",
"7@	c #2B7B35",
"8@	c #2B7B34",
"9@	c #2B7C35",
"0@	c #353548",
"a@	c #626280",
"b@	c #9191B3",
"c@	c #25582B",
"d@	c #25582C",
"e@	c #25592B",
"f@	c #24592B",
"g@	c #24582B",
"h@	c #24582C",
"i@	c #25592C",
"j@	c #24592C",
"k@	c #2B7A34",
"l@	c #2A7B34",
"m@	c #2A7A34",
"n@	c #343447",
"o@	c #23582B",
"p@	c #8F8FB2",
"q@	c #2A7833",
"r@	c #2A7933",
"s@	c #414159",
"t@	c #297833",
"u@	c #61617F",
"v@	c #23572A",
"w@	c #23562B",
"x@	c #23572B",
"y@	c #23562A",
"z@	c #297732",
"A@	c #297632",
"B@	c #287632",
"C@	c #22552A",
"D@	c #23552A",
"E@	c #404058",
"F@	c #287532",
"G@	c #287531",
"H@	c #333346",
"I@	c #287431",
"J@	c #60607E",
"K@	c #8E8EB1",
"L@	c #225529",
"M@	c #225429",
"N@	c #287331",
"O@	c #287330",
"P@	c #277330",
"Q@	c #277331",
"R@	c #277230",
"S@	c #287230",
"T@	c #215328",
"U@	c #215329",
"V@	c #3F3F57",
"W@	c #323246",
"X@	c #267130",
"Y@	c #267230",
"Z@	c #27722F",
"`@	c #5E5E7C",
" #	c #8B8BAF",
".#	c #205328",
"+#	c #26702F",
"@#	c #26712F",
"##	c #25702F",
"$#	c #256F2F",
"%#	c #266F2F",
"&#	c #205227",
"*#	c #205228",
"=#	c #256F2E",
"-#	c #256E2E",
";#	c #3E3E56",
">#	c #5D5D7B",
",#	c #205027",
"'#	c #205126",
")#	c #205026",
"!#	c #205127",
"~#	c #323245",
"{#	c #246D2E",
"]#	c #246C2E",
"^#	c #246D2D",
"/#	c #246C2D",
"(#	c #256D2D",
"_#	c #256C2D",
":#	c #256D2E",
"<#	c #8A8AAE",
"[#	c #1F5026",
"}#	c #236B2D",
"|#	c #236C2D",
"1#	c #246B2D",
"2#	c #236B2C",
"3#	c #246B2C",
"4#	c #236C2C",
"5#	c #1E4F25",
"6#	c #1E4E26",
"7#	c #1E4E25",
"8#	c #1E4F26",
"9#	c #8989AD",
"0#	c #3D3D55",
"a#	c #313144",
"b#	c #236A2C",
"c#	c #5C5C7A",
"d#	c #22692C",
"e#	c #226A2C",
"f#	c #23692C",
"g#	c #23692B",
"h#	c #226A2B",
"i#	c #22692B",
"j#	c #1D4E25",
"k#	c #1E4D25",
"l#	c #21672A",
"m#	c #21672B",
"n#	c #22672B",
"o#	c #22672A",
"p#	c #21662A",
"q#	c #20662A",
"r#	c #20652A",
"s#	c #21652A",
"t#	c #1C4B23",
"u#	c #1B4B23",
"v#	c #8888AB",
"w#	c #3C3C54",
"x#	c #1F6328",
"y#	c #1F6228",
"z#	c #206328",
"A#	c #303043",
"B#	c #1E6127",
"C#	c #1E6128",
"D#	c #1E6228",
"E#	c #1F6128",
"F#	c #5B5B78",
"G#	c #1A4921",
"H#	c #1D5E26",
"I#	c #1D5F26",
"J#	c #1D5D25",
"K#	c #1C5D25",
"L#	c #184720",
"M#	c #194720",
"N#	c #8888A8",
"O#	c #1B5A24",
"P#	c #1B5B24",
"Q#	c #3C3C52",
"R#	c #303042",
"S#	c #1A5A23",
"T#	c #1B5A23",
"U#	c #1B5923",
"V#	c #1A5923",
"W#	c #5B5B76",
"X#	c #17441E",
"Y#	c #17451E",
"Z#	c #3C3C53",
"`#	c #195722",
" $	c #195521",
".$	c #185521",
"+$	c #185621",
"@$	c #3B3B51",
"#$	c #15421C",
"$$	c #5A5A75",
"%$	c #17531F",
"&$	c #16521F",
"*$	c #17521F",
"=$	c #16531F",
"-$	c #2F2F41",
";$	c #15501D",
">$	c #15501E",
",$	c #8686A7",
"'$	c #113E18",
")$	c #113D18",
"!$	c #113E19",
"~$	c #113D19",
"{$	c #114B1A",
"]$	c #114A1A",
"^$	c #104818",
"/$	c #0F4818",
"($	c #3A3A50",
"_$	c #2E2E40",
":$	c #0D3914",
"<$	c #0E3914",
"[$	c #0C4315",
"}$	c #0A4113",
"|$	c #595973",
"1$	c #8585A5",
"2$	c #093410",
"3$	c #073D10",
"4$	c #073D0F",
"5$	c #053B0E",
"6$	c #053B0D",
"7$	c #8484A4",
"8$	c #052F0C",
"9$	c #01370A",
"0$	c #02370A",
"a$	c #39394F",
"b$	c #013609",
"c$	c #01360A",
"d$	c #585872",
"e$	c #595A73",
"f$	c #595C74",
"g$	c #5B6076",
"h$	c #5A6176",
"i$	c #5B6377",
"j$	c #5C6478",
"k$	c #5B6176",
"l$	c #595E74",
"m$	c #595B73",
"n$	c #595B74",
"o$	c #585972",
"p$	c #8384A3",
"q$	c #8284A3",
"r$	c #8284A2",
"s$	c #8184A1",
"t$	c #8084A0",
"u$	c #8084A1",
"v$	c #3A3B51",
"w$	c #3B3D52",
"x$	c #3C3E52",
"y$	c #3B3C51",
"z$	c #3A3B50",
"                    .                             . ",
"    + @ # $ # @ + + % + + + + + + + + + + +       . ",
"    + & * = = - ; > , ' ) ! ~ { ] ^ / ( _ : ( < [ . ",
"    % } | 1 2 3 4 5 6 ~ 7 8 9 , > ; - 0 a b c d [ . ",
". . % e f g h g i j j j k l k k k m h j j h n d o . ",
". . % p q r r s t r s s r r s s r s r r r r u d o . ",
"v . % w x y z A B A A z A A A A z A y A A A n d o . ",
"v . % C D E E E E E E E E E E E F E E E E E n d o . ",
"v . % G H I I I I I I I I I I I I I I I I I u d o . ",
"v . J K b L M L L M M M M M M M M M M M M M n N o v ",
"v . J K b O O O O P P O O O O O P O P P O Q n N o v ",
"v v J K R S T U U T U V T T U U U U U S U U u N W v ",
"v v J X b Y Y Y Z ` Z Y ` Y Y Z Y ` Y Y Y Y n N W  .",
"v v J K ..+.@.@.+.#.$.@.@.+.+.@.+.@.+.#.$.@.n N W  .",
"v v J K R %.&.%.%.%.%.*.%.&.=.%.%.%.*.%.=.%.u N W  .",
" . .-.K ;.>.>.>.>.>.>.>.>.>.>.>.>.>.>.>.>.>.n N W v ",
" . .-.K b ,.,.,.'.).!.).~.'.).).{.~.).{.,.).n N W v ",
" . .-.].R ^.^.^.^.^.^.^.^.^././.^.^.^.(./._.u :.<. .",
" . .-.K [.}.|.}.}.}.}.}.}.}.}.|.|.|.|.|.|.|.n :.<. .",
" . .-.K 1.2.3.2.3.3.2.2.2.3.2.2.2.3.2.2.2.3.n :.<. .",
" . .-.X 4.5.5.5.5.5.5.5.5.6.5.5.5.5.5.5.6.5.u :.<. .",
" . .-.K 7.8.8.8.8.9.8.8.8.9.8.8.8.8.8.8.8.8.n :.<.0.",
" . .-.X 7.a.b.c.a.d.c.c.a.a.a.a.a.b.d.a.a.a.n :.<.0.",
"0.0.e.K R f.g.f.g.f.h.i.f.f.j.f.h.k.j.h.l.f.u m.n.0.",
"0.0.e.K o.p.q.p.q.q.r.s.p.s.r.s.s.s.p.q.s.q.n m.n.0.",
"0.0.e.t.7.u.v.v.v.u.u.u.u.u.v.v.u.u.u.u.u.v.n m.n.0.",
"0.0.e.w.R x.x.x.x.x.y.x.x.y.x.x.y.x.x.x.x.x.u z.n.0.",
"0.0.e.X ;.A.B.A.B.B.B.B.B.B.A.B.B.A.B.A.B.B.n z.n.0.",
"0.0.e.K 7.C.D.D.C.C.D.E.F.D.C.C.D.D.D.F.C.C.n z.n.0.",
"G.0.H.X I.J.K.J.J.J.J.K.K.J.K.J.J.K.J.J.J.J.u z.L.G.",
"G.0.H.K o.M.N.M.M.O.M.O.O.M.O.O.M.O.M.M.O.M.n z.L.G.",
"G.G.H.q b P.P.Q.Q.Q.P.P.Q.P.P.Q.P.P.Q.Q.Q.P.n z.L.G.",
"G.R.S.K R T.U.U.U.U.T.U.U.U.U.U.U.T.U.U.U.T.u z.L.R.",
"G.R.S.K o.V.W.V.V.V.V.V.V.V.V.V.V.V.V.V.V.V.n z.L.R.",
"G.R.S.X o.X.Y.Y.X.X.Y.Z.X.`.Y.X.Y.X.`.Z.Y.Y.n z.L.R.",
"R.R.S.K 4. +.+++.+++@+ + + + + +++ + + +++.+u #+$+R.",
"R.R.S.X ;.%+&+*+=+-+&+-+%+*+*+-+*+*+%+*+;+*+n #+$+R.",
"R.R.S.>+;.,+'+'+'+,+'+'+,+,+,+,+'+,+,+'+,+,+n #+$+R.",
"R.R.S.K 4.)+)+)+)+)+)+)+)+)+)+)+)+)+)+)+)+)+u #+$+R.",
"R.R.S.K b !+~+~+!+!+!+~+~+!+!+~+!+!+!+~+~+~+n {+$+R.",
"]+]+^+X o./+(+/+_+:+/+(+_+:+_+(+(+/+:+(+:+(+n {+<+R.",
"]+]+^+w.4.[+}+[+[+[+[+[+[+[+[+[+[+[+[+[+}+}+u {+<+R.",
"]+]+^+K ;.|+1+2+1+3+1+3+3+|+|+|+1+|+|+|+|+|+n {+<+R.",
"]+]+^+K o.4+4+4+4+4+5+4+6+4+4+4+4+4+4+4+4+6+n {+<+]+",
"]+]+^+X R 7+8+8+8+7+8+8+7+8+8+7+7+8+8+8+7+8+u {+<+]+",
"]+]+^+K 9+0+0+a+0+a+a+0+0+a+a+a+0+a+a+a+0+0+n {+<+]+",
"]+]+b+q 7.c+d+e+c+c+f+d+g+e+f+f+f+f+d+h+c+d+n i+j+k+",
"]+]+b+K R l+l+l+l+l+l+l+l+l+l+l+l+l+l+l+l+l+u i+j+k+",
"]+]+b+t.b m+n+o+o+p+n+n+n+n+n+n+n+o+o+o+n+o+n i+j+k+",
"k+k+b+X o.q+r+q+r+r+q+r+r+q+q+r+q+q+r+q+q+r+n i+j+k+",
"k+k+b+K 4.s+s+s+s+s+s+s+s+s+s+s+s+s+s+s+s+s+u i+j+k+",
"k+k+b+K 7.t+t+t+t+u+v+t+t+u+v+t+t+t+u+t+v+t+n i+j+k+",
"k+k+b+w.;.w+x+x+x+x+x+x+x+x+w+x+w+x+x+x+x+w+n i+j+k+",
"k+k+b+K R y+y+y+y+y+y+y+y+y+y+y+y+y+y+y+y+y+u i+z+A+",
"k+k+b+q ;.B+B+B+B+B+C+B+C+B+B+B+B+B+B+B+B+B+n i+z+A+",
"A+A+D+K ;.E+F+G+E+E+G+E+E+E+H+E+E+G+H+E+G+E+n I+z+A+",
"A+A+D+J+K+L+M+M+N+N+N+M+N+M+L+N+M+N+L+M+N+N+u I+z+A+",
"A+A+D+K ;.O+O+O+P+Q+O+R+O+O+P+O+Q+O+S+T+Q+T+n I+z+A+",
"A+A+D+w.7.U+V+W+W+V+W+V+V+W+W+W+V+V+W+V+V+V+n I+z+A+",
"A+X+Y+].K+Z+`+Z+Z+Z+Z+Z+Z+`+Z+Z+Z+Z+Z+Z+Z+Z+u  @z+X+",
"A+.@Y+X b +@@@+@+@+@+@+@+@+@+@+@+@+@+@+@+@+@n #@z+.@",
"X+.@Y+q b +@+@$@+@$@$@$@$@+@$@$@$@$@$@$@+@$@n #@%@.@",
".@.@Y+>+R &@&@&@&@&@&@&@&@*@&@&@&@*@&@&@*@*@u #@=@.@",
".@.@Y+K ;.-@;@>@>@>@-@>@-@>@;@>@>@>@>@>@>@-@n #@=@.@",
".@.@Y+K ;.>@,@,@,@,@,@>@,@>@,@>@>@,@>@>@,@,@n '@=@.@",
".@.@Y+].4.)@)@)@)@!@)@)@)@)@)@)@)@)@)@)@)@!@u #@=@.@",
".@.@Y+q ;.~@{@]@]@]@]@]@{@]@~@]@~@]@~@]@]@~@n #@=@.@",
".@.@Y+].b ^@/@]@]@]@^@^@/@/@]@(@^@^@/@]@]@]@n #@=@.@",
"_@_@:@q 4.<@<@<@<@<@<@<@<@!@<@<@!@<@<@<@<@!@u '@[@_@",
"_@}@:@J+;.|@|@1@2@(@1@|@1@|@(@2@1@1@2@|@1@2@n '@[@_@",
"_@}@:@K b 1@1@1@3@1@3@1@1@1@3@1@1@1@1@1@3@1@n '@[@_@",
"}@_@:@q I.4@4@4@4@4@4@4@4@4@4@4@4@4@5@4@4@4@u '@[@_@",
"}@_@:@K [.6@7@6@7@6@7@8@6@8@9@6@6@6@9@6@8@7@n '@[@_@",
"}@}@0@X [.8@8@8@8@8@8@8@8@8@8@8@8@8@8@8@8@8@n a@b@}@",
"}@}@0@>+4.c@d@e@f@f@c@g@d@c@h@c@c@c@d@i@j@c@u a@b@}@",
"}@}@0@K [.8@k@8@8@8@8@k@8@8@8@8@8@8@8@l@8@8@n a@b@}@",
"}@}@0@>+b m@k@m@m@m@m@m@m@m@k@m@k@m@m@k@m@m@n a@b@}@",
"}@}@n@X R g@g@g@g@g@g@g@g@g@o@g@g@o@o@o@g@g@u a@p@}@",
"}@}@n@K ;.q@r@q@q@r@r@q@r@r@r@r@q@r@r@r@r@r@n a@p@}@",
"s@}@n@K ;.r@t@r@q@t@q@t@q@t@q@q@q@q@t@t@t@t@n u@b@s@",
"s@}@n@q I.v@w@x@x@v@y@x@v@y@x@w@w@x@x@v@w@x@u u@b@s@",
"s@}@n@X b z@z@z@z@z@z@z@z@z@z@A@z@z@z@z@z@z@n u@b@s@",
"s@s@n@X b A@A@z@B@B@B@A@A@B@A@B@A@A@A@A@A@A@n u@p@s@",
"s@s@n@K K+C@D@C@C@D@C@C@C@C@C@C@C@C@C@C@C@C@u u@p@E@",
"s@s@n@K o.F@G@F@G@F@G@G@G@G@G@B@G@G@G@G@G@F@n u@p@E@",
"E@E@H@K 7.G@G@I@I@G@I@I@I@I@G@G@G@I@G@I@I@I@n J@K@s@",
"E@E@H@K 4.L@M@L@L@L@L@L@L@L@M@L@M@L@L@L@L@L@u J@K@s@",
"E@E@H@w.o.N@I@N@O@N@O@N@N@O@I@P@O@N@O@N@Q@O@n J@K@s@",
"E@E@H@].o.P@O@P@O@P@P@P@R@S@P@P@R@R@P@P@P@O@n J@K@E@",
"E@E@H@X I.T@U@U@T@T@T@U@T@T@T@T@T@U@T@T@T@T@u J@K@E@",
"V@E@H@K ;.R@R@R@R@R@R@R@R@R@R@R@R@R@R@R@R@R@n J@K@V@",
"V@E@W@q ;.X@R@Y@Y@X@R@Y@R@Y@Y@Y@Y@X@Z@Y@Y@R@n `@ #V@",
"V@E@W@K 4..#T@T@T@T@T@.#T@T@T@T@T@.#T@T@T@T@u `@ #V@",
"V@V@W@K 7.+#@#+#+#+#+#@#+#@#+#@#@#+#@#@#@#@#n `@ #V@",
"V@V@W@>+;.##$###+#+#$#######+#%#%#+#+###+###n `@ #V@",
"V@V@W@K R &#*#&#*#*#&#*#&#&#*#*#*#&#&#*#*#*#u `@ #V@",
"V@V@W@K b =#=#-#=#=#=#-#-#=#=#-#=#=#-#-#-#=#n `@ #V@",
"V@;#W@w.7.-#-#-#-#-#-#-#-#-#-#-#-#-#-#-#-#-#n ># #V@",
"V@;#W@X 4.,#,#,#'#)#,#!#,#)#)#,#,#!#,#)#!#!#u ># #V@",
";#;#~#q ;.{#]#^#^#/#(#_#^#^#(#{#_#(#(#]#^#:#n >#<#;#",
";#;#~#K 1./#/#/#/#/#/#/#/#/#/#/#/#/#/#/#/#/#n >#<#;#",
";#;#~#K 4.[#[#[#[#[#[#[#[#[#[#[#[#[#[#[#[#[#u >#<#;#",
";#;#~#X 7./#/#/#}#/#/#/#}#|#|#/#|#|#/#/#|#/#n >#<#;#",
";#;#~#X ;./#1#2#}#1#}#2#|#3#4#1#}#|#}#|#3#2#n >#<#;#",
";#;#~#K 4.5#5#5#6#7#5#7#5#5#5#6#7#5#5#7#8#5#u >#9#;#",
"0#0#a#X 7.b#b#b#b#b#b#b#b#b#b#b#b#b#b#b#b#b#n c#9#0#",
"0#0#a#q [.d#e#e#d#e#f#b#g#f#d#b#h#e#i#e#e#d#n c#9#0#",
"0#0#a#J+4.7#7#7#7#7#7#7#7#7#7#j#7#7#k#7#7#7#u c#9#0#",
"0#0#a#K b l#m#n#l#n#m#m#o#m#m#l#m#m#m#m#l#n#n c#9#0#",
"0#0#a#X b p#p#p#q#r#q#r#r#r#s#s#r#s#r#r#r#s#n c#9#0#",
"0#0#a#K K+t#t#t#t#u#t#t#t#t#t#t#t#t#t#t#t#t#u c#v#w#",
"0#0#a#K ;.x#x#x#x#x#y#z#y#x#x#x#x#z#x#z#x#x#n c#v#w#",
"w#w#A#X 7.B#C#D#C#C#C#C#C#C#C#C#C#C#E#E#B#C#n F#v#w#",
"w#w#A#].R G#G#G#G#G#G#G#G#G#G#G#G#G#G#G#G#G#u F#v#w#",
"w#w#A#K o.H#H#I#I#H#H#H#I#I#I#I#I#H#I#H#H#I#n F#v#w#",
"w#w#A#X 7.J#K#K#K#K#K#J#K#K#K#K#K#K#J#K#K#K#n F#v#w#",
"w#w#A#K 4.L#L#M#M#L#M#M#L#M#M#M#M#L#M#L#M#M#u F#N#w#",
"w#w#A#w.o.O#O#O#O#P#P#P#O#O#O#P#O#O#O#O#O#O#n F#N#w#",
"Q#Q#R#X b S#T#U#U#T#S#U#S#V#V#S#S#T#S#S#S#U#n W#N#w#",
"Q#Q#R#X 4.X#Y#Y#X#Y#Y#Y#Y#Y#Y#X#Y#X#Y#Y#Y#Y#u W#N#Z#",
"Q#Q#R#>+7.`#`#`#`#`#`#`#`#`#`#`#`#`#`#`#`#`#n W#N#Q#",
"Q#Q#R#K o. $.$.$ $.$.$.$.$.$ $.$+$.$.$.$.$ $n W#N#Q#",
"@$Q#R#w.4.#$#$#$#$#$#$#$#$#$#$#$#$#$#$#$#$#$u $$N#@$",
"@$Q#R#K 7.%$&$*$*$*$&$*$=$&$%$%$%$=$%$=$&$*$n $$N#@$",
"@$@$-$X 7.;$>$>$;$>$>$>$;$>$>$>$>$;$>$;$;$;$n $$,$Q#",
"@$@$-$q 4.'$)$!$'$'$!$'$~$)$'$)$~$)$!$'$)$'$u $$,$Q#",
"@$@$-$X ;.{$]${$]${$]$]$]$]$]$]$]$]$]$]$]$]$n $$,$@$",
"@$@$-$X o.^$/$^$^$/$/$/$/$^$/$^$/$/$/$/$/$/$n $$,$@$",
"@$($_$K R :$:$<$:$:$:$:$:$:$:$:$:$:$:$<$:$:$u $$,$@$",
"@$($_$X 7.[$[$[$[$[$[$[$[$[$[$[$[$[$[$[$[$[$n $$,$@$",
"($($_$K o.}$}$}$}$}$}$}$}$}$}$}$}$}$}$}$}$}$n |$1$@$",
"($($_$X 4.2$2$2$2$2$2$2$2$2$2$2$2$2$2$2$2$2$u |$1$@$",
"($($_$K o.3$4$4$4$3$4$4$4$4$4$4$4$4$4$4$4$4$n |$1$($",
"($($_$X b 5$5$5$5$5$5$5$6$5$6$6$5$5$6$5$5$6$n |$7$($",
"($($_$K I.8$8$8$8$8$8$8$8$8$8$8$8$8$8$8$8$8$u |$7$($",
"($($_$q 7.9$0$9$9$9$9$9$9$0$9$9$0$9$9$9$9$9$n |$7$($",
"a$a$a$t.;.b$b$b$b$b$b$b$b$b$b$b$b$b$b$b$c$b$n |$7$($",
"a$a$a$d$d$d$d$e$e$f$g$h$i$j$i$k$l$m$n$o$d$d$d$|$7$($",
"a$a$a$d$7$7$7$7$p$q$r$s$t$t$u$s$r$p$7$7$7$7$7$7$7$a$",
"a$a$a$a$a$a$a$a$a$($v$w$w$x$w$y$z$($a$a$a$a$a$a$a$a$"};
