/* XPM */
static char * effect_panel_generic_top_xpm[] = {
"134 30 247 2",
"  	c #020202",
". 	c #0B0B0F",
"+ 	c #0A0A0E",
"@ 	c #09090D",
"# 	c #07070B",
"$ 	c #060608",
"% 	c #A6A6A6",
"& 	c #000000",
"* 	c #030305",
"= 	c #101018",
"- 	c #0F0F17",
"; 	c #0E0E16",
"> 	c #0E0E14",
", 	c #0B0B11",
"' 	c #ADADAD",
") 	c #ACACAC",
"! 	c #9191B7",
"~ 	c #1B1B29",
"{ 	c #1B1B27",
"] 	c #191925",
"^ 	c #171721",
"/ 	c #13131D",
"( 	c #B4B4B4",
"_ 	c #B3B3B3",
": 	c #9191B5",
"< 	c #272739",
"[ 	c #272737",
"} 	c #262636",
"| 	c #232333",
"1 	c #21212F",
"2 	c #BABABA",
"3 	c #010101",
"4 	c #030303",
"5 	c #BBBBBB",
"6 	c #242434",
"7 	c #161620",
"8 	c #8F8FB5",
"9 	c #343448",
"0 	c #333347",
"a 	c #313145",
"b 	c #2F2F41",
"c 	c #2A2A3C",
"d 	c #1E1E2A",
"e 	c #C1C1C1",
"f 	c #070707",
"g 	c #0C0C0C",
"h 	c #101010",
"i 	c #2B2B3D",
"j 	c #8E8EB4",
"k 	c #414159",
"l 	c #404058",
"m 	c #3E3E56",
"n 	c #3B3B51",
"o 	c #35354B",
"p 	c #2E2E40",
"q 	c #252535",
"r 	c #151515",
"s 	c #222222",
"t 	c #2A2A2A",
"u 	c #292929",
"v 	c #8C8CB2",
"w 	c #555571",
"x 	c #565672",
"y 	c #545470",
"z 	c #53536F",
"A 	c #52526E",
"B 	c #4D4D67",
"C 	c #44445E",
"D 	c #2F2F43",
"E 	c #0D0D0D",
"F 	c #242424",
"G 	c #363636",
"H 	c #393939",
"I 	c #3A3A3A",
"J 	c #3B3B3B",
"K 	c #484862",
"L 	c #8B8BB1",
"M 	c #646484",
"N 	c #636383",
"O 	c #626282",
"P 	c #60607E",
"Q 	c #5C5C78",
"R 	c #464660",
"S 	c #38384E",
"T 	c #39394F",
"U 	c #8989AF",
"V 	c #61617F",
"W 	c #616181",
"X 	c #5F5F7D",
"Y 	c #5E5E7A",
"Z 	c #585874",
"` 	c #50506A",
" .	c #36364C",
"..	c #37374D",
"+.	c #5E5E7C",
"@.	c #44445C",
"#.	c #3C3C52",
"$.	c #8787AF",
"%.	c #5B5B77",
"&.	c #5A5A76",
"*.	c #595975",
"=.	c #4A4A64",
"-.	c #3F3F57",
";.	c #9F9F9F",
">.	c #575773",
",.	c #8686AE",
"'.	c #50506C",
").	c #4C4C66",
"!.	c #303044",
"~.	c #989898",
"{.	c #3C3C54",
"].	c #45455F",
"^.	c #4B4B65",
"/.	c #51516D",
"(.	c #323246",
"_.	c #8585AB",
":.	c #4E4E6A",
"<.	c #919191",
"[.	c #8383AB",
"}.	c #3D3D55",
"|.	c #8A8A8A",
"1.	c #838383",
"2.	c #8181A9",
"3.	c #4E4E68",
"4.	c #2C2C40",
"5.	c #8181A7",
"6.	c #4D4961",
"7.	c #463741",
"8.	c #393134",
"9.	c #464444",
"0.	c #333131",
"a.	c #2E282B",
"b.	c #382B35",
"c.	c #3C384C",
"d.	c #494963",
"e.	c #43435B",
"f.	c #7C7C7C",
"g.	c #7D7D7D",
"h.	c #2C2C3E",
"i.	c #2D2B3C",
"j.	c #3A2D36",
"k.	c #484043",
"l.	c #323232",
"m.	c #2E282A",
"n.	c #382B34",
"o.	c #8080A6",
"p.	c #574C61",
"q.	c #40383C",
"r.	c #434343",
"s.	c #949494",
"t.	c #9D9D9D",
"u.	c #5D5D5D",
"v.	c #454545",
"w.	c #2B2527",
"x.	c #3A3143",
"y.	c #767676",
"z.	c #757575",
"A.	c #413C50",
"B.	c #463E41",
"C.	c #2B2528",
"D.	c #373244",
"E.	c #42425A",
"F.	c #7D7DA5",
"G.	c #483D42",
"H.	c #747474",
"I.	c #5B5B5B",
"J.	c #333333",
"K.	c #362C30",
"L.	c #6F6F6F",
"M.	c #6E6E6E",
"N.	c #372B31",
"O.	c #4B4B4B",
"P.	c #3F3F3F",
"Q.	c #7C7CA4",
"R.	c #3B3939",
"S.	c #2D2D2D",
"T.	c #686868",
"U.	c #606060",
"V.	c #404040",
"W.	c #464646",
"X.	c #5B5959",
"Y.	c #474761",
"Z.	c #676767",
"`.	c #2F2B2D",
" +	c #5B5759",
".+	c #7A7AA2",
"++	c #4D4247",
"@+	c #212121",
"#+	c #4C4C4C",
"$+	c #555555",
"%+	c #3E3E3E",
"&+	c #484848",
"*+	c #5F5F5F",
"=+	c #86767E",
"-+	c #6E6E96",
";+	c #76769E",
">+	c #3A3A50",
",+	c #222020",
"'+	c #827C7E",
")+	c #75759D",
"!+	c #7979A1",
"~+	c #51465C",
"{+	c #1F1B1C",
"]+	c #353535",
"^+	c #5A5A5A",
"/+	c #7D7579",
"(+	c #AB9DBB",
"_+	c #6D6D95",
":+	c #6C6C92",
"<+	c #5D5D79",
"[+	c #20181C",
"}+	c #3C3C3C",
"|+	c #7B7B7B",
"1+	c #B3A2AE",
"2+	c #6A6A90",
"3+	c #77779F",
"4+	c #2C2A3B",
"5+	c #494747",
"6+	c #535151",
"7+	c #695D63",
"8+	c #917A8D",
"9+	c #A29DBF",
"0+	c #9999BD",
"a+	c #74749C",
"b+	c #302A3C",
"c+	c #282224",
"d+	c #525252",
"e+	c #656565",
"f+	c #898989",
"g+	c #B1A7AD",
"h+	c #A19BBB",
"i+	c #73739B",
"j+	c #7878A0",
"k+	c #9797BB",
"l+	c #B0B0D0",
"m+	c #493944",
"n+	c #746C6F",
"o+	c #8D8B8B",
"p+	c #ABA3A8",
"q+	c #C4B6C2",
"r+	c #9691B5",
"s+	c #8585AD",
"t+	c #6B6B91",
"u+	c #67678B",
"v+	c #737399",
"w+	c #717199",
"x+	c #707096",
"  . . . . . . . . . . . . . . + + @ # $ % & & & & & & & & & & & & & & & & & & & & & & & & & & & & & & & & & & & & & & & & & & & & & & & & & & & & & & & & & & & & & & & & & & & & & & & & & & & & & & & & & & & & & & & & & & & & & & & % $ # @ + + . . . . . . . . . . .   ",
"* = = = = = = = = = = = = = = - ; > , + ' & & & & & & & & & & & & & & & & & & & & & & & & & & & & & & & & & & & & & & & & & & & & & & & & & & & & & & & & & & & & & & & & & & & & & & & & & & & & & & & & & & & & & & & & & & & & & & & ) + , > ; - = = = = = = = = = = = * ",
"# ! ~ ~ ~ ~ ~ ~ ~ ~ ~ ~ ~ ~ { { ] ^ / = ( & & & & & & & & & & & & & & & & & & & & & & & & & & & & & & & & & & & & & & & & & & & & & & & & & & & & & & & & & & & & & & & & & & & & & & & & & & & & & & & & & & & & & & & & & & & & & & & _ = / ^ ] { { ~ ~ ~ ~ ~ ~ ~ ~ ~ ! # ",
"> : < < < < < < < < < < < < [ } | 1 ~ ^ 2 & & & & 3       4   4     4 4     4   4     4   4 4   4     4   4     4     4   4     4   4   4 4     4   4   4     4   4   4     4   4   4   4     4   4   4   4     4   4       3 & & & & & 5 ^ ~ 1 6 } [ < < < < < < < [ < : > ",
"7 8 9 9 9 9 9 9 9 9 9 9 9 9 0 a b c 6 d e & & &   f g h h h h h h h h h h h h h h h h h h h h h h h h h h h h h h h h h h h h h h h h h h h h h h h h h h h h h h h h h h h h h h h h h h h h h h h h h h h h h h h h h h g f   & & & & e d 6 i b a 0 9 9 9 9 9 9 9 9 9 8 7 ",
"1 j k k k k k k k k k k k k l m n o p q 5 & & 3 f r s t t u t u t t u u t t u t u t t u t u u t u t t u t u t t u t t u t u t t u t u t u u t t u t u t u t t u t u t u t t u t u t u t u t t u t u t u t u t t u t u t t s r f 3 & & & 2 q p o n m l k k k k k k k k k j 1 ",
"o v w x w y y y y w x w y y z A B C n D _ & &   E F G H I H J H J I H H I J H J H I J H J H H J H I J H J H J J H I H H J H I J H J H J H H I J H J H J H I J H J H J H I J H J H H H J H I J H J H I H J H I J H J H I H G F E   & & & _ D n C B A z y y y x w y y w w v o ",
"K L M M M N N N N M M M N N O P Q A R S ' 3 &   E F G H I H J H J I H H I J H J H I J H J H H J H I J H J H J J H I H H J H I J H J H J H H I J H J H J H I J H J H J H I J H J H H H J H I J H J H I H J H I J H J H I H G F E   & & 3 ) T R A Q P O N N M M M N N M M L K ",
"C U V W V V V V V V W V V V X Y Z ` C  .% & & 3 f r s t t u t u t t u u t t u t u t t u t u u t u t t u t u t t u t t u t u t t u t u t u u t t u t u t u t t u t u t u t t u t u t u t u t t u t u t u t u t t u t u t t s r f 3 & & 3 % ..C ` Z +.X V V V W V V V V W U @.",
"#.$.%.%.%.&.&.&.&.%.%.%.&.*.*.x A =.-.9 ;.& & &   f g h h h h h h h h h h h h h h h h h h h h h h h h h h h h h h h h h h h h h h h h h h h h h h h h h h h h h h h h h h h h h h h h h h h h h h h h h h h h h h h h h h g f   & & & 3 ;.9 -.=.A >.*.&.&.%.%.&.&.&.%.%.$.#.",
"0 ,.A z z A z A z A A z z z '.` ).C #.!.~.& & & & 3       4   4     4 4     4   4     4   4 4   4     4   4     4     4   4     4   4   4 4     4   4   4     4   4   4     4   4   4   4     4   4   4   4     4   4       3 & & & & & ~.!.{.].^.` /.z A z z z z A z z ,.(.",
"a _././././././././././././.'.:.^.C #.a <.& & & & & & & & & & & & & & & & & & & & & & & & & & & & & & & & & & & & & & & & & & & & & & & & & & & & & & & & & & & & & & & & & & & & & & & & & & & & & & & & & & & & & & & & & & & & & & & <.(.{.C ^.:.'././././.A /.A /./._.a ",
"a [.'./././././././.'./././.'.:.^.].}.9 |.1.& & & & & & & & & & & & & & & & & & & & & & & & & & & & & & & & & & & & & & & & & & & & & & & & & & & & & & & & & & & & & & & & & & & & & & & & & & & & & & & & & & & & & & & & & & & & & |.|.9 }.].^.:.'./././././././././.[.!.",
"a 2.'.'.'.'./.'./.'./.'././.` 3.).R l  .4.1.& & & & & & & & & & & & & & & & & & & & & & & & & & & & & & & & & & & & & & & & & & & & & & & & & & & & & & & & & & & & & & & & & & & & & & & & & & & & & & & & & & & & & & & & & & & & & 1.4...-.R ).:.` /.'./.'./.'.'././.2.!.",
"!.5.'.'.'.'.'.6.7.8.9.0.a.b.c.].).d.e.n (.f.f.& & & & & & & & & & & & & & & & & & & & & & & & & & & & & & & & & & & & & & & & & & & & & & & & & & & & & & & & & & & & & & & & & & & & & & & & & & & & & & & & & & & & & & & & & & & g.f.h.i.j.k.l.m.n.c.R ` /./.'.'.'.'.5.!.",
"!.o.'.'.'.'.p.q.r.s.t.u.v.& w.x.R ^.R l S D y.z.& & & & & & & & & & & & & & & & & & & & & & & & & & & & & & & & & & & & & & & & & & & & & & & & & & & & & & & & & & & & & & & & & & & & & & & & & & & & & & & & & & & & & & & & & z.y.i A.B.s.t.u.v.G C.D.E.'.'.'.'.'.'.o.!.",
"!.F.'.'.'.` G.l.H.' y.I.& ) J.K.}.=.K C }...!.L.M.L.& & & & & & & & & & & & & & & & & & & & & & & & & & & & & & & & & & & & & & & & & & & & & & & & & & & & & & & & & & & & & & & & & & & & & & & & & & & & & & & & & & & & & L.L.L.p k N.H.' y.I.O.P.J.N.{.@.'.'.'.'.'.F.!.",
"D Q.` ` ` ` R.S.T.z.U.& ) V.W.X.` A ^.Y.@.m S 0 p Z.T.T.Z.Z.T.Z.Z.T.T.T.T.T.T.Z.T.T.T.T.T.Z.T.T.T.T.T.T.T.T.T.T.Z.Z.T.Z.T.T.Z.T.T.T.T.T.Z.T.Z.T.T.T.T.T.T.T.T.T.T.T.Z.T.T.T.T.T.T.T.T.T.T.Z.T.T.T.T.T.Z.T.Z.Z.T.T.T.T.T.T.T.T.T.4.a  .D `.& & & & & & &  +` '.e.` ` '.` Q.D ",
"D .+` ` ` ` ++@+#+$+& ) %+&+*+=+-+;+B ^.K C -.#...9 a D p p 4.4.4.4.4.4.4.4.4.4.4.4.4.4.4.4.4.4.4.4.4.4.4.4.4.4.4.4.4.4.4.4.4.4.4.4.4.4.4.4.4.4.4.4.4.4.4.4.4.4.4.4.4.4.4.4.4.4.4.4.4.4.4.4.4.4.4.4.4.4.4.4.4.4.4.4.4.p p D a 9  .>+m }.,+) ) ) ) ) ) ) '+-+)+E.` ` ` ` .+D ",
"D !+` ` ` ` ~+{+]+& ) V.&+^+/+(+.+_+3.B :+<+%.*.w y A /.` ` ` :.:.` :.:.` ` ` :.` ` ` ` ` ` ` ` ` ` ` ` ` :.` ` ` ` ` :.` ` ` ` ` :.:.` ` ` ` ` ` ` :.` :.:.:.` :.` ` ` ` ` ` ` ` ` ` ` ` ` ` ` ` :.` ` ` ` ` ` :.` ` ` './.A y w Z &.R [+]+P.}+V.&+^+|+1+.+2+E.` ` ` ` !+D ",
"b 3+:.:.:.:./.4+& & 5+6+7+8+9+0+a+z 3.3.B ^.=.Y.R C e.E.E.E.l l l l l l l l l l l k l l l l l l l k l l l l k k l l l l k l k l l k k l k l l l l l l l l l l k k l l l l l k l l l l l l l l k k l l k k l l k k k l E.k E.@.@.].K =.` b+c+J &+d+e+f+g+h+i+K k :.` ` :.3+b ",
"b ;+:.:.:.:.'.l }.S W j+k+l+: !+Q E.:.:.3.B ).^.=.d.d.K Y.Y.Y.Y.Y.Y.Y.Y.R R R R R R R R R R R R R R R R R R R R R R R R R R R R R R R R R R R R R R R R R R R R R R R R R R R R R R R R R R R R R R R R R R Y.Y.Y.Y.Y.Y.Y.K K d.=.^.).:.C 4+m+n+o+p+q+r+!+Z b k :.:.:.:.;+b ",
"b )+:.:.3.:.:.z R +.P ;+s+F.t+&.@.:.:.:.:.3.3.3.B ).^.).^.^.^.^.^.^.=.^.=.^.^.^.=.^.=.=.^.^.^.^.^.^.=.^.^.^.=.=.^.^.=.^.^.^.^.^.^.^.^.^.^.=.^.=.^.^.^.=.^.^.^.^.^.^.^.^.^.^.^.^.^.^.^.^.^.^.^.^.^.^.^.^.^.^.^.^.^.^.^.^.^.).).).B 3.3.3.z ^.=.P ;+s+F.t+x (. .:.:.:.:.:.)+b ",
"p i+:.3.3.3.3.3.3.d.B u+v+Q ^.l 3.3.3.3.3.3.3.3.B 3.B 3.3.B B B B B B 3.3.B 3.3.B B B B B 3.B 3.3.3.B B 3.3.3.3.B B B 3.3.B B B 3.B B 3.3.B B 3.3.3.B B B B B 3.3.B B 3.B B B B 3.3.3.B B B B 3.B 3.3.3.B 3.3.B 3.B 3.3.3.B 3.3.B :.3.:.3.:.z '.u+v+Q @.p  .:.:.3.3.:.3.i+b ",
"4.w+3.3.3.3.3.3.3.3.3.3.3.3.3.3.3.3.3.3.3.3.3.3.3.3.3.3.3.3.3.3.3.3.3.3.3.3.3.3.3.3.3.3.3.3.3.3.3.3.3.3.3.3.3.3.3.3.3.3.3.3.3.3.3.3.3.3.3.3.3.3.3.3.3.3.3.3.3.3.3.3.3.3.3.3.3.3.3.3.3.3.3.3.3.3.3.3.3.3.3.3.3.3.3.3.3.3.3.3.3.3.3.3.3.3.3.3.3.3.l l l l l 3.3.3.3.3.3.B w+p ",
"p w+3.3.B 3.3.3.3.3.3.B 3.3.B 3.3.3.3.3.3.3.3.3.3.3.3.3.3.3.3.3.3.3.3.B 3.3.3.3.3.B 3.3.3.3.3.3.3.3.3.3.3.3.3.3.3.B 3.3.3.3.3.3.3.3.3.3.3.3.3.3.3.3.3.3.3.B B 3.3.3.3.3.3.B 3.3.3.3.3.3.3.3.3.B 3.3.3.B 3.3.3.3.3.3.3.3.3.3.3.3.3.3.3.3.3.3.3.3.3.3.3.3.3.B 3.3.3.3.3.3.w+p ",
"p x+B B 3.3.B 3.B 3.B P 3.3.B B 3.B 3.3.3.B B 3.3.3.3.B 3.B 3.B B 3.B B B B B 3.B B B B 3.B 3.3.3.B B B B 3.3.3.3.3.B B 3.B 3.3.B B B 3.3.B 3.B B B 3.B 3.B B 3.3.B B B 3.3.B 3.3.B B 3.3.B B B 3.3.3.3.3.B B B 3.3.3.B B B B 3.3.B B B B 3.3.3.3.B 3.B V B B 3.3.B B 3.x+4.",
"p x+B B 3.3.B 3.B 3.B P 3.3.B B 3.B 3.3.3.B B 3.3.3.3.B 3.B 3.B B 3.B B B B B 3.B B B B 3.B 3.3.3.B B B B 3.3.3.3.3.B B 3.B 3.3.B B B 3.3.B 3.B B B 3.B 3.B B 3.3.B B B 3.3.B 3.3.B B 3.3.B B B 3.3.3.3.3.B B B 3.3.3.B B B B 3.3.B B B B 3.3.3.3.B 3.B V B B 3.3.B B 3.x+4.",
"4.-+B B B B B B B B B P B B B B B B B B B B B B B B B B B B B B B B B B B B B B B B B B B B B B B B B B B B B B B B B B B B B B B B B B B B B B B B B B B B B B B B B B B B B B B B B B B B B B B B B B B B B B B B B B B B B B B B B B B B B B B B B B P B B B B B B B -+4.",
"4.-+B B B B B B B B B P B B B B B B B B B B B B B B B B B B B B B B B B B B B B B B B B B B B B B B B B B B B B B B B B B B B B B B B B B B B B B B B B B B B B B B B B B B B B B B B B B B B B B B B B B B B B B B B B B B B B B B B B B B B B B B B B P B B B B B B B -+4."};
