/* XPM */
static char * effect_panel_generic_left_xpm[] = {
"14 127 246 2",
"  	c None",
". 	c #5C677A",
"+ 	c #B7C2D2",
"@ 	c #8A98AE",
"# 	c #8896AB",
"$ 	c #8895AB",
"% 	c #B6C1D1",
"& 	c #8996AB",
"* 	c #5D677B",
"= 	c #BAC6D5",
"- 	c #8C99AE",
"; 	c #B9C6D4",
"> 	c #B7C3D3",
", 	c #8B99AE",
"' 	c #B6C1D3",
") 	c #8896AA",
"! 	c #8795AA",
"~ 	c #8895AA",
"{ 	c #8794A9",
"] 	c #8694A9",
"^ 	c #5B6679",
"/ 	c #B5C0D0",
"( 	c #8B98AC",
"_ 	c #8895A9",
": 	c #8694A8",
"< 	c #8693A8",
"[ 	c #5A6478",
"} 	c #B3BFD0",
"| 	c #8A98AC",
"1 	c #8B98AB",
"2 	c #8795A9",
"3 	c #8794A8",
"4 	c #596477",
"5 	c #B2BFCF",
"6 	c #8593A8",
"7 	c #8593A7",
"8 	c #8592A7",
"9 	c #5B6579",
"0 	c #B1BCCE",
"a 	c #8592A8",
"b 	c #8492A7",
"c 	c #8491A7",
"d 	c #B0BCCE",
"e 	c #8491A6",
"f 	c #AFBCCC",
"g 	c #8391A6",
"h 	c #596377",
"i 	c #AEBACB",
"j 	c #8390A6",
"k 	c #576276",
"l 	c #ADB9CB",
"m 	c #8290A6",
"n 	c #8290A5",
"o 	c #ACB8C9",
"p 	c #ABB7C8",
"q 	c #566175",
"r 	c #AAB6C8",
"s 	c #556174",
"t 	c #A9B6C8",
"u 	c #8190A5",
"v 	c #818FA4",
"w 	c #A9B5C6",
"x 	c #535E72",
"y 	c #A8B4C5",
"z 	c #818EA4",
"A 	c #525D71",
"B 	c #A7B3C5",
"C 	c #808EA3",
"D 	c #A5B1C5",
"E 	c #8591A8",
"F 	c #A4B0C3",
"G 	c #818FA5",
"H 	c #808DA3",
"I 	c #A3AFC2",
"J 	c #7F8DA2",
"K 	c #A3AEC0",
"L 	c #505C70",
"M 	c #A1ADC0",
"N 	c #808FA3",
"O 	c #7F8EA2",
"P 	c #4F5B6F",
"Q 	c #A0ABBF",
"R 	c #7E8CA1",
"S 	c #4E5B6E",
"T 	c #9FAABE",
"U 	c #7E8DA1",
"V 	c #9DA8BC",
"W 	c #7E8BA1",
"X 	c #9CA8BC",
"Y 	c #7F8DA1",
"Z 	c #7F8CA1",
"` 	c #7D8BA1",
" .	c #9BA7BA",
"..	c #9AA6B7",
"+.	c #7D8AA0",
"@.	c #99A5B7",
"#.	c #4E576A",
"$.	c #98A3B7",
"%.	c #808DA1",
"&.	c #7C8A9F",
"*.	c #96A2B6",
"=.	c #808DA2",
"-.	c #818EA3",
";.	c #7E8BA0",
">.	c #7C899F",
",.	c #4D576A",
"'.	c #95A1B5",
").	c #7E8AA1",
"!.	c #7E8AA0",
"~.	c #4C566A",
"{.	c #7C899E",
"].	c #94A0B4",
"^.	c #7D8A9F",
"/.	c #4A5466",
"(.	c #909DB3",
"_.	c #7D8B9F",
":.	c #7B889D",
"<.	c #909DB2",
"[.	c #7C8A9E",
"}.	c #8F9BAF",
"|.	c #8D99AF",
"1.	c #7A889C",
"2.	c #7B899D",
"3.	c #7A879C",
"4.	c #485366",
"5.	c #7E8CA0",
"6.	c #7A879B",
"7.	c #8996AA",
"8.	c #7C899D",
"9.	c #7B889C",
"0.	c #79879B",
"a.	c #7E8A9E",
"b.	c #7C889C",
"c.	c #7A889B",
"d.	c #79869A",
"e.	c #485365",
"f.	c #7D899D",
"g.	c #7E8B9F",
"h.	c #475263",
"i.	c #788699",
"j.	c #788599",
"k.	c #828FA5",
"l.	c #465062",
"m.	c #454F61",
"n.	c #798599",
"o.	c #798699",
"p.	c #7C889B",
"q.	c #788499",
"r.	c #454E61",
"s.	c #7B879B",
"t.	c #7B8699",
"u.	c #7C879A",
"v.	c #434E5F",
"w.	c #798498",
"x.	c #788498",
"y.	c #778296",
"z.	c #788397",
"A.	c #778397",
"B.	c #414C5D",
"C.	c #768295",
"D.	c #788398",
"E.	c #748294",
"F.	c #748194",
"G.	c #768296",
"H.	c #727F93",
"I.	c #738093",
"J.	c #7A8599",
"K.	c #717C90",
"L.	c #727E91",
"M.	c #707B90",
"N.	c #768196",
"O.	c #758195",
"P.	c #6F7A8F",
"Q.	c #6D788D",
"R.	c #768195",
"S.	c #758194",
"T.	c #788497",
"U.	c #748095",
"V.	c #748094",
"W.	c #404A5C",
"X.	c #758094",
"Y.	c #748093",
"Z.	c #3E495A",
"`.	c #737F93",
" +	c #3E4859",
".+	c #747F93",
"++	c #737F92",
"@+	c #727E92",
"#+	c #727F92",
"$+	c #3D4759",
"%+	c #717E91",
"&+	c #3C4759",
"*+	c #738194",
"=+	c #748295",
"-+	c #717D90",
";+	c #707D90",
">+	c #3C4254",
",+	c #707C90",
"'+	c #6F7C90",
")+	c #6F7B90",
"!+	c #6F7B8F",
"~+	c #3B4253",
"{+	c #727D91",
"]+	c #6E7A8E",
"^+	c #6E798E",
"/+	c #384253",
"(+	c #6E788E",
"_+	c #364153",
":+	c #6D798D",
"<+	c #6C778C",
"[+	c #364050",
"}+	c #707A90",
"|+	c #363E4E",
"1+	c #6B768B",
"2+	c #363C4C",
"3+	c #6A758A",
"4+	c #697489",
"5+	c #6A748A",
"6+	c #677488",
"7+	c #343C4C",
"8+	c #677388",
"9+	c #323B4A",
"0+	c #667287",
"a+	c #677288",
"b+	c #323949",
"c+	c #323848",
"d+	c #667186",
"e+	c #313747",
"f+	c #667185",
"g+	c #2F3646",
"h+	c #677287",
"i+	c #677184",
"j+	c #657084",
"k+	c #657085",
"l+	c #2E3645",
"m+	c #657083",
"n+	c #677285",
"o+	c #656F83",
"p+	c #667084",
"q+	c #656F84",
"r+	c #646E83",
"s+	c #646F83",
"t+	c #2C3342",
"u+	c #626E83",
"v+	c #2D3443",
"w+	c #656E83",
". + @ @ # # # # # # # # # $ ",
". % @ @ & # # # # # # # # $ ",
"* = - - & & & & & & & & & # ",
"* ; - - & & & & & & & & & & ",
". > , , & & & & & & & & # # ",
". ' @ @ # # # # # # # # # $ ",
". + @ @ ) ! ! ! ! ! ! ! ! ! ",
". % @ @ ~ { { ] ] ] ] ] ] ] ",
"^ / @ ( _ { { : : : : : : < ",
"[ } | 1 2 3 : < < < < < < < ",
"4 5 1 1 3 3 < < 6 7 7 7 8 8 ",
"9 5 1 1 3 < < 8 8 8 8 8 8 8 ",
"9 0 ~ ~ < < a b c c c c c c ",
"[ d ~ ~ < a 8 c e e e e e e ",
"4 f ~ ~ < 8 b g g g g g g g ",
"h i ~ ~ a c c j j j j j j j ",
"k l { { a c g m n n n n n n ",
"k o { { b c j m n n n n n n ",
"k p { { c c j n n n n n n n ",
"q r { { c g j n n n n n n n ",
"s t { { g j n u v v v v v v ",
"s w : : j j n v v v v v v v ",
"x y : : j j n v v z z z z z ",
"A B : a j n v v C C C C C C ",
"A D < E n n v C C C C C C C ",
"A F E E n G v C C H H H H H ",
"A I E E v v C H J J J J J J ",
"A K j j v C C J J J J J J J ",
"L M j j N C O J J J J J J J ",
"P Q j j C C J R R R R R R R ",
"P Q j j C O J R R R R R R R ",
"S T j j O J U R R R R R R R ",
"S V n n n C C C J J J J W W ",
"S X n n n O O J Y Z Z Z ` ` ",
"S  .n n n O O J R R R R ` ` ",
"S ..n z z J J J R R R R +.+.",
"S @.z z z J J Z R W W W +.+.",
"#.$.z %.z Z Z Z W W W W &.&.",
"#.*.=.-.z R R R W ;.;.;.>.>.",
",.'.%.-.C R R R ).!.!.!.>.>.",
"~.'.%.%.%.W W W +.+.+.+.{.{.",
"~.].%.%.%.;.;.;.^.^.^.^.{.{.",
"/.(.%.%.%._._._.^.^.^.^.:.:.",
"/.<.Y Y Y _._._.[.[.[.[.:.:.",
"/.}.Y Y Y ^.^.[.[.[.[.[.:.:.",
"/.|.Y Y Y ^.^.[.{.{.{.{.1.1.",
"/.- Y Y Y [.[.[.2.2.2.2.3.3.",
"4.1 5.5.5.[.[.{.2.:.:.:.6.6.",
"4.7.5.5.5.8.8.8.9.9.9.9.0.0.",
"4.2 a.5.5.8.8.b.1.c.c.c.d.d.",
"e.< f.g.5.2.2.9.1.6.6.6.d.d.",
"h.E f.f.5.9.9.9.6.6.6.6.i.i.",
"h.j f.f.f.9.9.1.6.0.0.0.j.j.",
"h.k.f.f.f.6.6.6.d.d.d.d.j.j.",
"h.H 8.f.f.6.6.6.d.d.d.d.j.j.",
"l.%.2.8.8.6.6.0.d.d.d.d.j.j.",
"m.5.2.2.2.d.d.d.n.n.n.n.n.n.",
"m.2.f.2.2.d.d.o.j.j.j.j.j.j.",
"m.2.p.p.2.o.o.n.j.q.q.q.q.q.",
"r.s.t.u.b.o.o.n.j.q.q.q.q.q.",
"v.w.n.u.u.n.n.n.x.x.x.x.x.x.",
"v.y.j.u.u.n.w.x.z.A.A.A.A.A.",
"B.C.C.u.u.w.x.D.A.A.A.A.A.A.",
"B.E.F.t.t.z.z.A.y.G.G.G.G.G.",
"B.H.I.J.J.z.z.A.G.G.G.G.G.G.",
"B.K.L.J.J.z.A.A.G.G.G.G.G.G.",
"B.M.M.J.J.A.y.G.N.O.O.O.O.O.",
"B.P.P.j.j.G.G.G.O.O.O.O.O.O.",
"B.Q.Q.j.j.G.C.R.O.S.S.S.S.S.",
"B.Q.Q.T.j.C.C.R.U.V.V.V.V.V.",
"B.Q.Q.y.x.O.O.O.V.V.V.V.V.V.",
"W.Q.Q.y.y.O.S.X.V.Y.Y.Y.Y.Y.",
"W.Q.Q.y.y.X.V.V.I.I.I.I.I.I.",
"Z.Q.Q.y.y.Y.Y.Y.`.`.`.`.`.`.",
" +Q.Q.y.C.Y.Y.Y.`.`.`.`.`.`.",
" +Q.Q.y.C.Y.Y..+++++++++++++",
" +Q.Q.C.C.`.`.`.@+@+@+@+@+@+",
" +Q.Q.C.C.++++#+L.L.L.L.L.L.",
"$+Q.Q.F.C.#+#+#+%+%+%+%+%+%+",
"&+Q.Q.*+=+#+L.L.%+%+%+%+%+%+",
"&+Q.Q.*+*+#+L.%+-+-+-+-+-+-+",
"&+Q.Q.*+*+%+%+%+;+;+;+;+;+;+",
">+Q.Q.++*+%+-+-+,+,+,+,+,+,+",
">+Q.Q.++I.-+;+;+'+'+)+)+)+)+",
">+Q.Q.++++;+,+;+'+'+)+)+)+)+",
">+Q.Q.++++;+,+,+!+!+!+!+!+!+",
"~+Q.Q.++++,+,+M.!+P.P.P.P.P.",
"~+Q.Q.{+{+M.M.!+P.]+]+]+]+]+",
"~+Q.Q.{+{+!+!+P.]+^+^+^+^+^+",
"/+Q.Q.{+{+!+!+]+]+^+(+(+(+(+",
"_+Q.Q.K.K.P.P.]+^+:+Q.Q.Q.Q.",
"_+Q.Q.M.M.^+^+^+Q.Q.Q.Q.Q.Q.",
"_+Q.Q.M.M.^+^+^+Q.Q.Q.Q.Q.Q.",
"_+Q.Q.M.M.Q.Q.Q.<+<+<+<+<+<+",
"[+Q.Q.}+}+Q.Q.Q.<+<+<+<+<+<+",
"|+Q.Q.P.P.Q.Q.Q.<+<+<+<+<+<+",
"|+Q.Q.P.P.<+<+<+1+1+1+1+1+1+",
"2+Q.Q.P.Q.<+<+<+1+1+1+1+1+1+",
"2+Q.Q.^+Q.1+1+1+3+3+3+3+3+3+",
"2+Q.Q.Q.Q.1+1+1+3+3+3+3+3+3+",
"2+Q.Q.Q.Q.1+1+1+3+3+3+3+3+3+",
"2+Q.Q.Q.Q.3+3+3+4+4+4+4+4+4+",
"2+Q.Q.<+<+3+3+3+4+4+4+4+4+4+",
"2+Q.Q.<+<+3+3+3+4+4+4+4+4+4+",
"2+Q.Q.<+<+5+5+5+6+6+6+6+6+6+",
"7+<+<+<+<+4+4+4+8+8+8+8+8+8+",
"9+1+1+<+1+4+4+4+8+8+8+8+8+8+",
"9+1+1+1+1+8+8+8+8+8+8+8+8+8+",
"9+1+1+4+4+8+8+8+8+0+0+0+0+0+",
"9+3+1+4+3+8+8+8+a+0+0+0+0+0+",
"b+4+1+4+1+8+8+8+0+0+0+0+0+0+",
"c+4+4+4+4+0+0+0+0+0+0+0+0+0+",
"c+4+8+4+8+0+0+0+0+0+0+0+0+0+",
"c+4+4+8+8+d+d+d+d+d+d+d+d+d+",
"e+6+4+8+8+d+d+d+f+f+f+d+d+d+",
"g+8+8+8+h+f+f+f+f+f+f+d+d+d+",
"g+8+8+8+i+j+j+j+k+k+k+f+f+f+",
"l+8+i+i+8+m+m+m+j+j+j+j+j+j+",
"l+n+i+i+n+o+o+o+o+o+o+m+m+m+",
"l+i+i+i+i+o+o+o+o+o+o+m+m+m+",
"l+i+p+i+p+o+o+o+o+o+o+o+o+o+",
"l+i+q+i+q+r+r+r+r+r+r+s+s+s+",
"t+q+q+q+q+r+r+r+r+r+r+r+r+r+",
"t+u+u+u+q+r+r+r+r+r+r+r+r+r+",
"v+s+s+s+p+w+w+w+w+w+w+w+w+w+",
"l+i+i+i+i+o+o+o+o+o+o+o+o+o+",
"l+i+i+i+i+o+o+o+o+o+o+o+o+o+"};
