/* XPM */
static char * effect_panel_generic_slider_grabber_xpm[] = {
"20 33 250 2",
"  	c None",
". 	c #898589",
"+ 	c #888888",
"@ 	c #7C7E7E",
"# 	c #717171",
"$ 	c #676969",
"% 	c #616262",
"& 	c #5C5C5C",
"* 	c #595A5A",
"= 	c #575757",
"- 	c #504F4F",
"; 	c #4C4C4B",
"> 	c #4C4C4C",
", 	c #4C4B4C",
"' 	c #464646",
") 	c #424241",
"! 	c #414141",
"~ 	c #404041",
"{ 	c #414041",
"] 	c #7F7F81",
"^ 	c #111010",
"/ 	c #1D1D1D",
"( 	c #1E1D1D",
"_ 	c #1D1D1C",
": 	c #1E1E1D",
"< 	c #1E1D1E",
"[ 	c #403F40",
"} 	c #777777",
"| 	c #000000",
"1 	c #3E3E3F",
"2 	c #6F6F6F",
"3 	c #121212",
"4 	c #1F1E1F",
"5 	c #201F1F",
"6 	c #1F1F1F",
"7 	c #202020",
"8 	c #212121",
"9 	c #232323",
"0 	c #232223",
"a 	c #222221",
"b 	c #20201F",
"c 	c #21201F",
"d 	c #121312",
"e 	c #3E3E3E",
"f 	c #656465",
"g 	c #3C3C3D",
"h 	c #605D5D",
"i 	c #131413",
"j 	c #222122",
"k 	c #222222",
"l 	c #262624",
"m 	c #272527",
"n 	c #282828",
"o 	c #292828",
"p 	c #292829",
"q 	c #262627",
"r 	c #222223",
"s 	c #222323",
"t 	c #141414",
"u 	c #3B3C3C",
"v 	c #5C5D5C",
"w 	c #3A3A3A",
"x 	c #5A5A5A",
"y 	c #242424",
"z 	c #252424",
"A 	c #2A2A2A",
"B 	c #2C2C2D",
"C 	c #2F2F2F",
"D 	c #313130",
"E 	c #313030",
"F 	c #313131",
"G 	c #2F2D2F",
"H 	c #2B2A2A",
"I 	c #2B2B2B",
"J 	c #272727",
"K 	c #252625",
"L 	c #393939",
"M 	c #565656",
"N 	c #383938",
"O 	c #4B4B4B",
"P 	c #262626",
"Q 	c #272626",
"R 	c #343434",
"S 	c #343435",
"T 	c #3D3D3D",
"U 	c #403D3D",
"V 	c #3C3C3C",
"W 	c #3A3737",
"X 	c #343432",
"Y 	c #30302F",
"Z 	c #29292A",
"` 	c #282728",
" .	c #373737",
"..	c #404040",
"+.	c #363636",
"@.	c #3E3D3D",
"#.	c #292929",
"$.	c #2E2E2E",
"%.	c #383838",
"&.	c #3A3939",
"*.	c #414142",
"=.	c #424142",
"-.	c #403F3F",
";.	c #3B3D3D",
">.	c #3F3F3F",
",.	c #323232",
"'.	c #2D2D2C",
").	c #343534",
"!.	c #3D3D3B",
"~.	c #343433",
"{.	c #3B3B3A",
"].	c #2B2C2C",
"^.	c #2C2B2B",
"/.	c #2B2C2B",
"(.	c #353534",
"_.	c #373738",
":.	c #424242",
"<.	c #353434",
"[.	c #2D2D2D",
"}.	c #2D2C2C",
"|.	c #333232",
"1.	c #383738",
"2.	c #313132",
"3.	c #2E2F2E",
"4.	c #302F2F",
"5.	c #393838",
"6.	c #373838",
"7.	c #363737",
"8.	c #323132",
"9.	c #313031",
"0.	c #F1F1F1",
"a.	c #F5F5F5",
"b.	c #FAFAFA",
"c.	c #FDFDFD",
"d.	c #FEFEFE",
"e.	c #FCFCFC",
"f.	c #F7F7F7",
"g.	c #F3F3F3",
"h.	c #505050",
"i.	c #4F5050",
"j.	c #504F50",
"k.	c #535252",
"l.	c #535454",
"m.	c #515151",
"n.	c #525252",
"o.	c #545454",
"p.	c #555555",
"q.	c #565556",
"r.	c #545453",
"s.	c #4E4E4E",
"t.	c #2E2D2D",
"u.	c #2D2E2D",
"v.	c #2C2C2C",
"w.	c #555455",
"x.	c #545555",
"y.	c #5B5B5B",
"z.	c #626261",
"A.	c #636363",
"B.	c #626262",
"C.	c #616160",
"D.	c #5C5B5B",
"E.	c #535453",
"F.	c #535353",
"G.	c #525353",
"H.	c #5E5E5E",
"I.	c #676767",
"J.	c #686868",
"K.	c #686968",
"L.	c #696868",
"M.	c #686867",
"N.	c #686768",
"O.	c #676768",
"P.	c #656565",
"Q.	c #5E5E5F",
"R.	c #585858",
"S.	c #585857",
"T.	c #585757",
"U.	c #2A2929",
"V.	c #282827",
"W.	c #5E5F5E",
"X.	c #5F5F5F",
"Y.	c #636262",
"Z.	c #6D6E6E",
"`.	c #6E6E6E",
" +	c #6E6E6F",
".+	c #6E6E6C",
"++	c #6C6E6C",
"@+	c #6E6C6C",
"#+	c #5C5D5D",
"$+	c #5D5C5D",
"%+	c #5C5C5D",
"&+	c #272627",
"*+	c #272726",
"=+	c #262525",
"-+	c #484848",
";+	c #646463",
">+	c #646464",
",+	c #757373",
"'+	c #757375",
")+	c #737373",
"!+	c #727373",
"~+	c #727372",
"{+	c #737272",
"]+	c #727272",
"^+	c #6C6C6C",
"/+	c #616162",
"(+	c #464647",
"_+	c #242423",
":+	c #202021",
"<+	c #4D4D4D",
"[+	c #696869",
"}+	c #767676",
"|+	c #797979",
"1+	c #787979",
"2+	c #787978",
"3+	c #787777",
"4+	c #717070",
"5+	c #696969",
"6+	c #666767",
"7+	c #666667",
"8+	c #4A4B4B",
"9+	c #1D1C1D",
"0+	c #707070",
"a+	c #747374",
"b+	c #676766",
"c+	c #626362",
"d+	c #626363",
"e+	c #303030",
"f+	c #1A1A1A",
"g+	c #212020",
"h+	c #2E2E2D",
"i+	c #3E3E3D",
"j+	c #474646",
"k+	c #444443",
"l+	c #444444",
"m+	c #434343",
"n+	c #474747",
"o+	c #484949",
"p+	c #4D4D4C",
"q+	c #393839",
"r+	c #262526",
"s+	c #101010",
"t+	c #1B1B1A",
"u+	c #151515",
"v+	c #131313",
"w+	c #121112",
"x+	c #131212",
"y+	c #111111",
"z+	c #0F0F0F",
"A+	c #0D0D0D",
". + @ # $ % & * = - ; > > , > ' ) ! ~ { ",
"] ^ / ( _ / ( / / / / / ( : < / < < ^ [ ",
"} | | | | | | | | | | | | | | | | | | 1 ",
"2 3 4 5 5 6 6 6 7 8 9 0 a 7 7 b c 7 d e ",
"f | | | | | | | | | | | | | | | | | | g ",
"h i j 8 j k k l m n n o p n o q r s t u ",
"v | | | | | | | | | | | | | | | | | | w ",
"x y y z y z A B C D E F D G H I A J K L ",
"M | | | | | | | | | | | | | | | | | | N ",
"O P J Q Q D R S w T T U U V W X Y Z `  .",
"..| | | | | | | | | | | | | | | | | | +.",
"@.p #.#.$.%.&...*.=.=.-.;.>.T ,.'.A A ).",
"!.| | | | | | | | | | | | | | | | | | ~.",
"{.].^./.].(._.! :.:...T w L <.$.'.[.}.|.",
"1.| | | | | | | | | | | | | | | | | | 2.",
",.$.$.$.$.$.3.4.+.N 5.6. .7.+.8.C C C 9.",
"C 0.0.0.0.0.0.0.a.b.c.d.d.e.f.g.0.0.0.4.",
"$.h.h.- i.j.k.l.m.n.o.p.q.r.h.s.s.s.s.3.",
"t.| | | | | | | | | | | | | | | | | | u.",
"v.p.w.x.y.z.A.B.B.B.z.C.D.p.E.F.G.F.F.}.",
"I | | | | | | | | | | | | | | | | | | I ",
"A x x H.I.J.K.L.J.M.N.O.O.P.Q.R.R.S.T.A ",
"#.| | | | | | | | | | | | | | | | | | U.",
"V.W.X.Y.Z.`.`. +`..+.+.+++@+I.X.#+$+%+V.",
"&+| | | | | | | | | | | | | | | | | | *+",
"=+-+;+>+@+,+'+)+!+~+{+]+]+]+^+B.B./+(+_+",
"z | | | | | | | | | | | | | | | | | | :+",
"9 <+[+[+K.`.}+|+|+|+1+2+3+4+5+I.6+7+8+( ",
"r | | | | | | | | | | | | | | | | | | 9+",
"8 +.s.J.I.I.I.^+0+a+`.b+>+c+>+/+d+-+e+f+",
"g+| | | | | | | | | | | | | | | | | | t ",
"/ h+i+j+k+l+m+n+o+O O p+s.<+s.<+<+q+r+s+",
"t+u+v+3 3 3 3 3 w+x+3 3 v+3 3 y+z+A+A+A+"};
