/* XPM */
static char * font_global_beat_xpm[] = {
"116 11 113 2",
"  	c None",
". 	c #FDFEFF",
"+ 	c #FDFFFF",
"@ 	c #FBFDFF",
"# 	c #FBFEFF",
"$ 	c #F9FDFF",
"% 	c #F9FCFF",
"& 	c #F7FCFF",
"* 	c #F7FBFF",
"= 	c #F5FBFF",
"- 	c #F3FCFF",
"; 	c #F3FBFF",
"> 	c #FBFFFF",
", 	c #F1FBFF",
"' 	c #F1FAFF",
") 	c #EFFAFF",
"! 	c #EDF8FF",
"~ 	c #EBF9FF",
"{ 	c #E9F9FF",
"] 	c #E9F8FF",
"^ 	c #F5FCFF",
"/ 	c #F1F9FF",
"( 	c #EFFCFF",
"_ 	c #EDFAFF",
": 	c #EBFBFF",
"< 	c #E9FAFF",
"[ 	c #E7F7FF",
"} 	c #E5F8FF",
"| 	c #E5F7FF",
"1 	c #E3F8FF",
"2 	c #E3F7FF",
"3 	c #E1F7FF",
"4 	c #DDF7FF",
"5 	c #E1F5FF",
"6 	c #DDF5FF",
"7 	c #DBF4FF",
"8 	c #D5F7FF",
"9 	c #D5F4FF",
"0 	c #D9F6FF",
"a 	c #D4F4FE",
"b 	c #D4F2FE",
"c 	c #CFF3FF",
"d 	c #CDF1FF",
"e 	c #C5F3FF",
"f 	c #C1F2FF",
"g 	c #C0F0FE",
"h 	c #C0EDFE",
"i 	c #DBF6FF",
"j 	c #CAF4FE",
"k 	c #CDEFFF",
"l 	c #CAF1FE",
"m 	c #C5EFFF",
"n 	c #C1EFFF",
"o 	c #BCF0FE",
"p 	c #BCECFE",
"q 	c #B7EAFF",
"r 	c #B3ECFF",
"s 	c #AFEFFF",
"t 	c #ABEAFF",
"u 	c #A6EDFE",
"v 	c #A6E8FE",
"w 	c #9EE9FE",
"x 	c #9EE4FE",
"y 	c #B7F0FF",
"z 	c #B7EFFF",
"A 	c #B3EAFF",
"B 	c #AFEBFF",
"C 	c #ABEEFF",
"D 	c #AFE7FF",
"E 	c #A2EAFE",
"F 	c #A6E4FE",
"G 	c #A2E7FE",
"H 	c #A2E3FE",
"I 	c #99E8FF",
"J 	c #99E3FF",
"K 	c #95E5FF",
"L 	c #95E0FF",
"M 	c #91E4FF",
"N 	c #91DEFF",
"O 	c #8DE5FF",
"P 	c #8DE3FF",
"Q 	c #89E4FF",
"R 	c #89DFFF",
"S 	c #85E3FF",
"T 	c #85DEFF",
"U 	c #81DDFF",
"V 	c #7EDCFE",
"W 	c #89DCFF",
"X 	c #81E0FF",
"Y 	c #81DAFF",
"Z 	c #7ADEFE",
"` 	c #72D8FE",
" .	c #72D5FE",
"..	c #6CD0FE",
"+.	c #8DDDFF",
"@.	c #7ED6FE",
"#.	c #7AD7FE",
"$.	c #76D9FE",
"%.	c #76D6FE",
"&.	c #6ED7FE",
"*.	c #6ED4FE",
"=.	c #6CD3FE",
"-.	c #68D2FE",
";.	c #68CFFE",
">.	c #64D1FE",
",.	c #64CDFE",
"'.	c #60D3FE",
").	c #60D0FE",
"!.	c #5ECBFE",
"~.	c #5EC8FE",
"{.	c #5ACEFE",
"].	c #5ACAFE",
"^.	c #57CDFF",
". . . . . . . . . . . . . . . . . . . . . . . . . . . . . . . . . . . . . . . . . . . . . . . . . . . . . . . . . . . . . . . . . . . . . . . . . . . . . . . . . . . . . . . . + . . . . . . . . . . . . . . . . . . . . . . . . . . . ",
"      .               .               .               .               .               .               .               .               .               .               .               .               .               .               . ",
". .   .           .   .   + . . . .   .   . . . . .   .   .       .   .   . . . . .   .   . . . . .   .   . . . . .   .   . . . . .   .   . . . . .   .   . . . .     .   . . . . .   @       #       @   # @ @ @ @       @ @ $ %       ",
"  .   .           .   .           .   .           .   .   .       .   .   .           @   @           #           @   @   @       $   %   %       %   %   %       &   &   *           *     =   =     =       -           ;       -     ",
"  >   @           @   @           $   %           $   %   %       &   &   &           &   &           =           =   ;   ;       ;   ;   ;       ,   '   ,       ,   )   '           )   !       ~   ~       {           ]       ]     ",
"  ^   =           =   =   = - - ; ;   -       ; , ;   ,   , ' ' ' /   (   , ) ) ) )   )   _ _ ! ~ :   ~           {   {   < ] < ] ]   [   [ [ [ } [   |   } | 1 1     1   2 3 3       4   5 4 6 6 6   6       7           8 9 8 9       ",
"  ~   !           {       <                       }               |               3       5       6               7       0       9               a       b       c       d               e       e           f           g     h       ",
"  4   4           i   7   7           9           9   a           c   c           d   j   k       l   m           n   f   g       g   o           p   p   q       r   r   s           t   t       u   v       v           w       x     ",
"l e   e           f   f   n n g n g   o   h p h o y   z           q   r   A r B s B   C   D C t t t   u           E   F   G G w H w   w           I   J   K K K L     M   M N O N N   P   Q       R   S       T           U       V     ",
"      t               v               w               I               L               P               W               X               Y               Z               `                .              ..                                ",
"P P R +.R R S R R T T T T T X X T U U V Y U V V Z V @.V Z #.Z #.$.$.$.%.$.%. . .`  . . . .&.&.*.*.*.=.=.=.=.=.=.......-.;.-.;.;.-.;.>.,.'.,.'.).).).).!.!.!.!.!.~.{.~.!.!.].].].].].].].].].].].].].].].].^.].].].].].                  "};
