/* XPM */
static char * icon_device_disabled_xpm[] = {
"24 24 134 2",
"  	c None",
". 	c #980808",
"+ 	c #EE7474",
"@ 	c #EE706F",
"# 	c #EF6C6C",
"$ 	c #F06868",
"% 	c #ED7676",
"& 	c #EE7272",
"* 	c #EF6E6E",
"= 	c #F06A6A",
"- 	c #F06566",
"; 	c #F16162",
"> 	c #F15D5D",
", 	c #F25959",
"' 	c #EE7070",
") 	c #EF6768",
"! 	c #F16464",
"~ 	c #F16060",
"{ 	c #F25B5C",
"] 	c #F25857",
"^ 	c #F25453",
"/ 	c #F34F4F",
"( 	c #EE7172",
"_ 	c #EE6D6D",
": 	c #F06A69",
"< 	c #F06565",
"[ 	c #F16161",
"} 	c #F25E5E",
"| 	c #F25A59",
"1 	c #F35555",
"2 	c #F35151",
"3 	c #F44D4D",
"4 	c #F54949",
"5 	c #F54545",
"6 	c #EF706F",
"7 	c #EF6C6B",
"8 	c #F06767",
"9 	c #F06363",
"0 	c #F15F5F",
"a 	c #F25B5B",
"b 	c #F25757",
"c 	c #F35353",
"d 	c #F54B4A",
"e 	c #F54747",
"f 	c #F64343",
"g 	c #F63E3F",
"h 	c #F73B3B",
"i 	c #EF6A6A",
"j 	c #F06666",
"k 	c #F06162",
"l 	c #F25555",
"m 	c #F44949",
"n 	c #F64140",
"o 	c #F73D3C",
"p 	c #F73938",
"q 	c #F73434",
"r 	c #EF6867",
"s 	c #F1605F",
"t 	c #F15B5B",
"u 	c #F35757",
"v 	c #F44F4F",
"w 	c #F44B4B",
"x 	c #F54647",
"y 	c #F64243",
"z 	c #F63E3E",
"A 	c #F73A3B",
"B 	c #F73736",
"C 	c #F83232",
"D 	c #F92F2E",
"E 	c #F92B2B",
"F 	c #F06261",
"G 	c #F35050",
"H 	c #F54849",
"I 	c #F64040",
"J 	c #F73435",
"K 	c #F93031",
"L 	c #F92C2C",
"M 	c #FA2928",
"N 	c #FA2424",
"O 	c #F35657",
"P 	c #F44B4A",
"Q 	c #F44747",
"R 	c #F63F3F",
"S 	c #F73B3A",
"T 	c #F73737",
"U 	c #F82E2E",
"V 	c #F92A2A",
"W 	c #FA2626",
"X 	c #FB2222",
"Y 	c #FB1E1E",
"Z 	c #F45051",
"` 	c #F34D4D",
" .	c #F54445",
"..	c #F64041",
"+.	c #F63D3D",
"@.	c #F73838",
"#.	c #F93030",
"$.	c #F92D2C",
"%.	c #FA2828",
"&.	c #FB1F20",
"*.	c #FC1C1B",
"=.	c #FC1717",
"-.	c #F54243",
";.	c #F73A3A",
">.	c #F83636",
",.	c #F92E2E",
"'.	c #FA2A2A",
").	c #FB1E1D",
"!.	c #FC191A",
"~.	c #FC1515",
"{.	c #F63C3C",
"].	c #F73839",
"^.	c #F83030",
"/.	c #FB2020",
"(.	c #FB1C1B",
"_.	c #FC1818",
":.	c #FD1414",
"<.	c #FE1010",
"[.	c #F73636",
"}.	c #FB1D1D",
"|.	c #FB1A1A",
"1.	c #FD1516",
"2.	c #FD1212",
"3.	c #FD0E0E",
"4.	c #FB1C1C",
"5.	c #FC1718",
"6.	c #FD1313",
"7.	c #FD0F0F",
"8.	c #FE0B0B",
"9.	c #FB1D1E",
"0.	c #FC1A19",
"a.	c #FD1112",
"b.	c #FD0E0D",
"c.	c #FF0909",
"                                                ",
"                                                ",
"                                                ",
"                  . . . . . .                   ",
"              . . . + @ # $ . . .               ",
"            . . % & * = - ; > , . .             ",
"          . . + ' # ) ! ~ { ] ^ / . .           ",
"        . . ( _ : < [ } | 1 2 3 4 5 . .         ",
"        . 6 7 8 9 0 a b c / d e f g h .         ",
"      . . i j k > , l 2 3 m 5 n o p q . .       ",
"      . r ! s t u c v w x y z A B C D E .       ",
"      . F > , 1 G 3 H 5 I o p J K L M N .       ",
"      . a O c v P Q f R S T C U V W X Y .       ",
"      . 1 Z ` m  ...+.@.J #.$.%.N &.*.=..       ",
"      . . P e -.g ;.>.C ,.'.W X ).!.~.. .       ",
"        .  .n {.].q ^.L %.N /.(._.:.<..         ",
"        . . ;.[.C ,.V W X }.|.1.2.3.. .         ",
"          . . #.L %.N /.4.5.6.7.8.. .           ",
"            . . W X 9.0.~.a.b.c.. .             ",
"              . . . =.6.7.8.. . .               ",
"                  . . . . . .                   ",
"                                                ",
"                                                ",
"                                                "};
