/* XPM */
static char * icon_stereo_enhance_xpm[] = {
"48 48 3 1",
" 	c None",
".	c #575E79",
"+	c #C1F2FB",
"................................................",
"................................................",
"................................................",
"................................................",
"................................................",
"................................................",
"................................................",
"................................................",
"................................................",
"................................................",
"................................................",
"................................................",
"................................................",
"................................................",
"................................................",
"..........+..........................+..........",
"..........++........................++..........",
".....+....+++......................+++....+.....",
"....+.....++++....................++++.....+....",
"...+......+++++.++++........++++.+++++......+...",
"...+...+..+++++.++++........++++.+++++..+...+...",
"...+..+...+++++.++++........++++.+++++...+..+...",
"...+..+...+++++.+++++......+++++.+++++...+..+...",
"...+..+...+++++.++++++....++++++.+++++...+..+...",
"...+..+...+++++.++++++....++++++.+++++...+..+...",
"...+..+...+++++.++++++....++++++.+++++...+..+...",
"...+..+...+++++.+++++......+++++.+++++...+..+...",
"...+..+...+++++.++++........++++.+++++...+..+...",
"...+...+..+++++.++++........++++.+++++..+...+...",
"...+......+++++.++++........++++.+++++......+...",
"....+.....++++....................++++.....+....",
".....+....+++......................+++....+.....",
"..........++........................++..........",
"..........+..........................+..........",
"................................................",
"................................................",
"................................................",
"................................................",
"................................................",
"................................................",
"................................................",
"................................................",
"................................................",
"................................................",
"................................................",
"................................................",
"................................................",
"................................................"};
