/* XPM */
static char * icon_reverb_xpm[] = {
"48 48 134 2",
"  	c #838383",
". 	c #9B9B9B",
"+ 	c #9C9C9C",
"@ 	c #9D9D9D",
"# 	c #9E9E9E",
"$ 	c #9F9F9F",
"% 	c #A2A2A2",
"& 	c #A7A7A7",
"* 	c #ACACAC",
"= 	c #AFAFAF",
"- 	c #B1B1B1",
"; 	c #A6A6A6",
"> 	c #A1A1A1",
", 	c #848484",
"' 	c #999999",
") 	c #828282",
"! 	c #989898",
"~ 	c #9A9A9A",
"{ 	c #A4A4A4",
"] 	c #B6B6B6",
"^ 	c #BDBDBD",
"/ 	c #C2C2C2",
"( 	c #C4C4C4",
"_ 	c #B5B5B5",
": 	c #ADADAD",
"< 	c #A5A5A5",
"[ 	c #979797",
"} 	c #7F7F7F",
"| 	c #969696",
"1 	c #BBBBBB",
"2 	c #C5C5C5",
"3 	c #FEFEFE",
"4 	c #FFFFFF",
"5 	c #C6C6C6",
"6 	c #BCBCBC",
"7 	c #818181",
"8 	c #949494",
"9 	c #939393",
"0 	c #7C7C7C",
"a 	c #AEAEAE",
"b 	c #C7C7C7",
"c 	c #A0A0A0",
"d 	c #7E7E7E",
"e 	c #959595",
"f 	c #929292",
"g 	c #909090",
"h 	c #7A7A7A",
"i 	c #B2B2B2",
"j 	c #C0C0C0",
"k 	c #C9C9C9",
"l 	c #CCCCCC",
"m 	c #CDCDCD",
"n 	c #C1C1C1",
"o 	c #919191",
"p 	c #8F8F8F",
"q 	c #797979",
"r 	c #BABABA",
"s 	c #C3C3C3",
"t 	c #8E8E8E",
"u 	c #A3A3A3",
"v 	c #B4B4B4",
"w 	c #B8B8B8",
"x 	c #B9B9B9",
"y 	c #8D8D8D",
"z 	c #787878",
"A 	c #A9A9A9",
"B 	c #ABABAB",
"C 	c #AAAAAA",
"D 	c #777777",
"E 	c #7B7B7B",
"F 	c #878787",
"G 	c #8B8B8B",
"H 	c #8C8C8C",
"I 	c #888888",
"J 	c #767676",
"K 	c #8A8A8A",
"L 	c #898989",
"M 	c #463726",
"N 	c #7694AE",
"O 	c #3B5B37",
"P 	c #573E31",
"Q 	c #757575",
"R 	c #747474",
"S 	c #B2AF96",
"T 	c #30475A",
"U 	c #737373",
"V 	c #727272",
"W 	c #868686",
"X 	c #858585",
"Y 	c #707070",
"Z 	c #717171",
"` 	c #6F6F6F",
" .	c #6E6E6E",
"..	c #6D6D6D",
"+.	c #575C7D",
"@.	c #949388",
"#.	c #808080",
"$.	c #62688E",
"%.	c #B0AEA0",
"&.	c #6C6C6C",
"*.	c #477353",
"=.	c #2B4D34",
"-.	c #CCCBC2",
";.	c #6A6A6A",
">.	c #6B6B6B",
",.	c #7D7D7D",
"'.	c #A4A47E",
").	c #1C1C12",
"!.	c #696969",
"~.	c #7A80A0",
"{.	c #484D6E",
"].	c #3E446A",
"^.	c #53597B",
"/.	c #686868",
"(.	c #676767",
"_.	c #30344E",
":.	c #666666",
"<.	c #656565",
"[.	c #646464",
"}.	c #636363",
"|.	c #626262",
"1.	c #6F5151",
"2.	c #4A2E3B",
"3.	c #423724",
"4.	c #6E5050",
"5.	c #A29E90",
"6.	c #6F4F4F",
"7.	c #584C36",
"8.	c #74654C",
"9.	c #606060",
"0.	c #A19D8F",
"a.	c #5F5F5F",
"b.	c #6D4F4F",
"c.	c #5E5E5E",
"  . . + + . . + + @ @ + + + @ + + @ # $ % & * = - - = * ; > $ # @ + + + + @ + + @ @ @ @ @ @ + , ",
"' ) ! ' ' ' . . ~ . . . . + + . . @ $ { * ] ^ / ( ( / ^ _ : < $ + + + + . . ~ . . ~ . . . .   . ",
"! [ } [ | [ ! ! ~ ~ ~ . ~ ~ ~ . + # { = 1 2 3 3 4 4 3 3 5 6 - < # . ~ ~ ~ ' ' ' ' ' ' ' ' 7 ' ' ",
"8 8 9 0 8 8 | [ [ ! ! ' ' ' ' ' + % a 1 b 3 3 3 3 3 3 3 3 b 6 : c ~ [ [ [ | | | | | | | d e e [ ",
"f f g f h 9 9 8 e e e | | [ [ ! . { i j k l 3 3 3 3 3 3 m k n - > ' e e 8 8 9 9 9 9 9 0 9 9 8 8 ",
"f o g p g q o o f 9 8 8 9 e e 8 ! c : r n s ( ( ( 2 2 2 2 s 1 : $ | 9 f f o o o o o h o o o o f ",
"g p t p t p q p g o o o o f f 9 8 ~ u : v w w x x r r x x _ a % ! 9 g g g p p p p q p g g p p g ",
"o g p p y t y z p p p t p g g g g f [ # { A B : : : : * C ; $ [ f p t t t t t t z t t t p t y p ",
"o g p t y y y y D D D z z z z z z q E d ) F G t t p y H I , d h z D D D D D D D y y y t t t t p ",
"o g p t y y y H J H H H G H H H H H H y p o 9 8 8 e 8 9 o p y H H H H H y y y D y y y t t t p p ",
"o o p t t y H H J H H G G G G G K G G G G H H y y y y y H H G G H H H H H y y D y t t t t p p g ",
"o o g p t y y H J G G G G G G G K G G K G G K G G G G G G G G G G H H H y y y z t t p p p p g g ",
"o g g p p t y y J H G G G G G K K K K L K G G G G G G G G G H H H H y y y t t z p p p p p g g g ",
"g g g p p y t y D H H H G G G G M M M M M M M M M M M M M M M M y y y t t t t q p p p p p p p g ",
"p p p p t t t t D y y H H H H H M N N N N N N N N N N N N N N M y y t t t t t q p p p p p p p p ",
"t t t t t t t y D y y y H H H H M N N N N O O N N N N N N N N M y y y y t t t z t t t t t t t t ",
"y y y y y y y y D y y H H H H H M N N N N O O N N N N N N N N M y y y y y y y D t y y y y y t y ",
"H H H H H H H H J H H H H H H H M N N N O P O O N N N N N N N M H H H H H H H J y H H H H H H y ",
"G G G G G G G G Q G G G G G G G M N N N O P O O N N N N N N N M G G G G G G G Q G H G G G G G G ",
"K K K K K K K K R K K K K K K K M S S P P P N N N N N N T T T M K G G K K K G Q G G K K K K G G ",
"L L L L L L L L R L L L L L L L M S S P P S S S T T T T T T T M L K K K L L L R L L L L K K K K ",
"I I I I I I I I U I I I I I I L M S S S S S S S S T T T T T T M I I I I I I I U L L I L L L L L ",
"F F F F F F F F V F I F F F F F M M M M M M M M M M M M M M M M F F F I I I F U I F I F I I F F ",
"W F W W W F W F V W W F W F F F F F W W F W W F F W F F W F W W W W F W W F F V W F F W F F W W ",
"X X X X X X W X Y X X X X X W W W W W W X W W X W X W W X X W W X W W W W W W Z X W W W W X W W ",
", , , X X , , , ` X , , , , , , X X , , X X X X , , , , , X , , , X X X X X X ` , X X X , , X X ",
"  ,   , , , , , ` , , , ,     , , , , , ,   , , , , , ,   , , , , , , , ,   ,  ., , ,   , , , , ",
"  )   ) ) )      .  )       )     )     )         )       )             )      .                ",
"7 7 7 ) ) ) ) ) ..) 7 7 ) ) 7 ) ) +.+.+.+.+.+.+.) +.+.+.+.+.+.+.) ) ) ) ) ) )  .) ) ) ) ) ) ) ) ",
"7 7 7 @.@.@.7 7 ..7 #.7 7 7 7 #.+.$.$.$.$.$.$.+.+.+.$.$.$.$.$.$.+.7 7 #.7 7 7 ..7 7 7 7 7 7 7 7 ",
"#.#.@.%.%.%.@.#.&.} #.#.#.#.#.+.+.$.$.$.$.$.$.$.+.$.$.$.$.$.$.$.+.+.#.#.#.#.#.&.} #.*.=.#.#.#.} ",
"} @.%.-.-.-.%.@.;.} } } } } d +.$.$.$.$.$.$.$.$.+.$.$.$.$.$.$.$.$.+.} } } } } >.} } *.=.} } } d ",
"d @.%.%.%.%.%.@.;.d d ,.d ,.d +.$.$.$.$.$.$.$.$.+.$.$.$.$.$.$.$.$.+.d d d d d ;.d d d =.'.d d d ",
",.,.,.,.).,.0 0 !.0 ,.,.~.$.$.+.{.{.{.{.{.{.{.{.+.{.{.{.{.{.{.{.{.+.$.$.~.,.,.!.,.,.*.=.,.,.0 ,.",
"0 0 0 0 ).0 0 0 !.0 0 ].].^.{.{.$.~.~.~.~.~.~.~.$.~.~.~.~.~.~.~.$.{.{.^.].].0 !.0 0 *.=.0 0 0 0 ",
"E E E E ).E E E /.E ].$.$.].].$.~.~.~.~.~.~.~.~.$.~.~.~.~.~.~.~.~.$.].].$.$.]./.E '.'.=.E E E E ",
"h h h h ).h h h (.h ]._._.].].$.~.~.~.~.~.~.~.~.$.~.~.~.~.~.~.~.~.$.].]._._.].(.h h *.=.h h h h ",
"q q q q ).q q z :.q q ].].].].].$.$.$.$.$.$.$.$.].$.$.$.$.$.$.$.$.].].].].].q :.q *.*.'.'.q q q ",
"z z z z ).z z z <.z z z z _.].].].].].].].].].].].].].].].].].].].].]._.z z z <.z *.=.z z z z z ",
"D D D D ).D D D [.[.[.[.[._.].].].].].].].].].]._.].].].].].].].].].]._.[.[.[.[.D *.=.z D D z D ",
"J J J J ).J J }.G G G G G _.].].].].].].].].].]._.].].].].].].].].].]._.G G G G }.*.=.J J J J J ",
"Q Q Q Q ).Q }.G G G G G G _._._._._._._._._._._._._._._._._._._._._._._.G G G G G *.=.J Q Q J Q ",
"R R R R ).|.K K K K K K 1.2.1.1.1.1.1.1.1.1.1.1.1.1.1.1.1.1.1.1.1.1.1.1.K K G K 3.3.3.3.3.R R R ",
"U U U U ).L L L L L L 4.4.5.5.5.5.5.5.5.5.5.5.5.5.5.5.5.5.5.5.5.5.5.5.6.4.K L L 3.7.8.7.3.U R U ",
"V V V 9.).I I I I I L 4.4.0.4.4.4.4.4.4.4.4.4.4.4.4.4.4.4.4.4.4.4.4.0.4.4.L L L 3.7.8.7.3.U U U ",
"Z Z a.).).).I F I F b.b.0.b.b.b.b.b.b.b.b.b.b.b.b.b.b.b.b.b.b.b.b.b.b.0.b.b.I I 3.7.8.7.3.a.V V ",
"Y c.).).).).).W W W b.b.0.b.b.b.b.b.b.b.b.b.b.b.b.b.b.b.b.b.b.b.b.b.b.0.b.b.F F W 3.3.3.F F a.Z ",
"c.W W W W W W W W b.b.0.b.b.b.b.b.b.b.b.b.b.b.b.b.b.b.b.b.b.b.b.b.b.b.b.0.b.b.W W W W W W W W c."};
