/* XPM */
static char * icon_file_open_xpm[] = {
"24 24 142 2",
"  	c None",
". 	c #585858",
"+ 	c #FFFFFF",
"@ 	c #AE1515",
"# 	c #F0F1CF",
"$ 	c #F0F1D0",
"% 	c #FEFFFF",
"& 	c #FEFEFF",
"* 	c #FDFEFD",
"= 	c #FDFDFE",
"- 	c #FDFDFC",
"; 	c #FCFCFC",
"> 	c #FCFBFC",
", 	c #F0EFCB",
"' 	c #F0EECB",
") 	c #F0EECA",
"! 	c #F2F2F1",
"~ 	c #F1F1F1",
"{ 	c #F1F0F0",
"] 	c #EFEFF0",
"^ 	c #EFF0F0",
"/ 	c #EFEEEF",
"( 	c #EEEEEF",
"_ 	c #EDEEED",
": 	c #EDEDED",
"< 	c #F0ECC6",
"[ 	c #E3E3E4",
"} 	c #E3E2E2",
"| 	c #F0E9BD",
"1 	c #D2A689",
"2 	c #D5D5D5",
"3 	c #D5D5D4",
"4 	c #EFF3D5",
"5 	c #F0F3D4",
"6 	c #EEEECC",
"7 	c #F0F0CC",
"8 	c #F0EBC2",
"9 	c #F0E6B5",
"0 	c #D2A482",
"a 	c #CFCFCF",
"b 	c #F0F3D5",
"c 	c #EFF3D4",
"d 	c #EFF3D3",
"e 	c #EFF1D1",
"f 	c #F0F0CF",
"g 	c #EEEBC4",
"h 	c #F0EEC9",
"i 	c #F0EAC2",
"j 	c #F0E7BA",
"k 	c #F0E3AD",
"l 	c #D2A27D",
"m 	c #F0F0CE",
"n 	c #F0EDC8",
"o 	c #EEE7BC",
"p 	c #F0E8BD",
"q 	c #F0E6B7",
"r 	c #F0E5B4",
"s 	c #F0E3AE",
"t 	c #F0DFA5",
"u 	c #D2A076",
"v 	c #D29F76",
"w 	c #EFF2D3",
"x 	c #F0EDC7",
"y 	c #F0EBC3",
"z 	c #F0EAC0",
"A 	c #EEE4B0",
"B 	c #F0E7B7",
"C 	c #F0E5B2",
"D 	c #F0E1A7",
"E 	c #F0DC9A",
"F 	c #D29D6F",
"G 	c #D29C6F",
"H 	c #F0EFCC",
"I 	c #F0E9BF",
"J 	c #F0E7BC",
"K 	c #EEDFA7",
"L 	c #F0E2AD",
"M 	c #F0DFA2",
"N 	c #F0DD9A",
"O 	c #D29B6B",
"P 	c #D39B69",
"Q 	c #F0E7B9",
"R 	c #F0E5B5",
"S 	c #F0E4B0",
"T 	c #F0E2AB",
"U 	c #EEDB9C",
"V 	c #F0DFA0",
"W 	c #F0DC9C",
"X 	c #F1DA95",
"Y 	c #D39764",
"Z 	c #D29864",
"` 	c #D29764",
" .	c #F0E9BC",
"..	c #F0E0A5",
"+.	c #F0DD9E",
"@.	c #EED691",
"#.	c #F1D995",
"$.	c #F1D890",
"%.	c #F1D58C",
"&.	c #D3945E",
"*.	c #D2945E",
"=.	c #F0E8BC",
"-.	c #F0E4B2",
";.	c #F0DFA3",
">.	c #F1DD9E",
",.	c #F0DB98",
"'.	c #F0D993",
").	c #EED087",
"!.	c #F1D58B",
"~.	c #F1D286",
"{.	c #D3905A",
"].	c #F0E1A5",
"^.	c #F0DD9C",
"/.	c #F1D993",
"(.	c #F1D68E",
"_.	c #F1D389",
":.	c #EECA7E",
"<.	c #F1CF80",
"[.	c #F1CB7D",
"}.	c #D38C55",
"|.	c #F1D891",
"1.	c #F0D68C",
"2.	c #F1D387",
"3.	c #F1CF83",
"4.	c #F1CC7E",
"5.	c #EEC275",
"6.	c #F1C778",
"7.	c #D38751",
"8.	c #F0DEA0",
"9.	c #F0D790",
"0.	c #F1D083",
"a.	c #F1C97A",
"b.	c #F1C676",
"c.	c #EEB76E",
"d.	c #F1BD70",
"e.	c #F1D284",
"f.	c #F1CF81",
"g.	c #F1CC7D",
"h.	c #F1C476",
"i.	c #F1C072",
"j.	c #F1BC6F",
"k.	c #EEAE67",
"                                                ",
"            . . . . . . . . . . . .             ",
"            . + + + + + + + + + + .             ",
"      @ @ @ . + + + + + + + + + + .             ",
"    @ # $ # . + + + % & * = - ; > .             ",
"    @ , ' ) . ! ~ ~ { ] ^ / ( _ : .             ",
"    @ < < < . [ } @ @ @ @ @ @ @ @ @ @ @ @ @ @   ",
"    @ | | 1 . 2 3 @ 4 4 4 4 5 6 # 7 ) < 8 | @   ",
"    @ 9 9 0 . a @ b c 4 d e f g h < i | j @     ",
"    @ k l l . a @ b d $ m ) n o i p q r s @     ",
"    @ t u v . @ w $ 7 ) x y z A B C k D @       ",
"    @ E F G . @ H ) < 8 I J 9 K L D M N @       ",
"    @ O P P . h < i | Q R S T U V W X @         ",
"    @ Y Z ` @ i  .Q C k T ..+.@.#.$.%.@         ",
"    @ &.*.@ =.q -.k D ;.>.,.'.).!.~.@           ",
"    @ {.{.@ -.L ].M ^.,./.(._.:.<.[.@           ",
"    @ }.@ T ].V ^.X |.1.2.3.4.5.6.@             ",
"    @ 7.@ 8.E #.9.!.2.0.4.a.b.c.d.@             ",
"    @ @ ,.#.9.!.e.f.g.a.h.i.j.k.@               ",
"    @ @ @ @ @ @ @ @ @ @ @ @ @ @ @               ",
"                                                ",
"                                                ",
"                                                ",
"                                                "};
