/* XPM */
static char * icon_trigger_xpm[] = {
"48 48 135 2",
"  	c None",
". 	c #575E79",
"+ 	c #C1F2FB",
"@ 	c #7E94A8",
"# 	c #B7E5EF",
"$ 	c #7F96AA",
"% 	c #AED7E4",
"& 	c #5F6983",
"* 	c #A4C9D7",
"= 	c #88A3B6",
"- 	c #6C7C93",
"; 	c #B0DBE7",
"> 	c #C0F1FA",
", 	c #BEEDF7",
"' 	c #ADD7E3",
") 	c #B5E1EC",
"! 	c #BFF0F9",
"~ 	c #B8E5F0",
"{ 	c #8098AC",
"] 	c #606B84",
"^ 	c #BFEFF8",
"/ 	c #636F88",
"( 	c #96B6C6",
"_ 	c #768A9F",
": 	c #95B5C5",
"< 	c #74879D",
"[ 	c #75889E",
"} 	c #798EA3",
"| 	c #7A8FA4",
"1 	c #66748C",
"2 	c #BBEAF4",
"3 	c #849DB0",
"4 	c #A8CFDC",
"5 	c #59607B",
"6 	c #A7CEDB",
"7 	c #B7E4EF",
"8 	c #A6CDDA",
"9 	c #59617C",
"0 	c #59627C",
"a 	c #585F7A",
"b 	c #A9D1DE",
"c 	c #829AAE",
"d 	c #6D7D95",
"e 	c #ADD6E3",
"f 	c #BCEBF5",
"g 	c #65728A",
"h 	c #647189",
"i 	c #BEEEF7",
"j 	c #5E6982",
"k 	c #5A627D",
"l 	c #ACD5E2",
"m 	c #B3DFEA",
"n 	c #6D7C94",
"o 	c #B1DBE7",
"p 	c #B8E6F0",
"q 	c #89A4B7",
"r 	c #A1C5D4",
"s 	c #98B9C9",
"t 	c #718399",
"u 	c #708198",
"v 	c #C0F0F9",
"w 	c #AED8E4",
"x 	c #7B91A6",
"y 	c #6B7B92",
"z 	c #B0DAE6",
"A 	c #647089",
"B 	c #BCEBF4",
"C 	c #BDEDF6",
"D 	c #A3C8D6",
"E 	c #72839A",
"F 	c #BEEFF8",
"G 	c #ADD6E2",
"H 	c #73869C",
"I 	c #788DA2",
"J 	c #90AEBF",
"K 	c #626E87",
"L 	c #9EC1D0",
"M 	c #B9E8F2",
"N 	c #575F7A",
"O 	c #B6E3EE",
"P 	c #BDECF6",
"Q 	c #829AAD",
"R 	c #849EB1",
"S 	c #7D93A8",
"T 	c #76899F",
"U 	c #6F7F95",
"V 	c #67748D",
"W 	c #5F6A84",
"X 	c #58607A",
"Y 	c #575E78",
"Z 	c #88A2B5",
"` 	c #6A7991",
" .	c #5B647E",
"..	c #849CB0",
"+.	c #7C92A7",
"@.	c #74889D",
"#.	c #6E7D94",
"$.	c #66738C",
"%.	c #5E6983",
"&.	c #7F97AB",
"*.	c #708299",
"=.	c #69778F",
"-.	c #626D87",
";.	c #5A637D",
">.	c #74879C",
",.	c #6D7C93",
"'.	c #65728B",
").	c #5E6881",
"!.	c #7F95AA",
"~.	c #778BA1",
"{.	c #708197",
"].	c #68778F",
"^.	c #616C86",
"/.	c #5A627C",
"(.	c #7A90A5",
"_.	c #73859B",
":.	c #6C7B92",
"<.	c #5D6680",
"[.	c #768AA0",
"}.	c #6F7F96",
"|.	c #67768E",
"1.	c #58617B",
"2.	c #72849A",
"3.	c #6B7A92",
"4.	c #5C657F",
"5.	c #75899F",
"6.	c #6E7E95",
"7.	c #5F6A83",
"8.	c #6A7891",
"9.	c #636F87",
"0.	c #6D7D94",
"a.	c #66738B",
"b.	c #5F6982",
"c.	c #697790",
"d.	c #626D86",
". . . . . . . . . . . . . . . . . . . . . . . . . . . . . . . . . . . . . . . . . . . . . . . . ",
". . . . . . . . . . . . . . . . . . . . . . . . . . . . . . . . . . . . . . . . . . . . . . . . ",
". . . . . . . . . . . . . . . . . . . . . . . . . . . . . . . . . . . . . . . . . . . . . . . . ",
". . . . . . + + . . . . . . . . . . . . . . . . . . . . . . . . . . . . @ # + + . . . . . . . . ",
". . . . . . + + . . . . . . . . . . . . . . . . . . . . . . . . . $ % . # + & . . . . . . . . . ",
". . . . . . + + . . . . . . . . . . . . . . . . . . . . . . . . . * = . + + . . . . . . . . . . ",
". . - ; + + + + . + + + > . + + . . + + . + + + + , ' ) ! ~ { . ] ^ / + + + . . ( + _ _ + : . . ",
". . ' + < [ + + . + + } . . + ! . . + + . + + | 1 + + } 1 + 2 . 3 4 . . + + . . 5 6 7 7 8 5 . . ",
". . ^ + 9 0 + + . + + a . . + ! . a + + . + + a . + + a . + + . b c . . + + . . . d + + d . . . ",
". . e + < [ + + . + + . . . f + g } + + . + + . . + + . . + + h i j . . + + . . k l m m l k . . ",
". . n o + + + + . + + . . . 3 p + + + + . + + . . + + . . + + q r . . . + + . . s > t u v s . . ",
". . . . . . . . . . . . . . . . . . . . . . . . . . . . . . . w x . . . . . . . . . . . . . . . ",
". . . . . . . . . . . . . . . . + + . . . . . . . . . . . . . . . . . . . . . . . . . . . . . . ",
". . . . . . + + . . . . . . . . + + . . . . . . . . . . . . . . . . . . . . . . . . . . . . . . ",
". . . . . . + + . . . . . . . . . . . . . . . . . . . . . . . . . . . . . . . . . . . . . . . . ",
". . . . . + + + + + . + + + > . + + . y z + + + + . y z + + + + . A r B C D / . + + + > . . . . ",
". . . . . . + + . . . + + } . . + + . e + < [ + + . e + < [ + + . b + E y + 4 . + + } . . . . . ",
". . . . . . + + . . . + + a . . + + . ^ + 9 0 + + . ^ + 9 0 + + . F + + + + ! . + + a . . . . . ",
". . . . . . ^ + & . . + + . . . + + . G + H [ + + . G + H [ + + . 4 + I a . . . + + . . . . . . ",
". . . . . . J 2 + + . + + . . . + + . y ; + + + + . y ; + + + + . K L M + + + . + + . . . . . . ",
". . . . . . . . . . . . . . . . . . . . . N t + O . . . N t + O . . . . . . . . . . . . . . . . ",
". . . . . . . . . . . . . . . . . . . . + + P b u . . + + P b u . . . . . . . . . . . . . . . . ",
". . . . . . . . . . . . . . . . . . . . . . . . . . . . . . . . . . . . . . . . . . . . . . . . ",
". . . . . . . . . . . . . . . . . . . . . . . . . . . . . . . . . . . . . . . . . . . . . . . . ",
". . . . . . . . . . . . . . . . . . . . . . . . . . + . . . . . . . . . . . . . . . . . . . . . ",
". . . . . . . . . . . . . . . . . . . . . . . . . . + . . . . + . . . + . . . . . . . . . . . . ",
". . . . . . . . . . . . . . . . . . . . . + . + . . + + . . . + . . . + . . . . . . . . . . . . ",
". . . . . . . . . . . . . . . . . . . . . + . + . . + + . . + + + . . + . . . . . . . . . . . . ",
". . . . . . . . . . . . . . . . . . . . + + + + . + + + + . + + + . . + + . . . + . . . . . . . ",
". . . . . . . . . . . . . . . . . . . . + + + + + + + + + + + + + + . + + + . + + . + . . . . . ",
". . . . . . . + + + + + + + + + + + + + + + + + + + + + + + + + + + + + + + + + + + + . . . . . ",
". . . . . . . + Q q R S T U V W X Y Y Y + + + + + + + + + + + + + + + + + + + + + + + . . . . . ",
". . . . . . . + + Z { } t ` /  .Y Y Y + + + + + + + + + + + + + + + + + + + + + + + + . . . . . ",
". . . . . . . . + ..+.@.#.$.%.. Y Y + + + + + + + + + + + + + + + + . + + + . + + + + . . . . . ",
". . . . . . . . + &.I *.=.-.;.Y Y Y Y + + + + + + + + + . . + + + + . + + + . . + . . . . . . . ",
". . . . . . . . + x >.,.'.).Y + + + + . + + + + . + + + . . + + + . . + + . . . + . . . . . . . ",
". . . . . . . + !.~.{.].^./.Y + . + . . + + + + . + + + . . + + . . . + + . . . . . . . . . . . ",
". . . . . . . + (._.:.h <.Y + . . + . . . + + + . . + + . . . + . . . . . . . . . . . . . . . . ",
". . . . . . . + [.}.|.] 1.Y + . + . . . + + + . . . + . . . . . . . . . . . . . . . . . . . . . ",
". . . . . . . + 2.3./ 4.Y + . . . . . + . . + . . . + . . . . . . . . . . . . . . . . . . . . . ",
". . . . . . + 5.6.V 7.a Y + + + + + + . . . . . . . + . . . . . . . . . . . . . . . . . . . . . ",
". . . . . . + t 8.9. .Y + . . . . . . . . . . . . . + . . . . . . . . . . . . . . . . . . . . . ",
". . . . . . + 0.a.b.. Y + . . . . . . . . . . . . . . . . . . . . . . . . . . . . . . . . . . . ",
". . . . . + u c.d.;.Y + . . . . . . . . . . . . . . . . . . . . . . . . . . . . . . . . . . . . ",
". . . . . + + + + + + + . . . . . . . . . . . . . . . . . . . . . . . . . . . . . . . . . . . . ",
". . . . . . . . . . . . . . . . . . . . . . . . . . . . . . . . . . . . . . . . . . . . . . . . ",
". . . . . . . . . . . . . . . . . . . . . . . . . . . . . . . . . . . . . . . . . . . . . . . . ",
". . . . . . . . . . . . . . . . . . . . . . . . . . . . . . . . . . . . . . . . . . . . . . . . "};
