/* XPM */
static char * linked_block_xpm[] = {
"16 11 5 1",
" 	c None",
".	c #BDBDBD",
"+	c #6D6D6D",
"@	c #200101",
"#	c #D4D4D4",
"                ",
" .+.++@  .+.++@ ",
" #+@.+@  #+@.+@ ",
" #+@.+@  #+@.+@ ",
" #+@.+@  #+@.+@ ",
" .+.++@  .+.++@ ",
"  ..+@    ..+@  ",
"   #+@     #+@  ",
"   #+@     #+@  ",
"  ..+@    ..+@  ",
"                "};
