/* XPM */
static char * pattern_bg_xpm[] = {
"32 32 12 1",
" 	c None",
".	c #BDD3D7",
"+	c #678A8F",
"@	c #527378",
"#	c #283F42",
"$	c #294043",
"%	c #2C4448",
"&	c #7D9EA3",
"*	c #1D2F31",
"=	c #111C1D",
"-	c #0D1719",
";	c #2D4549",
"   ........................     ",
"  .+@#$##################%&.    ",
" .+@*====================*@&.   ",
".+@*=-------------------==*@&.  ",
".+@*=--------------------==*@&. ",
".+@*=---------------------==*@&.",
".+@*=----------------------=*@+.",
".+@*=----------------------=*@+.",
".+@*=----------------------=*@+.",
".+@*=----------------------=*@+.",
".+@*=----------------------=*@+.",
".+@*=----------------------=*@+.",
".+@*=----------------------=*@+.",
".+@*=----------------------=*@+.",
".+@*=----------------------=*@+.",
".+@*=----------------------=*@+.",
".+@*=----------------------=*@+.",
".+@*=----------------------=*@+.",
".+@*=----------------------=*@+.",
".+@*=----------------------=*@+.",
".+@*=----------------------=*@+.",
".+@*=----------------------=*@+.",
".+@*=----------------------=*@+.",
".+@*=----------------------=*@+.",
".+@*=----------------------=*@+.",
".+@*=----------------------=*@+.",
".+@*=----------------------=*@+.",
".+@*=----------------------=*@+.",
".+@*=----------------------=*@+.",
" .@*========================*@. ",
"  .@##$##################%%;@.  ",
"   ..........................   "};
