/* XPM */
static char * pattern_glob_bg_sel_xpm[] = {
"16 16 6 1",
" 	c None",
".	c #FF0D0D",
"+	c #087830",
"@	c #5AC378",
"#	c #011709",
"$	c #49B166",
"  ............  ",
" .++++++++++++. ",
".@############$.",
".@############$.",
".@############$.",
".@############$.",
".@############$.",
".@############$.",
".@############$.",
".@############$.",
".@############$.",
".@############$.",
".@############$.",
".@############$.",
" .++++++++++++. ",
"  ............  "};
