/* XPM */
static char * pattern_glob_bg_xpm[] = {
"16 16 92 2",
"  	c None",
". 	c #000000",
"+ 	c #182022",
"@ 	c #526C72",
"# 	c #8BA9AF",
"$ 	c #A0C0C6",
"% 	c #080B0C",
"& 	c #4A6066",
"* 	c #A8C5CA",
"= 	c #CFDFE2",
"- 	c #BDD2D6",
"; 	c #A1BDC2",
"> 	c #9FBABF",
", 	c #B8CCD0",
"' 	c #CCDADD",
") 	c #A7C4C9",
"! 	c #729397",
"~ 	c #C5D8DC",
"{ 	c #B5CDD1",
"] 	c #789DA4",
"^ 	c #67898F",
"/ 	c #6D9097",
"( 	c #749AA2",
"_ 	c #71939A",
": 	c #A6BABE",
"< 	c #BFD1D4",
"[ 	c #729297",
"} 	c #4D6268",
"| 	c #C8DADD",
"1 	c #A5C2C7",
"2 	c #6B8E94",
"3 	c #6F949B",
"4 	c #7FA9B1",
"5 	c #81ABB3",
"6 	c #9AB4B8",
"7 	c #BECDD0",
"8 	c #4B6066",
"9 	c #ABC7CC",
"0 	c #B6CDD2",
"a 	c #6A8C93",
"b 	c #AFC5C9",
"c 	c #9CB3B7",
"d 	c #171F21",
"e 	c #516B71",
"f 	c #CCDDE0",
"g 	c #7DA0A6",
"h 	c #89B0B8",
"i 	c #C4D3D6",
"j 	c #496065",
"k 	c #88A7AD",
"l 	c #C1D6DA",
"m 	c #688A91",
"n 	c #7DA6AE",
"o 	c #C0D3D7",
"p 	c #768F94",
"q 	c #A1C0C6",
"r 	c #ADC5CA",
"s 	c #6C8F96",
"t 	c #B1CBD0",
"u 	c #92ACB1",
"v 	c #ABC2C7",
"w 	c #71969D",
"x 	c #95B1B6",
"y 	c #BCCED2",
"z 	c #7C979D",
"A 	c #C9D9DC",
"B 	c #76979D",
"C 	c #445A5F",
"D 	c #A9BCC0",
"E 	c #B6CED3",
"F 	c #A9C4C9",
"G 	c #13191B",
"H 	c #C1D2D5",
"I 	c #43565B",
"J 	c #719296",
"K 	c #BACACD",
"L 	c #AEC4C8",
"M 	c #84ADB5",
"N 	c #B5CED2",
"O 	c #69878B",
"P 	c #060909",
"Q 	c #485E64",
"R 	c #98B0B5",
"S 	c #C8D6D8",
"T 	c #BED3D7",
"U 	c #405358",
"V 	c #4A6166",
"W 	c #799196",
"X 	c #91ACB1",
"Y 	c #97B4B9",
"Z 	c #839EA3",
"` 	c #455B60",
". . . . + @ # $ $ # @ + . . . . ",
". . % & * = - ; > , ' ) & % . . ",
". % ! ~ { ] ^ / ( ( _ : < [ % . ",
". } | 1 2 3 4 5 5 5 5 4 6 7 8 . ",
"+ 9 0 a ( 5 5 5 5 5 5 5 5 b c d ",
"e f g 3 5 5 5 5 5 5 5 5 5 h i j ",
"k l m n 5 5 5 5 5 5 5 5 5 5 o p ",
"q r s 5 5 5 5 5 5 5 5 5 5 5 t u ",
"q v w 5 5 5 5 5 5 5 5 5 5 5 t x ",
"k y w 5 5 5 5 5 5 5 5 5 5 5 l z ",
"e A B 5 5 5 5 5 5 5 5 5 5 h f C ",
"+ 9 D n 5 5 5 5 5 5 5 5 5 E F G ",
". } H 6 5 5 5 5 5 5 5 5 ) | I . ",
". % J K L M 5 5 5 5 M N ~ O P . ",
". . % Q R S - ) ) T = ) U P . . ",
". . . . d V W X Y Z ` G . . . . "};
