/* XPM */
static char * row_icon_loop_begin_xpm[] = {
"12 12 51 1",
" 	c None",
".	c #646464",
"+	c #AAABAB",
"@	c #B1B1B1",
"#	c #BDBDBD",
"$	c #CECECE",
"%	c #DBDBD9",
"&	c #DBD9D9",
"*	c #CDCDCE",
"=	c #BCBDBC",
"-	c #B0B0B1",
";	c #AAA9A9",
">	c #BDBDBE",
",	c #D2D4D4",
"'	c #E3E3E5",
")	c #E7E7E8",
"!	c #E2E3E2",
"~	c #D2D2D2",
"{	c #BCBCBC",
"]	c #C9C8C9",
"^	c #E2E0E2",
"/	c #ECECEC",
"(	c #F1F3F3",
"_	c #F1F1F1",
":	c #ECEAEC",
"<	c #E0E0E0",
"[	c #C7C8C8",
"}	c #6C6C6C",
"|	c #E8E9E9",
"1	c #F3F3F3",
"2	c #FCFCFC",
"3	c #FBFAFA",
"4	c #E7E7E7",
"5	c #6B6B6B",
"6	c #E6E6E5",
"7	c #F4F3F3",
"8	c #FDFCFD",
"9	c #FCFCFB",
"0	c #F3F1F1",
"a	c #E5E4E4",
"b	c #707070",
"c	c #EEEEED",
"d	c #EDEDEC",
"e	c #676767",
"f	c #D9D9D8",
"g	c #E6E5E5",
"h	c #D8D7D8",
"i	c #BFBEBF",
"j	c #BFBFBF",
"k	c #B6B6B5",
"l	c #B5B6B6",
"............",
".+@#$%&*=-;.",
" .>,'))!~{. ",
" .]^/(_:<[. ",
"  }|123_4}  ",
"  567890a5  ",
"   bc11db   ",
"   ef6ghe   ",
"    .ij.    ",
"    .kl.    ",
"     ..     ",
"     ..     "};
