/* XPM */
static char * rowcount_font_subbeat_xpm[] = {
"261 13 149 2",
"  	c None",
". 	c #ACACAC",
"+ 	c #000000",
"@ 	c #0A0A0A",
"# 	c #686868",
"$ 	c #747474",
"% 	c #282828",
"& 	c #171717",
"* 	c #707070",
"= 	c #5B5B5B",
"- 	c #1B1B1B",
"; 	c #2F2F2F",
"> 	c #5C5C5C",
", 	c #6F6F6F",
"' 	c #737373",
") 	c #6C6C6C",
"! 	c #565656",
"~ 	c #242424",
"{ 	c #212121",
"] 	c #626262",
"^ 	c #444444",
"/ 	c #4E4E4E",
"( 	c #2C2C2C",
"_ 	c #6D6D6D",
": 	c #323232",
"< 	c #0E0E0E",
"[ 	c #343434",
"} 	c #5E5E5E",
"| 	c #6A6A6A",
"1 	c #525252",
"2 	c #141414",
"3 	c #696969",
"4 	c #616161",
"5 	c #474747",
"6 	c #202020",
"7 	c #505050",
"8 	c #727272",
"9 	c #676767",
"0 	c #454545",
"a 	c #191919",
"b 	c #656565",
"c 	c #4D4D4D",
"d 	c #636363",
"e 	c #3E3E3E",
"f 	c #6E6E6E",
"g 	c #606060",
"h 	c #3B3B3B",
"i 	c #6B6B6B",
"j 	c #383838",
"k 	c #424242",
"l 	c #5A5A5A",
"m 	c #3C3C3C",
"n 	c #646464",
"o 	c #717171",
"p 	c #535353",
"q 	c #404040",
"r 	c #A5A5A5",
"s 	c #AAAAAA",
"t 	c #1D1D1D",
"u 	c #A6A6A6",
"v 	c #8F8F8F",
"w 	c #9F9F9F",
"x 	c #121212",
"y 	c #929292",
"z 	c #A1A1A1",
"A 	c #999999",
"B 	c #909090",
"C 	c #9C9C9C",
"D 	c #8A8A8A",
"E 	c #ABABAB",
"F 	c #979797",
"G 	c #A3A3A3",
"H 	c #969696",
"I 	c #363636",
"J 	c #8E8E8E",
"K 	c #898989",
"L 	c #5F5F5F",
"M 	c #848484",
"N 	c #989898",
"O 	c #9E9E9E",
"P 	c #9D9D9D",
"Q 	c #838383",
"R 	c #666666",
"S 	c #8C8C8C",
"T 	c #575757",
"U 	c #A0A0A0",
"V 	c #949494",
"W 	c #555555",
"X 	c #A8A8A8",
"Y 	c #8B8B8B",
"Z 	c #4B4B4B",
"` 	c #5D5D5D",
" .	c #9B9B9B",
"..	c #797979",
"+.	c #2B2B2B",
"@.	c #7F7F7F",
"#.	c #2E2E2E",
"$.	c #9A9A9A",
"%.	c #7C7C7C",
"&.	c #494949",
"*.	c #878787",
"=.	c #4F4F4F",
"-.	c #2A2A2A",
";.	c #3D3D3D",
">.	c #7D7D7D",
",.	c #A7A7A7",
"'.	c #434343",
").	c #A2A2A2",
"!.	c #1E1E1E",
"~.	c #232323",
"{.	c #4C4C4C",
"].	c #A9A9A9",
"^.	c #7A7A7A",
"/.	c #858585",
"(.	c #919191",
"_.	c #959595",
":.	c #484848",
"<.	c #4A4A4A",
"[.	c #464646",
"}.	c #939393",
"|.	c #313131",
"1.	c #A4A4A4",
"2.	c #3A3A3A",
"3.	c #2D2D2D",
"4.	c #868686",
"5.	c #414141",
"6.	c #767676",
"7.	c #808080",
"8.	c #595959",
"9.	c #303030",
"0.	c #8D8D8D",
"a.	c #7B7B7B",
"b.	c #757575",
"c.	c #545454",
"d.	c #3F3F3F",
"e.	c #828282",
"f.	c #373737",
"g.	c #818181",
"h.	c #353535",
"i.	c #7E7E7E",
"j.	c #888888",
"k.	c #393939",
"l.	c #333333",
"m.	c #272727",
"n.	c #515151",
"o.	c #585858",
"p.	c #787878",
"q.	c #262626",
"r.	c #777777",
". . . . . . . . . . . . . . . . . . . . . . . . . . . . . . . . . . . . . . . . . . . . . . . . . . . . . . . . . . . . . . . . . . . . . . . . . . . . . . . . . . . . . . . . . . . . . . . . . . . . . . . . . . . . . . . . . . . . . . . . . . . . . . . . . . . . . . . . . . . . . . . . . . . . . . . . . . . . . . . . . . . . . . . . . . . . . . . . . . . . . . . . . . . . . . . . . . . . . . . . . . . . . . . . . . . . . . . . . . . . . . . . . . . . . . . . . . . . . . . . . . . . . . . . . . . . . . . . . . . . . ",
". + + + + + + + + + + + + . + + + + + + + + + + + + . + + + + + + + + + + + + . + + + + + + + + + + + + . + + + + + + + + + + + + . + + + + + + + + + + + + . + + + + + + + + + + + + . + + + + + + + + + + + + . + + + + + + + + + + + + . + + + + + + + + + + + + . + + + + + + + + + + + + . + + + + + + + + + + + + . + + + + + + + + + + + + . + + + + + + + + + + + + . + + + + + + + + + + + + . + + + + + + + + + + + + . + + + + + + + + + + + + . + + + + + + + + + + + + . + + + + + + + + + + + + . + + + + + + + + + + + + . ",
". + + + + @ # $ % + + + + . + + & $ $ $ * = - + + + . + + + ; > , ' ) ! ~ + + . + { $ $ $ , ] ^ + + + + . + + % $ $ $ $ * / + + + . + + ( $ $ $ $ _ : + + + . + + < [ } * ' | 1 ~ + + . + + + 2 ^ 3 [ 4 5 + + + . + + + 6 7 _ 8 9 0 @ + + . + + + a 5 $ $ b + + + + . + + + { c ) 8 d e + + + . + + + ~ 1 , ) / 2 + + + . + + + + + + e f g + + + . + + + h i $ $ $ } + + + . + + + + + j 9 3 k + + + . + + & / $ $ $ $ $ l + + . + + + < m n o 9 ^ @ + + . + + + % p f * = : + + + . + + + + + + + + + + + + . + + + + + + + + + + + + . ",
". + + + + q r s 3 + + + + . + + t . u v w w ' + + + . + x / y z A B C w D k + . + ; E r v F G H i @ + + . + + I s G J J K L + + + . + + h E G J J M m + + + . + t ! y w N y O P Q q + . + + + ~ R J ^ S T + + + . + + ~ n P U V U J W + + . + + + t ! V X Y + + + + . + + ~ n C w H U K Z + + . + + t `  .O P B l + + + . + + + + + j ..X Q + + + . + + + T O  .J J o + + + . + + + + +.f z @.#.+ + + . + + - } J J J $.. %.+ + . + + + &.Q O C w *.=.+ + . + + -.) C C $.w %.;.+ + . + + + + + + + + + + + + . + + + + + + + + + + + + . ",
". + + + < >.E ,.C { + + + . + + t E H @ I ,.w + + + . < '.).P ! + + !.i O J ~.. + ; s B + 2 {.F z l + + . + + I ].J + + + + + + + . + + h ].Y + + + + + + + . 2 1 ).V p + @ [ ^.z D +.. + + < m $ /.1 H / - + + . + + q (._.:.- > u Q + + . + + + + + <.O Y + + + + . + + [.B }./ 6 d G >.+ + . + + |._ Q p g 1.^.+ + + . + + + + ~ 9 ,.s Q + + + . + + - b A n + + + + + + . + + + a L O Y <.+ + + + . + + + + + + 2.%.$.# + + . + + + n 1...3.* z , + + . + + W (.4.^ [ ..w i + + . + + + + + + + + + + + + . + + & |.;.'.^ '.5.; 6 + . ",
". + + + 5.r V 6.].| + + + . + + t E H < ;.).J + + + . !.7.u > + + + + @ +.( 2 . + ; s B + + & W ,.*.+ + . + + I ].J + + + + + + + . + + h ].Y + + + + + + + . |.M P 8.+ + + + ~.1 7 9.. + + q H U z $.,.J ` + + . + + [.P J < + 5 w 0.+ + . + + + + + <.O Y + + + + . + + 2.8 # & 2 8.).M + + . + + + + !.Z a.O , + + + . + + + - 8.(.N 1.Q + + + . + + : b. .6.L c.I + + + . + + 2 1 J r /.l d.< + + . + + + + + & g  .e.f.+ + . + + + > $.*.] g.y > + + . + + 4 w ^.a + 9 G $ + + . + + + + + + + + + + + + . + + !.9 Y /.J /.0._ h.+ . ",
"G + + @ a.).R m w V -.+ + G + + t G C @.K ).e.-.+ + 1.~.y C ~ + + + + + + + + 1.+ ; ).S + + + : $.}.+ + 1.+ + h.G $.i.i...5 + + + 1.+ + h ).A i.i.6.t + + + G 2.}.(.~.+ + + + + + + + G + + % 3 J >.>.J T h + + G + + ^ N Y + + [.N K + + G + + + + + &.N j.+ + + + G + + + + + 2 <.*.H 9 + + G + + + + k.^.U C a.f.+ + G + + + 5 /./.3 $.7.+ + + G + + 5.g.U H V F %.'.+ + G + + h ..z  ._.$.e./ + + G + + + + + q i.y 4 + + + G + + ~.d H z P w e.'.+ + G + + T (.*.{.;.^._.b + + G + + + + 9 C  .H # + + + G @ + b F U ).).).z $.o #.1.",
"C + + h A $.g.i.H $.9 + + C + + t  .F Q j.N N b.+ +  .{ j._.j + + + + + + + +  .+ #.$.j.+ + + h.F Y + + C + + [  ._.e.e.>.<.+ + + C + + 2.$.V e.e.^.!.+ + + C I D 0.l.h.M _.V V V V M C + % n g.V K S B * + + + C + + '.(.4.+ + 0 (./.+ + C + + + + + :.y Q + + + + C + + + + a p 0.}.o t + +  .+ + + + < m.1 e.}.) + +  .+ + f.6.K W 1 }.>.+ + +  .+ + a 5.p I h._ _.o + +  .+ + p J Q :.[ f F 8 + + C + + + + 2 g H ^.% + + +  .+ + n.K K > Z %.}.| + + C + + |.8 A F H N ^.[ + + C + + + + / ' ' , =.+ + + C + + 6 } %...@...i.] |.+  .",
"V + < b.y /.e.e.Q v Y m.+ }.+ + t }.*.+ @ [.y Q + + }.& d B 6.3.+ + < h.<.[.& V + 3.y Q + + +.3 B * + + V + + [ y g.+ + + + + + + }.+ + k.y 7.+ + + + + + + V m.| 0., h b * o ^.0.v * }.+ +.3 *.v 4.J D b.+ + + V + + q K Q m.@ :.J @.+ + V + + + + + [.Y @.+ + + + V + + + ( ] Y /.g 2 + + + V + x q R 1 x a = v o + + V + 6 L J ..:.d J @.h x + V + @ 2.l 5 < x 8.J b.+ + V + + 1 D ..{ < = J 8 + + V + + + + '.%.4.o.+ + + + V + + o.S 6.{ x 4 v , + + }.+ + + +.o.^.S @.{.+ + + V + + + + + + + + + + + + V + + x +.[ 2.2.2.f.% - + }.",
"0.+ d.D /.( + + < * Y n + 0.+ + - S 4.o.= f Y i + + 0.+ m.* K p.] l b i.K ) - 0.+ 3.S M 8.g 8 j.%.k.+ + S + + l.S Q o.o.W h + + + S + + j Y %.+ + + + + + + 0.@ [ $ *.b.4 = d p.j.6.j S + + - ! @.'...= + + + + S + + |.8 j.f } $ *.# + + 0.+ + + + + 0 4.a.+ + + + 0.+ + #.3 j.*.o 8.o.Z + + 0.+ @ :.g.e.n ] a.e.W + + S + 3.b Q Q Q 4.Y K o ~.+ 0.+ @ {.g.7.n ] a.Q = + + S + + m $ Q i ] ^.e.8.+ + 0.+ + + { 4 *.* % + + + + 0.+ + '.p.e.| ] a.e.T + + 0.+ + + + h ' 7.8.x + + + 0.+ + + + + + + + + + + + 0.+ + + + + + + + + + + + 0.",
"/.+ * /.n + + + + h M 7.q.4.+ + - /./.Q e.>.d m.+ + 4.+ + ~ 1 $ g.Q g.$ 7 { + 4.+ ( 4.M Q g.a.n [ + + + 4.+ + : /.M e.e.@.` + + + 4.+ + I M p.+ + + + + + + 4.+ @ ( W b.7.e.g.r.l 3.+ 4.+ + m.4 $ q %.[.+ + + + /.+ + x 2.i @.e.>.n -.+ + /.+ + + + + '.g.p.+ + + + /.+ + e ..4./.Q e.e.' + + /.+ + t Z $ g.g.r.p t + + 4.+ x +.2.2.2.l e.r.9.< + 4.+ + t <.8 g.g.p.! 6 + + 4.+ + x d.) @.g.p.! 6 + + /.+ + + 0 p.%.7 + + + + + 4.+ + & ^ , 7.g.r.c.6 + + /.+ + + |.3 @.d !.+ + + + 4.+ + + + + + + + + + + + /.+ + + + + + + + + + + + /.",
"@.+ + + + + + + + + + + + @.+ + + + + + + + + + + + @.+ + + + + + + + + + + + @.+ + + + + + + + + + + + @.+ + + + + + + + + + + + @.+ + + + + + + + + + + + @.+ + + + + + + + + + + + @.+ + + + + + + + + + + + @.+ + + + + + + + + + + + @.+ + + + + + + + + + + + @.+ + + + + + + + + + + + @.+ + + + + + + + + + + + @.+ + + + + + + + + + + + @.+ + + + + + + + + + + + @.+ + + + + + + + + + + + @.+ + + + + + + + + + + + @.+ + + + + + + + + + + + @.+ + + + + + + + + + + + @.+ + + + + + + + + + + + @.+ + + + + + + + + + + + @.",
".........................................................................................................................................................................................................................................................................................................................................................................................................................................................................................................................................."};
