/* XPM */
static char * rowcount_font_xpm[] = {
"337 17 97 2",
"  	c None",
". 	c #FFFFFF",
"+ 	c #FEFEFE",
"@ 	c #FDFDFD",
"# 	c #FCFCFC",
"$ 	c #FBFBFB",
"% 	c #FAFAFA",
"& 	c #F9F9F9",
"* 	c #F7F7F7",
"= 	c #F8F8F8",
"- 	c #F6F6F6",
"; 	c #F5F5F5",
"> 	c #F4F4F4",
", 	c #F3F3F3",
"' 	c #F2F2F2",
") 	c #F1F1F1",
"! 	c #F0F0F0",
"~ 	c #EFEFEF",
"{ 	c #EEEEEE",
"] 	c #EDEDED",
"^ 	c #ECECEC",
"/ 	c #EBEBEB",
"( 	c #EAEAEA",
"_ 	c #E9E9E9",
": 	c #E8E8E8",
"< 	c #E7E7E7",
"[ 	c #E5E5E5",
"} 	c #E6E6E6",
"| 	c #E3E3E3",
"1 	c #E2E2E2",
"2 	c #E1E1E1",
"3 	c #E0E0E0",
"4 	c #DFDFDF",
"5 	c #DEDEDE",
"6 	c #E4E4E4",
"7 	c #DCDCDC",
"8 	c #DBDBDB",
"9 	c #DADADA",
"0 	c #D9D9D9",
"a 	c #D8D8D8",
"b 	c #D7D7D7",
"c 	c #D6D6D6",
"d 	c #DDDDDD",
"e 	c #D4D4D4",
"f 	c #D3D3D3",
"g 	c #D2D2D2",
"h 	c #D1D1D1",
"i 	c #D0D0D0",
"j 	c #CFCFCF",
"k 	c #CECECE",
"l 	c #CACACA",
"m 	c #C9C9C9",
"n 	c #D5D5D5",
"o 	c #CCCCCC",
"p 	c #CBCBCB",
"q 	c #C7C7C7",
"r 	c #C0C0C0",
"s 	c #BFBFBF",
"t 	c #A9A9A9",
"u 	c #A8A8A8",
"v 	c #CDCDCD",
"w 	c #C8C8C8",
"x 	c #C6C6C6",
"y 	c #C3C3C3",
"z 	c #C2C2C2",
"A 	c #C1C1C1",
"B 	c #BEBEBE",
"C 	c #BDBDBD",
"D 	c #9F9F9F",
"E 	c #C5C5C5",
"F 	c #B9B9B9",
"G 	c #B8B8B8",
"H 	c #B7B7B7",
"I 	c #B5B5B5",
"J 	c #949494",
"K 	c #BCBCBC",
"L 	c #B6B6B6",
"M 	c #B3B3B3",
"N 	c #B1B1B1",
"O 	c #B0B0B0",
"P 	c #ADADAD",
"Q 	c #ACACAC",
"R 	c #BBBBBB",
"S 	c #B2B2B2",
"T 	c #AFAFAF",
"U 	c #AAAAAA",
"V 	c #A7A7A7",
"W 	c #A6A6A6",
"X 	c #A3A3A3",
"Y 	c #A2A2A2",
"Z 	c #A1A1A1",
"` 	c #BABABA",
" .	c #AEAEAE",
"..	c #9D9D9D",
"+.	c #9C9C9C",
"@.	c #999999",
"#.	c #979797",
". . . . . . . . . . . . . . . . . . . . . . . . . . . . . . . . . . . . . . . . . . . . . . . . . . . . . . . . . . . . . . . . . . . . . . . . . . . . . . . . . . . . . . . . . . . . . . . . . . . . . . . . . . . . . . . . . . . . . . . . . . . . . . . . . . . . . . . . . . . . . . . . . . . . . . . . . . . . . . . . . . . . . . . . . . . . . . . . . . . . . . . . . . . . . . . . . . . . . . . . . . . . . . . . . . . . . . . . . . . . . . . . . . . . . . . . . . . . . . . . . . . . . . . . . . . . . . . . . . . . . . . . . . . . . . . . . . . . . . . . . . . . . . . . . . . . . . . . . . . . . . . . . . . . . . . . . . . . . . . . . . . . . . . . . . . . . . . . . ",
".                               .                               .                               .                               .                               .                               .                               .                               .                               .                               .                               .                               .                               .                               .                               .                               .                               .                               .                               .                               .                               . ",
".             . . .             .       . . . . . . . .         .           . . . . . . .       .     . . . . . . . .           .       . . . . . . . . .       .       . . . . . . . . .       .           . . . . . . .       .             . .       . .     .           . . . . .           .               . .             .         . . . . . .           .         . . . . . .           .                 . . .         .       . . . . . . . . .       .           + + @ @ @           .       @ @ # # # # # # # #     .         $ $ $ $ % %           .         & & & & &             .           * * * * *           .                               .                               . ",
".             . . .             .       . . . . . . . . .       .       . . . . . . . . . .     .     . . . . . . . . . .       .       . . . . . . . . .       .       . . . . . . . . .       .       . . . . . . . . . .     .           . .       . .       .       . . . . . . . . .       .         . . . . .             .       . . . . . . . .         .       . . . . + + + +         .               @ @ @ @         .       # # # # # # # # #       .       $ $ % % % % % %         .       & & = & = = = = = =     .       * * * * * - - -         .       ; ; ; > > > > >         .       , , ' ' ' ' ' ) )       .                               .                               . ",
".           . . . . .           .       . . .       . . .       .     . . . .           . .     .     . . .         . . . .     .       . . .                   .       . . .                   .     . . . .           . .     .           . .       . . .     .       . . .       . . .       .         + + + + +             .       @ @         @ @ @       .       # #         # # $       .             % % % % %         .       = = = = = = = = =       .       * -         - -         .       ; ; > > > > > , , ,     .     ' ' )         ) ) )       .     ! ! !       ~ { {         .       ] ] ]       ^ ^ /       .                               .                               . ",
".           . . . . .           .       . . .       . . .       .     . . .                     .     . . .           . . .     .       . . .                   .       . . .                   .     . . +                     .         . . . . . . . . . .   .     @ @ @           @ @ @     .             # $ $             .                   & & &       .                   * * *       .           - -   ; - ;         .       > ,                     .     ) ) )                     .                     { ] ]     .     ] ^ ^         / / /       .     ( _ _         : : :       .     < < <           [ [ [     .                               .                               . ",
".         . .     . . .         .       . . .       . .         .   . . .                       .     . . .             . . .   .       + . +                   .       @ @ @                   .   # # #                       .     . . . . . . . . . .       .     % % %           & & &     .             * * *             .                   ; ; ;       .                 , , ,         .         ) )     ! ! !         .       { {                     .     ^ / /   / / / /           .                   : : :       .     } [ } }       [ [         .     | | 1         2 1 2       .     3 3 3           4 5 5     .                               .         6 6 6 6 6 6 6         . ",
".         . .     . . .         .       . . . . . . .           .   . . +                       .     @ @ @             # # #   .       # $ # # # $ $ $         .       % & & & & & & &         .   = = =                       .       . . .       . .         .     - - -           ; ; ;     .             , ' '             .                 ! ! !         .           ] ] ] ]             .       / /       / ( (         .       : : : : : <             .     [ [ [ [ [ [ [ [ 6         .                 2 2 2         .       4 4 4 4 5 5             .     7 8 8         9 9 9       .     0 0 a           b b c     .                               .         d 7 7 d 7 7 7         . ",
".       + +         + + +       .       @ @ @ @ @ @ # #         .   # # $                       .     % % %             & & =   .       = = * * * * * *         .       ; ; ; ; ; ; ; ;         .   , , ,                       .         . .       . .         .     ) ) )           ! ! ~     .             ] ] ]             .             ( ( ( _           .           : < < < <           .     [ [         6 6 6         .       1 2 2 2 2 3 3 3         .     4 5 5 5     d d d d       .               9 9 9           .         a b b b b c           .     e e f e     f f g g       .     h i i           j j k     .           l m m m             .         n n n n n n n         . ",
".       $ $ $ $ $ $ $ $ %       .       & & &       & & &       .   = = *                       .     ; ; ;             ; > >   .       , , ,                   .       ! ! !                   .   ] ] ]             ] ^ ^     .         @ @ @ @ @ # # #       .     / / /           ( ( _     .             } } }             .           6 6 6 |             .                 3 3 3         .     5 5 d d d d 7 d 7 7 7     .               9 9 0 0 0       .     b b b         c n n       .             g g g             .       j j   j j k k k         .       o o p o o o p p p       .     m m m           q q q     .           r s r r             .         t u t t u t t         . ",
".     * * * * * * * - - - -     .       ; ; ;         ; > >     .   , , , ,                     .     ! ! !             ~ ~ {   .       ] ] ]                   .       ( _ (                   .   : : : <           } } [     .   % & & & & & & & & & & &     .     [ [ 6           | | |     .             3 3 3             .         7 7 7                 .                   0 0 a       .     b c c c n n n n n e e     .                   h h h       .     j k k         v v v       .           p p p               .     w q q       q q x x       .         y z z A   z z A       .     r r s           B B C     .                               .         D D D D D D D         . ",
".     , ' '           ) ) )     .       ! ! !         ~ { ~     .     ] ] ]                     .     ( ( (           _ _ :     .       < < <                   .       6 | |                   .     3 3 3           3 4 4     .     ; ; ;       ; ;           .     d d d           7 7 8     .             0 0 a             .       n n n                   .                   i i i       .                 v v v         .                   l m m       .     q q x         x E E       .           z A A               .     s B B         C C C       .                   F F G       .     H H H           I I I     .                               .         J J J J J J J         . ",
".     ] ]             / / /     .       ( ( (       _ : : :     .     < < } } }         [ [     .     6 6 6         | 1 1 1     .       3 3 3                   .       7 8 7                   .     9 9 0 0 0       a a a     .       ! !       ~ ~           .       c n n       e e e       .             i i i             .       v v v v v v v v o       .       l l       m m w w       .                 E E E         .       A A         r r r       .       B C C       K K K       .         F F F                 .     L L I         I M M       .       N N         O O         .       P P P       Q Q Q       .                               .                               . ",
".   } < }               [ [ [   .       | | | | | 1 1 1 1       .       3 3 3 3 3 4 4 4 4 5     .     7 7 7 8 7 8 8 8 8 8       .       0 0 0 a a a a a b       .       e e e                   .       h h h i i i j i j j     .     ( (       _ _             .       v v v v v v o v v       .             m w w             .       E E E E E E y y z       .       r A r r s s s s         .                 K R R         .       F F F G G G G G         .       I I I M M M S S         .         O O T                 .       Q Q Q Q U U U U         .       V V V V V W W W         .       X X Y Y Y Y Y Z Z       .                               .                               . ",
".   3 3 4               5 5 5   .       7 7 8 8 8 8 9           .           a a a a a b         .     n n n e e e e f           .       h i i i i i i j j       .       v v v                   .           m m w m w w w q     .                               .           E E E E y           .             s s B             .       K K K R R R ` ` `       .         G G H H H             .                 S S S         .         T T T  . .            .           U U t U t           .         V W W                 .         Z Z Z Z Z Z           .         ....+.+.+.            .           @.@.@.#.#.          .                               .                               . ",
".                               .                               .                               .                               .                               .                               .                               .                               .                               .                               .                               .                               .                               .                               .                               .                               .                               .                               .                               .                               .                               . ",
". . . . . . . . . . . . . . . . . . . . . . . . . . . . . . . . . . . . . . . . . . . . . . . . . . . . . . . . . . . . . . . . . . . . . . . . . . . . . . . . . . . . . . . . . . . . . . . . . . . . . . . . . . . . . . . . . . . . . . . . . . . . . . . . . . . . . . . . . . . . . . . . . . . . . . . . . . . . . . . . . . . . . . . . . . . . . . . . . . . . . . . . . . . . . . . . . . . . . . . . . . . . . . . . . . . . . . . . . . . . . . . . . . . . . . . . . . . . . . . . . . . . . . . . . . . . . . . . . . . . . . . . . . . . . . . . . . . . . . . . . . . . . . . . . . . . . . . . . . . . . . . . . . . . . . . . . . . . . . . . . . . . . . . . . . . . . . . . . "};
