/* XPM */
static char * track_variables_swing_grabber_xpm[] = {
"16 8 31 1",
" 	c None",
".	c #011E01",
"+	c #DDD9D9",
"@	c #DDD9D8",
"#	c #DDD8D8",
"$	c #DED9D9",
"%	c #DDD8D9",
"&	c #DED9D8",
"*	c #BFBDBD",
"=	c #C0BEBE",
"-	c #C0BDBD",
";	c #BFBEBE",
">	c #C0BEBD",
",	c #A2A2A2",
"'	c #4A4E4B",
")	c #4B4F4A",
"!	c #4A4E4A",
"~	c #545C54",
"{	c #545B54",
"]	c #535C53",
"^	c #545B53",
"/	c #535C54",
"(	c #535B53",
"_	c #545C53",
":	c #535B54",
"<	c #5D695D",
"[	c #5C695C",
"}	c #5D695C",
"|	c #5D685C",
"1	c #5C695D",
"2	c #5C685D",
"............... ",
"+@+#$#$%%++%&%%+",
"*=-=--=-=-**;->>",
",,,,,,,,,,,,,,,,",
"')')'!)')'''!!)!",
"~{]^/^^/^//(~_:~",
"<[}<<|[<}<1<<2|1",
"................"};
