/* XPM */
static char * track_variables_swing_empty_xpm[] = {
"16 43 276 2",
"  	c None",
". 	c #034904",
"+ 	c #43BA43",
"@ 	c #43BA44",
"# 	c #43BB43",
"$ 	c #44BA44",
"% 	c #44BA43",
"& 	c #044804",
"* 	c #044904",
"= 	c #43B943",
"- 	c #115511",
"; 	c #115612",
"> 	c #115611",
", 	c #044A04",
"' 	c #43B842",
") 	c #42B942",
"! 	c #044A05",
"~ 	c #054A05",
"{ 	c #42B842",
"] 	c #125611",
"^ 	c #044B04",
"/ 	c #41B741",
"( 	c #125612",
"_ 	c #063203",
": 	c #082902",
"< 	c #0A1F01",
"[ 	c #0A1C01",
"} 	c #316D31",
"| 	c #41B842",
"1 	c #044B05",
"2 	c #115711",
"3 	c #063303",
"4 	c #092001",
"5 	c #326D31",
"6 	c #42B641",
"7 	c #054B05",
"8 	c #054B06",
"9 	c #41B640",
"0 	c #125712",
"a 	c #125711",
"b 	c #082A02",
"c 	c #0A2001",
"d 	c #316E31",
"e 	c #115712",
"f 	c #40B640",
"g 	c #40B641",
"h 	c #063403",
"i 	c #0A2101",
"j 	c #326E32",
"k 	c #40B540",
"l 	c #054C05",
"m 	c #064C05",
"n 	c #3FB53F",
"o 	c #115811",
"p 	c #063503",
"q 	c #082B03",
"r 	c #092101",
"s 	c #125811",
"t 	c #3FB440",
"u 	c #064C06",
"v 	c #064D06",
"w 	c #40B440",
"x 	c #125812",
"y 	c #115812",
"z 	c #082C03",
"A 	c #092201",
"B 	c #326E31",
"C 	c #054D06",
"D 	c #3FB33F",
"E 	c #063603",
"F 	c #082C02",
"G 	c #092301",
"H 	c #326F32",
"I 	c #125912",
"J 	c #3FB33E",
"K 	c #064E06",
"L 	c #3EB23E",
"M 	c #115912",
"N 	c #063703",
"O 	c #072D02",
"P 	c #326F31",
"Q 	c #125911",
"R 	c #072E03",
"S 	c #092401",
"T 	c #316F32",
"U 	c #074F06",
"V 	c #074F07",
"W 	c #3EB13D",
"X 	c #082401",
"Y 	c #317032",
"Z 	c #3EB13E",
"` 	c #3DB13D",
" .	c #125A12",
"..	c #063803",
"+.	c #072E02",
"@.	c #092502",
"#.	c #115A12",
"$.	c #3DB03D",
"%.	c #3CB03D",
"&.	c #063903",
"*.	c #072F03",
"=.	c #082602",
"-.	c #327032",
";.	c #3CB03C",
">.	c #075007",
",.	c #3DAF3C",
"'.	c #135B12",
").	c #125A13",
"!.	c #073003",
"~.	c #082601",
"{.	c #327132",
"].	c #3CAF3C",
"^.	c #085107",
"/.	c #3BAF3C",
"(.	c #125B12",
"_.	c #053A03",
":.	c #082701",
"<.	c #0A1E01",
"[.	c #3CAE3B",
"}.	c #075008",
"|.	c #085108",
"1.	c #3BAE3C",
"2.	c #053B03",
"3.	c #073103",
"4.	c #082802",
"5.	c #075107",
"6.	c #3BAD3B",
"7.	c #125C12",
"8.	c #125B13",
"9.	c #053B04",
"0.	c #135C13",
"a.	c #075208",
"b.	c #39AB3A",
"c.	c #135C12",
"d.	c #053C04",
"e.	c #327232",
"f.	c #085208",
"g.	c #085308",
"h.	c #39AA39",
"i.	c #125C13",
"j.	c #053C03",
"k.	c #337233",
"l.	c #38AB39",
"m.	c #095308",
"n.	c #38AA38",
"o.	c #135D12",
"p.	c #125D12",
"q.	c #053D04",
"r.	c #095408",
"s.	c #38A838",
"t.	c #053D03",
"u.	c #082A03",
"v.	c #135D13",
"w.	c #37A637",
"x.	c #135E13",
"y.	c #053E03",
"z.	c #072A03",
"A.	c #337433",
"B.	c #37A737",
"C.	c #095509",
"D.	c #0A570A",
"E.	c #35A335",
"F.	c #125F12",
"G.	c #135F13",
"H.	c #053F03",
"I.	c #337532",
"J.	c #35A435",
"K.	c #0B590B",
"L.	c #33A133",
"M.	c #136112",
"N.	c #136113",
"O.	c #054004",
"P.	c #337633",
"Q.	c #136013",
"R.	c #0C5C0C",
"S.	c #319C31",
"T.	c #136313",
"U.	c #136213",
"V.	c #044003",
"W.	c #082D03",
"X.	c #082301",
"Y.	c #347833",
"Z.	c #136314",
"`.	c #146213",
" +	c #309D30",
".+	c #0E600E",
"++	c #2D982C",
"@+	c #136514",
"#+	c #146514",
"$+	c #044004",
"%+	c #092402",
"&+	c #347A34",
"*+	c #2D982D",
"=+	c #0D600D",
"-+	c #0F630F",
";+	c #2A932A",
">+	c #156814",
",+	c #146814",
"'+	c #044103",
")+	c #092501",
"!+	c #347C34",
"~+	c #146815",
"{+	c #106610",
"]+	c #278E26",
"^+	c #156A15",
"/+	c #044204",
"(+	c #053803",
"_+	c #082502",
":+	c #347E34",
"<+	c #278E27",
"[+	c #126912",
"}+	c #248924",
"|+	c #156C16",
"1+	c #156C15",
"2+	c #063002",
"3+	c #358035",
"4+	c #166C15",
"5+	c #126A12",
"6+	c #136C13",
"7+	c #228622",
"8+	c #156E15",
"9+	c #044305",
"0+	c #053903",
"a+	c #348134",
"b+	c #166E15",
"c+	c #156F16",
"d+	c #166F16",
"e+	c #218622",
"f+	c #126C12",
"g+	c #136D14",
"h+	c #208420",
"i+	c #156F15",
"j+	c #166E16",
"k+	c #054304",
"l+	c #063003",
"m+	c #082702",
"n+	c #358135",
"o+	c #146F14",
"p+	c #1F821E",
"q+	c #167016",
"r+	c #044304",
"s+	c #358334",
"t+	c #157016",
"u+	c #1F811E",
"v+	c #157015",
"w+	c #167115",
"x+	c #167116",
"y+	c #1E801E",
"z+	c #157116",
"A+	c #157115",
"B+	c #1E801D",
"C+	c #147014",
"D+	c #1D7F1E",
"E+	c #177217",
"F+	c #177316",
"G+	c #368536",
"H+	c #167217",
"I+	c #1D7F1D",
"J+	c #167216",
"K+	c #1D7E1D",
"L+	c #177317",
"M+	c #177216",
"N+	c #1C7D1C",
"O+	c #1C7E1C",
"P+	c #167316",
"Q+	c #1C7D1B",
"R+	c #1B7C1C",
"S+	c #1C7C1B",
"T+	c #1B7C1B",
"U+	c #1C7C1C",
"V+	c #1B7D1C",
"W+	c #1B7D1B",
"X+	c #177416",
"Y+	c #177417",
"Z+	c #167417",
"`+	c #167416",
". + @ @ + + # @ + @ $ @ % % + & ",
"* = - ; - - > - - - - - - - = & ",
", ' - - ; - > ; > - - - ; - ) ! ",
"~ { > > > > > > > > ] ; > > { ~ ",
"^ / > ( > ( _ : < [ } > > ] | 1 ",
"! / 2 2 2 2 3 : 4 [ 5 > 2 2 6 7 ",
"8 9 0 a 0 a 3 b c [ d e a e f 7 ",
"7 g 2 2 2 2 h b i [ j 2 e 2 k l ",
"m n e o e o p q r [ d 2 s s t u ",
"v w x y x y p z A [ B x x x t v ",
"C D y y y y E F G [ H I x s J v ",
"K L I M I M N O G [ P Q Q x J K ",
"K L I I I I N R S [ T I Q Q L U ",
"V W I Q I Q N R X [ Y I I I Z K ",
"V ` I  .I  ...+.@.[ H I #. .$.V ",
"V %. . . . .&.*.=.[ -. . . .;.V ",
">.,.'.).'.).&.!.~.[ {. . . .].>.",
"^./.(.(.(.(._.!.:.<.{.(.(.(.[.}.",
"|.1.(.(.(.(.2.3.4.<.{.(.(.(.[.5.",
"|.6.7.8.7.8.9._ : <.{.7.0.(.6.|.",
"a.b.7.c.7.c.d._ : < e.c.7.c.b.f.",
"g.h.7.i.7.i.j.3 : c k.c.i.c.l.f.",
"m.n.o.p.o.p.q.3 b c k.7.i.c.h.g.",
"r.s.0.p.0.p.t.h u.i e.v.p.o.s.m.",
"r.w.x.x.x.x.y.p z.r A.x.x.x.B.C.",
"D.E.F.G.F.G.H.p F A I.G.G.G.J.D.",
"K.L.M.N.M.N.O.E z G P.M.Q.N.L.K.",
"R.S.T.U.T.U.V.N W.X.Y.U.Z.`. +R.",
".+++@+#+@+#+$+N +.%+&+#+#+#+*+=+",
"-+;+>+,+>+,+'+N +.)+!+~+~+>+;+-+",
"{+]+^+^+^+^+/+(+*._+:+^+^+^+<+{+",
"[+}+|+1+|+1+/+&.2+=.3+1+4+4+}+5+",
"6+7+8+8+8+8+9+0+2+=.a+b+c+d+e+f+",
"g+h+i+j+i+j+k+_.l+m+n+j+j+d+h+g+",
"o+p+q+q+q+q+r+2.3.:.s+q+q+t+p+o+",
"o+u+v+q+v+q+r+9._ 4.s+w+q+x+y+o+",
"v+y+q+z+q+z+r+j._ : s+A+x+w+B+C+",
"A+D+E+F+E+F+r+d.3 : G+E+H+F+I+z+",
"J+K+L+E+L+E+9+t.3 b G+L+E+M+K+A+",
"J+N+E+L+L+E+L+L+E+L+E+E+E+L+O+J+",
"P+N+L+L+L+L+L+L+L+L+L+L+L+L+N+P+",
"F+Q+N+R+S+R+T+N+U+N+V+Q+W+U+S+F+",
"X+X+P+L+Y+Y+Y+L+Z+Y+X+F+`+Y+F+Z+"};
