/* XPM */
static char * track_delete_xpm[] = {
"24 24 3 1",
" 	c None",
".	c #800C0C",
"+	c #C50C0C",
"                        ",
"                        ",
"                        ",
"                        ",
"     .           .      ",
"    .+.         .+.     ",
"   .+++.       .+++.    ",
"    .+++.     .+++.     ",
"     .+++.   .+++.      ",
"      .+++. .+++.       ",
"       .+++.+++.        ",
"        .+++++.         ",
"         .+++.          ",
"        .+++++.         ",
"       .+++.+++.        ",
"      .+++. .+++.       ",
"     .+++.   .+++.      ",
"    .+++.     .+++.     ",
"   .+++.       .+++.    ",
"    .+.         .+.     ",
"     .           .      ",
"                        ",
"                        ",
"                        "};
