/* XPM */
static char * track_settings_pattern_xpm[] = {
"48 48 127 2",
"  	c None",
". 	c #2DB637",
"+ 	c #021E04",
"@ 	c #9DEAA2",
"# 	c #9CEAA2",
"$ 	c #9DEAA3",
"% 	c #9EEAA2",
"& 	c #9EEAA1",
"* 	c #9EEBA1",
"= 	c #9FEAA1",
"- 	c #A0EAA0",
"; 	c #A1EBA0",
"> 	c #A2EBA0",
", 	c #A5EBA1",
"' 	c #A9EBA3",
") 	c #A9EBA4",
"! 	c #AFEDA6",
"~ 	c #B0ECA6",
"{ 	c #B1ECA7",
"] 	c #B1EDA7",
"^ 	c #B8EDAA",
"/ 	c #BEEEAC",
"( 	c #BFEDAC",
"_ 	c #C5EEB0",
": 	c #C6EFB0",
"< 	c #C6EEB0",
"[ 	c #C7EEB1",
"} 	c #CCEFB3",
"| 	c #CBEFB3",
"1 	c #D2F0B6",
"2 	c #D3EFB6",
"3 	c #D3F0B7",
"4 	c #D4F0B6",
"5 	c #D4F0B7",
"6 	c #D8F0B8",
"7 	c #D8F1B9",
"8 	c #D7F1BA",
"9 	c #DBF1BB",
"0 	c #DBF1BC",
"a 	c #DCF0BB",
"b 	c #DCF1BC",
"c 	c #DEF2BD",
"d 	c #DFF1BD",
"e 	c #DFF1BE",
"f 	c #E1F1BF",
"g 	c #E2F1C0",
"h 	c #E2F2BF",
"i 	c #E5F2C1",
"j 	c #E5F2C2",
"k 	c #E6F3C1",
"l 	c #E9F3C3",
"m 	c #E8F3C4",
"n 	c #E9F3C4",
"o 	c #EBF3C6",
"p 	c #ECF3C6",
"q 	c #EBF3C7",
"r 	c #F1F4CA",
"s 	c #F0F4CB",
"t 	c #F3F4CC",
"u 	c #F4F5CD",
"v 	c #F4F5CE",
"w 	c #F5F4CF",
"x 	c #F6F3D0",
"y 	c #F6F4D1",
"z 	c #F5F3D1",
"A 	c #F6F2D3",
"B 	c #F6F1D4",
"C 	c #F6F2D4",
"D 	c #F6F2D5",
"E 	c #F6F1D6",
"F 	c #F6F1D7",
"G 	c #F7F0D7",
"H 	c #F7F0D6",
"I 	c #F7F1D7",
"J 	c #F7F0DA",
"K 	c #F8F0DA",
"L 	c #F7F0DB",
"M 	c #F8F0DB",
"N 	c #F8F0DD",
"O 	c #F8EFDD",
"P 	c #F8F0DE",
"Q 	c #F8EFDE",
"R 	c #9DEBA1",
"S 	c #9EEBA2",
"T 	c #9FEAA2",
"U 	c #A6EBA2",
"V 	c #A7EBA3",
"W 	c #A6EBA3",
"X 	c #A6ECA2",
"Y 	c #A7EBA2",
"Z 	c #A7ECA3",
"` 	c #A8EBA3",
" .	c #B3EDA7",
"..	c #B3ECA7",
"+.	c #B3EDA8",
"@.	c #B4ECA8",
"#.	c #BEEDAC",
"$.	c #BDEEAC",
"%.	c #BDEDAC",
"&.	c #BFEDAD",
"*.	c #BFEEAD",
"=.	c #C8EFB1",
"-.	c #C9EFB1",
";.	c #C9EEB2",
">.	c #C9EEB1",
",.	c #C9EFB2",
"'.	c #D2EFB6",
").	c #D3F0B6",
"!.	c #DBF0BC",
"~.	c #DCF1BB",
"{.	c #E3F2C0",
"].	c #E3F1C0",
"^.	c #E3F2C1",
"/.	c #E4F2C0",
"(.	c #E4F2C1",
"_.	c #EAF3C5",
":.	c #EBF3C5",
"<.	c #EBF4C6",
"[.	c #F0F4CA",
"}.	c #F1F4CB",
"|.	c #F1F5CA",
"1.	c #F5F4D0",
"2.	c #F6F4D0",
"3.	c #F7F1D5",
"4.	c #F7F2D4",
"5.	c #F6F1D5",
"6.	c #F7F2D5",
"                                                                                                ",
"                                                                                                ",
"                                                                                                ",
"                                                                                                ",
"            . . . . . . . . . . . . . . . . . . . . . . . . . . . . . . . . . . . . .           ",
"          . . + + + + + + + + + + + + + + + + + + + + + + + + + + + + + + + + + + + . .         ",
"          . + + + + + + + + + + + + + + + + + + + + + + + + + + + + + + + + + + + + + .         ",
"          . + + + + + + + + + + + + + + + + + + + + + + + + + + + + + + + + + + + + + .         ",
"          . + + + + + + + + + + @ @ # $ $ @ $ + + + + + + + $ @ @ @ @ $ @ @ + + + + + .         ",
"          . + + + + + + + + @ @ $ @ # @ $ @ @ + + + + + + + @ @ % @ & * & = + + + + + .         ",
"          . + + + + + + + - ; ; > + + + + + , + + + + + + + ' ) + + + + + + + + + + + .         ",
"          . + + + + + + ! ~ { ] + + + + + + + + + + + + + + ^ ^ + + + + + + + + + + + .         ",
"          . + + + + + + / ( ( + + + + + + + + + + + + + + + _ : < : [ + + + + + + + + .         ",
"          . + + + + + + } | } + + + + + + + + + + + + + + + 1 1 2 2 3 4 5 + + + + + + .         ",
"          . + + + + + + 6 7 8 + + + + + + + + 9 0 a b + + + + + + + c d e e + + + + + .         ",
"          . + + + + + + f g h + + + + + + + + i i j k + + + + + + + + l m n + + + + + .         ",
"          . + + + + + + o p o q + + + + + + + + + + + + + + + + + + + r s r + + + + + .         ",
"          . + + + + + + + t t t u + + + + + v + + + + + + + w + + + x y x z + + + + + .         ",
"          . + + + + + + + + A A A A B C C C D + + + + + + + E E F G H F I + + + + + + .         ",
"          . + + + + + + + + + + J J K L M M + + + + + + + + N O N N P Q + + + + + + + .         ",
"          . + + + + + + + + + + + + + + + + + + + + + + + + + + + + + + + + + + + + + .         ",
"          . + + + + + + + + + + + + + + + + + + + + + + + + + + + + + + + + + + + + + .         ",
"          . + + + + + + + + + + + + + + + + + + + + + + + + + + + + + + + + + + + + + .         ",
"          . + + + + + + + + + + + + + + + + + + + + + + + + + + + + + + + + + + + + + .         ",
"          . + + + + + + + + + + + + + + + + + + + + + + + + + + + + + + + + + + + + + .         ",
"          . + + + + + + + + + + + + + + + + + + + + + + + + + + + + + + + + + + + + + .         ",
"          . + + + + + + + + + + + + + + + + + + + + + + + + + + + + + + + + + + + + + .         ",
"          . + + + + + % % % R % % & S % + + + + + + + + + + + S S & & & T & S & + + + .         ",
"          . + + + + + U V U W U W X Y Z W + + + + + + + + + + Y V ` ` ` ` Z V ` + + + .         ",
"          . + + + + +  ... .+ + + + .. .+. .+ + + + + + + + + + + + + + + @.@.@.+ + + .         ",
"          . + + + + + #.$.%.+ + + + + ( ( / #.+ + + + + + + + + + + + + &.*.&.+ + + + .         ",
"          . + + + + + =.-.=.+ + + + + + -.;.>.+ + + + + + + + + + + + -.-.,.+ + + + + .         ",
"          . + + + + + '.1 1 + + + + + + 1 ).'.+ + + + + + + + + + + + ).5 + + + + + + .         ",
"          . + + + + + 9 9 9 + + + + + + 9 a 0 + 9 9 !.b + + + + + + a ~.9 + + + + + + .         ",
"          . + + + + + {.{.].+ + + + + + {.^./.+ (.]././.+ + + + + /././.+ + + + + + + .         ",
"          . + + + + + _._.:.+ + + + + + :.:.o + + + + + + + + + + <.<.:.+ + + + + + + .         ",
"          . + + + + + [.r r + + + + + r }.}.+ + + + + + + + + + |.}.}.+ + + + + + + + .         ",
"          . + + + + + w w w 1.1.w 1.2.w 1.+ + + + + + + + + + + w 2.2.+ + + + + + + + .         ",
"          . + + + + + D D D 3.C 4.4.5.D + + + + + + + + + + + D D 6.5.+ + + + + + + + .         ",
"          . + + + + + + + + + + + + + + + + + + + + + + + + + + + + + + + + + + + + + .         ",
"          . + + + + + + + + + + + + + + + + + + + + + + + + + + + + + + + + + + + + + .         ",
"          . . + + + + + + + + + + + + + + + + + + + + + + + + + + + + + + + + + + + . .         ",
"            . . . . . . . . . . . . . . . . . . . . . . . . . . . . . . . . . . . . .           ",
"                                                                                                ",
"                                                                                                ",
"                                                                                                ",
"                                                                                                ",
"                                                                                                "};
