/* XPM */
static char * view_controls_xpm[] = {
"24 24 76 1",
" 	c None",
".	c #FFFFFF",
"+	c #9B9B9B",
"@	c #9A9A9A",
"#	c #A5A5A5",
"$	c #F62526",
"%	c #F62626",
"&	c #959595",
"*	c #A7A7A7",
"=	c #DCDCDC",
"-	c #89220F",
";	c #88230F",
">	c #88250E",
",	c #87260E",
"'	c #D5BFBF",
")	c #D07822",
"!	c #CF7A22",
"~	c #CF7B22",
"{	c #CD7C22",
"]	c #CD7D22",
"^	c #C94343",
"/	c #6E560D",
"(	c #6D560D",
"_	c #6D570C",
":	c #6D580D",
"<	c #C3C3C3",
"[	c #AEBF20",
"}	c #ADC020",
"|	c #ADBF20",
"1	c #ACBF21",
"2	c #567111",
"3	c #567112",
"4	c #557112",
"5	c #8BC735",
"6	c #8BC835",
"7	c #8BC836",
"8	c #89C936",
"9	c #89C836",
"0	c #41771B",
"a	c #41771C",
"b	c #70CF46",
"c	c #6FCF47",
"d	c #6FCF46",
"e	c #6ECF47",
"f	c #071D03",
"g	c #0C2B13",
"h	c #205F4E",
"i	c #41B2AD",
"j	c #3CA69E",
"k	c #3DA7A0",
"l	c #1D5745",
"m	c #194D39",
"n	c #42B5B1",
"o	c #30887D",
"p	c #31887E",
"q	c #36978E",
"r	c #42B7B1",
"s	c #40B1AB",
"t	c #236858",
"u	c #1D5846",
"v	c #42B4AF",
"w	c #43B8B3",
"x	c #3BA49C",
"y	c #40AEA8",
"z	c #3DA8A0",
"A	c #266F61",
"B	c #113822",
"C	c #246859",
"D	c #3FAEA8",
"E	c #297668",
"F	c #338E83",
"G	c #43B7B3",
"H	c #3FACA6",
"I	c #40AFA9",
"J	c #43B8B4",
"K	c #359389",
"........................",
"........................",
"....+@#@+......$%%%$....",
"...&*===*&.....-;>>,....",
"..+*='===*+....)!~{]....",
"..@='^'===@..../(_::....",
"<<#=='====#<<<<[}|11<<<<",
"..@=======@....23244....",
"..+*=====*+....56789....",
"...&*===*&.....0aaaa....",
"....+@#@+......bcdee....",
"........................",
"<<<<<<<<<<<<<<<<<<<<<<<<",
"........................",
"...ffffffffffffffffff...",
"...fffgffffffffffffff...",
"...fhijklfffffffffffm...",
"...hnopqrstffffffgunv...",
"<<<wmfffgxyzAmBfCDwEf<<<",
"...gffffffhFGHIJvKfff...",
"...ffffffffffggffffff...",
"...ffffffffffffffffff...",
"........................",
"........................"};
