/* XPM */
static char * automation_cursor_xpm[] = {
"21 21 41 1",
" 	c None",
".	c #FAFAFA",
"+	c #F1F2F1",
"@	c #A1A1A1",
"#	c #E7E7E7",
"$	c #EFEFEE",
"%	c #F7F7F6",
"&	c #EAEAEB",
"*	c #9B9B9B",
"=	c #9C9C9B",
"-	c #E2E3E3",
";	c #D8D9D8",
">	c #DDDEDE",
",	c #FFFFFF",
"'	c #F2F2F2",
")	c #FAF9F9",
"!	c #EAEBEB",
"~	c #D3D3D4",
"{	c #CECECE",
"]	c #C8C9C9",
"^	c #C3C4C4",
"/	c #DADBDB",
"(	c #BFBFBF",
"_	c #E2E1E2",
":	c #D3D2D2",
"<	c #BABABA",
"[	c #DADADA",
"}	c #D7D7D7",
"|	c #B4B4B5",
"1	c #D2D2D2",
"2	c #DFDFDF",
"3	c #AFB0AF",
"4	c #D8D8D8",
"5	c #AAABAA",
"6	c #A5A6A5",
"7	c #E8E8E7",
"8	c #F6F6F7",
"9	c #A0A1A0",
"0	c #F0EFEF",
"a	c #DEDFDF",
"b	c #9F9F9F",
"  .+@           #$%  ",
" &*=@           -;>& ",
".-                 -,",
"'-                 >)",
"!-                 ;+",
"--                 ~-",
"--                 {-",
"--                 ]-",
"--                 ^-",
"/-                 (_",
"/-                 (_",
"/-                 (_",
":-                 <[",
":-                 <[",
"}-                 |1",
"2-                 34",
"#-                 52",
"$-                 67",
"8-                 90",
" &--@           ---& ",
"  -a@           -(b  "};
