/* XPM */
static char * icon_panner_xpm[] = {
"48 48 75 1",
" 	c None",
".	c #575E79",
"+	c #65728A",
"@	c #72849A",
"#	c #AFD9E5",
"$	c #87A1B4",
"%	c #C1F2FB",
"&	c #8FADBE",
"*	c #86A0B3",
"=	c #839CAF",
"-	c #8EABBC",
";	c #B0DAE6",
">	c #8CA8BA",
",	c #B7E5EF",
"'	c #6C7C93",
")	c #74869C",
"!	c #8BA7B9",
"~	c #90AEBF",
"{	c #BCEBF5",
"]	c #65728B",
"^	c #B6E4EE",
"/	c #6D7C94",
"(	c #BDECF6",
"_	c #8FACBE",
":	c #5F6A83",
"<	c #B9E7F1",
"[	c #BAE9F3",
"}	c #94B4C4",
"|	c #73859B",
"1	c #6F7F96",
"2	c #5C657F",
"3	c #6F8097",
"4	c #647089",
"5	c #69778F",
"6	c #9DC0CF",
"7	c #585F7A",
"8	c #5E6781",
"9	c #BFF0F9",
"0	c #7D94A8",
"a	c #788DA2",
"b	c #ACD5E1",
"c	c #5A637D",
"d	c #B0DBE7",
"e	c #6B7B92",
"f	c #BEEDF7",
"g	c #ABD3E0",
"h	c #B9E8F2",
"i	c #A1C5D4",
"j	c #BCEBF4",
"k	c #BDEDF6",
"l	c #A3C8D6",
"m	c #636F88",
"n	c #C0F1FA",
"o	c #74879D",
"p	c #75889E",
"q	c #ADD6E2",
"r	c #B2DDE9",
"s	c #7A8FA4",
"t	c #67748C",
"u	c #BBEAF4",
"v	c #A9D1DE",
"w	c #72839A",
"x	c #A8CFDC",
"y	c #798EA3",
"z	c #59617C",
"A	c #59627C",
"B	c #BEEFF8",
"C	c #839CB0",
"D	c #B2DEE9",
"E	c #BFEFF8",
"F	c #6B7A91",
"G	c #B1DBE7",
"H	c #89A4B7",
"I	c #626E87",
"J	c #9EC1D0",
"................................................",
"................................................",
"..............+@................@+..............",
".............+#$................$#+.............",
"............+#%&................&%#+............",
"...........+#%%*................*%%#+...........",
"..........+#%%%=................=%%%#+..........",
".........+#%%%%-................-%%%%#+.........",
"........+;%%%%%>................>%%%%%;+........",
".......+;%%%%%,')..............)',%%%%%;+.......",
"......+;%%%%%,'!%~............~%!',%%%%%;+......",
".....+;%%%%%,'!%%%~..........~%%%!',%%%%%;+.....",
"....+;%%%%%,'!%%%%{]........]{%%%%!',%%%%%;+....",
"...+;%%%%%^/!%%%%(@..........@(%%%%!/^%%%%%;+...",
"..+;%%%%%^/!%%%%%_............_%%%%%!/^%%%%%;+..",
".:;%<%%[^/!%%%%%%}............}%%%%%%!/^[%%<%;:.",
"..|123|45>%%%%%%%67..........76%%%%%%%>54|321|..",
"........8#%%%9%%;+............+;%%9%%%#8........",
".........+#%{@0a+..............+a0@{%#+.........",
"..........+b@......................@b+..........",
"...........c........................c...........",
"................................................",
".....%%%%de.%%%fg3.%%%%h=.%%%%h=.4ijklm.%%%n....",
".....%%op%q...7e%r.%%st%u.%%st%u.v%we%x.%%y.....",
".....%%zA%B.CDE%%n.%%7.%%.%%7.%%.B%%%%9.%%7.....",
".....%%op%q.k%F1%%.%%..%%.%%..%%.x%a7...%%......",
".....%%%%Ge.Hh%%%%.%%..%%.%%..%%.IJh%%%.%%......",
".....%%....c........................c...........",
".....%%...+b@......................@b+..........",
".........+#%{@0a+..............+a0@{%#+.........",
"........8#%%%9%%;+............+;%%9%%%#8........",
"..|123|45>%%%%%%%67..........76%%%%%%%>54|321|..",
".:;%<%%[^/!%%%%%%}............}%%%%%%!/^[%%<%;:.",
"..+;%%%%%^/!%%%%%_............_%%%%%!/^%%%%%;+..",
"...+;%%%%%^/!%%%%(@..........@(%%%%!/^%%%%%;+...",
"....+;%%%%%,'!%%%%{]........]{%%%%!',%%%%%;+....",
".....+;%%%%%,'!%%%~..........~%%%!',%%%%%;+.....",
"......+;%%%%%,'!%~............~%!',%%%%%;+......",
".......+;%%%%%,')..............)',%%%%%;+.......",
"........+;%%%%%>................>%%%%%;+........",
".........+#%%%%-................-%%%%#+.........",
"..........+#%%%=................=%%%#+..........",
"...........+#%%*................*%%#+...........",
"............+#%&................&%#+............",
".............+#$................$#+.............",
"..............+@................@+..............",
"................................................",
"................................................"};
