/* XPM */
static char * icon_edit_xpm[] = {
"16 16 6 1",
" 	c None",
".	c #010C04",
"+	c #DF8F80",
"@	c #FFFFFF",
"#	c #CAA374",
"$	c #FFE8CC",
"                ",
"           ..   ",
"          .++.  ",
"         .++++. ",
"        .@.+++. ",
"       .#$@.+.  ",
"      .#$#$@.   ",
"     .#$#$#.    ",
"    .#$#$#.     ",
"   .#$#$#.      ",
"  .#$#$#.       ",
" .#$#$#.        ",
" ...$#.         ",
" ...#.          ",
" ....           ",
"                "};
