/* XPM */
static char * icon_moog_svf_xpm[] = {
"48 48 268 2",
"  	c None",
". 	c #575E79",
"+ 	c #636F88",
"@ 	c #708198",
"# 	c #778AA0",
"$ 	c #9BBDCC",
"% 	c #768A9F",
"& 	c #89A4B7",
"* 	c #9DC0CF",
"= 	c #BBEAF4",
"- 	c #B4E0EB",
"; 	c #ACD4E1",
"> 	c #A5CBD8",
", 	c #B0DAE6",
"' 	c #8098AC",
") 	c #B9E7F1",
"! 	c #9CBFCE",
"~ 	c #859FB2",
"{ 	c #6D7D94",
"] 	c #68778E",
"^ 	c #68768E",
"/ 	c #68758E",
"( 	c #68758D",
"_ 	c #6C7C93",
": 	c #798EA3",
"< 	c #95B5C5",
"[ 	c #5A637D",
"} 	c #B1DCE8",
"| 	c #88A3B6",
"1 	c #66738B",
"2 	c #66728B",
"3 	c #65738B",
"4 	c #65728B",
"5 	c #65728A",
"6 	c #65718A",
"7 	c #64718A",
"8 	c #647089",
"9 	c #7F96AA",
"0 	c #97B7C7",
"a 	c #9FC2D1",
"b 	c #647189",
"c 	c #636F87",
"d 	c #626F87",
"e 	c #626E87",
"f 	c #626D87",
"g 	c #626D86",
"h 	c #616D86",
"i 	c #626C86",
"j 	c #616C85",
"k 	c #616C86",
"l 	c #606C85",
"m 	c #606B84",
"n 	c #89A4B6",
"o 	c #B3DEEA",
"p 	c #5F6A84",
"q 	c #5F6983",
"r 	c #5E6982",
"s 	c #5F6982",
"t 	c #5E6882",
"u 	c #5E6881",
"v 	c #5E6781",
"w 	c #5D6781",
"x 	c #9CBECE",
"y 	c #99BACA",
"z 	c #5D6680",
"A 	c #5C6680",
"B 	c #5C667F",
"C 	c #5C657F",
"D 	c #5C647E",
"E 	c #5B647E",
"F 	c #5B637E",
"G 	c #5B637D",
"H 	c #5A637E",
"I 	c #5A627D",
"J 	c #B3DFEA",
"K 	c #69788F",
"L 	c #ABD4E1",
"M 	c #9EC2D1",
"N 	c #59627C",
"O 	c #59617C",
"P 	c #59617B",
"Q 	c #59607B",
"R 	c #58607B",
"S 	c #58607A",
"T 	c #585F7A",
"U 	c #575F7A",
"V 	c #575F79",
"W 	c #5B647F",
"X 	c #9EC1D0",
"Y 	c #8BA7B9",
"Z 	c #849DB1",
"` 	c #86A0B3",
" .	c #BCEBF4",
"..	c #90AEBF",
"+.	c #575E78",
"@.	c #8AA6B8",
"#.	c #839CB0",
"$.	c #829AAE",
"%.	c #87A1B4",
"&.	c #A3C8D6",
"*.	c #8CA8BA",
"=.	c #A6CDDA",
"-.	c #B5E1EC",
";.	c #8096AB",
">.	c #7D93A8",
",.	c #7B90A5",
"'.	c #8199AC",
").	c #A6CCDA",
"!.	c #7D93A7",
"~.	c #5D6780",
"{.	c #B5E2ED",
"].	c #8AA5B7",
"^.	c #7F96AB",
"/.	c #7A90A4",
"(.	c #788CA1",
"_.	c #75889E",
":.	c #73859B",
"<.	c #6D7E95",
"[.	c #6B7A92",
"}.	c #B6E2ED",
"|.	c #7A8FA4",
"1.	c #778CA1",
"2.	c #72849B",
"3.	c #778BA1",
"4.	c #B6E3EE",
"5.	c #829AAD",
"6.	c #C1F2FB",
"7.	c #A5CAD8",
"8.	c #B7E4EF",
"9.	c #8199AD",
"0.	c #7D92A7",
"a.	c #72849A",
"b.	c #74879D",
"c.	c #98BACA",
"d.	c #B7E5EF",
"e.	c #7C92A7",
"f.	c #75879E",
"g.	c #BEEFF8",
"h.	c #9FC4D3",
"i.	c #606A84",
"j.	c #B8E5F0",
"k.	c #75889D",
"l.	c #A5CBD9",
"m.	c #A1C6D4",
"n.	c #A1C5D4",
"o.	c #B1DDE8",
"p.	c #7E94A9",
"q.	c #5F6A83",
"r.	c #B9E6F1",
"s.	c #88A3B5",
"t.	c #849DB0",
"u.	c #7F95AA",
"v.	c #7A8EA3",
"w.	c #93B0C2",
"x.	c #8FADBE",
"y.	c #8DAABC",
"z.	c #ACD5E1",
"A.	c #A0C5D3",
"B.	c #88A2B5",
"C.	c #839DB0",
"D.	c #7F95A9",
"E.	c #7C92A6",
"F.	c #798EA4",
"G.	c #778BA0",
"H.	c #BFEFF8",
"I.	c #859EB1",
"J.	c #B9E8F2",
"K.	c #7E95A9",
"L.	c #768AA0",
"M.	c #839CAE",
"N.	c #849EB1",
"O.	c #73859C",
"P.	c #636E87",
"Q.	c #BAE8F2",
"R.	c #87A2B4",
"S.	c #96B5C6",
"T.	c #B9E7F2",
"U.	c #7C93A7",
"V.	c #BBE9F3",
"W.	c #8198AC",
"X.	c #71849A",
"Y.	c #BDEBF5",
"Z.	c #6B7A91",
"`.	c #A2C7D6",
" +	c #839CAF",
".+	c #7C91A6",
"++	c #72839A",
"@+	c #718399",
"#+	c #9FC3D2",
"$+	c #A0C5D4",
"%+	c #5C657E",
"&+	c #71839A",
"*+	c #91B0C1",
"=+	c #BBEBF4",
"-+	c #788BA1",
";+	c #BCEBF5",
">+	c #839BAF",
",+	c #7B91A6",
"'+	c #778A9F",
")+	c #74879C",
"!+	c #76889E",
"~+	c #B1DCE7",
"{+	c #BFF0F9",
"]+	c #5D6681",
"^+	c #5B647D",
"/+	c #BDECF6",
"(+	c #ADD8E3",
"_+	c #BBE9F4",
":+	c #B0DBE6",
"<+	c #BEEEF8",
"[+	c #BDEDF6",
"}+	c #798DA3",
"|+	c #74869C",
"1+	c #C0F1FA",
"2+	c #7D94A8",
"3+	c #697890",
"4+	c #95B4C5",
"5+	c #A6CDDB",
"6+	c #5A627C",
"7+	c #BEEDF7",
"8+	c #7B91A5",
"9+	c #798DA2",
"0+	c #B3DEE9",
"a+	c #B8E6F0",
"b+	c #95B5C6",
"c+	c #7D94A9",
"d+	c #788DA2",
"e+	c #B1DCE9",
"f+	c #A1C5D3",
"g+	c #8098AB",
"h+	c #7E94A8",
"i+	c #8BA6B8",
"j+	c #B8E6F1",
"k+	c #AED7E3",
"l+	c #75899F",
"m+	c #A0C3D2",
"n+	c #A5CDDB",
"o+	c #A4C9D7",
"p+	c #C0F0F9",
"q+	c #839BAE",
"r+	c #76899F",
"s+	c #A2C7D5",
"t+	c #9CBFCF",
"u+	c #8CA9BA",
"v+	c #829BAE",
"w+	c #8097AB",
"x+	c #B7E5F0",
"y+	c #A5CCD9",
"z+	c #73869C",
"A+	c #89A5B8",
"B+	c #92B1C2",
"C+	c #94B3C3",
"D+	c #788CA2",
"E+	c #718299",
"F+	c #6E7E95",
"G+	c #6B7B92",
"H+	c #66748C",
"I+	c #B0DBE7",
"J+	c #AFDAE6",
"K+	c #6E7F95",
"L+	c #69778F",
"M+	c #B7E4EE",
"N+	c #97B7C8",
"O+	c #99BBCB",
"P+	c #6D7C94",
"Q+	c #606B85",
"R+	c #AED7E4",
"S+	c #BAE9F3",
". . . . . . . . . . . . . . . . . . . . . . . . . . . . . . . . . . . . . . . . . . . . . . . . ",
". . . . . . . . . . . . . . . . . . . . . . . . . . . . . . . . . . . . . . . . . . . . . . . . ",
". . . . . . . . . . . . . . . . . . . . . . . . . . . . . . . . . . . . . . . . . . . . . . . . ",
". . . . . . . . . . . . . . . . . . . . . . . . . . . . . . . . . . . . . . . . . . . . . . . . ",
". . . . . . . . . . . . . . . . . . . . . + @ # $ # @ + . . . . . . . . . . . . . . . . . . . . ",
". . . . . . . . . . . . . . . . . % & * = - ; > , > ; - = * & % . . . . . . . . . . . . . . . . ",
". . . . . . . . . . . . . . . ' - ) ! ~ { ] ^ ^ ^ / ( ( _ : < ) - ' . . . . . . . . . . . . . . ",
". . . . . . . . . . . . . [ > } | 1 2 3 4 4 5 5 5 6 6 6 7 8 8 8 9 } > [ . . . . . . . . . . . . ",
". . . . . . . . . . . . . 0 a b + c d e e e e f g h i j k j j l m h a 0 . . . . . . . . . . . . ",
". . . . . . . . . . . . n o @ m m p p p q q q q r s t t t u v w w w ^ o n . . . . . . . . . . . ",
". . . . . . . . . . . . o x y z A z A B B C C C D E E F F G H [ [ I 0 x o . . . . . . . . . . . ",
". . . . . . . . . . . . J K L M t N O P P P Q Q R R S T T T U V W X L K J . . . . . . . . . . . ",
". . . . . . . . . . . . - Y Z `  ...u +.+.+.+.+.+.+.+.+.+.+.u .. .` V + - . . . . . . . . . . . ",
". . . . . . . . . . . . - @.#.$.$.%.= &.*.*.*.*.=.*.*.*.*.&.= %.E +.+.+ - . . . . . . . . . . . ",
". . . . . . . . . . . . -.@.#.$.;.>.,.'.Y Y Y Y ).Y Y Y Y !.~.N . +.+.e -.. . . . . . . . . . . ",
". . . . . . . . . . . . {.].#.$.^.!./.(._.:.@ <.[.] 1 + j t C O . +.+.g {.. . . . . . . . . . . ",
". . . . . . . . . . . . }.].#.$.^.!.|.1._.2.|.3._.:.{ + j t C O . +.+.h }.. . . . . . . . . . . ",
". . . . . . . . . . . . 4.& #.5.9 !.|.1._.2.6.6.6.6.7.+ j t C O . +.+.j 4.. . . . . . . . . . . ",
". . . . . . . . . . . . 8.n #.9.9 0.|.3._.a.3.b.@ c.< + j u D P +.+.+.m 8.. . . . . . . . . . . ",
". . . . . . . . . . . . d.n #.9.9 e.|.3.f.2.) -.-.g.h.+ l u E P +.+.+.i.d.. . . . . . . . . . . ",
". . . . . . . . . . . . j.| #.9.9 e.|.3.k.a.l.m.n.o.p.+ m u E Q +.+.+.q.j.. . . . . . . . . . . ",
". . . . . . . . . . . . r.s.t.9.u.e.v.3.b.a.w.x.y.z.A.c m v E Q +.+.+.t r.. . . . . . . . . . . ",
". . . . . . . . . . . . ) B.C.9.D.E.F.G.b.a.6.6.6.H.I.d m u E Q +.+.+.u ) . . . . . . . . . . . ",
". . . . . . . . . . . . J.B.#.9.K.e.v.G.b.a.L.M.N.O.5 P.m v E Q +.+.+.w J.. . . . . . . . . . . ",
". . . . . . . . . . . . Q.R.#.'.u.E.: # b.a.S.6.6.T.U.e m w F Q +.+.+.z Q.. . . . . . . . . . . ",
". . . . . . . . . . . . V.%.#.W.K.E.: # b.X.Y.n Z.! `.e i.w E R +.+.+.C V.. . . . . . . . . . . ",
". . . . . . . . . . . . = `  +W.K..+: # b.++= y.@+#+$+e m w F R +.+.+.%+= . . . . . . . . . . . ",
". . . . . . . . . . . .  .`  +W.K..+: # b.&+*+=+H.o -+e i.w F R +.+.+.E  .. . . . . . . . . . . ",
". . . . . . . . . . . . ;+` >+' K.,+: '+)+@+!+~+{+a 5 e p ]+F R +.+.+.^+;+. . . . . . . . . . . ",
". . . . . . . . . . . . /+~  +' K.,+: '+)+@+(+_+:+<+..e p z G T +.+.+.I /+. . . . . . . . . . . ",
". . . . . . . . . . . . [+~ >+' K.,+}+% |+@+1+2+3+4+5+e p z [ S +.+.+.6+[+. . . . . . . . . . . ",
". . . . . . . . . . . . 7+~ >+' p.8+9+% |+@+0+~+m.a+b+g q.z [ T +.+.+.O 7+. . . . . . . . . . . ",
". . . . . . . . . . . . g.I.>+' c+8+d+% |+@+d+e+g.f+6 g q A [ T +.+.+.S g.. . . . . . . . . . . ",
". . . . . . . . . . . . H.Z >+g+h+8+d+% n i+*.j+H.k+l+g p A [ T +.+.+.S H.. . . . . . . . . . . ",
". . . . . . . . . . . . {+Z >+g+2+,.d+% m+Y g.0 ' n+o+g q A I U +.+.+.V {+. . . . . . . . . . . ",
". . . . . . . . . . . . p+t.q+g+2+,.d+r+$ s+t+u+K m+ +g q A I U +.+.+.. p+. . . . . . . . . . . ",
". . . . . . . . . . . . 6...v+w+2+,.d+r+ +x+1+6.1+6.y+g q A I V +.+.+._ 6.. . . . . . . . . . . ",
". . . . . . . . . . . . ,+d.x %.2+,.d+r+z+9 *.Y A+| e.i q B N U +.P.x d.,+. . . . . . . . . . . ",
". . . . . . . . . . . . . z B+;+C+p.D+r+O.E+F+G+K H+8 k q A I ++C+;+B+z . . . . . . . . . . . . ",
". . . . . . . . . . . . . . . I Y I+J+x.|.4 K+G+L+H+8 4 |.x.J+I+Y I . . . . . . . . . . . . . . ",
". . . . . . . . . . . . . . . R M+( ++Y ! } 1+) {+) 1+} ! Y ++( M+R . . . . . . . . . . . . . . ",
". . . . . . . . . . . . . . . N+O+. . . . . . v P+v . . . . . . O+N+. . . . . . . . . . . . . . ",
". . . . . . . . . . . . . Q+y R+[ . . . . . . . . . . . . . . . [ R+y Q+. . . . . . . . . . . . ",
". . . . . . . . . . . . J S+C+C . . . . . . . . . . . . . . . . . C C+S+J . . . . . . . . . . . ",
". . . . . . . . . . . . 8 . . . . . . . . . . . . . . . . . . . . . . . 8 . . . . . . . . . . . ",
". . . . . . . . . . . . . . . . . . . . . . . . . . . . . . . . . . . . . . . . . . . . . . . . ",
". . . . . . . . . . . . . . . . . . . . . . . . . . . . . . . . . . . . . . . . . . . . . . . . ",
". . . . . . . . . . . . . . . . . . . . . . . . . . . . . . . . . . . . . . . . . . . . . . . . "};
