/* XPM */
static char * icon_device_enabled_xpm[] = {
"24 24 83 1",
" 	c None",
".	c #199808",
"+	c #83EE74",
"@	c #7FEE70",
"#	c #7CEF6D",
"$	c #78F068",
"%	c #85ED77",
"&	c #81EE72",
"*	c #7EEF6F",
"=	c #7AF06A",
"-	c #76F066",
";	c #72F062",
">	c #6FF15D",
",	c #6CF25A",
"'	c #77EF67",
")	c #76F165",
"!	c #72F161",
"~	c #6EF25C",
"{	c #6AF258",
"]	c #67F254",
"^	c #63F250",
"/	c #7DEE6E",
"(	c #70F25E",
"_	c #68F355",
":	c #64F351",
"<	c #62F44E",
"[	c #5EF44A",
"}	c #5AF545",
"|	c #7BEF6B",
"1	c #75F064",
"2	c #70F15F",
"3	c #66F353",
"4	c #5FF54B",
"5	c #5CF547",
"6	c #59F644",
"7	c #54F53F",
"8	c #51F73B",
"9	c #77F066",
"0	c #73F062",
"a	c #69F256",
"b	c #56F640",
"c	c #53F73D",
"d	c #50F739",
"e	c #4CF735",
"f	c #6DF15B",
"g	c #6AF357",
"h	c #64F450",
"i	c #60F34D",
"j	c #57F642",
"k	c #4EF638",
"l	c #4AF832",
"m	c #47F92F",
"n	c #44F92B",
"o	c #49F931",
"p	c #45F92D",
"q	c #41F929",
"r	c #3DFA24",
"s	c #5DF448",
"t	c #46F72F",
"u	c #3FF927",
"v	c #3DFB23",
"w	c #39FB1F",
"x	c #61F34D",
"y	c #37FB1D",
"z	c #33FB19",
"A	c #58F543",
"B	c #4DF836",
"C	c #43F92B",
"D	c #38FA1E",
"E	c #35FB1B",
"F	c #31FC16",
"G	c #52F53D",
"H	c #48F731",
"I	c #3BFB21",
"J	c #36FA1C",
"K	c #31FD15",
"L	c #2CFE10",
"M	c #2FFD13",
"N	c #2BFD0F",
"O	c #29FE0C",
"P	c #2DFD11",
"Q	c #2AFD0D",
"R	c #26FF09",
"                        ",
"                        ",
"                        ",
"         ......         ",
"       ...+@#$...       ",
"      ..%&*=-;>,..      ",
"     ..+@#')!~{]^..     ",
"    ..&/=-;(,_:<[}..    ",
"    .*|$12~{3^45678.    ",
"   ..|90>,a:<[}bcde..   ",
"   .')2fg3hi5j78klmn.   ",
"   .0>,_:<[}bcdeopqr.   ",
"   .~g3h[s6b8kltnuvw.   ",
"   ._hx[}b7deopqrwyz.   ",
"   ..[5A78BlmCuvDEF..   ",
"    .}bGdeHpqrIJzKL.    ",
"    ..8klmnuvDJKMN..    ",
"     ..opqrIDzMNO..     ",
"      ..uvDEFPQR..      ",
"       ...zMNO...       ",
"         ......         ",
"                        ",
"                        ",
"                        "};
