/* XPM */
static char * pattern_cursor_xpm[] = {
"21 21 63 1",
" 	c None",
".	c #FAFAFA",
"+	c #F1F2F1",
"@	c #EAEAEB",
"#	c #E2E2E2",
"$	c #E2E3E3",
"%	c #DADADB",
"&	c #D2D3D3",
"*	c #D7D7D7",
"=	c #DFE0DF",
"-	c #E7E7E7",
";	c #EFEFEE",
">	c #F7F7F6",
",	c #9B9B9B",
"'	c #9C9C9B",
")	c #A1A1A1",
"!	c #A7A7A7",
"~	c #ABACAC",
"{	c #B1B1B2",
"]	c #B7B7B7",
"^	c #BCBCBD",
"/	c #C1C3C2",
"(	c #C7C8C8",
"_	c #CDCDCD",
":	c #D8D9D8",
"<	c #DDDEDE",
"[	c #FFFFFF",
"}	c #F2F2F2",
"|	c #FAF9F9",
"1	c #EAEBEB",
"2	c #D3D3D4",
"3	c #CECECE",
"4	c #C8C9C9",
"5	c #C3C4C4",
"6	c #DADBDB",
"7	c #BFBFBF",
"8	c #E2E1E2",
"9	c #D3D2D2",
"0	c #BABABA",
"a	c #DADADA",
"b	c #B4B4B5",
"c	c #D2D2D2",
"d	c #DFDFDF",
"e	c #AFB0AF",
"f	c #D8D8D8",
"g	c #AAABAA",
"h	c #A5A6A5",
"i	c #E8E8E7",
"j	c #F6F6F7",
"k	c #A0A1A0",
"l	c #F0EFEF",
"m	c #DEDFDF",
"n	c #D9D9D9",
"o	c #D3D4D4",
"p	c #CECFCF",
"q	c #C9CACA",
"r	c #C4C4C4",
"s	c #B9BABA",
"t	c #B4B5B4",
"u	c #AFAFAF",
"v	c #AAA9AA",
"w	c #A4A5A4",
"x	c #9F9F9F",
"  .+@#$@###%%&*=-;>  ",
" @,')!~{]]]^^/(_&:<@ ",
".$                 $[",
"}$                 <|",
"1$                 :+",
"$$                 2$",
"$$                 3$",
"$$                 4$",
"$$                 5$",
"6$                 78",
"6$                 78",
"6$                 78",
"9$                 0a",
"9$                 0a",
"*$                 bc",
"d$                 ef",
"-$                 gd",
";$                 hi",
"j$                 kl",
" @$$$$$$$$$$$$$$$$$@ ",
"  $mnopqrrr77stuvwx  "};
