/* XPM */
static char * track_move_automation_left_xpm[] = {
"24 24 152 2",
"  	c None",
". 	c #5A300E",
"+ 	c #D1BE86",
"@ 	c #CFBD85",
"# 	c #CEBC83",
"$ 	c #CDBA82",
"% 	c #CCB980",
"& 	c #CBB87F",
"* 	c #C1AD77",
"= 	c #C0AC75",
"- 	c #D3C288",
"; 	c #D2C087",
"> 	c #C9B67F",
", 	c #C8B57D",
"' 	c #C6B27C",
") 	c #C5B17A",
"! 	c #C1AB76",
"~ 	c #C0AA74",
"{ 	c #BEA873",
"] 	c #D1BF86",
"^ 	c #CFBD84",
"/ 	c #CEBC84",
"( 	c #CBB880",
"_ 	c #C9B77F",
": 	c #C8B47D",
"< 	c #C7B37C",
"[ 	c #C4B079",
"} 	c #C2AE78",
"| 	c #C1AC76",
"1 	c #C0AB75",
"2 	c #BEA973",
"3 	c #BDA772",
"4 	c #CAB77F",
"5 	c #C7B37D",
"6 	c #C6B27B",
"7 	c #552D0D",
"8 	c #9D9174",
"9 	c #AC9868",
"0 	c #B39F6C",
"a 	c #BCA671",
"b 	c #C9B67E",
"c 	c #C7B47D",
"d 	c #B8A470",
"e 	c #AE9A6A",
"f 	c #98885C",
"g 	c #050300",
"h 	c #060300",
"i 	c #A89365",
"j 	c #BAA36F",
"k 	c #B8A16D",
"l 	c #B8A571",
"m 	c #AE9B6A",
"n 	c #98885D",
"o 	c #0B0A07",
"p 	c #0A0906",
"q 	c #F2F0EE",
"r 	c #4C280B",
"s 	c #B7A06C",
"t 	c #B59E6B",
"u 	c #C6B17B",
"v 	c #C4AF79",
"w 	c #B9A570",
"x 	c #512B0C",
"y 	c #99885D",
"z 	c #040200",
"A 	c #EDEAE9",
"B 	c #ECEAE9",
"C 	c #F1F0ED",
"D 	c #B49D69",
"E 	c #B49B68",
"F 	c #B19A66",
"G 	c #B9A671",
"H 	c #AE9C6B",
"I 	c #48260B",
"J 	c #988458",
"K 	c #B19966",
"L 	c #B09764",
"M 	c #AE9563",
"N 	c #AC9362",
"O 	c #AB9260",
"P 	c #C2AD77",
"Q 	c #B7A36F",
"R 	c #0E0D09",
"S 	c #F2F1EE",
"T 	c #F1EFED",
"U 	c #968256",
"V 	c #AF9663",
"W 	c #AD9362",
"X 	c #AA915F",
"Y 	c #A88E5D",
"Z 	c #C3AE78",
"` 	c #C0AA75",
" .	c #B4A06D",
"..	c #AA9666",
"+.	c #0B0A06",
"@.	c #0A0806",
"#.	c #F0EFED",
"$.	c #0A0805",
"%.	c #947F55",
"&.	c #AB9261",
"*.	c #AB905F",
"=.	c #BCA571",
"-.	c #BBA46F",
";.	c #AF9A68",
">.	c #917F55",
",.	c #0B0906",
"'.	c #AB9160",
").	c #AA8F5E",
"!.	c #AA9463",
"~.	c #A08A5C",
"{.	c #8D7A51",
"].	c #090805",
"^.	c #A88E5E",
"/.	c #A78D5C",
"(.	c #B69E6A",
"_.	c #B39B68",
":.	c #A68E5E",
"<.	c #9C8558",
"[.	c #88744C",
"}.	c #967F53",
"|.	c #A68B5B",
"1.	c #A58A59",
"2.	c #B29A66",
"3.	c #B09865",
"4.	c #AF9664",
"5.	c #AE9463",
"6.	c #977F52",
"7.	c #957E52",
"8.	c #9C8254",
"9.	c #A38858",
"0.	c #A28656",
"a.	c #A18555",
"b.	c #B19965",
"c.	c #AF9764",
"d.	c #A9905E",
"e.	c #A98E5D",
"f.	c #A78C5B",
"g.	c #A58B5B",
"h.	c #A48959",
"i.	c #A28757",
"j.	c #A08454",
"k.	c #9E8253",
"l.	c #9C8152",
"m.	c #AD9462",
"n.	c #A98F5E",
"o.	c #A48A59",
"p.	c #9C7F51",
"q.	c #9A7E50",
"r.	c #AC9261",
"s.	c #A18556",
"t.	c #A08354",
"u.	c #9D8151",
"                    . .                         ",
"                  . + @ .                       ",
"                  . # $ .         . .           ",
"      . .         . % & . .     . * = .         ",
"    . - ; .   . . & > , ' ) . . ! ~ { .         ",
"    . ] ^ / . ( _ : < ) [ } | 1 2 3 .           ",
"      . $ % 4 , 5 6 . . 7 8 9 0 a .             ",
"        . b c ' . . d e f g h i j k .           ",
"        . < ) . l m n o p q p r s t .           ",
"      . u v w x y o z A B C p r D E F . . .     ",
"  . . . G H I o p A C C B B p J . K L M N O .   ",
". ) v P Q R g S C B C B T B p U . V W O X Y .   ",
". Z | `  ...I +.@.A B #.#.B $.%.. &.*.. . .     ",
"  . . . =.-.;.x >.,.z A B #.$.r '.).Y .         ",
"        . k s . !.~.{.p ].C $.r ^./..           ",
"        . (.D _.. . :.<.[.g h }.|.1..           ",
"          . 2.3.4.5.. . 7 6.7.8.9.0.a..         ",
"        . b.c.M W O d.e.f.g.h.i.. j.k.l..       ",
"      . c.V m.. . n./.g.o.9.. .   . p.q..       ",
"      . m.r..     . . 9.i..         . .         ",
"        . .         . s.t..                     ",
"                    . k.u..                     ",
"                      . .                       ",
"                                                "};
