/* XPM */
static char * pattern_modify_xpm[] = {
"24 24 37 1",
" 	c None",
".	c #000000",
"+	c #000014",
"@	c #1E1EBB",
"#	c #2B2BCC",
"$	c #010136",
"%	c #1515A8",
"&	c #6464ED",
"*	c #7C7CF4",
"=	c #A4A4FA",
"-	c #040461",
";	c #05056B",
">	c #09097F",
",	c #000025",
"'	c #000023",
")	c #FFFFFF",
"!	c #5D5DEB",
"~	c #8888F6",
"{	c #1212A2",
"]	c #7676F2",
"^	c #070770",
"/	c #000017",
"(	c #5A5AEA",
"_	c #030357",
":	c #000016",
"<	c #010142",
"[	c #000027",
"}	c #2A2ACB",
"|	c #3434D3",
"1	c #10109B",
"2	c #11119D",
"3	c #3A3AD9",
"4	c #4242DE",
"5	c #00002E",
"6	c #02024B",
"7	c #00002A",
"8	c #020245",
"........................",
".++++++++++++++++++++++.",
".+@#####$+++%&&&&&%++++.",
".+*=====-+++#===.=#++++.",
".+;>>>>>,+++'$$.).'++++.",
".+++++++++++++.).).++++.",
".+!~~~~~-+++{...).).+++.",
".+]=====^+++..)..).).++.",
".+//////+++..).)..).).+.",
".+++++++++..).)))..).++.",
".++++++++..).))).)..+++.",
".+++++++..).))).)..++++.",
".+{####..).))).)..%++++.",
".+(===..).))).)..=@++++.",
".+_>>..).))).)..//:++++.",
".+++..).))).)..++++++++.",
".++..).))).)..<<<<[++++.",
".+}...).).)..=====#++++.",
".+|.)..).)..{((((({++++.",
".++.))..)..++++++++++++.",
".+1..))...++233333^++++.",
".+|......+++4=====@++++.",
".+5666667+++8^^^^^$++++.",
"........................"};
