/* XPM */
static char * bottom__information_label_bottom_xpm[] = {
"33 9 52 1",
" 	c None",
".	c #000000",
"+	c #242430",
"@	c #242330",
"#	c #24242F",
"$	c #252430",
"%	c #252330",
"&	c #22212D",
"*	c #22212C",
"=	c #23212C",
"-	c #22222D",
";	c #23222D",
">	c #23212D",
",	c #23222C",
"'	c #22222C",
")	c #201F2A",
"!	c #211F29",
"~	c #201F29",
"{	c #211F2A",
"]	c #202029",
"^	c #1E1C26",
"/	c #1E1D27",
"(	c #1F1D26",
"_	c #1E1C27",
":	c #1E1D26",
"<	c #1F1C26",
"[	c #1F1C27",
"}	c #9FA9B1",
"|	c #A0A8B0",
"1	c #A0A9B1",
"2	c #9CA5AE",
"3	c #9DA5AE",
"4	c #9CA5AD",
"5	c #9BA5AE",
"6	c #9CA4AE",
"7	c #9BA4AE",
"8	c #9BA5AD",
"9	c #353844",
"0	c #363844",
"a	c #363744",
"b	c #353743",
"c	c #353744",
"d	c #32343F",
"e	c #33333F",
"f	c #32343E",
"g	c #32333F",
"h	c #33343F",
"i	c #2F303A",
"j	c #2E303A",
"k	c #2E3039",
"l	c #2F313A",
"m	c #2F3039",
".................................",
"++@#$%$@++$%++##+$++$+$++#+$#$$#+",
"&&*&*&*==--&&;&->***;*&-&&,-';'*;",
"))!!~~)))~{{!)~)~~{~~)!{!~{~]~))~",
"^/(_::(:/:</</:^((^:(^^:[/^::/(^^",
"}|1222232222422256545562555762258",
"90a0990aa9ab0ca9c90aa9ab0ca9ca9ab",
"dddedfghgfhdfdedhfghgfhdfdedhgfhd",
"iijiiiiiikliiiikmiiiikliiiikmikli"};
