/* XPM */
static char * delayline__bottom_xpm[] = {
"380 9 116 2",
"  	c None",
". 	c #657085",
"+ 	c #000000",
"@ 	c #111216",
"# 	c #020303",
"$ 	c #191C21",
"% 	c #566072",
"& 	c #636E82",
"* 	c #657084",
"= 	c #0B0C0E",
"- 	c #424956",
"; 	c #313640",
"> 	c #16191D",
", 	c #646F83",
"' 	c #656F84",
") 	c #5D677A",
"! 	c #22252C",
"~ 	c #040506",
"{ 	c #050506",
"] 	c #262A32",
"^ 	c #616B7F",
"/ 	c #21252C",
"( 	c #010101",
"_ 	c #5C6579",
": 	c #2E323C",
"< 	c #51596A",
"[ 	c #0E0F12",
"} 	c #1E2127",
"| 	c #020203",
"1 	c #1B1E23",
"2 	c #5F687C",
"3 	c #505768",
"4 	c #010202",
"5 	c #030304",
"6 	c #1A1C22",
"7 	c #586173",
"8 	c #23262E",
"9 	c #0D0E11",
"0 	c #505869",
"a 	c #0F1114",
"b 	c #5D6679",
"c 	c #101216",
"d 	c #21252B",
"e 	c #040405",
"f 	c #323842",
"g 	c #2D323B",
"h 	c #2D323C",
"i 	c #454C5A",
"j 	c #3C424E",
"k 	c #0C0E10",
"l 	c #101115",
"m 	c #30353F",
"n 	c #242830",
"o 	c #2E333D",
"p 	c #525B6C",
"q 	c #383E49",
"r 	c #3A414D",
"s 	c #23272E",
"t 	c #282C34",
"u 	c #1D2127",
"v 	c #5C6678",
"w 	c #4A5261",
"x 	c #0C0D0F",
"y 	c #626D80",
"z 	c #646E83",
"A 	c #14161A",
"B 	c #070709",
"C 	c #1B1D23",
"D 	c #505868",
"E 	c #343944",
"F 	c #0A0C0E",
"G 	c #5E677B",
"H 	c #15171C",
"I 	c #414755",
"J 	c #090A0C",
"K 	c #121418",
"L 	c #08090B",
"M 	c #636D82",
"N 	c #626C80",
"O 	c #111317",
"P 	c #414855",
"Q 	c #0C0D10",
"R 	c #495060",
"S 	c #4D5465",
"T 	c #010102",
"U 	c #576073",
"V 	c #404754",
"W 	c #464D5C",
"X 	c #4B5363",
"Y 	c #5C6679",
"Z 	c #656E83",
"` 	c #24272F",
" .	c #2A2E37",
"..	c #3F4552",
"+.	c #30343E",
"@.	c #0D0E10",
"#.	c #4C5363",
"$.	c #181A1F",
"%.	c #252830",
"&.	c #2F333D",
"*.	c #07080A",
"=.	c #5E667A",
"-.	c #656F83",
";.	c #5F697C",
">.	c #282B33",
",.	c #0B0D0F",
"'.	c #262931",
").	c #646E82",
"!.	c #0F1013",
"~.	c #23262D",
"{.	c #1A1D22",
"].	c #5F687B",
"^.	c #404653",
"/.	c #070809",
"(.	c #323741",
"_.	c #586172",
". . . . . . . . . . . . . . . . . . . . . . . + @ . . . . . . . . . . . . . . . . . . . . . + @ . . . . . . . . . . . . . . . . . . . . . . . . . . . . . . . . . . . . . . . . . . . . . . . . . . . . . . . . . . . . . . . . . . . . . . + @ . . . . . . . . . . . . . . . . . . . . . + @ . . . . . . . . . . . . . . . . . . . . . . . . . . . . . . . . . . . . . . . . . . . . . . . . . . . . . . . . . . . . . . . . . . . . . . + @ . . . . . . . . . . . . . . . . . . . . . + @ . . . . . . . . . . . . . . . . . . . . . . . . . . . . . . . . . . . . . . . . . . . . . . . . . . . . . . . . . . . . . . . . . . . . . . + @ . . . . . . . . . . . . . . . . . . . . . + @ . . . . . . . . . . . . . . . . . . . + @ . . . . + + + # $ % . + + + + + & . . . . . . . . . ",
"* * * * * * * * * * * * * * * * * * * * * * * + @ * * * * * * * * * * * * * * * * * * * * * + @ * * * * * * * * * * * * * * * * * * * * * * * * * * * * * * * * * * * * * * * * * * * * * * * * * * * * * * * * * * * * * * * * * * * * * * + @ * * * * * * * * * * * * * * * * * * * * * + @ * * * * * * * * * * * * * * * * * * * * * * * * * * * * * * * * * * * * * * * * * * * * * * * * * * * * * * * * * * * * * * * * * * * * * * + @ * * * * * * * * * * * * * * * * * * * * * + @ * * * * * * * * * * * * * * * * * * * * * * * * * * * * * * * * * * * * * * * * * * * * * * * * * * * * * * * * * * * * * * * * * * * * * * + @ * * * * * * * * * * * * * * * * * * * * * + @ * * * * * * * * * * * * * * * * * * * + @ * * * * + = - ; + > * + = - - - , * * * * * * * * * ",
"' ' ' ' ' ' ' ' ' ' ' ' ' ' ' ' ' ' ' ' ' ' ' + @ ' ) ! ~ { ] ^ / ( _ ' : + < ) ! ~ { ] ^ ' + @ ' ' ' ' ' ' ' ' ' ' ' ' ' ' ' ' ' + [ } | 1 2 3 [ 4 5 6 7 ' ' + [ 8 5 9 0 ' ' ' ' ' ' ' ' ' ' ' ' ' ' ' ' ' ' ' ' ' ' ' ' ' ' ' ' ' ' ' ' ' + @ ' ) ! ~ { ] ^ / ( _ ' : + < ) ! ~ { ] ^ ' + @ ' ' ' ' ' ' ' ' ' ' ' ' ' ' ' ' ' + [ } | 1 2 3 [ 4 5 6 7 ' ' + [ 8 5 9 0 ' ' ' ' ' ' ' ' ' ' ' ' ' ' ' ' ' ' ' ' ' ' ' ' ' ' ' ' ' ' ' ' ' + @ ' ) ! ~ { ] ^ / ( _ ' : + < ) ! ~ { ] ^ ' + @ ' ' ' ' ' ' ' ' ' ' ' ' ' ' ' ' ' + [ } | 1 2 3 [ 4 5 6 7 ' ' + [ 8 5 9 0 ' ' ' ' ' ' ' ' ' ' ' ' ' ' ' ' ' ' ' ' ' ' ' ' ' ' ' ' ' ' ' ' ' + @ ' ) ! ~ { ] ^ / ( _ ' : + < ) ! ~ { ] ^ ' + @ ' ' ' ' ' ' ' ' ' ' ' ' ' ' ' ' ' ' ' + @ ' ' ' ' + @ ' ' 9 4 ' + a b b b ' ' ' ' ' ' ' ' ' ' ",
", , , , , , , , , , , , , , , , , , , , , , , + c , d e f g + h i + j , k l , d e f g + h , + c , , , , , , , , , , , , , , , , , + + m n + o p q r g + s , , + + t m + u , , , , , , , , , , , , , , , , , , , , , , , , , , , , , , , , , + c , d e f g + h i + j , k l , d e f g + h , + c , , , , , , , , , , , , , , , , , + + m n + o p q r g + s , , + + t m + u , , , , , , , , , , , , , , , , , , , , , , , , , , , , , , , , , + c , d e f g + h i + j , k l , d e f g + h , + c , , , , , , , , , , , , , , , , , + + m n + o p q r g + s , , + + t m + u , , , , , , , , , , , , , , , , , , , , , , , , , , , , , , , , , + c , d e f g + h i + j , k l , d e f g + h , + c , , , , , , , , , , , , , , , , , , , + c , , , , + a v w | x , + + + + + y , , , , , , , , , ",
"z z z z z z z z z z z z z z z z z z z z z z z + c z e + + + + A ^ B C D + E z e + + + + A z + c z z z z z z z z z z z z z z z z z + F z G + H I J + + + K z z + L M N + O z z z z z z z z z z z z z z z z z z z z z z z z z z z z z z z z z + c z e + + + + A ^ B C D + E z e + + + + A z + c z z z z z z z z z z z z z z z z z + F z G + H I J + + + K z z + L M N + O z z z z z z z z z z z z z z z z z z z z z z z z z z z z z z z z z + c z e + + + + A ^ B C D + E z e + + + + A z + c z z z z z z z z z z z z z z z z z + F z G + H I J + + + K z z + L M N + O z z z z z z z z z z z z z z z z z z z z z z z z z z z z z z z z z + c z e + + + + A ^ B C D + E z e + + + + A z + c z z z z z z z z z z z z z z z z z z z + c z z z z + + + + # P z + Q R R R M z z z z z z z z z ",
"z z z z z z z z z z z z z z z z z z z z z z z + c z { = R R R S z t T t + U z { = R R R S z + c z z z z z z z z z z z z z z z z z + F z ) + H B ~ V W + c z z + c z z + c z z z z z z z z z z z z z z z z z z z z z z z z z z z z z z z z z + c z { = R R R S z t T t + U z { = R R R S z + c z z z z z z z z z z z z z z z z z + F z ) + H B ~ V W + c z z + c z z + c z z z z z z z z z z z z z z z z z z z z z z z z z z z z z z z z z + c z { = R R R S z t T t + U z { = R R R S z + c z z z z z z z z z z z z z z z z z + F z ) + H B ~ V W + c z z + c z z + c z z z z z z z z z z z z z z z z z z z z z z z z z z z z z z z z z + c z { = R R R S z t T t + U z { = R R R S z + c z z z z z z z z z z z z z z z z z z z + c z z z z + Q R X Y z z + c z z z z z z z z z z z z z ",
"Z Z Z Z Z Z Z Z Z Z Z Z Z Z Z Z Z Z Z Z Z Z Z + @ Z ` +  ...+.@.Z #.+ + $.Z Z ` +  ...+.@.Z + @ Z Z Z Z Z Z Z Z Z Z Z Z Z Z Z Z Z + + +.%.+ &.B e j 8 + @ Z Z + @ Z Z + @ Z Z Z Z Z Z Z Z Z Z Z Z Z Z Z Z Z Z Z Z Z Z Z Z Z Z Z Z Z Z Z Z Z + @ Z ` +  ...+.@.Z #.+ + $.Z Z ` +  ...+.@.Z + @ Z Z Z Z Z Z Z Z Z Z Z Z Z Z Z Z Z + + +.%.+ &.B e j 8 + @ Z Z + @ Z Z + @ Z Z Z Z Z Z Z Z Z Z Z Z Z Z Z Z Z Z Z Z Z Z Z Z Z Z Z Z Z Z Z Z Z + @ Z ` +  ...+.@.Z #.+ + $.Z Z ` +  ...+.@.Z + @ Z Z Z Z Z Z Z Z Z Z Z Z Z Z Z Z Z + + +.%.+ &.B e j 8 + @ Z Z + @ Z Z + @ Z Z Z Z Z Z Z Z Z Z Z Z Z Z Z Z Z Z Z Z Z Z Z Z Z Z Z Z Z Z Z Z Z + @ Z ` +  ...+.@.Z #.+ + $.Z Z ` +  ...+.@.Z + @ Z Z Z Z Z Z Z Z Z Z Z Z Z Z Z Z Z Z Z + *.&.&.&.=.+ @ Z Z Z Z Z + @ Z Z Z Z Z Z Z Z Z Z Z Z Z ",
"-.-.-.-.-.-.-.-.-.-.-.-.-.-.-.-.-.-.-.-.-.-.-.+ @ -.;.>.*.( ,.'.-.).x + j -.-.;.>.*.( ,.'.-.+ @ -.-.-.-.-.-.-.-.-.-.-.-.-.-.-.-.-.+ !.~.# {.].^./.{ (.+ @ -.-.+ @ -.-.+ @ -.-.-.-.-.-.-.-.-.-.-.-.-.-.-.-.-.-.-.-.-.-.-.-.-.-.-.-.-.-.-.-.-.+ @ -.;.>.*.( ,.'.-.).x + j -.-.;.>.*.( ,.'.-.+ @ -.-.-.-.-.-.-.-.-.-.-.-.-.-.-.-.-.+ !.~.# {.].^./.{ (.+ @ -.-.+ @ -.-.+ @ -.-.-.-.-.-.-.-.-.-.-.-.-.-.-.-.-.-.-.-.-.-.-.-.-.-.-.-.-.-.-.-.-.+ @ -.;.>.*.( ,.'.-.).x + j -.-.;.>.*.( ,.'.-.+ @ -.-.-.-.-.-.-.-.-.-.-.-.-.-.-.-.-.+ !.~.# {.].^./.{ (.+ @ -.-.+ @ -.-.+ @ -.-.-.-.-.-.-.-.-.-.-.-.-.-.-.-.-.-.-.-.-.-.-.-.-.-.-.-.-.-.-.-.-.+ @ -.;.>.*.( ,.'.-.).x + j -.-.;.>.*.( ,.'.-.+ @ -.-.-.-.-.-.-.-.-.-.-.-.-.-.-.-.-.-.-.+ + + + + _.+ @ -.-.-.-.-.+ @ -.-.-.-.-.-.-.-.-.-.-.-.-.",
"-.-.-.-.-.-.-.-.-.-.-.-.-.-.-.-.-.-.-.-.-.-.-.-.-.-.-.-.-.-.-.-.-.-.-.-.-.-.-.-.-.-.-.-.-.-.-.-.-.-.-.-.-.-.-.-.-.-.-.-.-.-.-.-.-.+ @ -.-.-.-.-.-.-.-.-.-.-.-.-.-.-.-.-.-.-.-.-.-.-.-.-.-.-.-.-.-.-.-.-.-.-.-.-.-.-.-.-.-.-.-.-.-.-.-.-.-.-.-.-.-.-.-.-.-.-.-.-.-.-.-.-.-.-.-.-.-.-.-.-.-.-.-.-.-.-.-.-.-.-.-.-.-.-.-.-.-.-.-.-.+ @ -.-.-.-.-.-.-.-.-.-.-.-.-.-.-.-.-.-.-.-.-.-.-.-.-.-.-.-.-.-.-.-.-.-.-.-.-.-.-.-.-.-.-.-.-.-.-.-.-.-.-.-.-.-.-.-.-.-.-.-.-.-.-.-.-.-.-.-.-.-.-.-.-.-.-.-.-.-.-.-.-.-.-.-.-.-.-.-.-.-.-.-.-.+ @ -.-.-.-.-.-.-.-.-.-.-.-.-.-.-.-.-.-.-.-.-.-.-.-.-.-.-.-.-.-.-.-.-.-.-.-.-.-.-.-.-.-.-.-.-.-.-.-.-.-.-.-.-.-.-.-.-.-.-.-.-.-.-.-.-.-.-.-.-.-.-.-.-.-.-.-.-.-.-.-.-.-.-.-.-.-.-.-.-.-.-.-.-.-.-.-.-.-.-.-.-.-.-.-.-.-.-.-.-.-.-.-.-.-.-.-.-.-.-.-.-.-.-."};
