/* XPM */
static char * delayline__quadpan_top_xpm[] = {
"39 12 13 1",
" 	c None",
".	c #768296",
"+	c #768195",
"@	c #758195",
"#	c #758095",
"$	c #758094",
"%	c #748094",
"&	c #747F93",
"*	c #737F93",
"=	c #737F92",
"-	c #737E92",
";	c #727E92",
">	c #727E91",
"...........................++++++++++++",
"...........................@@@@@@@@@@@@",
"+++++++++++++++++++++++++++############",
"@@@@@@@@@@@@@@@@@@@@@@@@@@@$$$$$$$$$$$$",
"###########################%%%%%%%%%%%%",
"$$$$$$$$$$$$$$$$$$$$$$$$$$$&&&&&&&&&&&&",
"%%%%%%%%%%%%%%%%%%%%%%%%%%%&&&&&&&&&&&&",
"&&&&&&&&&&&&&&&&&&&&&&&&&&&************",
"&&&&&&&&&&&&&&&&&&&&&&&&&&&============",
"***************************------------",
"===========================;;;;;;;;;;;;",
"--------------------------->>>>>>>>>>>>"};
