/* XPM */
static char * delayline__label_tap1_xpm[] = {
"56 37 127 2",
"  	c None",
". 	c #7D8A9F",
"+ 	c #818EA2",
"@ 	c #8593A8",
"# 	c #8693A8",
"$ 	c #8794A9",
"% 	c #8795AA",
"& 	c #C9D0D9",
"* 	c #C4CBD5",
"= 	c #B8C0CD",
"- 	c #8896AB",
"; 	c #9AA6B7",
"> 	c #8694A9",
", 	c #C9CFD8",
"' 	c #C4CAD5",
") 	c #BDC5D0",
"! 	c #C8CED8",
"~ 	c #A0ABBB",
"{ 	c #C4CAD4",
"] 	c #B3BBC8",
"^ 	c #C2C9D3",
"/ 	c #8895AA",
"( 	c #C8CFD8",
"_ 	c #C3CAD4",
": 	c #8F9BAF",
"< 	c #C7CDD7",
"[ 	c #A6B0BF",
"} 	c #B5BECA",
"| 	c #8592A7",
"1 	c #C3C9D4",
"2 	c #ACB5C3",
"3 	c #C5CBD5",
"4 	c #8B97AB",
"5 	c #B5BDCA",
"6 	c #8492A7",
"7 	c #8997AB",
"8 	c #ADB6C4",
"9 	c #8491A6",
"0 	c #C8CED7",
"a 	c #C3C9D3",
"b 	c #A4ADBD",
"c 	c #C7CDD6",
"d 	c #8391A6",
"e 	c #8593A7",
"f 	c #C0C7D1",
"g 	c #8390A6",
"h 	c #C8CDD7",
"i 	c #9CA7B8",
"j 	c #8491A7",
"k 	c #8290A5",
"l 	c #BAC2CD",
"m 	c #818FA4",
"n 	c #818EA4",
"o 	c #FFFFFF",
"p 	c #949FB1",
"q 	c #FEFEFE",
"r 	c #F6F7F8",
"s 	c #DCDFE6",
"t 	c #A1AABB",
"u 	c #CFD4DC",
"v 	c #E9EBEF",
"w 	c #808EA3",
"x 	c #E3E6EB",
"y 	c #C6CCD5",
"z 	c #F3F4F6",
"A 	c #8290A4",
"B 	c #E7E9ED",
"C 	c #FCFCFD",
"D 	c #FDFDFD",
"E 	c #9EA9B9",
"F 	c #F5F6F8",
"G 	c #D5DAE1",
"H 	c #F5F6F7",
"I 	c #A9B2C0",
"J 	c #99A4B5",
"K 	c #CDD2DA",
"L 	c #8E9AAD",
"M 	c #808DA3",
"N 	c #D5D9E1",
"O 	c #ABB4C2",
"P 	c #EAECEF",
"Q 	c #DCDFE5",
"R 	c #97A2B4",
"S 	c #CDD2DB",
"T 	c #7F8DA2",
"U 	c #D5D9E0",
"V 	c #DDE1E6",
"W 	c #E7EAEE",
"X 	c #B8BFCB",
"Y 	c #8F9BAD",
"Z 	c #E3E6EA",
"` 	c #E6E9ED",
" .	c #FDFEFE",
"..	c #A0AABA",
"+.	c #7E8CA1",
"@.	c #919DAF",
"#.	c #B6BECA",
"$.	c #8996A9",
"%.	c #C1C8D2",
"&.	c #F7F8F9",
"*.	c #DEE2E7",
"=.	c #A3ADBC",
"-.	c #7F8CA2",
";.	c #F8F9FA",
">.	c #F2F3F5",
",.	c #818DA3",
"'.	c #808EA2",
").	c #F3F5F6",
"!.	c #A6B0BE",
"~.	c #A8B1BF",
"{.	c #ACB5C2",
"].	c #818FA3",
"^.	c #DADEE4",
"/.	c #EDEFF2",
"(.	c #F9FAFA",
"_.	c #DBDFE5",
":.	c #FAFAFB",
"<.	c #8491A5",
"[.	c #D0D5DD",
"}.	c #8D99AC",
"|.	c #7D8BA1",
"1.	c #7D8BA0",
"2.	c #7C8A9F",
"3.	c #7D8AA0",
"4.	c #7C899F",
"5.	c #7C8AA0",
"6.	c #7B889E",
". . . . . . . . . . . . . . . . . . . . . . . . . . . . . . . . . . . . . . . . . . . . . . . . . . . . . . . . ",
"+ + + + + + + + + + + + + + + + + + + + + + + + + + + + + + + + + + + + + + + + + + + + + + + + + + + + + + + + ",
"@ @ @ @ @ @ @ @ @ @ @ @ @ @ @ @ @ @ @ @ @ @ @ @ @ @ @ @ @ @ @ @ @ @ @ @ @ @ @ @ @ @ @ @ @ @ @ @ @ @ @ @ @ @ @ @ ",
"# # # # # # # # # # # # # # # # # # # # # # # # # # # # # # # # # # # # # # # # # # # # # # # # # # # # # # # # ",
"$ $ $ $ $ $ $ $ $ $ $ $ $ $ $ $ $ $ $ $ $ $ $ $ $ $ $ $ $ $ $ $ $ $ $ $ $ $ $ $ $ $ $ $ $ $ $ $ $ $ $ $ $ $ $ $ ",
"% & & * % % & & & = % % % % & & * % % & & & & & & & & - % % % % % % % % % % % % % % % % % % % % % % % % % % % % ",
"% & & * % % & & & & ; % % % & & * % % & & & & & & & & - % % % % % % % % % % % % % % % % % % % % % % % % % % % % ",
"> , , ' > > , , , , ) > > > , , ' > > , , ' > > > > > > > > > > > > > > > > > > > > > > > > > > > > > > > > > > ",
"> , , ' > > , , ! , , ~ > > , , ' > > , , ' > > > > > > > > > > > > > > > > > > > > > > > > > > > > > > > > > > ",
"# , , { # # , , { ] , ^ / # , , { # # , , { # # # # # # # # # # # # # # # # # # # # # # # # # # # # # # # # # # ",
"@ ( ( _ @ @ ( ( _ : < ( [ @ ( ( _ @ @ ( ( ( ( ( ( ( } @ @ @ @ @ @ @ @ @ @ @ @ @ @ @ @ @ @ @ @ @ @ @ @ @ @ @ @ @ ",
"| ! ! 1 | | ! ! 1 | 2 ! 3 4 ! ! 1 | | ! ! ! ! ! ! ! 5 | | | | | | | | | | | | | | | | | | | | | | | | | | | | | ",
"6 ! ! 1 6 6 ! ! 1 6 7 * ! 8 ! ! 1 6 6 ! ! 1 6 6 6 6 6 6 6 6 6 6 6 6 6 6 6 6 6 6 6 6 6 6 6 6 6 6 6 6 6 6 6 6 6 6 ",
"9 0 0 a 9 9 0 0 a 9 9 b 0 c 0 0 a 9 9 0 0 a 9 9 9 9 9 9 9 9 9 9 9 9 9 9 9 9 9 9 9 9 9 9 9 9 9 9 9 9 9 9 9 9 9 9 ",
"d 0 0 ^ d d 0 0 ^ d d e f 0 0 0 ^ d d 0 0 ^ d d d d d d d d d d d d d d d d d d d d d d d d d d d d d d d d d d ",
"g h h ^ g g h h ^ g g g i h h h ^ g g h h h h h h h h j g g g g g g g g g g g g g g g g g g g g g g g g g g g g ",
"k < < ^ k k < < ^ k k k k l < < ^ k k < < < < < < < < d k k k k k k k k k k k k k k k k k k k k k k k k k k k k ",
"k k k k k k k k k k k k k k k k k k k k k k k k k k k k k k k k k k k k k k k k k k k k k k k k k k k k k k k k ",
"k k k k k k k k k k k k k k k k k k k k k k k k k k k k k k k k k k k k k k k k k k k k k k k k k k k k k k k k ",
"m m m m m m m m m m m m m m m m m m m m m m m m m m m m m m m m m m m m m m m m m m m m m m m m m m m m m m m m ",
"m m m m m m m m m m m m m m m m m m m m m m m m m m m m m m m m m m m m m m m m m m m m m m m m m m m m m m m m ",
"m m m m m m m m m m m m m m m m m m m m m m m m m m m m m m m m m m m m m m m m m m m m m m m m m m m m m m m m ",
"n n n n n n n n o o o o o o o o o o n n p o o o 1 n n n n o o o o q r s t n n n n n n n n u v q o o n n n n n n ",
"w w w w w w w w x x x r o o x x x x w w y o o o z A w w w o o r x B C o D E w w w w w w w o z F o o w w w w w w ",
"w w w w w w w w w w w G o o w w w w w k H o x o o I w w w o o G w w J o o K w w w w w w w L w G o o w w w w w w ",
"M M M M M M M M M M M N o o M M M M M O o o J P o Q M M M o o N M M R o o S M M M M M M M M M N o o M M M M M M ",
"T T T T T T T T T T T U o o T T T T T V o W T X o q Y T T o o F Z ` C o  ...T T T T T T T T T U o o T T T T +.T ",
"T T T T T T T T T T T U o o T T T T @.q o #.T $.C o %.T T o o o o q &.*.=.T T T T T T T T T T U o o T T T T T T ",
"-.-.-.-.-.-.-.-.-.-.-.U o o -.-.-.-.a o o ;.&.&. .o >.,.-.o o U -.-.-.-.-.-.-.-.-.-.-.-.-.-.-.U o o -.-.-.-.-.-.",
"+.+.+.+.+.+.+.+.+.+.+.U o o +.+.+.'.).o o o o o o o o !.+.o o U +.+.+.+.+.+.+.+.+.+.+.+.+.+.+.U o o +.+.+.+.+.+.",
"+.+.+.+.+.+.+.+.+.+.+.U o o +.+.+.~.o o {.+.+.+.].&.o ^.+.o o U +.+.+.+.+.+.+.+.+.+.+.+.+././.(.o o /././.+.+.+.",
"+.+.+.+.+.+.+.+.+.+.+.U o o +.+.+._.o :.<.+.+.+.+.[.o  .}.o o U +.+.+.+.+.+.+.+.+.+.+.+.+.o o o o o o o o +.+.+.",
"|.|.|.|.|.|.|.|.|.|.|.|.|.|.|.|.|.|.|.|.|.|.|.|.|.|.|.|.|.|.|.|.|.|.|.|.|.|.|.|.|.|.|.|.|.|.|.|.|.|.|.|.|.|.|.|.",
"1.1.1.1.1.1.1.1.1.1.1.1.1.1.1.1.1.1.1.1.1.1.1.1.1.1.1.1.1.1.1.1.1.1.1.1.1.1.1.1.1.1.1.1.1.1.1.1.1.1.1.1.1.1.1.1.",
"1.1.1.1.1.1.1.1.1.1.1.1.1.1.1.1.1.1.1.1.1.1.1.1.1.1.1.1.1.1.1.1.1.1.1.1.1.1.1.1.1.1.1.1.1.1.1.1.1.1.1.1.1.1.2.1.",
"3.3.3.3.3.3.3.3.3.3.3.3.3.3.3.3.3.3.3.3.3.3.3.3.3.3.3.3.3.3.3.3.3.3.3.3.3.3.3.3.3.3.3.3.3.3.3.3.3.3.3.3.3.3.4.3.",
"5.5.5.5.5.5.5.5.5.5.5.5.5.5.5.5.5.5.5.5.5.5.5.5.5.5.5.5.5.5.5.5.5.5.5.5.5.5.5.5.5.5.5.5.5.5.5.5.5.5.5.5.5.5.6.5."};
