/* XPM */
static char * edit_toolbar__cursor_follows_playback_xpm[] = {
"31 32 156 2",
"  	c None",
". 	c #144C7A",
"+ 	c #134B79",
"@ 	c #134B78",
"# 	c #134A77",
"$ 	c #134976",
"% 	c #134975",
"& 	c #134A78",
"* 	c #124773",
"= 	c #124670",
"- 	c #12456F",
"; 	c #12456E",
"> 	c #124671",
", 	c #6193AD",
"' 	c #6EACBE",
") 	c #6FACBE",
"! 	c #6AA6B9",
"~ 	c #669EB3",
"{ 	c #6197AD",
"] 	c #5E90A7",
"^ 	c #5989A2",
"/ 	c #53819D",
"( 	c #2E6A93",
"_ 	c #0F4371",
": 	c #114068",
"< 	c #11436C",
"[ 	c #5F93AB",
"} 	c #A3E9EA",
"| 	c #9DE8E8",
"1 	c #96DCDF",
"2 	c #8ECFD5",
"3 	c #86C2CB",
"4 	c #7EB5C1",
"5 	c #74AABA",
"6 	c #5A98B4",
"7 	c #2A6791",
"8 	c #0E3C64",
"9 	c #0F3A5E",
"0 	c #103E64",
"a 	c #265579",
"b 	c #80C1CC",
"c 	c #96E3E4",
"d 	c #8DD6D9",
"e 	c #86C8CE",
"f 	c #7DB9C4",
"g 	c #72ADBB",
"h 	c #61A1B7",
"i 	c #367DA4",
"j 	c #12466F",
"k 	c #0C3150",
"l 	c #0E3555",
"m 	c #103F65",
"n 	c #0E406C",
"o 	c #0D3250",
"p 	c #0E385A",
"q 	c #5E92A9",
"r 	c #296690",
"s 	c #0C3559",
"t 	c #0C304D",
"u 	c #0E3758",
"v 	c #103E63",
"w 	c #255375",
"x 	c #11436A",
"y 	c #0A2B46",
"z 	c #0C2F4D",
"A 	c #0E3657",
"B 	c #0E3F6C",
"C 	c #0C2F4C",
"D 	c #29668F",
"E 	c #0C3458",
"F 	c #0D375A",
"G 	c #52849B",
"H 	c #95D8DC",
"I 	c #89CED3",
"J 	c #81C0C8",
"K 	c #77B3BF",
"L 	c #6AA7B9",
"M 	c #4D94B3",
"N 	c #1E5B85",
"O 	c #0A2E4D",
"P 	c #0B2C47",
"Q 	c #0C314E",
"R 	c #0E3859",
"S 	c #103F66",
"T 	c #184264",
"U 	c #6FA5B7",
"V 	c #89C8CF",
"W 	c #7CB8C3",
"X 	c #71ACBC",
"Y 	c #5FA0B7",
"Z 	c #32779F",
"` 	c #0D3C62",
" .	c #0A2944",
"..	c #0C2D49",
"+.	c #0D3251",
"@.	c #0F3A5D",
"#.	c #114168",
"$.	c #0B3150",
"%.	c #406C87",
"&.	c #84B9C5",
"*.	c #77B1BF",
"=.	c #69A6B9",
"-.	c #4D92B1",
";.	c #1A547D",
">.	c #092B48",
",.	c #0B2B46",
"'.	c #0E3556",
").	c #103C61",
"!.	c #114169",
"~.	c #0D3352",
"{.	c #11395B",
"].	c #608DA3",
"^.	c #78B0BE",
"/.	c #5E9FB7",
"(.	c #307299",
"_.	c #0C365A",
":.	c #0A2943",
"<.	c #0B2D48",
"[.	c #0E385B",
"}.	c #124873",
"|.	c #103D62",
"1.	c #0B2F4D",
"2.	c #325A78",
"3.	c #71A0B4",
"4.	c #4C8DAE",
"5.	c #164D75",
"6.	c #0D3555",
"7.	c #0F3C60",
"8.	c #11426B",
"9.	c #124772",
"0.	c #114067",
"a.	c #0D3353",
"b.	c #0D3557",
"c.	c #547F9A",
"d.	c #3E779B",
"e.	c #0B3458",
"f.	c #0B2A44",
"g.	c #11436D",
"h.	c #0E3759",
"i.	c #0D314F",
"j.	c #174267",
"k.	c #10406B",
"l.	c #0B2B45",
"m.	c #0F3C61",
"n.	c #11426A",
"o.	c #0F3B60",
"p.	c #0C304E",
"q.	c #0C2E4A",
"r.	c #0D3453",
"s.	c #104067",
"t.	c #0F395B",
"u.	c #12446E",
"v.	c #104066",
"w.	c #0F395C",
"x.	c #0F3B5F",
"y.	c #134874",
". . . . . . . . . . . . . . . . . . . . . . . . . . . . . . . ",
". . . . . . . . . . . . . . . . . . . . . . . . . . . . . . . ",
". . . . . . . . . . . . . . . . . . . . . . . . . . . . . . . ",
". . . . . . . . . . . . . . . . . . . . . . . . . . . . . . . ",
". . . . . . . . . . . . . . . . . . . . . . . . . . . . . . . ",
". . . . . . . . . + + + + + + + + + + + + + + + . . . . . . . ",
". . . . . . . . + @ # $ $ % % % % % % % $ $ # @ + . . . . . . ",
". . . . . . . + & % * = - - ; ; ; ; ; - - = * % & + . . . . . ",
". . . . . . + @ % > , ' ) ! ~ { ] ^ / ( _ : < > % @ + . . . . ",
". . . . . . + # * < [ } | 1 2 3 4 5 6 7 8 9 0 < * # + . . . . ",
". . . . . . + $ = : a b c d e f g h i j k l 9 : = $ + . . . . ",
". . . . . . + $ - m , ' ) ! ~ { ] ^ / ( n o p m - $ + . . . . ",
". . . . . . @ % ; 0 q } | 1 2 3 4 5 6 r s t u 0 ; % @ . . . . ",
". . . . . . @ % ; v w b c d e f g h i x y z A v ; % @ . . . + ",
". . . . . . @ % ; v , ' ) ! ~ { ] ^ / ( B C A v ; % @ . . . + ",
". . . . . . @ % ; v q } | 1 2 3 4 5 6 D E z A 0 ; % @ . . . + ",
". . . . . . @ % ; v w b c d e f g h i x y t u 0 - % + . . . + ",
". . . . . . @ % ; 0 F G H I J K L M N O P Q R S - $ + . . . + ",
". . . . . . + % - 0 u T U V W X Y Z `  ...+.@.#.> $ + . . . + ",
". . . . . . + $ - S p $.%.&.*.=.-.;.>.,.C '.).< * # + . . . + ",
". . . . . . + $ > !.@.~.{.].^./.(._.:.<.o [.S - % @ . . . . + ",
". . . . . . + # }.< |.A 1.2.3.4.5.y ,.C 6.7.8.9.# + . . . . . ",
". . . . . . . @ $ = 0.@.a.b.c.d.e.f...o [.m - % @ + . . . . . ",
". . . . . . . + # }.g.v h.i.j.k.l.P t '.m.8.9.# + . . . . . . ",
". . . . . . . . + $ > n.o.'.p.q.q.z r.@.s.- % @ + . . . . . . ",
". . . . . . . . + & % - s.9 '.+.+.6.t.0 g.* # + . . . . . . . ",
". . . . . . . . . + # }.u.v.7.w.w.x.m < 9.$ @ . . . . . . . . ",
". . . . . . . . . . @ $ * ; n.: 0.n.u.9.$ @ + . . . . . . . . ",
". . . . . . . . . . + @ # y.9.> > 9.y.$ @ + . . . . . . . . . ",
". . . . . . . . . . . + + & # $ $ # & + + . . . . . . . . . . ",
". . . . . . . . . . . . . + + + + + + . . . . . . . . . . . . ",
". . . . . . . . . . . . . . . . . . . . . . . . . . . . . . . "};
