/* XPM */
static char * edit_toolbar__volume_mask_label_bottom_xpm[] = {
"38 10 48 1",
" 	c None",
".	c #0E3657",
"+	c #0B3B63",
"@	c #082F50",
"#	c #041B2E",
"$	c #144C7A",
"%	c #2E699B",
"&	c #0E3555",
"*	c #103F65",
"=	c #134874",
"-	c #0D3555",
";	c #124773",
">	c #0E3658",
",	c #0C304D",
"'	c #0B2C47",
")	c #2C343B",
"!	c #0A2942",
"~	c #0E3556",
"{	c #104066",
"]	c #0E385A",
"^	c #0D3250",
"/	c #0C2E4A",
"(	c #0B2B46",
"_	c #0B2B45",
":	c #0E3758",
"<	c #114067",
"[	c #0F3A5E",
"}	c #0C2F4D",
"|	c #0C2F4C",
"1	c #0F3A5D",
"2	c #11426A",
"3	c #134975",
"4	c #103E64",
"5	c #103E63",
"6	c #12446E",
"7	c #134976",
"8	c #11436C",
"9	c #114068",
"0	c #11436B",
"a	c #124772",
"b	c #134A78",
"c	c #124670",
"d	c #12456F",
"e	c #12456E",
"f	c #124671",
"g	c #134B78",
"h	c #134A77",
"i	c #134B79",
".+@##############################$%&*=",
".+$$$$$$$$$$$$$$$$$$$$$$$$$$$$$$$$%-*;",
".%%%%%%%%%%%%%%%%%%%%%%%%%%%%%%%%%%&*;",
">,')!!!!!!!!!!!!!!!!!!!!!!!!!!!!!!!~{;",
"]^/'(______________________________:<=",
"[&^,}||||||||||||||||||||||||||||||123",
"4[]:..............................:567",
"89*455555555555555555555555555555540ab",
";cddeeeeeeeeeeeeeeeeeeeeeeeeeeeee6ef3g",
"h773333333333333333333333333333333=37i"};
