/* XPM */
static char * edit_toolbar__play_current_block_pushed_xpm[] = {
"30 32 331 2",
"  	c None",
". 	c #144C7A",
"+ 	c #324554",
"@ 	c #334554",
"# 	c #134A78",
"$ 	c #134B79",
"% 	c #414F5C",
"& 	c #465461",
"* 	c #495764",
"= 	c #4B5966",
"- 	c #4B5A66",
"; 	c #4C5966",
"> 	c #4C5A67",
", 	c #4E5C69",
"' 	c #465561",
") 	c #505E6A",
"! 	c #5A6874",
"~ 	c #5F6E79",
"{ 	c #63727D",
"] 	c #64727E",
"^ 	c #63717D",
"/ 	c #64737E",
"( 	c #66747F",
"_ 	c #627380",
": 	c #505F6B",
"< 	c #616F7B",
"[ 	c #6F7D89",
"} 	c #788792",
"| 	c #7C8B96",
"1 	c #7D8B97",
"2 	c #7E8B97",
"3 	c #7E8C98",
"4 	c #808E99",
"5 	c #798998",
"6 	c #134B78",
"7 	c #485864",
"8 	c #596773",
"9 	c #6D7C88",
"0 	c #7F8D98",
"a 	c #8896A0",
"b 	c #8D9AA4",
"c 	c #8E9CA6",
"d 	c #8D9BA5",
"e 	c #8E9BA5",
"f 	c #8D9BA4",
"g 	c #8F9CA6",
"h 	c #909CA7",
"i 	c #919FA9",
"j 	c #8A9AA9",
"k 	c #99AFC3",
"l 	c #5D6C77",
"m 	c #73818C",
"n 	c #0C3E6F",
"o 	c #93A0AA",
"p 	c #8F9EAC",
"q 	c #93A9BC",
"r 	c #134975",
"s 	c #4C5A66",
"t 	c #5F6C78",
"u 	c #728089",
"v 	c #C4ECEE",
"w 	c #A9EAEB",
"x 	c #ADEEEF",
"y 	c #B2F4F2",
"z 	c #B0F2F0",
"A 	c #ABEDEC",
"B 	c #A8E5E8",
"C 	c #A4E0E2",
"D 	c #A1DADD",
"E 	c #9DD4D9",
"F 	c #9BCDD3",
"G 	c #96C6CE",
"H 	c #94C1CA",
"I 	c #8FBAC5",
"J 	c #8CB3C0",
"K 	c #86AEBC",
"L 	c #609DB6",
"M 	c #428BB4",
"N 	c #8B969F",
"O 	c #8A99A6",
"P 	c #8DA2B4",
"Q 	c #124773",
"R 	c #134A77",
"S 	c #4B5A67",
"T 	c #5D6B76",
"U 	c #707D87",
"V 	c #79858E",
"W 	c #B4EDEE",
"X 	c #A4F0EF",
"Y 	c #A6F2F0",
"Z 	c #A1EDEC",
"` 	c #9DE6E7",
" .	c #99E1E1",
"..	c #95D7DB",
"+.	c #90CFD6",
"@.	c #8CC9D0",
"#.	c #86C1CA",
"$.	c #82BAC4",
"%.	c #7EB3BE",
"&.	c #79ACBB",
"*.	c #72A6B8",
"=.	c #699FB5",
"-.	c #2379AF",
";.	c #79838A",
">.	c #818C94",
",.	c #84929F",
"'.	c #899DAF",
").	c #124671",
"!.	c #134976",
"~.	c #4C5B67",
"{.	c #6F7B86",
"].	c #76828A",
"^.	c #C2F4F3",
"/.	c #A0F2EF",
"(.	c #9FEFEE",
"_.	c #99E8E9",
":.	c #96E1E2",
"<.	c #80BFC8",
"[.	c #00172F",
"}.	c #71ACBB",
"|.	c #68A7BA",
"1.	c #5FA3B9",
"2.	c #3688B2",
"3.	c #3480AC",
"4.	c #717A81",
"5.	c #7C868D",
"6.	c #818F9B",
"7.	c #879BAD",
"8.	c #124670",
"9.	c #5E6C77",
"0.	c #78848C",
"a.	c #747E86",
"b.	c #B6F4F2",
"c.	c #9BEBEA",
"d.	c #96E5E6",
"e.	c #92DDE0",
"f.	c #6EA9BA",
"g.	c #65A4B9",
"h.	c #5B9EB7",
"i.	c #257BAD",
"j.	c #687177",
"k.	c #6F797F",
"l.	c #83919D",
"m.	c #4D5C67",
"n.	c #73808B",
"o.	c #7C8891",
"p.	c #79848B",
"q.	c #C3F5F5",
"r.	c #9EEAE9",
"s.	c #94E3E4",
"t.	c #90DADC",
"u.	c #6AA6BA",
"v.	c #6A7279",
"w.	c #727C83",
"x.	c #818B93",
"y.	c #8896A3",
"z.	c #8CA1B3",
"A.	c #124873",
"B.	c #4E5C68",
"C.	c #76848F",
"D.	c #828F98",
"E.	c #808C94",
"F.	c #778087",
"G.	c #B0ECEC",
"H.	c #8ED6DA",
"I.	c #5C9DB8",
"J.	c #277BAB",
"K.	c #666F75",
"L.	c #6D767C",
"M.	c #89949C",
"N.	c #8E9DAB",
"O.	c #91A6B9",
"P.	c #4E5D69",
"Q.	c #62717C",
"R.	c #7A8893",
"S.	c #89969F",
"T.	c #88949C",
"U.	c #7D878F",
"V.	c #B8EBEC",
"W.	c #9CDEE0",
"X.	c #8DD3D7",
"Y.	c #60A0B8",
"Z.	c #4795B9",
"`.	c #2579A9",
" +	c #697278",
".+	c #727B82",
"++	c #7F8A91",
"@+	c #909CA5",
"#+	c #95A5B3",
"$+	c #95ABBF",
"%+	c #63727E",
"&+	c #8F9CA5",
"*+	c #869098",
"=+	c #778189",
"-+	c #AADFE4",
";+	c #8ACED4",
">+	c #5C9FB8",
",+	c #788289",
"'+	c #88939B",
")+	c #98A5AE",
"!+	c #9BABBA",
"~+	c #98AEC3",
"{+	c #4F5E6A",
"]+	c #7E8D99",
"^+	c #92A0AB",
"/+	c #97A4AD",
"(+	c #8E99A2",
"_+	c #7F8991",
":+	c #B2E1E4",
"<+	c #96CFD6",
"[+	c #4796B7",
"}+	c #A0ADB7",
"|+	c #A0B0C0",
"1+	c #9BB1C6",
"2+	c #64737F",
"3+	c #808F9B",
"4+	c #95A4AE",
"5+	c #9DAAB4",
"6+	c #96A2AB",
"7+	c #87929A",
"8+	c #AAD6DC",
"9+	c #7CB6C2",
"0+	c #77AFBD",
"a+	c #6EAABC",
"b+	c #3783AF",
"c+	c #A7B4BE",
"d+	c #A3B4C4",
"e+	c #9DB3C8",
"f+	c #657480",
"g+	c #98A6B1",
"h+	c #A1B0BA",
"i+	c #9EAAB4",
"j+	c #909CA4",
"k+	c #AED6DC",
"l+	c #8BC1CB",
"m+	c #7BB3BF",
"n+	c #72ADBC",
"o+	c #6AA8BA",
"p+	c #60A2B8",
"q+	c #579BB7",
"r+	c #1F72A7",
"s+	c #ACBAC4",
"t+	c #A6B7C7",
"u+	c #9DB4C9",
"v+	c #81909C",
"w+	c #9AA8B3",
"x+	c #A5B3BE",
"y+	c #A4B1BB",
"z+	c #98A4AD",
"A+	c #AAD0D6",
"B+	c #6EACBC",
"C+	c #AFBEC8",
"D+	c #A8B9C9",
"E+	c #9EB5CA",
"F+	c #82919D",
"G+	c #9AA9B4",
"H+	c #A7B6C1",
"I+	c #A9B6C0",
"J+	c #9FADB6",
"K+	c #A8CDD4",
"L+	c #82B5C0",
"M+	c #62A1B8",
"N+	c #599BB7",
"O+	c #1E72A8",
"P+	c #B2C1CC",
"Q+	c #A8BACA",
"R+	c #9FB6CB",
"S+	c #9BAAB5",
"T+	c #A9B8C3",
"U+	c #A6B4BE",
"V+	c #A3C5CF",
"W+	c #5D9DB7",
"X+	c #B4C3CE",
"Y+	c #A9BBCB",
"Z+	c #9CABB6",
"`+	c #AAB9C4",
" @	c #AFBDC8",
".@	c #ABB9C3",
"+@	c #9CBDC8",
"@@	c #89AFBD",
"#@	c #B5C4CF",
"$@	c #AABCCC",
"%@	c #ABBAC5",
"&@	c #B1BFCA",
"*@	c #AEBDC7",
"=@	c #AEC8D0",
"-@	c #408BB6",
";@	c #B6C5D0",
">@	c #667580",
",@	c #9CAAB6",
"'@	c #ACBBC6",
")@	c #B2C0CB",
"!@	c #B1C0CB",
"~@	c #808A92",
"{@	c #87ABB9",
"]@	c #2F7EB1",
"^@	c #B7C6D1",
"/@	c #B3C1CC",
"(@	c #B3C2CD",
"_@	c #7A848B",
":@	c #6E777E",
"<@	c #687782",
"[@	c #84939E",
"}@	c #9DABB7",
"|@	c #B4C2CD",
"1@	c #919DA6",
"2@	c #828D95",
"3@	c #768087",
"4@	c #6D7B87",
"5@	c #8796A2",
"6@	c #9EADB8",
"7@	c #ADBCC7",
"8@	c #B0BFC9",
"9@	c #A7B5BF",
"0@	c #9BA8B1",
"a@	c #7B858C",
"b@	c #8393A3",
"c@	c #96A7B7",
"d@	c #A2B3C3",
"e@	c #A7B9C8",
"f@	c #A6B8C8",
"g@	c #A1B2C1",
"h@	c #99A9B8",
"i@	c #8694A1",
"j@	c #99AFC4",
"k@	c #9AB1C5",
"l@	c #96ACBF",
"m@	c #90A5B8",
"n@	c #8B9FB1",
"o@	c #134874",
"p@	c #124772",
". . . . . + + + + + + + + + + + + + + + + + @ . . # $ . . . ",
". . . % & * = - - - - - - - - - - - - - - - ; > , # $ . . . ",
". . ' ) ! ~ { ] ] ] ^ ^ ^ ^ ^ ^ ^ ^ ^ ^ ] ] / / ( _ $ . . . ",
". . : < [ } | 1 1 1 1 1 1 1 1 1 1 1 1 1 1 1 2 3 4 5 6 $ . . ",
"$ 7 8 9 0 a b c d d e e e f d d d d d d d d g h i j k # $ . ",
"$ - l m n n n n n n n n n n n n n n n n n n n n o p q r 6 $ ",
"6 s t u n v w x y z A B C D E F G H I J K L M n N O P Q R $ ",
"# S T U V n W X Y Z `  ...+.@.#.$.%.&.*.=.-.n ;.>.,.'.).!.$ ",
"# ~.T {.].n ^./.(._.:.<.[.[.[.[.<.}.|.1.2.3.n 4.5.6.7.8.!.$ ",
"# ~.9.U 0.a.n b.c.d.e.[.n n n n n f.g.h.i.n j.k.5.l.'.).R $ ",
"6 m.~ n.o.p.n q.r.s.t.[.n n n n n u.1.2.3.n v.w.x.y.z.A.R $ ",
"$ B.< C.D.E.F.n G.e.H.[.n n n n n g.I.J.n K.L.;.M.N.O.r 6 . ",
"$ P.Q.R.S.T.U.n V.W.X.[.n n n n n Y.Z.`.n  +.+++@+#+$+R $ . ",
". P.%+| c &+*+=+n -+;+[.n n n n n >+i.n K.L.,+'+)+!+~+6 $ . ",
". {+/ ]+^+/+(+_+n :+<+<.n n n n <.[+`.n  +.+++@+}+|+1+$ . . ",
". {+2+3+4+5+6+7+,+n 8+<.9+0+a+g.>+b+n K.L.,+'+)+c+d+e+$ . . ",
". {+f+3+g+h+i+j+++n k+l+m+n+o+p+q+r+n  +.+++@+}+s+t+u+. . . ",
". {+f+v+w+x+y+z+'+,+n A+0+B+g.>+b+n K.L.,+'+)+c+C+D+E+. . . ",
". {+f+F+G+H+I+J+@+++n K+L+o+M+N+O+n  +.+++@+}+s+P+Q+R+. . . ",
". {+f+F+S+T+s+U+)+'+,+n V+g.W+b+n K.L.,+'+)+c+C+X+Y+R+. . . ",
". {+f+F+Z+`+ @.@}+@+++n +@@@N+O+n  +.+++@+}+s+P+#@$@R+. . . ",
". {+f+F+Z+%@&@*@c+)+'+,+n =@-@n K.L.,+'+)+c+C+X+;@$@R+. . . ",
". {+>@l.,@'@)@!@s+}+@+~@n {@]@n  +.+~@@+}+s+P+#@^@$@R+. . . ",
". {+>@l.,@'@/@(@C+c+)+M._@n n  +:@_@M.)+c+C+X+;@^@$@R+. . . ",
". . <@[@}@'@|@X+P+s+}+1@2@3@k.k.3@2@1@}+s+P+#@^@^@$@. . . . ",
". . 4@5@6@7@|@#@X+8@9@0@(+>.a@a@>.(+0@9@8@X+;@^@^@$@. . . . ",
". . . b@c@d@e@Y+Y+f@g@h@p i@6.6.i@p h@g@f@Y+$@$@$@. . . . . ",
". . . . . j@u+R+R+u+k@l@m@n@7.7.n@m@l@k@u+R+R+. . . . . . . ",
". . . . . . . . . $ 6 R o@p@).).p@o@R 6 $ . . . . . . . . . ",
". . . . . . . . . . $ $ # R !.!.R # $ $ . . . . . . . . . . ",
". . . . . . . . . . . . $ $ $ $ $ $ . . . . . . . . . . . . ",
". . . . . . . . . . . . . . . . . . . . . . . . . . . . . . "};
