/* XPM */
static char * edit_toolbar__automation_mode_stream_xpm[] = {
"31 32 166 2",
"  	c None",
". 	c #144C7A",
"+ 	c #134B79",
"@ 	c #134A78",
"# 	c #134A77",
"$ 	c #134976",
"% 	c #134874",
"& 	c #124772",
"* 	c #124773",
"= 	c #134B78",
"- 	c #124671",
"; 	c #12446E",
"> 	c #25496B",
", 	c #174369",
"' 	c #11436B",
") 	c #12456F",
"! 	c #124873",
"~ 	c #134975",
"{ 	c #8E757B",
"] 	c #EAA9A3",
"^ 	c #AE756C",
"/ 	c #103D62",
"( 	c #114068",
"_ 	c #12456E",
": 	c #11426A",
"< 	c #5B5B6C",
"[ 	c #D98A75",
"} 	c #F29B84",
"| 	c #EBAEAC",
"1 	c #E4ACAD",
"2 	c #0E3758",
"3 	c #0F3C61",
"4 	c #11426B",
"5 	c #3A4F69",
"6 	c #BD8073",
"7 	c #F69A80",
"8 	c #EEA8A0",
"9 	c #EAB6BB",
"0 	c #D4A0A2",
"a 	c #3F4D63",
"b 	c #0D3352",
"c 	c #0F395C",
"d 	c #104067",
"e 	c #124670",
"f 	c #11436C",
"g 	c #244767",
"h 	c #9C7370",
"i 	c #F39579",
"j 	c #EDA295",
"k 	c #EAB5B8",
"l 	c #E4ABAC",
"m 	c #5F5B6A",
"n 	c #0B2D48",
"o 	c #0C2E4A",
"p 	c #0D3250",
"q 	c #0E385B",
"r 	c #103F66",
"s 	c #7C676E",
"t 	c #E99178",
"u 	c #EE9C8A",
"v 	c #EBB2B3",
"w 	c #E9B0B3",
"x 	c #8E7379",
"y 	c #94A129",
"z 	c #0B2B45",
"A 	c #0B2C47",
"B 	c #0C2E4B",
"C 	c #114067",
"D 	c #D78A77",
"E 	c #F19A84",
"F 	c #EBABA8",
"G 	c #EAB4B8",
"H 	c #B98887",
"I 	c #17314A",
"J 	c #0B2A44",
"K 	c #FFFC13",
"L 	c #0C304E",
"M 	c #0E3657",
"N 	c #BD8074",
"O 	c #F7997E",
"P 	c #ECA69D",
"Q 	c #EAB5B9",
"R 	c #D69A94",
"S 	c #334052",
"T 	c #5C7033",
"U 	c #0B2A43",
"V 	c #0A2942",
"W 	c #0B2B46",
"X 	c #0F395B",
"Y 	c #103F65",
"Z 	c #11436D",
"` 	c #F3967A",
" .	c #E99E91",
"..	c #E5A6A0",
"+.	c #5F5660",
"@.	c #F2F115",
"#.	c #344D39",
"$.	c #0B2C46",
"%.	c #0C2F4D",
"&.	c #0D3555",
"*.	c #0F3A5D",
"=.	c #11446D",
"-.	c #97AA38",
";.	c #3E4F67",
">.	c #F7977A",
",.	c #EC9C89",
"'.	c #EBB1B1",
").	c #EAADAA",
"!.	c #966F6E",
"~.	c #586C36",
"{.	c #E0E118",
"].	c #27413B",
"^.	c #0C2F4C",
"/.	c #BEC624",
"(.	c #224853",
"_.	c #114169",
":.	c #5C525C",
"<.	c #EEABA5",
"[.	c #EBB3B6",
"}.	c #C5887B",
"|.	c #405043",
"1.	c #A2AC24",
"2.	c #A0AA25",
"3.	c #0A2841",
"4.	c #E9E918",
"5.	c #2D4E4B",
"6.	c #103E63",
"7.	c #343848",
"8.	c #955A4F",
"9.	c #67565B",
"0.	c #929E28",
"a.	c #C9CD1D",
"b.	c #84912A",
"c.	c #E0E219",
"d.	c #294845",
"e.	c #0D3454",
"f.	c #0F3A5E",
"g.	c #124A78",
"h.	c #0C314E",
"i.	c #657730",
"j.	c #18353F",
"k.	c #E8E817",
"l.	c #294642",
"m.	c #0D314F",
"n.	c #0E3859",
"o.	c #103E64",
"p.	c #0E324C",
"q.	c #ACB524",
"r.	c #65762F",
"s.	c #28453F",
"t.	c #0C304D",
"u.	c #294745",
"v.	c #D2D51C",
"w.	c #4B6135",
"x.	c #28443E",
"y.	c #C1C71F",
"z.	c #465D36",
"A.	c #0C2A40",
"B.	c #84922A",
"C.	c #27423C",
"D.	c #28443F",
"E.	c #C1C720",
"F.	c #475D37",
"G.	c #284540",
"H.	c #0E385A",
"I.	c #0E3555",
". . . . . . . . . . . . . . . . . . . . . . . . . . . . . . . ",
". . . . . . . . . . . . . . . . . . . . . . . . . . . . . . . ",
". . . . . . . . . . . . . . . . . . . . . . . . . . . . . . . ",
". . . . . . . . . . . . . . . . . . . . + + + + + . . . . . . ",
". . . . . . . . . . . . . . . . . . + + @ # # # @ + + . . . . ",
". . . . . . . . . . . . . . . . + + @ $ % & & * % # = + . . . ",
". . . . . . . . . . . . . . . + = $ % - ; > , ' ) ! # + . . . ",
". . . . . . . . . . . . . + = # ~ & ; , { ] ^ / ( _ % @ + . . ",
". . . . . . . . . . . + = # ~ & ) : < [ } | 1 2 3 : & # + . . ",
". . . . . . . . . + + @ $ * ) 4 5 6 7 8 9 0 a b c d e $ + . . ",
". . . . . . . . + = $ % - f g h i j k l m n o p q r ) $ + . . ",
". . . . . . + = # ~ & ; , s t u v w x y z A B b c C e $ + . . ",
"+ . . . + = # ~ & ) : < D E F G H I J K z n L M 3 : & # + . . ",
"= + + + # ~ * ) 4 5 N O P Q R S T U V K W B b X Y Z * # + . + ",
"$ = + # % e f g h `  .G ..+.z U @.#.V K $.%.&.*.r =.* $ + . + ",
"% # # ~ e -.;.>.,.'.).!.~.T V V {.].V K W ^./.(./ _.e ~ @ + + ",
"& $ $ & ' K :.<.[.}.|.J 1.2.3.3.{.].3.K J n 4.5.X 6.f * # + + ",
"- $ ~ e C K 7.8.9.0.a.V b.b.3.3.{.].3.K U z c.d.e.f.( e $ + g.",
"& $ ~ ) Y K h.A J i.1.3.b.b.3.3.K ].3.K j.U k.l.m.n.Y ) $ + g.",
"% $ ~ _ o.K p.q.#.r.1.3.b.b.3.3.K ].3.K ].V K s.t.2 o._ ~ = + ",
"$ # ~ _ 6.K u.v.w.r.1.3.b.b.3.3.K ].3.K ].3.K x.%.M 6._ ~ = + ",
"= @ ~ _ 6.K u.y.z.b.1.3.b.b.3.A.K ].3.K ].A.K x.^.M 6._ ~ = . ",
"+ = ~ _ 6.K u.y.z.B.1.3.b.b.3.].K ].3.K ].C.K D.%.M 6._ ~ = . ",
". = ~ _ o.K d.E.F.B.1.V B.B.V C.K C.V K C.C.K G.t.2 o._ ~ = . ",
". + $ ) Y H.p o A W z z z z z z z z z z z W A o p H.Y ) $ + . ",
". + $ e ( f.I.p t.%.^.^.^.^.^.^.^.^.^.^.^.%.t.p I.f.( e $ + . ",
". + # * f o.f.H.2 M M M M M M M M M M M M M 2 H.f.o.f * # + . ",
". + = ~ - f ( Y o.6.6.6.6.6.6.6.6.6.6.6.6.6.o.Y ( f - ~ = + . ",
". . + @ ~ * e ) ) _ _ _ _ _ _ _ _ _ _ _ _ _ ) ) e * ~ @ + . . ",
". . . + = # $ $ ~ ~ ~ ~ ~ ~ ~ ~ ~ ~ ~ ~ ~ ~ ~ $ $ # = + . . . ",
". . . . + + + + + + + = = = = = = = = = + + + + + + + . . . . ",
". . . . . . . . . . . . . . . . . . . . . . . . . . . . . . . "};
