/* XPM */
static char * effect_panel_generic_right_xpm[] = {
"13 127 246 2",
"  	c None",
". 	c #8694A9",
"+ 	c #8794AA",
"@ 	c #8795AA",
"# 	c #8895AB",
"$ 	c #8896AB",
"% 	c #8896AC",
"& 	c #8A98AE",
"* 	c #B7C2D2",
"= 	c #5C677A",
"- 	c #8996AC",
"; 	c #B6C1D1",
"> 	c #8895AA",
", 	c #8996AB",
"' 	c #8C99AE",
") 	c #BAC6D5",
"! 	c #5D677B",
"~ 	c #8794A9",
"{ 	c #B9C6D4",
"] 	c #8B99AE",
"^ 	c #B7C3D3",
"/ 	c #8694AA",
"( 	c #8795AB",
"_ 	c #B6C1D3",
": 	c #8693A8",
"< 	c #8693A9",
"[ 	c #8593A8",
"} 	c #8B98AC",
"| 	c #B5C0D0",
"1 	c #8592A8",
"2 	c #8794A8",
"3 	c #8795A9",
"4 	c #8A98AC",
"5 	c #8996AA",
"6 	c #B3BFD0",
"7 	c #5C667A",
"8 	c #8592A7",
"9 	c #8B98AB",
"0 	c #B2BFCF",
"a 	c #5B6579",
"b 	c #8491A7",
"c 	c #8491A6",
"d 	c #B1BCCE",
"e 	c #596477",
"f 	c #8390A6",
"g 	c #B0BCCE",
"h 	c #AFBCCC",
"i 	c #8390A5",
"j 	c #AEBACB",
"k 	c #596377",
"l 	c #8290A5",
"m 	c #ADB9CB",
"n 	c #576276",
"o 	c #8391A6",
"p 	c #ACB8C9",
"q 	c #ABB7C8",
"r 	c #818FA4",
"s 	c #8694A8",
"t 	c #AAB6C8",
"u 	c #A9B6C8",
"v 	c #A9B5C6",
"w 	c #556174",
"x 	c #808EA4",
"y 	c #818FA5",
"z 	c #A8B4C5",
"A 	c #535E72",
"B 	c #808EA3",
"C 	c #A7B3C5",
"D 	c #8591A8",
"E 	c #A5B1C5",
"F 	c #7F8DA3",
"G 	c #828FA5",
"H 	c #A4B0C3",
"I 	c #525D71",
"J 	c #7F8DA2",
"K 	c #A3AFC2",
"L 	c #808DA3",
"M 	c #A3AEC0",
"N 	c #4F5B6F",
"O 	c #8490A7",
"P 	c #A1ADC0",
"Q 	c #7E8CA1",
"R 	c #A0ABBF",
"S 	c #7E8DA1",
"T 	c #9FAABE",
"U 	c #7D8BA1",
"V 	c #7F8EA2",
"W 	c #9DA8BC",
"X 	c #4E5B6E",
"Y 	c #7F8DA1",
"Z 	c #9CA8BC",
"` 	c #7D8AA1",
" .	c #9BA7BA",
"..	c #7D8AA0",
"+.	c #9AA6B7",
"@.	c #4E5A6D",
"#.	c #7C8AA0",
"$.	c #99A5B7",
"%.	c #4E576A",
"&.	c #7C899F",
"*.	c #7E8BA1",
"=.	c #818EA4",
"-.	c #98A3B7",
";.	c #96A2B6",
">.	c #4D566A",
",.	c #7C899E",
"'.	c #95A1B5",
").	c #4C566A",
"!.	c #7B899E",
"~.	c #808DA1",
"{.	c #7B889E",
"].	c #7D8A9F",
"^.	c #94A0B4",
"/.	c #7B889D",
"(.	c #7C8A9E",
"_.	c #7E8BA0",
":.	c #909DB3",
"<.	c #7D8B9F",
"[.	c #909DB2",
"}.	c #4A5567",
"|.	c #7A889C",
"1.	c #8F9BAF",
"2.	c #4A5466",
"3.	c #7A879C",
"4.	c #7B899D",
"5.	c #8D99AF",
"6.	c #7A879B",
"7.	c #7D8A9E",
"8.	c #79879B",
"9.	c #7B889C",
"0.	c #7E8CA0",
"a.	c #485366",
"b.	c #79869B",
"c.	c #79869A",
"d.	c #475365",
"e.	c #78869A",
"f.	c #7C899D",
"g.	c #7E8B9F",
"h.	c #475263",
"i.	c #788599",
"j.	c #7D899D",
"k.	c #788499",
"l.	c #465062",
"m.	c #798599",
"n.	c #454F61",
"o.	c #7A869A",
"p.	c #788498",
"q.	c #798699",
"r.	c #788497",
"s.	c #7C889C",
"t.	c #7B879B",
"u.	c #424D5E",
"v.	c #778398",
"w.	c #778397",
"x.	c #7C879A",
"y.	c #798498",
"z.	c #414C5D",
"A.	c #778296",
"B.	c #7A8599",
"C.	c #768295",
"D.	c #3E4859",
"E.	c #768296",
"F.	c #788397",
"G.	c #7B8699",
"H.	c #748294",
"I.	c #3C4759",
"J.	c #727F93",
"K.	c #3C4556",
"L.	c #717C90",
"M.	c #394153",
"N.	c #758195",
"O.	c #364254",
"P.	c #404A5C",
"Q.	c #758094",
"R.	c #748094",
"S.	c #768195",
"T.	c #748093",
"U.	c #737F93",
"V.	c #758194",
"W.	c #737F92",
"X.	c #727F92",
"Y.	c #40495B",
"Z.	c #727E92",
"`.	c #717E91",
" +	c #738194",
".+	c #717D91",
"++	c #748194",
"@+	c #758295",
"#+	c #3D4759",
"$+	c #707D91",
"%+	c #748295",
"&+	c #707D90",
"*+	c #707C90",
"=+	c #6F7B90",
"-+	c #717D90",
";+	c #738093",
">+	c #3C4355",
",+	c #3C4254",
"'+	c #6F7B8F",
")+	c #737E92",
"!+	c #6E7A8F",
"~+	c #727D91",
"{+	c #6E798E",
"]+	c #707B90",
"^+	c #3B4253",
"/+	c #727E91",
"(+	c #6E788E",
"_+	c #6F7A8F",
":+	c #384253",
"<+	c #6D788D",
"[+	c #364153",
"}+	c #6C778C",
"|+	c #6C768C",
"1+	c #707A90",
"2+	c #364050",
"3+	c #6B768B",
"4+	c #363E4E",
"5+	c #6A758A",
"6+	c #6A748A",
"7+	c #363D4D",
"8+	c #697489",
"9+	c #363C4C",
"0+	c #677388",
"a+	c #343C4C",
"b+	c #323B4A",
"c+	c #667287",
"d+	c #323949",
"e+	c #323848",
"f+	c #677488",
"g+	c #313747",
"h+	c #667186",
"i+	c #2F3646",
"j+	c #667185",
"k+	c #657084",
"l+	c #677184",
"m+	c #657083",
"n+	c #677285",
"o+	c #2E3645",
"p+	c #656F83",
"q+	c #646F83",
"r+	c #646E83",
"s+	c #656F84",
"t+	c #2C3342",
"u+	c #656E83",
"v+	c #667084",
"w+	c #2D3443",
". + @ @ # $ $ % % & & * = ",
". + @ @ # $ $ % - & & ; = ",
". + @ > # , , - - ' ' ) ! ",
"~ @ > > $ , , - - ' ' { ! ",
"@ @ > > $ $ $ , , ' ] ^ = ",
"/ @ @ @ ( $ $ $ $ ] & _ = ",
". . . ~ @ @ @ $ $ & & * = ",
": : < . . . . @ $ & & ; = ",
"[ [ [ : : : : ~ > & } | = ",
"1 1 1 [ [ [ : 2 3 4 5 6 7 ",
"8 8 8 8 8 8 : 2 2 9 5 0 a ",
"b b b b b b 8 : : 9 9 0 a ",
"c c c c c c 8 : : > 9 d e ",
"f f f f f f b 8 1 > 5 g e ",
"f f f f f f b 8 1 > > h e ",
"i i i i i i f b 8 > > j k ",
"l l l l l l f b b > ~ m n ",
"l l l l l l f o b ~ ~ p n ",
"l l l l l l f f b ~ ~ q n ",
"r r r r r r l f o ~ s t n ",
"r r r r r r l f o ~ s u n ",
"r r r r r r l l f ~ s v w ",
"x x x x x x y l f s s z A ",
"B B B B B B r l l s 1 C A ",
"B B B B B B r r l : D E A ",
"F F F F F F x r G D D H I ",
"J J J J J J B r r D D K I ",
"J J J J J J L B r D D M N ",
"J J J J J J J B r O O P N ",
"Q Q Q Q Q Q J B B f f R N ",
"Q Q Q Q Q Q J J B f f R N ",
"Q Q Q Q Q Q S J B f l T N ",
"U U U U U U Q J V f l W X ",
"U U U U U U Q Y J l l Z X ",
"` ` ` ` ` ` U Q J l l  .X ",
"............U Q Y l l +.@.",
"#.#.#.#.#.#.U Q Q l l $.%.",
"&.&.&.&.&.&...*.Q =.=.-.%.",
"&.&.&.&.&.&.#.U *.=.=.;.>.",
",.,.,.........Q B B B '.).",
"!.!.!.........Q ~.~.~.'.).",
"{.{.{.].].].].*.~.~.~.^.).",
"/././.(.(.(.(._.~.~.Y :.).",
"/././.,.,.,.,.<.~.~.Y [.}.",
"|.|.|.,.,.,.,.<.~.~.Y 1.2.",
"3.3.3.4.4.4.4.<.Y Y Y 5.2.",
"6.6.6.4.4.4.4.7.Y Y Y ' 2.",
"8.8.8.9.9.9.9.(.Y 0.0.9 a.",
"b.b.b.|.|.|.|.(.0.0.0.5 a.",
"c.c.c.|.|.|.|.(.0.0.0.3 d.",
"e.e.e.6.6.6.6.f.g.0.g.: h.",
"i.i.i.6.6.6.6.4.j.0.j.D h.",
"i.i.i.c.c.c.c.9.j.j.j.f h.",
"i.i.i.c.c.c.c.9.j.j.j.G h.",
"k.k.k.c.c.c.c.|.j.j.j.L l.",
"k.k.k.m.m.m.m.6.f.f.f.~.n.",
"i.i.i.i.i.i.i.6.4.4.4.0.n.",
"k.k.k.k.k.k.k.o.4.4.4.4.h.",
"p.p.p.p.p.p.p.q.4.4.4.4.n.",
"p.r.r.r.r.r.r.q.4.s.s.t.u.",
"v.w.w.w.w.w.w.m.9.x.x.y.z.",
"w.w.w.w.w.w.w.m.x.x.x.A.z.",
"A.A.A.A.A.A.A.y.x.x.B.C.D.",
"E.E.E.E.E.E.E.F.G.G.B.H.I.",
"E.E.E.E.E.E.E.F.B.B.B.J.K.",
"E.E.E.E.E.E.E.F.B.B.B.L.M.",
"N.N.N.N.N.N.N.w.B.B.B.L.O.",
"N.N.N.N.N.N.N.A.i.B.B.y.P.",
"Q.Q.Q.Q.Q.Q.Q.E.i.m.m.m.z.",
"R.R.R.R.R.R.R.C.i.i.i.i.z.",
"R.R.R.R.R.R.R.S.p.i.i.p.z.",
"T.T.T.T.T.T.T.N.A.i.i.A.P.",
"U.U.U.U.U.U.U.V.A.A.A.A.P.",
"W.W.W.W.W.W.W.R.A.A.A.A.P.",
"X.X.X.X.X.X.X.T.C.C.A.C.P.",
"X.X.X.X.X.X.X.T.C.C.A.C.Y.",
"Z.Z.Z.Z.Z.Z.Z.T.C.C.C.C.D.",
"`.`.`.`.`.`.`.U.C.C. +C.D.",
".+.+.+.+.+.+.+X.C.++@+C.#+",
"$+$+$+$+$+$+$+X.%+ +@+%+I.",
"&+&+&+&+&+&+&+X. + + + +I.",
"*+*+*+*+*+*+*+`. + + + +I.",
"*+*+*+*+*+*+*+`. + + +W.I.",
"=+=+=+=+=+=+=+-+ +;+;+W.>+",
"=+=+=+=+=+=+=+&+;+W.W.W.,+",
"'+'+'+'+'+'+'+&+W.)+W.W.,+",
"!+!+!+!+!+!+!+*+W.~+W.W.,+",
"{+{+{+{+{+{+{+]+~+W.W.W.^+",
"{+{+{+{+{+{+{+'+~+/+/+/+^+",
"(+(+(+(+(+(+(+_+~+~+~+~+:+",
"<+<+<+<+<+<+<+_+~+~+L.L.[+",
"<+<+<+<+<+<+<+_+~+~+]+]+[+",
"}+}+}+}+}+}+}+{+]+]+]+]+[+",
"}+}+}+}+}+}+}+<+]+]+]+]+[+",
"|+|+|+|+|+|+|+<+1+]+]+]+2+",
"3+3+3+3+3+3+3+<+_+]+]+]+4+",
"3+3+3+3+3+3+3+}+_+_+_+_+4+",
"5+5+5+5+5+5+5+}+_+_+_+<+4+",
"5+5+5+5+5+5+5+3+_+_+_+<+4+",
"6+6+6+6+6+6+6+3+{+{+{+<+7+",
"8+8+8+8+8+8+8+3+<+<+<+<+9+",
"8+8+8+8+8+8+8+5+<+<+<+<+9+",
"8+8+8+8+8+8+8+5+}+<+<+}+9+",
"0+0+0+0+0+0+0+5+}+}+}+}+9+",
"0+0+0+0+0+0+0+6+}+}+}+}+9+",
"0+0+0+0+0+0+0+8+}+}+}+}+a+",
"0+0+0+0+0+0+0+8+}+}+}+3+b+",
"c+c+c+c+c+c+c+8+3+3+3+3+b+",
"c+c+c+c+c+c+c+0+3+3+3+3+b+",
"c+c+c+c+c+c+c+0+5+5+3+3+b+",
"c+c+c+c+c+c+c+0+8+8+3+5+d+",
"c+c+c+c+c+c+c+8+8+8+3+8+e+",
"c+c+c+c+c+c+c+8+8+8+8+8+e+",
"c+c+c+c+c+c+c+8+0+0+8+8+e+",
"c+c+c+c+c+c+c+8+0+0+f+f+g+",
"h+h+h+h+h+h+h+8+0+0+0+0+i+",
"j+j+j+j+j+j+j+0+0+0+0+0+i+",
"k+k+k+k+k+k+k+l+0+0+l+0+i+",
"m+m+m+m+m+m+m+l+n+n+l+n+i+",
"m+m+m+m+m+m+m+l+l+l+l+l+o+",
"p+p+p+p+p+p+p+l+l+l+l+l+o+",
"q+q+q+q+q+q+q+l+l+l+l+l+o+",
"r+r+r+r+r+r+r+s+s+s+l+l+o+",
"r+r+r+r+r+r+r+s+s+s+s+s+t+",
"u+u+u+u+u+u+u+v+v+v+v+v+w+",
"p+p+p+p+p+p+p+l+l+l+l+l+o+",
"p+p+p+p+p+p+p+l+l+l+l+l+o+"};
