/* XPM */
static char * filterbank__separator_2_xpm[] = {
"68 6 16 1",
" 	c None",
".	c #6D788C",
"+	c #6C778C",
"@	c #6C788D",
"#	c #6D778C",
"$	c #6C778D",
"%	c #6D778D",
"&	c #6D788D",
"*	c #6C788C",
"=	c #434B57",
"-	c #444B57",
";	c #4C5461",
">	c #535C6A",
",	c #576170",
"'	c #586171",
")	c #A7AEBF",
".+@@##$#+%.+&%+%.+@@##$#+%.+&%.*&.@@@%#$&@**%&*@&&@&*@&*@&&&*@&&@&&&",
"=================================================================---",
";;;;;;;;;;;;;;;;;;;;;;;;;;;;;;;;;;;;;;;;;;;;;;;;;;;;;;;;;;;;;;;;;;;;",
">>>>>>>>>>>>>>>>>>>>>>>>>>>>>>>>>>>>>>>>>>>>>>>>>>>>>>>>>>>>>>>>>>>>",
",,,,,,,,,,,,,,,,,,,,,,,,,,,,,,,,,,,,,,,,,,,,,,,,,,,,,,,,,,,,,,,,,'''",
"))))))))))))))))))))))))))))))))))))))))))))))))))))))))))))))))))))"};
