/* XPM */
static char * global_toolbar__select_linked_pushed_xpm[] = {
"31 32 261 2",
"  	c None",
". 	c #144C7A",
"+ 	c #324554",
"@ 	c #334554",
"# 	c #414F5C",
"$ 	c #465461",
"% 	c #495764",
"& 	c #4B5966",
"* 	c #4B5A66",
"= 	c #4C5966",
"- 	c #4C5A67",
"; 	c #4E5C69",
"> 	c #336C9D",
", 	c #465561",
"' 	c #515F6B",
") 	c #5B6975",
"! 	c #606F7A",
"~ 	c #64737E",
"{ 	c #65737F",
"] 	c #65747F",
"^ 	c #677581",
"/ 	c #647583",
"( 	c #51606C",
"_ 	c #63717D",
": 	c #72818D",
"< 	c #7C8B97",
"[ 	c #81909B",
"} 	c #82919D",
"| 	c #83919D",
"1 	c #84939E",
"2 	c #7D8E9D",
"3 	c #495965",
"4 	c #5B6A76",
"5 	c #8796A1",
"6 	c #94A3AD",
"7 	c #9AA8B3",
"8 	c #9BAAB5",
"9 	c #9CAAB5",
"0 	c #9BAAB4",
"a 	c #9CABB6",
"b 	c #9DABB6",
"c 	c #9DACB7",
"d 	c #93A4B3",
"e 	c #9FB6CB",
"f 	c #4D5C68",
"g 	c #61707C",
"h 	c #94A2AE",
"i 	c #A1B0BB",
"j 	c #A8B6C1",
"k 	c #A9B8C2",
"l 	c #A9B7C2",
"m 	c #A9B8C3",
"n 	c #AAB9C4",
"o 	c #ABBAC5",
"p 	c #A1B2C2",
"q 	c #4E5D69",
"r 	c #99A7B2",
"s 	c #A7B5BF",
"t 	c #A9B7C1",
"u 	c #A9B5BF",
"v 	c #A7B2BC",
"w 	c #A6B1BB",
"x 	c #AAB5C0",
"y 	c #ADBAC4",
"z 	c #A9B5C0",
"A 	c #B1BEC9",
"B 	c #A6B8C7",
"C 	c #4E5D6A",
"D 	c #657480",
"E 	c #81909C",
"F 	c #99A8B3",
"G 	c #A4B2BC",
"H 	c #A4AFB8",
"I 	c #2E2E04",
"J 	c #9DA6B0",
"K 	c #A2ADB6",
"L 	c #A8B4BE",
"M 	c #9BA4AD",
"N 	c #A0AAB4",
"O 	c #A7B3BD",
"P 	c #AFBCC7",
"Q 	c #A7B9C8",
"R 	c #9EB5CA",
"S 	c #4F5E6A",
"T 	c #64737F",
"U 	c #808E9A",
"V 	c #95A2AD",
"W 	c #9DA8B2",
"X 	c #FFFC13",
"Y 	c #E5D810",
"Z 	c #939AA3",
"` 	c #98A0A9",
" .	c #9EA7B1",
"..	c #969DA6",
"+.	c #A3B3C2",
"@.	c #9CB3C7",
"#.	c #134B79",
"$.	c #7D8B96",
"%.	c #8F9AA4",
"&.	c #949CA4",
"*.	c #9CAAB8",
"=.	c #99AEC3",
"-.	c #63727D",
";.	c #7B8793",
">.	c #8C929A",
",.	c #8C9199",
"'.	c #8B9098",
").	c #9F960B",
"!.	c #95A2B0",
"~.	c #96AABE",
"{.	c #134A78",
"].	c #63717C",
"^.	c #798590",
"/.	c #BFB40D",
"(.	c #9299A1",
"_.	c #919DAA",
":.	c #94A7BB",
"<.	c #144A77",
"[.	c #858E98",
"}.	c #8D939B",
"|.	c #89939D",
"1.	c #8D949D",
"2.	c #323032",
"3.	c #A7A5A7",
"4.	c #9E9C9F",
"5.	c #8F959E",
"6.	c #949DA6",
"7.	c #9298A1",
"8.	c #323033",
"9.	c #AEADB0",
"0.	c #A8A7AA",
"a.	c #9D9C9E",
"b.	c #8D929A",
"c.	c #8F959D",
"d.	c #9BA3AC",
"e.	c #959CA5",
"f.	c #9198A0",
"g.	c #90969F",
"h.	c #91979F",
"i.	c #959AA1",
"j.	c #333234",
"k.	c #BBBBBD",
"l.	c #B6B6B9",
"m.	c #AAABAD",
"n.	c #9C9C9E",
"o.	c #9499A1",
"p.	c #9398A0",
"q.	c #9DA6AF",
"r.	c #A5AFB9",
"s.	c #A0A9B3",
"t.	c #9AA3AC",
"u.	c #9FA6AE",
"v.	c #353639",
"w.	c #CBCCCF",
"x.	c #C7CACD",
"y.	c #BCBEC2",
"z.	c #ACADB0",
"A.	c #9E9EA2",
"B.	c #353538",
"C.	c #9FA6AD",
"D.	c #9CA4AC",
"E.	c #9CA4AD",
"F.	c #A6B2BC",
"G.	c #AEBBC6",
"H.	c #ABB8C2",
"I.	c #A9B4BE",
"J.	c #ADB7C0",
"K.	c #393B3E",
"L.	c #D9DDE0",
"M.	c #D9DDDF",
"N.	c #CDD1D5",
"O.	c #BEC2C4",
"P.	c #B1B3B8",
"Q.	c #A5A8AA",
"R.	c #383B3E",
"S.	c #ABB5BE",
"T.	c #AAB5BE",
"U.	c #AFBDC7",
"V.	c #B3C1CC",
"W.	c #A9BBCB",
"X.	c #B2C0CB",
"Y.	c #B1C0CB",
"Z.	c #B7C4CE",
"`.	c #3A3F42",
" +	c #E3E8EB",
".+	c #E4E9EC",
"++	c #DADEE2",
"@+	c #C0C4C8",
"#+	c #B3B8BC",
"$+	c #A8ACB0",
"%+	c #B3C0CA",
"&+	c #B3C0CB",
"*+	c #B4C2CD",
"=+	c #B4C3CE",
"-+	c #AABCCC",
";+	c #ACBBC6",
">+	c #B5C4CF",
",+	c #B7C5D0",
"'+	c #BBC8D1",
")+	c #3B4043",
"!+	c #E6EBEE",
"~+	c #E7ECEF",
"{+	c #E2E7EB",
"]+	c #D5DADE",
"^+	c #C9CED2",
"/+	c #BDC2C5",
"(+	c #B1B6BA",
"_+	c #A5AAAE",
":+	c #B5C3CD",
"<+	c #B6C5D0",
"[+	c #B8C6D0",
"}+	c #BBC8D2",
"|+	c #3C4144",
"1+	c #B6C4CE",
"2+	c #B5C4CE",
"3+	c #B6C5CF",
"4+	c #BAC7D1",
"5+	c #DBE0E3",
"6+	c #BCC8D1",
"7+	c #B8C5CF",
"8+	c #B6C4CF",
"9+	c #667580",
"0+	c #9CAAB6",
"a+	c #B7C4CF",
"b+	c #BCC9D2",
"c+	c #BECAD3",
"d+	c #E0E6E9",
"e+	c #D4DADD",
"f+	c #B7C6D1",
"g+	c #687782",
"h+	c #9DABB7",
"i+	c #B7C5CF",
"j+	c #B9C6D0",
"k+	c #E6EBEF",
"l+	c #DADFE3",
"m+	c #6D7B87",
"n+	c #8796A2",
"o+	c #9EADB8",
"p+	c #ADBCC7",
"q+	c #BAC7D0",
"r+	c #DFE4E8",
"s+	c #8393A3",
"t+	c #96A7B7",
"u+	c #A2B3C3",
"v+	c #A8BACA",
"w+	c #A9BBCA",
"x+	c #AABBCA",
"y+	c #ABBCCA",
"z+	c #383D43",
"A+	c #AABAC9",
"B+	c #A9BACA",
"C+	c #99AFC4",
"D+	c #9DB4C9",
"E+	c #9FB5C9",
"F+	c #9FB5C8",
"G+	c #9FB4C8",
"H+	c #9EB4C8",
"I+	c #154C79",
"J+	c #164D7A",
"K+	c #184E7A",
"L+	c #154C7A",
". . . . . . . . + + + + + + + + + + + + + + + + + @ . . . . . ",
". . . . . . # $ % & * * * * * * * * * * * * * * * = - ; . . . ",
". > . . . , ' ) ! ~ { { { { { { { { { { { { { { { ] ] ^ / . . ",
". > . . . ( _ : < [ } } } } } } } } } } } } } } } | | 1 2 . . ",
". > . . 3 4 : 5 6 7 8 8 8 9 9 9 0 a a 8 8 8 8 8 8 9 b c d e . ",
". > . . f g < h i j k j j j j j k l m k j j j j j k n o p e . ",
". > . . q { [ r s t u v w w w v x y y x v w w w v z y A B e . ",
". > . . C D E F G H I I I I I J K L L I I I I I M N O P Q R . ",
". > . . S T U V W I X X X Y Y Z `  . .X X X Y Y I ..J v +.@.#.",
". > . . S ~ $.%.I X X I I I I I I I I I I I I Y Y I &.J *.=.#.",
". > . . q -.;.I X X I >.,.'.X Y X X X ).>.>.>.I Y Y I ..!.~.{.",
". > . . q ].^.I X X I ,.'.'.X ).).).).).,.,.,.I )./.I (._.:.<.",
". > . . q ].^.[.I Y Y I I I I I I I I I I I I ).).I }.(._.:.<.",
"#.> . . q -.;.|.1.I Y /.).).I 2.3.4.I Y /.).).).I }.5...!.~.{.",
"#.> . . S ~ $.%.6.7.I I I I I 8.9.0.a.I I I I I b.c.&.J *.=.#.",
"#.> . . S T U V W d.e.f.g.h.i.j.k.l.m.n.j.o.p.h.f.e.q.v +.@.#.",
"#.> . . S D E F G r.s.M t.d.u.v.w.x.y.z.A.B.C.D.E.s.F.G.Q R . ",
"#.> . . S D } 8 k y H.u I.I.J.K.L.M.N.O.P.Q.R.S.T.H.U.V.W.e . ",
"#.> . . S D } a o X.V.Y.X.V.Z.`. +.+++N.@+#+$+`.%+&+*+=+-+e . ",
"#.> . . S D } a ;+*+>+>+>+,+'+)+!+~+{+]+^+/+(+_+)+:+>+<+-+e . ",
"#.> . . S D } a ;+*+<+<+<+[+}+|+~+~+~+|+|+|+|+|+1+2+3+>+-+e . ",
". > . . S D } a ;+*+<+<+<+,+4+|+~+~+|+5+]+|+6+7+1+8+<+<+-+e . ",
". > . . S 9+| 0+;+*+<+<+3+3+[+|+~+|+|+~+5+|+6+7+1+8+<+<+-+e . ",
". > . . S 9+| 0+;+*+<+<+<+8+a+|+|+b+c+|+d+e+|+[+8+8+>+f+-+e . ",
". > . . . g+1 h+;+*+<+<+<+8+1+1+i+j+'+|+k+l+|+7+8+3+<+f+-+. . ",
". > . . . m+n+o+p+*+<+f+<+3+>+8+8+i+[+q+|+r+|+Z.8+8+<+f+-+. . ",
". > . . . . s+t+u+Q W.-+-+W.v+w+W.x+x+y+z+z+z+A+B+w+W.-+. . . ",
". > . . . . . . C+D+e e e e R R D+R E+E+F+G+G+H+H+D+#.. . . . ",
". > . . . . . . . . . . . . . . . #.I+J+K+K+K+J+L+#.. . . . . ",
". . . . . . . . . . . . . . . . . . . . . . . . . . . . . . . ",
". . . . . . . . . . . . . . . . . . . . . . . . . . . . . . . ",
". . . . . . . . . . . . . . . . . . . . . . . . . . . . . . . "};
