/* XPM */
static char * global_toolbar__select_active_xpm[] = {
"29 32 263 2",
"  	c None",
". 	c #144C7A",
"+ 	c #324554",
"@ 	c #334554",
"# 	c #134A78",
"$ 	c #134B79",
"% 	c #414F5C",
"& 	c #465461",
"* 	c #495764",
"= 	c #4B5966",
"- 	c #4B5A66",
"; 	c #4C5966",
"> 	c #4C5A67",
", 	c #4E5C69",
"' 	c #465561",
") 	c #515F6B",
"! 	c #5B6975",
"~ 	c #606F7A",
"{ 	c #64737E",
"] 	c #65737F",
"^ 	c #64727E",
"/ 	c #65747F",
"( 	c #677581",
"_ 	c #637481",
": 	c #51606C",
"< 	c #63717D",
"[ 	c #72818D",
"} 	c #7C8B97",
"| 	c #81909B",
"1 	c #82919D",
"2 	c #81909C",
"3 	c #7F8E9A",
"4 	c #808F9B",
"5 	c #808E9A",
"6 	c #83919D",
"7 	c #84939E",
"8 	c #7C8D9C",
"9 	c #495965",
"0 	c #5B6A76",
"a 	c #8796A1",
"b 	c #94A3AD",
"c 	c #9AA8B3",
"d 	c #9BAAB5",
"e 	c #9AA9B4",
"f 	c #98A6B1",
"g 	c #97A4AE",
"h 	c #95A2AC",
"i 	c #95A1AC",
"j 	c #96A4AD",
"k 	c #97A6B1",
"l 	c #99A8B3",
"m 	c #9CABB6",
"n 	c #9DABB6",
"o 	c #9DACB7",
"p 	c #93A4B3",
"q 	c #9FB6CB",
"r 	c #4D5C68",
"s 	c #61707C",
"t 	c #94A2AE",
"u 	c #A2B1BC",
"v 	c #A9B7C2",
"w 	c #A8B7C2",
"x 	c #A7B5BF",
"y 	c #A0AEB7",
"z 	c #98A5AD",
"A 	c #949EA7",
"B 	c #939EA7",
"C 	c #97A3AC",
"D 	c #9EABB5",
"E 	c #A6B4BE",
"F 	c #A9B8C3",
"G 	c #ACBBC6",
"H 	c #A1B2C2",
"I 	c #4E5D69",
"J 	c #AAB8C3",
"K 	c #AFBEC8",
"L 	c #B0BEC8",
"M 	c #ACB8C3",
"N 	c #9FABB3",
"O 	c #000000",
"P 	c #868D94",
"Q 	c #8A939A",
"R 	c #96A0A9",
"S 	c #A4AFB9",
"T 	c #ADBAC5",
"U 	c #B1BFCA",
"V 	c #B4C2CD",
"W 	c #A7B9C8",
"X 	c #4E5D6A",
"Y 	c #657480",
"Z 	c #B1C0CA",
"` 	c #B3C2CC",
" .	c #ACB9C3",
"..	c #9EA9B1",
"+.	c #E1E1E1",
"@.	c #80888D",
"#.	c #889197",
"$.	c #97A2AA",
"%.	c #A6B4BD",
"&.	c #AEBDC7",
"*.	c #B3C2CD",
"=.	c #B6C5D0",
"-.	c #B7C6D1",
";.	c #AABCCC",
">.	c #4F5E6A",
",.	c #B3C1CC",
"'.	c #AEBBC5",
").	c #A0AAB1",
"!.	c #EAEAE9",
"~.	c #D7D7D7",
"{.	c #81888D",
"].	c #889096",
"^.	c #B4C3CE",
"/.	c #AFBCC6",
"(.	c #A2ACB4",
"_.	c #F2F2F2",
":.	c #E1E1E0",
"<.	c #CECECE",
"[.	c #81878C",
"}.	c #96A1AA",
"|.	c #A6B3BD",
"1.	c #B0BCC6",
"2.	c #A3AEB5",
"3.	c #FBFBFA",
"4.	c #E9E9E8",
"5.	c #D6D7D6",
"6.	c #C5C5C5",
"7.	c #80878B",
"8.	c #879096",
"9.	c #96A1A9",
"0.	c #A5B2BC",
"a.	c #B0BDC7",
"b.	c #A4AEB5",
"c.	c #FFFFFF",
"d.	c #F1F1F1",
"e.	c #DFDFDF",
"f.	c #CDCDCD",
"g.	c #BBBBBC",
"h.	c #7F868B",
"i.	c #868E94",
"j.	c #95A0A8",
"k.	c #F9F9F9",
"l.	c #E7E8E8",
"m.	c #D5D6D5",
"n.	c #C3C3C4",
"o.	c #B2B2B1",
"p.	c #7C8287",
"q.	c #828B91",
"r.	c #A4B2BC",
"s.	c #AFBDC8",
"t.	c #B5C4CF",
"u.	c #F0EFF0",
"v.	c #DEDDDD",
"w.	c #CCCBCC",
"x.	c #B9BABA",
"y.	c #A8A8A8",
"z.	c #757C82",
"A.	c #80898F",
"B.	c #949FA8",
"C.	c #F8F8F8",
"D.	c #E6E6E6",
"E.	c #D4D4D4",
"F.	c #C2C3C2",
"G.	c #B1B0B1",
"H.	c #9F9E9F",
"I.	c #70787D",
"J.	c #848E96",
"K.	c #9FACB5",
"L.	c #B0BFC9",
"M.	c #A2ADB4",
"N.	c #676D72",
"O.	c #697177",
"P.	c #7E8890",
"Q.	c #99A6AE",
"R.	c #AFBDC7",
"S.	c #A0ABB3",
"T.	c #EDEDED",
"U.	c #E4E5E5",
"V.	c #7A7F83",
"W.	c #6B7175",
"X.	c #666C72",
"Y.	c #6E767C",
"Z.	c #848F96",
"`.	c #9EABB4",
" +	c #B2C0CB",
".+	c #ADBAC4",
"++	c #9EA8B0",
"@+	c #777C80",
"#+	c #6B7378",
"$+	c #7B848B",
"%+	c #929EA7",
"&+	c #ACB9C4",
"*+	c #9AA5AD",
"=+	c #797F83",
"-+	c #7E8386",
";+	c #F5F6F6",
">+	c #E3E4E4",
",+	c #6E7479",
"'+	c #737B82",
")+	c #89949C",
"!+	c #A0ADB7",
"~+	c #9AA5AF",
"{+	c #828B92",
"]+	c #737B80",
"^+	c #71787D",
"/+	c #767C81",
"(+	c #FEFEFE",
"_+	c #ECECEC",
":+	c #6E747A",
"<+	c #788087",
"[+	c #A8B6C1",
"}+	c #B0BDC8",
"|+	c #9FACB6",
"1+	c #8C989F",
"2+	c #7F8990",
"3+	c #7C858B",
"4+	c #7B8288",
"5+	c #798084",
"6+	c #F4F4F4",
"7+	c #6C7277",
"8+	c #798289",
"9+	c #94A1A9",
"0+	c #AAB9C3",
"a+	c #A9B7C1",
"b+	c #99A5AE",
"c+	c #8C979E",
"d+	c #80888F",
"e+	c #687075",
"f+	c #788288",
"g+	c #ACBAC5",
"h+	c #667580",
"i+	c #9CAAB6",
"j+	c #B0BEC9",
"k+	c #ABB9C4",
"l+	c #A0ACB6",
"m+	c #8D989F",
"n+	c #6C7479",
"o+	c #686F75",
"p+	c #6A7378",
"q+	c #7C868E",
"r+	c #98A4AD",
"s+	c #ADBBC6",
"t+	c #9CA9B2",
"u+	c #8A949D",
"v+	c #7D868D",
"w+	c #7A838A",
"x+	c #8B979F",
"y+	c #687782",
"z+	c #9DABB7",
"A+	c #98A4AE",
"B+	c #97A3AB",
"C+	c #ACBAC4",
"D+	c #6D7B87",
"E+	c #8796A2",
"F+	c #9EADB8",
"G+	c #ADBCC7",
"H+	c #8393A3",
"I+	c #96A7B7",
"J+	c #A2B3C3",
"K+	c #A9BBCB",
"L+	c #A8BACA",
"M+	c #99AFC4",
"N+	c #9DB4C9",
". . . . . . + + + + + + + + + + + + + + + + + @ . . # $ . ",
". . . . % & * = - - - - - - - - - - - - - - - ; > , # $ . ",
". . . ' ) ! ~ { ] ] ] ^ ^ ^ ] ] ] ] ] ] ] ] ] / / ( _ . . ",
". . . : < [ } | 1 2 3 4 3 5 3 4 1 1 1 1 1 1 1 6 6 7 8 . . ",
". . 9 0 [ a b c d e f g h i j k l m m m m m m n n o p q . ",
". . r s } t u v w x y z A B C D E F G G G G G G G G H q . ",
". . I ] | c J K L M N O O P Q R S T U V V V V V V V W q . ",
". . X Y 1 m G Z `  ...O +.O @.#.$.%.&.*.=.=.=.-.-.-.;.q . ",
". . >.Y 1 m G ,.` '.).O !.~.O {.].$.%.K ^.-.-.-.-.-.;.q . ",
". . >.Y 1 m G ,.V /.(.O _.:.<.O [.].}.|.K ^.-.-.-.-.;.q . ",
". . >.Y 1 m G ,.` 1.2.O 3.4.5.6.O 7.8.9.0.L ^.-.-.-.;.q . ",
". . >.Y 1 m G ,.` a.b.O c.d.e.f.g.O h.i.j.0.K ^.-.-.;.q . ",
". . >.Y 1 m G ,.V a.b.O c.k.l.m.n.o.O p.q.B r.s.t.-.;.q . ",
". . >.Y 1 m G ,.V a.b.O c.c.u.v.w.x.y.O z.A.B.|.` =.;.q . ",
". . >.Y 1 m G ,.` a.2.O c.c.C.D.E.F.G.H.O I.J.K.L.=.;.q . ",
". . >.Y 1 m G ,.V 1.M.O c.c.c.O O O O O N.O.P.Q.R.t.;.q . ",
". . >.Y 1 m G ,.` '.S.O c.c.O T.U.O V.W.X.Y.Z.`.L.=.;.q . ",
". . >.Y 1 m G  +,..+++O c.O O c.T.O @+W.#+$+%+x ` =.;.q . ",
". . >.Y 1 m G ,.,.&+*+O O =+-+O ;+>+O ,+'+)+!+L.t.-.;.q . ",
". . >.Y 1 m G ,.*.T ~+{+]+^+/+O (+_+O :+<+B [+V =.-.;.q . ",
". . >.Y 1 m G V ^.}+|+1+2+3+4+5+O 6+O 7+8+9+0+t.-.-.;.q . ",
". . >.Y 1 m G V t.,.a+|+b+B.c+d+O O O e+f+}.g+t.-.-.;.q . ",
". . >.h+6 i+G V =.=.,.j+k+a+l+m+8+n+o+p+q+r+s+t.-.-.;.q . ",
". . >.h+6 i+G V =.-.=.=.t. +k+t+u+v+w+q+x+!+U =.-.-.;.q . ",
". . . y+7 z+G V =.-.-.-.-.=.Z a+l+A+B+r+!+C+V =.-.-.;.. . ",
". . . D+E+F+G+V =.-.-.-.-.-.=.,.j+s+g+s+U V =.-.-.-.;.. . ",
". . . . H+I+J+W K+;.;.;.;.;.;.K+K+L+L+L+K+K+;.;.;.;.. . . ",
". . . . . . M+N+q q q q q q q q q q q q q q q q . . . . . ",
". . . . . . . . . . . . . . . . . . . . . . . . . . . . . ",
". . . . . . . . . . . . . . . . . . . . . . . . . . . . . ",
". . . . . . . . . . . . . . . . . . . . . . . . . . . . . ",
". . . . . . . . . . . . . . . . . . . . . . . . . . . . . "};
