/* XPM */
static char * middle__separator_center_xpm[] = {
"12 17 19 1",
" 	c None",
".	c #111319",
"+	c #202431",
"@	c #202430",
"#	c #2F3548",
"$	c #39415A",
"%	c #394159",
"&	c #39445E",
"*	c #334059",
"=	c #333F59",
"-	c #33405A",
";	c #2B3952",
">	c #25334A",
",	c #24334A",
"'	c #25334B",
")	c #24334B",
"!	c #C1EFEC",
"~	c #0D3557",
"{	c #144C7A",
"............",
"+@@@+++@@@@@",
"############",
"$%%%%%%%$%%$",
"&&&&&&&&&&&&",
"*==*==*-=**-",
";;;;;;;;;;;;",
">,>,'),,)>>)",
"!!!!!!!!!!!!",
"~~~~~~~~~~~~",
"{{{{{{{{{{{{",
"{{{{{{{{{{{{",
"{{{{{{{{{{{{",
"{{{{{{{{{{{{",
"{{{{{{{{{{{{",
"{{{{{{{{{{{{",
"{{{{{{{{{{{{"};
