/* XPM */
static char * panner__pos_xpm[] = {
"12 12 11 1",
" 	c None",
".	c #F85C5C",
"+	c #F25C5C",
"@	c #F18A8A",
"#	c #ECB0B0",
"$	c #E9C3C3",
"%	c #DFD2D2",
"&	c #D8D3D3",
"*	c #D1CFCF",
"=	c #C7C6C6",
"-	c #4B4B4B",
"    ....    ",
"  ..++++..  ",
" .+@#$$#@+. ",
" .@$%&&%$@. ",
".+#%*==*%#+.",
".+$&=--=&$+.",
".+$&=--=&$+.",
".+#%*==*%#+.",
" .@$%&&%$@. ",
" .+@#$$#@+. ",
"  .++++++.  ",
"    ....    "};
