/* XPM */
static char * rack_toolbar__show_back_active_xpm[] = {
"45 36 383 2",
"  	c None",
". 	c #144C7A",
"+ 	c #324554",
"@ 	c #314453",
"# 	c #334554",
"$ 	c #134A78",
"% 	c #134B79",
"& 	c #414F5C",
"* 	c #465461",
"= 	c #495764",
"- 	c #4B5966",
"; 	c #4B5A66",
"> 	c #4A5965",
", 	c #4A5864",
"' 	c #495864",
") 	c #495763",
"! 	c #485763",
"~ 	c #4B5764",
"{ 	c #4E5C69",
"] 	c #465561",
"^ 	c #515F6B",
"/ 	c #5B6975",
"( 	c #606F7A",
"_ 	c #64737E",
": 	c #65737F",
"< 	c #64727E",
"[ 	c #63717D",
"} 	c #63707C",
"| 	c #616E7A",
"1 	c #5F6D78",
"2 	c #5E6B77",
"3 	c #5D6A76",
"4 	c #616F7A",
"5 	c #63717C",
"6 	c #627380",
"7 	c #51606C",
"8 	c #72818D",
"9 	c #7C8B97",
"0 	c #81909B",
"a 	c #81909C",
"b 	c #808F9B",
"c 	c #82919D",
"d 	c #7F8E9A",
"e 	c #7E8D98",
"f 	c #7B8994",
"g 	c #778590",
"h 	c #73818B",
"i 	c #707D88",
"j 	c #6E7B85",
"k 	c #788590",
"l 	c #7C8994",
"m 	c #808E99",
"n 	c #7A8B9A",
"o 	c #134B78",
"p 	c #485864",
"q 	c #5B6A76",
"r 	c #8796A1",
"s 	c #94A3AD",
"t 	c #98A6B1",
"u 	c #99A8B3",
"v 	c #98A7B2",
"w 	c #97A6B1",
"x 	c #98A5B0",
"y 	c #97A4AF",
"z 	c #96A4AE",
"A 	c #96A4AF",
"B 	c #97A5B0",
"C 	c #99A6B1",
"D 	c #99A7B2",
"E 	c #99A8B2",
"F 	c #9BA8B3",
"G 	c #9AA9B4",
"H 	c #9BA9B4",
"I 	c #9AA8B2",
"J 	c #92A0A9",
"K 	c #8C99A3",
"L 	c #85929B",
"M 	c #7E8A93",
"N 	c #000000",
"O 	c #768189",
"P 	c #79848D",
"Q 	c #86929B",
"R 	c #93A1AB",
"S 	c #8E9EAD",
"T 	c #9DB3C8",
"U 	c #134A77",
"V 	c #4C5B67",
"W 	c #61707C",
"X 	c #94A2AE",
"Y 	c #A0AFBA",
"Z 	c #A6B4BF",
"` 	c #A5B4BF",
" .	c #A2B0BB",
"..	c #9FADB8",
"+.	c #9DABB5",
"@.	c #9DAAB4",
"#.	c #9DA9B4",
"$.	c #9EACB6",
"%.	c #A0AEB8",
"&.	c #A4B2BD",
"*.	c #A5B3BE",
"=.	c #A6B5BF",
"-.	c #98A5AF",
";.	c #8E99A3",
">.	c #CDD9DF",
",.	c #7C868E",
"'.	c #849098",
").	c #8E9BA4",
"!.	c #99A6B0",
"~.	c #96A6B5",
"{.	c #9AB1C5",
"].	c #134976",
"^.	c #4D5C68",
"/.	c #A8B6C0",
"(.	c #A4B2BC",
"_.	c #9FABB5",
":.	c #99A5AF",
"<.	c #97A2AC",
"[.	c #95A1AA",
"}.	c #94A0A9",
"|.	c #97A3AC",
"1.	c #9AA6B0",
"2.	c #9EAAB4",
"3.	c #A0ADB7",
"4.	c #A3AFB9",
"5.	c #A3B0BA",
"6.	c #A4B1BB",
"7.	c #A5B2BC",
"8.	c #9DA9B3",
"9.	c #939FA8",
"0.	c #B2C2C8",
"a.	c #B4C4CA",
"b.	c #88929B",
"c.	c #95A6B3",
"d.	c #96ACC0",
"e.	c #4D5C69",
"f.	c #64737F",
"g.	c #130E0B",
"h.	c #39231D",
"i.	c #3A241E",
"j.	c #140D0A",
"k.	c #89949C",
"l.	c #8B979F",
"m.	c #909CA4",
"n.	c #95A2AB",
"o.	c #96A3AC",
"p.	c #98A4AD",
"q.	c #99A6AF",
"r.	c #98A5AE",
"s.	c #929EA7",
"t.	c #B3C3C9",
"u.	c #B5C4CB",
"v.	c #B6C6CC",
"w.	c #B7C6CD",
"x.	c #7F8991",
"y.	c #8D98A1",
"z.	c #91A0AE",
"A.	c #92A7BB",
"B.	c #134975",
"C.	c #4E5C68",
"D.	c #2C100E",
"E.	c #5F3C3B",
"F.	c #603D3C",
"G.	c #5B3837",
"H.	c #072640",
"I.	c #859098",
"J.	c #87929A",
"K.	c #88939B",
"L.	c #848E96",
"M.	c #B6C5CC",
"N.	c #BAC9CE",
"O.	c #BBC9CF",
"P.	c #768087",
"Q.	c #8997A4",
"R.	c #8DA2B4",
"S.	c #124873",
"T.	c #7F8E99",
"U.	c #94A2AC",
"V.	c #99A7B1",
"W.	c #70262F",
"X.	c #9A666C",
"Y.	c #99656C",
"Z.	c #1C1C1C",
"`.	c #1B1B1B",
" +	c #79838A",
".+	c #B8C7CE",
"++	c #BDCBD1",
"@+	c #7D878F",
"#+	c #83919D",
"$+	c #899DAF",
"%+	c #124671",
"&+	c #63727D",
"*+	c #7D8B97",
"=+	c #8F9DA7",
"-+	c #929FA8",
";+	c #4B4B4B",
">+	c #A44857",
",+	c #BD7D89",
"'+	c #BD7D88",
")+	c #C5C5C5",
"!+	c #545454",
"~+	c #6F787F",
"{+	c #BAC8CE",
"]+	c #BFCDD3",
"^+	c #C0CED4",
"/+	c #7F8C98",
"(+	c #869AAB",
"_+	c #124670",
":+	c #8A98A2",
"<+	c #8A979F",
"[+	c #B7737B",
"}+	c #CB9DA1",
"|+	c #B8727A",
"1+	c #525252",
"2+	c #6A737A",
"3+	c #6B747A",
"4+	c #C1CFD5",
"5+	c #C2D0D6",
"6+	c #778188",
"7+	c #7E8C98",
"8+	c #8598AA",
"9+	c #4D5C67",
"0+	c #62707C",
"a+	c #798792",
"b+	c #86939D",
"c+	c #222222",
"d+	c #70000D",
"e+	c #974750",
"f+	c #6D767D",
"g+	c #6E777E",
"h+	c #C3D1D7",
"i+	c #C4D1D6",
"j+	c #61707B",
"k+	c #839099",
"l+	c #660406",
"m+	c #88323A",
"n+	c #87333B",
"o+	c #88323C",
"p+	c #5D0101",
"q+	c #707980",
"r+	c #727C83",
"s+	c #747D84",
"t+	c #747E85",
"u+	c #757F86",
"v+	c #778088",
"w+	c #C5D2D7",
"x+	c #C6D3D8",
"y+	c #717A81",
"z+	c #616F7B",
"A+	c #76848F",
"B+	c #828E98",
"C+	c #676F76",
"D+	c #656E74",
"E+	c #666F75",
"F+	c #687177",
"G+	c #6D767C",
"H+	c #6F797F",
"I+	c #7B858C",
"J+	c #7F8A91",
"K+	c #828D95",
"L+	c #848F97",
"M+	c #869199",
"N+	c #7C868D",
"O+	c #C7D3D9",
"P+	c #818E97",
"Q+	c #687076",
"R+	c #7A848C",
"S+	c #808A92",
"T+	c #8E9AA3",
"U+	c #737D83",
"V+	c #7E8890",
"W+	c #8F9BA3",
"X+	c #9FACB5",
"Y+	c #A3B1BA",
"Z+	c #A5B3BD",
"`+	c #A7B4BE",
" @	c #A7B5BF",
".@	c #A0ADB6",
"+@	c #89959D",
"@@	c #8A959E",
"#@	c #98A8B7",
"$@	c #788691",
"%@	c #84909A",
"&@	c #818C95",
"*@	c #838E95",
"=@	c #8E99A2",
"-@	c #AAB8C2",
";@	c #ADBBC6",
">@	c #AFBEC8",
",@	c #B0BFC9",
"'@	c #AFBDC7",
")@	c #A2AFB9",
"!@	c #7A848B",
"~@	c #A2B0BA",
"{@	c #9FB0BF",
"]@	c #62717C",
"^@	c #798793",
"/@	c #88959F",
"(@	c #87939C",
"_@	c #7E888F",
":@	c #A9B7C1",
"<@	c #B3C2CC",
"[@	c #B4C3CE",
"}@	c #ABB9C3",
"|@	c #9CA9B2",
"1@	c #A4B6C5",
"2@	c #7C8A96",
"3@	c #8D9AA4",
"4@	c #8F9CA5",
"5@	c #ACBBC5",
"6@	c #B5C4CF",
"7@	c #B6C5D0",
"8@	c #B4C2CD",
"9@	c #B1C0CB",
"0@	c #9EABB5",
"a@	c #9BA8B1",
"b@	c #A8B9C9",
"c@	c #9EB5CA",
"d@	c #4E5D69",
"e@	c #63727E",
"f@	c #92A0AA",
"g@	c #7C878E",
"h@	c #8C98A0",
"i@	c #B7C6D1",
"j@	c #A9BBCB",
"k@	c #9FB6CB",
"l@	c #B2C1CC",
"m@	c #AABCCC",
"n@	c #65747F",
"o@	c #82909C",
"p@	c #99A7B3",
"q@	c #A1AEB8",
"r@	c #AAB8C3",
"s@	c #667580",
"t@	c #9BA9B5",
"u@	c #A9B8C2",
"v@	c #ADBBC5",
"w@	c #9BA7B1",
"x@	c #909CA5",
"y@	c #B1BFCA",
"z@	c #687782",
"A@	c #84939E",
"B@	c #9DABB7",
"C@	c #ABBAC5",
"D@	c #8B969F",
"E@	c #6D7B87",
"F@	c #8796A2",
"G@	c #9EADB8",
"H@	c #ADBCC7",
"I@	c #B3C1CC",
"J@	c #86919A",
"K@	c #8393A3",
"L@	c #96A7B7",
"M@	c #A2B3C3",
"N@	c #A7B9C8",
"O@	c #A8BACA",
"P@	c #A6B8C8",
"Q@	c #A4B5C4",
"R@	c #9DADBC",
"S@	c #93A2B0",
"T@	c #8694A1",
"U@	c #75818C",
"V@	c #76828D",
"W@	c #7C8995",
"X@	c #8896A3",
"Y@	c #95A5B3",
"Z@	c #A0B0C0",
"`@	c #A6B7C7",
" #	c #99AFC4",
".#	c #9DB4C9",
"+#	c #9BB2C7",
"@#	c #98AEC2",
"##	c #90A5B8",
"$#	c #879BAD",
"%#	c #7F91A2",
"&#	c #7A8C9C",
"*#	c #7F92A3",
"=#	c #91A6B9",
"-#	c #9CB3C7",
";#	c #12456F",
">#	c #11426B",
",#	c #114168",
"'#	c #124772",
". . . . . . . . . . . . . . . . . . . . . . . . . . . . . . . . . . . . . . . . . . . . . ",
". . . . . . . . . . . . . . . . . . . . . . . . . . . . . . . . . . . . . . . . . . . . . ",
". . . . . + + + + + + + + + + + + + + + + + + + + + + + + + + @ @ @ @ @ @ # . . $ % % . . ",
". . . & * = - ; ; ; ; ; ; ; ; ; ; ; ; ; ; ; ; ; ; ; ; ; ; > , ' ) ! ! ) ' ~ - { $ % % . . ",
". . ] ^ / ( _ : : : : : : : : : : : : : : : : : : : : < [ } | 1 2 3 3 2 1 4 5 : 6 . . . . ",
"% . 7 [ 8 9 0 a a b b b b b b b b b a c c c c c c c a d e f g h i j j i h k l m n % . . . ",
"o p q 8 r s t u v w x y y z A B B C D E F F G H H I D y J K L M N N O P M Q K R S T % . . ",
"U V W 9 X Y Z `  ...+.@.@.@.#.+.$.%. .&.*.` ` ` =.` &...-.;.N N >.>.N N ,.'.).!.~.{.o . . ",
"].^.: 0 t Z /.(._.:.<.[.}.}.}.[.|.1.2.3.4.5.6.6.7.7.4.8.9.N >.>.0.a.>.>.N ,.b.[.c.d.U % . ",
"].e.f.a u *.(.@.g.h.h.h.h.h.i.j.k.l.m.9.n.o.|.p.q.1.r.s.N >.t.a.u.v.w.w.>.N x.y.z.A.B.o . ",
"B.C.f.b B %.8.s.D.E.E.E.F.F.G.D.H.H.H.H.H.H.I.H.J.k.K.L.N >.u.M.>.>.N.O.>.N P.L.Q.R.S.U % ",
"B.C._ T.U.V.9.H.W.X.Y.Y.X.X.X.W.Z.Z.Z.Z.`.Z.`.Z.H. + +N >.w..+>.N N >.++++>.N @+#+$+%+U % ",
"B.^.&+*+=+-+H.;+>+,+,+,+,+,+'+>+)+)+)+)+)+)+!+)+`.H.~+N >.{+O.>.N N >.]+^+>.N  +/+(+_+].% ",
"B.^.[ f :+<+H.;+[+}+}+}+}+}+}+|+1+!+!+1+!+!+`.1+H.2+3+N >.++++>.N N >.4+5+>.N 6+7+8+_+].% ",
"B.9+0+a+b+H.;+c+d+e+e+e+e+e+e+d+H.H.H.H.H.H.3+H.f+g+~+g+N >.^+^+>.>.h+i+>.N g+ +/+(+_+].% ",
"B.9+j+g k+H.;+c+l+m+m+m+n+n+o+p+3+f+q+r+s+t+u+P.6+ + +v+N >.4+h+h+w+x+x+>.N y+@+#+$+%+U % ",
"B.9+z+A+B+H.c+c+C+D+E+F+2+G+g+H+r+v+I+J+K+L+I.M+J.k.K.L.N+N >.>.x+O+>.>.N f+P.L.Q.R.S.U % ",
"B.9+z+A+P+H.c+c+H.E+Q+2+g+y+s+P.R+S+J.T+9.n.o.p.q.1.r.s.k.@+N N >.>.N N f+t+x.y.z.A.B.o . ",
"].9+z+A+B+H.c+c+c+H.F+3+H+U+P. +V+I.W+p.X+Y+Z+`+ @ @Z+.@n.+@x.P.N N g+y+P.x.@@p.#@d.U % . ",
"].^.j+$@%@&@H.c+c+c+H.H.H.H.H.H.I+*@=@q.Y+-@;@>@,@,@'@-@)@|.y.L.@+!@!@@+L.y.p.~@{@{.o . . ",
"U C.]@^@/@(@_@H.c+c+;+;+;+;+;+;+H.I+M+9.X+:@>@<@[@[@<@,@}@6.|@}.=@@@@@=@}.|@6.}@1@T % . . ",
"U C.[ 2@3@4@J.N+H.c+c+c+c+c+c+;+;+H.N+k.o.Y+5@<@6@7@7@8@9@;@/.~@0@a@a@0@~@/.;@9@b@c@. . . ",
"U d@e@e f@-.9.J.g@H.H.H.H.H.H.c+;+;+H.x.h@a@/.,@[@7@i@7@[@<@,@;@}@-@-@}@;@,@<@[@j@k@. . . ",
"].d@f.d A ..2.[.+@S+!@v+t+U+q+H.c+c+H.P.L.9.~@;@<@7@i@i@i@7@[@<@l@9@9@l@<@[@7@i@m@k@. . . ",
"].d@n@o@p@` `+q@r.m.+@M+L.S+I+t+H.c+c+H.@+y.@.r@l@6@i@i@i@i@i@7@7@6@6@7@7@i@i@i@m@k@. . . ",
"].d@s@#+t@u@v@}@Z+.@w@p.[.x@+@J+H.c+;+H.!@+@w@:@y@6@i@i@i@i@i@i@i@i@i@i@i@i@i@i@m@k@. . . ",
"U % z@A@B@C@y@y@'@}@:@`+7..@|.D@H.c+c+H. +k.1./.y@6@i@i@i@i@i@i@i@i@i@i@i@i@i@i@m@. . . . ",
"o % E@F@G@H@I@[@8@l@y@,@'@r@)@[.J@H.H.t+@+l.a@:@9@6@i@i@i@i@i@i@i@i@i@i@i@i@i@i@m@. . . . ",
"% . . K@L@M@N@j@j@j@O@b@P@Q@R@S@T@l U@V@W@X@Y@Z@`@O@m@m@m@m@m@m@m@m@m@m@m@m@m@m@. . . . . ",
". . . . .  #.#k@k@k@k@k@c@+#@###$#%#&#&#*#$#=#@#-#c@k@k@k@k@k@k@k@k@k@k@k@k@. . . . . . . ",
". . . . . . . . . . . . . % U S.;#>#,#,#>#;#S.U % . . . . . . . . . . . . . . . . . . . . ",
". . . . . . . . . . . . . % o U B.'#%+%+'#B.U o % . . . . . . . . . . . . . . . . . . . . ",
". . . . . . . . . . . . . . . . . . . . . . . . . . . . . . . . . . . . . . . . . . . . . ",
". . . . . . . . . . . . . . . . . . . . . . . . . . . . . . . . . . . . . . . . . . . . . ",
". . . . . . . . . . . . . . . . . . . . . . . . . . . . . . . . . . . . . . . . . . . . . ",
". . . . . . . . . . . . . . . . . . . . . . . . . . . . . . . . . . . . . . . . . . . . . "};
