/* XPM */
static char * rack_plugin_top__move_right_xpm[] = {
"8 16 103 2",
"  	c None",
". 	c #32333E",
"+ 	c #696E79",
"@ 	c #696E78",
"# 	c #6B7079",
"$ 	c #6B717A",
"% 	c #6C7179",
"& 	c #6B7179",
"* 	c #1F1E28",
"= 	c #201F29",
"- 	c #23222D",
"; 	c #22202B",
"> 	c #21202B",
", 	c #1F1F2A",
"' 	c #22212C",
") 	c #22222D",
"! 	c #23232F",
"~ 	c #242330",
"{ 	c #274E72",
"] 	c #6692AF",
"^ 	c #1B283A",
"/ 	c #23222E",
"( 	c #252532",
"_ 	c #262633",
": 	c #3A607F",
"< 	c #D5F5FB",
"[ 	c #87ADC1",
"} 	c #1E2C3E",
"| 	c #20202B",
"1 	c #282837",
"2 	c #282937",
"3 	c #28394E",
"4 	c #8DB6C8",
"5 	c #D0F5FB",
"6 	c #7EA6BB",
"7 	c #202F41",
"8 	c #2C2D3D",
"9 	c #1F2F44",
"0 	c #94C1D4",
"a 	c #CCF3FB",
"b 	c #7EAABE",
"c 	c #1B293B",
"d 	c #252633",
"e 	c #323446",
"f 	c #2F3242",
"g 	c #1A3551",
"h 	c #B3E0EC",
"i 	c #C6F3FA",
"j 	c #5B8DAA",
"k 	c #21222E",
"l 	c #383B4F",
"m 	c #36384B",
"n 	c #303344",
"o 	c #1E3956",
"p 	c #AEDFEC",
"q 	c #C1F1FA",
"r 	c #588CAA",
"s 	c #1F212C",
"t 	c #3C3F54",
"u 	c #3A3D52",
"v 	c #313B4F",
"w 	c #5B8AA5",
"x 	c #B6EBF5",
"y 	c #99CDDD",
"z 	c #2B4860",
"A 	c #21232E",
"B 	c #3E4258",
"C 	c #363F57",
"D 	c #53839F",
"E 	c #B6EFF9",
"F 	c #99D1E2",
"G 	c #2A4760",
"H 	c #1F212D",
"I 	c #252836",
"J 	c #396587",
"K 	c #B0EDF8",
"L 	c #92CDDF",
"M 	c #243E57",
"N 	c #212330",
"O 	c #262937",
"P 	c #303244",
"Q 	c #305C80",
"R 	c #7EBBD1",
"S 	c #28435C",
"T 	c #222634",
"U 	c #292C3B",
"V 	c #333649",
"W 	c #3C4056",
"X 	c #40455E",
"Y 	c #31415C",
"Z 	c #273952",
"` 	c #282C3B",
" .	c #2D3040",
"..	c #35394D",
"+.	c #3F455B",
"@.	c #464D66",
"#.	c #42485F",
"$.	c #393E54",
"%.	c #363A4E",
"&.	c #3B3F55",
"*.	c #434861",
"=.	c #4A506B",
"-.	c #4D5470",
". . . . . . . . ",
"+ @ # $ % & % $ ",
"* * * * * * = = ",
"- ; > , > ' ) ! ",
"~ { ] ^ , / ( _ ",
"( : < [ } | ( 1 ",
"2 3 4 5 6 7 ! 2 ",
"8 2 9 0 a b c d ",
"e f 2 g h i j k ",
"l m n o p q r s ",
"t u v w x y z A ",
"B C D E F G H I ",
"B J K L M N O P ",
"B Q R S T U V W ",
"X Y Z `  ...+.@.",
"@.#.$.%.&.*.=.-."};
