/* XPM */
static char * reverb__display_xpm[] = {
"47 17 47 1",
" 	c None",
".	c #79879B",
"+	c #484F5A",
"@	c #79869B",
"#	c #000000",
"$	c #868C98",
"%	c #79869A",
"&	c #6D6C6D",
"*	c #686868",
"=	c #646464",
"-	c #606060",
";	c #5C5C5C",
">	c #575858",
",	c #535353",
"'	c #4F4F4F",
")	c #4B4B4B",
"!	c #464646",
"~	c #424242",
"{	c #3E3E3E",
"]	c #393A3A",
"^	c #353536",
"/	c #313131",
"(	c #2D2D2D",
"_	c #292929",
":	c #252525",
"<	c #212020",
"[	c #1C1C1C",
"}	c #171717",
"|	c #131414",
"1	c #0F0F0F",
"2	c #0B0B0B",
"3	c #070707",
"4	c #020203",
"5	c #78869A",
"6	c #788599",
"7	c #5E5E5E",
"8	c #484848",
"9	c #323232",
"0	c #798699",
"a	c #060606",
"b	c #788598",
"c	c #798599",
"d	c #788498",
"e	c #778397",
"f	c #788397",
"g	c #778297",
"h	c #768296",
".+++++++++++++++++++++++++++++++++++++++++++++@",
"@+###########################################$%",
"%+#&&*=-;>,')!~{]^/(_:<[}|1234###############$5",
"5+#&)([######################################$6",
"6+#7([#######################################$6",
"6+#8[########################################$6",
"6+#9#########################################$6",
"6+#[#########################################$6",
"0+#a#######################################^#$b",
"c+#a#######################################^#$b",
"6+#a#######################################^#$d",
"d+#a#######################################^#$d",
"d+#a#######################################^#$d",
"d+#########################################,#$e",
"f+#######################################^,=#$e",
"e+###########################################$g",
"g+$$$$$$$$$$$$$$$$$$$$$$$$$$$$$$$$$$$$$$$$$$$$h"};
