/* XPM */
static char * scrollbar_v_bg_xpm[] = {
"16 128 264 2",
"  	c None",
". 	c #313343",
"+ 	c #313444",
"@ 	c #313545",
"# 	c #313544",
"$ 	c #313443",
"% 	c #303442",
"& 	c #2F3341",
"* 	c #2E3241",
"= 	c #2E3240",
"- 	c #323545",
"; 	c #333647",
"> 	c #343748",
", 	c #343849",
"' 	c #333748",
") 	c #333747",
"! 	c #323646",
"~ 	c #323645",
"{ 	c #313644",
"] 	c #353849",
"^ 	c #393C4F",
"/ 	c #3C4053",
"( 	c #3D4255",
"_ 	c #3D4155",
": 	c #3D4154",
"< 	c #3D4153",
"[ 	c #3C3F53",
"} 	c #3B3F53",
"| 	c #3B3F51",
"1 	c #3A3F51",
"2 	c #3A3F50",
"3 	c #393E50",
"4 	c #42455B",
"5 	c #474C63",
"6 	c #4A4F66",
"7 	c #494E66",
"8 	c #494E65",
"9 	c #484D65",
"0 	c #484D64",
"a 	c #474D63",
"b 	c #464C62",
"c 	c #464C60",
"d 	c #454B5F",
"e 	c #50546E",
"f 	c #171920",
"g 	c #181920",
"h 	c #5D637B",
"i 	c #4F556E",
"j 	c #4F556D",
"k 	c #4E556C",
"l 	c #4D546B",
"m 	c #4A4E66",
"n 	c #525772",
"o 	c #181A21",
"p 	c #202337",
"q 	c #252A43",
"r 	c #616780",
"s 	c #525871",
"t 	c #515771",
"u 	c #515770",
"v 	c #535872",
"w 	c #212438",
"x 	c #262B43",
"y 	c #272B43",
"z 	c #626881",
"A 	c #525973",
"B 	c #525972",
"C 	c #525971",
"D 	c #525870",
"E 	c #626781",
"F 	c #535A73",
"G 	c #515870",
"H 	c #262B44",
"I 	c #535973",
"J 	c #535972",
"K 	c #535A72",
"L 	c #525872",
"M 	c #262B42",
"N 	c #626780",
"O 	c #515871",
"P 	c #252B42",
"Q 	c #51576F",
"R 	c #515970",
"S 	c #51586F",
"T 	c #252A42",
"U 	c #626680",
"V 	c #525A72",
"W 	c #262A42",
"X 	c #252B41",
"Y 	c #61667F",
"Z 	c #505870",
"` 	c #62677F",
" .	c #535873",
"..	c #252A41",
"+.	c #62667F",
"@.	c #262B41",
"#.	c #262A41",
"$.	c #616680",
"%.	c #252A40",
"&.	c #50576F",
"*.	c #242A40",
"=.	c #61667E",
"-.	c #525873",
";.	c #252941",
">.	c #252940",
",.	c #242A41",
"'.	c #60667F",
").	c #242940",
"!.	c #242941",
"~.	c #60667E",
"{.	c #50586F",
"].	c #61657E",
"^.	c #535971",
"/.	c #50586E",
"(.	c #61657D",
"_.	c #515971",
":.	c #60657D",
"<.	c #535871",
"[.	c #60657E",
"}.	c #51576E",
"|.	c #50576E",
"1.	c #242840",
"2.	c #60647D",
"3.	c #4A4F67",
"4.	c #24293F",
"5.	c #5F657D",
"6.	c #494F67",
"7.	c #24283F",
"8.	c #5F647D",
"9.	c #505770",
"0.	c #4A4E67",
"a.	c #24283E",
"b.	c #494F66",
"c.	c #50566F",
"d.	c #23283E",
"e.	c #5F637D",
"f.	c #5F647C",
"g.	c #4F576E",
"h.	c #24273E",
"i.	c #5E647D",
"j.	c #23273E",
"k.	c #50566E",
"l.	c #494E67",
"m.	c #5F637C",
"n.	c #5E647C",
"o.	c #24273D",
"p.	c #5E637C",
"q.	c #4F566E",
"r.	c #23283D",
"s.	c #23273D",
"t.	c #5E647B",
"u.	c #4F576D",
"v.	c #5E637B",
"w.	c #51586E",
"x.	c #4F566D",
"y.	c #50576D",
"z.	c #22273C",
"A.	c #5E637A",
"B.	c #22273D",
"C.	c #23273C",
"D.	c #5D627B",
"E.	c #5E627A",
"F.	c #50566D",
"G.	c #5D637A",
"H.	c #5D627A",
"I.	c #525770",
"J.	c #51566E",
"K.	c #525771",
"L.	c #22273B",
"M.	c #21273B",
"N.	c #22263C",
"O.	c #22263B",
"P.	c #21273C",
"Q.	c #5D6279",
"R.	c #21263B",
"S.	c #5C6279",
"T.	c #21273A",
"U.	c #22263A",
"V.	c #22273A",
"W.	c #21263A",
"X.	c #5C6278",
"Y.	c #484E65",
"Z.	c #343848",
"`.	c #4F566C",
" +	c #343749",
".+	c #5C6277",
"++	c #21253A",
"@+	c #212639",
"#+	c #212539",
"$+	c #5B6178",
"%+	c #5B6177",
"&+	c #4F556C",
"*+	c #5B6277",
"=+	c #5C6177",
"-+	c #484E64",
";+	c #212538",
">+	c #5B6176",
",+	c #4E566C",
"'+	c #212439",
")+	c #202538",
"!+	c #494D65",
"~+	c #202438",
"{+	c #494D64",
"]+	c #5A6176",
"^+	c #3C4154",
"/+	c #51566F",
"(+	c #202437",
"_+	c #5B6076",
":+	c #5A6076",
"<+	c #383B4B",
"[+	c #3B3F4E",
"}+	c #43475A",
"|+	c #4E5369",
"1+	c #565C74",
"2+	c #595E77",
"3+	c #5A5F77",
"4+	c #585E76",
"5+	c #575D75",
"6+	c #565D74",
"7+	c #565C73",
"8+	c #555B73",
"9+	c #555B71",
"0+	c #545B71",
"a+	c #4A4D5B",
"b+	c #4D505E",
"c+	c #545869",
"d+	c #5E6277",
"e+	c #656B80",
"f+	c #686D84",
"g+	c #696E85",
"h+	c #686D83",
"i+	c #676D83",
"j+	c #676C82",
"k+	c #666C81",
"l+	c #656B7F",
"m+	c #646A7E",
"n+	c #646A7D",
"o+	c #636672",
"p+	c #666975",
"q+	c #6C6F7E",
"r+	c #75788A",
"s+	c #7B8092",
"t+	c #7D8296",
"u+	c #7D8295",
"v+	c #7C8194",
"w+	c #7B8193",
"x+	c #7B8192",
"y+	c #7B8091",
"z+	c #7A7F91",
"A+	c #797F90",
"B+	c #757781",
"C+	c #777984",
"D+	c #7D7F8C",
"E+	c #848897",
"F+	c #898E9F",
"G+	c #8B90A1",
"H+	c #8B8FA1",
"I+	c #8B8FA0",
"J+	c #8B8F9F",
"K+	c #8A8F9F",
"L+	c #898E9E",
"M+	c #898D9D",
"N+	c #898D9C",
"O+	c #898D9B",
". . + + + @ # + $ % % & & * * = ",
". + - ; > , > > ' ) ) ! ~ ~ { # ",
"+ - ] ^ / ( _ : < [ } | 1 2 2 3 ",
"+ ; ^ 4 5 6 7 8 9 0 a 5 b c c d ",
"+ > / 5 e f f f g g f h i j k l ",
"+ > _ m n o p p p p q r s t u u ",
"+ > _ m v o w x x y y z A B C D ",
"+ > _ m v o w x x x y E F C s G ",
"+ > _ m v o w H y y y E I J s G ",
"+ > _ m v o w x y y x E A B s D ",
"+ > _ m v o w y x y x z J C C G ",
"+ > _ m v o w x x x x E K B C G ",
"+ > _ m v o w y x y x E J J C G ",
"+ > _ m v o w x x x x E I L C G ",
"+ > _ m v o w x M x x N I s D G ",
"+ > _ m v o w M M x x E I C O G ",
"+ > _ m v o w P M M P r K B s Q ",
"+ > _ m v o w M M P M N I B R S ",
"+ > _ m v o w T x M M N J L G G ",
"+ > _ m v o w M P T P U V C G G ",
"+ > _ m v o w W P M M U B B O S ",
"+ > _ m v o w P W M X Y J B G Z ",
"+ > _ m v o w T X W M ` J B O S ",
"+ > _ m  .o w ..T T T +.B C D S ",
"+ > _ m  .o w X X @.@.N B L D Q ",
"+ > _ m  .o w ........Y B s D Q ",
"+ > _ m  .o w T ....#.$.B O G S ",
"+ > _ m v o w ......T Y J s D Q ",
"+ > _ m  .o w ..%.....+.J s G &.",
"+ > _ m  .o w *.%.....=.J C G G ",
"+ > _ m -.o w ....;...Y L O D Q ",
"+ > _ m v o w %...%.%.=.B s G Q ",
"+ > _ m  .o w >.,...>.'.B O D Q ",
"+ > _ m L o w %.;.>.%.=.B s u Q ",
"+ > _ m  .o w ..).!.>.~.C s G {.",
"+ > _ m v o w >.%.).).~.B s G Q ",
"+ > _ m L o w >.*.>.%.].^.O G Q ",
"+ > _ m  .o w >.>.%.>.].^.O G /.",
"+ > _ m v o w %.).*.>.(.C _.S &.",
"+ > _ m v o w *.).>.).].C s S Q ",
"+ > _ m L o w >.>.*.).:.<.D G Q ",
"+ > _ m v o w >.).).).[.C s G Q ",
"+ > _ m v o w ).).).).:.C D Q }.",
"+ > _ m L o w ).).).).[.L D u Q ",
"+ > _ m L o w ).).).).:.s s Q |.",
"+ > _ m v o w 1.1.).).:.s s G |.",
"+ > _ m L o w ).).).).2.C C S |.",
"+ > _ 3.v o w ).).4.4.5.s D Q Q ",
"+ > _ 3.L o w ).).).).:.s D S |.",
"+ > _ 7 L o w 4.1.1.1.5.C D G &.",
"+ > _ 6.L o w 7.1.7.7.8.C G 9.}.",
"+ > _ 3.L o w 1.4.7.1.8.C O {.}.",
"+ > _ m L o w 7.).4.7.8.C G G |.",
"+ > _ 3.L o w 7.1.7.7.8.O G Q &.",
"+ > _ 6.L o w 7.7.7.7.2.s G u |.",
"+ > _ 0.L o w 7.7.7.a.8.C u {.|.",
"+ > _ 3.L o w a.7.7.7.8.C u S |.",
"+ > _ b.L o w a.7.7.7.8.s G &.c.",
"+ > _ 6.L o w d.7.7.7.e.s G S |.",
"+ > _ 3.L o w 7.a.7.d.f.C G S |.",
"+ > _ m s o w d.d.7.7.8.O G Q g.",
"+ > _ m s o w h.h.a.a.i.D S &.&.",
"+ > _ b.L o w h.a.d.j.f.s G {.k.",
"+ > _ l.L o w a.a.d.a.f.s S |.|.",
"+ > _ m L o w d.d.d.a.m.G S &.|.",
"+ > _ 6 s o w h.a.d.j.n.s S |.k.",
"+ > _ 6 s o w o.j.d.h.p.O G }.q.",
"+ > _ 6.L o w r.j.r.d.m.G S &.|.",
"+ > _ 3.L o w s.j.j.s.t.G S |.u.",
"+ > _ m s o w s.s.s.j.p.D G Q |.",
"+ > ( 6.L o w j.s.s.s.p.O G &.|.",
"+ > ( b.s o w s.s.j.s.v.D Z w.k.",
"+ > ( m s o w s.s.s.s.h G S }.x.",
"+ > ( 7 O o w s.s.s.s.v.D Q &.y.",
"+ > ( 7 s o w z.s.s.s.A.G G }.|.",
"+ > _ b.s o w B.C.z.z.A.G Q |.y.",
"+ > ( m s o w s.C.B.s.D.G S |.u.",
"+ > ( b.s o w C.C.B.z.E.G Q |.F.",
"+ > _ 7 O o w s.z.s.s.A.G Q |.|.",
"+ > ( 7 s o w B.z.s.B.G.G &.|.q.",
"+ > ( 7 s o w z.z.z.B.H.I.Q &.u.",
"+ > ( 8 G o w z.z.B.z.H.G Q J.y.",
"+ > ( 7 G o w z.z.z.C.G.D &.}.|.",
"+ > ( 7 K.o w C.C.z.z.H.G Q |.F.",
"+ > ( 7 K.o w z.z.z.L.H.S Q |.q.",
"+ > _ 7 G o w L.z.z.z.H.G S |.u.",
"+ > ( 8 s o w L.L.M.L.H.Q &.|.F.",
"+ > ( 8 s o w L.L.N.O.H.S Q |.x.",
"+ > ( 8 s o w O.L.P.L.Q.S &.g.q.",
"+ > _ 8 s o w R.L.L.L.Q.u &.y.F.",
"+ > _ 8 I.o w L.M.L.P.Q.S Q F.u.",
"+ > ( 7 u o w O.R.M.L.S.Q &.F.x.",
"+ > ( 7 t o w M.L.O.L.Q.S &.|.F.",
"+ > ( 7 O o w M.T.U.V.S.S }.q.x.",
"+ , ( 7 t o w W.O.T.O.X.G &.|.u.",
"+ , _ 8 u o w U.W.M.R.S.9.&.|.x.",
"+ , ( Y.D o w W.O.R.W.Q.{.&.k.x.",
"+ , _ 8 G o w R.R.R.R.Q.S |.k.x.",
"+ , _ 8 u o w R.R.W.R.S.S J.k.x.",
"+ Z.( 8 G o w W.W.W.W.S.G |.F.`.",
"+ , _ 8 G o w W.W.W.W.X.9.&.k.x.",
"+  +_ Y.u o w W.W.W.W..+u |.k.x.",
"+ , _ Y.G o w ++W.@+W.X.S }.F.`.",
"+ , ( Y.u o w W.W.@+W.X.Q |.F.`.",
"+ , ( 8 u o w W.#+@+@+X.&.|.F.`.",
"+ Z.( 9 u o w W.W.@+@+$+&.|.x.`.",
"+ > : 8 u o w @+#+++@+%+Q |.F.&+",
"+ Z.( 8 u o w #+@+@+#+*+&.c.F.`.",
"+ Z.: Y.u o w @+#+@+@+=+&.|.g.x.",
"+ > _ 9 u o w #+@+#+#+*+|.k.u.`.",
"+ Z._ 8 Q o w #+#+#+@+%+Q |.x.x.",
"+ Z.: -+G o w #+#+#+;+%+{.g.x.`.",
"+ > : 9 u o w #+#+;+#+>+&.|.F.,+",
"+ Z.: Y.Q o w #+#+#+;+>+{.k.F.`.",
"+ Z.: 9 G o w w ;+#+'+%+&.F.F.`.",
"+ Z.: 9 u o w ;+'+;+)+>+&.|.x.`.",
"+ > : !+&.o w ;+w ;+;+>+&.|.F.`.",
"@ Z._ 9 u o w #+#+;+#+>+&.q.x.`.",
"@ > _ -+Q o w w ~+;+w >+}.k.x.,+",
"@ Z.: {+&.o w )+;+~+;+]+&.y.F.&+",
"@ > : 0 u o w w ;+w w ]+&.g.x.k ",
"@ Z.^+-+/+o w ~+)+)+;+]+|.k.x.,+",
"@ > : 0 u o w (+~+~+;+_+|.g.`.,+",
"@ Z.^+0 9.o ~+~+(+;+)+:+|.F.F.&+",
"<+[+}+|+1+2+3+2+4+4+5+6+7+8+9+0+",
"a+b+c+d+e+f+g+h+i+j+k+e+l+l+m+n+",
"o+p+q+r+s+t+u+u+v+v+w+x+s+y+z+A+",
"B+C+D+E+F+G+G+H+I+J+K+L+L+M+N+O+"};
