/* XPM */
static char * sinth__oscenv_middle_xpm[] = {
"123 34 191 2",
"  	c None",
". 	c #7A889C",
"+ 	c #7B889D",
"@ 	c #7A879B",
"# 	c #79869A",
"$ 	c #79879B",
"% 	c #78869A",
"& 	c #0E1012",
"* 	c #000000",
"= 	c #657182",
"- 	c #040405",
"; 	c #101215",
"> 	c #31363F",
", 	c #6A7688",
"' 	c #616C7C",
") 	c #1F2228",
"! 	c #050607",
"~ 	c #010101",
"{ 	c #0B0C0E",
"] 	c #1E2227",
"^ 	c #636E7F",
"/ 	c #070809",
"( 	c #22262C",
"_ 	c #79869B",
": 	c #5B6575",
"< 	c #393F49",
"[ 	c #2A2F36",
"} 	c #2F353D",
"| 	c #111215",
"1 	c #08090A",
"2 	c #657082",
"3 	c #738094",
"4 	c #09090B",
"5 	c #181B1F",
"6 	c #323740",
"7 	c #282D34",
"8 	c #0A0C0D",
"9 	c #545E6C",
"0 	c #31373F",
"a 	c #0F1013",
"b 	c #16191D",
"c 	c #2F353C",
"d 	c #282D33",
"e 	c #788599",
"f 	c #626C7D",
"g 	c #778397",
"h 	c #262A30",
"i 	c #21252A",
"j 	c #5D6877",
"k 	c #6F7A8D",
"l 	c #778498",
"m 	c #737F92",
"n 	c #5A6473",
"o 	c #030304",
"p 	c #748295",
"q 	c #08080A",
"r 	c #687485",
"s 	c #121518",
"t 	c #616C7D",
"u 	c #606A7B",
"v 	c #010202",
"w 	c #738194",
"x 	c #697587",
"y 	c #30363E",
"z 	c #4B5460",
"A 	c #6E7A8D",
"B 	c #758296",
"C 	c #3F4650",
"D 	c #191C21",
"E 	c #515A67",
"F 	c #1A1D22",
"G 	c #3D434E",
"H 	c #2F343C",
"I 	c #616B7C",
"J 	c #6B7688",
"K 	c #434B56",
"L 	c #050506",
"M 	c #030404",
"N 	c #4C5561",
"O 	c #14161A",
"P 	c #687384",
"Q 	c #343942",
"R 	c #282C33",
"S 	c #070709",
"T 	c #748194",
"U 	c #738093",
"V 	c #727F92",
"W 	c #57616F",
"X 	c #3D444E",
"Y 	c #111316",
"Z 	c #2A2E36",
"` 	c #000101",
" .	c #4F5865",
"..	c #707C8F",
"+.	c #505966",
"@.	c #768296",
"#.	c #6F7B8E",
"$.	c #636E7E",
"%.	c #596372",
"&.	c #25292F",
"*.	c #748094",
"=.	c #484F5B",
"-.	c #1D2025",
";.	c #798699",
">.	c #414853",
",.	c #24282E",
"'.	c #657081",
").	c #16181C",
"!.	c #2D323A",
"~.	c #30353D",
"{.	c #464E5A",
"].	c #1C2024",
"^.	c #404651",
"/.	c #798599",
"(.	c #646E7E",
"_.	c #020203",
":.	c #6F7C8D",
"<.	c #6A7587",
"[.	c #707C8E",
"}.	c #32373F",
"|.	c #15181B",
"1.	c #0B0D0F",
"2.	c #2E343B",
"3.	c #626C7C",
"4.	c #272C32",
"5.	c #101114",
"6.	c #778497",
"7.	c #788498",
"8.	c #788397",
"9.	c #FFFFFF",
"0.	c #778297",
"a.	c #778296",
"b.	c #768195",
"c.	c #758195",
"d.	c #758095",
"e.	c #758094",
"f.	c #6E788C",
"g.	c #2B2F36",
"h.	c #060708",
"i.	c #202329",
"j.	c #667082",
"k.	c #08090B",
"l.	c #49505D",
"m.	c #6C768A",
"n.	c #040505",
"o.	c #747E93",
"p.	c #272B32",
"q.	c #272A31",
"r.	c #646D7F",
"s.	c #292D34",
"t.	c #555D6B",
"u.	c #5E6676",
"v.	c #1B1D22",
"w.	c #474E5B",
"x.	c #5F6878",
"y.	c #090A0B",
"z.	c #30343C",
"A.	c #525A68",
"B.	c #525967",
"C.	c #4E5563",
"D.	c #212429",
"E.	c #748093",
"F.	c #050606",
"G.	c #707B8E",
"H.	c #747E92",
"I.	c #202328",
"J.	c #646D7E",
"K.	c #707A8E",
"L.	c #747F93",
"M.	c #22252B",
"N.	c #505866",
"O.	c #23272C",
"P.	c #6F7B8D",
"Q.	c #292D35",
"R.	c #363B45",
"S.	c #717C90",
"T.	c #555E6C",
"U.	c #575F6E",
"V.	c #262A31",
"W.	c #4D5562",
"X.	c #737F93",
"Y.	c #6E788B",
"Z.	c #2E323A",
"`.	c #15171B",
" +	c #17191D",
".+	c #6B7588",
"++	c #262930",
"@+	c #141519",
"#+	c #727E92",
"$+	c #717E91",
"%+	c #707D90",
". . . . . . . . . . . . . . . . . . . . . . . . . . . . . . . . . . . . . . . . . . . + . . . . . . . . . . . . . . . . . . . . . . . . . . . . . . . . . . . . . . . . . . . . . . . . . . . . . . . . . . . . . . . . . . . . . . . . . . . . . . . ",
". . . . . . . . . . . . . . @ @ . . . . . . . . . . . . . . . . . . . . . . . . . . . . . . . . @ @ . . . . . . . . . . . . . . . . . . . . . . . . . . . . . . . . . . . . . . . . . . . . . . . . . . . . . . . . . . . . . . . . @ @ . . . . . . . ",
"@ @ @ @ @ @ @ @ @ @ @ @ @ # $ % # # # # @ @ @ @ @ @ @ @ @ @ @ @ @ @ @ @ @ @ @ @ @ @ @ $ # # # # % $ @ @ @ @ @ @ @ @ @ @ @ @ @ @ @ @ @ @ @ @ @ @ @ @ @ # # # # # # @ @ @ @ @ @ @ @ @ @ @ @ @ @ @ @ @ @ @ @ @ @ @ # # # # # # @ @ @ @ $ $ @ @ @ @ @ @ @ ",
"$ $ $ $ $ $ $ $ $ $ $ $ % & * * * = $ $ $ $ $ $ $ $ $ $ $ $ $ $ $ $ $ $ $ $ $ $ $ $ $ * * * - ; > , $ $ $ $ $ $ $ $ $ $ $ $ $ $ $ $ $ $ $ $ $ $ $ $ ' ) ! ~ { ] ^ $ $ $ $ $ $ $ $ $ $ $ $ $ $ $ $ $ $ $ $ $ $ $ $ * * * * / ( = $ $ _ _ $ $ $ $ $ $ $ ",
"_ _ _ _ _ _ _ _ _ _ _ _ : * * * * < _ _ _ _ _ _ _ _ _ _ _ _ _ _ _ _ _ _ _ _ _ _ _ _ _ * * [ } | * 1 2 _ _ _ _ _ _ _ _ _ _ _ _ _ _ _ _ _ _ _ _ _ _ 3 4 * 5 6 7 8 9 _ _ _ _ _ _ _ _ _ _ _ _ _ _ _ _ _ _ _ _ _ _ _ _ * * [ 0 a * b _ _ # # _ _ _ _ _ _ _ ",
"# # # # # # # # # # # # c * d d * & e # # # # # # # # # # # # # # # # # # # # # # # # * * f # g h * i # # # # # # # # # # # # # # # # # # # # # # j * * k # # l m # # # # # # # # # # # # # # # # # # # # # # # # * * f # n * o # # % % # # # # # # # ",
"% % % % % % % % % % % p q * r r s * n % % % % % % % % % % % % % % % % % % % % % % % % * * t % % u * v w % % % % % % % % % % % % % % % % % % % % % x * * ; y z A % % % % % % % % % % % % % % % % % % % % % % % % % * * t B C * D % % e e % % % % % % % ",
"e e e e e e e e e e e E * F e e G * H e e e e e e e e e e e e e e e e e e e e e e e e * * I e e A * * J e e e e e e e e e e e e e e e e e e e e e e K L * * * M N e e e e e e e e e e e e e e e e e e e e e e e e * * * * * O P e e e e e e e e e e e ",
"e e e e e e e e e e e h * 5 Q Q R * S T e e e e e e e e e e e e e e e e e e e e e e e * * I e e u * v U e e e e e e e e e e e e e e e e e e e e e e e V W X Y * { e e e e e e e e e e e e e e e e e e e e e e e e * * Z i * `  .e e e e e e e e e e e ",
"e e e e e e e e e e ..o * * * * * * * +.e e e e e e e e e e e e e e e e e e e e e e e * * I e @.h * i e e e e e e e e e e e e e e e e e e e e e e #.$.e e e %.* M e e e e e e e e e e e e e e e e e e e e e e e e * * I e &.* { *.e e e e e e e e e e ",
"e e e e e e e e e e =.* -.e ;.;.e >.* ,.e e e e e e e e e e e e e e e e e e e e e e e * * Z H ; * 1 '.e e e e e e e e e e e e e e e e e e e e e e $.* ).!.~.a * ,.e e e e e e e e e e e e e e e e e e e e e e e e * * I e ^ * * {.e ;.;.e e e e e e e ",
";.;.;.;.;.;.;.;.;.;.].* ^.;././.;.(.* _.:.;.;.;.;.;.;.;.;.;.;.;.;.;.;.;.;.;.;.;.;.;.;.* * * M ; ~.<.;.;.;.;.;.;.;.;.;.;.;.;.;.;.;.;.;.;.;.;.;.;.;.[.}.|.L ~ 1.2.:.;.;.;.;.;.;.;.;.;.;.;.;.;.;.;.;.;.;.;.;.;.;.;.;.* * 3.;.;.4.* 5.6././.;.;.;.;.;.;.;.",
"/./././././././././././././.e e /././././././././././././././././././././././././././.;././././.e e /./././././././././././././././././././././././././././././././././././././././././././././././././././././././././././././././.e e /././././././.",
"e e e e e e e e e e e e e e 7.7.e e e e e e e e e e e e e e e e e e e e e e e e e e e /.e e e e 7.7.e e e e e e e e e e e e e e e e e e e e e e e e e e e e e e e e e e e e e e e e e e e e e e e e e e e e e e e e e e e e e e e e 7.7.e e e e e e e ",
"7.7.7.7.7.7.7.7.7.7.7.7.7.7.7.7.7.7.7.7.7.7.7.7.7.7.7.7.7.7.7.7.7.7.7.7.7.7.7.7.7.7.7.e 7.7.7.7.7.7.7.7.7.7.7.7.7.7.7.7.7.7.7.7.7.7.7.7.7.7.7.7.7.7.7.7.7.7.7.7.7.7.7.7.7.7.7.7.7.7.7.7.7.7.7.7.7.7.7.7.7.7.7.7.7.7.7.7.7.7.7.7.7.7.7.7.7.7.7.7.7.7.7.",
"7.7.7.7.7.7.7.7.7.7.7.7.7.7.7.7.7.7.7.7.7.7.7.7.7.7.7.7.7.7.7.7.7.7.7.7.7.7.7.7.7.7.7.7.7.7.7.7.7.7.7.7.7.7.7.7.7.7.7.7.7.7.7.7.7.7.7.7.7.7.7.7.7.7.7.7.7.7.7.7.7.7.7.7.7.7.7.7.7.7.7.7.7.7.7.7.7.7.7.7.7.7.7.7.7.7.7.7.7.7.7.7.7.7.7.7.7.7.7.7.7.7.7.",
"7.7.7.7.7.7.7.7.7.7.7.7.7.7.8.8.7.7.7.7.7.7.7.7.7.7.7.7.7.7.7.7.7.7.7.7.7.7.7.7.7.7.7.7.7.7.7.7.8.8.7.7.7.7.7.7.7.7.7.7.7.7.7.7.7.7.7.7.7.7.7.7.7.7.7.7.7.7.7.7.7.7.7.7.7.7.7.7.7.7.7.7.7.7.7.7.7.7.7.7.7.7.7.7.7.7.7.7.7.7.7.7.7.7.8.8.7.7.7.7.7.7.7.",
"8.8.8.8.8.8.8.8.8.8.8.8.8.8.g g 8.8.8.8.8.8.8.8.8.8.8.8.8.8.8.8.8.8.8.8.8.8.8.8.8.8.8.7.8.8.8.8.g g 8.8.8.8.8.8.8.8.8.8.8.8.8.8.8.8.8.8.8.8.8.8.8.8.8.8.8.8.8.8.8.8.8.8.8.8.8.8.8.8.8.8.8.8.8.8.8.8.8.8.8.8.8.8.8.8.8.8.8.8.8.8.8.8.g g 8.8.8.8.8.8.8.",
"9.9.9.9.9.9.9.9.9.9.9.9.9.9.9.9.9.9.9.9.9.9.9.9.9.9.9.9.9.9.9.9.9.9.9.9.9.9.9.9.9.9.9.9.9.9.9.9.9.9.9.9.9.9.9.9.9.9.9.9.9.9.9.9.9.9.9.9.9.9.9.9.9.9.9.9.9.9.9.9.9.9.9.9.9.9.9.9.9.9.9.9.9.9.9.9.9.9.9.9.9.9.9.9.9.9.9.9.9.9.9.9.9.9.9.9.9.9.9.9.9.9.9.",
"0.0.0.0.0.0.0.0.0.0.0.0.0.0.a.a.0.0.0.0.0.0.0.0.0.0.0.0.0.0.0.0.0.0.0.0.0.0.0.0.0.0.0.g 0.0.0.0.a.a.0.0.0.0.0.0.0.0.0.0.0.0.0.0.0.0.0.0.0.0.0.0.0.0.0.0.0.0.0.0.0.0.0.0.0.0.0.0.0.0.0.0.0.0.0.0.0.0.0.0.0.0.0.0.0.0.0.0.0.0.0.0.0.0.a.a.0.0.0.0.0.0.0.",
"a.a.a.a.a.a.a.a.a.a.a.a.a.a.@.@.a.a.a.a.a.a.a.a.a.a.a.a.a.a.a.a.a.a.a.a.a.a.a.a.a.a.a.0.a.a.a.a.@.@.a.a.a.a.a.a.a.a.a.a.a.a.a.a.a.a.a.a.a.a.a.a.a.a.a.a.a.a.a.a.a.a.a.a.a.a.a.a.a.a.a.a.a.a.a.a.a.a.a.a.a.a.a.a.a.a.a.a.a.a.a.a.a.a.@.@.a.a.a.a.a.a.a.",
"@.@.@.@.@.@.@.@.@.@.@.@.@.@.b.b.@.@.@.@.@.@.@.@.@.@.@.@.@.@.@.@.@.@.@.@.@.@.@.@.@.@.@.a.@.@.@.@.b.b.@.@.@.@.@.@.@.@.@.@.@.@.@.@.* * @.@.@.@.@.@.@.@.@.@.@.@.@.@.@.@.@.@.@.@.@.@.@.@.@.@.@.@.@.@.@.@.@.@.@.@.@.@.@.@.@.@.@.@.@.@.@.@.b.b.@.@.@.@.@.@.@.",
"b.b.b.b.b.b.b.b.b.b.b.b.b.b.c.c.b.b.b.b.b.b.b.b.b.b.b.b.b.b.b.b.b.b.b.b.b.b.b.b.b.b.b.@.b.b.b.b.c.c.b.b.b.b.b.b.b.b.b.b.b.b.b.b.* * b.b.b.b.b.b.b.b.b.b.b.b.b.b.b.b.b.b.b.b.b.b.b.b.b.b.b.b.b.b.b.b.b.b.b.b.b.b.b.b.b.b.b.b.b.b.b.b.c.c.b.b.b.b.b.b.b.",
"c.c.c.c.c.c.c.c.c.c.c.c.c.c.d.d.c.c.c.c.c.c.c.c.c.c.c.c.c.c.c.c.c.c.c.c.c.c.c.c.c.c.c.b.c.c.c.c.d.d.c.c.c.c.c.c.c.c.c.c.c.c.c.c.* * c.c.c.c.c.c.c.c.c.c.c.c.c.c.c.c.c.c.c.c.c.c.c.c.c.c.c.c.c.c.c.c.c.c.c.c.c.c.c.c.c.c.c.c.c.c.c.c.d.d.c.c.c.c.c.c.c.",
"d.d.d.d.d.d.d.d.d.d.d.d.d.d.e.e.d.d.d.d.d.d.d.d.d.d.d.d.d.d.d.d.d.f.g.h.M i.j.d.d.* * * * k.l.m.n.5.o.d.o.5.n.m.f.g.h.M i.j.d.d.* * d.d.m.p.! ! q.m.d.d.* * * * O r.d.d.f.g.h.M i.j.d.d.d.d.d.d.d.d.d.d.d.d.d.d.d.d.d.d.d.d.d.d.d.d.e.e.d.d.d.d.d.d.d.",
"e.e.e.e.e.e.e.e.e.e.e.e.e.e.e.e.e.e.e.e.e.e.e.e.e.e.e.e.e.e.e.e.e.s.* t.u.* v.e.e.* * w.x.* y.e.z.* A.e.B.* ~.e.s.* t.u.* v.e.e.* * e.e.q.* C.C.* q.e.e.* * C.C.* D.e.e.s.* t.u.* v.e.e.e.e.e.e.e.e.e.e.e.e.e.e.e.e.e.e.e.e.e.e.e.e.e.e.e.e.e.e.e.e.e.",
"e.e.e.e.e.e.e.e.e.e.e.e.e.e.E.E.e.e.e.e.e.e.e.e.e.e.e.e.e.e.e.e.e.F.* * * * ~ e.e.* * G.H.* * e.f * i.e.I.` J.e.F.* * * * ~ e.e.* * e.e.L * G.G.* F.e.e.* * G.K.* n.e.e.F.* * * * ~ e.e.e.e.e.e.e.e.e.e.e.e.e.e.e.e.e.e.e.e.e.e.e.e.E.E.e.e.e.e.e.e.e.",
"E.E.E.E.E.E.E.E.E.E.E.E.E.E.L.L.E.E.E.E.E.E.E.E.E.E.E.E.E.E.E.E.E.! * J E.E.E.E.E.* * e.E.* * E.L.M.* N.* O.E.E.! * J E.E.E.E.E.* * E.E.L * P.k * F.E.E.* * k k * n.E.E.! * J E.E.E.E.E.E.E.E.E.E.E.E.E.E.E.E.E.E.E.E.E.E.E.E.E.E.E.L.L.E.E.E.E.E.E.E.",
"L.L.L.L.L.L.L.L.L.L.L.L.L.L.L.L.L.L.L.L.L.L.L.L.L.L.L.L.L.L.L.L.L.Q.* R.S.L.L.L.L.* * E.L.* * L.L.T.* L * U.L.L.Q.* R.S.L.L.L.L.* * L.L.V.* W.W.* V.L.L.* * W.W.* I.L.L.Q.* R.S.L.L.L.L.L.L.L.L.L.L.L.L.L.L.L.L.L.L.L.L.L.L.L.L.L.L.L.L.L.L.L.L.L.L.L.",
"L.L.L.L.L.L.L.L.L.L.L.L.L.L.X.X.L.L.L.L.L.L.L.L.L.L.L.L.L.L.L.L.L.Y.Z.4 * * * L.L.* * L.L.* * L.X.X.`.*  +L.L.L.Y.Z.4 * * * L.L.* * L.L..+V.L L ++.+L.L.* * * * @+f L.L.Y.Z.4 * * * L.L.L.L.L.L.L.L.L.L.L.L.L.L.L.L.L.L.L.L.L.L.L.L.X.X.L.L.L.L.L.L.L.",
"X.X.X.X.X.X.X.X.X.X.X.X.X.X.m m X.X.X.X.X.X.X.X.X.X.X.X.X.X.X.X.X.X.X.X.X.X.X.X.X.X.X.L.X.X.X.X.m m X.X.X.X.X.X.X.X.X.X.X.X.X.X.X.X.X.X.X.X.X.X.X.X.X.X.* * X.X.X.X.X.X.X.X.X.X.X.X.X.X.X.X.X.X.X.X.X.X.X.X.X.X.X.X.X.X.X.X.X.X.X.X.m m X.X.X.X.X.X.X.",
"m m m m m m m m m m m m m m #+#+m m m m m m m m m m m m m m m m m m m m m m m m m m m X.m m m m #+#+m m m m m m m m m m m m m m m m m m m m m m m m m m * * m m m m m m m m m m m m m m m m m m m m m m m m m m m m m m m m m m m m #+#+m m m m m m m ",
"#+#+#+#+#+#+#+#+#+#+#+#+#+#+$+$+#+#+#+#+#+#+#+#+#+#+#+#+#+#+#+#+#+#+#+#+#+#+#+#+#+#+#+m #+#+#+#+$+$+#+#+#+#+#+#+#+#+#+#+#+#+#+#+#+#+#+#+#+#+#+#+#+#+#+#+#+#+#+#+#+#+#+#+#+#+#+#+#+#+#+#+#+#+#+#+#+#+#+#+#+#+#+#+#+#+#+#+#+#+#+#+#+#+$+$+#+#+#+#+#+#+#+",
"$+$+$+$+$+$+$+$+$+$+$+$+$+%+%+%+%+%+%+$+$+$+$+$+$+$+$+$+$+$+$+$+$+$+$+$+$+$+$+$+$+$+$+#+%+%+%+%+%+%+$+$+$+$+$+$+$+$+$+$+$+$+$+$+$+$+$+$+$+$+$+$+$+$+$+%+%+%+%+%+%+$+$+$+$+$+$+$+$+$+$+$+$+$+$+$+$+$+$+$+$+$+$+$+$+$+%+%+%+%+%+%+$+$+$+$+$+$+$+$+$+$+$+"};
