/* XPM */
static char * sinth__oscenv_osctune_separator_xpm[] = {
"8 127 117 2",
"  	c None",
". 	c #7D8A9F",
"+ 	c #818EA2",
"@ 	c #8592A7",
"# 	c #8794A9",
"$ 	c #8896AB",
"% 	c #8795AA",
"& 	c #8694A9",
"* 	c #8694A8",
"= 	c #8693A8",
"- 	c #8593A8",
"; 	c #8491A7",
"> 	c #8491A6",
", 	c #8391A6",
"' 	c #8390A6",
") 	c #8290A5",
"! 	c #818FA4",
"~ 	c #808EA3",
"{ 	c #7F8CA2",
"] 	c #818EA4",
"^ 	c #7D8B9F",
"/ 	c #7F8DA2",
"( 	c #7B889D",
"_ 	c #7E8CA1",
": 	c #78859A",
"< 	c #7E8BA1",
"[ 	c #808DA3",
"} 	c #758295",
"| 	c #7C8A9E",
"1 	c #737F92",
"2 	c #7B899D",
"3 	c #717E90",
"4 	c #7B889C",
"5 	c #707C8F",
"6 	c #7A879B",
"7 	c #7D8BA0",
"8 	c #707D8F",
"9 	c #727D91",
"0 	c #7A879C",
"a 	c #7D8AA0",
"b 	c #738095",
"c 	c #7A889D",
"d 	c #7C8AA0",
"e 	c #7D8BA1",
"f 	c #768398",
"g 	c #7B899F",
"h 	c #7C889E",
"i 	c #7C899F",
"j 	c #7C8A9F",
"k 	c #7B889E",
"l 	c #7C899E",
"m 	c #7A889C",
"n 	c #79879B",
"o 	c #79869B",
"p 	c #79869A",
"q 	c #78869A",
"r 	c #788599",
"s 	c #798699",
"t 	c #798599",
"u 	c #788498",
"v 	c #788397",
"w 	c #FFFFFF",
"x 	c #778297",
"y 	c #778296",
"z 	c #768296",
"A 	c #768195",
"B 	c #758195",
"C 	c #758095",
"D 	c #758094",
"E 	c #748093",
"F 	c #747F93",
"G 	c #737F93",
"H 	c #727E92",
"I 	c #717E91",
"J 	c #707D90",
"K 	c #707C90",
"L 	c #707B90",
"M 	c #6F7B90",
"N 	c #6E7A8E",
"O 	c #6F7B8F",
"P 	c #6E798D",
"Q 	c #6F7A8F",
"R 	c #6B778B",
"S 	c #6D798D",
"T 	c #6A7588",
"U 	c #6D798C",
"V 	c #677286",
"W 	c #6C778C",
"X 	c #6E798E",
"Y 	c #646F82",
"Z 	c #6A758A",
"` 	c #6D788D",
" .	c #626C7F",
"..	c #6A7489",
"+.	c #606A7D",
"@.	c #687387",
"#.	c #6B768B",
"$.	c #60697C",
"%.	c #687287",
"&.	c #636D80",
"*.	c #687388",
"=.	c #687488",
"-.	c #6A768A",
";.	c #667085",
">.	c #697488",
",.	c #677287",
"'.	c #697489",
").	c #677489",
"!.	c #677388",
"~.	c #667387",
"{.	c #667287",
"].	c #667286",
"^.	c #667186",
"/.	c #656F83",
"(.	c #646F83",
"_.	c #646E83",
":.	c #656E83",
". . . . . . . . ",
"+ + + + + + + + ",
"@ @ @ @ @ @ @ @ ",
"# # # # # # # # ",
"$ $ $ $ $ $ $ $ ",
"$ $ $ $ $ $ $ $ ",
"$ $ $ $ $ $ $ $ ",
"% % % % % % % % ",
"& & & & & & & & ",
"* * * * * * * * ",
"= = = = = = = = ",
"- - - - - - - - ",
"@ @ @ @ @ @ @ @ ",
"; ; ; ; ; ; ; ; ",
"> > > > > > > > ",
", , , , , , , , ",
"' ' ' ' ' ' ' ' ",
") ) ) ) ) ) ) ) ",
") ) ) ) ) ) ) ) ",
") ) ) ) ) ) ) ) ",
") ) ) ) ) ) ) ) ",
"! ! ! ! ! ! ! ! ",
"~ ! ! ! ! ! ! ! ",
"{ ] ] ] ] ] ] ] ",
"^ / ~ ~ ~ ~ ~ ~ ",
"( _ ~ ~ ~ ~ ~ ~ ",
": < [ [ [ [ [ [ ",
"} | _ / / / / / ",
"1 2 _ / / / / / ",
"3 4 _ / / / / / ",
"5 6 7 _ _ _ _ _ ",
"5 6 7 _ _ _ _ _ ",
"8 6 7 _ _ _ _ _ ",
"9 0 a < < < < < ",
"b c d e e e e e ",
"f g e e e e e e ",
": h a a a a a a ",
"0 i a a a a a a ",
"( j j j j j j j ",
"k i i i i i i i ",
"l l l l l l l l ",
"l l l l l l l l ",
"2 2 2 2 2 2 2 2 ",
"( ( ( ( ( ( ( ( ",
"( ( ( ( ( ( ( ( ",
"m m m m m m m m ",
"m m m m m m m m ",
"6 6 6 6 6 6 6 6 ",
"n n n n n n n n ",
"o o o o o o o o ",
"p p p p p p p p ",
"q q q q q q q q ",
"r r r r r r r r ",
"r r r r r r r r ",
"r r r r r r r r ",
"r r r r r r r r ",
"s s s s s s s s ",
"t t t t t t t t ",
"r r r r r r r r ",
"u u u u u u u u ",
"u u u u u u u u ",
"u u u u u u u u ",
"v v v v v v v v ",
"w w w w w w w w ",
"x x x x x x x x ",
"y y y y y y y y ",
"z z z z z z z z ",
"A A A A A A A A ",
"B B B B B B B B ",
"C C C C C C C C ",
"D D D D D D D D ",
"D D D D D D D D ",
"E E E E E E E E ",
"F F F F F F F F ",
"F F F F F F F F ",
"G G G G G G G G ",
"1 1 1 1 1 1 1 1 ",
"H H H H H H H H ",
"I I I I I I I I ",
"I I I I I I I I ",
"I I I I I I I I ",
"J J J J J J J J ",
"J J J J J J J J ",
"K K K K K K K K ",
"L L L L L L L L ",
"M M M M M M M M ",
"N O O O O O O O ",
"P Q Q Q Q Q Q Q ",
"R S N N N N N N ",
"T U N N N N N N ",
"V W X X X X X X ",
"Y Z W ` ` ` ` ` ",
" ...W ` ` ` ` ` ",
"+.@.#.W W W W W ",
"$.@.#.W W W W W ",
"$.@.#.W W W W W ",
"+.@.#.W W W W W ",
"+.%.Z #.#.#.#.#.",
"&.*.Z #.#.#.#.#.",
"Y =.-.-.-.-.-.-.",
";.>.Z Z Z Z Z Z ",
",.'.Z Z Z Z Z Z ",
"@.'.'.'.'.'.'.'.",
"*.'.'.'.'.'.'.'.",
").).).).).).).).",
").).).).).).).).",
"!.!.!.!.!.!.!.!.",
"!.!.!.!.!.!.!.!.",
"!.!.!.!.!.!.!.!.",
"!.!.!.!.!.!.!.!.",
"~.~.~.~.~.~.~.~.",
"{.{.{.{.{.{.{.{.",
"{.{.{.{.{.{.{.{.",
"].].].].].].].].",
"].].].].].].].].",
"^.^.^.^.^.^.^.^.",
"^.^.^.^.^.^.^.^.",
"^.^.^.^.^.^.^.^.",
"^.^.^.^.^.^.^.^.",
"^.^.^.^.^.^.^.^.",
"/./././././././.",
"(.(.(.(.(.(.(.(.",
"_._._._._._._._.",
"_._._._._._._._.",
":.:.:.:.:.:.:.:.",
"/./././././././.",
"/./././././././."};
