/* XPM */
static char * sinth__filter_separator_xpm[] = {
"4 127 79 1",
" 	c None",
".	c #7D8A9F",
"+	c #818EA2",
"@	c #8592A7",
"#	c #8794A9",
"$	c #8896AB",
"%	c #8795AA",
"&	c #8694A9",
"*	c #8694A8",
"=	c #8693A8",
"-	c #8593A8",
";	c #8491A7",
">	c #8491A6",
",	c #8391A6",
"'	c #8390A6",
")	c #8290A5",
"!	c #818FA4",
"~	c #818EA4",
"{	c #808EA3",
"]	c #808DA3",
"^	c #7F8DA2",
"/	c #7E8CA1",
"(	c #7E8BA1",
"_	c #7D8BA1",
":	c #7D8AA0",
"<	c #7C8A9F",
"[	c #7C899F",
"}	c #7C899E",
"|	c #7B899D",
"1	c #7B889D",
"2	c #7A889C",
"3	c #7A879B",
"4	c #79879B",
"5	c #79869B",
"6	c #79869A",
"7	c #78869A",
"8	c #788599",
"9	c #798699",
"0	c #798599",
"a	c #788498",
"b	c #788397",
"c	c #778397",
"d	c #778297",
"e	c #778296",
"f	c #768296",
"g	c #768195",
"h	c #758195",
"i	c #758095",
"j	c #758094",
"k	c #748093",
"l	c #747F93",
"m	c #737F93",
"n	c #737F92",
"o	c #727E92",
"p	c #717E91",
"q	c #707D90",
"r	c #707C90",
"s	c #707B90",
"t	c #6F7B90",
"u	c #6F7B8F",
"v	c #6F7A8F",
"w	c #6E7A8E",
"x	c #6E798E",
"y	c #6D788D",
"z	c #6C778C",
"A	c #6B768B",
"B	c #6A768A",
"C	c #6A758A",
"D	c #697489",
"E	c #677489",
"F	c #677388",
"G	c #667387",
"H	c #667287",
"I	c #667286",
"J	c #667186",
"K	c #656F83",
"L	c #646F83",
"M	c #646E83",
"N	c #656E83",
"....",
"++++",
"@@@@",
"####",
"$$$$",
"$$$$",
"$$$$",
"%%%%",
"&&&&",
"****",
"====",
"----",
"@@@@",
";;;;",
">>>>",
",,,,",
"''''",
"))))",
"))))",
"))))",
"))))",
"!!!!",
"!!!!",
"~~~~",
"{{{{",
"{{{{",
"]]]]",
"^^^^",
"^^^^",
"^^^^",
"////",
"////",
"////",
"((((",
"____",
"____",
"::::",
"::::",
"<<<<",
"[[[[",
"}}}}",
"}}}}",
"||||",
"1111",
"1111",
"2222",
"2222",
"3333",
"4444",
"5555",
"6666",
"7777",
"8888",
"8888",
"8888",
"8888",
"9999",
"0000",
"8888",
"aaaa",
"aaaa",
"aaaa",
"bbbb",
"cccc",
"dddd",
"eeee",
"ffff",
"gggg",
"hhhh",
"iiii",
"jjjj",
"jjjj",
"kkkk",
"llll",
"llll",
"mmmm",
"nnnn",
"oooo",
"pppp",
"pppp",
"pppp",
"qqqq",
"qqqq",
"rrrr",
"ssss",
"tttt",
"uuuu",
"vvvv",
"wwww",
"wwww",
"xxxx",
"yyyy",
"yyyy",
"zzzz",
"zzzz",
"zzzz",
"zzzz",
"AAAA",
"AAAA",
"BBBB",
"CCCC",
"CCCC",
"DDDD",
"DDDD",
"EEEE",
"EEEE",
"FFFF",
"FFFF",
"FFFF",
"FFFF",
"GGGG",
"HHHH",
"HHHH",
"IIII",
"IIII",
"JJJJ",
"JJJJ",
"JJJJ",
"JJJJ",
"JJJJ",
"KKKK",
"LLLL",
"MMMM",
"MMMM",
"NNNN",
"KKKK",
"KKKK"};
