/* XPM */
static char * sinth__osctune_osc1_coarse_label_xpm[] = {
"46 14 83 1",
" 	c None",
".	c #7D8A9F",
"+	c #818EA2",
"@	c #8592A7",
"#	c #8794A9",
"$	c #8896AB",
"%	c #353A43",
"&	c #0A0B0C",
"*	c #000000",
"=	c #7E8B9E",
"-	c #2D3239",
";	c #060708",
">	c #040405",
",	c #1B1E22",
"'	c #687282",
")	c #59626F",
"!	c #121416",
"~	c #010101",
"{	c #808DA1",
"]	c #32373F",
"^	c #08080A",
"/	c #25292F",
"(	c #778396",
"_	c #30353D",
":	c #414852",
"<	c #8593A7",
"[	c #5B6472",
"}	c #737F90",
"|	c #121417",
"1	c #515A66",
"2	c #8795AA",
"3	c #090A0B",
"4	c #040506",
"5	c #697384",
"6	c #30343C",
"7	c #636D7C",
"8	c #6D7889",
"9	c #1F2227",
"0	c #7E8B9F",
"a	c #050607",
"b	c #828FA4",
"c	c #5F6978",
"d	c #181A1E",
"e	c #030304",
"f	c #0B0C0E",
"g	c #0D0E10",
"h	c #272B31",
"i	c #687283",
"j	c #010102",
"k	c #8694A9",
"l	c #060607",
"m	c #7D8A9E",
"n	c #818EA3",
"o	c #808EA2",
"p	c #0B0C0D",
"q	c #6A7585",
"r	c #818FA3",
"s	c #282C33",
"t	c #020202",
"u	c #131518",
"v	c #7C899D",
"w	c #8694A8",
"x	c #2F343B",
"y	c #8391A5",
"z	c #2C3138",
"A	c #596370",
"B	c #6F7B8C",
"C	c #4D5561",
"D	c #6E798A",
"E	c #0A0B0D",
"F	c #30353C",
"G	c #3F454F",
"H	c #8391A4",
"I	c #8693A8",
"J	c #7F8B9F",
"K	c #343941",
"L	c #7C889B",
"M	c #2C3037",
"N	c #565F6C",
"O	c #5B6473",
"P	c #8593A8",
"Q	c #8491A7",
"R	c #8491A6",
".................................++...........",
"+++++++++++++++++++++++++++++++++@@+++++++++++",
"@@@@@@@@@@@@@@@@@@@@@@@@@@@@@@@@@##@@@@@@@@@@@",
"#################################$$###########",
"$$$$$$$$$$$$$$$$$$$$$$$$$$$$$$$$$$$$$$$$$$$$$$",
"$$+%&**$$=-;;-=$$$**>,'$$****$)!~**$${]^>/($$$",
"$$_*:<$$$-*[[*-$$$$$}*|$$**12$34522$$6*78*9$$$",
"22;*02222a*bb*;22cde***22**b22f*ghi22;****j222",
"kkl*mkkkka*no*lkkp*qr**kk**kkkqst*ukk;*vkkkkkk",
"wwx*:ywwwz*AA*zww3*BC**ww**wwwwwD*EwwF*GHwwwww",
"IIJK3**IILzaaMLIINE****II**III**~|OIIJ%E***III",
"PPPPPPPPPPPPPPPPPPPPPPPPPPPPPPPPP@@PPPPPPPPPPP",
"@@@@@@@@@@@@@@@@@@@@@@@@@@@@@@@@@QQ@@@@@@@@@@@",
"QQQQQQQQQQQQQQQQQQQQQQQQQQQQQQQQQRRQQQQQQQQQQQ"};
