/* XPM */
static char * top__button_stop_active_xpm[] = {
"31 24 373 2",
"  	c None",
". 	c #201F2A",
"+ 	c #211F29",
"@ 	c #201E29",
"# 	c #201F27",
"$ 	c #251E2A",
"% 	c #2A202A",
"& 	c #2E212E",
"* 	c #322230",
"= 	c #34232C",
"- 	c #34232B",
"; 	c #33232B",
"> 	c #35222C",
", 	c #35232C",
"' 	c #35222B",
") 	c #34212A",
"! 	c #34212B",
"~ 	c #35212A",
"{ 	c #32212A",
"] 	c #2E2028",
"^ 	c #2A1E28",
"/ 	c #251D27",
"( 	c #201E27",
"_ 	c #1E1D27",
": 	c #201E28",
"< 	c #201F29",
"[ 	c #22212D",
"} 	c #22222C",
"| 	c #231F2C",
"1 	c #28212C",
"2 	c #30232E",
"3 	c #3D2735",
"4 	c #4A2F3E",
"5 	c #523541",
"6 	c #573540",
"7 	c #59353D",
"8 	c #58333C",
"9 	c #59333C",
"0 	c #5A333C",
"a 	c #5A333B",
"b 	c #5A333A",
"c 	c #59333A",
"d 	c #58343A",
"e 	c #57323A",
"f 	c #532F36",
"g 	c #4A2931",
"h 	c #3D242D",
"i 	c #2F202A",
"j 	c #251E29",
"k 	c #211E2A",
"l 	c #21212C",
"m 	c #22212C",
"n 	c #252330",
"o 	c #242430",
"p 	c #23232F",
"q 	c #25212E",
"r 	c #2E252F",
"s 	c #3E2A35",
"t 	c #7F2323",
"u 	c #863275",
"v 	c #8F2557",
"w 	c #980A0A",
"x 	c #9A0808",
"y 	c #950D0D",
"z 	c #8E1414",
"A 	c #3D242B",
"B 	c #2B212A",
"C 	c #231F2B",
"D 	c #22222D",
"E 	c #272633",
"F 	c #252532",
"G 	c #2A2431",
"H 	c #342732",
"I 	c #4D313B",
"J 	c #FADEE2",
"K 	c #FDE3E5",
"L 	c #FEDEE1",
"M 	c #FEDCDE",
"N 	c #FDD7DC",
"O 	c #F9CDD2",
"P 	c #4B2831",
"Q 	c #31212D",
"R 	c #27222E",
"S 	c #232330",
"T 	c #252632",
"U 	c #272836",
"V 	c #292936",
"W 	c #282635",
"X 	c #2C2633",
"Y 	c #392A36",
"Z 	c #57363F",
"` 	c #970B0B",
" .	c #FDDDE0",
"..	c #FFD9DA",
"+.	c #FFC7C8",
"@.	c #FFCFCF",
"#.	c #FFCDCD",
"$.	c #FFC9CA",
"%.	c #FFCBCC",
"&.	c #FFB7B9",
"*.	c #FB939A",
"=.	c #542B32",
"-.	c #35242C",
";.	c #292330",
">.	c #272632",
",.	c #282836",
"'.	c #2A2A39",
").	c #2B2B39",
"!.	c #2A2938",
"~.	c #2F2937",
"{.	c #3D2B37",
"].	c #5D3842",
"^.	c #FFD9DB",
"/.	c #FFC5C6",
"(.	c #FFA9A9",
"_.	c #FFA9AB",
":.	c #FFABAB",
"<.	c #FFADAD",
"[.	c #FFABAD",
"}.	c #FFA7A9",
"|.	c #FF858E",
"1.	c #592C32",
"2.	c #39252E",
"3.	c #2B2531",
"4.	c #282835",
"5.	c #292A39",
"6.	c #2C2D3C",
"7.	c #2D2E3D",
"8.	c #2C2B3B",
"9.	c #302C39",
"0.	c #402D3A",
"a.	c #603943",
"b.	c #9B0707",
"c.	c #FED6D9",
"d.	c #FFBFC1",
"e.	c #FF7F85",
"f.	c #5B2B34",
"g.	c #392631",
"h.	c #2D2834",
"i.	c #2B2A38",
"j.	c #2C2C3C",
"k.	c #2E2F3F",
"l.	c #2E3040",
"m.	c #2D2E3E",
"n.	c #322E3D",
"o.	c #412E3C",
"p.	c #613B45",
"q.	c #FFBDBF",
"r.	c #5E2B34",
"s.	c #3B2732",
"t.	c #2F2A37",
"u.	c #303142",
"v.	c #313244",
"w.	c #303141",
"x.	c #333040",
"y.	c #43303F",
"z.	c #633B45",
"A.	c #FF999B",
"B.	c #5F2C35",
"C.	c #3D2836",
"D.	c #312B3B",
"E.	c #303143",
"F.	c #323445",
"G.	c #323547",
"H.	c #323245",
"I.	c #353144",
"J.	c #443341",
"K.	c #633D47",
"L.	c #FF9396",
"M.	c #602E37",
"N.	c #3E2936",
"O.	c #322D3C",
"P.	c #323346",
"Q.	c #333648",
"R.	c #35384A",
"S.	c #343547",
"T.	c #383445",
"U.	c #463443",
"V.	c #643E49",
"W.	c #612F38",
"X.	c #3F2C38",
"Y.	c #332F40",
"Z.	c #323345",
"`.	c #343648",
" +	c #36384C",
".+	c #37394D",
"++	c #36374B",
"@+	c #3A3749",
"#+	c #483746",
"$+	c #66404B",
"%+	c #FFD9DC",
"&+	c #FFB3B5",
"*+	c #623039",
"=+	c #412D3C",
"-+	c #353143",
";+	c #343548",
">+	c #36394C",
",+	c #383B4F",
"'+	c #393C50",
")+	c #383A4E",
"!+	c #3C394C",
"~+	c #493949",
"{+	c #67414C",
"]+	c #FF9F9F",
"^+	c #63313B",
"/+	c #422E3E",
"(+	c #373345",
"_+	c #37384B",
":+	c #3A3D53",
"<+	c #3B3E53",
"[+	c #3B3D52",
"}+	c #3E3B50",
"|+	c #4B3B4B",
"1+	c #68434F",
"2+	c #64323C",
"3+	c #443041",
"4+	c #383647",
"5+	c #3A3E52",
"6+	c #3C4056",
"7+	c #3D4156",
"8+	c #3D3F54",
"9+	c #403D53",
"0+	c #4D3C50",
"a+	c #694452",
"b+	c #FFB5B7",
"c+	c #FF858B",
"d+	c #653340",
"e+	c #463143",
"f+	c #3A384A",
"g+	c #3B3C52",
"h+	c #3D4055",
"i+	c #3E4359",
"j+	c #3F435A",
"k+	c #3F4258",
"l+	c #424156",
"m+	c #4E4053",
"n+	c #6A4655",
"o+	c #FFB1B1",
"p+	c #FF9999",
"q+	c #663541",
"r+	c #463345",
"s+	c #3C3A4D",
"t+	c #3C3F55",
"u+	c #3E4358",
"v+	c #40455C",
"w+	c #42455E",
"x+	c #41435B",
"y+	c #444359",
"z+	c #504256",
"A+	c #6B485A",
"B+	c #673643",
"C+	c #483747",
"D+	c #3F3B50",
"E+	c #3F4157",
"F+	c #40445B",
"G+	c #43475F",
"H+	c #444860",
"I+	c #42465F",
"J+	c #45465E",
"K+	c #50445C",
"L+	c #6B4A5E",
"M+	c #971B4A",
"N+	c #FF9D9D",
"O+	c #673845",
"P+	c #4A3749",
"Q+	c #413E53",
"R+	c #40445A",
"S+	c #42475F",
"T+	c #454A63",
"U+	c #464B64",
"V+	c #454962",
"W+	c #474961",
"X+	c #524860",
"Y+	c #6B4C63",
"Z+	c #931F4D",
"`+	c #FFAFB1",
" @	c #FF8389",
".@	c #663845",
"+@	c #4B384C",
"@@	c #424056",
"#@	c #42465D",
"$@	c #444962",
"%@	c #464C66",
"&@	c #474D67",
"*@	c #474B65",
"=@	c #4A4B64",
"-@	c #524963",
";@	c #684C64",
">@	c #8F2152",
",@	c #FDDBDD",
"'@	c #FF9597",
")@	c #FF9595",
"!@	c #FF898C",
"~@	c #FF8184",
"{@	c #FB818C",
"]@	c #633846",
"^@	c #4B3B4D",
"/@	c #434861",
"(@	c #464C65",
"_@	c #484E69",
":@	c #494F6A",
"<@	c #484E68",
"[@	c #4C4C67",
"}@	c #524964",
"|@	c #614962",
"1@	c #873777",
"2@	c #F4ACB6",
"3@	c #ED7F8E",
"4@	c #5C3948",
"5@	c #493D51",
"6@	c #44445D",
"7@	c #454A64",
"8@	c #484F68",
"9@	c #4B516C",
"0@	c #4C526E",
"a@	c #4A506C",
"b@	c #4C4F6A",
"c@	c #4F4C65",
"d@	c #594760",
"e@	c #52394B",
"f@	c #473F54",
"g@	c #45475F",
"h@	c #484D67",
"i@	c #4B506B",
"j@	c #4E5470",
"k@	c #4E5471",
"l@	c #4D526D",
"m@	c #4E4E69",
"n@	c #514860",
"o@	c #58435A",
"p@	c #5F4253",
"q@	c #67414F",
"r@	c #6A3F4D",
"s@	c #6C3E4D",
"t@	c #6C3D4B",
"u@	c #6D3D4B",
"v@	c #6D3E4B",
"w@	c #6C3D4A",
"x@	c #6D3D4A",
"y@	c #6C3B4B",
"z@	c #6D3C4B",
"A@	c #6A3C4B",
"B@	c #663C4B",
"C@	c #5E3B4B",
"D@	c #523B4D",
"E@	c #4A3E52",
"F@	c #46435C",
"G@	c #464A65",
"H@	c #4C536F",
"I@	c #4F5773",
"J@	c #505674",
"K@	c #4E5572",
"L@	c #4D516E",
"M@	c #4D4E68",
"N@	c #4E4A61",
"O@	c #4F465A",
"P@	c #4F4357",
"Q@	c #524257",
"R@	c #514257",
"S@	c #514157",
"T@	c #524157",
"U@	c #524057",
"V@	c #524156",
"W@	c #514056",
"X@	c #514156",
"Y@	c #514255",
"Z@	c #4F4156",
"`@	c #4E4257",
" #	c #4A445A",
".#	c #47465D",
"+#	c #49506B",
"@#	c #4D546F",
"##	c #4E5672",
". + . @ # $ % & * = - - ; > , > > ' ' - ) ! ~ { ] ^ / ( _ : < ",
"[ } [ | 1 2 3 4 5 6 7 8 9 9 0 9 a 0 9 b c d e f g h i j k l m ",
"n o p q r s t u v w w x x x x x x x x x x w w y z t A B C D p ",
"E E F G H I z J K L L L L L M L L L L L L L M N O z P Q R S T ",
"U V W X Y Z `  ...+.+.+.+.+.@.@.@.@.#.#.$.%.+.&.*.` =.-.;.>.,.",
"'.).!.~.{.].w ^./.(._.:.:.:.:.:.:.:.:.:.<.[.<.}.|.w 1.2.3.4.5.",
"6.7.8.9.0.a.b.c.d._.:.:.:.:.:.:.:.:.:.:.<.<.[.}.e.b.f.g.h.i.j.",
"k.l.m.n.o.p.x c.q.:.(.:.:.<.:.:.<.<.<.<.<.<.<.}.e.x r.s.t.j.k.",
"u.v.w.x.y.z.x c.d.(.:.:.<.:.<.<.<.<.<.<.<.<.(.A.e.x B.C.D.k.E.",
"F.G.H.I.J.K.x c.d.:.:.:.:.:.<.<.<.<.<.<.<.<.(.L.e.x M.N.O.u.P.",
"Q.R.S.T.U.V.x c.d.:.<.<.:.<.<.<.<.<.<.<.<.<.(.L.e.x W.X.Y.Z.`.",
" +.+++@+#+$+x %+&+:.<.<.<.<.<.<.<.<.<.<.<.<.(.L.e.x *+=+-+;+>+",
",+'+)+!+~+{+x %+&+:.:.<.<.<.<.<.<.<.<.<.<.<.]+A.e.x ^+/+(+_+,+",
":+<+[+}+|+1+x %+&+<.<.<.<.<.<.<.<.<.<.<.<.<.]+A.e.x 2+3+4+)+5+",
"6+7+8+9+0+a+x %+b+<.<.<.<.<.<.<.<.<.<.<.<.<.]+A.c+x d+e+f+g+h+",
"i+j+k+l+m+n+x M [.<.<.<.<.<.<.<.<.<.<.<.<.o+]+p+c+x q+r+s+t+u+",
"v+w+x+y+z+A+x M [.<.<.<.<.<.<.<.<.<.<.<.o+o+]+p+c+x B+C+D+E+F+",
"G+H+I+J+K+L+M+^.[.[.<.<.<.o+<.<.<.<.<.<.<.o+N+A.c+b.O+P+Q+R+S+",
"T+U+V+W+X+Y+Z+^.[.<.[.<.<.<.<.<.<.<.<.<.o+`+]+A. @w .@+@@@#@$@",
"%@&@*@=@-@;@>@,@[.[.[.N+'@'@L.L.'@'@'@'@'@)@!@~@{@` ]@^@y+/@(@",
"_@:@<@[@}@|@1@2@{@e. @e.e.e.e.e. @ @ @ @ @e.e.{@3@z 4@5@6@7@8@",
"9@0@a@b@c@d@t z y w w x x x x x x x x x x w w y z t e@f@g@h@i@",
"j@j@k@l@m@n@o@p@q@r@s@t@u@v@w@w@t@u@t@x@y@z@A@B@C@D@E@F@G@9@H@",
"I@J@J@K@L@M@N@O@P@Q@R@S@T@U@V@T@T@V@U@U@W@X@Y@Z@`@ #.#G@+#@###"};
