/* XPM */
static char * track_panel__swing_local_off_xpm[] = {
"30 13 90 1",
" 	c None",
".	c #788498",
"+	c #D8D8D8",
"@	c #E5E5E5",
"#	c #D2D2D2",
"$	c #788397",
"%	c #CDCDCD",
"&	c #BCBCBC",
"*	c #778397",
"=	c #778297",
"-	c #CCCCCC",
";	c #CBCCCC",
">	c #838382",
",	c #1A1A1A",
"'	c #0F0F0F",
")	c #252525",
"!	c #9C9C9C",
"~	c #CCCCCB",
"{	c #8F8F8F",
"]	c #000000",
"^	c #131313",
"/	c #151515",
"(	c #565757",
"_	c #8F8F8E",
":	c #BBBABB",
"<	c #778296",
"[	c #C9C9C9",
"}	c #B1B1B1",
"|	c #020202",
"1	c #777677",
"2	c #C9C9C8",
"3	c #525252",
"4	c #121212",
"5	c #C7C7C7",
"6	c #8D8D8D",
"7	c #AFAFAF",
"8	c #C9C8C9",
"9	c #B8B8B7",
"0	c #768296",
"a	c #C6C6C6",
"b	c #8E8F8F",
"c	c #A7A7A7",
"d	c #848484",
"e	c #B4B4B4",
"f	c #8A8A8A",
"g	c #141414",
"h	c #181818",
"i	c #141515",
"j	c #B5B5B5",
"k	c #768195",
"l	c #C3C3C4",
"m	c #ACACAC",
"n	c #747373",
"o	c #C3C3C3",
"p	c #505050",
"q	c #111111",
"r	c #C2C2C1",
"s	c #888889",
"t	c #ABABAA",
"u	c #898988",
"v	c #AAAAAB",
"w	c #C4C4C3",
"x	c #C4C3C3",
"y	c #B3B3B3",
"z	c #758195",
"A	c #C1C1C0",
"B	c #C1C1C1",
"C	c #797979",
"D	c #171717",
"E	c #0E0E0E",
"F	c #222221",
"G	c #929292",
"H	c #878786",
"I	c #A8A8A8",
"J	c #878787",
"K	c #C0C0C0",
"L	c #B1B1B0",
"M	c #758095",
"N	c #BEBEBE",
"O	c #BDBEBE",
"P	c #BEBDBD",
"Q	c #AEADAD",
"R	c #758094",
"S	c #BBBBBB",
"T	c #BABABB",
"U	c #A4A4A4",
"V	c #A3A3A4",
"W	c #A3A4A3",
"X	c #A4A3A3",
"Y	c #748093",
"...+++++++++++++++++++++++....",
"...+@@@@@@@@@@@@@@@@@@@@@#....",
"$$$+@%%%%%%%%%%%%%%%%%%%%&$$$$",
"***+@%%%%%%%%%%%%%%%%%%%%&****",
"===+@-;>,')!~{]^/(_]^/(~;:====",
"<<<+@[}|123456]7[[6]7[[[89<<<<",
"000+@ab]cad]ef]gh(f]ih(aaj0000",
"kkk+@lm|nopqrs]tllu]vllwxykkkk",
"zzz+@ABCDEFGBH]IABJ]IABBKLzzzz",
"MMM+@NNONPNNONNONNONNNNONQMMMM",
"RRR+@SSSSTSSSSSSSSSSSSSSSvRRRR",
"RRR+#UVWXWUVWUVWUVWUVUVWXWRRRR",
"YYYYYYYYYYYYYYYYYYYYYYYYYYYYYY"};
