/* XPM */
static char * track_panel__swing_knob_xpm[] = {
"30 30 222 2",
"  	c None",
". 	c #707D90",
"+ 	c #6F7C8F",
"@ 	c #6E7B8E",
"# 	c #6D7A8D",
"$ 	c #6D7A8C",
"% 	c #6C798C",
"& 	c #6C798B",
"* 	c #6F7B90",
"= 	c #6E7A8F",
"- 	c #6E7A8E",
"; 	c #6C788D",
"> 	c #848D9C",
", 	c #A0A5AD",
"' 	c #B4B7BB",
") 	c #C3C4C6",
"! 	c #CBCBCC",
"~ 	c #C2C3C5",
"{ 	c #B3B6BA",
"] 	c #9EA2AB",
"^ 	c #818A98",
"/ 	c #687488",
"( 	c #6B768A",
"_ 	c #6F7B8F",
": 	c #6D798C",
"< 	c #9299A4",
"[ 	c #BCBEC1",
"} 	c #CCCCCD",
"| 	c #CCCDCC",
"1 	c #CCCCCC",
"2 	c #CDCCCC",
"3 	c #BABCBF",
"4 	c #8E949F",
"5 	c #677284",
"6 	c #6A7689",
"7 	c #6F7A8F",
"8 	c #6E798D",
"9 	c #7E8797",
"0 	c #B4B6BB",
"a 	c #B2B4B8",
"b 	c #777F8E",
"c 	c #687286",
"d 	c #6B768B",
"e 	c #8B93A0",
"f 	c #CACACA",
"g 	c #CBCBCB",
"h 	c #CACACB",
"i 	c #838A96",
"j 	c #657082",
"k 	c #8B929F",
"l 	c #828994",
"m 	c #646F81",
"n 	c #6A7588",
"o 	c #6E798E",
"p 	c #6D788D",
"q 	c #7E8697",
"r 	c #C9C9C9",
"s 	c #CACBCA",
"t 	c #CBCACA",
"u 	c #CBCBCA",
"v 	c #CBCACB",
"w 	c #CACBCB",
"x 	c #727A88",
"y 	c #656F82",
"z 	c #6A758A",
"A 	c #6C778C",
"B 	c #CACAC9",
"C 	c #C9CAC9",
"D 	c #C9CACA",
"E 	c #CAC9CA",
"F 	c #B0B2B5",
"G 	c #5E6779",
"H 	c #667084",
"I 	c #6C778B",
"J 	c #9197A3",
"K 	c #878C96",
"L 	c #616B7E",
"M 	c #687387",
"N 	c #697489",
"O 	c #BBBDC0",
"P 	c #B8B9BC",
"Q 	c #5B6476",
"R 	c #646E82",
"S 	c #828A99",
"T 	c #C8C8C8",
"U 	c #757B87",
"V 	c #606A7D",
"W 	c #9EA3AC",
"X 	c #9599A0",
"Y 	c #5C6678",
"Z 	c #C7C7C7",
"` 	c #C8C7C7",
" .	c #C8C8C7",
"..	c #C7C7C8",
"+.	c #C8C7C8",
"@.	c #C7C8C7",
"#.	c #C7C8C8",
"$.	c #AFB0B4",
"%.	c #586273",
"&.	c #687287",
"*.	c #C3C4C5",
"=.	c #C0C0C2",
"-.	c #555E6F",
";.	c #677286",
">.	c #C5C5C5",
",.	c #C6C6C6",
"'.	c #535C6D",
").	c #667285",
"!.	c #C4C5C4",
"~.	c #515B6A",
"{.	c #667185",
"].	c #C2C3C4",
"^.	c #C5C6C6",
"/.	c #C5C6C5",
"(.	c #C6C6C5",
"_.	c #C5C5C6",
":.	c #C6C5C5",
"<.	c #C6C5C6",
"[.	c #515A6A",
"}.	c #B2B4B9",
"|.	c #C4C5C5",
"1.	c #C5C5C4",
"2.	c #C5C4C5",
"3.	c #ADAFB2",
"4.	c #535B6C",
"5.	c #667085",
"6.	c #9BA0A8",
"7.	c #C4C4C4",
"8.	c #92959C",
"9.	c #545C6D",
"0.	c #667186",
"a.	c #7D8593",
"b.	c #6E747F",
"c.	c #565F70",
"d.	c #657287",
"e.	c #616D81",
"f.	c #B9BBBE",
"g.	c #C3C4C3",
"h.	c #C3C3C4",
"i.	c #C3C3C3",
"j.	c #C4C3C3",
"k.	c #B7B8BA",
"l.	c #4D5767",
"m.	c #586375",
"n.	c #667387",
"o.	c #636F84",
"p.	c #89909B",
"q.	c #7E848D",
"r.	c #515B6C",
"s.	c #5C677A",
"t.	c #667287",
"u.	c #647085",
"v.	c #5F6A7E",
"w.	c #B0B3B7",
"x.	c #C3C2C3",
"y.	c #C2C2C3",
"z.	c #C2C3C3",
"A.	c #C2C3C2",
"B.	c #C3C3C2",
"C.	c #C3C2C2",
"D.	c #ACAEB1",
"E.	c #4C5565",
"F.	c #566072",
"G.	c #677388",
"H.	c #667286",
"I.	c #626E82",
"J.	c #727A89",
"K.	c #C2C2C2",
"L.	c #C9C9CA",
"M.	c #636A76",
"N.	c #525C6C",
"O.	c #5C6679",
"P.	c #606C80",
"Q.	c #7F8692",
"R.	c #C1C1C1",
"S.	c #747A84",
"T.	c #4F5869",
"U.	c #646F84",
"V.	c #5E697D",
"W.	c #7E8590",
"X.	c #4E5768",
"Y.	c #657285",
"Z.	c #5D697B",
"`.	c #6D7683",
" +	c #AEB1B4",
".+	c #C0C0C1",
"++	c #C0C0C0",
"@+	c #C0C1C0",
"#+	c #C1C0C1",
"$+	c #C1C0C0",
"%+	c #C1C1C0",
"&+	c #C0C1C1",
"*+	c #626A75",
"=+	c #4E5868",
"-+	c #566071",
";+	c #657185",
">+	c #5E697C",
",+	c #586274",
"'+	c #838993",
")+	c #B7B9BB",
"!+	c #7E838C",
"~+	c #4C5464",
"{+	c #636E83",
"]+	c #5A6577",
"^+	c #545E6F",
"/+	c #6D747F",
"(+	c #8B8F96",
"_+	c #A0A2A6",
":+	c #ADAEAF",
"<+	c #B5B5B5",
"[+	c #B4B4B4",
"}+	c #AAAAAB",
"|+	c #999B9E",
"1+	c #83878D",
"2+	c #646A74",
"3+	c #485160",
"4+	c #4E5767",
"5+	c #647083",
"6+	c #626D80",
"7+	c #4F5868",
"8+	c #4E5766",
"9+	c #4C5564",
". . . . . . . . . + + @ # $ % & & % $ # @ + + . . . . . . . ",
"* * * * * * * = - ; > , ' ) ! ! ~ { ] ^ / ( ; - = * * * * * ",
"_ _ _ _ _ _ - : < [ } | | 1 1 | 1 1 2 | 3 4 5 6 : - _ _ _ _ ",
"7 7 7 7 7 8 9 0 1 1 1 1 1 1 1 1 1 1 1 1 1 1 a b c d 8 7 7 7 ",
"- - - - : e f g g g g g g g g g g g g g g g g h i j 6 : - - ",
"- - - : k g g g g g g g g g g g g g g g g g g g g l m n : - ",
"o o p q r s h t f h f f f t u t f v s f h f t s w h x y z p ",
"p A z 0 B f f f f C f f f f D f f E f f f f f f E f F G H z ",
"p I J r r r r r r r r r r r r r r r r r r r r r r r r K L M ",
"d N O r r r r r r r r r r r r r r r r r r r r r r r r P Q R ",
"( S T T T T T T T T T T T T T T T T T T T T T T T T T T U V ",
"z W T T T T T T T T T T T T T T T T T T T T T T T T T T X Y ",
"N { Z Z `  .Z ..+.T ` Z Z @.Z @. ...+.+.....` #. . .+.1 $.%.",
"&.*.Z Z Z Z Z Z Z Z Z Z Z Z Z Z Z Z Z Z Z Z Z Z Z Z Z 1 =.-.",
";.>.,.,.,.,.,.,.,.,.,.,.,.,.,.,.,.,.,.,.,.,.,.,.,.,.,.1 h '.",
").!.,.,.,.,.,.,.,.,.,.,.,.,.,.,.,.,.,.,.,.,.,.,.,.,.,.1 h ~.",
"{.].>.>.>.^.>./.,.(._.>._.:.:.>._.>.(.<./.>./.>.:.>.>.1 =.[.",
"{.}.|.>.>.>.>.>.>.>.>.>.>.|.>.>.1.2.>.>.>.>.>.>.>.>.>.1 3.4.",
"5.6.7.7.7.7.7.7.7.7.7.7.7.7.7.7.7.7.7.7.7.7.7.7.7.7.7.1 8.9.",
"0.a.7.7.7.7.7.7.7.7.7.7.7.7.7.7.7.7.7.7.7.7.7.7.7.7.7.1 b.c.",
"d.e.f.g.h.i.i.h.h.i.g.i.j.i.i.i.i.i.i.i.i.i.i.i.i.i.i.k.l.m.",
"n.o.p.i.i.i.i.i.i.i.i.i.i.i.i.i.i.i.i.i.i.i.i.i.i.i.i.q.r.s.",
"t.u.v.w.i.x.y.y.z.x.x.A.y.B.C.C.A.z.i.y.z.C.C.i.C.A.D.E.F.v.",
"G.H.I.J.f K.K.K.K.K.K.K.K.K.K.K.K.K.K.K.K.K.K.K.K.L.M.N.O.I.",
"G.t.u.P.Q.R.R.R.R.R.R.R.R.R.R.R.R.R.R.R.R.R.R.R.R.S.T.m.P.u.",
"G.G.t.U.V.W.f R.R.R.R.R.R.R.R.R.R.R.R.R.R.R.R.L.S.X.F.V.U.t.",
"n.n.n.Y.I.Z.`. +.+++++++@+.+@+++++#+$+%+&+$+D.*+=+-+Z.I.Y.n.",
"t.t.t.t.;+I.>+,+'+)+++++++++++++++++++++k.!+~+r.,+>+I.;+t.t.",
"t.t.t.t.t.;+{+v.]+^+/+(+_+:+<+[+}+|+1+2+3+4+^+]+v.{+;+t.t.t.",
"H.H.H.H.H.H.;+5+6+>+]+-+N.7+8+9+9+8+7+N.-+]+>+6+5+;+H.H.H.H."};
