/* XPM */
static char * vst__slider_grabber_xpm[] = {
"25 9 31 1",
" 	c None",
".	c #606E8C",
"+	c #8292B2",
"@	c #A6B5CC",
"#	c #5D698B",
"$	c #7C8EAE",
"%	c #9FB0CB",
"&	c #A0AFCA",
"*	c #A0B0CA",
"=	c #9EB0CA",
"-	c #7686AA",
";	c #99A9C7",
">	c #BBC7DB",
",	c #BAC9DA",
"'	c #BBC8D9",
")	c #BBC7D9",
"!	c #BBC9DB",
"~	c #4D5A79",
"{	c #64769C",
"]	c #849ABC",
"^	c #839FBB",
"/	c #859CBB",
"(	c #849CBC",
"_	c #3E4A62",
":	c #526284",
"<	c #6B82A7",
"[	c #6D83A7",
"}	c #384256",
"|	c #485570",
"1	c #5E7094",
"2	c #000000",
"    .+@@@@@@@@@@@@@@+.   ",
"    #$%&**&&*&&&**=*$#   ",
"    -;>,'',,',,,'')!;-   ",
"    ~{]^]]^^]^^^]]/({~   ",
"    _:<<<[<<<<<<<[<<:_   ",
"    }|11111111111111|}   ",
"    }|11111111111111|}   ",
"    222222222222222222   ",
"     2222222222222222    "};
