/* XPM */
static char * vst__middle_xpm[] = {
"79 14 98 2",
"  	c None",
". 	c #6E798E",
"+ 	c #6D788D",
"@ 	c #6C778C",
"# 	c #A6ACB9",
"$ 	c #687387",
"% 	c #3C434F",
"& 	c #2F343E",
"* 	c #2E323B",
"= 	c #3F4652",
"- 	c #687287",
"; 	c #636D81",
"> 	c #393F4A",
", 	c #4D5463",
"' 	c #404754",
") 	c #31363F",
"! 	c #5B6577",
"~ 	c #576071",
"{ 	c #30353E",
"] 	c #3E4551",
"^ 	c #6B768A",
"/ 	c #646E82",
"( 	c #4D5564",
"_ 	c #434A57",
": 	c #2F333C",
"< 	c #505868",
"[ 	c #6B768B",
"} 	c #A5ACB8",
"| 	c #616B7E",
"1 	c #17191E",
"2 	c #2C3039",
"3 	c #24272E",
"4 	c #000000",
"5 	c #24282F",
"6 	c #586173",
"7 	c #040505",
"8 	c #15181C",
"9 	c #010102",
"0 	c #0A0B0D",
"a 	c #0C0D10",
"b 	c #0F1114",
"c 	c #404653",
"d 	c #5A6375",
"e 	c #050506",
"f 	c #191C21",
"g 	c #090A0C",
"h 	c #010101",
"i 	c #525A6A",
"j 	c #525B6B",
"k 	c #3A404B",
"l 	c #353B45",
"m 	c #090A0B",
"n 	c #060708",
"o 	c #1B1E23",
"p 	c #1F2329",
"q 	c #4E5666",
"r 	c #586273",
"s 	c #292D35",
"t 	c #515A6A",
"u 	c #6A768A",
"v 	c #464E5B",
"w 	c #181B20",
"x 	c #020303",
"y 	c #576172",
"z 	c #2A2F37",
"A 	c #5D687A",
"B 	c #5C6778",
"C 	c #272B33",
"D 	c #596374",
"E 	c #21252B",
"F 	c #6A758A",
"G 	c #A5ABB8",
"H 	c #313640",
"I 	c #474E5C",
"J 	c #565F70",
"K 	c #040405",
"L 	c #576072",
"M 	c #24272F",
"N 	c #5E687A",
"O 	c #5C6678",
"P 	c #596274",
"Q 	c #0A0B0E",
"R 	c #535C6D",
"S 	c #313740",
"T 	c #363C46",
"U 	c #565E70",
"V 	c #08090B",
"W 	c #131619",
"X 	c #0E1013",
"Y 	c #181B1F",
"Z 	c #16181C",
"` 	c #697489",
" .	c #A4ABB7",
"..	c #667185",
"+.	c #5D6779",
"@.	c #687388",
"#.	c #2A2E37",
"$.	c #5D6679",
". . . . . . . . . . . . . . . . . . . . . . . . . . . . . . . . . . . . . . . . . . . . . . . . . . . . . . . . . . . . . . . . . . . . . . . . . . . . . . . ",
"+ + + + + + + + + + + + + + + + + + + + + + + + + + + + + + + + + + + + + + + + + + + + + + + + + + + + + + + + + + + + + + + + + + + + + + + + + + + + + + + ",
"+ + + + + + + + + + + + + + + + + + + + + + + + + + + + + + + + + + + + + + + + + + + + + + + + + + + + + + + + + + + + + + + + + + + + + + + + + + + + + + + ",
"@ @ @ @ @ @ @ @ @ @ @ @ @ @ @ @ @ @ @ @ @ @ @ @ @ @ @ @ @ @ @ @ @ @ @ @ @ @ @ @ @ @ @ @ @ @ @ @ @ @ @ @ @ @ @ @ @ @ @ @ @ @ @ @ @ @ @ @ @ @ @ @ @ @ @ @ @ @ @ ",
"@ @ @ @ @ @ @ @ @ # # # # # # # # # # # # # # # # # # # # # # # # # # # # # # # # # # # # # # # # # # # # # # # # # # # # # # # # # # # # # # # # # # # # # # ",
"@ @ @ @ @ @ @ @ @ # @ @ @ @ @ @ @ @ @ @ @ @ @ @ @ @ @ @ @ @ @ @ @ @ @ @ @ @ @ @ @ @ @ @ @ @ @ @ @ @ @ @ @ @ @ @ @ @ @ @ @ @ @ @ @ @ @ @ @ @ @ @ @ @ @ @ @ @ @ ",
"@ @ @ @ @ @ @ @ @ # @ @ @ @ @ @ @ @ @ @ @ @ @ @ @ @ @ @ @ @ @ @ @ @ @ $ % & * = - @ ; > , ' ) ! ~ { ] ^ / > ( _ : < @ @ @ @ @ @ @ @ @ @ @ @ @ @ @ @ @ @ @ @ @ ",
"[ [ [ [ [ [ [ [ [ } [ [ [ [ [ [ [ [ [ [ [ [ [ [ [ [ [ [ [ [ [ [ [ [ [ | 1 2 3 4 5 [ 6 4 7 8 9 0 a b 4 c d 4 e f g h i [ [ [ [ [ [ [ [ [ [ [ [ [ [ [ [ [ [ [ [ ",
"[ [ [ [ [ [ [ [ [ } [ [ [ [ [ [ [ [ [ [ [ [ [ [ [ [ [ [ [ [ [ [ [ [ [ [ j k l m n [ 6 4 o [ p 4 q r 4 s d 4 o [ t 4 s [ [ [ [ [ [ [ [ [ [ [ [ [ [ [ [ [ [ [ [ ",
"u u u u u u u u u } u u u u u u u u u u u u u u u u u u u u u u u u u v 4 w ) m x u y 4 z u 5 4 A B 4 C D 4 C u B 4 E u u u u u u u u u u u u u u u u u u u u ",
"F F F F F F F F F G F F F F F F F F F F F F F F F F F F F F F F F F F H 4 I J K x F L 4 z F M 4 N O 4 C P 4 Q R S 4 T F F F F F F F F F F F F F F F F F F F F ",
"F F F F F F F F F G F F F F F F F F F F F F F F F F F F F F F F F F F U V 4 W X x F L 4 z F M 4 N O 4 C P 4 Y g 4 Z / F F F F F F F F F F F F F F F F F F F F ",
"` ` ` ` ` ` ` ` `  .` ` ` ` ` ` ` ` ` ` ` ` ` ` ` ` ` ` ` ` ` ` ` ` ` ` ..+.@.` ` ` ` ` ` ` ` ` ` ` ` ` 6 4 #...$.@.` ` ` ` ` ` ` ` ` ` ` ` ` ` ` ` ` ` ` ` ` ",
"` ` ` ` ` ` ` ` `  .` ` ` ` ` ` ` ` ` ` ` ` ` ` ` ` ` ` ` ` ` ` ` ` ` ` ` ` ` ` ` ` ` ` ` ` ` ` ` ` ` ` 6 4 #.` ` ` ` ` ` ` ` ` ` ` ` ` ` ` ` ` ` ` ` ` ` ` ` "};
